%TF.GenerationSoftware,KiCad,Pcbnew,8.0.5-8.0.5-0~ubuntu22.04.1*%
%TF.CreationDate,2024-10-04T16:16:11+02:00*%
%TF.ProjectId,wandfernsprecher,77616e64-6665-4726-9e73-707265636865,0.1.0*%
%TF.SameCoordinates,Original*%
%TF.FileFunction,Paste,Top*%
%TF.FilePolarity,Positive*%
%FSLAX46Y46*%
G04 Gerber Fmt 4.6, Leading zero omitted, Abs format (unit mm)*
G04 Created by KiCad (PCBNEW 8.0.5-8.0.5-0~ubuntu22.04.1) date 2024-10-04 16:16:11*
%MOMM*%
%LPD*%
G01*
G04 APERTURE LIST*
G04 Aperture macros list*
%AMRoundRect*
0 Rectangle with rounded corners*
0 $1 Rounding radius*
0 $2 $3 $4 $5 $6 $7 $8 $9 X,Y pos of 4 corners*
0 Add a 4 corners polygon primitive as box body*
4,1,4,$2,$3,$4,$5,$6,$7,$8,$9,$2,$3,0*
0 Add four circle primitives for the rounded corners*
1,1,$1+$1,$2,$3*
1,1,$1+$1,$4,$5*
1,1,$1+$1,$6,$7*
1,1,$1+$1,$8,$9*
0 Add four rect primitives between the rounded corners*
20,1,$1+$1,$2,$3,$4,$5,0*
20,1,$1+$1,$4,$5,$6,$7,0*
20,1,$1+$1,$6,$7,$8,$9,0*
20,1,$1+$1,$8,$9,$2,$3,0*%
G04 Aperture macros list end*
%ADD10RoundRect,0.200000X-0.200000X-0.275000X0.200000X-0.275000X0.200000X0.275000X-0.200000X0.275000X0*%
%ADD11RoundRect,0.250000X-1.100000X0.412500X-1.100000X-0.412500X1.100000X-0.412500X1.100000X0.412500X0*%
%ADD12RoundRect,0.157500X-0.157500X-0.222500X0.157500X-0.222500X0.157500X0.222500X-0.157500X0.222500X0*%
%ADD13RoundRect,0.075000X-0.650000X-0.075000X0.650000X-0.075000X0.650000X0.075000X-0.650000X0.075000X0*%
%ADD14R,1.500000X0.900000*%
%ADD15R,0.700000X0.700000*%
%ADD16RoundRect,0.200000X0.200000X0.275000X-0.200000X0.275000X-0.200000X-0.275000X0.200000X-0.275000X0*%
%ADD17RoundRect,0.225000X-0.225000X-0.250000X0.225000X-0.250000X0.225000X0.250000X-0.225000X0.250000X0*%
%ADD18RoundRect,0.150000X-0.587500X-0.150000X0.587500X-0.150000X0.587500X0.150000X-0.587500X0.150000X0*%
%ADD19RoundRect,0.225000X-0.250000X0.225000X-0.250000X-0.225000X0.250000X-0.225000X0.250000X0.225000X0*%
%ADD20RoundRect,0.200000X-0.275000X0.200000X-0.275000X-0.200000X0.275000X-0.200000X0.275000X0.200000X0*%
%ADD21RoundRect,0.200000X0.275000X-0.200000X0.275000X0.200000X-0.275000X0.200000X-0.275000X-0.200000X0*%
%ADD22R,0.600000X1.450000*%
%ADD23R,0.300000X1.450000*%
%ADD24RoundRect,0.150000X-0.512500X-0.150000X0.512500X-0.150000X0.512500X0.150000X-0.512500X0.150000X0*%
%ADD25RoundRect,0.250000X-0.900000X1.500000X-0.900000X-1.500000X0.900000X-1.500000X0.900000X1.500000X0*%
G04 APERTURE END LIST*
D10*
%TO.C,R2*%
X108175000Y-145500000D03*
X109825000Y-145500000D03*
%TD*%
%TO.C,R22*%
X52675000Y-43500000D03*
X54325000Y-43500000D03*
%TD*%
D11*
%TO.C,C13*%
X-76500000Y-1437500D03*
X-76500000Y-4562500D03*
%TD*%
D10*
%TO.C,R19*%
X71175000Y-156000000D03*
X72825000Y-156000000D03*
%TD*%
%TO.C,R5*%
X-60825000Y-86000000D03*
X-59175000Y-86000000D03*
%TD*%
%TO.C,R23*%
X65175000Y-50000000D03*
X66825000Y-50000000D03*
%TD*%
D12*
%TO.C,U3*%
X-23390000Y-69530000D03*
X-23390000Y-70470000D03*
X-22610000Y-69530000D03*
X-22610000Y-70470000D03*
D13*
X-25150000Y-69000000D03*
X-25150000Y-69500000D03*
X-25150000Y-70000000D03*
X-25150000Y-70500000D03*
X-25150000Y-71000000D03*
X-20850000Y-71000000D03*
X-20850000Y-70500000D03*
X-20850000Y-70000000D03*
X-20850000Y-69500000D03*
X-20850000Y-69000000D03*
%TD*%
D14*
%TO.C,U2*%
X70250000Y-141900000D03*
X70250000Y-140400000D03*
X70250000Y-138900000D03*
X70250000Y-137400000D03*
X70250000Y-135900000D03*
X70250000Y-134400000D03*
X70250000Y-132900000D03*
X70250000Y-131400000D03*
X70250000Y-129900000D03*
X52750000Y-129900000D03*
X52750000Y-131400000D03*
X52750000Y-132900000D03*
X52750000Y-134400000D03*
X52750000Y-135900000D03*
X52750000Y-137400000D03*
X52750000Y-138900000D03*
X52750000Y-140400000D03*
X52750000Y-141900000D03*
D15*
X61640000Y-136800000D03*
X61640000Y-135700000D03*
X61640000Y-134600000D03*
X60590000Y-136800000D03*
X60590000Y-135700000D03*
X60590000Y-134600000D03*
X59440000Y-136800000D03*
X59440000Y-135700000D03*
X59440000Y-134600000D03*
%TD*%
D10*
%TO.C,R10*%
X-80825000Y-8500000D03*
X-79175000Y-8500000D03*
%TD*%
D16*
%TO.C,R18*%
X-67175000Y10500000D03*
X-68825000Y10500000D03*
%TD*%
D17*
%TO.C,C3*%
X21725000Y-77000000D03*
X23275000Y-77000000D03*
%TD*%
%TO.C,C4*%
X21225000Y-75000000D03*
X22775000Y-75000000D03*
%TD*%
D10*
%TO.C,R6*%
X-61325000Y-92500000D03*
X-59675000Y-92500000D03*
%TD*%
D17*
%TO.C,C5*%
X46725000Y-137000000D03*
X48275000Y-137000000D03*
%TD*%
D18*
%TO.C,Q11*%
X58562500Y-49550000D03*
X58562500Y-51450000D03*
X60437500Y-50500000D03*
%TD*%
D10*
%TO.C,R9*%
X-80825000Y-10500000D03*
X-79175000Y-10500000D03*
%TD*%
%TO.C,R4*%
X21175000Y-71000000D03*
X22825000Y-71000000D03*
%TD*%
%TO.C,R17*%
X-68825000Y12000000D03*
X-67175000Y12000000D03*
%TD*%
%TO.C,R7*%
X-59825000Y-81000000D03*
X-58175000Y-81000000D03*
%TD*%
D19*
%TO.C,C2*%
X97500000Y-143725000D03*
X97500000Y-145275000D03*
%TD*%
D20*
%TO.C,R13*%
X-9500000Y-2175000D03*
X-9500000Y-3825000D03*
%TD*%
D21*
%TO.C,R16*%
X-77500000Y175000D03*
X-77500000Y1825000D03*
%TD*%
%TO.C,R8*%
X-87000000Y-9325000D03*
X-87000000Y-7675000D03*
%TD*%
D16*
%TO.C,R11*%
X-15175000Y-8000000D03*
X-16825000Y-8000000D03*
%TD*%
D17*
%TO.C,C17*%
X73225000Y-36500000D03*
X74775000Y-36500000D03*
%TD*%
D10*
%TO.C,R27*%
X87675000Y-24500000D03*
X89325000Y-24500000D03*
%TD*%
D22*
%TO.C,J2*%
X75750000Y-22955000D03*
X76550000Y-22955000D03*
D23*
X77750000Y-22955000D03*
X78750000Y-22955000D03*
X79250000Y-22955000D03*
X80250000Y-22955000D03*
D22*
X81450000Y-22955000D03*
X82250000Y-22955000D03*
X82250000Y-22955000D03*
X81450000Y-22955000D03*
D23*
X80750000Y-22955000D03*
X79750000Y-22955000D03*
X78250000Y-22955000D03*
X77250000Y-22955000D03*
D22*
X76550000Y-22955000D03*
X75750000Y-22955000D03*
%TD*%
D16*
%TO.C,R12*%
X-15175000Y-20000000D03*
X-16825000Y-20000000D03*
%TD*%
D18*
%TO.C,Q8*%
X-76937500Y-8550000D03*
X-76937500Y-10450000D03*
X-75062500Y-9500000D03*
%TD*%
D17*
%TO.C,C11*%
X78225000Y-120500000D03*
X79775000Y-120500000D03*
%TD*%
D24*
%TO.C,U5*%
X72862500Y-32550000D03*
X72862500Y-33500000D03*
X72862500Y-34450000D03*
X75137500Y-34450000D03*
X75137500Y-33500000D03*
X75137500Y-32550000D03*
%TD*%
D10*
%TO.C,R21*%
X46675000Y-51500000D03*
X48325000Y-51500000D03*
%TD*%
D17*
%TO.C,C16*%
X117225000Y-71000000D03*
X118775000Y-71000000D03*
%TD*%
D18*
%TO.C,Q1*%
X-84937500Y-7550000D03*
X-84937500Y-9450000D03*
X-83062500Y-8500000D03*
%TD*%
D10*
%TO.C,R25*%
X87675000Y-22500000D03*
X89325000Y-22500000D03*
%TD*%
%TO.C,R20*%
X46675000Y-48000000D03*
X48325000Y-48000000D03*
%TD*%
%TO.C,R3*%
X21175000Y-76000000D03*
X22825000Y-76000000D03*
%TD*%
D21*
%TO.C,R1*%
X99500000Y-146825000D03*
X99500000Y-145175000D03*
%TD*%
D10*
%TO.C,R26*%
X58175000Y-45000000D03*
X59825000Y-45000000D03*
%TD*%
D20*
%TO.C,R14*%
X-10500000Y-14175000D03*
X-10500000Y-15825000D03*
%TD*%
D10*
%TO.C,R24*%
X63175000Y-26000000D03*
X64825000Y-26000000D03*
%TD*%
D18*
%TO.C,Q10*%
X52562500Y-49550000D03*
X52562500Y-51450000D03*
X54437500Y-50500000D03*
%TD*%
D25*
%TO.C,D1*%
X-63000000Y14700000D03*
X-63000000Y9300000D03*
%TD*%
D10*
%TO.C,R15*%
X115175000Y-65000000D03*
X116825000Y-65000000D03*
%TD*%
D17*
%TO.C,C18*%
X64225000Y-23000000D03*
X65775000Y-23000000D03*
%TD*%
%TO.C,C1*%
X112725000Y-146000000D03*
X114275000Y-146000000D03*
%TD*%
M02*
