M48
; DRILL file {KiCad 8.0.9-8.0.9-0~ubuntu22.04.1} date 2025-03-02T18:13:56+0100
; FORMAT={-:-/ absolute / metric / decimal}
; #@! TF.CreationDate,2025-03-02T18:13:56+01:00
; #@! TF.GenerationSoftware,Kicad,Pcbnew,8.0.9-8.0.9-0~ubuntu22.04.1
; #@! TF.FileFunction,Plated,1,4,PTH
FMAT,2
METRIC
; #@! TA.AperFunction,Plated,PTH,ComponentDrill
T1C0.200
; #@! TA.AperFunction,Plated,PTH,ViaDrill
T2C0.254
; #@! TA.AperFunction,Plated,PTH,ComponentDrill
T3C0.300
; #@! TA.AperFunction,Plated,PTH,ComponentDrill
T4C0.750
; #@! TA.AperFunction,Plated,PTH,ComponentDrill
T5C0.762
; #@! TA.AperFunction,Plated,PTH,ComponentDrill
T6C1.000
; #@! TA.AperFunction,Plated,PTH,ComponentDrill
T7C1.100
; #@! TA.AperFunction,Plated,PTH,ComponentDrill
T8C1.200
; #@! TA.AperFunction,Plated,PTH,ComponentDrill
T9C1.500
%
G90
G05
T1
X70.19Y-136.25
X70.19Y-137.35
X70.74Y-135.7
X70.74Y-136.8
X70.74Y-137.9
X71.29Y-136.25
X71.29Y-137.35
X71.84Y-135.7
X71.84Y-136.8
X71.84Y-137.9
X72.39Y-136.25
X72.39Y-137.35
T2
X50.75Y-81.25
X50.75Y-90.5
X50.75Y-98.0
X50.75Y-105.5
X50.75Y-113.0
X50.75Y-120.5
X50.75Y-129.0
X50.75Y-141.0
X50.75Y-143.5
X53.25Y-143.5
X55.75Y-143.5
X57.25Y-116.0
X58.25Y-81.75
X58.25Y-143.5
X60.0Y-115.0
X60.0Y-117.25
X60.25Y-132.5
X60.5Y-138.5
X60.75Y-143.5
X61.25Y-118.75
X61.5Y-134.25
X63.25Y-122.5
X65.0Y-128.25
X65.0Y-138.25
X65.0Y-139.75
X65.75Y-81.75
X65.75Y-143.5
X66.0Y-138.75
X68.25Y-143.5
X68.5Y-131.5
X69.25Y-124.688
X70.75Y-143.5
X72.5Y-119.0
X73.0Y-110.0
X73.25Y-81.75
X73.25Y-143.5
X73.75Y-110.0
X75.0Y-123.938
X75.75Y-94.0
X75.75Y-143.5
X78.0Y-97.25
X78.25Y-130.25
X78.25Y-143.5
X79.0Y-84.25
X79.25Y-131.0
X79.25Y-141.75
X79.5Y-102.75
X79.5Y-132.5
X79.5Y-133.75
X79.5Y-135.0
X80.0Y-90.55
X80.75Y-95.5
X81.0Y-129.5
X82.0Y-95.25
X82.0Y-96.5
X82.25Y-138.4
X82.25Y-139.5
X82.5Y-131.0
X82.75Y-96.5
X82.75Y-129.5
X83.0Y-91.25
X83.25Y-95.25
X83.25Y-127.0
X83.25Y-143.5
X83.5Y-82.5
X83.75Y-141.5
X85.75Y-121.75
X85.75Y-123.75
X85.75Y-136.5
X86.0Y-122.75
X86.25Y-92.25
X86.5Y-124.5
X86.75Y-140.5
X87.5Y-134.5
X88.25Y-143.5
X89.25Y-141.0
X89.25Y-142.5
X89.5Y-97.0
X90.25Y-129.0
X90.75Y-143.5
X91.25Y-114.5
X91.25Y-121.0
X91.75Y-103.0
X92.25Y-131.75
X92.75Y-144.75
X93.75Y-94.25
X94.0Y-96.25
X94.5Y-146.5
X94.75Y-125.0
X96.0Y-69.0
X96.25Y-148.25
X96.5Y-87.25
X96.5Y-114.5
X97.25Y-140.0
X97.5Y-84.0
X97.5Y-132.5
X98.0Y-98.25
X98.0Y-139.25
X98.25Y-123.75
X98.25Y-136.25
X98.25Y-149.25
X98.75Y-84.0
X99.25Y-77.0
X99.25Y-78.25
X99.25Y-79.5
X100.75Y-149.25
X102.25Y-77.0
X102.25Y-78.25
X102.25Y-79.5
X105.5Y-81.0
X105.75Y-149.25
X106.0Y-69.0
X106.5Y-124.0
X108.0Y-121.75
X109.5Y-124.0
X116.0Y-69.0
X116.75Y-149.25
X123.0Y-127.25
X124.75Y-126.0
X126.0Y-69.0
X129.25Y-149.25
X136.0Y-69.0
X142.25Y-149.0
X146.0Y-69.0
X150.75Y-129.25
X150.75Y-134.25
X150.75Y-141.75
X150.75Y-149.25
X155.25Y-124.25
X156.0Y-69.0
X160.5Y-118.75
X164.0Y-69.0
X164.0Y-79.25
X164.0Y-89.0
X165.5Y-113.25
X170.5Y-107.75
X175.5Y-102.25
X180.5Y-97.0
X181.5Y-89.0
T3
X95.86Y-93.515
X95.86Y-94.485
X97.14Y-93.515
X97.14Y-94.485
T4
X86.8Y-85.5
X86.8Y-87.5
X92.55Y-85.5
X92.55Y-87.5
X100.8Y-75.0
X100.8Y-77.0
X129.98Y-134.98
X129.98Y-146.73
X131.25Y-133.71
X131.25Y-136.25
X131.25Y-145.46
X131.25Y-148.0
X135.23Y-129.23
X135.23Y-134.98
X135.23Y-140.98
X135.23Y-146.73
X136.5Y-127.96
X136.5Y-130.5
X136.5Y-133.71
X136.5Y-136.25
X136.5Y-139.71
X136.5Y-142.25
X136.5Y-145.46
X136.5Y-148.0
T5
X58.555Y-94.455
X58.555Y-116.045
X61.095Y-94.455
X61.095Y-116.045
X63.635Y-94.455
X63.635Y-116.045
X66.175Y-94.455
X66.175Y-116.045
X68.715Y-94.455
X68.715Y-116.045
X71.255Y-94.455
T6
X52.137Y-131.18
X52.137Y-133.72
X52.137Y-136.26
X52.137Y-138.8
X108.0Y-128.618
X108.0Y-133.618
X120.0Y-144.25
X125.0Y-144.25
T7
X52.0Y-122.5
X52.0Y-127.0
X58.5Y-122.5
X58.5Y-127.0
X115.25Y-125.118
X115.25Y-128.518
X115.25Y-131.918
X118.95Y-126.818
X118.95Y-130.218
T8
X107.0Y-143.0
X114.0Y-143.0
X144.5Y-132.75
X144.5Y-147.75
T9
X124.75Y-76.0
X127.25Y-71.0
X137.25Y-76.0
X139.75Y-71.0
X142.25Y-76.0
X147.25Y-76.0
X149.75Y-71.0
X152.25Y-76.0
T6
X56.204Y-84.329G85X55.496Y-83.621
G05
X59.004Y-87.129G85X58.296Y-86.421
G05
X61.204Y-84.329G85X60.496Y-83.621
G05
X64.004Y-87.129G85X63.296Y-86.421
G05
X66.204Y-84.329G85X65.496Y-83.621
G05
X69.004Y-87.129G85X68.296Y-86.421
G05
X71.204Y-84.329G85X70.496Y-83.621
G05
X74.004Y-87.129G85X73.296Y-86.421
G05
X79.704Y-106.829G85X78.996Y-106.121
G05
X82.504Y-109.629G85X81.796Y-108.921
G05
X84.704Y-106.829G85X83.996Y-106.121
G05
X87.504Y-109.629G85X86.796Y-108.921
G05
X89.704Y-106.829G85X88.996Y-106.121
G05
X92.504Y-109.629G85X91.796Y-108.921
G05
X94.704Y-106.829G85X93.996Y-106.121
G05
X97.504Y-109.629G85X96.796Y-108.921
G05
X103.954Y-111.454G85X103.246Y-110.746
G05
X106.754Y-114.254G85X106.046Y-113.546
G05
X108.954Y-111.454G85X108.246Y-110.746
G05
X111.754Y-114.254G85X111.046Y-113.546
G05
X113.954Y-111.454G85X113.246Y-110.746
G05
X116.754Y-114.254G85X116.046Y-113.546
G05
X118.954Y-111.454G85X118.246Y-110.746
G05
X121.754Y-114.254G85X121.046Y-113.546
G05
X153.474Y-118.847G85X154.473Y-118.808
G05
X157.431Y-118.695G85X158.43Y-118.656
G05
X158.57Y-113.344G85X159.569Y-113.305
G05
X162.527Y-113.192G85X163.526Y-113.153
G05
M30
