%TF.GenerationSoftware,KiCad,Pcbnew,8.0.9-8.0.9-0~ubuntu22.04.1*%
%TF.CreationDate,2025-04-19T18:17:54+02:00*%
%TF.ProjectId,wandfernsprecher,77616e64-6665-4726-9e73-707265636865,0.1.1*%
%TF.SameCoordinates,Original*%
%TF.FileFunction,Soldermask,Top*%
%TF.FilePolarity,Negative*%
%FSLAX46Y46*%
G04 Gerber Fmt 4.6, Leading zero omitted, Abs format (unit mm)*
G04 Created by KiCad (PCBNEW 8.0.9-8.0.9-0~ubuntu22.04.1) date 2025-04-19 18:17:54*
%MOMM*%
%LPD*%
G01*
G04 APERTURE LIST*
G04 Aperture macros list*
%AMRoundRect*
0 Rectangle with rounded corners*
0 $1 Rounding radius*
0 $2 $3 $4 $5 $6 $7 $8 $9 X,Y pos of 4 corners*
0 Add a 4 corners polygon primitive as box body*
4,1,4,$2,$3,$4,$5,$6,$7,$8,$9,$2,$3,0*
0 Add four circle primitives for the rounded corners*
1,1,$1+$1,$2,$3*
1,1,$1+$1,$4,$5*
1,1,$1+$1,$6,$7*
1,1,$1+$1,$8,$9*
0 Add four rect primitives between the rounded corners*
20,1,$1+$1,$2,$3,$4,$5,0*
20,1,$1+$1,$4,$5,$6,$7,0*
20,1,$1+$1,$6,$7,$8,$9,0*
20,1,$1+$1,$8,$9,$2,$3,0*%
%AMHorizOval*
0 Thick line with rounded ends*
0 $1 width*
0 $2 $3 position (X,Y) of the first rounded end (center of the circle)*
0 $4 $5 position (X,Y) of the second rounded end (center of the circle)*
0 Add line between two ends*
20,1,$1,$2,$3,$4,$5,0*
0 Add two circle primitives to create the rounded ends*
1,1,$1,$2,$3*
1,1,$1,$4,$5*%
%AMFreePoly0*
4,1,19,0.500000,-0.750000,0.000000,-0.750000,0.000000,-0.744911,-0.071157,-0.744911,-0.207708,-0.704816,-0.327430,-0.627875,-0.420627,-0.520320,-0.479746,-0.390866,-0.500000,-0.250000,-0.500000,0.250000,-0.479746,0.390866,-0.420627,0.520320,-0.327430,0.627875,-0.207708,0.704816,-0.071157,0.744911,0.000000,0.744911,0.000000,0.750000,0.500000,0.750000,0.500000,-0.750000,0.500000,-0.750000,
$1*%
%AMFreePoly1*
4,1,19,0.000000,0.744911,0.071157,0.744911,0.207708,0.704816,0.327430,0.627875,0.420627,0.520320,0.479746,0.390866,0.500000,0.250000,0.500000,-0.250000,0.479746,-0.390866,0.420627,-0.520320,0.327430,-0.627875,0.207708,-0.704816,0.071157,-0.744911,0.000000,-0.744911,0.000000,-0.750000,-0.500000,-0.750000,-0.500000,0.750000,0.000000,0.750000,0.000000,0.744911,0.000000,0.744911,
$1*%
G04 Aperture macros list end*
%ADD10RoundRect,0.200000X0.275000X-0.200000X0.275000X0.200000X-0.275000X0.200000X-0.275000X-0.200000X0*%
%ADD11RoundRect,0.200000X0.200000X0.275000X-0.200000X0.275000X-0.200000X-0.275000X0.200000X-0.275000X0*%
%ADD12RoundRect,0.250000X0.412500X1.100000X-0.412500X1.100000X-0.412500X-1.100000X0.412500X-1.100000X0*%
%ADD13RoundRect,0.225000X-0.250000X0.225000X-0.250000X-0.225000X0.250000X-0.225000X0.250000X0.225000X0*%
%ADD14RoundRect,0.200000X-0.275000X0.200000X-0.275000X-0.200000X0.275000X-0.200000X0.275000X0.200000X0*%
%ADD15RoundRect,0.250000X-0.625000X0.350000X-0.625000X-0.350000X0.625000X-0.350000X0.625000X0.350000X0*%
%ADD16O,1.750000X1.200000*%
%ADD17FreePoly0,90.000000*%
%ADD18FreePoly1,90.000000*%
%ADD19RoundRect,0.075000X0.075000X-0.650000X0.075000X0.650000X-0.075000X0.650000X-0.075000X-0.650000X0*%
%ADD20R,1.880000X1.570000*%
%ADD21R,1.800000X1.100000*%
%ADD22RoundRect,0.275000X0.625000X-0.275000X0.625000X0.275000X-0.625000X0.275000X-0.625000X-0.275000X0*%
%ADD23R,1.500000X0.900000*%
%ADD24C,0.600000*%
%ADD25R,2.900000X2.900000*%
%ADD26RoundRect,0.150000X0.150000X-0.587500X0.150000X0.587500X-0.150000X0.587500X-0.150000X-0.587500X0*%
%ADD27RoundRect,0.100000X0.100000X-0.225000X0.100000X0.225000X-0.100000X0.225000X-0.100000X-0.225000X0*%
%ADD28RoundRect,0.225000X0.225000X0.250000X-0.225000X0.250000X-0.225000X-0.250000X0.225000X-0.250000X0*%
%ADD29R,2.000000X2.000000*%
%ADD30C,2.000000*%
%ADD31RoundRect,0.225000X-0.225000X-0.375000X0.225000X-0.375000X0.225000X0.375000X-0.225000X0.375000X0*%
%ADD32RoundRect,0.150000X0.512500X0.150000X-0.512500X0.150000X-0.512500X-0.150000X0.512500X-0.150000X0*%
%ADD33RoundRect,0.225000X0.250000X-0.225000X0.250000X0.225000X-0.250000X0.225000X-0.250000X-0.225000X0*%
%ADD34RoundRect,0.200000X-0.200000X-0.275000X0.200000X-0.275000X0.200000X0.275000X-0.200000X0.275000X0*%
%ADD35C,1.524000*%
%ADD36RoundRect,0.243750X0.243750X0.456250X-0.243750X0.456250X-0.243750X-0.456250X0.243750X-0.456250X0*%
%ADD37RoundRect,0.225000X-0.225000X-0.250000X0.225000X-0.250000X0.225000X0.250000X-0.225000X0.250000X0*%
%ADD38HorizOval,2.000000X-0.353553X0.353553X0.353553X-0.353553X0*%
%ADD39RoundRect,0.150000X-0.150000X0.587500X-0.150000X-0.587500X0.150000X-0.587500X0.150000X0.587500X0*%
%ADD40C,2.400000*%
%ADD41R,1.800000X1.800000*%
%ADD42O,1.800000X1.800000*%
%ADD43RoundRect,0.150000X-0.587500X-0.150000X0.587500X-0.150000X0.587500X0.150000X-0.587500X0.150000X0*%
%ADD44RoundRect,0.250000X1.500000X0.900000X-1.500000X0.900000X-1.500000X-0.900000X1.500000X-0.900000X0*%
%ADD45C,4.100000*%
%ADD46C,2.100000*%
%ADD47C,2.750000*%
%ADD48R,1.700000X1.700000*%
%ADD49O,1.700000X1.700000*%
%ADD50HorizOval,2.000000X0.499631X0.019194X-0.499631X-0.019194X0*%
G04 APERTURE END LIST*
D10*
%TO.C,R30*%
X97250000Y-90075000D03*
X97250000Y-88425000D03*
%TD*%
%TO.C,R2*%
X93000000Y-117825000D03*
X93000000Y-116175000D03*
%TD*%
D11*
%TO.C,R22*%
X71325000Y-120687500D03*
X69675000Y-120687500D03*
%TD*%
D12*
%TO.C,C13*%
X111062500Y-124000000D03*
X107937500Y-124000000D03*
%TD*%
D10*
%TO.C,R24*%
X79581250Y-98150000D03*
X79581250Y-96500000D03*
%TD*%
D13*
%TO.C,C8*%
X82000000Y-125475000D03*
X82000000Y-127025000D03*
%TD*%
D14*
%TO.C,R19*%
X85000000Y-137675000D03*
X85000000Y-139325000D03*
%TD*%
D15*
%TO.C,BT1*%
X92550000Y-85500000D03*
D16*
X92550000Y-87500000D03*
%TD*%
D17*
%TO.C,JP2*%
X88250000Y-95900000D03*
D18*
X88250000Y-94600000D03*
%TD*%
D14*
%TO.C,R5*%
X84000000Y-131675000D03*
X84000000Y-133325000D03*
%TD*%
D11*
%TO.C,R23*%
X74825000Y-127937500D03*
X73175000Y-127937500D03*
%TD*%
D19*
%TO.C,U3*%
X95500000Y-96150000D03*
X96000000Y-96150000D03*
X96500000Y-96150000D03*
X97000000Y-96150000D03*
X97500000Y-96150000D03*
X97500000Y-91850000D03*
X97000000Y-91850000D03*
X96500000Y-91850000D03*
X96000000Y-91850000D03*
X95500000Y-91850000D03*
D20*
X96500000Y-94000000D03*
%TD*%
D21*
%TO.C,Q5*%
X136900000Y-136250000D03*
D22*
X134830000Y-134980000D03*
X136900000Y-133710000D03*
%TD*%
D23*
%TO.C,U2*%
X81000000Y-143000000D03*
X81000000Y-141500000D03*
X81000000Y-140000000D03*
X81000000Y-138500000D03*
X81000000Y-137000000D03*
X81000000Y-135500000D03*
X81000000Y-134000000D03*
X81000000Y-132500000D03*
X81000000Y-131000000D03*
X63500000Y-131000000D03*
X63500000Y-132500000D03*
X63500000Y-134000000D03*
X63500000Y-135500000D03*
X63500000Y-137000000D03*
X63500000Y-138500000D03*
X63500000Y-140000000D03*
X63500000Y-141500000D03*
X63500000Y-143000000D03*
D24*
X72390000Y-137350000D03*
X72390000Y-136250000D03*
X71840000Y-137900000D03*
X71840000Y-136800000D03*
X71840000Y-135700000D03*
X71290000Y-137350000D03*
D25*
X71290000Y-136800000D03*
D24*
X71290000Y-136250000D03*
X70740000Y-137900000D03*
X70740000Y-136800000D03*
X70740000Y-135700000D03*
X70190000Y-137350000D03*
X70190000Y-136250000D03*
%TD*%
D26*
%TO.C,Q15*%
X114800000Y-107187500D03*
X116700000Y-107187500D03*
X115750000Y-105312500D03*
%TD*%
D27*
%TO.C,Q9*%
X76681250Y-100025000D03*
X77331250Y-100025000D03*
X77981250Y-100025000D03*
X77981250Y-98125000D03*
X77331250Y-98125000D03*
X76681250Y-98125000D03*
%TD*%
D14*
%TO.C,R10*%
X101750000Y-137925000D03*
X101750000Y-139575000D03*
%TD*%
D28*
%TO.C,C9*%
X80275000Y-121750000D03*
X78725000Y-121750000D03*
%TD*%
D14*
%TO.C,R27*%
X76250000Y-90725000D03*
X76250000Y-92375000D03*
%TD*%
D29*
%TO.C,C14*%
X125000000Y-144250000D03*
D30*
X120000000Y-144250000D03*
%TD*%
D31*
%TO.C,D4*%
X100850000Y-81000000D03*
X104150000Y-81000000D03*
%TD*%
D32*
%TO.C,U8*%
X84387500Y-123700000D03*
X84387500Y-122750000D03*
X84387500Y-121800000D03*
X82112500Y-121800000D03*
X82112500Y-123700000D03*
%TD*%
D14*
%TO.C,R18*%
X124750000Y-127175000D03*
X124750000Y-128825000D03*
%TD*%
D33*
%TO.C,C3*%
X98250000Y-117775000D03*
X98250000Y-116225000D03*
%TD*%
%TO.C,C4*%
X96500000Y-117775000D03*
X96500000Y-116225000D03*
%TD*%
D14*
%TO.C,R6*%
X85750000Y-131675000D03*
X85750000Y-133325000D03*
%TD*%
D13*
%TO.C,C5*%
X85000000Y-141475000D03*
X85000000Y-143025000D03*
%TD*%
D14*
%TO.C,R25*%
X79581250Y-100000000D03*
X79581250Y-101650000D03*
%TD*%
D26*
%TO.C,Q11*%
X73050000Y-126125000D03*
X74950000Y-126125000D03*
X74000000Y-124250000D03*
%TD*%
D14*
%TO.C,R9*%
X99750000Y-137925000D03*
X99750000Y-139575000D03*
%TD*%
D34*
%TO.C,R32*%
X100675000Y-95000000D03*
X102325000Y-95000000D03*
%TD*%
D30*
%TO.C,SW4*%
X58500000Y-127000000D03*
X52000000Y-127000000D03*
X58500000Y-122500000D03*
X52000000Y-122500000D03*
%TD*%
D35*
%TO.C,U1*%
X58555000Y-116045000D03*
X61095000Y-116045000D03*
X63635000Y-116045000D03*
X66175000Y-116045000D03*
X68715000Y-116045000D03*
X71255000Y-94455000D03*
X68715000Y-94455000D03*
X66175000Y-94455000D03*
X63635000Y-94455000D03*
X61095000Y-94455000D03*
X58555000Y-94455000D03*
%TD*%
D36*
%TO.C,D2*%
X78437500Y-82500000D03*
X76562500Y-82500000D03*
%TD*%
D10*
%TO.C,R4*%
X94750000Y-117825000D03*
X94750000Y-116175000D03*
%TD*%
D14*
%TO.C,R17*%
X124750000Y-130425000D03*
X124750000Y-132075000D03*
%TD*%
%TO.C,R7*%
X87500000Y-131675000D03*
X87500000Y-133325000D03*
%TD*%
D33*
%TO.C,C2*%
X89500000Y-117775000D03*
X89500000Y-116225000D03*
%TD*%
D14*
%TO.C,R13*%
X132500000Y-127425000D03*
X132500000Y-129075000D03*
%TD*%
%TO.C,R16*%
X112750000Y-123425000D03*
X112750000Y-125075000D03*
%TD*%
D34*
%TO.C,R8*%
X99925000Y-132500000D03*
X101575000Y-132500000D03*
%TD*%
D11*
%TO.C,R11*%
X92075000Y-141000000D03*
X90425000Y-141000000D03*
%TD*%
D13*
%TO.C,C7*%
X93840000Y-91550000D03*
X93840000Y-93100000D03*
%TD*%
D26*
%TO.C,Q12*%
X81131250Y-100212500D03*
X83031250Y-100212500D03*
X82081250Y-98337500D03*
%TD*%
D37*
%TO.C,C17*%
X58725000Y-133750000D03*
X60275000Y-133750000D03*
%TD*%
D38*
%TO.C,ES1*%
X103600000Y-111100000D03*
X106400000Y-113900000D03*
X108600000Y-111100000D03*
X111400000Y-113900000D03*
X113600000Y-111100000D03*
X116400000Y-113900000D03*
X118600000Y-111100000D03*
X121400000Y-113900000D03*
%TD*%
D34*
%TO.C,R35*%
X111500000Y-107250000D03*
X113150000Y-107250000D03*
%TD*%
D21*
%TO.C,Q6*%
X136900000Y-142250000D03*
D22*
X134830000Y-140980000D03*
X136900000Y-139710000D03*
%TD*%
D11*
%TO.C,R34*%
X78825000Y-94050000D03*
X77175000Y-94050000D03*
%TD*%
D26*
%TO.C,Q14*%
X80800000Y-92487500D03*
X82700000Y-92487500D03*
X81750000Y-90612500D03*
%TD*%
D11*
%TO.C,R12*%
X92075000Y-142500000D03*
X90425000Y-142500000D03*
%TD*%
D17*
%TO.C,JP1*%
X90750000Y-95900000D03*
D18*
X90750000Y-94600000D03*
%TD*%
D39*
%TO.C,Q8*%
X101700000Y-141312500D03*
X99800000Y-141312500D03*
X100750000Y-143187500D03*
%TD*%
D15*
%TO.C,SW3*%
X100799999Y-75000000D03*
D16*
X100799999Y-77000000D03*
%TD*%
D38*
%TO.C,J1*%
X55850000Y-83975000D03*
X58650000Y-86775000D03*
X60850000Y-83975000D03*
X63650000Y-86775000D03*
X65850000Y-83975000D03*
X68650000Y-86775000D03*
X70850000Y-83975000D03*
X73650000Y-86775000D03*
%TD*%
D21*
%TO.C,Q7*%
X136900000Y-148000000D03*
D22*
X134830000Y-146730000D03*
X136900000Y-145460000D03*
%TD*%
D40*
%TO.C,C15*%
X144500000Y-147750000D03*
X144500000Y-132750000D03*
%TD*%
D13*
%TO.C,C10*%
X84500000Y-125475000D03*
X84500000Y-127025000D03*
%TD*%
D37*
%TO.C,C11*%
X58475000Y-118750000D03*
X60025000Y-118750000D03*
%TD*%
D32*
%TO.C,U5*%
X60637500Y-137200000D03*
X60637500Y-136250000D03*
X60637500Y-135300000D03*
X58362500Y-135300000D03*
X58362500Y-136250000D03*
X58362500Y-137200000D03*
%TD*%
D38*
%TO.C,NS1*%
X79350000Y-106475000D03*
X82150000Y-109275000D03*
X84350000Y-106475000D03*
X87150000Y-109275000D03*
X89350000Y-106475000D03*
X92150000Y-109275000D03*
X94350000Y-106475000D03*
X97150000Y-109275000D03*
%TD*%
D33*
%TO.C,C20*%
X86500000Y-139275000D03*
X86500000Y-137725000D03*
%TD*%
D14*
%TO.C,R21*%
X69500000Y-126112500D03*
X69500000Y-127762500D03*
%TD*%
D41*
%TO.C,U4*%
X115250000Y-125117677D03*
D42*
X118950000Y-126817677D03*
X115250000Y-128517677D03*
X118950000Y-130217677D03*
X115250000Y-131917677D03*
%TD*%
D13*
%TO.C,C19*%
X86750000Y-141475000D03*
X86750000Y-143025000D03*
%TD*%
D37*
%TO.C,C6*%
X94975000Y-98075000D03*
X96525000Y-98075000D03*
%TD*%
D33*
%TO.C,C16*%
X91000000Y-133275000D03*
X91000000Y-131725000D03*
%TD*%
D10*
%TO.C,R31*%
X95750000Y-90075000D03*
X95750000Y-88425000D03*
%TD*%
D43*
%TO.C,Q1*%
X99812500Y-134300000D03*
X99812500Y-136200000D03*
X101687500Y-135250000D03*
%TD*%
D10*
%TO.C,R20*%
X71250000Y-127762500D03*
X71250000Y-126112500D03*
%TD*%
%TO.C,R3*%
X100000000Y-117825000D03*
X100000000Y-116175000D03*
%TD*%
%TO.C,R1*%
X87750000Y-117825000D03*
X87750000Y-116175000D03*
%TD*%
%TO.C,R26*%
X73000000Y-122512500D03*
X73000000Y-120862500D03*
%TD*%
D14*
%TO.C,R14*%
X132500000Y-139175000D03*
X132500000Y-140825000D03*
%TD*%
D36*
%TO.C,D3*%
X82437500Y-82500000D03*
X80562500Y-82500000D03*
%TD*%
D21*
%TO.C,Q4*%
X136900000Y-130500000D03*
D22*
X134830000Y-129230000D03*
X136900000Y-127960000D03*
%TD*%
D39*
%TO.C,Q10*%
X71450000Y-122500000D03*
X69550000Y-122500000D03*
X70500000Y-124375000D03*
%TD*%
D21*
%TO.C,Q2*%
X131650000Y-136250000D03*
D22*
X129580000Y-134980000D03*
X131650000Y-133710000D03*
%TD*%
D21*
%TO.C,Q3*%
X131650000Y-148000000D03*
D22*
X129580000Y-146730000D03*
X131650000Y-145460000D03*
%TD*%
D44*
%TO.C,D1*%
X123700000Y-136500000D03*
X118300000Y-136500000D03*
%TD*%
D34*
%TO.C,R33*%
X100675000Y-93250000D03*
X102325000Y-93250000D03*
%TD*%
D10*
%TO.C,R15*%
X89250000Y-133325000D03*
X89250000Y-131675000D03*
%TD*%
D29*
%TO.C,C12*%
X108000000Y-133617677D03*
D30*
X108000000Y-128617677D03*
%TD*%
D27*
%TO.C,Q13*%
X77850000Y-92500000D03*
X78500000Y-92500000D03*
X79150000Y-92500000D03*
X79150000Y-90600000D03*
X78500000Y-90600000D03*
X77850000Y-90600000D03*
%TD*%
D28*
%TO.C,C18*%
X71275000Y-119000000D03*
X69725000Y-119000000D03*
%TD*%
D45*
%TO.C,GS1*%
X117250000Y-89000000D03*
D46*
X138500000Y-103000000D03*
D45*
X159750000Y-89000000D03*
D47*
X124750000Y-76000000D03*
X127250000Y-71000000D03*
X137250000Y-76000000D03*
X139750000Y-71000000D03*
X142250000Y-76000000D03*
X147250000Y-76000000D03*
X149750000Y-71000000D03*
X152250000Y-76000000D03*
%TD*%
D14*
%TO.C,R28*%
X90250000Y-91175000D03*
X90250000Y-92825000D03*
%TD*%
%TO.C,R29*%
X88750000Y-91175000D03*
X88750000Y-92825000D03*
%TD*%
D40*
%TO.C,L2*%
X107000000Y-143000000D03*
X114000000Y-143000000D03*
%TD*%
D33*
%TO.C,C1*%
X91250000Y-117775000D03*
X91250000Y-116225000D03*
%TD*%
D48*
%TO.C,J3*%
X52137500Y-138800000D03*
D49*
X52137500Y-136260000D03*
X52137500Y-133720000D03*
X52137500Y-131180000D03*
%TD*%
D15*
%TO.C,J2*%
X86800000Y-85500000D03*
D16*
X86800000Y-87500000D03*
%TD*%
D50*
%TO.C,L1*%
X163026345Y-113172509D03*
X159069465Y-113324517D03*
X157930535Y-118675483D03*
X153973655Y-118827491D03*
%TD*%
M02*
