M48
; DRILL file {KiCad 8.0.5-8.0.5-0~ubuntu22.04.1} date 2024-10-04T16:16:13+0200
; FORMAT={-:-/ absolute / metric / decimal}
; #@! TF.CreationDate,2024-10-04T16:16:13+02:00
; #@! TF.GenerationSoftware,Kicad,Pcbnew,8.0.5-8.0.5-0~ubuntu22.04.1
; #@! TF.FileFunction,Plated,1,2,PTH
FMAT,2
METRIC
; #@! TA.AperFunction,Plated,PTH,ComponentDrill
T1C0.300
; #@! TA.AperFunction,Plated,PTH,ComponentDrill
T2C0.600
; #@! TA.AperFunction,Plated,PTH,ComponentDrill
T3C0.750
; #@! TA.AperFunction,Plated,PTH,ComponentDrill
T4C0.762
; #@! TA.AperFunction,Plated,PTH,ComponentDrill
T5C1.000
; #@! TA.AperFunction,Plated,PTH,ComponentDrill
T6C1.100
; #@! TA.AperFunction,Plated,PTH,ComponentDrill
T7C1.200
; #@! TA.AperFunction,Plated,PTH,ComponentDrill
T8C1.500
%
G90
G05
T1
X-23.485Y-69.36
X-23.485Y-70.64
X-22.515Y-69.36
X-22.515Y-70.64
T3
X-12.27Y-7.73
X-12.27Y-19.73
X-11.0Y-6.46
X-11.0Y-9.0
X-11.0Y-18.46
X-11.0Y-21.0
X-6.77Y-1.73
X-6.77Y-7.73
X-6.77Y-13.73
X-6.77Y-19.73
X-5.5Y-0.46
X-5.5Y-3.0
X-5.5Y-6.46
X-5.5Y-9.0
X-5.5Y-12.46
X-5.5Y-15.0
X-5.5Y-18.46
X-5.5Y-21.0
X36.638Y-25.339
X38.638Y-25.339
T4
X54.205Y-107.84
X54.205Y-110.38
X54.205Y-112.92
X54.205Y-115.46
X54.205Y-118.0
X54.205Y-120.54
X75.795Y-110.38
X75.795Y-112.92
X75.795Y-115.46
X75.795Y-118.0
X75.795Y-120.54
T5
X-71.5Y-6.0
X-66.5Y-6.0
X-38.0Y0.0
X-33.0Y0.0
T6
X-74.5Y1.0
X-72.8Y4.7
X-71.1Y1.0
X-69.4Y4.7
X-68.5Y-83.0
X-68.5Y-89.5
X-67.7Y1.0
X-64.0Y-83.0
X-64.0Y-89.5
T7
X-59.0Y4.5
X-59.0Y-2.5
X133.5Y-138.5
X148.5Y-138.5
T8
X55.25Y-96.5
X57.75Y-101.5
X60.25Y-96.5
X62.75Y-101.5
X65.25Y-96.5
X67.75Y-101.5
X70.25Y-96.5
X72.75Y-101.5
X95.25Y-118.0
X95.25Y-133.5
X97.75Y-123.0
X97.75Y-138.5
X100.25Y-118.0
X100.25Y-133.5
X102.75Y-123.0
X102.75Y-138.5
X105.25Y-118.0
X105.25Y-133.5
X107.75Y-123.0
X107.75Y-138.5
X110.25Y-118.0
X110.25Y-133.5
X112.75Y-123.0
X112.75Y-138.5
X124.75Y-76.0
X127.25Y-71.0
X135.75Y-125.5
X137.25Y-76.0
X138.25Y-130.5
X139.75Y-71.0
X142.25Y-76.0
X145.75Y-125.5
X147.25Y-76.0
X148.25Y-130.5
X149.75Y-71.0
X152.25Y-76.0
T2
X74.68Y-23.32G85X74.68Y-24.42
G05
X74.68Y-27.75G85X74.68Y-28.35
G05
X83.32Y-23.32G85X83.32Y-24.42
G05
X83.32Y-27.75G85X83.32Y-28.35
G05
M30
