%TF.GenerationSoftware,KiCad,Pcbnew,8.0.6-8.0.6-0~ubuntu22.04.1*%
%TF.CreationDate,2024-10-28T00:14:05+01:00*%
%TF.ProjectId,wandfernsprecher,77616e64-6665-4726-9e73-707265636865,0.1.0*%
%TF.SameCoordinates,Original*%
%TF.FileFunction,Legend,Top*%
%TF.FilePolarity,Positive*%
%FSLAX46Y46*%
G04 Gerber Fmt 4.6, Leading zero omitted, Abs format (unit mm)*
G04 Created by KiCad (PCBNEW 8.0.6-8.0.6-0~ubuntu22.04.1) date 2024-10-28 00:14:05*
%MOMM*%
%LPD*%
G01*
G04 APERTURE LIST*
G04 Aperture macros list*
%AMRoundRect*
0 Rectangle with rounded corners*
0 $1 Rounding radius*
0 $2 $3 $4 $5 $6 $7 $8 $9 X,Y pos of 4 corners*
0 Add a 4 corners polygon primitive as box body*
4,1,4,$2,$3,$4,$5,$6,$7,$8,$9,$2,$3,0*
0 Add four circle primitives for the rounded corners*
1,1,$1+$1,$2,$3*
1,1,$1+$1,$4,$5*
1,1,$1+$1,$6,$7*
1,1,$1+$1,$8,$9*
0 Add four rect primitives between the rounded corners*
20,1,$1+$1,$2,$3,$4,$5,0*
20,1,$1+$1,$4,$5,$6,$7,0*
20,1,$1+$1,$6,$7,$8,$9,0*
20,1,$1+$1,$8,$9,$2,$3,0*%
%AMHorizOval*
0 Thick line with rounded ends*
0 $1 width*
0 $2 $3 position (X,Y) of the first rounded end (center of the circle)*
0 $4 $5 position (X,Y) of the second rounded end (center of the circle)*
0 Add line between two ends*
20,1,$1,$2,$3,$4,$5,0*
0 Add two circle primitives to create the rounded ends*
1,1,$1,$2,$3*
1,1,$1,$4,$5*%
%AMFreePoly0*
4,1,19,0.500000,-0.750000,0.000000,-0.750000,0.000000,-0.744911,-0.071157,-0.744911,-0.207708,-0.704816,-0.327430,-0.627875,-0.420627,-0.520320,-0.479746,-0.390866,-0.500000,-0.250000,-0.500000,0.250000,-0.479746,0.390866,-0.420627,0.520320,-0.327430,0.627875,-0.207708,0.704816,-0.071157,0.744911,0.000000,0.744911,0.000000,0.750000,0.500000,0.750000,0.500000,-0.750000,0.500000,-0.750000,
$1*%
%AMFreePoly1*
4,1,19,0.000000,0.744911,0.071157,0.744911,0.207708,0.704816,0.327430,0.627875,0.420627,0.520320,0.479746,0.390866,0.500000,0.250000,0.500000,-0.250000,0.479746,-0.390866,0.420627,-0.520320,0.327430,-0.627875,0.207708,-0.704816,0.071157,-0.744911,0.000000,-0.744911,0.000000,-0.750000,-0.500000,-0.750000,-0.500000,0.750000,0.000000,0.750000,0.000000,0.744911,0.000000,0.744911,
$1*%
G04 Aperture macros list end*
%ADD10C,0.150000*%
%ADD11C,0.300000*%
%ADD12C,0.120000*%
%ADD13RoundRect,0.200000X0.275000X-0.200000X0.275000X0.200000X-0.275000X0.200000X-0.275000X-0.200000X0*%
%ADD14RoundRect,0.200000X0.200000X0.275000X-0.200000X0.275000X-0.200000X-0.275000X0.200000X-0.275000X0*%
%ADD15RoundRect,0.250000X0.412500X1.100000X-0.412500X1.100000X-0.412500X-1.100000X0.412500X-1.100000X0*%
%ADD16RoundRect,0.225000X-0.250000X0.225000X-0.250000X-0.225000X0.250000X-0.225000X0.250000X0.225000X0*%
%ADD17RoundRect,0.200000X-0.275000X0.200000X-0.275000X-0.200000X0.275000X-0.200000X0.275000X0.200000X0*%
%ADD18RoundRect,0.250000X0.350000X0.625000X-0.350000X0.625000X-0.350000X-0.625000X0.350000X-0.625000X0*%
%ADD19O,1.200000X1.750000*%
%ADD20FreePoly0,90.000000*%
%ADD21FreePoly1,90.000000*%
%ADD22RoundRect,0.075000X0.075000X-0.650000X0.075000X0.650000X-0.075000X0.650000X-0.075000X-0.650000X0*%
%ADD23R,1.880000X1.570000*%
%ADD24R,1.800000X1.100000*%
%ADD25RoundRect,0.275000X0.625000X-0.275000X0.625000X0.275000X-0.625000X0.275000X-0.625000X-0.275000X0*%
%ADD26R,1.500000X0.900000*%
%ADD27C,0.600000*%
%ADD28R,2.900000X2.900000*%
%ADD29C,4.100000*%
%ADD30C,2.100000*%
%ADD31C,2.750000*%
%ADD32RoundRect,0.225000X0.225000X0.250000X-0.225000X0.250000X-0.225000X-0.250000X0.225000X-0.250000X0*%
%ADD33R,2.000000X2.000000*%
%ADD34C,2.000000*%
%ADD35RoundRect,0.225000X-0.225000X-0.375000X0.225000X-0.375000X0.225000X0.375000X-0.225000X0.375000X0*%
%ADD36RoundRect,0.150000X0.512500X0.150000X-0.512500X0.150000X-0.512500X-0.150000X0.512500X-0.150000X0*%
%ADD37RoundRect,0.225000X0.250000X-0.225000X0.250000X0.225000X-0.250000X0.225000X-0.250000X-0.225000X0*%
%ADD38RoundRect,0.150000X0.150000X-0.587500X0.150000X0.587500X-0.150000X0.587500X-0.150000X-0.587500X0*%
%ADD39RoundRect,0.200000X-0.200000X-0.275000X0.200000X-0.275000X0.200000X0.275000X-0.200000X0.275000X0*%
%ADD40C,1.524000*%
%ADD41RoundRect,0.243750X0.456250X-0.243750X0.456250X0.243750X-0.456250X0.243750X-0.456250X-0.243750X0*%
%ADD42RoundRect,0.225000X-0.225000X-0.250000X0.225000X-0.250000X0.225000X0.250000X-0.225000X0.250000X0*%
%ADD43RoundRect,0.150000X-0.150000X0.587500X-0.150000X-0.587500X0.150000X-0.587500X0.150000X0.587500X0*%
%ADD44RoundRect,0.250000X-0.625000X0.350000X-0.625000X-0.350000X0.625000X-0.350000X0.625000X0.350000X0*%
%ADD45O,1.750000X1.200000*%
%ADD46HorizOval,2.000000X-0.265165X0.265165X0.265165X-0.265165X0*%
%ADD47C,2.400000*%
%ADD48R,1.800000X1.800000*%
%ADD49O,1.800000X1.800000*%
%ADD50RoundRect,0.150000X-0.587500X-0.150000X0.587500X-0.150000X0.587500X0.150000X-0.587500X0.150000X0*%
%ADD51RoundRect,0.250000X1.500000X0.900000X-1.500000X0.900000X-1.500000X-0.900000X1.500000X-0.900000X0*%
%ADD52R,1.700000X1.700000*%
%ADD53O,1.700000X1.700000*%
%ADD54HorizOval,2.000000X0.374724X0.014395X-0.374724X-0.014395X0*%
G04 APERTURE END LIST*
D10*
X99204819Y-88392857D02*
X98728628Y-88726190D01*
X99204819Y-88964285D02*
X98204819Y-88964285D01*
X98204819Y-88964285D02*
X98204819Y-88583333D01*
X98204819Y-88583333D02*
X98252438Y-88488095D01*
X98252438Y-88488095D02*
X98300057Y-88440476D01*
X98300057Y-88440476D02*
X98395295Y-88392857D01*
X98395295Y-88392857D02*
X98538152Y-88392857D01*
X98538152Y-88392857D02*
X98633390Y-88440476D01*
X98633390Y-88440476D02*
X98681009Y-88488095D01*
X98681009Y-88488095D02*
X98728628Y-88583333D01*
X98728628Y-88583333D02*
X98728628Y-88964285D01*
X98204819Y-88059523D02*
X98204819Y-87440476D01*
X98204819Y-87440476D02*
X98585771Y-87773809D01*
X98585771Y-87773809D02*
X98585771Y-87630952D01*
X98585771Y-87630952D02*
X98633390Y-87535714D01*
X98633390Y-87535714D02*
X98681009Y-87488095D01*
X98681009Y-87488095D02*
X98776247Y-87440476D01*
X98776247Y-87440476D02*
X99014342Y-87440476D01*
X99014342Y-87440476D02*
X99109580Y-87488095D01*
X99109580Y-87488095D02*
X99157200Y-87535714D01*
X99157200Y-87535714D02*
X99204819Y-87630952D01*
X99204819Y-87630952D02*
X99204819Y-87916666D01*
X99204819Y-87916666D02*
X99157200Y-88011904D01*
X99157200Y-88011904D02*
X99109580Y-88059523D01*
X98204819Y-86821428D02*
X98204819Y-86726190D01*
X98204819Y-86726190D02*
X98252438Y-86630952D01*
X98252438Y-86630952D02*
X98300057Y-86583333D01*
X98300057Y-86583333D02*
X98395295Y-86535714D01*
X98395295Y-86535714D02*
X98585771Y-86488095D01*
X98585771Y-86488095D02*
X98823866Y-86488095D01*
X98823866Y-86488095D02*
X99014342Y-86535714D01*
X99014342Y-86535714D02*
X99109580Y-86583333D01*
X99109580Y-86583333D02*
X99157200Y-86630952D01*
X99157200Y-86630952D02*
X99204819Y-86726190D01*
X99204819Y-86726190D02*
X99204819Y-86821428D01*
X99204819Y-86821428D02*
X99157200Y-86916666D01*
X99157200Y-86916666D02*
X99109580Y-86964285D01*
X99109580Y-86964285D02*
X99014342Y-87011904D01*
X99014342Y-87011904D02*
X98823866Y-87059523D01*
X98823866Y-87059523D02*
X98585771Y-87059523D01*
X98585771Y-87059523D02*
X98395295Y-87011904D01*
X98395295Y-87011904D02*
X98300057Y-86964285D01*
X98300057Y-86964285D02*
X98252438Y-86916666D01*
X98252438Y-86916666D02*
X98204819Y-86821428D01*
X93454819Y-119666666D02*
X92978628Y-119999999D01*
X93454819Y-120238094D02*
X92454819Y-120238094D01*
X92454819Y-120238094D02*
X92454819Y-119857142D01*
X92454819Y-119857142D02*
X92502438Y-119761904D01*
X92502438Y-119761904D02*
X92550057Y-119714285D01*
X92550057Y-119714285D02*
X92645295Y-119666666D01*
X92645295Y-119666666D02*
X92788152Y-119666666D01*
X92788152Y-119666666D02*
X92883390Y-119714285D01*
X92883390Y-119714285D02*
X92931009Y-119761904D01*
X92931009Y-119761904D02*
X92978628Y-119857142D01*
X92978628Y-119857142D02*
X92978628Y-120238094D01*
X92550057Y-119285713D02*
X92502438Y-119238094D01*
X92502438Y-119238094D02*
X92454819Y-119142856D01*
X92454819Y-119142856D02*
X92454819Y-118904761D01*
X92454819Y-118904761D02*
X92502438Y-118809523D01*
X92502438Y-118809523D02*
X92550057Y-118761904D01*
X92550057Y-118761904D02*
X92645295Y-118714285D01*
X92645295Y-118714285D02*
X92740533Y-118714285D01*
X92740533Y-118714285D02*
X92883390Y-118761904D01*
X92883390Y-118761904D02*
X93454819Y-119333332D01*
X93454819Y-119333332D02*
X93454819Y-118714285D01*
X78607142Y-88204819D02*
X78273809Y-87728628D01*
X78035714Y-88204819D02*
X78035714Y-87204819D01*
X78035714Y-87204819D02*
X78416666Y-87204819D01*
X78416666Y-87204819D02*
X78511904Y-87252438D01*
X78511904Y-87252438D02*
X78559523Y-87300057D01*
X78559523Y-87300057D02*
X78607142Y-87395295D01*
X78607142Y-87395295D02*
X78607142Y-87538152D01*
X78607142Y-87538152D02*
X78559523Y-87633390D01*
X78559523Y-87633390D02*
X78511904Y-87681009D01*
X78511904Y-87681009D02*
X78416666Y-87728628D01*
X78416666Y-87728628D02*
X78035714Y-87728628D01*
X78988095Y-87300057D02*
X79035714Y-87252438D01*
X79035714Y-87252438D02*
X79130952Y-87204819D01*
X79130952Y-87204819D02*
X79369047Y-87204819D01*
X79369047Y-87204819D02*
X79464285Y-87252438D01*
X79464285Y-87252438D02*
X79511904Y-87300057D01*
X79511904Y-87300057D02*
X79559523Y-87395295D01*
X79559523Y-87395295D02*
X79559523Y-87490533D01*
X79559523Y-87490533D02*
X79511904Y-87633390D01*
X79511904Y-87633390D02*
X78940476Y-88204819D01*
X78940476Y-88204819D02*
X79559523Y-88204819D01*
X79940476Y-87300057D02*
X79988095Y-87252438D01*
X79988095Y-87252438D02*
X80083333Y-87204819D01*
X80083333Y-87204819D02*
X80321428Y-87204819D01*
X80321428Y-87204819D02*
X80416666Y-87252438D01*
X80416666Y-87252438D02*
X80464285Y-87300057D01*
X80464285Y-87300057D02*
X80511904Y-87395295D01*
X80511904Y-87395295D02*
X80511904Y-87490533D01*
X80511904Y-87490533D02*
X80464285Y-87633390D01*
X80464285Y-87633390D02*
X79892857Y-88204819D01*
X79892857Y-88204819D02*
X80511904Y-88204819D01*
X108857142Y-121859580D02*
X108809523Y-121907200D01*
X108809523Y-121907200D02*
X108666666Y-121954819D01*
X108666666Y-121954819D02*
X108571428Y-121954819D01*
X108571428Y-121954819D02*
X108428571Y-121907200D01*
X108428571Y-121907200D02*
X108333333Y-121811961D01*
X108333333Y-121811961D02*
X108285714Y-121716723D01*
X108285714Y-121716723D02*
X108238095Y-121526247D01*
X108238095Y-121526247D02*
X108238095Y-121383390D01*
X108238095Y-121383390D02*
X108285714Y-121192914D01*
X108285714Y-121192914D02*
X108333333Y-121097676D01*
X108333333Y-121097676D02*
X108428571Y-121002438D01*
X108428571Y-121002438D02*
X108571428Y-120954819D01*
X108571428Y-120954819D02*
X108666666Y-120954819D01*
X108666666Y-120954819D02*
X108809523Y-121002438D01*
X108809523Y-121002438D02*
X108857142Y-121050057D01*
X109809523Y-121954819D02*
X109238095Y-121954819D01*
X109523809Y-121954819D02*
X109523809Y-120954819D01*
X109523809Y-120954819D02*
X109428571Y-121097676D01*
X109428571Y-121097676D02*
X109333333Y-121192914D01*
X109333333Y-121192914D02*
X109238095Y-121240533D01*
X110142857Y-120954819D02*
X110761904Y-120954819D01*
X110761904Y-120954819D02*
X110428571Y-121335771D01*
X110428571Y-121335771D02*
X110571428Y-121335771D01*
X110571428Y-121335771D02*
X110666666Y-121383390D01*
X110666666Y-121383390D02*
X110714285Y-121431009D01*
X110714285Y-121431009D02*
X110761904Y-121526247D01*
X110761904Y-121526247D02*
X110761904Y-121764342D01*
X110761904Y-121764342D02*
X110714285Y-121859580D01*
X110714285Y-121859580D02*
X110666666Y-121907200D01*
X110666666Y-121907200D02*
X110571428Y-121954819D01*
X110571428Y-121954819D02*
X110285714Y-121954819D01*
X110285714Y-121954819D02*
X110190476Y-121907200D01*
X110190476Y-121907200D02*
X110142857Y-121859580D01*
X80859580Y-126416666D02*
X80907200Y-126464285D01*
X80907200Y-126464285D02*
X80954819Y-126607142D01*
X80954819Y-126607142D02*
X80954819Y-126702380D01*
X80954819Y-126702380D02*
X80907200Y-126845237D01*
X80907200Y-126845237D02*
X80811961Y-126940475D01*
X80811961Y-126940475D02*
X80716723Y-126988094D01*
X80716723Y-126988094D02*
X80526247Y-127035713D01*
X80526247Y-127035713D02*
X80383390Y-127035713D01*
X80383390Y-127035713D02*
X80192914Y-126988094D01*
X80192914Y-126988094D02*
X80097676Y-126940475D01*
X80097676Y-126940475D02*
X80002438Y-126845237D01*
X80002438Y-126845237D02*
X79954819Y-126702380D01*
X79954819Y-126702380D02*
X79954819Y-126607142D01*
X79954819Y-126607142D02*
X80002438Y-126464285D01*
X80002438Y-126464285D02*
X80050057Y-126416666D01*
X80383390Y-125845237D02*
X80335771Y-125940475D01*
X80335771Y-125940475D02*
X80288152Y-125988094D01*
X80288152Y-125988094D02*
X80192914Y-126035713D01*
X80192914Y-126035713D02*
X80145295Y-126035713D01*
X80145295Y-126035713D02*
X80050057Y-125988094D01*
X80050057Y-125988094D02*
X80002438Y-125940475D01*
X80002438Y-125940475D02*
X79954819Y-125845237D01*
X79954819Y-125845237D02*
X79954819Y-125654761D01*
X79954819Y-125654761D02*
X80002438Y-125559523D01*
X80002438Y-125559523D02*
X80050057Y-125511904D01*
X80050057Y-125511904D02*
X80145295Y-125464285D01*
X80145295Y-125464285D02*
X80192914Y-125464285D01*
X80192914Y-125464285D02*
X80288152Y-125511904D01*
X80288152Y-125511904D02*
X80335771Y-125559523D01*
X80335771Y-125559523D02*
X80383390Y-125654761D01*
X80383390Y-125654761D02*
X80383390Y-125845237D01*
X80383390Y-125845237D02*
X80431009Y-125940475D01*
X80431009Y-125940475D02*
X80478628Y-125988094D01*
X80478628Y-125988094D02*
X80573866Y-126035713D01*
X80573866Y-126035713D02*
X80764342Y-126035713D01*
X80764342Y-126035713D02*
X80859580Y-125988094D01*
X80859580Y-125988094D02*
X80907200Y-125940475D01*
X80907200Y-125940475D02*
X80954819Y-125845237D01*
X80954819Y-125845237D02*
X80954819Y-125654761D01*
X80954819Y-125654761D02*
X80907200Y-125559523D01*
X80907200Y-125559523D02*
X80859580Y-125511904D01*
X80859580Y-125511904D02*
X80764342Y-125464285D01*
X80764342Y-125464285D02*
X80573866Y-125464285D01*
X80573866Y-125464285D02*
X80478628Y-125511904D01*
X80478628Y-125511904D02*
X80431009Y-125559523D01*
X80431009Y-125559523D02*
X80383390Y-125654761D01*
X88454819Y-139142857D02*
X87978628Y-139476190D01*
X88454819Y-139714285D02*
X87454819Y-139714285D01*
X87454819Y-139714285D02*
X87454819Y-139333333D01*
X87454819Y-139333333D02*
X87502438Y-139238095D01*
X87502438Y-139238095D02*
X87550057Y-139190476D01*
X87550057Y-139190476D02*
X87645295Y-139142857D01*
X87645295Y-139142857D02*
X87788152Y-139142857D01*
X87788152Y-139142857D02*
X87883390Y-139190476D01*
X87883390Y-139190476D02*
X87931009Y-139238095D01*
X87931009Y-139238095D02*
X87978628Y-139333333D01*
X87978628Y-139333333D02*
X87978628Y-139714285D01*
X88454819Y-138190476D02*
X88454819Y-138761904D01*
X88454819Y-138476190D02*
X87454819Y-138476190D01*
X87454819Y-138476190D02*
X87597676Y-138571428D01*
X87597676Y-138571428D02*
X87692914Y-138666666D01*
X87692914Y-138666666D02*
X87740533Y-138761904D01*
X88454819Y-137714285D02*
X88454819Y-137523809D01*
X88454819Y-137523809D02*
X88407200Y-137428571D01*
X88407200Y-137428571D02*
X88359580Y-137380952D01*
X88359580Y-137380952D02*
X88216723Y-137285714D01*
X88216723Y-137285714D02*
X88026247Y-137238095D01*
X88026247Y-137238095D02*
X87645295Y-137238095D01*
X87645295Y-137238095D02*
X87550057Y-137285714D01*
X87550057Y-137285714D02*
X87502438Y-137333333D01*
X87502438Y-137333333D02*
X87454819Y-137428571D01*
X87454819Y-137428571D02*
X87454819Y-137619047D01*
X87454819Y-137619047D02*
X87502438Y-137714285D01*
X87502438Y-137714285D02*
X87550057Y-137761904D01*
X87550057Y-137761904D02*
X87645295Y-137809523D01*
X87645295Y-137809523D02*
X87883390Y-137809523D01*
X87883390Y-137809523D02*
X87978628Y-137761904D01*
X87978628Y-137761904D02*
X88026247Y-137714285D01*
X88026247Y-137714285D02*
X88073866Y-137619047D01*
X88073866Y-137619047D02*
X88073866Y-137428571D01*
X88073866Y-137428571D02*
X88026247Y-137333333D01*
X88026247Y-137333333D02*
X87978628Y-137285714D01*
X87978628Y-137285714D02*
X87883390Y-137238095D01*
X88964285Y-87381009D02*
X89107142Y-87428628D01*
X89107142Y-87428628D02*
X89154761Y-87476247D01*
X89154761Y-87476247D02*
X89202380Y-87571485D01*
X89202380Y-87571485D02*
X89202380Y-87714342D01*
X89202380Y-87714342D02*
X89154761Y-87809580D01*
X89154761Y-87809580D02*
X89107142Y-87857200D01*
X89107142Y-87857200D02*
X89011904Y-87904819D01*
X89011904Y-87904819D02*
X88630952Y-87904819D01*
X88630952Y-87904819D02*
X88630952Y-86904819D01*
X88630952Y-86904819D02*
X88964285Y-86904819D01*
X88964285Y-86904819D02*
X89059523Y-86952438D01*
X89059523Y-86952438D02*
X89107142Y-87000057D01*
X89107142Y-87000057D02*
X89154761Y-87095295D01*
X89154761Y-87095295D02*
X89154761Y-87190533D01*
X89154761Y-87190533D02*
X89107142Y-87285771D01*
X89107142Y-87285771D02*
X89059523Y-87333390D01*
X89059523Y-87333390D02*
X88964285Y-87381009D01*
X88964285Y-87381009D02*
X88630952Y-87381009D01*
X89488095Y-86904819D02*
X90059523Y-86904819D01*
X89773809Y-87904819D02*
X89773809Y-86904819D01*
X90916666Y-87904819D02*
X90345238Y-87904819D01*
X90630952Y-87904819D02*
X90630952Y-86904819D01*
X90630952Y-86904819D02*
X90535714Y-87047676D01*
X90535714Y-87047676D02*
X90440476Y-87142914D01*
X90440476Y-87142914D02*
X90345238Y-87190533D01*
X85904819Y-100083333D02*
X86619104Y-100083333D01*
X86619104Y-100083333D02*
X86761961Y-100130952D01*
X86761961Y-100130952D02*
X86857200Y-100226190D01*
X86857200Y-100226190D02*
X86904819Y-100369047D01*
X86904819Y-100369047D02*
X86904819Y-100464285D01*
X86904819Y-99607142D02*
X85904819Y-99607142D01*
X85904819Y-99607142D02*
X85904819Y-99226190D01*
X85904819Y-99226190D02*
X85952438Y-99130952D01*
X85952438Y-99130952D02*
X86000057Y-99083333D01*
X86000057Y-99083333D02*
X86095295Y-99035714D01*
X86095295Y-99035714D02*
X86238152Y-99035714D01*
X86238152Y-99035714D02*
X86333390Y-99083333D01*
X86333390Y-99083333D02*
X86381009Y-99130952D01*
X86381009Y-99130952D02*
X86428628Y-99226190D01*
X86428628Y-99226190D02*
X86428628Y-99607142D01*
X86000057Y-98654761D02*
X85952438Y-98607142D01*
X85952438Y-98607142D02*
X85904819Y-98511904D01*
X85904819Y-98511904D02*
X85904819Y-98273809D01*
X85904819Y-98273809D02*
X85952438Y-98178571D01*
X85952438Y-98178571D02*
X86000057Y-98130952D01*
X86000057Y-98130952D02*
X86095295Y-98083333D01*
X86095295Y-98083333D02*
X86190533Y-98083333D01*
X86190533Y-98083333D02*
X86333390Y-98130952D01*
X86333390Y-98130952D02*
X86904819Y-98702380D01*
X86904819Y-98702380D02*
X86904819Y-98083333D01*
X84454819Y-130166666D02*
X83978628Y-130499999D01*
X84454819Y-130738094D02*
X83454819Y-130738094D01*
X83454819Y-130738094D02*
X83454819Y-130357142D01*
X83454819Y-130357142D02*
X83502438Y-130261904D01*
X83502438Y-130261904D02*
X83550057Y-130214285D01*
X83550057Y-130214285D02*
X83645295Y-130166666D01*
X83645295Y-130166666D02*
X83788152Y-130166666D01*
X83788152Y-130166666D02*
X83883390Y-130214285D01*
X83883390Y-130214285D02*
X83931009Y-130261904D01*
X83931009Y-130261904D02*
X83978628Y-130357142D01*
X83978628Y-130357142D02*
X83978628Y-130738094D01*
X83454819Y-129261904D02*
X83454819Y-129738094D01*
X83454819Y-129738094D02*
X83931009Y-129785713D01*
X83931009Y-129785713D02*
X83883390Y-129738094D01*
X83883390Y-129738094D02*
X83835771Y-129642856D01*
X83835771Y-129642856D02*
X83835771Y-129404761D01*
X83835771Y-129404761D02*
X83883390Y-129309523D01*
X83883390Y-129309523D02*
X83931009Y-129261904D01*
X83931009Y-129261904D02*
X84026247Y-129214285D01*
X84026247Y-129214285D02*
X84264342Y-129214285D01*
X84264342Y-129214285D02*
X84359580Y-129261904D01*
X84359580Y-129261904D02*
X84407200Y-129309523D01*
X84407200Y-129309523D02*
X84454819Y-129404761D01*
X84454819Y-129404761D02*
X84454819Y-129642856D01*
X84454819Y-129642856D02*
X84407200Y-129738094D01*
X84407200Y-129738094D02*
X84359580Y-129785713D01*
X84134819Y-97892857D02*
X83658628Y-98226190D01*
X84134819Y-98464285D02*
X83134819Y-98464285D01*
X83134819Y-98464285D02*
X83134819Y-98083333D01*
X83134819Y-98083333D02*
X83182438Y-97988095D01*
X83182438Y-97988095D02*
X83230057Y-97940476D01*
X83230057Y-97940476D02*
X83325295Y-97892857D01*
X83325295Y-97892857D02*
X83468152Y-97892857D01*
X83468152Y-97892857D02*
X83563390Y-97940476D01*
X83563390Y-97940476D02*
X83611009Y-97988095D01*
X83611009Y-97988095D02*
X83658628Y-98083333D01*
X83658628Y-98083333D02*
X83658628Y-98464285D01*
X83230057Y-97511904D02*
X83182438Y-97464285D01*
X83182438Y-97464285D02*
X83134819Y-97369047D01*
X83134819Y-97369047D02*
X83134819Y-97130952D01*
X83134819Y-97130952D02*
X83182438Y-97035714D01*
X83182438Y-97035714D02*
X83230057Y-96988095D01*
X83230057Y-96988095D02*
X83325295Y-96940476D01*
X83325295Y-96940476D02*
X83420533Y-96940476D01*
X83420533Y-96940476D02*
X83563390Y-96988095D01*
X83563390Y-96988095D02*
X84134819Y-97559523D01*
X84134819Y-97559523D02*
X84134819Y-96940476D01*
X83134819Y-96607142D02*
X83134819Y-95988095D01*
X83134819Y-95988095D02*
X83515771Y-96321428D01*
X83515771Y-96321428D02*
X83515771Y-96178571D01*
X83515771Y-96178571D02*
X83563390Y-96083333D01*
X83563390Y-96083333D02*
X83611009Y-96035714D01*
X83611009Y-96035714D02*
X83706247Y-95988095D01*
X83706247Y-95988095D02*
X83944342Y-95988095D01*
X83944342Y-95988095D02*
X84039580Y-96035714D01*
X84039580Y-96035714D02*
X84087200Y-96083333D01*
X84087200Y-96083333D02*
X84134819Y-96178571D01*
X84134819Y-96178571D02*
X84134819Y-96464285D01*
X84134819Y-96464285D02*
X84087200Y-96559523D01*
X84087200Y-96559523D02*
X84039580Y-96607142D01*
X93504819Y-95761904D02*
X94314342Y-95761904D01*
X94314342Y-95761904D02*
X94409580Y-95714285D01*
X94409580Y-95714285D02*
X94457200Y-95666666D01*
X94457200Y-95666666D02*
X94504819Y-95571428D01*
X94504819Y-95571428D02*
X94504819Y-95380952D01*
X94504819Y-95380952D02*
X94457200Y-95285714D01*
X94457200Y-95285714D02*
X94409580Y-95238095D01*
X94409580Y-95238095D02*
X94314342Y-95190476D01*
X94314342Y-95190476D02*
X93504819Y-95190476D01*
X93504819Y-94809523D02*
X93504819Y-94190476D01*
X93504819Y-94190476D02*
X93885771Y-94523809D01*
X93885771Y-94523809D02*
X93885771Y-94380952D01*
X93885771Y-94380952D02*
X93933390Y-94285714D01*
X93933390Y-94285714D02*
X93981009Y-94238095D01*
X93981009Y-94238095D02*
X94076247Y-94190476D01*
X94076247Y-94190476D02*
X94314342Y-94190476D01*
X94314342Y-94190476D02*
X94409580Y-94238095D01*
X94409580Y-94238095D02*
X94457200Y-94285714D01*
X94457200Y-94285714D02*
X94504819Y-94380952D01*
X94504819Y-94380952D02*
X94504819Y-94666666D01*
X94504819Y-94666666D02*
X94457200Y-94761904D01*
X94457200Y-94761904D02*
X94409580Y-94809523D01*
X139800057Y-134845238D02*
X139752438Y-134940476D01*
X139752438Y-134940476D02*
X139657200Y-135035714D01*
X139657200Y-135035714D02*
X139514342Y-135178571D01*
X139514342Y-135178571D02*
X139466723Y-135273809D01*
X139466723Y-135273809D02*
X139466723Y-135369047D01*
X139704819Y-135321428D02*
X139657200Y-135416666D01*
X139657200Y-135416666D02*
X139561961Y-135511904D01*
X139561961Y-135511904D02*
X139371485Y-135559523D01*
X139371485Y-135559523D02*
X139038152Y-135559523D01*
X139038152Y-135559523D02*
X138847676Y-135511904D01*
X138847676Y-135511904D02*
X138752438Y-135416666D01*
X138752438Y-135416666D02*
X138704819Y-135321428D01*
X138704819Y-135321428D02*
X138704819Y-135130952D01*
X138704819Y-135130952D02*
X138752438Y-135035714D01*
X138752438Y-135035714D02*
X138847676Y-134940476D01*
X138847676Y-134940476D02*
X139038152Y-134892857D01*
X139038152Y-134892857D02*
X139371485Y-134892857D01*
X139371485Y-134892857D02*
X139561961Y-134940476D01*
X139561961Y-134940476D02*
X139657200Y-135035714D01*
X139657200Y-135035714D02*
X139704819Y-135130952D01*
X139704819Y-135130952D02*
X139704819Y-135321428D01*
X138704819Y-133988095D02*
X138704819Y-134464285D01*
X138704819Y-134464285D02*
X139181009Y-134511904D01*
X139181009Y-134511904D02*
X139133390Y-134464285D01*
X139133390Y-134464285D02*
X139085771Y-134369047D01*
X139085771Y-134369047D02*
X139085771Y-134130952D01*
X139085771Y-134130952D02*
X139133390Y-134035714D01*
X139133390Y-134035714D02*
X139181009Y-133988095D01*
X139181009Y-133988095D02*
X139276247Y-133940476D01*
X139276247Y-133940476D02*
X139514342Y-133940476D01*
X139514342Y-133940476D02*
X139609580Y-133988095D01*
X139609580Y-133988095D02*
X139657200Y-134035714D01*
X139657200Y-134035714D02*
X139704819Y-134130952D01*
X139704819Y-134130952D02*
X139704819Y-134369047D01*
X139704819Y-134369047D02*
X139657200Y-134464285D01*
X139657200Y-134464285D02*
X139609580Y-134511904D01*
X82204819Y-132631904D02*
X83014342Y-132631904D01*
X83014342Y-132631904D02*
X83109580Y-132584285D01*
X83109580Y-132584285D02*
X83157200Y-132536666D01*
X83157200Y-132536666D02*
X83204819Y-132441428D01*
X83204819Y-132441428D02*
X83204819Y-132250952D01*
X83204819Y-132250952D02*
X83157200Y-132155714D01*
X83157200Y-132155714D02*
X83109580Y-132108095D01*
X83109580Y-132108095D02*
X83014342Y-132060476D01*
X83014342Y-132060476D02*
X82204819Y-132060476D01*
X82300057Y-131631904D02*
X82252438Y-131584285D01*
X82252438Y-131584285D02*
X82204819Y-131489047D01*
X82204819Y-131489047D02*
X82204819Y-131250952D01*
X82204819Y-131250952D02*
X82252438Y-131155714D01*
X82252438Y-131155714D02*
X82300057Y-131108095D01*
X82300057Y-131108095D02*
X82395295Y-131060476D01*
X82395295Y-131060476D02*
X82490533Y-131060476D01*
X82490533Y-131060476D02*
X82633390Y-131108095D01*
X82633390Y-131108095D02*
X83204819Y-131679523D01*
X83204819Y-131679523D02*
X83204819Y-131060476D01*
X137166667Y-88907200D02*
X137309524Y-88954819D01*
X137309524Y-88954819D02*
X137547619Y-88954819D01*
X137547619Y-88954819D02*
X137642857Y-88907200D01*
X137642857Y-88907200D02*
X137690476Y-88859580D01*
X137690476Y-88859580D02*
X137738095Y-88764342D01*
X137738095Y-88764342D02*
X137738095Y-88669104D01*
X137738095Y-88669104D02*
X137690476Y-88573866D01*
X137690476Y-88573866D02*
X137642857Y-88526247D01*
X137642857Y-88526247D02*
X137547619Y-88478628D01*
X137547619Y-88478628D02*
X137357143Y-88431009D01*
X137357143Y-88431009D02*
X137261905Y-88383390D01*
X137261905Y-88383390D02*
X137214286Y-88335771D01*
X137214286Y-88335771D02*
X137166667Y-88240533D01*
X137166667Y-88240533D02*
X137166667Y-88145295D01*
X137166667Y-88145295D02*
X137214286Y-88050057D01*
X137214286Y-88050057D02*
X137261905Y-88002438D01*
X137261905Y-88002438D02*
X137357143Y-87954819D01*
X137357143Y-87954819D02*
X137595238Y-87954819D01*
X137595238Y-87954819D02*
X137738095Y-88002438D01*
X138071429Y-87954819D02*
X138309524Y-88954819D01*
X138309524Y-88954819D02*
X138500000Y-88240533D01*
X138500000Y-88240533D02*
X138690476Y-88954819D01*
X138690476Y-88954819D02*
X138928572Y-87954819D01*
X139833333Y-88954819D02*
X139261905Y-88954819D01*
X139547619Y-88954819D02*
X139547619Y-87954819D01*
X139547619Y-87954819D02*
X139452381Y-88097676D01*
X139452381Y-88097676D02*
X139357143Y-88192914D01*
X139357143Y-88192914D02*
X139261905Y-88240533D01*
X103634819Y-139392857D02*
X103158628Y-139726190D01*
X103634819Y-139964285D02*
X102634819Y-139964285D01*
X102634819Y-139964285D02*
X102634819Y-139583333D01*
X102634819Y-139583333D02*
X102682438Y-139488095D01*
X102682438Y-139488095D02*
X102730057Y-139440476D01*
X102730057Y-139440476D02*
X102825295Y-139392857D01*
X102825295Y-139392857D02*
X102968152Y-139392857D01*
X102968152Y-139392857D02*
X103063390Y-139440476D01*
X103063390Y-139440476D02*
X103111009Y-139488095D01*
X103111009Y-139488095D02*
X103158628Y-139583333D01*
X103158628Y-139583333D02*
X103158628Y-139964285D01*
X103634819Y-138440476D02*
X103634819Y-139011904D01*
X103634819Y-138726190D02*
X102634819Y-138726190D01*
X102634819Y-138726190D02*
X102777676Y-138821428D01*
X102777676Y-138821428D02*
X102872914Y-138916666D01*
X102872914Y-138916666D02*
X102920533Y-139011904D01*
X102634819Y-137821428D02*
X102634819Y-137726190D01*
X102634819Y-137726190D02*
X102682438Y-137630952D01*
X102682438Y-137630952D02*
X102730057Y-137583333D01*
X102730057Y-137583333D02*
X102825295Y-137535714D01*
X102825295Y-137535714D02*
X103015771Y-137488095D01*
X103015771Y-137488095D02*
X103253866Y-137488095D01*
X103253866Y-137488095D02*
X103444342Y-137535714D01*
X103444342Y-137535714D02*
X103539580Y-137583333D01*
X103539580Y-137583333D02*
X103587200Y-137630952D01*
X103587200Y-137630952D02*
X103634819Y-137726190D01*
X103634819Y-137726190D02*
X103634819Y-137821428D01*
X103634819Y-137821428D02*
X103587200Y-137916666D01*
X103587200Y-137916666D02*
X103539580Y-137964285D01*
X103539580Y-137964285D02*
X103444342Y-138011904D01*
X103444342Y-138011904D02*
X103253866Y-138059523D01*
X103253866Y-138059523D02*
X103015771Y-138059523D01*
X103015771Y-138059523D02*
X102825295Y-138011904D01*
X102825295Y-138011904D02*
X102730057Y-137964285D01*
X102730057Y-137964285D02*
X102682438Y-137916666D01*
X102682438Y-137916666D02*
X102634819Y-137821428D01*
X79333333Y-123539580D02*
X79285714Y-123587200D01*
X79285714Y-123587200D02*
X79142857Y-123634819D01*
X79142857Y-123634819D02*
X79047619Y-123634819D01*
X79047619Y-123634819D02*
X78904762Y-123587200D01*
X78904762Y-123587200D02*
X78809524Y-123491961D01*
X78809524Y-123491961D02*
X78761905Y-123396723D01*
X78761905Y-123396723D02*
X78714286Y-123206247D01*
X78714286Y-123206247D02*
X78714286Y-123063390D01*
X78714286Y-123063390D02*
X78761905Y-122872914D01*
X78761905Y-122872914D02*
X78809524Y-122777676D01*
X78809524Y-122777676D02*
X78904762Y-122682438D01*
X78904762Y-122682438D02*
X79047619Y-122634819D01*
X79047619Y-122634819D02*
X79142857Y-122634819D01*
X79142857Y-122634819D02*
X79285714Y-122682438D01*
X79285714Y-122682438D02*
X79333333Y-122730057D01*
X79809524Y-123634819D02*
X80000000Y-123634819D01*
X80000000Y-123634819D02*
X80095238Y-123587200D01*
X80095238Y-123587200D02*
X80142857Y-123539580D01*
X80142857Y-123539580D02*
X80238095Y-123396723D01*
X80238095Y-123396723D02*
X80285714Y-123206247D01*
X80285714Y-123206247D02*
X80285714Y-122825295D01*
X80285714Y-122825295D02*
X80238095Y-122730057D01*
X80238095Y-122730057D02*
X80190476Y-122682438D01*
X80190476Y-122682438D02*
X80095238Y-122634819D01*
X80095238Y-122634819D02*
X79904762Y-122634819D01*
X79904762Y-122634819D02*
X79809524Y-122682438D01*
X79809524Y-122682438D02*
X79761905Y-122730057D01*
X79761905Y-122730057D02*
X79714286Y-122825295D01*
X79714286Y-122825295D02*
X79714286Y-123063390D01*
X79714286Y-123063390D02*
X79761905Y-123158628D01*
X79761905Y-123158628D02*
X79809524Y-123206247D01*
X79809524Y-123206247D02*
X79904762Y-123253866D01*
X79904762Y-123253866D02*
X80095238Y-123253866D01*
X80095238Y-123253866D02*
X80190476Y-123206247D01*
X80190476Y-123206247D02*
X80238095Y-123158628D01*
X80238095Y-123158628D02*
X80285714Y-123063390D01*
X127857142Y-141609580D02*
X127809523Y-141657200D01*
X127809523Y-141657200D02*
X127666666Y-141704819D01*
X127666666Y-141704819D02*
X127571428Y-141704819D01*
X127571428Y-141704819D02*
X127428571Y-141657200D01*
X127428571Y-141657200D02*
X127333333Y-141561961D01*
X127333333Y-141561961D02*
X127285714Y-141466723D01*
X127285714Y-141466723D02*
X127238095Y-141276247D01*
X127238095Y-141276247D02*
X127238095Y-141133390D01*
X127238095Y-141133390D02*
X127285714Y-140942914D01*
X127285714Y-140942914D02*
X127333333Y-140847676D01*
X127333333Y-140847676D02*
X127428571Y-140752438D01*
X127428571Y-140752438D02*
X127571428Y-140704819D01*
X127571428Y-140704819D02*
X127666666Y-140704819D01*
X127666666Y-140704819D02*
X127809523Y-140752438D01*
X127809523Y-140752438D02*
X127857142Y-140800057D01*
X128809523Y-141704819D02*
X128238095Y-141704819D01*
X128523809Y-141704819D02*
X128523809Y-140704819D01*
X128523809Y-140704819D02*
X128428571Y-140847676D01*
X128428571Y-140847676D02*
X128333333Y-140942914D01*
X128333333Y-140942914D02*
X128238095Y-140990533D01*
X129666666Y-141038152D02*
X129666666Y-141704819D01*
X129428571Y-140657200D02*
X129190476Y-141371485D01*
X129190476Y-141371485D02*
X129809523Y-141371485D01*
X98261905Y-81454819D02*
X98261905Y-80454819D01*
X98261905Y-80454819D02*
X98500000Y-80454819D01*
X98500000Y-80454819D02*
X98642857Y-80502438D01*
X98642857Y-80502438D02*
X98738095Y-80597676D01*
X98738095Y-80597676D02*
X98785714Y-80692914D01*
X98785714Y-80692914D02*
X98833333Y-80883390D01*
X98833333Y-80883390D02*
X98833333Y-81026247D01*
X98833333Y-81026247D02*
X98785714Y-81216723D01*
X98785714Y-81216723D02*
X98738095Y-81311961D01*
X98738095Y-81311961D02*
X98642857Y-81407200D01*
X98642857Y-81407200D02*
X98500000Y-81454819D01*
X98500000Y-81454819D02*
X98261905Y-81454819D01*
X99690476Y-80788152D02*
X99690476Y-81454819D01*
X99452381Y-80407200D02*
X99214286Y-81121485D01*
X99214286Y-81121485D02*
X99833333Y-81121485D01*
X82488095Y-119704819D02*
X82488095Y-120514342D01*
X82488095Y-120514342D02*
X82535714Y-120609580D01*
X82535714Y-120609580D02*
X82583333Y-120657200D01*
X82583333Y-120657200D02*
X82678571Y-120704819D01*
X82678571Y-120704819D02*
X82869047Y-120704819D01*
X82869047Y-120704819D02*
X82964285Y-120657200D01*
X82964285Y-120657200D02*
X83011904Y-120609580D01*
X83011904Y-120609580D02*
X83059523Y-120514342D01*
X83059523Y-120514342D02*
X83059523Y-119704819D01*
X83678571Y-120133390D02*
X83583333Y-120085771D01*
X83583333Y-120085771D02*
X83535714Y-120038152D01*
X83535714Y-120038152D02*
X83488095Y-119942914D01*
X83488095Y-119942914D02*
X83488095Y-119895295D01*
X83488095Y-119895295D02*
X83535714Y-119800057D01*
X83535714Y-119800057D02*
X83583333Y-119752438D01*
X83583333Y-119752438D02*
X83678571Y-119704819D01*
X83678571Y-119704819D02*
X83869047Y-119704819D01*
X83869047Y-119704819D02*
X83964285Y-119752438D01*
X83964285Y-119752438D02*
X84011904Y-119800057D01*
X84011904Y-119800057D02*
X84059523Y-119895295D01*
X84059523Y-119895295D02*
X84059523Y-119942914D01*
X84059523Y-119942914D02*
X84011904Y-120038152D01*
X84011904Y-120038152D02*
X83964285Y-120085771D01*
X83964285Y-120085771D02*
X83869047Y-120133390D01*
X83869047Y-120133390D02*
X83678571Y-120133390D01*
X83678571Y-120133390D02*
X83583333Y-120181009D01*
X83583333Y-120181009D02*
X83535714Y-120228628D01*
X83535714Y-120228628D02*
X83488095Y-120323866D01*
X83488095Y-120323866D02*
X83488095Y-120514342D01*
X83488095Y-120514342D02*
X83535714Y-120609580D01*
X83535714Y-120609580D02*
X83583333Y-120657200D01*
X83583333Y-120657200D02*
X83678571Y-120704819D01*
X83678571Y-120704819D02*
X83869047Y-120704819D01*
X83869047Y-120704819D02*
X83964285Y-120657200D01*
X83964285Y-120657200D02*
X84011904Y-120609580D01*
X84011904Y-120609580D02*
X84059523Y-120514342D01*
X84059523Y-120514342D02*
X84059523Y-120323866D01*
X84059523Y-120323866D02*
X84011904Y-120228628D01*
X84011904Y-120228628D02*
X83964285Y-120181009D01*
X83964285Y-120181009D02*
X83869047Y-120133390D01*
X126634819Y-128642857D02*
X126158628Y-128976190D01*
X126634819Y-129214285D02*
X125634819Y-129214285D01*
X125634819Y-129214285D02*
X125634819Y-128833333D01*
X125634819Y-128833333D02*
X125682438Y-128738095D01*
X125682438Y-128738095D02*
X125730057Y-128690476D01*
X125730057Y-128690476D02*
X125825295Y-128642857D01*
X125825295Y-128642857D02*
X125968152Y-128642857D01*
X125968152Y-128642857D02*
X126063390Y-128690476D01*
X126063390Y-128690476D02*
X126111009Y-128738095D01*
X126111009Y-128738095D02*
X126158628Y-128833333D01*
X126158628Y-128833333D02*
X126158628Y-129214285D01*
X126634819Y-127690476D02*
X126634819Y-128261904D01*
X126634819Y-127976190D02*
X125634819Y-127976190D01*
X125634819Y-127976190D02*
X125777676Y-128071428D01*
X125777676Y-128071428D02*
X125872914Y-128166666D01*
X125872914Y-128166666D02*
X125920533Y-128261904D01*
X126063390Y-127119047D02*
X126015771Y-127214285D01*
X126015771Y-127214285D02*
X125968152Y-127261904D01*
X125968152Y-127261904D02*
X125872914Y-127309523D01*
X125872914Y-127309523D02*
X125825295Y-127309523D01*
X125825295Y-127309523D02*
X125730057Y-127261904D01*
X125730057Y-127261904D02*
X125682438Y-127214285D01*
X125682438Y-127214285D02*
X125634819Y-127119047D01*
X125634819Y-127119047D02*
X125634819Y-126928571D01*
X125634819Y-126928571D02*
X125682438Y-126833333D01*
X125682438Y-126833333D02*
X125730057Y-126785714D01*
X125730057Y-126785714D02*
X125825295Y-126738095D01*
X125825295Y-126738095D02*
X125872914Y-126738095D01*
X125872914Y-126738095D02*
X125968152Y-126785714D01*
X125968152Y-126785714D02*
X126015771Y-126833333D01*
X126015771Y-126833333D02*
X126063390Y-126928571D01*
X126063390Y-126928571D02*
X126063390Y-127119047D01*
X126063390Y-127119047D02*
X126111009Y-127214285D01*
X126111009Y-127214285D02*
X126158628Y-127261904D01*
X126158628Y-127261904D02*
X126253866Y-127309523D01*
X126253866Y-127309523D02*
X126444342Y-127309523D01*
X126444342Y-127309523D02*
X126539580Y-127261904D01*
X126539580Y-127261904D02*
X126587200Y-127214285D01*
X126587200Y-127214285D02*
X126634819Y-127119047D01*
X126634819Y-127119047D02*
X126634819Y-126928571D01*
X126634819Y-126928571D02*
X126587200Y-126833333D01*
X126587200Y-126833333D02*
X126539580Y-126785714D01*
X126539580Y-126785714D02*
X126444342Y-126738095D01*
X126444342Y-126738095D02*
X126253866Y-126738095D01*
X126253866Y-126738095D02*
X126158628Y-126785714D01*
X126158628Y-126785714D02*
X126111009Y-126833333D01*
X126111009Y-126833333D02*
X126063390Y-126928571D01*
X98609580Y-119666666D02*
X98657200Y-119714285D01*
X98657200Y-119714285D02*
X98704819Y-119857142D01*
X98704819Y-119857142D02*
X98704819Y-119952380D01*
X98704819Y-119952380D02*
X98657200Y-120095237D01*
X98657200Y-120095237D02*
X98561961Y-120190475D01*
X98561961Y-120190475D02*
X98466723Y-120238094D01*
X98466723Y-120238094D02*
X98276247Y-120285713D01*
X98276247Y-120285713D02*
X98133390Y-120285713D01*
X98133390Y-120285713D02*
X97942914Y-120238094D01*
X97942914Y-120238094D02*
X97847676Y-120190475D01*
X97847676Y-120190475D02*
X97752438Y-120095237D01*
X97752438Y-120095237D02*
X97704819Y-119952380D01*
X97704819Y-119952380D02*
X97704819Y-119857142D01*
X97704819Y-119857142D02*
X97752438Y-119714285D01*
X97752438Y-119714285D02*
X97800057Y-119666666D01*
X97704819Y-119333332D02*
X97704819Y-118714285D01*
X97704819Y-118714285D02*
X98085771Y-119047618D01*
X98085771Y-119047618D02*
X98085771Y-118904761D01*
X98085771Y-118904761D02*
X98133390Y-118809523D01*
X98133390Y-118809523D02*
X98181009Y-118761904D01*
X98181009Y-118761904D02*
X98276247Y-118714285D01*
X98276247Y-118714285D02*
X98514342Y-118714285D01*
X98514342Y-118714285D02*
X98609580Y-118761904D01*
X98609580Y-118761904D02*
X98657200Y-118809523D01*
X98657200Y-118809523D02*
X98704819Y-118904761D01*
X98704819Y-118904761D02*
X98704819Y-119190475D01*
X98704819Y-119190475D02*
X98657200Y-119285713D01*
X98657200Y-119285713D02*
X98609580Y-119333332D01*
X96859580Y-119666666D02*
X96907200Y-119714285D01*
X96907200Y-119714285D02*
X96954819Y-119857142D01*
X96954819Y-119857142D02*
X96954819Y-119952380D01*
X96954819Y-119952380D02*
X96907200Y-120095237D01*
X96907200Y-120095237D02*
X96811961Y-120190475D01*
X96811961Y-120190475D02*
X96716723Y-120238094D01*
X96716723Y-120238094D02*
X96526247Y-120285713D01*
X96526247Y-120285713D02*
X96383390Y-120285713D01*
X96383390Y-120285713D02*
X96192914Y-120238094D01*
X96192914Y-120238094D02*
X96097676Y-120190475D01*
X96097676Y-120190475D02*
X96002438Y-120095237D01*
X96002438Y-120095237D02*
X95954819Y-119952380D01*
X95954819Y-119952380D02*
X95954819Y-119857142D01*
X95954819Y-119857142D02*
X96002438Y-119714285D01*
X96002438Y-119714285D02*
X96050057Y-119666666D01*
X96288152Y-118809523D02*
X96954819Y-118809523D01*
X95907200Y-119047618D02*
X96621485Y-119285713D01*
X96621485Y-119285713D02*
X96621485Y-118666666D01*
X86204819Y-130166666D02*
X85728628Y-130499999D01*
X86204819Y-130738094D02*
X85204819Y-130738094D01*
X85204819Y-130738094D02*
X85204819Y-130357142D01*
X85204819Y-130357142D02*
X85252438Y-130261904D01*
X85252438Y-130261904D02*
X85300057Y-130214285D01*
X85300057Y-130214285D02*
X85395295Y-130166666D01*
X85395295Y-130166666D02*
X85538152Y-130166666D01*
X85538152Y-130166666D02*
X85633390Y-130214285D01*
X85633390Y-130214285D02*
X85681009Y-130261904D01*
X85681009Y-130261904D02*
X85728628Y-130357142D01*
X85728628Y-130357142D02*
X85728628Y-130738094D01*
X85204819Y-129309523D02*
X85204819Y-129499999D01*
X85204819Y-129499999D02*
X85252438Y-129595237D01*
X85252438Y-129595237D02*
X85300057Y-129642856D01*
X85300057Y-129642856D02*
X85442914Y-129738094D01*
X85442914Y-129738094D02*
X85633390Y-129785713D01*
X85633390Y-129785713D02*
X86014342Y-129785713D01*
X86014342Y-129785713D02*
X86109580Y-129738094D01*
X86109580Y-129738094D02*
X86157200Y-129690475D01*
X86157200Y-129690475D02*
X86204819Y-129595237D01*
X86204819Y-129595237D02*
X86204819Y-129404761D01*
X86204819Y-129404761D02*
X86157200Y-129309523D01*
X86157200Y-129309523D02*
X86109580Y-129261904D01*
X86109580Y-129261904D02*
X86014342Y-129214285D01*
X86014342Y-129214285D02*
X85776247Y-129214285D01*
X85776247Y-129214285D02*
X85681009Y-129261904D01*
X85681009Y-129261904D02*
X85633390Y-129309523D01*
X85633390Y-129309523D02*
X85585771Y-129404761D01*
X85585771Y-129404761D02*
X85585771Y-129595237D01*
X85585771Y-129595237D02*
X85633390Y-129690475D01*
X85633390Y-129690475D02*
X85681009Y-129738094D01*
X85681009Y-129738094D02*
X85776247Y-129785713D01*
X83859580Y-142916666D02*
X83907200Y-142964285D01*
X83907200Y-142964285D02*
X83954819Y-143107142D01*
X83954819Y-143107142D02*
X83954819Y-143202380D01*
X83954819Y-143202380D02*
X83907200Y-143345237D01*
X83907200Y-143345237D02*
X83811961Y-143440475D01*
X83811961Y-143440475D02*
X83716723Y-143488094D01*
X83716723Y-143488094D02*
X83526247Y-143535713D01*
X83526247Y-143535713D02*
X83383390Y-143535713D01*
X83383390Y-143535713D02*
X83192914Y-143488094D01*
X83192914Y-143488094D02*
X83097676Y-143440475D01*
X83097676Y-143440475D02*
X83002438Y-143345237D01*
X83002438Y-143345237D02*
X82954819Y-143202380D01*
X82954819Y-143202380D02*
X82954819Y-143107142D01*
X82954819Y-143107142D02*
X83002438Y-142964285D01*
X83002438Y-142964285D02*
X83050057Y-142916666D01*
X82954819Y-142011904D02*
X82954819Y-142488094D01*
X82954819Y-142488094D02*
X83431009Y-142535713D01*
X83431009Y-142535713D02*
X83383390Y-142488094D01*
X83383390Y-142488094D02*
X83335771Y-142392856D01*
X83335771Y-142392856D02*
X83335771Y-142154761D01*
X83335771Y-142154761D02*
X83383390Y-142059523D01*
X83383390Y-142059523D02*
X83431009Y-142011904D01*
X83431009Y-142011904D02*
X83526247Y-141964285D01*
X83526247Y-141964285D02*
X83764342Y-141964285D01*
X83764342Y-141964285D02*
X83859580Y-142011904D01*
X83859580Y-142011904D02*
X83907200Y-142059523D01*
X83907200Y-142059523D02*
X83954819Y-142154761D01*
X83954819Y-142154761D02*
X83954819Y-142392856D01*
X83954819Y-142392856D02*
X83907200Y-142488094D01*
X83907200Y-142488094D02*
X83859580Y-142535713D01*
X85800057Y-94321428D02*
X85752438Y-94416666D01*
X85752438Y-94416666D02*
X85657200Y-94511904D01*
X85657200Y-94511904D02*
X85514342Y-94654761D01*
X85514342Y-94654761D02*
X85466723Y-94749999D01*
X85466723Y-94749999D02*
X85466723Y-94845237D01*
X85704819Y-94797618D02*
X85657200Y-94892856D01*
X85657200Y-94892856D02*
X85561961Y-94988094D01*
X85561961Y-94988094D02*
X85371485Y-95035713D01*
X85371485Y-95035713D02*
X85038152Y-95035713D01*
X85038152Y-95035713D02*
X84847676Y-94988094D01*
X84847676Y-94988094D02*
X84752438Y-94892856D01*
X84752438Y-94892856D02*
X84704819Y-94797618D01*
X84704819Y-94797618D02*
X84704819Y-94607142D01*
X84704819Y-94607142D02*
X84752438Y-94511904D01*
X84752438Y-94511904D02*
X84847676Y-94416666D01*
X84847676Y-94416666D02*
X85038152Y-94369047D01*
X85038152Y-94369047D02*
X85371485Y-94369047D01*
X85371485Y-94369047D02*
X85561961Y-94416666D01*
X85561961Y-94416666D02*
X85657200Y-94511904D01*
X85657200Y-94511904D02*
X85704819Y-94607142D01*
X85704819Y-94607142D02*
X85704819Y-94797618D01*
X85704819Y-93416666D02*
X85704819Y-93988094D01*
X85704819Y-93702380D02*
X84704819Y-93702380D01*
X84704819Y-93702380D02*
X84847676Y-93797618D01*
X84847676Y-93797618D02*
X84942914Y-93892856D01*
X84942914Y-93892856D02*
X84990533Y-93988094D01*
X85704819Y-92464285D02*
X85704819Y-93035713D01*
X85704819Y-92749999D02*
X84704819Y-92749999D01*
X84704819Y-92749999D02*
X84847676Y-92845237D01*
X84847676Y-92845237D02*
X84942914Y-92940475D01*
X84942914Y-92940475D02*
X84990533Y-93035713D01*
X98704819Y-138166666D02*
X98228628Y-138499999D01*
X98704819Y-138738094D02*
X97704819Y-138738094D01*
X97704819Y-138738094D02*
X97704819Y-138357142D01*
X97704819Y-138357142D02*
X97752438Y-138261904D01*
X97752438Y-138261904D02*
X97800057Y-138214285D01*
X97800057Y-138214285D02*
X97895295Y-138166666D01*
X97895295Y-138166666D02*
X98038152Y-138166666D01*
X98038152Y-138166666D02*
X98133390Y-138214285D01*
X98133390Y-138214285D02*
X98181009Y-138261904D01*
X98181009Y-138261904D02*
X98228628Y-138357142D01*
X98228628Y-138357142D02*
X98228628Y-138738094D01*
X98704819Y-137690475D02*
X98704819Y-137499999D01*
X98704819Y-137499999D02*
X98657200Y-137404761D01*
X98657200Y-137404761D02*
X98609580Y-137357142D01*
X98609580Y-137357142D02*
X98466723Y-137261904D01*
X98466723Y-137261904D02*
X98276247Y-137214285D01*
X98276247Y-137214285D02*
X97895295Y-137214285D01*
X97895295Y-137214285D02*
X97800057Y-137261904D01*
X97800057Y-137261904D02*
X97752438Y-137309523D01*
X97752438Y-137309523D02*
X97704819Y-137404761D01*
X97704819Y-137404761D02*
X97704819Y-137595237D01*
X97704819Y-137595237D02*
X97752438Y-137690475D01*
X97752438Y-137690475D02*
X97800057Y-137738094D01*
X97800057Y-137738094D02*
X97895295Y-137785713D01*
X97895295Y-137785713D02*
X98133390Y-137785713D01*
X98133390Y-137785713D02*
X98228628Y-137738094D01*
X98228628Y-137738094D02*
X98276247Y-137690475D01*
X98276247Y-137690475D02*
X98323866Y-137595237D01*
X98323866Y-137595237D02*
X98323866Y-137404761D01*
X98323866Y-137404761D02*
X98276247Y-137309523D01*
X98276247Y-137309523D02*
X98228628Y-137261904D01*
X98228628Y-137261904D02*
X98133390Y-137214285D01*
X103857142Y-95454819D02*
X103523809Y-94978628D01*
X103285714Y-95454819D02*
X103285714Y-94454819D01*
X103285714Y-94454819D02*
X103666666Y-94454819D01*
X103666666Y-94454819D02*
X103761904Y-94502438D01*
X103761904Y-94502438D02*
X103809523Y-94550057D01*
X103809523Y-94550057D02*
X103857142Y-94645295D01*
X103857142Y-94645295D02*
X103857142Y-94788152D01*
X103857142Y-94788152D02*
X103809523Y-94883390D01*
X103809523Y-94883390D02*
X103761904Y-94931009D01*
X103761904Y-94931009D02*
X103666666Y-94978628D01*
X103666666Y-94978628D02*
X103285714Y-94978628D01*
X104190476Y-94454819D02*
X104809523Y-94454819D01*
X104809523Y-94454819D02*
X104476190Y-94835771D01*
X104476190Y-94835771D02*
X104619047Y-94835771D01*
X104619047Y-94835771D02*
X104714285Y-94883390D01*
X104714285Y-94883390D02*
X104761904Y-94931009D01*
X104761904Y-94931009D02*
X104809523Y-95026247D01*
X104809523Y-95026247D02*
X104809523Y-95264342D01*
X104809523Y-95264342D02*
X104761904Y-95359580D01*
X104761904Y-95359580D02*
X104714285Y-95407200D01*
X104714285Y-95407200D02*
X104619047Y-95454819D01*
X104619047Y-95454819D02*
X104333333Y-95454819D01*
X104333333Y-95454819D02*
X104238095Y-95407200D01*
X104238095Y-95407200D02*
X104190476Y-95359580D01*
X105190476Y-94550057D02*
X105238095Y-94502438D01*
X105238095Y-94502438D02*
X105333333Y-94454819D01*
X105333333Y-94454819D02*
X105571428Y-94454819D01*
X105571428Y-94454819D02*
X105666666Y-94502438D01*
X105666666Y-94502438D02*
X105714285Y-94550057D01*
X105714285Y-94550057D02*
X105761904Y-94645295D01*
X105761904Y-94645295D02*
X105761904Y-94740533D01*
X105761904Y-94740533D02*
X105714285Y-94883390D01*
X105714285Y-94883390D02*
X105142857Y-95454819D01*
X105142857Y-95454819D02*
X105761904Y-95454819D01*
X53916667Y-129407200D02*
X54059524Y-129454819D01*
X54059524Y-129454819D02*
X54297619Y-129454819D01*
X54297619Y-129454819D02*
X54392857Y-129407200D01*
X54392857Y-129407200D02*
X54440476Y-129359580D01*
X54440476Y-129359580D02*
X54488095Y-129264342D01*
X54488095Y-129264342D02*
X54488095Y-129169104D01*
X54488095Y-129169104D02*
X54440476Y-129073866D01*
X54440476Y-129073866D02*
X54392857Y-129026247D01*
X54392857Y-129026247D02*
X54297619Y-128978628D01*
X54297619Y-128978628D02*
X54107143Y-128931009D01*
X54107143Y-128931009D02*
X54011905Y-128883390D01*
X54011905Y-128883390D02*
X53964286Y-128835771D01*
X53964286Y-128835771D02*
X53916667Y-128740533D01*
X53916667Y-128740533D02*
X53916667Y-128645295D01*
X53916667Y-128645295D02*
X53964286Y-128550057D01*
X53964286Y-128550057D02*
X54011905Y-128502438D01*
X54011905Y-128502438D02*
X54107143Y-128454819D01*
X54107143Y-128454819D02*
X54345238Y-128454819D01*
X54345238Y-128454819D02*
X54488095Y-128502438D01*
X54821429Y-128454819D02*
X55059524Y-129454819D01*
X55059524Y-129454819D02*
X55250000Y-128740533D01*
X55250000Y-128740533D02*
X55440476Y-129454819D01*
X55440476Y-129454819D02*
X55678572Y-128454819D01*
X56488095Y-128788152D02*
X56488095Y-129454819D01*
X56250000Y-128407200D02*
X56011905Y-129121485D01*
X56011905Y-129121485D02*
X56630952Y-129121485D01*
D11*
X61612019Y-127464285D02*
X61707257Y-127178571D01*
X61707257Y-127178571D02*
X61802495Y-127083333D01*
X61802495Y-127083333D02*
X61992971Y-126988095D01*
X61992971Y-126988095D02*
X62278685Y-126988095D01*
X62278685Y-126988095D02*
X62469161Y-127083333D01*
X62469161Y-127083333D02*
X62564400Y-127178571D01*
X62564400Y-127178571D02*
X62659638Y-127369047D01*
X62659638Y-127369047D02*
X62659638Y-128130952D01*
X62659638Y-128130952D02*
X60659638Y-128130952D01*
X60659638Y-128130952D02*
X60659638Y-127464285D01*
X60659638Y-127464285D02*
X60754876Y-127273809D01*
X60754876Y-127273809D02*
X60850114Y-127178571D01*
X60850114Y-127178571D02*
X61040590Y-127083333D01*
X61040590Y-127083333D02*
X61231066Y-127083333D01*
X61231066Y-127083333D02*
X61421542Y-127178571D01*
X61421542Y-127178571D02*
X61516780Y-127273809D01*
X61516780Y-127273809D02*
X61612019Y-127464285D01*
X61612019Y-127464285D02*
X61612019Y-128130952D01*
X60659638Y-125750000D02*
X60659638Y-125369047D01*
X60659638Y-125369047D02*
X60754876Y-125178571D01*
X60754876Y-125178571D02*
X60945352Y-124988095D01*
X60945352Y-124988095D02*
X61326304Y-124892857D01*
X61326304Y-124892857D02*
X61992971Y-124892857D01*
X61992971Y-124892857D02*
X62373923Y-124988095D01*
X62373923Y-124988095D02*
X62564400Y-125178571D01*
X62564400Y-125178571D02*
X62659638Y-125369047D01*
X62659638Y-125369047D02*
X62659638Y-125750000D01*
X62659638Y-125750000D02*
X62564400Y-125940476D01*
X62564400Y-125940476D02*
X62373923Y-126130952D01*
X62373923Y-126130952D02*
X61992971Y-126226190D01*
X61992971Y-126226190D02*
X61326304Y-126226190D01*
X61326304Y-126226190D02*
X60945352Y-126130952D01*
X60945352Y-126130952D02*
X60754876Y-125940476D01*
X60754876Y-125940476D02*
X60659638Y-125750000D01*
X60659638Y-123654762D02*
X60659638Y-123273809D01*
X60659638Y-123273809D02*
X60754876Y-123083333D01*
X60754876Y-123083333D02*
X60945352Y-122892857D01*
X60945352Y-122892857D02*
X61326304Y-122797619D01*
X61326304Y-122797619D02*
X61992971Y-122797619D01*
X61992971Y-122797619D02*
X62373923Y-122892857D01*
X62373923Y-122892857D02*
X62564400Y-123083333D01*
X62564400Y-123083333D02*
X62659638Y-123273809D01*
X62659638Y-123273809D02*
X62659638Y-123654762D01*
X62659638Y-123654762D02*
X62564400Y-123845238D01*
X62564400Y-123845238D02*
X62373923Y-124035714D01*
X62373923Y-124035714D02*
X61992971Y-124130952D01*
X61992971Y-124130952D02*
X61326304Y-124130952D01*
X61326304Y-124130952D02*
X60945352Y-124035714D01*
X60945352Y-124035714D02*
X60754876Y-123845238D01*
X60754876Y-123845238D02*
X60659638Y-123654762D01*
X60659638Y-122226190D02*
X60659638Y-121083333D01*
X62659638Y-121654762D02*
X60659638Y-121654762D01*
D10*
X55738095Y-115704819D02*
X55738095Y-116514342D01*
X55738095Y-116514342D02*
X55785714Y-116609580D01*
X55785714Y-116609580D02*
X55833333Y-116657200D01*
X55833333Y-116657200D02*
X55928571Y-116704819D01*
X55928571Y-116704819D02*
X56119047Y-116704819D01*
X56119047Y-116704819D02*
X56214285Y-116657200D01*
X56214285Y-116657200D02*
X56261904Y-116609580D01*
X56261904Y-116609580D02*
X56309523Y-116514342D01*
X56309523Y-116514342D02*
X56309523Y-115704819D01*
X57309523Y-116704819D02*
X56738095Y-116704819D01*
X57023809Y-116704819D02*
X57023809Y-115704819D01*
X57023809Y-115704819D02*
X56928571Y-115847676D01*
X56928571Y-115847676D02*
X56833333Y-115942914D01*
X56833333Y-115942914D02*
X56738095Y-115990533D01*
X80454819Y-83238094D02*
X79454819Y-83238094D01*
X79454819Y-83238094D02*
X79454819Y-82999999D01*
X79454819Y-82999999D02*
X79502438Y-82857142D01*
X79502438Y-82857142D02*
X79597676Y-82761904D01*
X79597676Y-82761904D02*
X79692914Y-82714285D01*
X79692914Y-82714285D02*
X79883390Y-82666666D01*
X79883390Y-82666666D02*
X80026247Y-82666666D01*
X80026247Y-82666666D02*
X80216723Y-82714285D01*
X80216723Y-82714285D02*
X80311961Y-82761904D01*
X80311961Y-82761904D02*
X80407200Y-82857142D01*
X80407200Y-82857142D02*
X80454819Y-82999999D01*
X80454819Y-82999999D02*
X80454819Y-83238094D01*
X79550057Y-82285713D02*
X79502438Y-82238094D01*
X79502438Y-82238094D02*
X79454819Y-82142856D01*
X79454819Y-82142856D02*
X79454819Y-81904761D01*
X79454819Y-81904761D02*
X79502438Y-81809523D01*
X79502438Y-81809523D02*
X79550057Y-81761904D01*
X79550057Y-81761904D02*
X79645295Y-81714285D01*
X79645295Y-81714285D02*
X79740533Y-81714285D01*
X79740533Y-81714285D02*
X79883390Y-81761904D01*
X79883390Y-81761904D02*
X80454819Y-82333332D01*
X80454819Y-82333332D02*
X80454819Y-81714285D01*
X95204819Y-119666666D02*
X94728628Y-119999999D01*
X95204819Y-120238094D02*
X94204819Y-120238094D01*
X94204819Y-120238094D02*
X94204819Y-119857142D01*
X94204819Y-119857142D02*
X94252438Y-119761904D01*
X94252438Y-119761904D02*
X94300057Y-119714285D01*
X94300057Y-119714285D02*
X94395295Y-119666666D01*
X94395295Y-119666666D02*
X94538152Y-119666666D01*
X94538152Y-119666666D02*
X94633390Y-119714285D01*
X94633390Y-119714285D02*
X94681009Y-119761904D01*
X94681009Y-119761904D02*
X94728628Y-119857142D01*
X94728628Y-119857142D02*
X94728628Y-120238094D01*
X94538152Y-118809523D02*
X95204819Y-118809523D01*
X94157200Y-119047618D02*
X94871485Y-119285713D01*
X94871485Y-119285713D02*
X94871485Y-118666666D01*
X126634819Y-131892857D02*
X126158628Y-132226190D01*
X126634819Y-132464285D02*
X125634819Y-132464285D01*
X125634819Y-132464285D02*
X125634819Y-132083333D01*
X125634819Y-132083333D02*
X125682438Y-131988095D01*
X125682438Y-131988095D02*
X125730057Y-131940476D01*
X125730057Y-131940476D02*
X125825295Y-131892857D01*
X125825295Y-131892857D02*
X125968152Y-131892857D01*
X125968152Y-131892857D02*
X126063390Y-131940476D01*
X126063390Y-131940476D02*
X126111009Y-131988095D01*
X126111009Y-131988095D02*
X126158628Y-132083333D01*
X126158628Y-132083333D02*
X126158628Y-132464285D01*
X126634819Y-130940476D02*
X126634819Y-131511904D01*
X126634819Y-131226190D02*
X125634819Y-131226190D01*
X125634819Y-131226190D02*
X125777676Y-131321428D01*
X125777676Y-131321428D02*
X125872914Y-131416666D01*
X125872914Y-131416666D02*
X125920533Y-131511904D01*
X125634819Y-130607142D02*
X125634819Y-129940476D01*
X125634819Y-129940476D02*
X126634819Y-130369047D01*
X87954819Y-130166666D02*
X87478628Y-130499999D01*
X87954819Y-130738094D02*
X86954819Y-130738094D01*
X86954819Y-130738094D02*
X86954819Y-130357142D01*
X86954819Y-130357142D02*
X87002438Y-130261904D01*
X87002438Y-130261904D02*
X87050057Y-130214285D01*
X87050057Y-130214285D02*
X87145295Y-130166666D01*
X87145295Y-130166666D02*
X87288152Y-130166666D01*
X87288152Y-130166666D02*
X87383390Y-130214285D01*
X87383390Y-130214285D02*
X87431009Y-130261904D01*
X87431009Y-130261904D02*
X87478628Y-130357142D01*
X87478628Y-130357142D02*
X87478628Y-130738094D01*
X86954819Y-129833332D02*
X86954819Y-129166666D01*
X86954819Y-129166666D02*
X87954819Y-129595237D01*
X89859580Y-119666666D02*
X89907200Y-119714285D01*
X89907200Y-119714285D02*
X89954819Y-119857142D01*
X89954819Y-119857142D02*
X89954819Y-119952380D01*
X89954819Y-119952380D02*
X89907200Y-120095237D01*
X89907200Y-120095237D02*
X89811961Y-120190475D01*
X89811961Y-120190475D02*
X89716723Y-120238094D01*
X89716723Y-120238094D02*
X89526247Y-120285713D01*
X89526247Y-120285713D02*
X89383390Y-120285713D01*
X89383390Y-120285713D02*
X89192914Y-120238094D01*
X89192914Y-120238094D02*
X89097676Y-120190475D01*
X89097676Y-120190475D02*
X89002438Y-120095237D01*
X89002438Y-120095237D02*
X88954819Y-119952380D01*
X88954819Y-119952380D02*
X88954819Y-119857142D01*
X88954819Y-119857142D02*
X89002438Y-119714285D01*
X89002438Y-119714285D02*
X89050057Y-119666666D01*
X89050057Y-119285713D02*
X89002438Y-119238094D01*
X89002438Y-119238094D02*
X88954819Y-119142856D01*
X88954819Y-119142856D02*
X88954819Y-118904761D01*
X88954819Y-118904761D02*
X89002438Y-118809523D01*
X89002438Y-118809523D02*
X89050057Y-118761904D01*
X89050057Y-118761904D02*
X89145295Y-118714285D01*
X89145295Y-118714285D02*
X89240533Y-118714285D01*
X89240533Y-118714285D02*
X89383390Y-118761904D01*
X89383390Y-118761904D02*
X89954819Y-119333332D01*
X89954819Y-119333332D02*
X89954819Y-118714285D01*
X131454819Y-128892857D02*
X130978628Y-129226190D01*
X131454819Y-129464285D02*
X130454819Y-129464285D01*
X130454819Y-129464285D02*
X130454819Y-129083333D01*
X130454819Y-129083333D02*
X130502438Y-128988095D01*
X130502438Y-128988095D02*
X130550057Y-128940476D01*
X130550057Y-128940476D02*
X130645295Y-128892857D01*
X130645295Y-128892857D02*
X130788152Y-128892857D01*
X130788152Y-128892857D02*
X130883390Y-128940476D01*
X130883390Y-128940476D02*
X130931009Y-128988095D01*
X130931009Y-128988095D02*
X130978628Y-129083333D01*
X130978628Y-129083333D02*
X130978628Y-129464285D01*
X131454819Y-127940476D02*
X131454819Y-128511904D01*
X131454819Y-128226190D02*
X130454819Y-128226190D01*
X130454819Y-128226190D02*
X130597676Y-128321428D01*
X130597676Y-128321428D02*
X130692914Y-128416666D01*
X130692914Y-128416666D02*
X130740533Y-128511904D01*
X130454819Y-127607142D02*
X130454819Y-126988095D01*
X130454819Y-126988095D02*
X130835771Y-127321428D01*
X130835771Y-127321428D02*
X130835771Y-127178571D01*
X130835771Y-127178571D02*
X130883390Y-127083333D01*
X130883390Y-127083333D02*
X130931009Y-127035714D01*
X130931009Y-127035714D02*
X131026247Y-126988095D01*
X131026247Y-126988095D02*
X131264342Y-126988095D01*
X131264342Y-126988095D02*
X131359580Y-127035714D01*
X131359580Y-127035714D02*
X131407200Y-127083333D01*
X131407200Y-127083333D02*
X131454819Y-127178571D01*
X131454819Y-127178571D02*
X131454819Y-127464285D01*
X131454819Y-127464285D02*
X131407200Y-127559523D01*
X131407200Y-127559523D02*
X131359580Y-127607142D01*
X113454819Y-121892857D02*
X112978628Y-122226190D01*
X113454819Y-122464285D02*
X112454819Y-122464285D01*
X112454819Y-122464285D02*
X112454819Y-122083333D01*
X112454819Y-122083333D02*
X112502438Y-121988095D01*
X112502438Y-121988095D02*
X112550057Y-121940476D01*
X112550057Y-121940476D02*
X112645295Y-121892857D01*
X112645295Y-121892857D02*
X112788152Y-121892857D01*
X112788152Y-121892857D02*
X112883390Y-121940476D01*
X112883390Y-121940476D02*
X112931009Y-121988095D01*
X112931009Y-121988095D02*
X112978628Y-122083333D01*
X112978628Y-122083333D02*
X112978628Y-122464285D01*
X113454819Y-120940476D02*
X113454819Y-121511904D01*
X113454819Y-121226190D02*
X112454819Y-121226190D01*
X112454819Y-121226190D02*
X112597676Y-121321428D01*
X112597676Y-121321428D02*
X112692914Y-121416666D01*
X112692914Y-121416666D02*
X112740533Y-121511904D01*
X112454819Y-120083333D02*
X112454819Y-120273809D01*
X112454819Y-120273809D02*
X112502438Y-120369047D01*
X112502438Y-120369047D02*
X112550057Y-120416666D01*
X112550057Y-120416666D02*
X112692914Y-120511904D01*
X112692914Y-120511904D02*
X112883390Y-120559523D01*
X112883390Y-120559523D02*
X113264342Y-120559523D01*
X113264342Y-120559523D02*
X113359580Y-120511904D01*
X113359580Y-120511904D02*
X113407200Y-120464285D01*
X113407200Y-120464285D02*
X113454819Y-120369047D01*
X113454819Y-120369047D02*
X113454819Y-120178571D01*
X113454819Y-120178571D02*
X113407200Y-120083333D01*
X113407200Y-120083333D02*
X113359580Y-120035714D01*
X113359580Y-120035714D02*
X113264342Y-119988095D01*
X113264342Y-119988095D02*
X113026247Y-119988095D01*
X113026247Y-119988095D02*
X112931009Y-120035714D01*
X112931009Y-120035714D02*
X112883390Y-120083333D01*
X112883390Y-120083333D02*
X112835771Y-120178571D01*
X112835771Y-120178571D02*
X112835771Y-120369047D01*
X112835771Y-120369047D02*
X112883390Y-120464285D01*
X112883390Y-120464285D02*
X112931009Y-120511904D01*
X112931009Y-120511904D02*
X113026247Y-120559523D01*
X100583333Y-131524819D02*
X100250000Y-131048628D01*
X100011905Y-131524819D02*
X100011905Y-130524819D01*
X100011905Y-130524819D02*
X100392857Y-130524819D01*
X100392857Y-130524819D02*
X100488095Y-130572438D01*
X100488095Y-130572438D02*
X100535714Y-130620057D01*
X100535714Y-130620057D02*
X100583333Y-130715295D01*
X100583333Y-130715295D02*
X100583333Y-130858152D01*
X100583333Y-130858152D02*
X100535714Y-130953390D01*
X100535714Y-130953390D02*
X100488095Y-131001009D01*
X100488095Y-131001009D02*
X100392857Y-131048628D01*
X100392857Y-131048628D02*
X100011905Y-131048628D01*
X101154762Y-130953390D02*
X101059524Y-130905771D01*
X101059524Y-130905771D02*
X101011905Y-130858152D01*
X101011905Y-130858152D02*
X100964286Y-130762914D01*
X100964286Y-130762914D02*
X100964286Y-130715295D01*
X100964286Y-130715295D02*
X101011905Y-130620057D01*
X101011905Y-130620057D02*
X101059524Y-130572438D01*
X101059524Y-130572438D02*
X101154762Y-130524819D01*
X101154762Y-130524819D02*
X101345238Y-130524819D01*
X101345238Y-130524819D02*
X101440476Y-130572438D01*
X101440476Y-130572438D02*
X101488095Y-130620057D01*
X101488095Y-130620057D02*
X101535714Y-130715295D01*
X101535714Y-130715295D02*
X101535714Y-130762914D01*
X101535714Y-130762914D02*
X101488095Y-130858152D01*
X101488095Y-130858152D02*
X101440476Y-130905771D01*
X101440476Y-130905771D02*
X101345238Y-130953390D01*
X101345238Y-130953390D02*
X101154762Y-130953390D01*
X101154762Y-130953390D02*
X101059524Y-131001009D01*
X101059524Y-131001009D02*
X101011905Y-131048628D01*
X101011905Y-131048628D02*
X100964286Y-131143866D01*
X100964286Y-131143866D02*
X100964286Y-131334342D01*
X100964286Y-131334342D02*
X101011905Y-131429580D01*
X101011905Y-131429580D02*
X101059524Y-131477200D01*
X101059524Y-131477200D02*
X101154762Y-131524819D01*
X101154762Y-131524819D02*
X101345238Y-131524819D01*
X101345238Y-131524819D02*
X101440476Y-131477200D01*
X101440476Y-131477200D02*
X101488095Y-131429580D01*
X101488095Y-131429580D02*
X101535714Y-131334342D01*
X101535714Y-131334342D02*
X101535714Y-131143866D01*
X101535714Y-131143866D02*
X101488095Y-131048628D01*
X101488095Y-131048628D02*
X101440476Y-131001009D01*
X101440476Y-131001009D02*
X101345238Y-130953390D01*
X93607142Y-141954819D02*
X93273809Y-141478628D01*
X93035714Y-141954819D02*
X93035714Y-140954819D01*
X93035714Y-140954819D02*
X93416666Y-140954819D01*
X93416666Y-140954819D02*
X93511904Y-141002438D01*
X93511904Y-141002438D02*
X93559523Y-141050057D01*
X93559523Y-141050057D02*
X93607142Y-141145295D01*
X93607142Y-141145295D02*
X93607142Y-141288152D01*
X93607142Y-141288152D02*
X93559523Y-141383390D01*
X93559523Y-141383390D02*
X93511904Y-141431009D01*
X93511904Y-141431009D02*
X93416666Y-141478628D01*
X93416666Y-141478628D02*
X93035714Y-141478628D01*
X94559523Y-141954819D02*
X93988095Y-141954819D01*
X94273809Y-141954819D02*
X94273809Y-140954819D01*
X94273809Y-140954819D02*
X94178571Y-141097676D01*
X94178571Y-141097676D02*
X94083333Y-141192914D01*
X94083333Y-141192914D02*
X93988095Y-141240533D01*
X95511904Y-141954819D02*
X94940476Y-141954819D01*
X95226190Y-141954819D02*
X95226190Y-140954819D01*
X95226190Y-140954819D02*
X95130952Y-141097676D01*
X95130952Y-141097676D02*
X95035714Y-141192914D01*
X95035714Y-141192914D02*
X94940476Y-141240533D01*
X92859580Y-92491666D02*
X92907200Y-92539285D01*
X92907200Y-92539285D02*
X92954819Y-92682142D01*
X92954819Y-92682142D02*
X92954819Y-92777380D01*
X92954819Y-92777380D02*
X92907200Y-92920237D01*
X92907200Y-92920237D02*
X92811961Y-93015475D01*
X92811961Y-93015475D02*
X92716723Y-93063094D01*
X92716723Y-93063094D02*
X92526247Y-93110713D01*
X92526247Y-93110713D02*
X92383390Y-93110713D01*
X92383390Y-93110713D02*
X92192914Y-93063094D01*
X92192914Y-93063094D02*
X92097676Y-93015475D01*
X92097676Y-93015475D02*
X92002438Y-92920237D01*
X92002438Y-92920237D02*
X91954819Y-92777380D01*
X91954819Y-92777380D02*
X91954819Y-92682142D01*
X91954819Y-92682142D02*
X92002438Y-92539285D01*
X92002438Y-92539285D02*
X92050057Y-92491666D01*
X91954819Y-92158332D02*
X91954819Y-91491666D01*
X91954819Y-91491666D02*
X92954819Y-91920237D01*
X55494642Y-131429580D02*
X55447023Y-131477200D01*
X55447023Y-131477200D02*
X55304166Y-131524819D01*
X55304166Y-131524819D02*
X55208928Y-131524819D01*
X55208928Y-131524819D02*
X55066071Y-131477200D01*
X55066071Y-131477200D02*
X54970833Y-131381961D01*
X54970833Y-131381961D02*
X54923214Y-131286723D01*
X54923214Y-131286723D02*
X54875595Y-131096247D01*
X54875595Y-131096247D02*
X54875595Y-130953390D01*
X54875595Y-130953390D02*
X54923214Y-130762914D01*
X54923214Y-130762914D02*
X54970833Y-130667676D01*
X54970833Y-130667676D02*
X55066071Y-130572438D01*
X55066071Y-130572438D02*
X55208928Y-130524819D01*
X55208928Y-130524819D02*
X55304166Y-130524819D01*
X55304166Y-130524819D02*
X55447023Y-130572438D01*
X55447023Y-130572438D02*
X55494642Y-130620057D01*
X56447023Y-131524819D02*
X55875595Y-131524819D01*
X56161309Y-131524819D02*
X56161309Y-130524819D01*
X56161309Y-130524819D02*
X56066071Y-130667676D01*
X56066071Y-130667676D02*
X55970833Y-130762914D01*
X55970833Y-130762914D02*
X55875595Y-130810533D01*
X56780357Y-130524819D02*
X57447023Y-130524819D01*
X57447023Y-130524819D02*
X57018452Y-131524819D01*
X139800057Y-141095238D02*
X139752438Y-141190476D01*
X139752438Y-141190476D02*
X139657200Y-141285714D01*
X139657200Y-141285714D02*
X139514342Y-141428571D01*
X139514342Y-141428571D02*
X139466723Y-141523809D01*
X139466723Y-141523809D02*
X139466723Y-141619047D01*
X139704819Y-141571428D02*
X139657200Y-141666666D01*
X139657200Y-141666666D02*
X139561961Y-141761904D01*
X139561961Y-141761904D02*
X139371485Y-141809523D01*
X139371485Y-141809523D02*
X139038152Y-141809523D01*
X139038152Y-141809523D02*
X138847676Y-141761904D01*
X138847676Y-141761904D02*
X138752438Y-141666666D01*
X138752438Y-141666666D02*
X138704819Y-141571428D01*
X138704819Y-141571428D02*
X138704819Y-141380952D01*
X138704819Y-141380952D02*
X138752438Y-141285714D01*
X138752438Y-141285714D02*
X138847676Y-141190476D01*
X138847676Y-141190476D02*
X139038152Y-141142857D01*
X139038152Y-141142857D02*
X139371485Y-141142857D01*
X139371485Y-141142857D02*
X139561961Y-141190476D01*
X139561961Y-141190476D02*
X139657200Y-141285714D01*
X139657200Y-141285714D02*
X139704819Y-141380952D01*
X139704819Y-141380952D02*
X139704819Y-141571428D01*
X138704819Y-140285714D02*
X138704819Y-140476190D01*
X138704819Y-140476190D02*
X138752438Y-140571428D01*
X138752438Y-140571428D02*
X138800057Y-140619047D01*
X138800057Y-140619047D02*
X138942914Y-140714285D01*
X138942914Y-140714285D02*
X139133390Y-140761904D01*
X139133390Y-140761904D02*
X139514342Y-140761904D01*
X139514342Y-140761904D02*
X139609580Y-140714285D01*
X139609580Y-140714285D02*
X139657200Y-140666666D01*
X139657200Y-140666666D02*
X139704819Y-140571428D01*
X139704819Y-140571428D02*
X139704819Y-140380952D01*
X139704819Y-140380952D02*
X139657200Y-140285714D01*
X139657200Y-140285714D02*
X139609580Y-140238095D01*
X139609580Y-140238095D02*
X139514342Y-140190476D01*
X139514342Y-140190476D02*
X139276247Y-140190476D01*
X139276247Y-140190476D02*
X139181009Y-140238095D01*
X139181009Y-140238095D02*
X139133390Y-140285714D01*
X139133390Y-140285714D02*
X139085771Y-140380952D01*
X139085771Y-140380952D02*
X139085771Y-140571428D01*
X139085771Y-140571428D02*
X139133390Y-140666666D01*
X139133390Y-140666666D02*
X139181009Y-140714285D01*
X139181009Y-140714285D02*
X139276247Y-140761904D01*
X93607142Y-143454819D02*
X93273809Y-142978628D01*
X93035714Y-143454819D02*
X93035714Y-142454819D01*
X93035714Y-142454819D02*
X93416666Y-142454819D01*
X93416666Y-142454819D02*
X93511904Y-142502438D01*
X93511904Y-142502438D02*
X93559523Y-142550057D01*
X93559523Y-142550057D02*
X93607142Y-142645295D01*
X93607142Y-142645295D02*
X93607142Y-142788152D01*
X93607142Y-142788152D02*
X93559523Y-142883390D01*
X93559523Y-142883390D02*
X93511904Y-142931009D01*
X93511904Y-142931009D02*
X93416666Y-142978628D01*
X93416666Y-142978628D02*
X93035714Y-142978628D01*
X94559523Y-143454819D02*
X93988095Y-143454819D01*
X94273809Y-143454819D02*
X94273809Y-142454819D01*
X94273809Y-142454819D02*
X94178571Y-142597676D01*
X94178571Y-142597676D02*
X94083333Y-142692914D01*
X94083333Y-142692914D02*
X93988095Y-142740533D01*
X94940476Y-142550057D02*
X94988095Y-142502438D01*
X94988095Y-142502438D02*
X95083333Y-142454819D01*
X95083333Y-142454819D02*
X95321428Y-142454819D01*
X95321428Y-142454819D02*
X95416666Y-142502438D01*
X95416666Y-142502438D02*
X95464285Y-142550057D01*
X95464285Y-142550057D02*
X95511904Y-142645295D01*
X95511904Y-142645295D02*
X95511904Y-142740533D01*
X95511904Y-142740533D02*
X95464285Y-142883390D01*
X95464285Y-142883390D02*
X94892857Y-143454819D01*
X94892857Y-143454819D02*
X95511904Y-143454819D01*
X92204819Y-100083333D02*
X92919104Y-100083333D01*
X92919104Y-100083333D02*
X93061961Y-100130952D01*
X93061961Y-100130952D02*
X93157200Y-100226190D01*
X93157200Y-100226190D02*
X93204819Y-100369047D01*
X93204819Y-100369047D02*
X93204819Y-100464285D01*
X93204819Y-99607142D02*
X92204819Y-99607142D01*
X92204819Y-99607142D02*
X92204819Y-99226190D01*
X92204819Y-99226190D02*
X92252438Y-99130952D01*
X92252438Y-99130952D02*
X92300057Y-99083333D01*
X92300057Y-99083333D02*
X92395295Y-99035714D01*
X92395295Y-99035714D02*
X92538152Y-99035714D01*
X92538152Y-99035714D02*
X92633390Y-99083333D01*
X92633390Y-99083333D02*
X92681009Y-99130952D01*
X92681009Y-99130952D02*
X92728628Y-99226190D01*
X92728628Y-99226190D02*
X92728628Y-99607142D01*
X93204819Y-98083333D02*
X93204819Y-98654761D01*
X93204819Y-98369047D02*
X92204819Y-98369047D01*
X92204819Y-98369047D02*
X92347676Y-98464285D01*
X92347676Y-98464285D02*
X92442914Y-98559523D01*
X92442914Y-98559523D02*
X92490533Y-98654761D01*
X103700057Y-142345238D02*
X103652438Y-142440476D01*
X103652438Y-142440476D02*
X103557200Y-142535714D01*
X103557200Y-142535714D02*
X103414342Y-142678571D01*
X103414342Y-142678571D02*
X103366723Y-142773809D01*
X103366723Y-142773809D02*
X103366723Y-142869047D01*
X103604819Y-142821428D02*
X103557200Y-142916666D01*
X103557200Y-142916666D02*
X103461961Y-143011904D01*
X103461961Y-143011904D02*
X103271485Y-143059523D01*
X103271485Y-143059523D02*
X102938152Y-143059523D01*
X102938152Y-143059523D02*
X102747676Y-143011904D01*
X102747676Y-143011904D02*
X102652438Y-142916666D01*
X102652438Y-142916666D02*
X102604819Y-142821428D01*
X102604819Y-142821428D02*
X102604819Y-142630952D01*
X102604819Y-142630952D02*
X102652438Y-142535714D01*
X102652438Y-142535714D02*
X102747676Y-142440476D01*
X102747676Y-142440476D02*
X102938152Y-142392857D01*
X102938152Y-142392857D02*
X103271485Y-142392857D01*
X103271485Y-142392857D02*
X103461961Y-142440476D01*
X103461961Y-142440476D02*
X103557200Y-142535714D01*
X103557200Y-142535714D02*
X103604819Y-142630952D01*
X103604819Y-142630952D02*
X103604819Y-142821428D01*
X103033390Y-141821428D02*
X102985771Y-141916666D01*
X102985771Y-141916666D02*
X102938152Y-141964285D01*
X102938152Y-141964285D02*
X102842914Y-142011904D01*
X102842914Y-142011904D02*
X102795295Y-142011904D01*
X102795295Y-142011904D02*
X102700057Y-141964285D01*
X102700057Y-141964285D02*
X102652438Y-141916666D01*
X102652438Y-141916666D02*
X102604819Y-141821428D01*
X102604819Y-141821428D02*
X102604819Y-141630952D01*
X102604819Y-141630952D02*
X102652438Y-141535714D01*
X102652438Y-141535714D02*
X102700057Y-141488095D01*
X102700057Y-141488095D02*
X102795295Y-141440476D01*
X102795295Y-141440476D02*
X102842914Y-141440476D01*
X102842914Y-141440476D02*
X102938152Y-141488095D01*
X102938152Y-141488095D02*
X102985771Y-141535714D01*
X102985771Y-141535714D02*
X103033390Y-141630952D01*
X103033390Y-141630952D02*
X103033390Y-141821428D01*
X103033390Y-141821428D02*
X103081009Y-141916666D01*
X103081009Y-141916666D02*
X103128628Y-141964285D01*
X103128628Y-141964285D02*
X103223866Y-142011904D01*
X103223866Y-142011904D02*
X103414342Y-142011904D01*
X103414342Y-142011904D02*
X103509580Y-141964285D01*
X103509580Y-141964285D02*
X103557200Y-141916666D01*
X103557200Y-141916666D02*
X103604819Y-141821428D01*
X103604819Y-141821428D02*
X103604819Y-141630952D01*
X103604819Y-141630952D02*
X103557200Y-141535714D01*
X103557200Y-141535714D02*
X103509580Y-141488095D01*
X103509580Y-141488095D02*
X103414342Y-141440476D01*
X103414342Y-141440476D02*
X103223866Y-141440476D01*
X103223866Y-141440476D02*
X103128628Y-141488095D01*
X103128628Y-141488095D02*
X103081009Y-141535714D01*
X103081009Y-141535714D02*
X103033390Y-141630952D01*
X104107199Y-77333332D02*
X104154818Y-77190475D01*
X104154818Y-77190475D02*
X104154818Y-76952380D01*
X104154818Y-76952380D02*
X104107199Y-76857142D01*
X104107199Y-76857142D02*
X104059579Y-76809523D01*
X104059579Y-76809523D02*
X103964341Y-76761904D01*
X103964341Y-76761904D02*
X103869103Y-76761904D01*
X103869103Y-76761904D02*
X103773865Y-76809523D01*
X103773865Y-76809523D02*
X103726246Y-76857142D01*
X103726246Y-76857142D02*
X103678627Y-76952380D01*
X103678627Y-76952380D02*
X103631008Y-77142856D01*
X103631008Y-77142856D02*
X103583389Y-77238094D01*
X103583389Y-77238094D02*
X103535770Y-77285713D01*
X103535770Y-77285713D02*
X103440532Y-77333332D01*
X103440532Y-77333332D02*
X103345294Y-77333332D01*
X103345294Y-77333332D02*
X103250056Y-77285713D01*
X103250056Y-77285713D02*
X103202437Y-77238094D01*
X103202437Y-77238094D02*
X103154818Y-77142856D01*
X103154818Y-77142856D02*
X103154818Y-76904761D01*
X103154818Y-76904761D02*
X103202437Y-76761904D01*
X103154818Y-76428570D02*
X104154818Y-76190475D01*
X104154818Y-76190475D02*
X103440532Y-75999999D01*
X103440532Y-75999999D02*
X104154818Y-75809523D01*
X104154818Y-75809523D02*
X103154818Y-75571428D01*
X103154818Y-75285713D02*
X103154818Y-74666666D01*
X103154818Y-74666666D02*
X103535770Y-74999999D01*
X103535770Y-74999999D02*
X103535770Y-74857142D01*
X103535770Y-74857142D02*
X103583389Y-74761904D01*
X103583389Y-74761904D02*
X103631008Y-74714285D01*
X103631008Y-74714285D02*
X103726246Y-74666666D01*
X103726246Y-74666666D02*
X103964341Y-74666666D01*
X103964341Y-74666666D02*
X104059579Y-74714285D01*
X104059579Y-74714285D02*
X104107199Y-74761904D01*
X104107199Y-74761904D02*
X104154818Y-74857142D01*
X104154818Y-74857142D02*
X104154818Y-75142856D01*
X104154818Y-75142856D02*
X104107199Y-75238094D01*
X104107199Y-75238094D02*
X104059579Y-75285713D01*
X64416666Y-90829819D02*
X64416666Y-91544104D01*
X64416666Y-91544104D02*
X64369047Y-91686961D01*
X64369047Y-91686961D02*
X64273809Y-91782200D01*
X64273809Y-91782200D02*
X64130952Y-91829819D01*
X64130952Y-91829819D02*
X64035714Y-91829819D01*
X65416666Y-91829819D02*
X64845238Y-91829819D01*
X65130952Y-91829819D02*
X65130952Y-90829819D01*
X65130952Y-90829819D02*
X65035714Y-90972676D01*
X65035714Y-90972676D02*
X64940476Y-91067914D01*
X64940476Y-91067914D02*
X64845238Y-91115533D01*
X140050057Y-146845238D02*
X140002438Y-146940476D01*
X140002438Y-146940476D02*
X139907200Y-147035714D01*
X139907200Y-147035714D02*
X139764342Y-147178571D01*
X139764342Y-147178571D02*
X139716723Y-147273809D01*
X139716723Y-147273809D02*
X139716723Y-147369047D01*
X139954819Y-147321428D02*
X139907200Y-147416666D01*
X139907200Y-147416666D02*
X139811961Y-147511904D01*
X139811961Y-147511904D02*
X139621485Y-147559523D01*
X139621485Y-147559523D02*
X139288152Y-147559523D01*
X139288152Y-147559523D02*
X139097676Y-147511904D01*
X139097676Y-147511904D02*
X139002438Y-147416666D01*
X139002438Y-147416666D02*
X138954819Y-147321428D01*
X138954819Y-147321428D02*
X138954819Y-147130952D01*
X138954819Y-147130952D02*
X139002438Y-147035714D01*
X139002438Y-147035714D02*
X139097676Y-146940476D01*
X139097676Y-146940476D02*
X139288152Y-146892857D01*
X139288152Y-146892857D02*
X139621485Y-146892857D01*
X139621485Y-146892857D02*
X139811961Y-146940476D01*
X139811961Y-146940476D02*
X139907200Y-147035714D01*
X139907200Y-147035714D02*
X139954819Y-147130952D01*
X139954819Y-147130952D02*
X139954819Y-147321428D01*
X138954819Y-146559523D02*
X138954819Y-145892857D01*
X138954819Y-145892857D02*
X139954819Y-146321428D01*
X144859580Y-129892857D02*
X144907200Y-129940476D01*
X144907200Y-129940476D02*
X144954819Y-130083333D01*
X144954819Y-130083333D02*
X144954819Y-130178571D01*
X144954819Y-130178571D02*
X144907200Y-130321428D01*
X144907200Y-130321428D02*
X144811961Y-130416666D01*
X144811961Y-130416666D02*
X144716723Y-130464285D01*
X144716723Y-130464285D02*
X144526247Y-130511904D01*
X144526247Y-130511904D02*
X144383390Y-130511904D01*
X144383390Y-130511904D02*
X144192914Y-130464285D01*
X144192914Y-130464285D02*
X144097676Y-130416666D01*
X144097676Y-130416666D02*
X144002438Y-130321428D01*
X144002438Y-130321428D02*
X143954819Y-130178571D01*
X143954819Y-130178571D02*
X143954819Y-130083333D01*
X143954819Y-130083333D02*
X144002438Y-129940476D01*
X144002438Y-129940476D02*
X144050057Y-129892857D01*
X144954819Y-128940476D02*
X144954819Y-129511904D01*
X144954819Y-129226190D02*
X143954819Y-129226190D01*
X143954819Y-129226190D02*
X144097676Y-129321428D01*
X144097676Y-129321428D02*
X144192914Y-129416666D01*
X144192914Y-129416666D02*
X144240533Y-129511904D01*
X143954819Y-128035714D02*
X143954819Y-128511904D01*
X143954819Y-128511904D02*
X144431009Y-128559523D01*
X144431009Y-128559523D02*
X144383390Y-128511904D01*
X144383390Y-128511904D02*
X144335771Y-128416666D01*
X144335771Y-128416666D02*
X144335771Y-128178571D01*
X144335771Y-128178571D02*
X144383390Y-128083333D01*
X144383390Y-128083333D02*
X144431009Y-128035714D01*
X144431009Y-128035714D02*
X144526247Y-127988095D01*
X144526247Y-127988095D02*
X144764342Y-127988095D01*
X144764342Y-127988095D02*
X144859580Y-128035714D01*
X144859580Y-128035714D02*
X144907200Y-128083333D01*
X144907200Y-128083333D02*
X144954819Y-128178571D01*
X144954819Y-128178571D02*
X144954819Y-128416666D01*
X144954819Y-128416666D02*
X144907200Y-128511904D01*
X144907200Y-128511904D02*
X144859580Y-128559523D01*
X86289580Y-126892857D02*
X86337200Y-126940476D01*
X86337200Y-126940476D02*
X86384819Y-127083333D01*
X86384819Y-127083333D02*
X86384819Y-127178571D01*
X86384819Y-127178571D02*
X86337200Y-127321428D01*
X86337200Y-127321428D02*
X86241961Y-127416666D01*
X86241961Y-127416666D02*
X86146723Y-127464285D01*
X86146723Y-127464285D02*
X85956247Y-127511904D01*
X85956247Y-127511904D02*
X85813390Y-127511904D01*
X85813390Y-127511904D02*
X85622914Y-127464285D01*
X85622914Y-127464285D02*
X85527676Y-127416666D01*
X85527676Y-127416666D02*
X85432438Y-127321428D01*
X85432438Y-127321428D02*
X85384819Y-127178571D01*
X85384819Y-127178571D02*
X85384819Y-127083333D01*
X85384819Y-127083333D02*
X85432438Y-126940476D01*
X85432438Y-126940476D02*
X85480057Y-126892857D01*
X86384819Y-125940476D02*
X86384819Y-126511904D01*
X86384819Y-126226190D02*
X85384819Y-126226190D01*
X85384819Y-126226190D02*
X85527676Y-126321428D01*
X85527676Y-126321428D02*
X85622914Y-126416666D01*
X85622914Y-126416666D02*
X85670533Y-126511904D01*
X85384819Y-125321428D02*
X85384819Y-125226190D01*
X85384819Y-125226190D02*
X85432438Y-125130952D01*
X85432438Y-125130952D02*
X85480057Y-125083333D01*
X85480057Y-125083333D02*
X85575295Y-125035714D01*
X85575295Y-125035714D02*
X85765771Y-124988095D01*
X85765771Y-124988095D02*
X86003866Y-124988095D01*
X86003866Y-124988095D02*
X86194342Y-125035714D01*
X86194342Y-125035714D02*
X86289580Y-125083333D01*
X86289580Y-125083333D02*
X86337200Y-125130952D01*
X86337200Y-125130952D02*
X86384819Y-125226190D01*
X86384819Y-125226190D02*
X86384819Y-125321428D01*
X86384819Y-125321428D02*
X86337200Y-125416666D01*
X86337200Y-125416666D02*
X86289580Y-125464285D01*
X86289580Y-125464285D02*
X86194342Y-125511904D01*
X86194342Y-125511904D02*
X86003866Y-125559523D01*
X86003866Y-125559523D02*
X85765771Y-125559523D01*
X85765771Y-125559523D02*
X85575295Y-125511904D01*
X85575295Y-125511904D02*
X85480057Y-125464285D01*
X85480057Y-125464285D02*
X85432438Y-125416666D01*
X85432438Y-125416666D02*
X85384819Y-125321428D01*
X55607142Y-119109580D02*
X55559523Y-119157200D01*
X55559523Y-119157200D02*
X55416666Y-119204819D01*
X55416666Y-119204819D02*
X55321428Y-119204819D01*
X55321428Y-119204819D02*
X55178571Y-119157200D01*
X55178571Y-119157200D02*
X55083333Y-119061961D01*
X55083333Y-119061961D02*
X55035714Y-118966723D01*
X55035714Y-118966723D02*
X54988095Y-118776247D01*
X54988095Y-118776247D02*
X54988095Y-118633390D01*
X54988095Y-118633390D02*
X55035714Y-118442914D01*
X55035714Y-118442914D02*
X55083333Y-118347676D01*
X55083333Y-118347676D02*
X55178571Y-118252438D01*
X55178571Y-118252438D02*
X55321428Y-118204819D01*
X55321428Y-118204819D02*
X55416666Y-118204819D01*
X55416666Y-118204819D02*
X55559523Y-118252438D01*
X55559523Y-118252438D02*
X55607142Y-118300057D01*
X56559523Y-119204819D02*
X55988095Y-119204819D01*
X56273809Y-119204819D02*
X56273809Y-118204819D01*
X56273809Y-118204819D02*
X56178571Y-118347676D01*
X56178571Y-118347676D02*
X56083333Y-118442914D01*
X56083333Y-118442914D02*
X55988095Y-118490533D01*
X57511904Y-119204819D02*
X56940476Y-119204819D01*
X57226190Y-119204819D02*
X57226190Y-118204819D01*
X57226190Y-118204819D02*
X57130952Y-118347676D01*
X57130952Y-118347676D02*
X57035714Y-118442914D01*
X57035714Y-118442914D02*
X56940476Y-118490533D01*
X55375595Y-136854819D02*
X55375595Y-137664342D01*
X55375595Y-137664342D02*
X55423214Y-137759580D01*
X55423214Y-137759580D02*
X55470833Y-137807200D01*
X55470833Y-137807200D02*
X55566071Y-137854819D01*
X55566071Y-137854819D02*
X55756547Y-137854819D01*
X55756547Y-137854819D02*
X55851785Y-137807200D01*
X55851785Y-137807200D02*
X55899404Y-137759580D01*
X55899404Y-137759580D02*
X55947023Y-137664342D01*
X55947023Y-137664342D02*
X55947023Y-136854819D01*
X56899404Y-136854819D02*
X56423214Y-136854819D01*
X56423214Y-136854819D02*
X56375595Y-137331009D01*
X56375595Y-137331009D02*
X56423214Y-137283390D01*
X56423214Y-137283390D02*
X56518452Y-137235771D01*
X56518452Y-137235771D02*
X56756547Y-137235771D01*
X56756547Y-137235771D02*
X56851785Y-137283390D01*
X56851785Y-137283390D02*
X56899404Y-137331009D01*
X56899404Y-137331009D02*
X56947023Y-137426247D01*
X56947023Y-137426247D02*
X56947023Y-137664342D01*
X56947023Y-137664342D02*
X56899404Y-137759580D01*
X56899404Y-137759580D02*
X56851785Y-137807200D01*
X56851785Y-137807200D02*
X56756547Y-137854819D01*
X56756547Y-137854819D02*
X56518452Y-137854819D01*
X56518452Y-137854819D02*
X56423214Y-137807200D01*
X56423214Y-137807200D02*
X56375595Y-137759580D01*
X87011905Y-114329819D02*
X87011905Y-113329819D01*
X87011905Y-113329819D02*
X87583333Y-114329819D01*
X87583333Y-114329819D02*
X87583333Y-113329819D01*
X88011905Y-114282200D02*
X88154762Y-114329819D01*
X88154762Y-114329819D02*
X88392857Y-114329819D01*
X88392857Y-114329819D02*
X88488095Y-114282200D01*
X88488095Y-114282200D02*
X88535714Y-114234580D01*
X88535714Y-114234580D02*
X88583333Y-114139342D01*
X88583333Y-114139342D02*
X88583333Y-114044104D01*
X88583333Y-114044104D02*
X88535714Y-113948866D01*
X88535714Y-113948866D02*
X88488095Y-113901247D01*
X88488095Y-113901247D02*
X88392857Y-113853628D01*
X88392857Y-113853628D02*
X88202381Y-113806009D01*
X88202381Y-113806009D02*
X88107143Y-113758390D01*
X88107143Y-113758390D02*
X88059524Y-113710771D01*
X88059524Y-113710771D02*
X88011905Y-113615533D01*
X88011905Y-113615533D02*
X88011905Y-113520295D01*
X88011905Y-113520295D02*
X88059524Y-113425057D01*
X88059524Y-113425057D02*
X88107143Y-113377438D01*
X88107143Y-113377438D02*
X88202381Y-113329819D01*
X88202381Y-113329819D02*
X88440476Y-113329819D01*
X88440476Y-113329819D02*
X88583333Y-113377438D01*
X89535714Y-114329819D02*
X88964286Y-114329819D01*
X89250000Y-114329819D02*
X89250000Y-113329819D01*
X89250000Y-113329819D02*
X89154762Y-113472676D01*
X89154762Y-113472676D02*
X89059524Y-113567914D01*
X89059524Y-113567914D02*
X88964286Y-113615533D01*
X89859580Y-139142857D02*
X89907200Y-139190476D01*
X89907200Y-139190476D02*
X89954819Y-139333333D01*
X89954819Y-139333333D02*
X89954819Y-139428571D01*
X89954819Y-139428571D02*
X89907200Y-139571428D01*
X89907200Y-139571428D02*
X89811961Y-139666666D01*
X89811961Y-139666666D02*
X89716723Y-139714285D01*
X89716723Y-139714285D02*
X89526247Y-139761904D01*
X89526247Y-139761904D02*
X89383390Y-139761904D01*
X89383390Y-139761904D02*
X89192914Y-139714285D01*
X89192914Y-139714285D02*
X89097676Y-139666666D01*
X89097676Y-139666666D02*
X89002438Y-139571428D01*
X89002438Y-139571428D02*
X88954819Y-139428571D01*
X88954819Y-139428571D02*
X88954819Y-139333333D01*
X88954819Y-139333333D02*
X89002438Y-139190476D01*
X89002438Y-139190476D02*
X89050057Y-139142857D01*
X89050057Y-138761904D02*
X89002438Y-138714285D01*
X89002438Y-138714285D02*
X88954819Y-138619047D01*
X88954819Y-138619047D02*
X88954819Y-138380952D01*
X88954819Y-138380952D02*
X89002438Y-138285714D01*
X89002438Y-138285714D02*
X89050057Y-138238095D01*
X89050057Y-138238095D02*
X89145295Y-138190476D01*
X89145295Y-138190476D02*
X89240533Y-138190476D01*
X89240533Y-138190476D02*
X89383390Y-138238095D01*
X89383390Y-138238095D02*
X89954819Y-138809523D01*
X89954819Y-138809523D02*
X89954819Y-138190476D01*
X88954819Y-137571428D02*
X88954819Y-137476190D01*
X88954819Y-137476190D02*
X89002438Y-137380952D01*
X89002438Y-137380952D02*
X89050057Y-137333333D01*
X89050057Y-137333333D02*
X89145295Y-137285714D01*
X89145295Y-137285714D02*
X89335771Y-137238095D01*
X89335771Y-137238095D02*
X89573866Y-137238095D01*
X89573866Y-137238095D02*
X89764342Y-137285714D01*
X89764342Y-137285714D02*
X89859580Y-137333333D01*
X89859580Y-137333333D02*
X89907200Y-137380952D01*
X89907200Y-137380952D02*
X89954819Y-137476190D01*
X89954819Y-137476190D02*
X89954819Y-137571428D01*
X89954819Y-137571428D02*
X89907200Y-137666666D01*
X89907200Y-137666666D02*
X89859580Y-137714285D01*
X89859580Y-137714285D02*
X89764342Y-137761904D01*
X89764342Y-137761904D02*
X89573866Y-137809523D01*
X89573866Y-137809523D02*
X89335771Y-137809523D01*
X89335771Y-137809523D02*
X89145295Y-137761904D01*
X89145295Y-137761904D02*
X89050057Y-137714285D01*
X89050057Y-137714285D02*
X89002438Y-137666666D01*
X89002438Y-137666666D02*
X88954819Y-137571428D01*
X111166667Y-118907200D02*
X111309524Y-118954819D01*
X111309524Y-118954819D02*
X111547619Y-118954819D01*
X111547619Y-118954819D02*
X111642857Y-118907200D01*
X111642857Y-118907200D02*
X111690476Y-118859580D01*
X111690476Y-118859580D02*
X111738095Y-118764342D01*
X111738095Y-118764342D02*
X111738095Y-118669104D01*
X111738095Y-118669104D02*
X111690476Y-118573866D01*
X111690476Y-118573866D02*
X111642857Y-118526247D01*
X111642857Y-118526247D02*
X111547619Y-118478628D01*
X111547619Y-118478628D02*
X111357143Y-118431009D01*
X111357143Y-118431009D02*
X111261905Y-118383390D01*
X111261905Y-118383390D02*
X111214286Y-118335771D01*
X111214286Y-118335771D02*
X111166667Y-118240533D01*
X111166667Y-118240533D02*
X111166667Y-118145295D01*
X111166667Y-118145295D02*
X111214286Y-118050057D01*
X111214286Y-118050057D02*
X111261905Y-118002438D01*
X111261905Y-118002438D02*
X111357143Y-117954819D01*
X111357143Y-117954819D02*
X111595238Y-117954819D01*
X111595238Y-117954819D02*
X111738095Y-118002438D01*
X112071429Y-117954819D02*
X112309524Y-118954819D01*
X112309524Y-118954819D02*
X112500000Y-118240533D01*
X112500000Y-118240533D02*
X112690476Y-118954819D01*
X112690476Y-118954819D02*
X112928572Y-117954819D01*
X113261905Y-118050057D02*
X113309524Y-118002438D01*
X113309524Y-118002438D02*
X113404762Y-117954819D01*
X113404762Y-117954819D02*
X113642857Y-117954819D01*
X113642857Y-117954819D02*
X113738095Y-118002438D01*
X113738095Y-118002438D02*
X113785714Y-118050057D01*
X113785714Y-118050057D02*
X113833333Y-118145295D01*
X113833333Y-118145295D02*
X113833333Y-118240533D01*
X113833333Y-118240533D02*
X113785714Y-118383390D01*
X113785714Y-118383390D02*
X113214286Y-118954819D01*
X113214286Y-118954819D02*
X113833333Y-118954819D01*
X78704819Y-99142857D02*
X78228628Y-99476190D01*
X78704819Y-99714285D02*
X77704819Y-99714285D01*
X77704819Y-99714285D02*
X77704819Y-99333333D01*
X77704819Y-99333333D02*
X77752438Y-99238095D01*
X77752438Y-99238095D02*
X77800057Y-99190476D01*
X77800057Y-99190476D02*
X77895295Y-99142857D01*
X77895295Y-99142857D02*
X78038152Y-99142857D01*
X78038152Y-99142857D02*
X78133390Y-99190476D01*
X78133390Y-99190476D02*
X78181009Y-99238095D01*
X78181009Y-99238095D02*
X78228628Y-99333333D01*
X78228628Y-99333333D02*
X78228628Y-99714285D01*
X77800057Y-98761904D02*
X77752438Y-98714285D01*
X77752438Y-98714285D02*
X77704819Y-98619047D01*
X77704819Y-98619047D02*
X77704819Y-98380952D01*
X77704819Y-98380952D02*
X77752438Y-98285714D01*
X77752438Y-98285714D02*
X77800057Y-98238095D01*
X77800057Y-98238095D02*
X77895295Y-98190476D01*
X77895295Y-98190476D02*
X77990533Y-98190476D01*
X77990533Y-98190476D02*
X78133390Y-98238095D01*
X78133390Y-98238095D02*
X78704819Y-98809523D01*
X78704819Y-98809523D02*
X78704819Y-98190476D01*
X78704819Y-97238095D02*
X78704819Y-97809523D01*
X78704819Y-97523809D02*
X77704819Y-97523809D01*
X77704819Y-97523809D02*
X77847676Y-97619047D01*
X77847676Y-97619047D02*
X77942914Y-97714285D01*
X77942914Y-97714285D02*
X77990533Y-97809523D01*
X116954819Y-124261904D02*
X117764342Y-124261904D01*
X117764342Y-124261904D02*
X117859580Y-124214285D01*
X117859580Y-124214285D02*
X117907200Y-124166666D01*
X117907200Y-124166666D02*
X117954819Y-124071428D01*
X117954819Y-124071428D02*
X117954819Y-123880952D01*
X117954819Y-123880952D02*
X117907200Y-123785714D01*
X117907200Y-123785714D02*
X117859580Y-123738095D01*
X117859580Y-123738095D02*
X117764342Y-123690476D01*
X117764342Y-123690476D02*
X116954819Y-123690476D01*
X117288152Y-122785714D02*
X117954819Y-122785714D01*
X116907200Y-123023809D02*
X117621485Y-123261904D01*
X117621485Y-123261904D02*
X117621485Y-122642857D01*
X88609580Y-142892857D02*
X88657200Y-142940476D01*
X88657200Y-142940476D02*
X88704819Y-143083333D01*
X88704819Y-143083333D02*
X88704819Y-143178571D01*
X88704819Y-143178571D02*
X88657200Y-143321428D01*
X88657200Y-143321428D02*
X88561961Y-143416666D01*
X88561961Y-143416666D02*
X88466723Y-143464285D01*
X88466723Y-143464285D02*
X88276247Y-143511904D01*
X88276247Y-143511904D02*
X88133390Y-143511904D01*
X88133390Y-143511904D02*
X87942914Y-143464285D01*
X87942914Y-143464285D02*
X87847676Y-143416666D01*
X87847676Y-143416666D02*
X87752438Y-143321428D01*
X87752438Y-143321428D02*
X87704819Y-143178571D01*
X87704819Y-143178571D02*
X87704819Y-143083333D01*
X87704819Y-143083333D02*
X87752438Y-142940476D01*
X87752438Y-142940476D02*
X87800057Y-142892857D01*
X88704819Y-141940476D02*
X88704819Y-142511904D01*
X88704819Y-142226190D02*
X87704819Y-142226190D01*
X87704819Y-142226190D02*
X87847676Y-142321428D01*
X87847676Y-142321428D02*
X87942914Y-142416666D01*
X87942914Y-142416666D02*
X87990533Y-142511904D01*
X88704819Y-141464285D02*
X88704819Y-141273809D01*
X88704819Y-141273809D02*
X88657200Y-141178571D01*
X88657200Y-141178571D02*
X88609580Y-141130952D01*
X88609580Y-141130952D02*
X88466723Y-141035714D01*
X88466723Y-141035714D02*
X88276247Y-140988095D01*
X88276247Y-140988095D02*
X87895295Y-140988095D01*
X87895295Y-140988095D02*
X87800057Y-141035714D01*
X87800057Y-141035714D02*
X87752438Y-141083333D01*
X87752438Y-141083333D02*
X87704819Y-141178571D01*
X87704819Y-141178571D02*
X87704819Y-141369047D01*
X87704819Y-141369047D02*
X87752438Y-141464285D01*
X87752438Y-141464285D02*
X87800057Y-141511904D01*
X87800057Y-141511904D02*
X87895295Y-141559523D01*
X87895295Y-141559523D02*
X88133390Y-141559523D01*
X88133390Y-141559523D02*
X88228628Y-141511904D01*
X88228628Y-141511904D02*
X88276247Y-141464285D01*
X88276247Y-141464285D02*
X88323866Y-141369047D01*
X88323866Y-141369047D02*
X88323866Y-141178571D01*
X88323866Y-141178571D02*
X88276247Y-141083333D01*
X88276247Y-141083333D02*
X88228628Y-141035714D01*
X88228628Y-141035714D02*
X88133390Y-140988095D01*
X96333333Y-99859580D02*
X96285714Y-99907200D01*
X96285714Y-99907200D02*
X96142857Y-99954819D01*
X96142857Y-99954819D02*
X96047619Y-99954819D01*
X96047619Y-99954819D02*
X95904762Y-99907200D01*
X95904762Y-99907200D02*
X95809524Y-99811961D01*
X95809524Y-99811961D02*
X95761905Y-99716723D01*
X95761905Y-99716723D02*
X95714286Y-99526247D01*
X95714286Y-99526247D02*
X95714286Y-99383390D01*
X95714286Y-99383390D02*
X95761905Y-99192914D01*
X95761905Y-99192914D02*
X95809524Y-99097676D01*
X95809524Y-99097676D02*
X95904762Y-99002438D01*
X95904762Y-99002438D02*
X96047619Y-98954819D01*
X96047619Y-98954819D02*
X96142857Y-98954819D01*
X96142857Y-98954819D02*
X96285714Y-99002438D01*
X96285714Y-99002438D02*
X96333333Y-99050057D01*
X97190476Y-98954819D02*
X97000000Y-98954819D01*
X97000000Y-98954819D02*
X96904762Y-99002438D01*
X96904762Y-99002438D02*
X96857143Y-99050057D01*
X96857143Y-99050057D02*
X96761905Y-99192914D01*
X96761905Y-99192914D02*
X96714286Y-99383390D01*
X96714286Y-99383390D02*
X96714286Y-99764342D01*
X96714286Y-99764342D02*
X96761905Y-99859580D01*
X96761905Y-99859580D02*
X96809524Y-99907200D01*
X96809524Y-99907200D02*
X96904762Y-99954819D01*
X96904762Y-99954819D02*
X97095238Y-99954819D01*
X97095238Y-99954819D02*
X97190476Y-99907200D01*
X97190476Y-99907200D02*
X97238095Y-99859580D01*
X97238095Y-99859580D02*
X97285714Y-99764342D01*
X97285714Y-99764342D02*
X97285714Y-99526247D01*
X97285714Y-99526247D02*
X97238095Y-99431009D01*
X97238095Y-99431009D02*
X97190476Y-99383390D01*
X97190476Y-99383390D02*
X97095238Y-99335771D01*
X97095238Y-99335771D02*
X96904762Y-99335771D01*
X96904762Y-99335771D02*
X96809524Y-99383390D01*
X96809524Y-99383390D02*
X96761905Y-99431009D01*
X96761905Y-99431009D02*
X96714286Y-99526247D01*
X91359580Y-130142857D02*
X91407200Y-130190476D01*
X91407200Y-130190476D02*
X91454819Y-130333333D01*
X91454819Y-130333333D02*
X91454819Y-130428571D01*
X91454819Y-130428571D02*
X91407200Y-130571428D01*
X91407200Y-130571428D02*
X91311961Y-130666666D01*
X91311961Y-130666666D02*
X91216723Y-130714285D01*
X91216723Y-130714285D02*
X91026247Y-130761904D01*
X91026247Y-130761904D02*
X90883390Y-130761904D01*
X90883390Y-130761904D02*
X90692914Y-130714285D01*
X90692914Y-130714285D02*
X90597676Y-130666666D01*
X90597676Y-130666666D02*
X90502438Y-130571428D01*
X90502438Y-130571428D02*
X90454819Y-130428571D01*
X90454819Y-130428571D02*
X90454819Y-130333333D01*
X90454819Y-130333333D02*
X90502438Y-130190476D01*
X90502438Y-130190476D02*
X90550057Y-130142857D01*
X91454819Y-129190476D02*
X91454819Y-129761904D01*
X91454819Y-129476190D02*
X90454819Y-129476190D01*
X90454819Y-129476190D02*
X90597676Y-129571428D01*
X90597676Y-129571428D02*
X90692914Y-129666666D01*
X90692914Y-129666666D02*
X90740533Y-129761904D01*
X90454819Y-128333333D02*
X90454819Y-128523809D01*
X90454819Y-128523809D02*
X90502438Y-128619047D01*
X90502438Y-128619047D02*
X90550057Y-128666666D01*
X90550057Y-128666666D02*
X90692914Y-128761904D01*
X90692914Y-128761904D02*
X90883390Y-128809523D01*
X90883390Y-128809523D02*
X91264342Y-128809523D01*
X91264342Y-128809523D02*
X91359580Y-128761904D01*
X91359580Y-128761904D02*
X91407200Y-128714285D01*
X91407200Y-128714285D02*
X91454819Y-128619047D01*
X91454819Y-128619047D02*
X91454819Y-128428571D01*
X91454819Y-128428571D02*
X91407200Y-128333333D01*
X91407200Y-128333333D02*
X91359580Y-128285714D01*
X91359580Y-128285714D02*
X91264342Y-128238095D01*
X91264342Y-128238095D02*
X91026247Y-128238095D01*
X91026247Y-128238095D02*
X90931009Y-128285714D01*
X90931009Y-128285714D02*
X90883390Y-128333333D01*
X90883390Y-128333333D02*
X90835771Y-128428571D01*
X90835771Y-128428571D02*
X90835771Y-128619047D01*
X90835771Y-128619047D02*
X90883390Y-128714285D01*
X90883390Y-128714285D02*
X90931009Y-128761904D01*
X90931009Y-128761904D02*
X91026247Y-128809523D01*
X94774819Y-88392857D02*
X94298628Y-88726190D01*
X94774819Y-88964285D02*
X93774819Y-88964285D01*
X93774819Y-88964285D02*
X93774819Y-88583333D01*
X93774819Y-88583333D02*
X93822438Y-88488095D01*
X93822438Y-88488095D02*
X93870057Y-88440476D01*
X93870057Y-88440476D02*
X93965295Y-88392857D01*
X93965295Y-88392857D02*
X94108152Y-88392857D01*
X94108152Y-88392857D02*
X94203390Y-88440476D01*
X94203390Y-88440476D02*
X94251009Y-88488095D01*
X94251009Y-88488095D02*
X94298628Y-88583333D01*
X94298628Y-88583333D02*
X94298628Y-88964285D01*
X93774819Y-88059523D02*
X93774819Y-87440476D01*
X93774819Y-87440476D02*
X94155771Y-87773809D01*
X94155771Y-87773809D02*
X94155771Y-87630952D01*
X94155771Y-87630952D02*
X94203390Y-87535714D01*
X94203390Y-87535714D02*
X94251009Y-87488095D01*
X94251009Y-87488095D02*
X94346247Y-87440476D01*
X94346247Y-87440476D02*
X94584342Y-87440476D01*
X94584342Y-87440476D02*
X94679580Y-87488095D01*
X94679580Y-87488095D02*
X94727200Y-87535714D01*
X94727200Y-87535714D02*
X94774819Y-87630952D01*
X94774819Y-87630952D02*
X94774819Y-87916666D01*
X94774819Y-87916666D02*
X94727200Y-88011904D01*
X94727200Y-88011904D02*
X94679580Y-88059523D01*
X94774819Y-86488095D02*
X94774819Y-87059523D01*
X94774819Y-86773809D02*
X93774819Y-86773809D01*
X93774819Y-86773809D02*
X93917676Y-86869047D01*
X93917676Y-86869047D02*
X94012914Y-86964285D01*
X94012914Y-86964285D02*
X94060533Y-87059523D01*
X97654761Y-135800057D02*
X97559523Y-135752438D01*
X97559523Y-135752438D02*
X97464285Y-135657200D01*
X97464285Y-135657200D02*
X97321428Y-135514342D01*
X97321428Y-135514342D02*
X97226190Y-135466723D01*
X97226190Y-135466723D02*
X97130952Y-135466723D01*
X97178571Y-135704819D02*
X97083333Y-135657200D01*
X97083333Y-135657200D02*
X96988095Y-135561961D01*
X96988095Y-135561961D02*
X96940476Y-135371485D01*
X96940476Y-135371485D02*
X96940476Y-135038152D01*
X96940476Y-135038152D02*
X96988095Y-134847676D01*
X96988095Y-134847676D02*
X97083333Y-134752438D01*
X97083333Y-134752438D02*
X97178571Y-134704819D01*
X97178571Y-134704819D02*
X97369047Y-134704819D01*
X97369047Y-134704819D02*
X97464285Y-134752438D01*
X97464285Y-134752438D02*
X97559523Y-134847676D01*
X97559523Y-134847676D02*
X97607142Y-135038152D01*
X97607142Y-135038152D02*
X97607142Y-135371485D01*
X97607142Y-135371485D02*
X97559523Y-135561961D01*
X97559523Y-135561961D02*
X97464285Y-135657200D01*
X97464285Y-135657200D02*
X97369047Y-135704819D01*
X97369047Y-135704819D02*
X97178571Y-135704819D01*
X98559523Y-135704819D02*
X97988095Y-135704819D01*
X98273809Y-135704819D02*
X98273809Y-134704819D01*
X98273809Y-134704819D02*
X98178571Y-134847676D01*
X98178571Y-134847676D02*
X98083333Y-134942914D01*
X98083333Y-134942914D02*
X97988095Y-134990533D01*
X80454819Y-99142857D02*
X79978628Y-99476190D01*
X80454819Y-99714285D02*
X79454819Y-99714285D01*
X79454819Y-99714285D02*
X79454819Y-99333333D01*
X79454819Y-99333333D02*
X79502438Y-99238095D01*
X79502438Y-99238095D02*
X79550057Y-99190476D01*
X79550057Y-99190476D02*
X79645295Y-99142857D01*
X79645295Y-99142857D02*
X79788152Y-99142857D01*
X79788152Y-99142857D02*
X79883390Y-99190476D01*
X79883390Y-99190476D02*
X79931009Y-99238095D01*
X79931009Y-99238095D02*
X79978628Y-99333333D01*
X79978628Y-99333333D02*
X79978628Y-99714285D01*
X79550057Y-98761904D02*
X79502438Y-98714285D01*
X79502438Y-98714285D02*
X79454819Y-98619047D01*
X79454819Y-98619047D02*
X79454819Y-98380952D01*
X79454819Y-98380952D02*
X79502438Y-98285714D01*
X79502438Y-98285714D02*
X79550057Y-98238095D01*
X79550057Y-98238095D02*
X79645295Y-98190476D01*
X79645295Y-98190476D02*
X79740533Y-98190476D01*
X79740533Y-98190476D02*
X79883390Y-98238095D01*
X79883390Y-98238095D02*
X80454819Y-98809523D01*
X80454819Y-98809523D02*
X80454819Y-98190476D01*
X79454819Y-97571428D02*
X79454819Y-97476190D01*
X79454819Y-97476190D02*
X79502438Y-97380952D01*
X79502438Y-97380952D02*
X79550057Y-97333333D01*
X79550057Y-97333333D02*
X79645295Y-97285714D01*
X79645295Y-97285714D02*
X79835771Y-97238095D01*
X79835771Y-97238095D02*
X80073866Y-97238095D01*
X80073866Y-97238095D02*
X80264342Y-97285714D01*
X80264342Y-97285714D02*
X80359580Y-97333333D01*
X80359580Y-97333333D02*
X80407200Y-97380952D01*
X80407200Y-97380952D02*
X80454819Y-97476190D01*
X80454819Y-97476190D02*
X80454819Y-97571428D01*
X80454819Y-97571428D02*
X80407200Y-97666666D01*
X80407200Y-97666666D02*
X80359580Y-97714285D01*
X80359580Y-97714285D02*
X80264342Y-97761904D01*
X80264342Y-97761904D02*
X80073866Y-97809523D01*
X80073866Y-97809523D02*
X79835771Y-97809523D01*
X79835771Y-97809523D02*
X79645295Y-97761904D01*
X79645295Y-97761904D02*
X79550057Y-97714285D01*
X79550057Y-97714285D02*
X79502438Y-97666666D01*
X79502438Y-97666666D02*
X79454819Y-97571428D01*
X100454819Y-119666666D02*
X99978628Y-119999999D01*
X100454819Y-120238094D02*
X99454819Y-120238094D01*
X99454819Y-120238094D02*
X99454819Y-119857142D01*
X99454819Y-119857142D02*
X99502438Y-119761904D01*
X99502438Y-119761904D02*
X99550057Y-119714285D01*
X99550057Y-119714285D02*
X99645295Y-119666666D01*
X99645295Y-119666666D02*
X99788152Y-119666666D01*
X99788152Y-119666666D02*
X99883390Y-119714285D01*
X99883390Y-119714285D02*
X99931009Y-119761904D01*
X99931009Y-119761904D02*
X99978628Y-119857142D01*
X99978628Y-119857142D02*
X99978628Y-120238094D01*
X99454819Y-119333332D02*
X99454819Y-118714285D01*
X99454819Y-118714285D02*
X99835771Y-119047618D01*
X99835771Y-119047618D02*
X99835771Y-118904761D01*
X99835771Y-118904761D02*
X99883390Y-118809523D01*
X99883390Y-118809523D02*
X99931009Y-118761904D01*
X99931009Y-118761904D02*
X100026247Y-118714285D01*
X100026247Y-118714285D02*
X100264342Y-118714285D01*
X100264342Y-118714285D02*
X100359580Y-118761904D01*
X100359580Y-118761904D02*
X100407200Y-118809523D01*
X100407200Y-118809523D02*
X100454819Y-118904761D01*
X100454819Y-118904761D02*
X100454819Y-119190475D01*
X100454819Y-119190475D02*
X100407200Y-119285713D01*
X100407200Y-119285713D02*
X100359580Y-119333332D01*
X88204819Y-119666666D02*
X87728628Y-119999999D01*
X88204819Y-120238094D02*
X87204819Y-120238094D01*
X87204819Y-120238094D02*
X87204819Y-119857142D01*
X87204819Y-119857142D02*
X87252438Y-119761904D01*
X87252438Y-119761904D02*
X87300057Y-119714285D01*
X87300057Y-119714285D02*
X87395295Y-119666666D01*
X87395295Y-119666666D02*
X87538152Y-119666666D01*
X87538152Y-119666666D02*
X87633390Y-119714285D01*
X87633390Y-119714285D02*
X87681009Y-119761904D01*
X87681009Y-119761904D02*
X87728628Y-119857142D01*
X87728628Y-119857142D02*
X87728628Y-120238094D01*
X88204819Y-118714285D02*
X88204819Y-119285713D01*
X88204819Y-118999999D02*
X87204819Y-118999999D01*
X87204819Y-118999999D02*
X87347676Y-119095237D01*
X87347676Y-119095237D02*
X87442914Y-119190475D01*
X87442914Y-119190475D02*
X87490533Y-119285713D01*
X83704819Y-90892857D02*
X83228628Y-91226190D01*
X83704819Y-91464285D02*
X82704819Y-91464285D01*
X82704819Y-91464285D02*
X82704819Y-91083333D01*
X82704819Y-91083333D02*
X82752438Y-90988095D01*
X82752438Y-90988095D02*
X82800057Y-90940476D01*
X82800057Y-90940476D02*
X82895295Y-90892857D01*
X82895295Y-90892857D02*
X83038152Y-90892857D01*
X83038152Y-90892857D02*
X83133390Y-90940476D01*
X83133390Y-90940476D02*
X83181009Y-90988095D01*
X83181009Y-90988095D02*
X83228628Y-91083333D01*
X83228628Y-91083333D02*
X83228628Y-91464285D01*
X82800057Y-90511904D02*
X82752438Y-90464285D01*
X82752438Y-90464285D02*
X82704819Y-90369047D01*
X82704819Y-90369047D02*
X82704819Y-90130952D01*
X82704819Y-90130952D02*
X82752438Y-90035714D01*
X82752438Y-90035714D02*
X82800057Y-89988095D01*
X82800057Y-89988095D02*
X82895295Y-89940476D01*
X82895295Y-89940476D02*
X82990533Y-89940476D01*
X82990533Y-89940476D02*
X83133390Y-89988095D01*
X83133390Y-89988095D02*
X83704819Y-90559523D01*
X83704819Y-90559523D02*
X83704819Y-89940476D01*
X82704819Y-89083333D02*
X82704819Y-89273809D01*
X82704819Y-89273809D02*
X82752438Y-89369047D01*
X82752438Y-89369047D02*
X82800057Y-89416666D01*
X82800057Y-89416666D02*
X82942914Y-89511904D01*
X82942914Y-89511904D02*
X83133390Y-89559523D01*
X83133390Y-89559523D02*
X83514342Y-89559523D01*
X83514342Y-89559523D02*
X83609580Y-89511904D01*
X83609580Y-89511904D02*
X83657200Y-89464285D01*
X83657200Y-89464285D02*
X83704819Y-89369047D01*
X83704819Y-89369047D02*
X83704819Y-89178571D01*
X83704819Y-89178571D02*
X83657200Y-89083333D01*
X83657200Y-89083333D02*
X83609580Y-89035714D01*
X83609580Y-89035714D02*
X83514342Y-88988095D01*
X83514342Y-88988095D02*
X83276247Y-88988095D01*
X83276247Y-88988095D02*
X83181009Y-89035714D01*
X83181009Y-89035714D02*
X83133390Y-89083333D01*
X83133390Y-89083333D02*
X83085771Y-89178571D01*
X83085771Y-89178571D02*
X83085771Y-89369047D01*
X83085771Y-89369047D02*
X83133390Y-89464285D01*
X83133390Y-89464285D02*
X83181009Y-89511904D01*
X83181009Y-89511904D02*
X83276247Y-89559523D01*
X131704819Y-140642857D02*
X131228628Y-140976190D01*
X131704819Y-141214285D02*
X130704819Y-141214285D01*
X130704819Y-141214285D02*
X130704819Y-140833333D01*
X130704819Y-140833333D02*
X130752438Y-140738095D01*
X130752438Y-140738095D02*
X130800057Y-140690476D01*
X130800057Y-140690476D02*
X130895295Y-140642857D01*
X130895295Y-140642857D02*
X131038152Y-140642857D01*
X131038152Y-140642857D02*
X131133390Y-140690476D01*
X131133390Y-140690476D02*
X131181009Y-140738095D01*
X131181009Y-140738095D02*
X131228628Y-140833333D01*
X131228628Y-140833333D02*
X131228628Y-141214285D01*
X131704819Y-139690476D02*
X131704819Y-140261904D01*
X131704819Y-139976190D02*
X130704819Y-139976190D01*
X130704819Y-139976190D02*
X130847676Y-140071428D01*
X130847676Y-140071428D02*
X130942914Y-140166666D01*
X130942914Y-140166666D02*
X130990533Y-140261904D01*
X131038152Y-138833333D02*
X131704819Y-138833333D01*
X130657200Y-139071428D02*
X131371485Y-139309523D01*
X131371485Y-139309523D02*
X131371485Y-138690476D01*
X86204819Y-83238094D02*
X85204819Y-83238094D01*
X85204819Y-83238094D02*
X85204819Y-82999999D01*
X85204819Y-82999999D02*
X85252438Y-82857142D01*
X85252438Y-82857142D02*
X85347676Y-82761904D01*
X85347676Y-82761904D02*
X85442914Y-82714285D01*
X85442914Y-82714285D02*
X85633390Y-82666666D01*
X85633390Y-82666666D02*
X85776247Y-82666666D01*
X85776247Y-82666666D02*
X85966723Y-82714285D01*
X85966723Y-82714285D02*
X86061961Y-82761904D01*
X86061961Y-82761904D02*
X86157200Y-82857142D01*
X86157200Y-82857142D02*
X86204819Y-82999999D01*
X86204819Y-82999999D02*
X86204819Y-83238094D01*
X85204819Y-82333332D02*
X85204819Y-81714285D01*
X85204819Y-81714285D02*
X85585771Y-82047618D01*
X85585771Y-82047618D02*
X85585771Y-81904761D01*
X85585771Y-81904761D02*
X85633390Y-81809523D01*
X85633390Y-81809523D02*
X85681009Y-81761904D01*
X85681009Y-81761904D02*
X85776247Y-81714285D01*
X85776247Y-81714285D02*
X86014342Y-81714285D01*
X86014342Y-81714285D02*
X86109580Y-81761904D01*
X86109580Y-81761904D02*
X86157200Y-81809523D01*
X86157200Y-81809523D02*
X86204819Y-81904761D01*
X86204819Y-81904761D02*
X86204819Y-82190475D01*
X86204819Y-82190475D02*
X86157200Y-82285713D01*
X86157200Y-82285713D02*
X86109580Y-82333332D01*
X139800057Y-129345238D02*
X139752438Y-129440476D01*
X139752438Y-129440476D02*
X139657200Y-129535714D01*
X139657200Y-129535714D02*
X139514342Y-129678571D01*
X139514342Y-129678571D02*
X139466723Y-129773809D01*
X139466723Y-129773809D02*
X139466723Y-129869047D01*
X139704819Y-129821428D02*
X139657200Y-129916666D01*
X139657200Y-129916666D02*
X139561961Y-130011904D01*
X139561961Y-130011904D02*
X139371485Y-130059523D01*
X139371485Y-130059523D02*
X139038152Y-130059523D01*
X139038152Y-130059523D02*
X138847676Y-130011904D01*
X138847676Y-130011904D02*
X138752438Y-129916666D01*
X138752438Y-129916666D02*
X138704819Y-129821428D01*
X138704819Y-129821428D02*
X138704819Y-129630952D01*
X138704819Y-129630952D02*
X138752438Y-129535714D01*
X138752438Y-129535714D02*
X138847676Y-129440476D01*
X138847676Y-129440476D02*
X139038152Y-129392857D01*
X139038152Y-129392857D02*
X139371485Y-129392857D01*
X139371485Y-129392857D02*
X139561961Y-129440476D01*
X139561961Y-129440476D02*
X139657200Y-129535714D01*
X139657200Y-129535714D02*
X139704819Y-129630952D01*
X139704819Y-129630952D02*
X139704819Y-129821428D01*
X139038152Y-128535714D02*
X139704819Y-128535714D01*
X138657200Y-128773809D02*
X139371485Y-129011904D01*
X139371485Y-129011904D02*
X139371485Y-128392857D01*
X77300057Y-92571428D02*
X77252438Y-92666666D01*
X77252438Y-92666666D02*
X77157200Y-92761904D01*
X77157200Y-92761904D02*
X77014342Y-92904761D01*
X77014342Y-92904761D02*
X76966723Y-92999999D01*
X76966723Y-92999999D02*
X76966723Y-93095237D01*
X77204819Y-93047618D02*
X77157200Y-93142856D01*
X77157200Y-93142856D02*
X77061961Y-93238094D01*
X77061961Y-93238094D02*
X76871485Y-93285713D01*
X76871485Y-93285713D02*
X76538152Y-93285713D01*
X76538152Y-93285713D02*
X76347676Y-93238094D01*
X76347676Y-93238094D02*
X76252438Y-93142856D01*
X76252438Y-93142856D02*
X76204819Y-93047618D01*
X76204819Y-93047618D02*
X76204819Y-92857142D01*
X76204819Y-92857142D02*
X76252438Y-92761904D01*
X76252438Y-92761904D02*
X76347676Y-92666666D01*
X76347676Y-92666666D02*
X76538152Y-92619047D01*
X76538152Y-92619047D02*
X76871485Y-92619047D01*
X76871485Y-92619047D02*
X77061961Y-92666666D01*
X77061961Y-92666666D02*
X77157200Y-92761904D01*
X77157200Y-92761904D02*
X77204819Y-92857142D01*
X77204819Y-92857142D02*
X77204819Y-93047618D01*
X77204819Y-91666666D02*
X77204819Y-92238094D01*
X77204819Y-91952380D02*
X76204819Y-91952380D01*
X76204819Y-91952380D02*
X76347676Y-92047618D01*
X76347676Y-92047618D02*
X76442914Y-92142856D01*
X76442914Y-92142856D02*
X76490533Y-92238094D01*
X76204819Y-91047618D02*
X76204819Y-90952380D01*
X76204819Y-90952380D02*
X76252438Y-90857142D01*
X76252438Y-90857142D02*
X76300057Y-90809523D01*
X76300057Y-90809523D02*
X76395295Y-90761904D01*
X76395295Y-90761904D02*
X76585771Y-90714285D01*
X76585771Y-90714285D02*
X76823866Y-90714285D01*
X76823866Y-90714285D02*
X77014342Y-90761904D01*
X77014342Y-90761904D02*
X77109580Y-90809523D01*
X77109580Y-90809523D02*
X77157200Y-90857142D01*
X77157200Y-90857142D02*
X77204819Y-90952380D01*
X77204819Y-90952380D02*
X77204819Y-91047618D01*
X77204819Y-91047618D02*
X77157200Y-91142856D01*
X77157200Y-91142856D02*
X77109580Y-91190475D01*
X77109580Y-91190475D02*
X77014342Y-91238094D01*
X77014342Y-91238094D02*
X76823866Y-91285713D01*
X76823866Y-91285713D02*
X76585771Y-91285713D01*
X76585771Y-91285713D02*
X76395295Y-91238094D01*
X76395295Y-91238094D02*
X76300057Y-91190475D01*
X76300057Y-91190475D02*
X76252438Y-91142856D01*
X76252438Y-91142856D02*
X76204819Y-91047618D01*
X129800057Y-138345238D02*
X129752438Y-138440476D01*
X129752438Y-138440476D02*
X129657200Y-138535714D01*
X129657200Y-138535714D02*
X129514342Y-138678571D01*
X129514342Y-138678571D02*
X129466723Y-138773809D01*
X129466723Y-138773809D02*
X129466723Y-138869047D01*
X129704819Y-138821428D02*
X129657200Y-138916666D01*
X129657200Y-138916666D02*
X129561961Y-139011904D01*
X129561961Y-139011904D02*
X129371485Y-139059523D01*
X129371485Y-139059523D02*
X129038152Y-139059523D01*
X129038152Y-139059523D02*
X128847676Y-139011904D01*
X128847676Y-139011904D02*
X128752438Y-138916666D01*
X128752438Y-138916666D02*
X128704819Y-138821428D01*
X128704819Y-138821428D02*
X128704819Y-138630952D01*
X128704819Y-138630952D02*
X128752438Y-138535714D01*
X128752438Y-138535714D02*
X128847676Y-138440476D01*
X128847676Y-138440476D02*
X129038152Y-138392857D01*
X129038152Y-138392857D02*
X129371485Y-138392857D01*
X129371485Y-138392857D02*
X129561961Y-138440476D01*
X129561961Y-138440476D02*
X129657200Y-138535714D01*
X129657200Y-138535714D02*
X129704819Y-138630952D01*
X129704819Y-138630952D02*
X129704819Y-138821428D01*
X128800057Y-138011904D02*
X128752438Y-137964285D01*
X128752438Y-137964285D02*
X128704819Y-137869047D01*
X128704819Y-137869047D02*
X128704819Y-137630952D01*
X128704819Y-137630952D02*
X128752438Y-137535714D01*
X128752438Y-137535714D02*
X128800057Y-137488095D01*
X128800057Y-137488095D02*
X128895295Y-137440476D01*
X128895295Y-137440476D02*
X128990533Y-137440476D01*
X128990533Y-137440476D02*
X129133390Y-137488095D01*
X129133390Y-137488095D02*
X129704819Y-138059523D01*
X129704819Y-138059523D02*
X129704819Y-137440476D01*
X131800057Y-143095238D02*
X131752438Y-143190476D01*
X131752438Y-143190476D02*
X131657200Y-143285714D01*
X131657200Y-143285714D02*
X131514342Y-143428571D01*
X131514342Y-143428571D02*
X131466723Y-143523809D01*
X131466723Y-143523809D02*
X131466723Y-143619047D01*
X131704819Y-143571428D02*
X131657200Y-143666666D01*
X131657200Y-143666666D02*
X131561961Y-143761904D01*
X131561961Y-143761904D02*
X131371485Y-143809523D01*
X131371485Y-143809523D02*
X131038152Y-143809523D01*
X131038152Y-143809523D02*
X130847676Y-143761904D01*
X130847676Y-143761904D02*
X130752438Y-143666666D01*
X130752438Y-143666666D02*
X130704819Y-143571428D01*
X130704819Y-143571428D02*
X130704819Y-143380952D01*
X130704819Y-143380952D02*
X130752438Y-143285714D01*
X130752438Y-143285714D02*
X130847676Y-143190476D01*
X130847676Y-143190476D02*
X131038152Y-143142857D01*
X131038152Y-143142857D02*
X131371485Y-143142857D01*
X131371485Y-143142857D02*
X131561961Y-143190476D01*
X131561961Y-143190476D02*
X131657200Y-143285714D01*
X131657200Y-143285714D02*
X131704819Y-143380952D01*
X131704819Y-143380952D02*
X131704819Y-143571428D01*
X130704819Y-142809523D02*
X130704819Y-142190476D01*
X130704819Y-142190476D02*
X131085771Y-142523809D01*
X131085771Y-142523809D02*
X131085771Y-142380952D01*
X131085771Y-142380952D02*
X131133390Y-142285714D01*
X131133390Y-142285714D02*
X131181009Y-142238095D01*
X131181009Y-142238095D02*
X131276247Y-142190476D01*
X131276247Y-142190476D02*
X131514342Y-142190476D01*
X131514342Y-142190476D02*
X131609580Y-142238095D01*
X131609580Y-142238095D02*
X131657200Y-142285714D01*
X131657200Y-142285714D02*
X131704819Y-142380952D01*
X131704819Y-142380952D02*
X131704819Y-142666666D01*
X131704819Y-142666666D02*
X131657200Y-142761904D01*
X131657200Y-142761904D02*
X131609580Y-142809523D01*
X117261905Y-139954819D02*
X117261905Y-138954819D01*
X117261905Y-138954819D02*
X117500000Y-138954819D01*
X117500000Y-138954819D02*
X117642857Y-139002438D01*
X117642857Y-139002438D02*
X117738095Y-139097676D01*
X117738095Y-139097676D02*
X117785714Y-139192914D01*
X117785714Y-139192914D02*
X117833333Y-139383390D01*
X117833333Y-139383390D02*
X117833333Y-139526247D01*
X117833333Y-139526247D02*
X117785714Y-139716723D01*
X117785714Y-139716723D02*
X117738095Y-139811961D01*
X117738095Y-139811961D02*
X117642857Y-139907200D01*
X117642857Y-139907200D02*
X117500000Y-139954819D01*
X117500000Y-139954819D02*
X117261905Y-139954819D01*
X118785714Y-139954819D02*
X118214286Y-139954819D01*
X118500000Y-139954819D02*
X118500000Y-138954819D01*
X118500000Y-138954819D02*
X118404762Y-139097676D01*
X118404762Y-139097676D02*
X118309524Y-139192914D01*
X118309524Y-139192914D02*
X118214286Y-139240533D01*
X103857142Y-93704819D02*
X103523809Y-93228628D01*
X103285714Y-93704819D02*
X103285714Y-92704819D01*
X103285714Y-92704819D02*
X103666666Y-92704819D01*
X103666666Y-92704819D02*
X103761904Y-92752438D01*
X103761904Y-92752438D02*
X103809523Y-92800057D01*
X103809523Y-92800057D02*
X103857142Y-92895295D01*
X103857142Y-92895295D02*
X103857142Y-93038152D01*
X103857142Y-93038152D02*
X103809523Y-93133390D01*
X103809523Y-93133390D02*
X103761904Y-93181009D01*
X103761904Y-93181009D02*
X103666666Y-93228628D01*
X103666666Y-93228628D02*
X103285714Y-93228628D01*
X104190476Y-92704819D02*
X104809523Y-92704819D01*
X104809523Y-92704819D02*
X104476190Y-93085771D01*
X104476190Y-93085771D02*
X104619047Y-93085771D01*
X104619047Y-93085771D02*
X104714285Y-93133390D01*
X104714285Y-93133390D02*
X104761904Y-93181009D01*
X104761904Y-93181009D02*
X104809523Y-93276247D01*
X104809523Y-93276247D02*
X104809523Y-93514342D01*
X104809523Y-93514342D02*
X104761904Y-93609580D01*
X104761904Y-93609580D02*
X104714285Y-93657200D01*
X104714285Y-93657200D02*
X104619047Y-93704819D01*
X104619047Y-93704819D02*
X104333333Y-93704819D01*
X104333333Y-93704819D02*
X104238095Y-93657200D01*
X104238095Y-93657200D02*
X104190476Y-93609580D01*
X105142857Y-92704819D02*
X105761904Y-92704819D01*
X105761904Y-92704819D02*
X105428571Y-93085771D01*
X105428571Y-93085771D02*
X105571428Y-93085771D01*
X105571428Y-93085771D02*
X105666666Y-93133390D01*
X105666666Y-93133390D02*
X105714285Y-93181009D01*
X105714285Y-93181009D02*
X105761904Y-93276247D01*
X105761904Y-93276247D02*
X105761904Y-93514342D01*
X105761904Y-93514342D02*
X105714285Y-93609580D01*
X105714285Y-93609580D02*
X105666666Y-93657200D01*
X105666666Y-93657200D02*
X105571428Y-93704819D01*
X105571428Y-93704819D02*
X105285714Y-93704819D01*
X105285714Y-93704819D02*
X105190476Y-93657200D01*
X105190476Y-93657200D02*
X105142857Y-93609580D01*
X89704819Y-130142857D02*
X89228628Y-130476190D01*
X89704819Y-130714285D02*
X88704819Y-130714285D01*
X88704819Y-130714285D02*
X88704819Y-130333333D01*
X88704819Y-130333333D02*
X88752438Y-130238095D01*
X88752438Y-130238095D02*
X88800057Y-130190476D01*
X88800057Y-130190476D02*
X88895295Y-130142857D01*
X88895295Y-130142857D02*
X89038152Y-130142857D01*
X89038152Y-130142857D02*
X89133390Y-130190476D01*
X89133390Y-130190476D02*
X89181009Y-130238095D01*
X89181009Y-130238095D02*
X89228628Y-130333333D01*
X89228628Y-130333333D02*
X89228628Y-130714285D01*
X89704819Y-129190476D02*
X89704819Y-129761904D01*
X89704819Y-129476190D02*
X88704819Y-129476190D01*
X88704819Y-129476190D02*
X88847676Y-129571428D01*
X88847676Y-129571428D02*
X88942914Y-129666666D01*
X88942914Y-129666666D02*
X88990533Y-129761904D01*
X88704819Y-128285714D02*
X88704819Y-128761904D01*
X88704819Y-128761904D02*
X89181009Y-128809523D01*
X89181009Y-128809523D02*
X89133390Y-128761904D01*
X89133390Y-128761904D02*
X89085771Y-128666666D01*
X89085771Y-128666666D02*
X89085771Y-128428571D01*
X89085771Y-128428571D02*
X89133390Y-128333333D01*
X89133390Y-128333333D02*
X89181009Y-128285714D01*
X89181009Y-128285714D02*
X89276247Y-128238095D01*
X89276247Y-128238095D02*
X89514342Y-128238095D01*
X89514342Y-128238095D02*
X89609580Y-128285714D01*
X89609580Y-128285714D02*
X89657200Y-128333333D01*
X89657200Y-128333333D02*
X89704819Y-128428571D01*
X89704819Y-128428571D02*
X89704819Y-128666666D01*
X89704819Y-128666666D02*
X89657200Y-128761904D01*
X89657200Y-128761904D02*
X89609580Y-128809523D01*
X102859580Y-128642857D02*
X102907200Y-128690476D01*
X102907200Y-128690476D02*
X102954819Y-128833333D01*
X102954819Y-128833333D02*
X102954819Y-128928571D01*
X102954819Y-128928571D02*
X102907200Y-129071428D01*
X102907200Y-129071428D02*
X102811961Y-129166666D01*
X102811961Y-129166666D02*
X102716723Y-129214285D01*
X102716723Y-129214285D02*
X102526247Y-129261904D01*
X102526247Y-129261904D02*
X102383390Y-129261904D01*
X102383390Y-129261904D02*
X102192914Y-129214285D01*
X102192914Y-129214285D02*
X102097676Y-129166666D01*
X102097676Y-129166666D02*
X102002438Y-129071428D01*
X102002438Y-129071428D02*
X101954819Y-128928571D01*
X101954819Y-128928571D02*
X101954819Y-128833333D01*
X101954819Y-128833333D02*
X102002438Y-128690476D01*
X102002438Y-128690476D02*
X102050057Y-128642857D01*
X102954819Y-127690476D02*
X102954819Y-128261904D01*
X102954819Y-127976190D02*
X101954819Y-127976190D01*
X101954819Y-127976190D02*
X102097676Y-128071428D01*
X102097676Y-128071428D02*
X102192914Y-128166666D01*
X102192914Y-128166666D02*
X102240533Y-128261904D01*
X102050057Y-127309523D02*
X102002438Y-127261904D01*
X102002438Y-127261904D02*
X101954819Y-127166666D01*
X101954819Y-127166666D02*
X101954819Y-126928571D01*
X101954819Y-126928571D02*
X102002438Y-126833333D01*
X102002438Y-126833333D02*
X102050057Y-126785714D01*
X102050057Y-126785714D02*
X102145295Y-126738095D01*
X102145295Y-126738095D02*
X102240533Y-126738095D01*
X102240533Y-126738095D02*
X102383390Y-126785714D01*
X102383390Y-126785714D02*
X102954819Y-127357142D01*
X102954819Y-127357142D02*
X102954819Y-126738095D01*
X90704819Y-93642857D02*
X90228628Y-93976190D01*
X90704819Y-94214285D02*
X89704819Y-94214285D01*
X89704819Y-94214285D02*
X89704819Y-93833333D01*
X89704819Y-93833333D02*
X89752438Y-93738095D01*
X89752438Y-93738095D02*
X89800057Y-93690476D01*
X89800057Y-93690476D02*
X89895295Y-93642857D01*
X89895295Y-93642857D02*
X90038152Y-93642857D01*
X90038152Y-93642857D02*
X90133390Y-93690476D01*
X90133390Y-93690476D02*
X90181009Y-93738095D01*
X90181009Y-93738095D02*
X90228628Y-93833333D01*
X90228628Y-93833333D02*
X90228628Y-94214285D01*
X89800057Y-93261904D02*
X89752438Y-93214285D01*
X89752438Y-93214285D02*
X89704819Y-93119047D01*
X89704819Y-93119047D02*
X89704819Y-92880952D01*
X89704819Y-92880952D02*
X89752438Y-92785714D01*
X89752438Y-92785714D02*
X89800057Y-92738095D01*
X89800057Y-92738095D02*
X89895295Y-92690476D01*
X89895295Y-92690476D02*
X89990533Y-92690476D01*
X89990533Y-92690476D02*
X90133390Y-92738095D01*
X90133390Y-92738095D02*
X90704819Y-93309523D01*
X90704819Y-93309523D02*
X90704819Y-92690476D01*
X90133390Y-92119047D02*
X90085771Y-92214285D01*
X90085771Y-92214285D02*
X90038152Y-92261904D01*
X90038152Y-92261904D02*
X89942914Y-92309523D01*
X89942914Y-92309523D02*
X89895295Y-92309523D01*
X89895295Y-92309523D02*
X89800057Y-92261904D01*
X89800057Y-92261904D02*
X89752438Y-92214285D01*
X89752438Y-92214285D02*
X89704819Y-92119047D01*
X89704819Y-92119047D02*
X89704819Y-91928571D01*
X89704819Y-91928571D02*
X89752438Y-91833333D01*
X89752438Y-91833333D02*
X89800057Y-91785714D01*
X89800057Y-91785714D02*
X89895295Y-91738095D01*
X89895295Y-91738095D02*
X89942914Y-91738095D01*
X89942914Y-91738095D02*
X90038152Y-91785714D01*
X90038152Y-91785714D02*
X90085771Y-91833333D01*
X90085771Y-91833333D02*
X90133390Y-91928571D01*
X90133390Y-91928571D02*
X90133390Y-92119047D01*
X90133390Y-92119047D02*
X90181009Y-92214285D01*
X90181009Y-92214285D02*
X90228628Y-92261904D01*
X90228628Y-92261904D02*
X90323866Y-92309523D01*
X90323866Y-92309523D02*
X90514342Y-92309523D01*
X90514342Y-92309523D02*
X90609580Y-92261904D01*
X90609580Y-92261904D02*
X90657200Y-92214285D01*
X90657200Y-92214285D02*
X90704819Y-92119047D01*
X90704819Y-92119047D02*
X90704819Y-91928571D01*
X90704819Y-91928571D02*
X90657200Y-91833333D01*
X90657200Y-91833333D02*
X90609580Y-91785714D01*
X90609580Y-91785714D02*
X90514342Y-91738095D01*
X90514342Y-91738095D02*
X90323866Y-91738095D01*
X90323866Y-91738095D02*
X90228628Y-91785714D01*
X90228628Y-91785714D02*
X90181009Y-91833333D01*
X90181009Y-91833333D02*
X90133390Y-91928571D01*
X89204819Y-93642857D02*
X88728628Y-93976190D01*
X89204819Y-94214285D02*
X88204819Y-94214285D01*
X88204819Y-94214285D02*
X88204819Y-93833333D01*
X88204819Y-93833333D02*
X88252438Y-93738095D01*
X88252438Y-93738095D02*
X88300057Y-93690476D01*
X88300057Y-93690476D02*
X88395295Y-93642857D01*
X88395295Y-93642857D02*
X88538152Y-93642857D01*
X88538152Y-93642857D02*
X88633390Y-93690476D01*
X88633390Y-93690476D02*
X88681009Y-93738095D01*
X88681009Y-93738095D02*
X88728628Y-93833333D01*
X88728628Y-93833333D02*
X88728628Y-94214285D01*
X88300057Y-93261904D02*
X88252438Y-93214285D01*
X88252438Y-93214285D02*
X88204819Y-93119047D01*
X88204819Y-93119047D02*
X88204819Y-92880952D01*
X88204819Y-92880952D02*
X88252438Y-92785714D01*
X88252438Y-92785714D02*
X88300057Y-92738095D01*
X88300057Y-92738095D02*
X88395295Y-92690476D01*
X88395295Y-92690476D02*
X88490533Y-92690476D01*
X88490533Y-92690476D02*
X88633390Y-92738095D01*
X88633390Y-92738095D02*
X89204819Y-93309523D01*
X89204819Y-93309523D02*
X89204819Y-92690476D01*
X89204819Y-92214285D02*
X89204819Y-92023809D01*
X89204819Y-92023809D02*
X89157200Y-91928571D01*
X89157200Y-91928571D02*
X89109580Y-91880952D01*
X89109580Y-91880952D02*
X88966723Y-91785714D01*
X88966723Y-91785714D02*
X88776247Y-91738095D01*
X88776247Y-91738095D02*
X88395295Y-91738095D01*
X88395295Y-91738095D02*
X88300057Y-91785714D01*
X88300057Y-91785714D02*
X88252438Y-91833333D01*
X88252438Y-91833333D02*
X88204819Y-91928571D01*
X88204819Y-91928571D02*
X88204819Y-92119047D01*
X88204819Y-92119047D02*
X88252438Y-92214285D01*
X88252438Y-92214285D02*
X88300057Y-92261904D01*
X88300057Y-92261904D02*
X88395295Y-92309523D01*
X88395295Y-92309523D02*
X88633390Y-92309523D01*
X88633390Y-92309523D02*
X88728628Y-92261904D01*
X88728628Y-92261904D02*
X88776247Y-92214285D01*
X88776247Y-92214285D02*
X88823866Y-92119047D01*
X88823866Y-92119047D02*
X88823866Y-91928571D01*
X88823866Y-91928571D02*
X88776247Y-91833333D01*
X88776247Y-91833333D02*
X88728628Y-91785714D01*
X88728628Y-91785714D02*
X88633390Y-91738095D01*
X113833333Y-136954819D02*
X113357143Y-136954819D01*
X113357143Y-136954819D02*
X113357143Y-135954819D01*
X114119048Y-136050057D02*
X114166667Y-136002438D01*
X114166667Y-136002438D02*
X114261905Y-135954819D01*
X114261905Y-135954819D02*
X114500000Y-135954819D01*
X114500000Y-135954819D02*
X114595238Y-136002438D01*
X114595238Y-136002438D02*
X114642857Y-136050057D01*
X114642857Y-136050057D02*
X114690476Y-136145295D01*
X114690476Y-136145295D02*
X114690476Y-136240533D01*
X114690476Y-136240533D02*
X114642857Y-136383390D01*
X114642857Y-136383390D02*
X114071429Y-136954819D01*
X114071429Y-136954819D02*
X114690476Y-136954819D01*
X91609580Y-119666666D02*
X91657200Y-119714285D01*
X91657200Y-119714285D02*
X91704819Y-119857142D01*
X91704819Y-119857142D02*
X91704819Y-119952380D01*
X91704819Y-119952380D02*
X91657200Y-120095237D01*
X91657200Y-120095237D02*
X91561961Y-120190475D01*
X91561961Y-120190475D02*
X91466723Y-120238094D01*
X91466723Y-120238094D02*
X91276247Y-120285713D01*
X91276247Y-120285713D02*
X91133390Y-120285713D01*
X91133390Y-120285713D02*
X90942914Y-120238094D01*
X90942914Y-120238094D02*
X90847676Y-120190475D01*
X90847676Y-120190475D02*
X90752438Y-120095237D01*
X90752438Y-120095237D02*
X90704819Y-119952380D01*
X90704819Y-119952380D02*
X90704819Y-119857142D01*
X90704819Y-119857142D02*
X90752438Y-119714285D01*
X90752438Y-119714285D02*
X90800057Y-119666666D01*
X91704819Y-118714285D02*
X91704819Y-119285713D01*
X91704819Y-118999999D02*
X90704819Y-118999999D01*
X90704819Y-118999999D02*
X90847676Y-119095237D01*
X90847676Y-119095237D02*
X90942914Y-119190475D01*
X90942914Y-119190475D02*
X90990533Y-119285713D01*
X51804166Y-140584819D02*
X51804166Y-141299104D01*
X51804166Y-141299104D02*
X51756547Y-141441961D01*
X51756547Y-141441961D02*
X51661309Y-141537200D01*
X51661309Y-141537200D02*
X51518452Y-141584819D01*
X51518452Y-141584819D02*
X51423214Y-141584819D01*
X52185119Y-140584819D02*
X52804166Y-140584819D01*
X52804166Y-140584819D02*
X52470833Y-140965771D01*
X52470833Y-140965771D02*
X52613690Y-140965771D01*
X52613690Y-140965771D02*
X52708928Y-141013390D01*
X52708928Y-141013390D02*
X52756547Y-141061009D01*
X52756547Y-141061009D02*
X52804166Y-141156247D01*
X52804166Y-141156247D02*
X52804166Y-141394342D01*
X52804166Y-141394342D02*
X52756547Y-141489580D01*
X52756547Y-141489580D02*
X52708928Y-141537200D01*
X52708928Y-141537200D02*
X52613690Y-141584819D01*
X52613690Y-141584819D02*
X52327976Y-141584819D01*
X52327976Y-141584819D02*
X52232738Y-141537200D01*
X52232738Y-141537200D02*
X52185119Y-141489580D01*
X155711470Y-113190644D02*
X156035014Y-112841248D01*
X156035014Y-112841248D02*
X156768743Y-113520690D01*
X155129092Y-113819555D02*
X155517344Y-113400281D01*
X155323218Y-113609918D02*
X156056948Y-114289359D01*
X156056948Y-114289359D02*
X156016838Y-114122417D01*
X156016838Y-114122417D02*
X156011668Y-113987829D01*
X156011668Y-113987829D02*
X156041437Y-113885596D01*
D12*
%TO.C,R30*%
X96727500Y-87987258D02*
X96727500Y-87512742D01*
X97772500Y-87987258D02*
X97772500Y-87512742D01*
%TO.C,R2*%
X92477500Y-117237258D02*
X92477500Y-116762742D01*
X93522500Y-117237258D02*
X93522500Y-116762742D01*
%TO.C,R22*%
X79487258Y-88727500D02*
X79012742Y-88727500D01*
X79487258Y-89772500D02*
X79012742Y-89772500D01*
%TO.C,C13*%
X110211252Y-122640000D02*
X108788748Y-122640000D01*
X110211252Y-125360000D02*
X108788748Y-125360000D01*
%TO.C,C8*%
X81490000Y-126109420D02*
X81490000Y-126390580D01*
X82510000Y-126109420D02*
X82510000Y-126390580D01*
%TO.C,R19*%
X84477500Y-138262742D02*
X84477500Y-138737258D01*
X85522500Y-138262742D02*
X85522500Y-138737258D01*
%TO.C,BT1*%
X86690000Y-81640000D02*
X86690000Y-86360000D01*
X86690000Y-83750000D02*
X87300000Y-83750000D01*
X86690000Y-85050000D02*
X87300000Y-85050000D01*
X86690000Y-86360000D02*
X92810000Y-86360000D01*
X87300000Y-82250000D02*
X87300000Y-85750000D01*
X87300000Y-85750000D02*
X89250000Y-85750000D01*
X89250000Y-85750000D02*
X89250000Y-86360000D01*
X89650000Y-82750000D02*
X89650000Y-82250000D01*
X89750000Y-82250000D02*
X89750000Y-82750000D01*
X89850000Y-82250000D02*
X89850000Y-82750000D01*
X89850000Y-82750000D02*
X89650000Y-82750000D01*
X90250000Y-85750000D02*
X92200000Y-85750000D01*
X90250000Y-86360000D02*
X90250000Y-85750000D01*
X91050000Y-86360000D02*
X91050000Y-86560000D01*
X91050000Y-86460000D02*
X91350000Y-86460000D01*
X91050000Y-86560000D02*
X91350000Y-86560000D01*
X91350000Y-86560000D02*
X91350000Y-86360000D01*
X91860000Y-86660000D02*
X93110000Y-86660000D01*
X92200000Y-82250000D02*
X87300000Y-82250000D01*
X92200000Y-85750000D02*
X92200000Y-82250000D01*
X92810000Y-81640000D02*
X86690000Y-81640000D01*
X92810000Y-83750000D02*
X92200000Y-83750000D01*
X92810000Y-85050000D02*
X92200000Y-85050000D01*
X92810000Y-86360000D02*
X92810000Y-81640000D01*
X93110000Y-86660000D02*
X93110000Y-85410000D01*
%TO.C,JP2*%
X87250000Y-99950000D02*
X87250000Y-98550000D01*
X87950000Y-97850000D02*
X88550000Y-97850000D01*
X88550000Y-100650000D02*
X87950000Y-100650000D01*
X89250000Y-98550000D02*
X89250000Y-99950000D01*
X87250000Y-98550000D02*
G75*
G02*
X87950000Y-97850000I700000J0D01*
G01*
X87950000Y-100650000D02*
G75*
G02*
X87250000Y-99950000I-1J699999D01*
G01*
X88550000Y-97850000D02*
G75*
G02*
X89250000Y-98550000I0J-700000D01*
G01*
X89250000Y-99950000D02*
G75*
G02*
X88550000Y-100650000I-699999J-1D01*
G01*
%TO.C,R5*%
X83477500Y-132262742D02*
X83477500Y-132737258D01*
X84522500Y-132262742D02*
X84522500Y-132737258D01*
%TO.C,R23*%
X81727500Y-97012742D02*
X81727500Y-97487258D01*
X82772500Y-97012742D02*
X82772500Y-97487258D01*
%TO.C,U3*%
X94890000Y-94000000D02*
X94890000Y-92500000D01*
X94890000Y-94000000D02*
X94890000Y-95500000D01*
X98110000Y-94000000D02*
X98110000Y-92500000D01*
X98110000Y-94000000D02*
X98110000Y-95500000D01*
X95090000Y-96187500D02*
X94760000Y-96427500D01*
X94760000Y-95947500D01*
X95090000Y-96187500D01*
G36*
X95090000Y-96187500D02*
G01*
X94760000Y-96427500D01*
X94760000Y-95947500D01*
X95090000Y-96187500D01*
G37*
%TO.C,Q5*%
X138350000Y-136780000D02*
X138350000Y-133180000D01*
X134050000Y-134200000D02*
G75*
G02*
X138327684Y-133171555I2450000J-780000D01*
G01*
X138341741Y-136791875D02*
G75*
G02*
X134050000Y-135800000I-1841741J1811875D01*
G01*
%TO.C,U2*%
X63140000Y-130290000D02*
X63140000Y-129990000D01*
X63140000Y-150210000D02*
X63140000Y-143710000D01*
X81360000Y-129990000D02*
X63140000Y-129990000D01*
X81360000Y-130290000D02*
X81360000Y-129990000D01*
X81360000Y-150210000D02*
X63140000Y-150210000D01*
X81360000Y-150210000D02*
X81360000Y-144400000D01*
X81350000Y-144200000D02*
X81350000Y-143700000D01*
X81850000Y-143700000D01*
X81350000Y-144200000D01*
G36*
X81350000Y-144200000D02*
G01*
X81350000Y-143700000D01*
X81850000Y-143700000D01*
X81350000Y-144200000D01*
G37*
%TO.C,SW1*%
X156000000Y-82750000D02*
X164500000Y-85000000D01*
X164500000Y-93000000D01*
X156000000Y-95250000D01*
X156000000Y-106750000D01*
X154500000Y-106750000D01*
X154500000Y-104750000D01*
X122500000Y-104750000D01*
X122500000Y-106750000D01*
X121000000Y-106750000D01*
X121000000Y-95250000D01*
X112500000Y-93000000D01*
X112500000Y-85000000D01*
X121000000Y-82750000D01*
X121000000Y-69500000D01*
X156000000Y-69500000D01*
X156000000Y-82750000D01*
%TO.C,R10*%
X101227500Y-138512742D02*
X101227500Y-138987258D01*
X102272500Y-138512742D02*
X102272500Y-138987258D01*
%TO.C,C9*%
X79640580Y-121240000D02*
X79359420Y-121240000D01*
X79640580Y-122260000D02*
X79359420Y-122260000D01*
%TO.C,C14*%
X117419000Y-144849000D02*
X117419000Y-143651000D01*
X117459000Y-145112000D02*
X117459000Y-143388000D01*
X117499000Y-145312000D02*
X117499000Y-143188000D01*
X117539000Y-145480000D02*
X117539000Y-143020000D01*
X117579000Y-145628000D02*
X117579000Y-142872000D01*
X117619000Y-145760000D02*
X117619000Y-142740000D01*
X117659000Y-145880000D02*
X117659000Y-142620000D01*
X117699000Y-145992000D02*
X117699000Y-142508000D01*
X117739000Y-146096000D02*
X117739000Y-142404000D01*
X117779000Y-146194000D02*
X117779000Y-142306000D01*
X117819000Y-146287000D02*
X117819000Y-142213000D01*
X117859000Y-146375000D02*
X117859000Y-142125000D01*
X117899000Y-146459000D02*
X117899000Y-142041000D01*
X117939000Y-146539000D02*
X117939000Y-141961000D01*
X117979000Y-146615000D02*
X117979000Y-141885000D01*
X118019000Y-146689000D02*
X118019000Y-141811000D01*
X118059000Y-146760000D02*
X118059000Y-141740000D01*
X118099000Y-146829000D02*
X118099000Y-141671000D01*
X118139000Y-146895000D02*
X118139000Y-141605000D01*
X118179000Y-146959000D02*
X118179000Y-141541000D01*
X118219000Y-147020000D02*
X118219000Y-141480000D01*
X118259000Y-147080000D02*
X118259000Y-141420000D01*
X118299000Y-147139000D02*
X118299000Y-141361000D01*
X118339000Y-147195000D02*
X118339000Y-141305000D01*
X118379000Y-147250000D02*
X118379000Y-141250000D01*
X118419000Y-147304000D02*
X118419000Y-141196000D01*
X118459000Y-147356000D02*
X118459000Y-141144000D01*
X118499000Y-147406000D02*
X118499000Y-141094000D01*
X118539000Y-147456000D02*
X118539000Y-141044000D01*
X118579000Y-147504000D02*
X118579000Y-140996000D01*
X118619000Y-147551000D02*
X118619000Y-140949000D01*
X118659000Y-147597000D02*
X118659000Y-140903000D01*
X118699000Y-147642000D02*
X118699000Y-140858000D01*
X118739000Y-147686000D02*
X118739000Y-140814000D01*
X118779000Y-143009000D02*
X118779000Y-140772000D01*
X118779000Y-147728000D02*
X118779000Y-145491000D01*
X118819000Y-143009000D02*
X118819000Y-140730000D01*
X118819000Y-147770000D02*
X118819000Y-145491000D01*
X118859000Y-143009000D02*
X118859000Y-140689000D01*
X118859000Y-147811000D02*
X118859000Y-145491000D01*
X118899000Y-143009000D02*
X118899000Y-140649000D01*
X118899000Y-147851000D02*
X118899000Y-145491000D01*
X118939000Y-143009000D02*
X118939000Y-140610000D01*
X118939000Y-147890000D02*
X118939000Y-145491000D01*
X118979000Y-143009000D02*
X118979000Y-140571000D01*
X118979000Y-147929000D02*
X118979000Y-145491000D01*
X119019000Y-143009000D02*
X119019000Y-140534000D01*
X119019000Y-147966000D02*
X119019000Y-145491000D01*
X119059000Y-143009000D02*
X119059000Y-140497000D01*
X119059000Y-148003000D02*
X119059000Y-145491000D01*
X119099000Y-143009000D02*
X119099000Y-140461000D01*
X119099000Y-148039000D02*
X119099000Y-145491000D01*
X119139000Y-143009000D02*
X119139000Y-140426000D01*
X119139000Y-148074000D02*
X119139000Y-145491000D01*
X119179000Y-143009000D02*
X119179000Y-140392000D01*
X119179000Y-148108000D02*
X119179000Y-145491000D01*
X119219000Y-143009000D02*
X119219000Y-140358000D01*
X119219000Y-148142000D02*
X119219000Y-145491000D01*
X119259000Y-143009000D02*
X119259000Y-140325000D01*
X119259000Y-148175000D02*
X119259000Y-145491000D01*
X119299000Y-143009000D02*
X119299000Y-140293000D01*
X119299000Y-148207000D02*
X119299000Y-145491000D01*
X119339000Y-143009000D02*
X119339000Y-140261000D01*
X119339000Y-148239000D02*
X119339000Y-145491000D01*
X119379000Y-143009000D02*
X119379000Y-140230000D01*
X119379000Y-148270000D02*
X119379000Y-145491000D01*
X119419000Y-143009000D02*
X119419000Y-140200000D01*
X119419000Y-148300000D02*
X119419000Y-145491000D01*
X119459000Y-143009000D02*
X119459000Y-140170000D01*
X119459000Y-148330000D02*
X119459000Y-145491000D01*
X119499000Y-143009000D02*
X119499000Y-140140000D01*
X119499000Y-148360000D02*
X119499000Y-145491000D01*
X119539000Y-143009000D02*
X119539000Y-140112000D01*
X119539000Y-148388000D02*
X119539000Y-145491000D01*
X119579000Y-143009000D02*
X119579000Y-140084000D01*
X119579000Y-148416000D02*
X119579000Y-145491000D01*
X119619000Y-143009000D02*
X119619000Y-140056000D01*
X119619000Y-148444000D02*
X119619000Y-145491000D01*
X119659000Y-143009000D02*
X119659000Y-140029000D01*
X119659000Y-148471000D02*
X119659000Y-145491000D01*
X119699000Y-143009000D02*
X119699000Y-140003000D01*
X119699000Y-148497000D02*
X119699000Y-145491000D01*
X119739000Y-143009000D02*
X119739000Y-139977000D01*
X119739000Y-148523000D02*
X119739000Y-145491000D01*
X119779000Y-143009000D02*
X119779000Y-139952000D01*
X119779000Y-148548000D02*
X119779000Y-145491000D01*
X119819000Y-143009000D02*
X119819000Y-139927000D01*
X119819000Y-148573000D02*
X119819000Y-145491000D01*
X119859000Y-143009000D02*
X119859000Y-139903000D01*
X119859000Y-148597000D02*
X119859000Y-145491000D01*
X119899000Y-143009000D02*
X119899000Y-139879000D01*
X119899000Y-148621000D02*
X119899000Y-145491000D01*
X119939000Y-143009000D02*
X119939000Y-139855000D01*
X119939000Y-148645000D02*
X119939000Y-145491000D01*
X119979000Y-143009000D02*
X119979000Y-139833000D01*
X119979000Y-148667000D02*
X119979000Y-145491000D01*
X120019000Y-143009000D02*
X120019000Y-139810000D01*
X120019000Y-148690000D02*
X120019000Y-145491000D01*
X120059000Y-143009000D02*
X120059000Y-139788000D01*
X120059000Y-148712000D02*
X120059000Y-145491000D01*
X120099000Y-143009000D02*
X120099000Y-139767000D01*
X120099000Y-148733000D02*
X120099000Y-145491000D01*
X120139000Y-143009000D02*
X120139000Y-139746000D01*
X120139000Y-148754000D02*
X120139000Y-145491000D01*
X120179000Y-143009000D02*
X120179000Y-139725000D01*
X120179000Y-148775000D02*
X120179000Y-145491000D01*
X120219000Y-143009000D02*
X120219000Y-139705000D01*
X120219000Y-148795000D02*
X120219000Y-145491000D01*
X120259000Y-143009000D02*
X120259000Y-139686000D01*
X120259000Y-148814000D02*
X120259000Y-145491000D01*
X120299000Y-143009000D02*
X120299000Y-139666000D01*
X120299000Y-148834000D02*
X120299000Y-145491000D01*
X120339000Y-143009000D02*
X120339000Y-139647000D01*
X120339000Y-148853000D02*
X120339000Y-145491000D01*
X120379000Y-143009000D02*
X120379000Y-139629000D01*
X120379000Y-148871000D02*
X120379000Y-145491000D01*
X120419000Y-143009000D02*
X120419000Y-139611000D01*
X120419000Y-148889000D02*
X120419000Y-145491000D01*
X120459000Y-143009000D02*
X120459000Y-139593000D01*
X120459000Y-148907000D02*
X120459000Y-145491000D01*
X120499000Y-143009000D02*
X120499000Y-139576000D01*
X120499000Y-148924000D02*
X120499000Y-145491000D01*
X120539000Y-143009000D02*
X120539000Y-139560000D01*
X120539000Y-148940000D02*
X120539000Y-145491000D01*
X120579000Y-143009000D02*
X120579000Y-139543000D01*
X120579000Y-148957000D02*
X120579000Y-145491000D01*
X120619000Y-143009000D02*
X120619000Y-139527000D01*
X120619000Y-148973000D02*
X120619000Y-145491000D01*
X120659000Y-143009000D02*
X120659000Y-139512000D01*
X120659000Y-148988000D02*
X120659000Y-145491000D01*
X120699000Y-143009000D02*
X120699000Y-139496000D01*
X120699000Y-149004000D02*
X120699000Y-145491000D01*
X120739000Y-143009000D02*
X120739000Y-139482000D01*
X120739000Y-149018000D02*
X120739000Y-145491000D01*
X120779000Y-143009000D02*
X120779000Y-139467000D01*
X120779000Y-149033000D02*
X120779000Y-145491000D01*
X120819000Y-143009000D02*
X120819000Y-139453000D01*
X120819000Y-149047000D02*
X120819000Y-145491000D01*
X120859000Y-143009000D02*
X120859000Y-139439000D01*
X120859000Y-149061000D02*
X120859000Y-145491000D01*
X120899000Y-143009000D02*
X120899000Y-139426000D01*
X120899000Y-149074000D02*
X120899000Y-145491000D01*
X120939000Y-143009000D02*
X120939000Y-139413000D01*
X120939000Y-149087000D02*
X120939000Y-145491000D01*
X120979000Y-143009000D02*
X120979000Y-139400000D01*
X120979000Y-149100000D02*
X120979000Y-145491000D01*
X121019000Y-143009000D02*
X121019000Y-139388000D01*
X121019000Y-149112000D02*
X121019000Y-145491000D01*
X121059000Y-143009000D02*
X121059000Y-139376000D01*
X121059000Y-149124000D02*
X121059000Y-145491000D01*
X121099000Y-143009000D02*
X121099000Y-139365000D01*
X121099000Y-149135000D02*
X121099000Y-145491000D01*
X121139000Y-143009000D02*
X121139000Y-139353000D01*
X121139000Y-149147000D02*
X121139000Y-145491000D01*
X121179000Y-143009000D02*
X121179000Y-139343000D01*
X121179000Y-149157000D02*
X121179000Y-145491000D01*
X121219000Y-143009000D02*
X121219000Y-139332000D01*
X121219000Y-149168000D02*
X121219000Y-145491000D01*
X121259000Y-149178000D02*
X121259000Y-139322000D01*
X121299000Y-149188000D02*
X121299000Y-139312000D01*
X121339000Y-149197000D02*
X121339000Y-139303000D01*
X121379000Y-149206000D02*
X121379000Y-139294000D01*
X121419000Y-149215000D02*
X121419000Y-139285000D01*
X121459000Y-149224000D02*
X121459000Y-139276000D01*
X121499000Y-149232000D02*
X121499000Y-139268000D01*
X121539000Y-149240000D02*
X121539000Y-139260000D01*
X121579000Y-149247000D02*
X121579000Y-139253000D01*
X121619000Y-149254000D02*
X121619000Y-139246000D01*
X121659000Y-149261000D02*
X121659000Y-139239000D01*
X121699000Y-149268000D02*
X121699000Y-139232000D01*
X121739000Y-149274000D02*
X121739000Y-139226000D01*
X121779000Y-149280000D02*
X121779000Y-139220000D01*
X121820000Y-149285000D02*
X121820000Y-139215000D01*
X121860000Y-149290000D02*
X121860000Y-139210000D01*
X121900000Y-149295000D02*
X121900000Y-139205000D01*
X121940000Y-149300000D02*
X121940000Y-139200000D01*
X121980000Y-149304000D02*
X121980000Y-139196000D01*
X122020000Y-149308000D02*
X122020000Y-139192000D01*
X122060000Y-149312000D02*
X122060000Y-139188000D01*
X122100000Y-149315000D02*
X122100000Y-139185000D01*
X122140000Y-149318000D02*
X122140000Y-139182000D01*
X122180000Y-149320000D02*
X122180000Y-139180000D01*
X122220000Y-149323000D02*
X122220000Y-139177000D01*
X122260000Y-149325000D02*
X122260000Y-139175000D01*
X122300000Y-149327000D02*
X122300000Y-139173000D01*
X122340000Y-149328000D02*
X122340000Y-139172000D01*
X122380000Y-149329000D02*
X122380000Y-139171000D01*
X122420000Y-149330000D02*
X122420000Y-139170000D01*
X122460000Y-149330000D02*
X122460000Y-139170000D01*
X122500000Y-149330000D02*
X122500000Y-139170000D01*
X127479646Y-147625000D02*
X127479646Y-146625000D01*
X127979646Y-147125000D02*
X126979646Y-147125000D01*
X127620000Y-144250000D02*
G75*
G02*
X117380000Y-144250000I-5120000J0D01*
G01*
X117380000Y-144250000D02*
G75*
G02*
X127620000Y-144250000I5120000J0D01*
G01*
%TO.C,D4*%
X100140000Y-80000000D02*
X100140000Y-82000000D01*
X100140000Y-80000000D02*
X104150000Y-80000000D01*
X100140000Y-82000000D02*
X104150000Y-82000000D01*
%TO.C,U8*%
X83250000Y-121190000D02*
X82450000Y-121190000D01*
X83250000Y-121190000D02*
X84050000Y-121190000D01*
X83250000Y-124310000D02*
X82450000Y-124310000D01*
X83250000Y-124310000D02*
X84050000Y-124310000D01*
X84790000Y-124590000D02*
X84310000Y-124590000D01*
X84550000Y-124260000D01*
X84790000Y-124590000D01*
G36*
X84790000Y-124590000D02*
G01*
X84310000Y-124590000D01*
X84550000Y-124260000D01*
X84790000Y-124590000D01*
G37*
%TO.C,R18*%
X124227500Y-127762742D02*
X124227500Y-128237258D01*
X125272500Y-127762742D02*
X125272500Y-128237258D01*
%TO.C,C3*%
X97740000Y-117140580D02*
X97740000Y-116859420D01*
X98760000Y-117140580D02*
X98760000Y-116859420D01*
%TO.C,C4*%
X95990000Y-117140580D02*
X95990000Y-116859420D01*
X97010000Y-117140580D02*
X97010000Y-116859420D01*
%TO.C,R6*%
X85227500Y-132262742D02*
X85227500Y-132737258D01*
X86272500Y-132262742D02*
X86272500Y-132737258D01*
%TO.C,C5*%
X84490000Y-142109420D02*
X84490000Y-142390580D01*
X85510000Y-142109420D02*
X85510000Y-142390580D01*
%TO.C,Q11*%
X81190000Y-93750000D02*
X81190000Y-93100000D01*
X81190000Y-93750000D02*
X81190000Y-94400000D01*
X84310000Y-93750000D02*
X84310000Y-93100000D01*
X84310000Y-93750000D02*
X84310000Y-94400000D01*
X81240000Y-94912500D02*
X80910000Y-95152500D01*
X80910000Y-94672500D01*
X81240000Y-94912500D01*
G36*
X81240000Y-94912500D02*
G01*
X80910000Y-95152500D01*
X80910000Y-94672500D01*
X81240000Y-94912500D01*
G37*
%TO.C,R9*%
X99227500Y-138512742D02*
X99227500Y-138987258D01*
X100272500Y-138512742D02*
X100272500Y-138987258D01*
%TO.C,R32*%
X101262742Y-94477500D02*
X101737258Y-94477500D01*
X101262742Y-95522500D02*
X101737258Y-95522500D01*
%TO.C,SW4*%
X51750000Y-124000000D02*
X51750000Y-125500000D01*
X53000000Y-128000000D02*
X57500000Y-128000000D01*
X57500000Y-121500000D02*
X53000000Y-121500000D01*
X58750000Y-125500000D02*
X58750000Y-124000000D01*
%TO.C,U1*%
X57285000Y-112870000D02*
X72525000Y-112870000D01*
X72525000Y-97630000D01*
X57285000Y-97630000D01*
X57285000Y-112870000D01*
X54745000Y-115410000D02*
G75*
G02*
X52205000Y-115410000I-1270000J0D01*
G01*
X52205000Y-115410000D02*
G75*
G02*
X54745000Y-115410000I1270000J0D01*
G01*
X54237000Y-115410000D02*
G75*
G02*
X52713000Y-115410000I-762000J0D01*
G01*
X52713000Y-115410000D02*
G75*
G02*
X54237000Y-115410000I762000J0D01*
G01*
%TO.C,D2*%
X80790000Y-81500000D02*
X80790000Y-84185000D01*
X80790000Y-84185000D02*
X82710000Y-84185000D01*
X82710000Y-84185000D02*
X82710000Y-81500000D01*
%TO.C,R4*%
X94227500Y-117237258D02*
X94227500Y-116762742D01*
X95272500Y-117237258D02*
X95272500Y-116762742D01*
%TO.C,R17*%
X124227500Y-131012742D02*
X124227500Y-131487258D01*
X125272500Y-131012742D02*
X125272500Y-131487258D01*
%TO.C,R7*%
X86977500Y-132262742D02*
X86977500Y-132737258D01*
X88022500Y-132262742D02*
X88022500Y-132737258D01*
%TO.C,C2*%
X88990000Y-117140580D02*
X88990000Y-116859420D01*
X90010000Y-117140580D02*
X90010000Y-116859420D01*
%TO.C,R13*%
X131977500Y-128012742D02*
X131977500Y-128487258D01*
X133022500Y-128012742D02*
X133022500Y-128487258D01*
%TO.C,R16*%
X112227500Y-124012742D02*
X112227500Y-124487258D01*
X113272500Y-124012742D02*
X113272500Y-124487258D01*
%TO.C,R8*%
X100512742Y-131977500D02*
X100987258Y-131977500D01*
X100512742Y-133022500D02*
X100987258Y-133022500D01*
%TO.C,R11*%
X91487258Y-140977500D02*
X91012742Y-140977500D01*
X91487258Y-142022500D02*
X91012742Y-142022500D01*
%TO.C,C7*%
X93330000Y-92184420D02*
X93330000Y-92465580D01*
X94350000Y-92184420D02*
X94350000Y-92465580D01*
%TO.C,C17*%
X55996920Y-131990000D02*
X56278080Y-131990000D01*
X55996920Y-133010000D02*
X56278080Y-133010000D01*
%TO.C,Q6*%
X138350000Y-142780000D02*
X138350000Y-139180000D01*
X134050000Y-140200000D02*
G75*
G02*
X138327684Y-139171555I2450000J-780000D01*
G01*
X138341741Y-142791875D02*
G75*
G02*
X134050000Y-141800000I-1841741J1811875D01*
G01*
%TO.C,R12*%
X91487258Y-142477500D02*
X91012742Y-142477500D01*
X91487258Y-143522500D02*
X91012742Y-143522500D01*
%TO.C,JP1*%
X89750000Y-99950000D02*
X89750000Y-98550000D01*
X90450000Y-97850000D02*
X91050000Y-97850000D01*
X91050000Y-100650000D02*
X90450000Y-100650000D01*
X91750000Y-98550000D02*
X91750000Y-99950000D01*
X89750000Y-98550000D02*
G75*
G02*
X90450000Y-97850000I700000J0D01*
G01*
X90450000Y-100650000D02*
G75*
G02*
X89750000Y-99950000I-1J699999D01*
G01*
X91050000Y-97850000D02*
G75*
G02*
X91750000Y-98550000I0J-700000D01*
G01*
X91750000Y-99950000D02*
G75*
G02*
X91050000Y-100650000I-699999J-1D01*
G01*
%TO.C,Q8*%
X99190000Y-142250000D02*
X99190000Y-141600000D01*
X99190000Y-142250000D02*
X99190000Y-142900000D01*
X102310000Y-142250000D02*
X102310000Y-141600000D01*
X102310000Y-142250000D02*
X102310000Y-142900000D01*
X102590000Y-141327500D02*
X102260000Y-141087500D01*
X102590000Y-140847500D01*
X102590000Y-141327500D01*
G36*
X102590000Y-141327500D02*
G01*
X102260000Y-141087500D01*
X102590000Y-140847500D01*
X102590000Y-141327500D01*
G37*
%TO.C,SW3*%
X97889999Y-72940000D02*
X97889999Y-79060000D01*
X97889999Y-79060000D02*
X102609999Y-79060000D01*
X98499999Y-73550000D02*
X98499999Y-78450000D01*
X98499999Y-75900000D02*
X98999999Y-75900000D01*
X98499999Y-76000000D02*
X98999999Y-76000000D01*
X98499999Y-78450000D02*
X101999999Y-78450000D01*
X98999999Y-75900000D02*
X98999999Y-76100000D01*
X98999999Y-76100000D02*
X98499999Y-76100000D01*
X99999999Y-72940000D02*
X99999999Y-73550000D01*
X99999999Y-79060000D02*
X99999999Y-78450000D01*
X101299999Y-72940000D02*
X101299999Y-73550000D01*
X101299999Y-79060000D02*
X101299999Y-78450000D01*
X101999999Y-73550000D02*
X98499999Y-73550000D01*
X101999999Y-75500000D02*
X101999999Y-73550000D01*
X101999999Y-76500000D02*
X102609999Y-76500000D01*
X101999999Y-78450000D02*
X101999999Y-76500000D01*
X102609999Y-72940000D02*
X97889999Y-72940000D01*
X102609999Y-74700000D02*
X102809999Y-74700000D01*
X102609999Y-75500000D02*
X101999999Y-75500000D01*
X102609999Y-79060000D02*
X102609999Y-72940000D01*
X102709999Y-74700000D02*
X102709999Y-74400000D01*
X102809999Y-74400000D02*
X102609999Y-74400000D01*
X102809999Y-74700000D02*
X102809999Y-74400000D01*
X102909999Y-72640000D02*
X101659999Y-72640000D01*
X102909999Y-73890000D02*
X102909999Y-72640000D01*
%TO.C,J1*%
X54000000Y-81125000D02*
X75500000Y-81125000D01*
X75500000Y-92375000D01*
X54000000Y-92375000D01*
X54000000Y-81125000D01*
%TO.C,Q7*%
X138350000Y-148530000D02*
X138350000Y-144930000D01*
X134050000Y-145950000D02*
G75*
G02*
X138327684Y-144921555I2450000J-780000D01*
G01*
X138341741Y-148541875D02*
G75*
G02*
X134050000Y-147550000I-1841741J1811875D01*
G01*
%TO.C,C15*%
X140380000Y-131130000D02*
X148620000Y-131130000D01*
X140380000Y-149370000D02*
X140380000Y-131130000D01*
X140380000Y-149370000D02*
X148620000Y-149370000D01*
X148620000Y-149370000D02*
X148620000Y-131130000D01*
%TO.C,C10*%
X83990000Y-126109420D02*
X83990000Y-126390580D01*
X85010000Y-126109420D02*
X85010000Y-126390580D01*
%TO.C,C11*%
X59109420Y-118240000D02*
X59390580Y-118240000D01*
X59109420Y-119260000D02*
X59390580Y-119260000D01*
%TO.C,U5*%
X56137500Y-133440000D02*
X55337500Y-133440000D01*
X56137500Y-133440000D02*
X56937500Y-133440000D01*
X56137500Y-136560000D02*
X55337500Y-136560000D01*
X56137500Y-136560000D02*
X56937500Y-136560000D01*
X57677500Y-136840000D02*
X57197500Y-136840000D01*
X57437500Y-136510000D01*
X57677500Y-136840000D01*
G36*
X57677500Y-136840000D02*
G01*
X57197500Y-136840000D01*
X57437500Y-136510000D01*
X57677500Y-136840000D01*
G37*
%TO.C,NS1*%
X77500000Y-103625000D02*
X99000000Y-103625000D01*
X99000000Y-114875000D01*
X77500000Y-114875000D01*
X77500000Y-103625000D01*
%TO.C,C20*%
X85990000Y-138640580D02*
X85990000Y-138359420D01*
X87010000Y-138640580D02*
X87010000Y-138359420D01*
%TO.C,SW2*%
X101750000Y-108250000D02*
X123250000Y-108250000D01*
X123250000Y-119500000D01*
X101750000Y-119500000D01*
X101750000Y-108250000D01*
%TO.C,R21*%
X77727500Y-95262742D02*
X77727500Y-95737258D01*
X78772500Y-95262742D02*
X78772500Y-95737258D01*
%TO.C,U4*%
X118929000Y-123396677D02*
X118929000Y-125752677D01*
X118929000Y-125117677D02*
X116299000Y-125117677D01*
X118929000Y-127882677D02*
X118929000Y-129152677D01*
X118929000Y-128517677D02*
X116315000Y-128517677D01*
X118929000Y-131282677D02*
X118929000Y-133637677D01*
X118929000Y-131917677D02*
X116315000Y-131917677D01*
X122061000Y-123396677D02*
X122061000Y-133637677D01*
X123570000Y-123396677D02*
X118929000Y-123396677D01*
X123570000Y-123396677D02*
X123570000Y-133637677D01*
X123570000Y-126667677D02*
X122061000Y-126667677D01*
X123570000Y-130367677D02*
X122061000Y-130367677D01*
X123570000Y-133637677D02*
X118929000Y-133637677D01*
%TO.C,C19*%
X86240000Y-142109420D02*
X86240000Y-142390580D01*
X87260000Y-142109420D02*
X87260000Y-142390580D01*
%TO.C,C6*%
X95609420Y-97565000D02*
X95890580Y-97565000D01*
X95609420Y-98585000D02*
X95890580Y-98585000D01*
%TO.C,C16*%
X90490000Y-132640580D02*
X90490000Y-132359420D01*
X91510000Y-132640580D02*
X91510000Y-132359420D01*
%TO.C,R31*%
X95227500Y-87987258D02*
X95227500Y-87512742D01*
X96272500Y-87987258D02*
X96272500Y-87512742D01*
%TO.C,Q1*%
X100750000Y-133690000D02*
X100100000Y-133690000D01*
X100750000Y-133690000D02*
X101400000Y-133690000D01*
X100750000Y-136810000D02*
X100100000Y-136810000D01*
X100750000Y-136810000D02*
X101400000Y-136810000D01*
X99587500Y-133740000D02*
X99347500Y-133410000D01*
X99827500Y-133410000D01*
X99587500Y-133740000D01*
G36*
X99587500Y-133740000D02*
G01*
X99347500Y-133410000D01*
X99827500Y-133410000D01*
X99587500Y-133740000D01*
G37*
%TO.C,R20*%
X79477500Y-95737258D02*
X79477500Y-95262742D01*
X80522500Y-95737258D02*
X80522500Y-95262742D01*
%TO.C,R3*%
X99477500Y-117237258D02*
X99477500Y-116762742D01*
X100522500Y-117237258D02*
X100522500Y-116762742D01*
%TO.C,R1*%
X87227500Y-117237258D02*
X87227500Y-116762742D01*
X88272500Y-117237258D02*
X88272500Y-116762742D01*
%TO.C,R26*%
X81227500Y-90487258D02*
X81227500Y-90012742D01*
X82272500Y-90487258D02*
X82272500Y-90012742D01*
%TO.C,R14*%
X131977500Y-139762742D02*
X131977500Y-140237258D01*
X133022500Y-139762742D02*
X133022500Y-140237258D01*
%TO.C,D3*%
X83040000Y-81500000D02*
X83040000Y-84185000D01*
X83040000Y-84185000D02*
X84960000Y-84185000D01*
X84960000Y-84185000D02*
X84960000Y-81500000D01*
%TO.C,Q4*%
X138350000Y-131030000D02*
X138350000Y-127430000D01*
X134050000Y-128450000D02*
G75*
G02*
X138327684Y-127421555I2450000J-780000D01*
G01*
X138341741Y-131041875D02*
G75*
G02*
X134050000Y-130050000I-1841741J1811875D01*
G01*
%TO.C,Q10*%
X77690000Y-92000000D02*
X77690000Y-91350000D01*
X77690000Y-92000000D02*
X77690000Y-92650000D01*
X80810000Y-92000000D02*
X80810000Y-91350000D01*
X80810000Y-92000000D02*
X80810000Y-92650000D01*
X81090000Y-91077500D02*
X80760000Y-90837500D01*
X81090000Y-90597500D01*
X81090000Y-91077500D01*
G36*
X81090000Y-91077500D02*
G01*
X80760000Y-90837500D01*
X81090000Y-90597500D01*
X81090000Y-91077500D01*
G37*
%TO.C,Q2*%
X133100000Y-136780000D02*
X133100000Y-133180000D01*
X128800000Y-134200000D02*
G75*
G02*
X133077684Y-133171555I2450000J-780000D01*
G01*
X133091741Y-136791875D02*
G75*
G02*
X128800000Y-135800000I-1841741J1811875D01*
G01*
%TO.C,Q3*%
X133100000Y-148530000D02*
X133100000Y-144930000D01*
X128800000Y-145950000D02*
G75*
G02*
X133077684Y-144921555I2450000J-780000D01*
G01*
X133091741Y-148541875D02*
G75*
G02*
X128800000Y-147550000I-1841741J1811875D01*
G01*
%TO.C,D1*%
X125710000Y-134350000D02*
X118300000Y-134350000D01*
X125710000Y-138650000D02*
X118300000Y-138650000D01*
X125710000Y-138650000D02*
X125710000Y-134350000D01*
%TO.C,R33*%
X101262742Y-92727500D02*
X101737258Y-92727500D01*
X101262742Y-93772500D02*
X101737258Y-93772500D01*
%TO.C,R15*%
X88727500Y-132737258D02*
X88727500Y-132262742D01*
X89772500Y-132737258D02*
X89772500Y-132262742D01*
%TO.C,C12*%
X102920000Y-131037677D02*
X113080000Y-131037677D01*
X102920000Y-131077677D02*
X113080000Y-131077677D01*
X102920000Y-131117677D02*
X113080000Y-131117677D01*
X102921000Y-130997677D02*
X113079000Y-130997677D01*
X102922000Y-130957677D02*
X113078000Y-130957677D01*
X102923000Y-130917677D02*
X113077000Y-130917677D01*
X102925000Y-130877677D02*
X113075000Y-130877677D01*
X102927000Y-130837677D02*
X113073000Y-130837677D01*
X102930000Y-130797677D02*
X113070000Y-130797677D01*
X102932000Y-130757677D02*
X113068000Y-130757677D01*
X102935000Y-130717677D02*
X113065000Y-130717677D01*
X102938000Y-130677677D02*
X113062000Y-130677677D01*
X102942000Y-130637677D02*
X113058000Y-130637677D01*
X102946000Y-130597677D02*
X113054000Y-130597677D01*
X102950000Y-130557677D02*
X113050000Y-130557677D01*
X102955000Y-130517677D02*
X113045000Y-130517677D01*
X102960000Y-130477677D02*
X113040000Y-130477677D01*
X102965000Y-130437677D02*
X113035000Y-130437677D01*
X102970000Y-130396677D02*
X113030000Y-130396677D01*
X102976000Y-130356677D02*
X113024000Y-130356677D01*
X102982000Y-130316677D02*
X113018000Y-130316677D01*
X102989000Y-130276677D02*
X113011000Y-130276677D01*
X102996000Y-130236677D02*
X113004000Y-130236677D01*
X103003000Y-130196677D02*
X112997000Y-130196677D01*
X103010000Y-130156677D02*
X112990000Y-130156677D01*
X103018000Y-130116677D02*
X112982000Y-130116677D01*
X103026000Y-130076677D02*
X112974000Y-130076677D01*
X103035000Y-130036677D02*
X112965000Y-130036677D01*
X103044000Y-129996677D02*
X112956000Y-129996677D01*
X103053000Y-129956677D02*
X112947000Y-129956677D01*
X103062000Y-129916677D02*
X112938000Y-129916677D01*
X103072000Y-129876677D02*
X112928000Y-129876677D01*
X103082000Y-129836677D02*
X106759000Y-129836677D01*
X103093000Y-129796677D02*
X106759000Y-129796677D01*
X103103000Y-129756677D02*
X106759000Y-129756677D01*
X103115000Y-129716677D02*
X106759000Y-129716677D01*
X103126000Y-129676677D02*
X106759000Y-129676677D01*
X103138000Y-129636677D02*
X106759000Y-129636677D01*
X103150000Y-129596677D02*
X106759000Y-129596677D01*
X103163000Y-129556677D02*
X106759000Y-129556677D01*
X103176000Y-129516677D02*
X106759000Y-129516677D01*
X103189000Y-129476677D02*
X106759000Y-129476677D01*
X103203000Y-129436677D02*
X106759000Y-129436677D01*
X103217000Y-129396677D02*
X106759000Y-129396677D01*
X103232000Y-129356677D02*
X106759000Y-129356677D01*
X103246000Y-129316677D02*
X106759000Y-129316677D01*
X103262000Y-129276677D02*
X106759000Y-129276677D01*
X103277000Y-129236677D02*
X106759000Y-129236677D01*
X103293000Y-129196677D02*
X106759000Y-129196677D01*
X103310000Y-129156677D02*
X106759000Y-129156677D01*
X103326000Y-129116677D02*
X106759000Y-129116677D01*
X103343000Y-129076677D02*
X106759000Y-129076677D01*
X103361000Y-129036677D02*
X106759000Y-129036677D01*
X103379000Y-128996677D02*
X106759000Y-128996677D01*
X103397000Y-128956677D02*
X106759000Y-128956677D01*
X103416000Y-128916677D02*
X106759000Y-128916677D01*
X103436000Y-128876677D02*
X106759000Y-128876677D01*
X103455000Y-128836677D02*
X106759000Y-128836677D01*
X103475000Y-128796677D02*
X106759000Y-128796677D01*
X103496000Y-128756677D02*
X106759000Y-128756677D01*
X103517000Y-128716677D02*
X106759000Y-128716677D01*
X103538000Y-128676677D02*
X106759000Y-128676677D01*
X103560000Y-128636677D02*
X106759000Y-128636677D01*
X103583000Y-128596677D02*
X106759000Y-128596677D01*
X103605000Y-128556677D02*
X106759000Y-128556677D01*
X103629000Y-128516677D02*
X106759000Y-128516677D01*
X103653000Y-128476677D02*
X106759000Y-128476677D01*
X103677000Y-128436677D02*
X106759000Y-128436677D01*
X103702000Y-128396677D02*
X106759000Y-128396677D01*
X103727000Y-128356677D02*
X106759000Y-128356677D01*
X103753000Y-128316677D02*
X106759000Y-128316677D01*
X103779000Y-128276677D02*
X106759000Y-128276677D01*
X103806000Y-128236677D02*
X106759000Y-128236677D01*
X103834000Y-128196677D02*
X106759000Y-128196677D01*
X103862000Y-128156677D02*
X106759000Y-128156677D01*
X103890000Y-128116677D02*
X106759000Y-128116677D01*
X103920000Y-128076677D02*
X106759000Y-128076677D01*
X103950000Y-128036677D02*
X106759000Y-128036677D01*
X103980000Y-127996677D02*
X106759000Y-127996677D01*
X104011000Y-127956677D02*
X106759000Y-127956677D01*
X104043000Y-127916677D02*
X106759000Y-127916677D01*
X104075000Y-127876677D02*
X106759000Y-127876677D01*
X104108000Y-127836677D02*
X106759000Y-127836677D01*
X104142000Y-127796677D02*
X106759000Y-127796677D01*
X104176000Y-127756677D02*
X106759000Y-127756677D01*
X104211000Y-127716677D02*
X106759000Y-127716677D01*
X104247000Y-127676677D02*
X106759000Y-127676677D01*
X104284000Y-127636677D02*
X106759000Y-127636677D01*
X104321000Y-127596677D02*
X106759000Y-127596677D01*
X104360000Y-127556677D02*
X106759000Y-127556677D01*
X104399000Y-127516677D02*
X106759000Y-127516677D01*
X104439000Y-127476677D02*
X106759000Y-127476677D01*
X104480000Y-127436677D02*
X106759000Y-127436677D01*
X104522000Y-127396677D02*
X106759000Y-127396677D01*
X104564000Y-127356677D02*
X111436000Y-127356677D01*
X104608000Y-127316677D02*
X111392000Y-127316677D01*
X104625000Y-136097323D02*
X105625000Y-136097323D01*
X104653000Y-127276677D02*
X111347000Y-127276677D01*
X104699000Y-127236677D02*
X111301000Y-127236677D01*
X104746000Y-127196677D02*
X111254000Y-127196677D01*
X104794000Y-127156677D02*
X111206000Y-127156677D01*
X104844000Y-127116677D02*
X111156000Y-127116677D01*
X104894000Y-127076677D02*
X111106000Y-127076677D01*
X104946000Y-127036677D02*
X111054000Y-127036677D01*
X105000000Y-126996677D02*
X111000000Y-126996677D01*
X105055000Y-126956677D02*
X110945000Y-126956677D01*
X105111000Y-126916677D02*
X110889000Y-126916677D01*
X105125000Y-136597323D02*
X105125000Y-135597323D01*
X105170000Y-126876677D02*
X110830000Y-126876677D01*
X105230000Y-126836677D02*
X110770000Y-126836677D01*
X105291000Y-126796677D02*
X110709000Y-126796677D01*
X105355000Y-126756677D02*
X110645000Y-126756677D01*
X105421000Y-126716677D02*
X110579000Y-126716677D01*
X105490000Y-126676677D02*
X110510000Y-126676677D01*
X105561000Y-126636677D02*
X110439000Y-126636677D01*
X105635000Y-126596677D02*
X110365000Y-126596677D01*
X105711000Y-126556677D02*
X110289000Y-126556677D01*
X105791000Y-126516677D02*
X110209000Y-126516677D01*
X105875000Y-126476677D02*
X110125000Y-126476677D01*
X105963000Y-126436677D02*
X110037000Y-126436677D01*
X106056000Y-126396677D02*
X109944000Y-126396677D01*
X106154000Y-126356677D02*
X109846000Y-126356677D01*
X106258000Y-126316677D02*
X109742000Y-126316677D01*
X106370000Y-126276677D02*
X109630000Y-126276677D01*
X106490000Y-126236677D02*
X109510000Y-126236677D01*
X106622000Y-126196677D02*
X109378000Y-126196677D01*
X106770000Y-126156677D02*
X109230000Y-126156677D01*
X106938000Y-126116677D02*
X109062000Y-126116677D01*
X107138000Y-126076677D02*
X108862000Y-126076677D01*
X107401000Y-126036677D02*
X108599000Y-126036677D01*
X109241000Y-127396677D02*
X111478000Y-127396677D01*
X109241000Y-127436677D02*
X111520000Y-127436677D01*
X109241000Y-127476677D02*
X111561000Y-127476677D01*
X109241000Y-127516677D02*
X111601000Y-127516677D01*
X109241000Y-127556677D02*
X111640000Y-127556677D01*
X109241000Y-127596677D02*
X111679000Y-127596677D01*
X109241000Y-127636677D02*
X111716000Y-127636677D01*
X109241000Y-127676677D02*
X111753000Y-127676677D01*
X109241000Y-127716677D02*
X111789000Y-127716677D01*
X109241000Y-127756677D02*
X111824000Y-127756677D01*
X109241000Y-127796677D02*
X111858000Y-127796677D01*
X109241000Y-127836677D02*
X111892000Y-127836677D01*
X109241000Y-127876677D02*
X111925000Y-127876677D01*
X109241000Y-127916677D02*
X111957000Y-127916677D01*
X109241000Y-127956677D02*
X111989000Y-127956677D01*
X109241000Y-127996677D02*
X112020000Y-127996677D01*
X109241000Y-128036677D02*
X112050000Y-128036677D01*
X109241000Y-128076677D02*
X112080000Y-128076677D01*
X109241000Y-128116677D02*
X112110000Y-128116677D01*
X109241000Y-128156677D02*
X112138000Y-128156677D01*
X109241000Y-128196677D02*
X112166000Y-128196677D01*
X109241000Y-128236677D02*
X112194000Y-128236677D01*
X109241000Y-128276677D02*
X112221000Y-128276677D01*
X109241000Y-128316677D02*
X112247000Y-128316677D01*
X109241000Y-128356677D02*
X112273000Y-128356677D01*
X109241000Y-128396677D02*
X112298000Y-128396677D01*
X109241000Y-128436677D02*
X112323000Y-128436677D01*
X109241000Y-128476677D02*
X112347000Y-128476677D01*
X109241000Y-128516677D02*
X112371000Y-128516677D01*
X109241000Y-128556677D02*
X112395000Y-128556677D01*
X109241000Y-128596677D02*
X112417000Y-128596677D01*
X109241000Y-128636677D02*
X112440000Y-128636677D01*
X109241000Y-128676677D02*
X112462000Y-128676677D01*
X109241000Y-128716677D02*
X112483000Y-128716677D01*
X109241000Y-128756677D02*
X112504000Y-128756677D01*
X109241000Y-128796677D02*
X112525000Y-128796677D01*
X109241000Y-128836677D02*
X112545000Y-128836677D01*
X109241000Y-128876677D02*
X112564000Y-128876677D01*
X109241000Y-128916677D02*
X112584000Y-128916677D01*
X109241000Y-128956677D02*
X112603000Y-128956677D01*
X109241000Y-128996677D02*
X112621000Y-128996677D01*
X109241000Y-129036677D02*
X112639000Y-129036677D01*
X109241000Y-129076677D02*
X112657000Y-129076677D01*
X109241000Y-129116677D02*
X112674000Y-129116677D01*
X109241000Y-129156677D02*
X112690000Y-129156677D01*
X109241000Y-129196677D02*
X112707000Y-129196677D01*
X109241000Y-129236677D02*
X112723000Y-129236677D01*
X109241000Y-129276677D02*
X112738000Y-129276677D01*
X109241000Y-129316677D02*
X112754000Y-129316677D01*
X109241000Y-129356677D02*
X112768000Y-129356677D01*
X109241000Y-129396677D02*
X112783000Y-129396677D01*
X109241000Y-129436677D02*
X112797000Y-129436677D01*
X109241000Y-129476677D02*
X112811000Y-129476677D01*
X109241000Y-129516677D02*
X112824000Y-129516677D01*
X109241000Y-129556677D02*
X112837000Y-129556677D01*
X109241000Y-129596677D02*
X112850000Y-129596677D01*
X109241000Y-129636677D02*
X112862000Y-129636677D01*
X109241000Y-129676677D02*
X112874000Y-129676677D01*
X109241000Y-129716677D02*
X112885000Y-129716677D01*
X109241000Y-129756677D02*
X112897000Y-129756677D01*
X109241000Y-129796677D02*
X112907000Y-129796677D01*
X109241000Y-129836677D02*
X112918000Y-129836677D01*
X113120000Y-131117677D02*
G75*
G02*
X102880000Y-131117677I-5120000J0D01*
G01*
X102880000Y-131117677D02*
G75*
G02*
X113120000Y-131117677I5120000J0D01*
G01*
%TO.C,R28*%
X89727500Y-95762742D02*
X89727500Y-96237258D01*
X90772500Y-95762742D02*
X90772500Y-96237258D01*
%TO.C,R29*%
X88227500Y-95762742D02*
X88227500Y-96237258D01*
X89272500Y-95762742D02*
X89272500Y-96237258D01*
%TO.C,L2*%
X116870000Y-143000000D02*
G75*
G02*
X104130000Y-143000000I-6370000J0D01*
G01*
X104130000Y-143000000D02*
G75*
G02*
X116870000Y-143000000I6370000J0D01*
G01*
%TO.C,C1*%
X90740000Y-117140580D02*
X90740000Y-116859420D01*
X91760000Y-117140580D02*
X91760000Y-116859420D01*
%TO.C,J3*%
X50807500Y-137530000D02*
X50807500Y-129850000D01*
X53467500Y-129850000D02*
X50807500Y-129850000D01*
X53467500Y-137530000D02*
X50807500Y-137530000D01*
X53467500Y-137530000D02*
X53467500Y-129850000D01*
X53467500Y-138800000D02*
X53467500Y-140130000D01*
X53467500Y-140130000D02*
X52137500Y-140130000D01*
%TO.C,L1*%
X164920553Y-112745927D02*
X155748096Y-122651280D01*
X152079447Y-119254073D01*
X161251904Y-109348720D01*
X164920553Y-112745927D01*
%TD*%
%LPC*%
D13*
%TO.C,R30*%
X97250000Y-88575000D03*
X97250000Y-86925000D03*
%TD*%
%TO.C,R2*%
X93000000Y-117825000D03*
X93000000Y-116175000D03*
%TD*%
D14*
%TO.C,R22*%
X80075000Y-89250000D03*
X78425000Y-89250000D03*
%TD*%
D15*
%TO.C,C13*%
X111062500Y-124000000D03*
X107937500Y-124000000D03*
%TD*%
D16*
%TO.C,C8*%
X82000000Y-125475000D03*
X82000000Y-127025000D03*
%TD*%
D17*
%TO.C,R19*%
X85000000Y-137675000D03*
X85000000Y-139325000D03*
%TD*%
D18*
%TO.C,BT1*%
X90750000Y-84550000D03*
D19*
X88750000Y-84550000D03*
%TD*%
D20*
%TO.C,JP2*%
X88250000Y-99900000D03*
D21*
X88250000Y-98600000D03*
%TD*%
D17*
%TO.C,R5*%
X84000000Y-131675000D03*
X84000000Y-133325000D03*
%TD*%
%TO.C,R23*%
X82250000Y-96425000D03*
X82250000Y-98075000D03*
%TD*%
D22*
%TO.C,U3*%
X95500000Y-96150000D03*
X96000000Y-96150000D03*
X96500000Y-96150000D03*
X97000000Y-96150000D03*
X97500000Y-96150000D03*
X97500000Y-91850000D03*
X97000000Y-91850000D03*
X96500000Y-91850000D03*
X96000000Y-91850000D03*
X95500000Y-91850000D03*
D23*
X96500000Y-94000000D03*
%TD*%
D24*
%TO.C,Q5*%
X136900000Y-136250000D03*
D25*
X134830000Y-134980000D03*
X136900000Y-133710000D03*
%TD*%
D26*
%TO.C,U2*%
X81000000Y-143000000D03*
X81000000Y-141500000D03*
X81000000Y-140000000D03*
X81000000Y-138500000D03*
X81000000Y-137000000D03*
X81000000Y-135500000D03*
X81000000Y-134000000D03*
X81000000Y-132500000D03*
X81000000Y-131000000D03*
X63500000Y-131000000D03*
X63500000Y-132500000D03*
X63500000Y-134000000D03*
X63500000Y-135500000D03*
X63500000Y-137000000D03*
X63500000Y-138500000D03*
X63500000Y-140000000D03*
X63500000Y-141500000D03*
X63500000Y-143000000D03*
D27*
X72390000Y-137350000D03*
X72390000Y-136250000D03*
X71840000Y-137900000D03*
X71840000Y-136800000D03*
X71840000Y-135700000D03*
X71290000Y-137350000D03*
D28*
X71290000Y-136800000D03*
D27*
X71290000Y-136250000D03*
X70740000Y-137900000D03*
X70740000Y-136800000D03*
X70740000Y-135700000D03*
X70190000Y-137350000D03*
X70190000Y-136250000D03*
%TD*%
D29*
%TO.C,SW1*%
X117250000Y-89000000D03*
D30*
X138500000Y-103000000D03*
D29*
X159750000Y-89000000D03*
D31*
X124750000Y-76000000D03*
X127250000Y-71000000D03*
X137250000Y-76000000D03*
X139750000Y-71000000D03*
X142250000Y-76000000D03*
X147250000Y-76000000D03*
X149750000Y-71000000D03*
X152250000Y-76000000D03*
%TD*%
D17*
%TO.C,R10*%
X101750000Y-137925000D03*
X101750000Y-139575000D03*
%TD*%
D32*
%TO.C,C9*%
X80275000Y-121750000D03*
X78725000Y-121750000D03*
%TD*%
D33*
%TO.C,C14*%
X125000000Y-144250000D03*
D34*
X120000000Y-144250000D03*
%TD*%
D35*
%TO.C,D4*%
X100850000Y-81000000D03*
X104150000Y-81000000D03*
%TD*%
D36*
%TO.C,U8*%
X84387500Y-123700000D03*
X84387500Y-122750000D03*
X84387500Y-121800000D03*
X82112500Y-121800000D03*
X82112500Y-123700000D03*
%TD*%
D17*
%TO.C,R18*%
X124750000Y-127175000D03*
X124750000Y-128825000D03*
%TD*%
D37*
%TO.C,C3*%
X98250000Y-117775000D03*
X98250000Y-116225000D03*
%TD*%
%TO.C,C4*%
X96500000Y-117775000D03*
X96500000Y-116225000D03*
%TD*%
D17*
%TO.C,R6*%
X85750000Y-131675000D03*
X85750000Y-133325000D03*
%TD*%
D16*
%TO.C,C5*%
X85000000Y-141475000D03*
X85000000Y-143025000D03*
%TD*%
D38*
%TO.C,Q11*%
X81800000Y-94687500D03*
X83700000Y-94687500D03*
X82750000Y-92812500D03*
%TD*%
D17*
%TO.C,R9*%
X99750000Y-137925000D03*
X99750000Y-139575000D03*
%TD*%
D39*
%TO.C,R32*%
X100675000Y-95000000D03*
X102325000Y-95000000D03*
%TD*%
D34*
%TO.C,SW4*%
X58500000Y-127000000D03*
X52000000Y-127000000D03*
X58500000Y-122500000D03*
X52000000Y-122500000D03*
%TD*%
D40*
%TO.C,U1*%
X58555000Y-116045000D03*
X61095000Y-116045000D03*
X63635000Y-116045000D03*
X66175000Y-116045000D03*
X68715000Y-116045000D03*
X71255000Y-94455000D03*
X68715000Y-94455000D03*
X66175000Y-94455000D03*
X63635000Y-94455000D03*
X61095000Y-94455000D03*
X58555000Y-94455000D03*
%TD*%
D41*
%TO.C,D2*%
X81750000Y-83437500D03*
X81750000Y-81562500D03*
%TD*%
D13*
%TO.C,R4*%
X94750000Y-117825000D03*
X94750000Y-116175000D03*
%TD*%
D17*
%TO.C,R17*%
X124750000Y-130425000D03*
X124750000Y-132075000D03*
%TD*%
%TO.C,R7*%
X87500000Y-131675000D03*
X87500000Y-133325000D03*
%TD*%
D37*
%TO.C,C2*%
X89500000Y-117775000D03*
X89500000Y-116225000D03*
%TD*%
D17*
%TO.C,R13*%
X132500000Y-127425000D03*
X132500000Y-129075000D03*
%TD*%
%TO.C,R16*%
X112750000Y-123425000D03*
X112750000Y-125075000D03*
%TD*%
D39*
%TO.C,R8*%
X99925000Y-132500000D03*
X101575000Y-132500000D03*
%TD*%
D14*
%TO.C,R11*%
X92075000Y-141500000D03*
X90425000Y-141500000D03*
%TD*%
D16*
%TO.C,C7*%
X93840000Y-91550000D03*
X93840000Y-93100000D03*
%TD*%
D42*
%TO.C,C17*%
X55362500Y-132500000D03*
X56912500Y-132500000D03*
%TD*%
D24*
%TO.C,Q6*%
X136900000Y-142250000D03*
D25*
X134830000Y-140980000D03*
X136900000Y-139710000D03*
%TD*%
D14*
%TO.C,R12*%
X92075000Y-143000000D03*
X90425000Y-143000000D03*
%TD*%
D20*
%TO.C,JP1*%
X90750000Y-99900000D03*
D21*
X90750000Y-98600000D03*
%TD*%
D43*
%TO.C,Q8*%
X101700000Y-141312500D03*
X99800000Y-141312500D03*
X100750000Y-143187500D03*
%TD*%
D44*
%TO.C,SW3*%
X100799999Y-75000000D03*
D45*
X100799999Y-77000000D03*
%TD*%
D46*
%TO.C,J1*%
X56100951Y-84225951D03*
X58399049Y-86524049D03*
X61100951Y-84225951D03*
X63399049Y-86524049D03*
X66100951Y-84225951D03*
X68399049Y-86524049D03*
X71100951Y-84225951D03*
X73399049Y-86524049D03*
%TD*%
D24*
%TO.C,Q7*%
X136900000Y-148000000D03*
D25*
X134830000Y-146730000D03*
X136900000Y-145460000D03*
%TD*%
D47*
%TO.C,C15*%
X144500000Y-147750000D03*
X144500000Y-132750000D03*
%TD*%
D16*
%TO.C,C10*%
X84500000Y-125475000D03*
X84500000Y-127025000D03*
%TD*%
D42*
%TO.C,C11*%
X58475000Y-118750000D03*
X60025000Y-118750000D03*
%TD*%
D36*
%TO.C,U5*%
X57275000Y-135950000D03*
X57275000Y-135000000D03*
X57275000Y-134050000D03*
X55000000Y-134050000D03*
X55000000Y-135000000D03*
X55000000Y-135950000D03*
%TD*%
D46*
%TO.C,NS1*%
X79600951Y-106725951D03*
X81899049Y-109024049D03*
X84600951Y-106725951D03*
X86899049Y-109024049D03*
X89600951Y-106725951D03*
X91899049Y-109024049D03*
X94600951Y-106725951D03*
X96899049Y-109024049D03*
%TD*%
D37*
%TO.C,C20*%
X86500000Y-139275000D03*
X86500000Y-137725000D03*
%TD*%
D46*
%TO.C,SW2*%
X103850951Y-111350951D03*
X106149049Y-113649049D03*
X108850951Y-111350951D03*
X111149049Y-113649049D03*
X113850951Y-111350951D03*
X116149049Y-113649049D03*
X118850951Y-111350951D03*
X121149049Y-113649049D03*
%TD*%
D17*
%TO.C,R21*%
X78250000Y-94675000D03*
X78250000Y-96325000D03*
%TD*%
D48*
%TO.C,U4*%
X115250000Y-125117677D03*
D49*
X118950000Y-126817677D03*
X115250000Y-128517677D03*
X118950000Y-130217677D03*
X115250000Y-131917677D03*
%TD*%
D16*
%TO.C,C19*%
X86750000Y-141475000D03*
X86750000Y-143025000D03*
%TD*%
D42*
%TO.C,C6*%
X94975000Y-98075000D03*
X96525000Y-98075000D03*
%TD*%
D37*
%TO.C,C16*%
X91000000Y-133275000D03*
X91000000Y-131725000D03*
%TD*%
D13*
%TO.C,R31*%
X95750000Y-88575000D03*
X95750000Y-86925000D03*
%TD*%
D50*
%TO.C,Q1*%
X99812500Y-134300000D03*
X99812500Y-136200000D03*
X101687500Y-135250000D03*
%TD*%
D13*
%TO.C,R20*%
X80000000Y-96325000D03*
X80000000Y-94675000D03*
%TD*%
%TO.C,R3*%
X100000000Y-117825000D03*
X100000000Y-116175000D03*
%TD*%
%TO.C,R1*%
X87750000Y-117825000D03*
X87750000Y-116175000D03*
%TD*%
%TO.C,R26*%
X81750000Y-91075000D03*
X81750000Y-89425000D03*
%TD*%
D17*
%TO.C,R14*%
X132500000Y-139175000D03*
X132500000Y-140825000D03*
%TD*%
D41*
%TO.C,D3*%
X84000000Y-83437500D03*
X84000000Y-81562500D03*
%TD*%
D24*
%TO.C,Q4*%
X136900000Y-130500000D03*
D25*
X134830000Y-129230000D03*
X136900000Y-127960000D03*
%TD*%
D43*
%TO.C,Q10*%
X80200000Y-91062500D03*
X78300000Y-91062500D03*
X79250000Y-92937500D03*
%TD*%
D24*
%TO.C,Q2*%
X131650000Y-136250000D03*
D25*
X129580000Y-134980000D03*
X131650000Y-133710000D03*
%TD*%
D24*
%TO.C,Q3*%
X131650000Y-148000000D03*
D25*
X129580000Y-146730000D03*
X131650000Y-145460000D03*
%TD*%
D51*
%TO.C,D1*%
X123700000Y-136500000D03*
X118300000Y-136500000D03*
%TD*%
D39*
%TO.C,R33*%
X100675000Y-93250000D03*
X102325000Y-93250000D03*
%TD*%
D13*
%TO.C,R15*%
X89250000Y-133325000D03*
X89250000Y-131675000D03*
%TD*%
D33*
%TO.C,C12*%
X108000000Y-133617677D03*
D34*
X108000000Y-128617677D03*
%TD*%
D17*
%TO.C,R28*%
X90250000Y-95175000D03*
X90250000Y-96825000D03*
%TD*%
%TO.C,R29*%
X88750000Y-95175000D03*
X88750000Y-96825000D03*
%TD*%
D47*
%TO.C,L2*%
X107000000Y-143000000D03*
X114000000Y-143000000D03*
%TD*%
D37*
%TO.C,C1*%
X91250000Y-117775000D03*
X91250000Y-116225000D03*
%TD*%
D52*
%TO.C,J3*%
X52137500Y-138800000D03*
D53*
X52137500Y-136260000D03*
X52137500Y-133720000D03*
X52137500Y-131180000D03*
%TD*%
D54*
%TO.C,L1*%
X162671708Y-113186133D03*
X159424102Y-113310893D03*
X157575898Y-118689107D03*
X154328292Y-118813867D03*
%TD*%
%LPD*%
M02*
