%TF.GenerationSoftware,KiCad,Pcbnew,8.0.5-8.0.5-0~ubuntu22.04.1*%
%TF.CreationDate,2024-10-04T16:16:11+02:00*%
%TF.ProjectId,wandfernsprecher,77616e64-6665-4726-9e73-707265636865,0.1.0*%
%TF.SameCoordinates,Original*%
%TF.FileFunction,Legend,Top*%
%TF.FilePolarity,Positive*%
%FSLAX46Y46*%
G04 Gerber Fmt 4.6, Leading zero omitted, Abs format (unit mm)*
G04 Created by KiCad (PCBNEW 8.0.5-8.0.5-0~ubuntu22.04.1) date 2024-10-04 16:16:11*
%MOMM*%
%LPD*%
G01*
G04 APERTURE LIST*
G04 Aperture macros list*
%AMRoundRect*
0 Rectangle with rounded corners*
0 $1 Rounding radius*
0 $2 $3 $4 $5 $6 $7 $8 $9 X,Y pos of 4 corners*
0 Add a 4 corners polygon primitive as box body*
4,1,4,$2,$3,$4,$5,$6,$7,$8,$9,$2,$3,0*
0 Add four circle primitives for the rounded corners*
1,1,$1+$1,$2,$3*
1,1,$1+$1,$4,$5*
1,1,$1+$1,$6,$7*
1,1,$1+$1,$8,$9*
0 Add four rect primitives between the rounded corners*
20,1,$1+$1,$2,$3,$4,$5,0*
20,1,$1+$1,$4,$5,$6,$7,0*
20,1,$1+$1,$6,$7,$8,$9,0*
20,1,$1+$1,$8,$9,$2,$3,0*%
G04 Aperture macros list end*
%ADD10C,0.150000*%
%ADD11C,0.300000*%
%ADD12C,0.120000*%
%ADD13RoundRect,0.200000X-0.200000X-0.275000X0.200000X-0.275000X0.200000X0.275000X-0.200000X0.275000X0*%
%ADD14RoundRect,0.250000X-1.100000X0.412500X-1.100000X-0.412500X1.100000X-0.412500X1.100000X0.412500X0*%
%ADD15RoundRect,0.075000X-0.650000X-0.075000X0.650000X-0.075000X0.650000X0.075000X-0.650000X0.075000X0*%
%ADD16R,1.570000X1.880000*%
%ADD17R,1.800000X1.100000*%
%ADD18RoundRect,0.275000X0.625000X-0.275000X0.625000X0.275000X-0.625000X0.275000X-0.625000X-0.275000X0*%
%ADD19R,1.500000X0.900000*%
%ADD20R,0.700000X0.700000*%
%ADD21C,4.100000*%
%ADD22C,2.100000*%
%ADD23C,2.750000*%
%ADD24R,2.000000X2.000000*%
%ADD25C,2.000000*%
%ADD26RoundRect,0.200000X0.200000X0.275000X-0.200000X0.275000X-0.200000X-0.275000X0.200000X-0.275000X0*%
%ADD27RoundRect,0.225000X-0.225000X-0.250000X0.225000X-0.250000X0.225000X0.250000X-0.225000X0.250000X0*%
%ADD28RoundRect,0.150000X-0.587500X-0.150000X0.587500X-0.150000X0.587500X0.150000X-0.587500X0.150000X0*%
%ADD29C,1.524000*%
%ADD30RoundRect,0.225000X-0.250000X0.225000X-0.250000X-0.225000X0.250000X-0.225000X0.250000X0.225000X0*%
%ADD31RoundRect,0.200000X-0.275000X0.200000X-0.275000X-0.200000X0.275000X-0.200000X0.275000X0.200000X0*%
%ADD32RoundRect,0.200000X0.275000X-0.200000X0.275000X0.200000X-0.275000X0.200000X-0.275000X-0.200000X0*%
%ADD33C,0.650000*%
%ADD34R,0.600000X1.450000*%
%ADD35R,0.300000X1.450000*%
%ADD36O,1.000000X2.100000*%
%ADD37O,1.000000X1.600000*%
%ADD38C,2.500000*%
%ADD39C,2.400000*%
%ADD40RoundRect,0.150000X-0.512500X-0.150000X0.512500X-0.150000X0.512500X0.150000X-0.512500X0.150000X0*%
%ADD41R,1.800000X1.800000*%
%ADD42O,1.800000X1.800000*%
%ADD43RoundRect,0.250000X-0.900000X1.500000X-0.900000X-1.500000X0.900000X-1.500000X0.900000X1.500000X0*%
%ADD44RoundRect,0.250000X-0.350000X-0.625000X0.350000X-0.625000X0.350000X0.625000X-0.350000X0.625000X0*%
%ADD45O,1.200000X1.750000*%
G04 APERTURE END LIST*
D10*
X108833333Y-144524819D02*
X108500000Y-144048628D01*
X108261905Y-144524819D02*
X108261905Y-143524819D01*
X108261905Y-143524819D02*
X108642857Y-143524819D01*
X108642857Y-143524819D02*
X108738095Y-143572438D01*
X108738095Y-143572438D02*
X108785714Y-143620057D01*
X108785714Y-143620057D02*
X108833333Y-143715295D01*
X108833333Y-143715295D02*
X108833333Y-143858152D01*
X108833333Y-143858152D02*
X108785714Y-143953390D01*
X108785714Y-143953390D02*
X108738095Y-144001009D01*
X108738095Y-144001009D02*
X108642857Y-144048628D01*
X108642857Y-144048628D02*
X108261905Y-144048628D01*
X109214286Y-143620057D02*
X109261905Y-143572438D01*
X109261905Y-143572438D02*
X109357143Y-143524819D01*
X109357143Y-143524819D02*
X109595238Y-143524819D01*
X109595238Y-143524819D02*
X109690476Y-143572438D01*
X109690476Y-143572438D02*
X109738095Y-143620057D01*
X109738095Y-143620057D02*
X109785714Y-143715295D01*
X109785714Y-143715295D02*
X109785714Y-143810533D01*
X109785714Y-143810533D02*
X109738095Y-143953390D01*
X109738095Y-143953390D02*
X109166667Y-144524819D01*
X109166667Y-144524819D02*
X109785714Y-144524819D01*
X52857142Y-42524819D02*
X52523809Y-42048628D01*
X52285714Y-42524819D02*
X52285714Y-41524819D01*
X52285714Y-41524819D02*
X52666666Y-41524819D01*
X52666666Y-41524819D02*
X52761904Y-41572438D01*
X52761904Y-41572438D02*
X52809523Y-41620057D01*
X52809523Y-41620057D02*
X52857142Y-41715295D01*
X52857142Y-41715295D02*
X52857142Y-41858152D01*
X52857142Y-41858152D02*
X52809523Y-41953390D01*
X52809523Y-41953390D02*
X52761904Y-42001009D01*
X52761904Y-42001009D02*
X52666666Y-42048628D01*
X52666666Y-42048628D02*
X52285714Y-42048628D01*
X53238095Y-41620057D02*
X53285714Y-41572438D01*
X53285714Y-41572438D02*
X53380952Y-41524819D01*
X53380952Y-41524819D02*
X53619047Y-41524819D01*
X53619047Y-41524819D02*
X53714285Y-41572438D01*
X53714285Y-41572438D02*
X53761904Y-41620057D01*
X53761904Y-41620057D02*
X53809523Y-41715295D01*
X53809523Y-41715295D02*
X53809523Y-41810533D01*
X53809523Y-41810533D02*
X53761904Y-41953390D01*
X53761904Y-41953390D02*
X53190476Y-42524819D01*
X53190476Y-42524819D02*
X53809523Y-42524819D01*
X54190476Y-41620057D02*
X54238095Y-41572438D01*
X54238095Y-41572438D02*
X54333333Y-41524819D01*
X54333333Y-41524819D02*
X54571428Y-41524819D01*
X54571428Y-41524819D02*
X54666666Y-41572438D01*
X54666666Y-41572438D02*
X54714285Y-41620057D01*
X54714285Y-41620057D02*
X54761904Y-41715295D01*
X54761904Y-41715295D02*
X54761904Y-41810533D01*
X54761904Y-41810533D02*
X54714285Y-41953390D01*
X54714285Y-41953390D02*
X54142857Y-42524819D01*
X54142857Y-42524819D02*
X54761904Y-42524819D01*
X-73840419Y-3642857D02*
X-73792800Y-3690476D01*
X-73792800Y-3690476D02*
X-73745180Y-3833333D01*
X-73745180Y-3833333D02*
X-73745180Y-3928571D01*
X-73745180Y-3928571D02*
X-73792800Y-4071428D01*
X-73792800Y-4071428D02*
X-73888038Y-4166666D01*
X-73888038Y-4166666D02*
X-73983276Y-4214285D01*
X-73983276Y-4214285D02*
X-74173752Y-4261904D01*
X-74173752Y-4261904D02*
X-74316609Y-4261904D01*
X-74316609Y-4261904D02*
X-74507085Y-4214285D01*
X-74507085Y-4214285D02*
X-74602323Y-4166666D01*
X-74602323Y-4166666D02*
X-74697561Y-4071428D01*
X-74697561Y-4071428D02*
X-74745180Y-3928571D01*
X-74745180Y-3928571D02*
X-74745180Y-3833333D01*
X-74745180Y-3833333D02*
X-74697561Y-3690476D01*
X-74697561Y-3690476D02*
X-74649942Y-3642857D01*
X-73745180Y-2690476D02*
X-73745180Y-3261904D01*
X-73745180Y-2976190D02*
X-74745180Y-2976190D01*
X-74745180Y-2976190D02*
X-74602323Y-3071428D01*
X-74602323Y-3071428D02*
X-74507085Y-3166666D01*
X-74507085Y-3166666D02*
X-74459466Y-3261904D01*
X-74745180Y-2357142D02*
X-74745180Y-1738095D01*
X-74745180Y-1738095D02*
X-74364228Y-2071428D01*
X-74364228Y-2071428D02*
X-74364228Y-1928571D01*
X-74364228Y-1928571D02*
X-74316609Y-1833333D01*
X-74316609Y-1833333D02*
X-74268990Y-1785714D01*
X-74268990Y-1785714D02*
X-74173752Y-1738095D01*
X-74173752Y-1738095D02*
X-73935657Y-1738095D01*
X-73935657Y-1738095D02*
X-73840419Y-1785714D01*
X-73840419Y-1785714D02*
X-73792800Y-1833333D01*
X-73792800Y-1833333D02*
X-73745180Y-1928571D01*
X-73745180Y-1928571D02*
X-73745180Y-2214285D01*
X-73745180Y-2214285D02*
X-73792800Y-2309523D01*
X-73792800Y-2309523D02*
X-73840419Y-2357142D01*
X71357142Y-155024819D02*
X71023809Y-154548628D01*
X70785714Y-155024819D02*
X70785714Y-154024819D01*
X70785714Y-154024819D02*
X71166666Y-154024819D01*
X71166666Y-154024819D02*
X71261904Y-154072438D01*
X71261904Y-154072438D02*
X71309523Y-154120057D01*
X71309523Y-154120057D02*
X71357142Y-154215295D01*
X71357142Y-154215295D02*
X71357142Y-154358152D01*
X71357142Y-154358152D02*
X71309523Y-154453390D01*
X71309523Y-154453390D02*
X71261904Y-154501009D01*
X71261904Y-154501009D02*
X71166666Y-154548628D01*
X71166666Y-154548628D02*
X70785714Y-154548628D01*
X72309523Y-155024819D02*
X71738095Y-155024819D01*
X72023809Y-155024819D02*
X72023809Y-154024819D01*
X72023809Y-154024819D02*
X71928571Y-154167676D01*
X71928571Y-154167676D02*
X71833333Y-154262914D01*
X71833333Y-154262914D02*
X71738095Y-154310533D01*
X72785714Y-155024819D02*
X72976190Y-155024819D01*
X72976190Y-155024819D02*
X73071428Y-154977200D01*
X73071428Y-154977200D02*
X73119047Y-154929580D01*
X73119047Y-154929580D02*
X73214285Y-154786723D01*
X73214285Y-154786723D02*
X73261904Y-154596247D01*
X73261904Y-154596247D02*
X73261904Y-154215295D01*
X73261904Y-154215295D02*
X73214285Y-154120057D01*
X73214285Y-154120057D02*
X73166666Y-154072438D01*
X73166666Y-154072438D02*
X73071428Y-154024819D01*
X73071428Y-154024819D02*
X72880952Y-154024819D01*
X72880952Y-154024819D02*
X72785714Y-154072438D01*
X72785714Y-154072438D02*
X72738095Y-154120057D01*
X72738095Y-154120057D02*
X72690476Y-154215295D01*
X72690476Y-154215295D02*
X72690476Y-154453390D01*
X72690476Y-154453390D02*
X72738095Y-154548628D01*
X72738095Y-154548628D02*
X72785714Y-154596247D01*
X72785714Y-154596247D02*
X72880952Y-154643866D01*
X72880952Y-154643866D02*
X73071428Y-154643866D01*
X73071428Y-154643866D02*
X73166666Y-154596247D01*
X73166666Y-154596247D02*
X73214285Y-154548628D01*
X73214285Y-154548628D02*
X73261904Y-154453390D01*
X-60166666Y-85024819D02*
X-60499999Y-84548628D01*
X-60738094Y-85024819D02*
X-60738094Y-84024819D01*
X-60738094Y-84024819D02*
X-60357142Y-84024819D01*
X-60357142Y-84024819D02*
X-60261904Y-84072438D01*
X-60261904Y-84072438D02*
X-60214285Y-84120057D01*
X-60214285Y-84120057D02*
X-60166666Y-84215295D01*
X-60166666Y-84215295D02*
X-60166666Y-84358152D01*
X-60166666Y-84358152D02*
X-60214285Y-84453390D01*
X-60214285Y-84453390D02*
X-60261904Y-84501009D01*
X-60261904Y-84501009D02*
X-60357142Y-84548628D01*
X-60357142Y-84548628D02*
X-60738094Y-84548628D01*
X-59261904Y-84024819D02*
X-59738094Y-84024819D01*
X-59738094Y-84024819D02*
X-59785713Y-84501009D01*
X-59785713Y-84501009D02*
X-59738094Y-84453390D01*
X-59738094Y-84453390D02*
X-59642856Y-84405771D01*
X-59642856Y-84405771D02*
X-59404761Y-84405771D01*
X-59404761Y-84405771D02*
X-59309523Y-84453390D01*
X-59309523Y-84453390D02*
X-59261904Y-84501009D01*
X-59261904Y-84501009D02*
X-59214285Y-84596247D01*
X-59214285Y-84596247D02*
X-59214285Y-84834342D01*
X-59214285Y-84834342D02*
X-59261904Y-84929580D01*
X-59261904Y-84929580D02*
X-59309523Y-84977200D01*
X-59309523Y-84977200D02*
X-59404761Y-85024819D01*
X-59404761Y-85024819D02*
X-59642856Y-85024819D01*
X-59642856Y-85024819D02*
X-59738094Y-84977200D01*
X-59738094Y-84977200D02*
X-59785713Y-84929580D01*
X65357142Y-49024819D02*
X65023809Y-48548628D01*
X64785714Y-49024819D02*
X64785714Y-48024819D01*
X64785714Y-48024819D02*
X65166666Y-48024819D01*
X65166666Y-48024819D02*
X65261904Y-48072438D01*
X65261904Y-48072438D02*
X65309523Y-48120057D01*
X65309523Y-48120057D02*
X65357142Y-48215295D01*
X65357142Y-48215295D02*
X65357142Y-48358152D01*
X65357142Y-48358152D02*
X65309523Y-48453390D01*
X65309523Y-48453390D02*
X65261904Y-48501009D01*
X65261904Y-48501009D02*
X65166666Y-48548628D01*
X65166666Y-48548628D02*
X64785714Y-48548628D01*
X65738095Y-48120057D02*
X65785714Y-48072438D01*
X65785714Y-48072438D02*
X65880952Y-48024819D01*
X65880952Y-48024819D02*
X66119047Y-48024819D01*
X66119047Y-48024819D02*
X66214285Y-48072438D01*
X66214285Y-48072438D02*
X66261904Y-48120057D01*
X66261904Y-48120057D02*
X66309523Y-48215295D01*
X66309523Y-48215295D02*
X66309523Y-48310533D01*
X66309523Y-48310533D02*
X66261904Y-48453390D01*
X66261904Y-48453390D02*
X65690476Y-49024819D01*
X65690476Y-49024819D02*
X66309523Y-49024819D01*
X66642857Y-48024819D02*
X67261904Y-48024819D01*
X67261904Y-48024819D02*
X66928571Y-48405771D01*
X66928571Y-48405771D02*
X67071428Y-48405771D01*
X67071428Y-48405771D02*
X67166666Y-48453390D01*
X67166666Y-48453390D02*
X67214285Y-48501009D01*
X67214285Y-48501009D02*
X67261904Y-48596247D01*
X67261904Y-48596247D02*
X67261904Y-48834342D01*
X67261904Y-48834342D02*
X67214285Y-48929580D01*
X67214285Y-48929580D02*
X67166666Y-48977200D01*
X67166666Y-48977200D02*
X67071428Y-49024819D01*
X67071428Y-49024819D02*
X66785714Y-49024819D01*
X66785714Y-49024819D02*
X66690476Y-48977200D01*
X66690476Y-48977200D02*
X66642857Y-48929580D01*
X-23761904Y-67004819D02*
X-23761904Y-67814342D01*
X-23761904Y-67814342D02*
X-23714285Y-67909580D01*
X-23714285Y-67909580D02*
X-23666666Y-67957200D01*
X-23666666Y-67957200D02*
X-23571428Y-68004819D01*
X-23571428Y-68004819D02*
X-23380952Y-68004819D01*
X-23380952Y-68004819D02*
X-23285714Y-67957200D01*
X-23285714Y-67957200D02*
X-23238095Y-67909580D01*
X-23238095Y-67909580D02*
X-23190476Y-67814342D01*
X-23190476Y-67814342D02*
X-23190476Y-67004819D01*
X-22809523Y-67004819D02*
X-22190476Y-67004819D01*
X-22190476Y-67004819D02*
X-22523809Y-67385771D01*
X-22523809Y-67385771D02*
X-22380952Y-67385771D01*
X-22380952Y-67385771D02*
X-22285714Y-67433390D01*
X-22285714Y-67433390D02*
X-22238095Y-67481009D01*
X-22238095Y-67481009D02*
X-22190476Y-67576247D01*
X-22190476Y-67576247D02*
X-22190476Y-67814342D01*
X-22190476Y-67814342D02*
X-22238095Y-67909580D01*
X-22238095Y-67909580D02*
X-22285714Y-67957200D01*
X-22285714Y-67957200D02*
X-22380952Y-68004819D01*
X-22380952Y-68004819D02*
X-22666666Y-68004819D01*
X-22666666Y-68004819D02*
X-22761904Y-67957200D01*
X-22761904Y-67957200D02*
X-22809523Y-67909580D01*
X-9349942Y-7825238D02*
X-9397561Y-7920476D01*
X-9397561Y-7920476D02*
X-9492800Y-8015714D01*
X-9492800Y-8015714D02*
X-9635657Y-8158571D01*
X-9635657Y-8158571D02*
X-9683276Y-8253809D01*
X-9683276Y-8253809D02*
X-9683276Y-8349047D01*
X-9445180Y-8301428D02*
X-9492800Y-8396666D01*
X-9492800Y-8396666D02*
X-9588038Y-8491904D01*
X-9588038Y-8491904D02*
X-9778514Y-8539523D01*
X-9778514Y-8539523D02*
X-10111847Y-8539523D01*
X-10111847Y-8539523D02*
X-10302323Y-8491904D01*
X-10302323Y-8491904D02*
X-10397561Y-8396666D01*
X-10397561Y-8396666D02*
X-10445180Y-8301428D01*
X-10445180Y-8301428D02*
X-10445180Y-8110952D01*
X-10445180Y-8110952D02*
X-10397561Y-8015714D01*
X-10397561Y-8015714D02*
X-10302323Y-7920476D01*
X-10302323Y-7920476D02*
X-10111847Y-7872857D01*
X-10111847Y-7872857D02*
X-9778514Y-7872857D01*
X-9778514Y-7872857D02*
X-9588038Y-7920476D01*
X-9588038Y-7920476D02*
X-9492800Y-8015714D01*
X-9492800Y-8015714D02*
X-9445180Y-8110952D01*
X-9445180Y-8110952D02*
X-9445180Y-8301428D01*
X-10445180Y-6968095D02*
X-10445180Y-7444285D01*
X-10445180Y-7444285D02*
X-9968990Y-7491904D01*
X-9968990Y-7491904D02*
X-10016609Y-7444285D01*
X-10016609Y-7444285D02*
X-10064228Y-7349047D01*
X-10064228Y-7349047D02*
X-10064228Y-7110952D01*
X-10064228Y-7110952D02*
X-10016609Y-7015714D01*
X-10016609Y-7015714D02*
X-9968990Y-6968095D01*
X-9968990Y-6968095D02*
X-9873752Y-6920476D01*
X-9873752Y-6920476D02*
X-9635657Y-6920476D01*
X-9635657Y-6920476D02*
X-9540419Y-6968095D01*
X-9540419Y-6968095D02*
X-9492800Y-7015714D01*
X-9492800Y-7015714D02*
X-9445180Y-7110952D01*
X-9445180Y-7110952D02*
X-9445180Y-7349047D01*
X-9445180Y-7349047D02*
X-9492800Y-7444285D01*
X-9492800Y-7444285D02*
X-9540419Y-7491904D01*
X60738095Y-150204819D02*
X60738095Y-151014342D01*
X60738095Y-151014342D02*
X60785714Y-151109580D01*
X60785714Y-151109580D02*
X60833333Y-151157200D01*
X60833333Y-151157200D02*
X60928571Y-151204819D01*
X60928571Y-151204819D02*
X61119047Y-151204819D01*
X61119047Y-151204819D02*
X61214285Y-151157200D01*
X61214285Y-151157200D02*
X61261904Y-151109580D01*
X61261904Y-151109580D02*
X61309523Y-151014342D01*
X61309523Y-151014342D02*
X61309523Y-150204819D01*
X61738095Y-150300057D02*
X61785714Y-150252438D01*
X61785714Y-150252438D02*
X61880952Y-150204819D01*
X61880952Y-150204819D02*
X62119047Y-150204819D01*
X62119047Y-150204819D02*
X62214285Y-150252438D01*
X62214285Y-150252438D02*
X62261904Y-150300057D01*
X62261904Y-150300057D02*
X62309523Y-150395295D01*
X62309523Y-150395295D02*
X62309523Y-150490533D01*
X62309523Y-150490533D02*
X62261904Y-150633390D01*
X62261904Y-150633390D02*
X61690476Y-151204819D01*
X61690476Y-151204819D02*
X62309523Y-151204819D01*
X56738094Y-146569104D02*
X57214284Y-146569104D01*
X56642856Y-146854819D02*
X56976189Y-145854819D01*
X56976189Y-145854819D02*
X57309522Y-146854819D01*
X57642856Y-146188152D02*
X57642856Y-146854819D01*
X57642856Y-146283390D02*
X57690475Y-146235771D01*
X57690475Y-146235771D02*
X57785713Y-146188152D01*
X57785713Y-146188152D02*
X57928570Y-146188152D01*
X57928570Y-146188152D02*
X58023808Y-146235771D01*
X58023808Y-146235771D02*
X58071427Y-146331009D01*
X58071427Y-146331009D02*
X58071427Y-146854819D01*
X58404761Y-146188152D02*
X58785713Y-146188152D01*
X58547618Y-145854819D02*
X58547618Y-146711961D01*
X58547618Y-146711961D02*
X58595237Y-146807200D01*
X58595237Y-146807200D02*
X58690475Y-146854819D01*
X58690475Y-146854819D02*
X58785713Y-146854819D01*
X59499999Y-146807200D02*
X59404761Y-146854819D01*
X59404761Y-146854819D02*
X59214285Y-146854819D01*
X59214285Y-146854819D02*
X59119047Y-146807200D01*
X59119047Y-146807200D02*
X59071428Y-146711961D01*
X59071428Y-146711961D02*
X59071428Y-146331009D01*
X59071428Y-146331009D02*
X59119047Y-146235771D01*
X59119047Y-146235771D02*
X59214285Y-146188152D01*
X59214285Y-146188152D02*
X59404761Y-146188152D01*
X59404761Y-146188152D02*
X59499999Y-146235771D01*
X59499999Y-146235771D02*
X59547618Y-146331009D01*
X59547618Y-146331009D02*
X59547618Y-146426247D01*
X59547618Y-146426247D02*
X59071428Y-146521485D01*
X59976190Y-146188152D02*
X59976190Y-146854819D01*
X59976190Y-146283390D02*
X60023809Y-146235771D01*
X60023809Y-146235771D02*
X60119047Y-146188152D01*
X60119047Y-146188152D02*
X60261904Y-146188152D01*
X60261904Y-146188152D02*
X60357142Y-146235771D01*
X60357142Y-146235771D02*
X60404761Y-146331009D01*
X60404761Y-146331009D02*
X60404761Y-146854819D01*
X60880952Y-146188152D02*
X60880952Y-146854819D01*
X60880952Y-146283390D02*
X60928571Y-146235771D01*
X60928571Y-146235771D02*
X61023809Y-146188152D01*
X61023809Y-146188152D02*
X61166666Y-146188152D01*
X61166666Y-146188152D02*
X61261904Y-146235771D01*
X61261904Y-146235771D02*
X61309523Y-146331009D01*
X61309523Y-146331009D02*
X61309523Y-146854819D01*
X62214285Y-146854819D02*
X62214285Y-146331009D01*
X62214285Y-146331009D02*
X62166666Y-146235771D01*
X62166666Y-146235771D02*
X62071428Y-146188152D01*
X62071428Y-146188152D02*
X61880952Y-146188152D01*
X61880952Y-146188152D02*
X61785714Y-146235771D01*
X62214285Y-146807200D02*
X62119047Y-146854819D01*
X62119047Y-146854819D02*
X61880952Y-146854819D01*
X61880952Y-146854819D02*
X61785714Y-146807200D01*
X61785714Y-146807200D02*
X61738095Y-146711961D01*
X61738095Y-146711961D02*
X61738095Y-146616723D01*
X61738095Y-146616723D02*
X61785714Y-146521485D01*
X61785714Y-146521485D02*
X61880952Y-146473866D01*
X61880952Y-146473866D02*
X62119047Y-146473866D01*
X62119047Y-146473866D02*
X62214285Y-146426247D01*
X63404762Y-146569104D02*
X63880952Y-146569104D01*
X63309524Y-146854819D02*
X63642857Y-145854819D01*
X63642857Y-145854819D02*
X63976190Y-146854819D01*
X64309524Y-146854819D02*
X64309524Y-146188152D01*
X64309524Y-146378628D02*
X64357143Y-146283390D01*
X64357143Y-146283390D02*
X64404762Y-146235771D01*
X64404762Y-146235771D02*
X64500000Y-146188152D01*
X64500000Y-146188152D02*
X64595238Y-146188152D01*
X65309524Y-146807200D02*
X65214286Y-146854819D01*
X65214286Y-146854819D02*
X65023810Y-146854819D01*
X65023810Y-146854819D02*
X64928572Y-146807200D01*
X64928572Y-146807200D02*
X64880953Y-146711961D01*
X64880953Y-146711961D02*
X64880953Y-146331009D01*
X64880953Y-146331009D02*
X64928572Y-146235771D01*
X64928572Y-146235771D02*
X65023810Y-146188152D01*
X65023810Y-146188152D02*
X65214286Y-146188152D01*
X65214286Y-146188152D02*
X65309524Y-146235771D01*
X65309524Y-146235771D02*
X65357143Y-146331009D01*
X65357143Y-146331009D02*
X65357143Y-146426247D01*
X65357143Y-146426247D02*
X64880953Y-146521485D01*
X66214286Y-146854819D02*
X66214286Y-146331009D01*
X66214286Y-146331009D02*
X66166667Y-146235771D01*
X66166667Y-146235771D02*
X66071429Y-146188152D01*
X66071429Y-146188152D02*
X65880953Y-146188152D01*
X65880953Y-146188152D02*
X65785715Y-146235771D01*
X66214286Y-146807200D02*
X66119048Y-146854819D01*
X66119048Y-146854819D02*
X65880953Y-146854819D01*
X65880953Y-146854819D02*
X65785715Y-146807200D01*
X65785715Y-146807200D02*
X65738096Y-146711961D01*
X65738096Y-146711961D02*
X65738096Y-146616723D01*
X65738096Y-146616723D02*
X65785715Y-146521485D01*
X65785715Y-146521485D02*
X65880953Y-146473866D01*
X65880953Y-146473866D02*
X66119048Y-146473866D01*
X66119048Y-146473866D02*
X66214286Y-146426247D01*
X137166667Y-88907200D02*
X137309524Y-88954819D01*
X137309524Y-88954819D02*
X137547619Y-88954819D01*
X137547619Y-88954819D02*
X137642857Y-88907200D01*
X137642857Y-88907200D02*
X137690476Y-88859580D01*
X137690476Y-88859580D02*
X137738095Y-88764342D01*
X137738095Y-88764342D02*
X137738095Y-88669104D01*
X137738095Y-88669104D02*
X137690476Y-88573866D01*
X137690476Y-88573866D02*
X137642857Y-88526247D01*
X137642857Y-88526247D02*
X137547619Y-88478628D01*
X137547619Y-88478628D02*
X137357143Y-88431009D01*
X137357143Y-88431009D02*
X137261905Y-88383390D01*
X137261905Y-88383390D02*
X137214286Y-88335771D01*
X137214286Y-88335771D02*
X137166667Y-88240533D01*
X137166667Y-88240533D02*
X137166667Y-88145295D01*
X137166667Y-88145295D02*
X137214286Y-88050057D01*
X137214286Y-88050057D02*
X137261905Y-88002438D01*
X137261905Y-88002438D02*
X137357143Y-87954819D01*
X137357143Y-87954819D02*
X137595238Y-87954819D01*
X137595238Y-87954819D02*
X137738095Y-88002438D01*
X138071429Y-87954819D02*
X138309524Y-88954819D01*
X138309524Y-88954819D02*
X138500000Y-88240533D01*
X138500000Y-88240533D02*
X138690476Y-88954819D01*
X138690476Y-88954819D02*
X138928572Y-87954819D01*
X139833333Y-88954819D02*
X139261905Y-88954819D01*
X139547619Y-88954819D02*
X139547619Y-87954819D01*
X139547619Y-87954819D02*
X139452381Y-88097676D01*
X139452381Y-88097676D02*
X139357143Y-88192914D01*
X139357143Y-88192914D02*
X139261905Y-88240533D01*
X-80642857Y-7524819D02*
X-80976190Y-7048628D01*
X-81214285Y-7524819D02*
X-81214285Y-6524819D01*
X-81214285Y-6524819D02*
X-80833333Y-6524819D01*
X-80833333Y-6524819D02*
X-80738095Y-6572438D01*
X-80738095Y-6572438D02*
X-80690476Y-6620057D01*
X-80690476Y-6620057D02*
X-80642857Y-6715295D01*
X-80642857Y-6715295D02*
X-80642857Y-6858152D01*
X-80642857Y-6858152D02*
X-80690476Y-6953390D01*
X-80690476Y-6953390D02*
X-80738095Y-7001009D01*
X-80738095Y-7001009D02*
X-80833333Y-7048628D01*
X-80833333Y-7048628D02*
X-81214285Y-7048628D01*
X-79690476Y-7524819D02*
X-80261904Y-7524819D01*
X-79976190Y-7524819D02*
X-79976190Y-6524819D01*
X-79976190Y-6524819D02*
X-80071428Y-6667676D01*
X-80071428Y-6667676D02*
X-80166666Y-6762914D01*
X-80166666Y-6762914D02*
X-80261904Y-6810533D01*
X-79071428Y-6524819D02*
X-78976190Y-6524819D01*
X-78976190Y-6524819D02*
X-78880952Y-6572438D01*
X-78880952Y-6572438D02*
X-78833333Y-6620057D01*
X-78833333Y-6620057D02*
X-78785714Y-6715295D01*
X-78785714Y-6715295D02*
X-78738095Y-6905771D01*
X-78738095Y-6905771D02*
X-78738095Y-7143866D01*
X-78738095Y-7143866D02*
X-78785714Y-7334342D01*
X-78785714Y-7334342D02*
X-78833333Y-7429580D01*
X-78833333Y-7429580D02*
X-78880952Y-7477200D01*
X-78880952Y-7477200D02*
X-78976190Y-7524819D01*
X-78976190Y-7524819D02*
X-79071428Y-7524819D01*
X-79071428Y-7524819D02*
X-79166666Y-7477200D01*
X-79166666Y-7477200D02*
X-79214285Y-7429580D01*
X-79214285Y-7429580D02*
X-79261904Y-7334342D01*
X-79261904Y-7334342D02*
X-79309523Y-7143866D01*
X-79309523Y-7143866D02*
X-79309523Y-6905771D01*
X-79309523Y-6905771D02*
X-79261904Y-6715295D01*
X-79261904Y-6715295D02*
X-79214285Y-6620057D01*
X-79214285Y-6620057D02*
X-79166666Y-6572438D01*
X-79166666Y-6572438D02*
X-79071428Y-6524819D01*
X-36142857Y5890419D02*
X-36190476Y5842800D01*
X-36190476Y5842800D02*
X-36333333Y5795180D01*
X-36333333Y5795180D02*
X-36428571Y5795180D01*
X-36428571Y5795180D02*
X-36571428Y5842800D01*
X-36571428Y5842800D02*
X-36666666Y5938038D01*
X-36666666Y5938038D02*
X-36714285Y6033276D01*
X-36714285Y6033276D02*
X-36761904Y6223752D01*
X-36761904Y6223752D02*
X-36761904Y6366609D01*
X-36761904Y6366609D02*
X-36714285Y6557085D01*
X-36714285Y6557085D02*
X-36666666Y6652323D01*
X-36666666Y6652323D02*
X-36571428Y6747561D01*
X-36571428Y6747561D02*
X-36428571Y6795180D01*
X-36428571Y6795180D02*
X-36333333Y6795180D01*
X-36333333Y6795180D02*
X-36190476Y6747561D01*
X-36190476Y6747561D02*
X-36142857Y6699942D01*
X-35190476Y5795180D02*
X-35761904Y5795180D01*
X-35476190Y5795180D02*
X-35476190Y6795180D01*
X-35476190Y6795180D02*
X-35571428Y6652323D01*
X-35571428Y6652323D02*
X-35666666Y6557085D01*
X-35666666Y6557085D02*
X-35761904Y6509466D01*
X-34333333Y6461847D02*
X-34333333Y5795180D01*
X-34571428Y6842800D02*
X-34809523Y6128514D01*
X-34809523Y6128514D02*
X-34190476Y6128514D01*
X-68642857Y8615180D02*
X-68976190Y9091371D01*
X-69214285Y8615180D02*
X-69214285Y9615180D01*
X-69214285Y9615180D02*
X-68833333Y9615180D01*
X-68833333Y9615180D02*
X-68738095Y9567561D01*
X-68738095Y9567561D02*
X-68690476Y9519942D01*
X-68690476Y9519942D02*
X-68642857Y9424704D01*
X-68642857Y9424704D02*
X-68642857Y9281847D01*
X-68642857Y9281847D02*
X-68690476Y9186609D01*
X-68690476Y9186609D02*
X-68738095Y9138990D01*
X-68738095Y9138990D02*
X-68833333Y9091371D01*
X-68833333Y9091371D02*
X-69214285Y9091371D01*
X-67690476Y8615180D02*
X-68261904Y8615180D01*
X-67976190Y8615180D02*
X-67976190Y9615180D01*
X-67976190Y9615180D02*
X-68071428Y9472323D01*
X-68071428Y9472323D02*
X-68166666Y9377085D01*
X-68166666Y9377085D02*
X-68261904Y9329466D01*
X-67119047Y9186609D02*
X-67214285Y9234228D01*
X-67214285Y9234228D02*
X-67261904Y9281847D01*
X-67261904Y9281847D02*
X-67309523Y9377085D01*
X-67309523Y9377085D02*
X-67309523Y9424704D01*
X-67309523Y9424704D02*
X-67261904Y9519942D01*
X-67261904Y9519942D02*
X-67214285Y9567561D01*
X-67214285Y9567561D02*
X-67119047Y9615180D01*
X-67119047Y9615180D02*
X-66928571Y9615180D01*
X-66928571Y9615180D02*
X-66833333Y9567561D01*
X-66833333Y9567561D02*
X-66785714Y9519942D01*
X-66785714Y9519942D02*
X-66738095Y9424704D01*
X-66738095Y9424704D02*
X-66738095Y9377085D01*
X-66738095Y9377085D02*
X-66785714Y9281847D01*
X-66785714Y9281847D02*
X-66833333Y9234228D01*
X-66833333Y9234228D02*
X-66928571Y9186609D01*
X-66928571Y9186609D02*
X-67119047Y9186609D01*
X-67119047Y9186609D02*
X-67214285Y9138990D01*
X-67214285Y9138990D02*
X-67261904Y9091371D01*
X-67261904Y9091371D02*
X-67309523Y8996133D01*
X-67309523Y8996133D02*
X-67309523Y8805657D01*
X-67309523Y8805657D02*
X-67261904Y8710419D01*
X-67261904Y8710419D02*
X-67214285Y8662800D01*
X-67214285Y8662800D02*
X-67119047Y8615180D01*
X-67119047Y8615180D02*
X-66928571Y8615180D01*
X-66928571Y8615180D02*
X-66833333Y8662800D01*
X-66833333Y8662800D02*
X-66785714Y8710419D01*
X-66785714Y8710419D02*
X-66738095Y8805657D01*
X-66738095Y8805657D02*
X-66738095Y8996133D01*
X-66738095Y8996133D02*
X-66785714Y9091371D01*
X-66785714Y9091371D02*
X-66833333Y9138990D01*
X-66833333Y9138990D02*
X-66928571Y9186609D01*
X22333333Y-75929580D02*
X22285714Y-75977200D01*
X22285714Y-75977200D02*
X22142857Y-76024819D01*
X22142857Y-76024819D02*
X22047619Y-76024819D01*
X22047619Y-76024819D02*
X21904762Y-75977200D01*
X21904762Y-75977200D02*
X21809524Y-75881961D01*
X21809524Y-75881961D02*
X21761905Y-75786723D01*
X21761905Y-75786723D02*
X21714286Y-75596247D01*
X21714286Y-75596247D02*
X21714286Y-75453390D01*
X21714286Y-75453390D02*
X21761905Y-75262914D01*
X21761905Y-75262914D02*
X21809524Y-75167676D01*
X21809524Y-75167676D02*
X21904762Y-75072438D01*
X21904762Y-75072438D02*
X22047619Y-75024819D01*
X22047619Y-75024819D02*
X22142857Y-75024819D01*
X22142857Y-75024819D02*
X22285714Y-75072438D01*
X22285714Y-75072438D02*
X22333333Y-75120057D01*
X22666667Y-75024819D02*
X23285714Y-75024819D01*
X23285714Y-75024819D02*
X22952381Y-75405771D01*
X22952381Y-75405771D02*
X23095238Y-75405771D01*
X23095238Y-75405771D02*
X23190476Y-75453390D01*
X23190476Y-75453390D02*
X23238095Y-75501009D01*
X23238095Y-75501009D02*
X23285714Y-75596247D01*
X23285714Y-75596247D02*
X23285714Y-75834342D01*
X23285714Y-75834342D02*
X23238095Y-75929580D01*
X23238095Y-75929580D02*
X23190476Y-75977200D01*
X23190476Y-75977200D02*
X23095238Y-76024819D01*
X23095238Y-76024819D02*
X22809524Y-76024819D01*
X22809524Y-76024819D02*
X22714286Y-75977200D01*
X22714286Y-75977200D02*
X22666667Y-75929580D01*
X21833333Y-73929580D02*
X21785714Y-73977200D01*
X21785714Y-73977200D02*
X21642857Y-74024819D01*
X21642857Y-74024819D02*
X21547619Y-74024819D01*
X21547619Y-74024819D02*
X21404762Y-73977200D01*
X21404762Y-73977200D02*
X21309524Y-73881961D01*
X21309524Y-73881961D02*
X21261905Y-73786723D01*
X21261905Y-73786723D02*
X21214286Y-73596247D01*
X21214286Y-73596247D02*
X21214286Y-73453390D01*
X21214286Y-73453390D02*
X21261905Y-73262914D01*
X21261905Y-73262914D02*
X21309524Y-73167676D01*
X21309524Y-73167676D02*
X21404762Y-73072438D01*
X21404762Y-73072438D02*
X21547619Y-73024819D01*
X21547619Y-73024819D02*
X21642857Y-73024819D01*
X21642857Y-73024819D02*
X21785714Y-73072438D01*
X21785714Y-73072438D02*
X21833333Y-73120057D01*
X22690476Y-73358152D02*
X22690476Y-74024819D01*
X22452381Y-72977200D02*
X22214286Y-73691485D01*
X22214286Y-73691485D02*
X22833333Y-73691485D01*
X-60666666Y-91524819D02*
X-60999999Y-91048628D01*
X-61238094Y-91524819D02*
X-61238094Y-90524819D01*
X-61238094Y-90524819D02*
X-60857142Y-90524819D01*
X-60857142Y-90524819D02*
X-60761904Y-90572438D01*
X-60761904Y-90572438D02*
X-60714285Y-90620057D01*
X-60714285Y-90620057D02*
X-60666666Y-90715295D01*
X-60666666Y-90715295D02*
X-60666666Y-90858152D01*
X-60666666Y-90858152D02*
X-60714285Y-90953390D01*
X-60714285Y-90953390D02*
X-60761904Y-91001009D01*
X-60761904Y-91001009D02*
X-60857142Y-91048628D01*
X-60857142Y-91048628D02*
X-61238094Y-91048628D01*
X-59809523Y-90524819D02*
X-59999999Y-90524819D01*
X-59999999Y-90524819D02*
X-60095237Y-90572438D01*
X-60095237Y-90572438D02*
X-60142856Y-90620057D01*
X-60142856Y-90620057D02*
X-60238094Y-90762914D01*
X-60238094Y-90762914D02*
X-60285713Y-90953390D01*
X-60285713Y-90953390D02*
X-60285713Y-91334342D01*
X-60285713Y-91334342D02*
X-60238094Y-91429580D01*
X-60238094Y-91429580D02*
X-60190475Y-91477200D01*
X-60190475Y-91477200D02*
X-60095237Y-91524819D01*
X-60095237Y-91524819D02*
X-59904761Y-91524819D01*
X-59904761Y-91524819D02*
X-59809523Y-91477200D01*
X-59809523Y-91477200D02*
X-59761904Y-91429580D01*
X-59761904Y-91429580D02*
X-59714285Y-91334342D01*
X-59714285Y-91334342D02*
X-59714285Y-91096247D01*
X-59714285Y-91096247D02*
X-59761904Y-91001009D01*
X-59761904Y-91001009D02*
X-59809523Y-90953390D01*
X-59809523Y-90953390D02*
X-59904761Y-90905771D01*
X-59904761Y-90905771D02*
X-60095237Y-90905771D01*
X-60095237Y-90905771D02*
X-60190475Y-90953390D01*
X-60190475Y-90953390D02*
X-60238094Y-91001009D01*
X-60238094Y-91001009D02*
X-60285713Y-91096247D01*
X47333333Y-135929580D02*
X47285714Y-135977200D01*
X47285714Y-135977200D02*
X47142857Y-136024819D01*
X47142857Y-136024819D02*
X47047619Y-136024819D01*
X47047619Y-136024819D02*
X46904762Y-135977200D01*
X46904762Y-135977200D02*
X46809524Y-135881961D01*
X46809524Y-135881961D02*
X46761905Y-135786723D01*
X46761905Y-135786723D02*
X46714286Y-135596247D01*
X46714286Y-135596247D02*
X46714286Y-135453390D01*
X46714286Y-135453390D02*
X46761905Y-135262914D01*
X46761905Y-135262914D02*
X46809524Y-135167676D01*
X46809524Y-135167676D02*
X46904762Y-135072438D01*
X46904762Y-135072438D02*
X47047619Y-135024819D01*
X47047619Y-135024819D02*
X47142857Y-135024819D01*
X47142857Y-135024819D02*
X47285714Y-135072438D01*
X47285714Y-135072438D02*
X47333333Y-135120057D01*
X48238095Y-135024819D02*
X47761905Y-135024819D01*
X47761905Y-135024819D02*
X47714286Y-135501009D01*
X47714286Y-135501009D02*
X47761905Y-135453390D01*
X47761905Y-135453390D02*
X47857143Y-135405771D01*
X47857143Y-135405771D02*
X48095238Y-135405771D01*
X48095238Y-135405771D02*
X48190476Y-135453390D01*
X48190476Y-135453390D02*
X48238095Y-135501009D01*
X48238095Y-135501009D02*
X48285714Y-135596247D01*
X48285714Y-135596247D02*
X48285714Y-135834342D01*
X48285714Y-135834342D02*
X48238095Y-135929580D01*
X48238095Y-135929580D02*
X48190476Y-135977200D01*
X48190476Y-135977200D02*
X48095238Y-136024819D01*
X48095238Y-136024819D02*
X47857143Y-136024819D01*
X47857143Y-136024819D02*
X47761905Y-135977200D01*
X47761905Y-135977200D02*
X47714286Y-135929580D01*
X58928571Y-48650057D02*
X58833333Y-48602438D01*
X58833333Y-48602438D02*
X58738095Y-48507200D01*
X58738095Y-48507200D02*
X58595238Y-48364342D01*
X58595238Y-48364342D02*
X58500000Y-48316723D01*
X58500000Y-48316723D02*
X58404762Y-48316723D01*
X58452381Y-48554819D02*
X58357143Y-48507200D01*
X58357143Y-48507200D02*
X58261905Y-48411961D01*
X58261905Y-48411961D02*
X58214286Y-48221485D01*
X58214286Y-48221485D02*
X58214286Y-47888152D01*
X58214286Y-47888152D02*
X58261905Y-47697676D01*
X58261905Y-47697676D02*
X58357143Y-47602438D01*
X58357143Y-47602438D02*
X58452381Y-47554819D01*
X58452381Y-47554819D02*
X58642857Y-47554819D01*
X58642857Y-47554819D02*
X58738095Y-47602438D01*
X58738095Y-47602438D02*
X58833333Y-47697676D01*
X58833333Y-47697676D02*
X58880952Y-47888152D01*
X58880952Y-47888152D02*
X58880952Y-48221485D01*
X58880952Y-48221485D02*
X58833333Y-48411961D01*
X58833333Y-48411961D02*
X58738095Y-48507200D01*
X58738095Y-48507200D02*
X58642857Y-48554819D01*
X58642857Y-48554819D02*
X58452381Y-48554819D01*
X59833333Y-48554819D02*
X59261905Y-48554819D01*
X59547619Y-48554819D02*
X59547619Y-47554819D01*
X59547619Y-47554819D02*
X59452381Y-47697676D01*
X59452381Y-47697676D02*
X59357143Y-47792914D01*
X59357143Y-47792914D02*
X59261905Y-47840533D01*
X60785714Y-48554819D02*
X60214286Y-48554819D01*
X60500000Y-48554819D02*
X60500000Y-47554819D01*
X60500000Y-47554819D02*
X60404762Y-47697676D01*
X60404762Y-47697676D02*
X60309524Y-47792914D01*
X60309524Y-47792914D02*
X60214286Y-47840533D01*
X-80166666Y-9524819D02*
X-80499999Y-9048628D01*
X-80738094Y-9524819D02*
X-80738094Y-8524819D01*
X-80738094Y-8524819D02*
X-80357142Y-8524819D01*
X-80357142Y-8524819D02*
X-80261904Y-8572438D01*
X-80261904Y-8572438D02*
X-80214285Y-8620057D01*
X-80214285Y-8620057D02*
X-80166666Y-8715295D01*
X-80166666Y-8715295D02*
X-80166666Y-8858152D01*
X-80166666Y-8858152D02*
X-80214285Y-8953390D01*
X-80214285Y-8953390D02*
X-80261904Y-9001009D01*
X-80261904Y-9001009D02*
X-80357142Y-9048628D01*
X-80357142Y-9048628D02*
X-80738094Y-9048628D01*
X-79690475Y-9524819D02*
X-79499999Y-9524819D01*
X-79499999Y-9524819D02*
X-79404761Y-9477200D01*
X-79404761Y-9477200D02*
X-79357142Y-9429580D01*
X-79357142Y-9429580D02*
X-79261904Y-9286723D01*
X-79261904Y-9286723D02*
X-79214285Y-9096247D01*
X-79214285Y-9096247D02*
X-79214285Y-8715295D01*
X-79214285Y-8715295D02*
X-79261904Y-8620057D01*
X-79261904Y-8620057D02*
X-79309523Y-8572438D01*
X-79309523Y-8572438D02*
X-79404761Y-8524819D01*
X-79404761Y-8524819D02*
X-79595237Y-8524819D01*
X-79595237Y-8524819D02*
X-79690475Y-8572438D01*
X-79690475Y-8572438D02*
X-79738094Y-8620057D01*
X-79738094Y-8620057D02*
X-79785713Y-8715295D01*
X-79785713Y-8715295D02*
X-79785713Y-8953390D01*
X-79785713Y-8953390D02*
X-79738094Y-9048628D01*
X-79738094Y-9048628D02*
X-79690475Y-9096247D01*
X-79690475Y-9096247D02*
X-79595237Y-9143866D01*
X-79595237Y-9143866D02*
X-79404761Y-9143866D01*
X-79404761Y-9143866D02*
X-79309523Y-9096247D01*
X-79309523Y-9096247D02*
X-79261904Y-9048628D01*
X-79261904Y-9048628D02*
X-79214285Y-8953390D01*
X-70092800Y-87583332D02*
X-70045180Y-87440475D01*
X-70045180Y-87440475D02*
X-70045180Y-87202380D01*
X-70045180Y-87202380D02*
X-70092800Y-87107142D01*
X-70092800Y-87107142D02*
X-70140419Y-87059523D01*
X-70140419Y-87059523D02*
X-70235657Y-87011904D01*
X-70235657Y-87011904D02*
X-70330895Y-87011904D01*
X-70330895Y-87011904D02*
X-70426133Y-87059523D01*
X-70426133Y-87059523D02*
X-70473752Y-87107142D01*
X-70473752Y-87107142D02*
X-70521371Y-87202380D01*
X-70521371Y-87202380D02*
X-70568990Y-87392856D01*
X-70568990Y-87392856D02*
X-70616609Y-87488094D01*
X-70616609Y-87488094D02*
X-70664228Y-87535713D01*
X-70664228Y-87535713D02*
X-70759466Y-87583332D01*
X-70759466Y-87583332D02*
X-70854704Y-87583332D01*
X-70854704Y-87583332D02*
X-70949942Y-87535713D01*
X-70949942Y-87535713D02*
X-70997561Y-87488094D01*
X-70997561Y-87488094D02*
X-71045180Y-87392856D01*
X-71045180Y-87392856D02*
X-71045180Y-87154761D01*
X-71045180Y-87154761D02*
X-70997561Y-87011904D01*
X-71045180Y-86678570D02*
X-70045180Y-86440475D01*
X-70045180Y-86440475D02*
X-70759466Y-86249999D01*
X-70759466Y-86249999D02*
X-70045180Y-86059523D01*
X-70045180Y-86059523D02*
X-71045180Y-85821428D01*
X-70711847Y-85011904D02*
X-70045180Y-85011904D01*
X-71092800Y-85249999D02*
X-70378514Y-85488094D01*
X-70378514Y-85488094D02*
X-70378514Y-84869047D01*
D11*
X-60937980Y-88964285D02*
X-60842742Y-88678571D01*
X-60842742Y-88678571D02*
X-60747504Y-88583333D01*
X-60747504Y-88583333D02*
X-60557028Y-88488095D01*
X-60557028Y-88488095D02*
X-60271314Y-88488095D01*
X-60271314Y-88488095D02*
X-60080838Y-88583333D01*
X-60080838Y-88583333D02*
X-59985600Y-88678571D01*
X-59985600Y-88678571D02*
X-59890361Y-88869047D01*
X-59890361Y-88869047D02*
X-59890361Y-89630952D01*
X-59890361Y-89630952D02*
X-61890361Y-89630952D01*
X-61890361Y-89630952D02*
X-61890361Y-88964285D01*
X-61890361Y-88964285D02*
X-61795123Y-88773809D01*
X-61795123Y-88773809D02*
X-61699885Y-88678571D01*
X-61699885Y-88678571D02*
X-61509409Y-88583333D01*
X-61509409Y-88583333D02*
X-61318933Y-88583333D01*
X-61318933Y-88583333D02*
X-61128457Y-88678571D01*
X-61128457Y-88678571D02*
X-61033219Y-88773809D01*
X-61033219Y-88773809D02*
X-60937980Y-88964285D01*
X-60937980Y-88964285D02*
X-60937980Y-89630952D01*
X-61890361Y-87250000D02*
X-61890361Y-86869047D01*
X-61890361Y-86869047D02*
X-61795123Y-86678571D01*
X-61795123Y-86678571D02*
X-61604647Y-86488095D01*
X-61604647Y-86488095D02*
X-61223695Y-86392857D01*
X-61223695Y-86392857D02*
X-60557028Y-86392857D01*
X-60557028Y-86392857D02*
X-60176076Y-86488095D01*
X-60176076Y-86488095D02*
X-59985600Y-86678571D01*
X-59985600Y-86678571D02*
X-59890361Y-86869047D01*
X-59890361Y-86869047D02*
X-59890361Y-87250000D01*
X-59890361Y-87250000D02*
X-59985600Y-87440476D01*
X-59985600Y-87440476D02*
X-60176076Y-87630952D01*
X-60176076Y-87630952D02*
X-60557028Y-87726190D01*
X-60557028Y-87726190D02*
X-61223695Y-87726190D01*
X-61223695Y-87726190D02*
X-61604647Y-87630952D01*
X-61604647Y-87630952D02*
X-61795123Y-87440476D01*
X-61795123Y-87440476D02*
X-61890361Y-87250000D01*
X-61890361Y-85154762D02*
X-61890361Y-84773809D01*
X-61890361Y-84773809D02*
X-61795123Y-84583333D01*
X-61795123Y-84583333D02*
X-61604647Y-84392857D01*
X-61604647Y-84392857D02*
X-61223695Y-84297619D01*
X-61223695Y-84297619D02*
X-60557028Y-84297619D01*
X-60557028Y-84297619D02*
X-60176076Y-84392857D01*
X-60176076Y-84392857D02*
X-59985600Y-84583333D01*
X-59985600Y-84583333D02*
X-59890361Y-84773809D01*
X-59890361Y-84773809D02*
X-59890361Y-85154762D01*
X-59890361Y-85154762D02*
X-59985600Y-85345238D01*
X-59985600Y-85345238D02*
X-60176076Y-85535714D01*
X-60176076Y-85535714D02*
X-60557028Y-85630952D01*
X-60557028Y-85630952D02*
X-61223695Y-85630952D01*
X-61223695Y-85630952D02*
X-61604647Y-85535714D01*
X-61604647Y-85535714D02*
X-61795123Y-85345238D01*
X-61795123Y-85345238D02*
X-61890361Y-85154762D01*
X-61890361Y-83726190D02*
X-61890361Y-82583333D01*
X-59890361Y-83154762D02*
X-61890361Y-83154762D01*
D10*
X65761904Y-118537180D02*
X65761904Y-117727657D01*
X65761904Y-117727657D02*
X65714285Y-117632419D01*
X65714285Y-117632419D02*
X65666666Y-117584800D01*
X65666666Y-117584800D02*
X65571428Y-117537180D01*
X65571428Y-117537180D02*
X65380952Y-117537180D01*
X65380952Y-117537180D02*
X65285714Y-117584800D01*
X65285714Y-117584800D02*
X65238095Y-117632419D01*
X65238095Y-117632419D02*
X65190476Y-117727657D01*
X65190476Y-117727657D02*
X65190476Y-118537180D01*
X64190476Y-117537180D02*
X64761904Y-117537180D01*
X64476190Y-117537180D02*
X64476190Y-118537180D01*
X64476190Y-118537180D02*
X64571428Y-118394323D01*
X64571428Y-118394323D02*
X64666666Y-118299085D01*
X64666666Y-118299085D02*
X64761904Y-118251466D01*
X21833333Y-70024819D02*
X21500000Y-69548628D01*
X21261905Y-70024819D02*
X21261905Y-69024819D01*
X21261905Y-69024819D02*
X21642857Y-69024819D01*
X21642857Y-69024819D02*
X21738095Y-69072438D01*
X21738095Y-69072438D02*
X21785714Y-69120057D01*
X21785714Y-69120057D02*
X21833333Y-69215295D01*
X21833333Y-69215295D02*
X21833333Y-69358152D01*
X21833333Y-69358152D02*
X21785714Y-69453390D01*
X21785714Y-69453390D02*
X21738095Y-69501009D01*
X21738095Y-69501009D02*
X21642857Y-69548628D01*
X21642857Y-69548628D02*
X21261905Y-69548628D01*
X22690476Y-69358152D02*
X22690476Y-70024819D01*
X22452381Y-68977200D02*
X22214286Y-69691485D01*
X22214286Y-69691485D02*
X22833333Y-69691485D01*
X-68642857Y12975180D02*
X-68976190Y13451371D01*
X-69214285Y12975180D02*
X-69214285Y13975180D01*
X-69214285Y13975180D02*
X-68833333Y13975180D01*
X-68833333Y13975180D02*
X-68738095Y13927561D01*
X-68738095Y13927561D02*
X-68690476Y13879942D01*
X-68690476Y13879942D02*
X-68642857Y13784704D01*
X-68642857Y13784704D02*
X-68642857Y13641847D01*
X-68642857Y13641847D02*
X-68690476Y13546609D01*
X-68690476Y13546609D02*
X-68738095Y13498990D01*
X-68738095Y13498990D02*
X-68833333Y13451371D01*
X-68833333Y13451371D02*
X-69214285Y13451371D01*
X-67690476Y12975180D02*
X-68261904Y12975180D01*
X-67976190Y12975180D02*
X-67976190Y13975180D01*
X-67976190Y13975180D02*
X-68071428Y13832323D01*
X-68071428Y13832323D02*
X-68166666Y13737085D01*
X-68166666Y13737085D02*
X-68261904Y13689466D01*
X-67357142Y13975180D02*
X-66690476Y13975180D01*
X-66690476Y13975180D02*
X-67119047Y12975180D01*
X-59166666Y-80024819D02*
X-59499999Y-79548628D01*
X-59738094Y-80024819D02*
X-59738094Y-79024819D01*
X-59738094Y-79024819D02*
X-59357142Y-79024819D01*
X-59357142Y-79024819D02*
X-59261904Y-79072438D01*
X-59261904Y-79072438D02*
X-59214285Y-79120057D01*
X-59214285Y-79120057D02*
X-59166666Y-79215295D01*
X-59166666Y-79215295D02*
X-59166666Y-79358152D01*
X-59166666Y-79358152D02*
X-59214285Y-79453390D01*
X-59214285Y-79453390D02*
X-59261904Y-79501009D01*
X-59261904Y-79501009D02*
X-59357142Y-79548628D01*
X-59357142Y-79548628D02*
X-59738094Y-79548628D01*
X-58833332Y-79024819D02*
X-58166666Y-79024819D01*
X-58166666Y-79024819D02*
X-58595237Y-80024819D01*
X99289580Y-144666666D02*
X99337200Y-144714285D01*
X99337200Y-144714285D02*
X99384819Y-144857142D01*
X99384819Y-144857142D02*
X99384819Y-144952380D01*
X99384819Y-144952380D02*
X99337200Y-145095237D01*
X99337200Y-145095237D02*
X99241961Y-145190475D01*
X99241961Y-145190475D02*
X99146723Y-145238094D01*
X99146723Y-145238094D02*
X98956247Y-145285713D01*
X98956247Y-145285713D02*
X98813390Y-145285713D01*
X98813390Y-145285713D02*
X98622914Y-145238094D01*
X98622914Y-145238094D02*
X98527676Y-145190475D01*
X98527676Y-145190475D02*
X98432438Y-145095237D01*
X98432438Y-145095237D02*
X98384819Y-144952380D01*
X98384819Y-144952380D02*
X98384819Y-144857142D01*
X98384819Y-144857142D02*
X98432438Y-144714285D01*
X98432438Y-144714285D02*
X98480057Y-144666666D01*
X98480057Y-144285713D02*
X98432438Y-144238094D01*
X98432438Y-144238094D02*
X98384819Y-144142856D01*
X98384819Y-144142856D02*
X98384819Y-143904761D01*
X98384819Y-143904761D02*
X98432438Y-143809523D01*
X98432438Y-143809523D02*
X98480057Y-143761904D01*
X98480057Y-143761904D02*
X98575295Y-143714285D01*
X98575295Y-143714285D02*
X98670533Y-143714285D01*
X98670533Y-143714285D02*
X98813390Y-143761904D01*
X98813390Y-143761904D02*
X99384819Y-144333332D01*
X99384819Y-144333332D02*
X99384819Y-143714285D01*
X-7615180Y-3642857D02*
X-8091371Y-3976190D01*
X-7615180Y-4214285D02*
X-8615180Y-4214285D01*
X-8615180Y-4214285D02*
X-8615180Y-3833333D01*
X-8615180Y-3833333D02*
X-8567561Y-3738095D01*
X-8567561Y-3738095D02*
X-8519942Y-3690476D01*
X-8519942Y-3690476D02*
X-8424704Y-3642857D01*
X-8424704Y-3642857D02*
X-8281847Y-3642857D01*
X-8281847Y-3642857D02*
X-8186609Y-3690476D01*
X-8186609Y-3690476D02*
X-8138990Y-3738095D01*
X-8138990Y-3738095D02*
X-8091371Y-3833333D01*
X-8091371Y-3833333D02*
X-8091371Y-4214285D01*
X-7615180Y-2690476D02*
X-7615180Y-3261904D01*
X-7615180Y-2976190D02*
X-8615180Y-2976190D01*
X-8615180Y-2976190D02*
X-8472323Y-3071428D01*
X-8472323Y-3071428D02*
X-8377085Y-3166666D01*
X-8377085Y-3166666D02*
X-8329466Y-3261904D01*
X-8615180Y-2357142D02*
X-8615180Y-1738095D01*
X-8615180Y-1738095D02*
X-8234228Y-2071428D01*
X-8234228Y-2071428D02*
X-8234228Y-1928571D01*
X-8234228Y-1928571D02*
X-8186609Y-1833333D01*
X-8186609Y-1833333D02*
X-8138990Y-1785714D01*
X-8138990Y-1785714D02*
X-8043752Y-1738095D01*
X-8043752Y-1738095D02*
X-7805657Y-1738095D01*
X-7805657Y-1738095D02*
X-7710419Y-1785714D01*
X-7710419Y-1785714D02*
X-7662800Y-1833333D01*
X-7662800Y-1833333D02*
X-7615180Y-1928571D01*
X-7615180Y-1928571D02*
X-7615180Y-2214285D01*
X-7615180Y-2214285D02*
X-7662800Y-2309523D01*
X-7662800Y-2309523D02*
X-7710419Y-2357142D01*
X-78475180Y357142D02*
X-78951371Y23809D01*
X-78475180Y-214285D02*
X-79475180Y-214285D01*
X-79475180Y-214285D02*
X-79475180Y166666D01*
X-79475180Y166666D02*
X-79427561Y261904D01*
X-79427561Y261904D02*
X-79379942Y309523D01*
X-79379942Y309523D02*
X-79284704Y357142D01*
X-79284704Y357142D02*
X-79141847Y357142D01*
X-79141847Y357142D02*
X-79046609Y309523D01*
X-79046609Y309523D02*
X-78998990Y261904D01*
X-78998990Y261904D02*
X-78951371Y166666D01*
X-78951371Y166666D02*
X-78951371Y-214285D01*
X-78475180Y1309523D02*
X-78475180Y738095D01*
X-78475180Y1023809D02*
X-79475180Y1023809D01*
X-79475180Y1023809D02*
X-79332323Y928571D01*
X-79332323Y928571D02*
X-79237085Y833333D01*
X-79237085Y833333D02*
X-79189466Y738095D01*
X-79475180Y2166666D02*
X-79475180Y1976190D01*
X-79475180Y1976190D02*
X-79427561Y1880952D01*
X-79427561Y1880952D02*
X-79379942Y1833333D01*
X-79379942Y1833333D02*
X-79237085Y1738095D01*
X-79237085Y1738095D02*
X-79046609Y1690476D01*
X-79046609Y1690476D02*
X-78665657Y1690476D01*
X-78665657Y1690476D02*
X-78570419Y1738095D01*
X-78570419Y1738095D02*
X-78522800Y1785714D01*
X-78522800Y1785714D02*
X-78475180Y1880952D01*
X-78475180Y1880952D02*
X-78475180Y2071428D01*
X-78475180Y2071428D02*
X-78522800Y2166666D01*
X-78522800Y2166666D02*
X-78570419Y2214285D01*
X-78570419Y2214285D02*
X-78665657Y2261904D01*
X-78665657Y2261904D02*
X-78903752Y2261904D01*
X-78903752Y2261904D02*
X-78998990Y2214285D01*
X-78998990Y2214285D02*
X-79046609Y2166666D01*
X-79046609Y2166666D02*
X-79094228Y2071428D01*
X-79094228Y2071428D02*
X-79094228Y1880952D01*
X-79094228Y1880952D02*
X-79046609Y1785714D01*
X-79046609Y1785714D02*
X-78998990Y1738095D01*
X-78998990Y1738095D02*
X-78903752Y1690476D01*
X-87975180Y-8666666D02*
X-88451371Y-8999999D01*
X-87975180Y-9238094D02*
X-88975180Y-9238094D01*
X-88975180Y-9238094D02*
X-88975180Y-8857142D01*
X-88975180Y-8857142D02*
X-88927561Y-8761904D01*
X-88927561Y-8761904D02*
X-88879942Y-8714285D01*
X-88879942Y-8714285D02*
X-88784704Y-8666666D01*
X-88784704Y-8666666D02*
X-88641847Y-8666666D01*
X-88641847Y-8666666D02*
X-88546609Y-8714285D01*
X-88546609Y-8714285D02*
X-88498990Y-8761904D01*
X-88498990Y-8761904D02*
X-88451371Y-8857142D01*
X-88451371Y-8857142D02*
X-88451371Y-9238094D01*
X-88546609Y-8095237D02*
X-88594228Y-8190475D01*
X-88594228Y-8190475D02*
X-88641847Y-8238094D01*
X-88641847Y-8238094D02*
X-88737085Y-8285713D01*
X-88737085Y-8285713D02*
X-88784704Y-8285713D01*
X-88784704Y-8285713D02*
X-88879942Y-8238094D01*
X-88879942Y-8238094D02*
X-88927561Y-8190475D01*
X-88927561Y-8190475D02*
X-88975180Y-8095237D01*
X-88975180Y-8095237D02*
X-88975180Y-7904761D01*
X-88975180Y-7904761D02*
X-88927561Y-7809523D01*
X-88927561Y-7809523D02*
X-88879942Y-7761904D01*
X-88879942Y-7761904D02*
X-88784704Y-7714285D01*
X-88784704Y-7714285D02*
X-88737085Y-7714285D01*
X-88737085Y-7714285D02*
X-88641847Y-7761904D01*
X-88641847Y-7761904D02*
X-88594228Y-7809523D01*
X-88594228Y-7809523D02*
X-88546609Y-7904761D01*
X-88546609Y-7904761D02*
X-88546609Y-8095237D01*
X-88546609Y-8095237D02*
X-88498990Y-8190475D01*
X-88498990Y-8190475D02*
X-88451371Y-8238094D01*
X-88451371Y-8238094D02*
X-88356133Y-8285713D01*
X-88356133Y-8285713D02*
X-88165657Y-8285713D01*
X-88165657Y-8285713D02*
X-88070419Y-8238094D01*
X-88070419Y-8238094D02*
X-88022800Y-8190475D01*
X-88022800Y-8190475D02*
X-87975180Y-8095237D01*
X-87975180Y-8095237D02*
X-87975180Y-7904761D01*
X-87975180Y-7904761D02*
X-88022800Y-7809523D01*
X-88022800Y-7809523D02*
X-88070419Y-7761904D01*
X-88070419Y-7761904D02*
X-88165657Y-7714285D01*
X-88165657Y-7714285D02*
X-88356133Y-7714285D01*
X-88356133Y-7714285D02*
X-88451371Y-7761904D01*
X-88451371Y-7761904D02*
X-88498990Y-7809523D01*
X-88498990Y-7809523D02*
X-88546609Y-7904761D01*
X-16642857Y-9884819D02*
X-16976190Y-9408628D01*
X-17214285Y-9884819D02*
X-17214285Y-8884819D01*
X-17214285Y-8884819D02*
X-16833333Y-8884819D01*
X-16833333Y-8884819D02*
X-16738095Y-8932438D01*
X-16738095Y-8932438D02*
X-16690476Y-8980057D01*
X-16690476Y-8980057D02*
X-16642857Y-9075295D01*
X-16642857Y-9075295D02*
X-16642857Y-9218152D01*
X-16642857Y-9218152D02*
X-16690476Y-9313390D01*
X-16690476Y-9313390D02*
X-16738095Y-9361009D01*
X-16738095Y-9361009D02*
X-16833333Y-9408628D01*
X-16833333Y-9408628D02*
X-17214285Y-9408628D01*
X-15690476Y-9884819D02*
X-16261904Y-9884819D01*
X-15976190Y-9884819D02*
X-15976190Y-8884819D01*
X-15976190Y-8884819D02*
X-16071428Y-9027676D01*
X-16071428Y-9027676D02*
X-16166666Y-9122914D01*
X-16166666Y-9122914D02*
X-16261904Y-9170533D01*
X-14738095Y-9884819D02*
X-15309523Y-9884819D01*
X-15023809Y-9884819D02*
X-15023809Y-8884819D01*
X-15023809Y-8884819D02*
X-15119047Y-9027676D01*
X-15119047Y-9027676D02*
X-15214285Y-9122914D01*
X-15214285Y-9122914D02*
X-15309523Y-9170533D01*
X73357142Y-35429580D02*
X73309523Y-35477200D01*
X73309523Y-35477200D02*
X73166666Y-35524819D01*
X73166666Y-35524819D02*
X73071428Y-35524819D01*
X73071428Y-35524819D02*
X72928571Y-35477200D01*
X72928571Y-35477200D02*
X72833333Y-35381961D01*
X72833333Y-35381961D02*
X72785714Y-35286723D01*
X72785714Y-35286723D02*
X72738095Y-35096247D01*
X72738095Y-35096247D02*
X72738095Y-34953390D01*
X72738095Y-34953390D02*
X72785714Y-34762914D01*
X72785714Y-34762914D02*
X72833333Y-34667676D01*
X72833333Y-34667676D02*
X72928571Y-34572438D01*
X72928571Y-34572438D02*
X73071428Y-34524819D01*
X73071428Y-34524819D02*
X73166666Y-34524819D01*
X73166666Y-34524819D02*
X73309523Y-34572438D01*
X73309523Y-34572438D02*
X73357142Y-34620057D01*
X74309523Y-35524819D02*
X73738095Y-35524819D01*
X74023809Y-35524819D02*
X74023809Y-34524819D01*
X74023809Y-34524819D02*
X73928571Y-34667676D01*
X73928571Y-34667676D02*
X73833333Y-34762914D01*
X73833333Y-34762914D02*
X73738095Y-34810533D01*
X74642857Y-34524819D02*
X75309523Y-34524819D01*
X75309523Y-34524819D02*
X74880952Y-35524819D01*
X87857142Y-23524819D02*
X87523809Y-23048628D01*
X87285714Y-23524819D02*
X87285714Y-22524819D01*
X87285714Y-22524819D02*
X87666666Y-22524819D01*
X87666666Y-22524819D02*
X87761904Y-22572438D01*
X87761904Y-22572438D02*
X87809523Y-22620057D01*
X87809523Y-22620057D02*
X87857142Y-22715295D01*
X87857142Y-22715295D02*
X87857142Y-22858152D01*
X87857142Y-22858152D02*
X87809523Y-22953390D01*
X87809523Y-22953390D02*
X87761904Y-23001009D01*
X87761904Y-23001009D02*
X87666666Y-23048628D01*
X87666666Y-23048628D02*
X87285714Y-23048628D01*
X88238095Y-22620057D02*
X88285714Y-22572438D01*
X88285714Y-22572438D02*
X88380952Y-22524819D01*
X88380952Y-22524819D02*
X88619047Y-22524819D01*
X88619047Y-22524819D02*
X88714285Y-22572438D01*
X88714285Y-22572438D02*
X88761904Y-22620057D01*
X88761904Y-22620057D02*
X88809523Y-22715295D01*
X88809523Y-22715295D02*
X88809523Y-22810533D01*
X88809523Y-22810533D02*
X88761904Y-22953390D01*
X88761904Y-22953390D02*
X88190476Y-23524819D01*
X88190476Y-23524819D02*
X88809523Y-23524819D01*
X89142857Y-22524819D02*
X89809523Y-22524819D01*
X89809523Y-22524819D02*
X89380952Y-23524819D01*
X-9349942Y-13825238D02*
X-9397561Y-13920476D01*
X-9397561Y-13920476D02*
X-9492800Y-14015714D01*
X-9492800Y-14015714D02*
X-9635657Y-14158571D01*
X-9635657Y-14158571D02*
X-9683276Y-14253809D01*
X-9683276Y-14253809D02*
X-9683276Y-14349047D01*
X-9445180Y-14301428D02*
X-9492800Y-14396666D01*
X-9492800Y-14396666D02*
X-9588038Y-14491904D01*
X-9588038Y-14491904D02*
X-9778514Y-14539523D01*
X-9778514Y-14539523D02*
X-10111847Y-14539523D01*
X-10111847Y-14539523D02*
X-10302323Y-14491904D01*
X-10302323Y-14491904D02*
X-10397561Y-14396666D01*
X-10397561Y-14396666D02*
X-10445180Y-14301428D01*
X-10445180Y-14301428D02*
X-10445180Y-14110952D01*
X-10445180Y-14110952D02*
X-10397561Y-14015714D01*
X-10397561Y-14015714D02*
X-10302323Y-13920476D01*
X-10302323Y-13920476D02*
X-10111847Y-13872857D01*
X-10111847Y-13872857D02*
X-9778514Y-13872857D01*
X-9778514Y-13872857D02*
X-9588038Y-13920476D01*
X-9588038Y-13920476D02*
X-9492800Y-14015714D01*
X-9492800Y-14015714D02*
X-9445180Y-14110952D01*
X-9445180Y-14110952D02*
X-9445180Y-14301428D01*
X-10445180Y-13015714D02*
X-10445180Y-13206190D01*
X-10445180Y-13206190D02*
X-10397561Y-13301428D01*
X-10397561Y-13301428D02*
X-10349942Y-13349047D01*
X-10349942Y-13349047D02*
X-10207085Y-13444285D01*
X-10207085Y-13444285D02*
X-10016609Y-13491904D01*
X-10016609Y-13491904D02*
X-9635657Y-13491904D01*
X-9635657Y-13491904D02*
X-9540419Y-13444285D01*
X-9540419Y-13444285D02*
X-9492800Y-13396666D01*
X-9492800Y-13396666D02*
X-9445180Y-13301428D01*
X-9445180Y-13301428D02*
X-9445180Y-13110952D01*
X-9445180Y-13110952D02*
X-9492800Y-13015714D01*
X-9492800Y-13015714D02*
X-9540419Y-12968095D01*
X-9540419Y-12968095D02*
X-9635657Y-12920476D01*
X-9635657Y-12920476D02*
X-9873752Y-12920476D01*
X-9873752Y-12920476D02*
X-9968990Y-12968095D01*
X-9968990Y-12968095D02*
X-10016609Y-13015714D01*
X-10016609Y-13015714D02*
X-10064228Y-13110952D01*
X-10064228Y-13110952D02*
X-10064228Y-13301428D01*
X-10064228Y-13301428D02*
X-10016609Y-13396666D01*
X-10016609Y-13396666D02*
X-9968990Y-13444285D01*
X-9968990Y-13444285D02*
X-9873752Y-13491904D01*
X78666666Y-20809819D02*
X78666666Y-21524104D01*
X78666666Y-21524104D02*
X78619047Y-21666961D01*
X78619047Y-21666961D02*
X78523809Y-21762200D01*
X78523809Y-21762200D02*
X78380952Y-21809819D01*
X78380952Y-21809819D02*
X78285714Y-21809819D01*
X79095238Y-20905057D02*
X79142857Y-20857438D01*
X79142857Y-20857438D02*
X79238095Y-20809819D01*
X79238095Y-20809819D02*
X79476190Y-20809819D01*
X79476190Y-20809819D02*
X79571428Y-20857438D01*
X79571428Y-20857438D02*
X79619047Y-20905057D01*
X79619047Y-20905057D02*
X79666666Y-21000295D01*
X79666666Y-21000295D02*
X79666666Y-21095533D01*
X79666666Y-21095533D02*
X79619047Y-21238390D01*
X79619047Y-21238390D02*
X79047619Y-21809819D01*
X79047619Y-21809819D02*
X79666666Y-21809819D01*
X-16642857Y-21884819D02*
X-16976190Y-21408628D01*
X-17214285Y-21884819D02*
X-17214285Y-20884819D01*
X-17214285Y-20884819D02*
X-16833333Y-20884819D01*
X-16833333Y-20884819D02*
X-16738095Y-20932438D01*
X-16738095Y-20932438D02*
X-16690476Y-20980057D01*
X-16690476Y-20980057D02*
X-16642857Y-21075295D01*
X-16642857Y-21075295D02*
X-16642857Y-21218152D01*
X-16642857Y-21218152D02*
X-16690476Y-21313390D01*
X-16690476Y-21313390D02*
X-16738095Y-21361009D01*
X-16738095Y-21361009D02*
X-16833333Y-21408628D01*
X-16833333Y-21408628D02*
X-17214285Y-21408628D01*
X-15690476Y-21884819D02*
X-16261904Y-21884819D01*
X-15976190Y-21884819D02*
X-15976190Y-20884819D01*
X-15976190Y-20884819D02*
X-16071428Y-21027676D01*
X-16071428Y-21027676D02*
X-16166666Y-21122914D01*
X-16166666Y-21122914D02*
X-16261904Y-21170533D01*
X-15309523Y-20980057D02*
X-15261904Y-20932438D01*
X-15261904Y-20932438D02*
X-15166666Y-20884819D01*
X-15166666Y-20884819D02*
X-14928571Y-20884819D01*
X-14928571Y-20884819D02*
X-14833333Y-20932438D01*
X-14833333Y-20932438D02*
X-14785714Y-20980057D01*
X-14785714Y-20980057D02*
X-14738095Y-21075295D01*
X-14738095Y-21075295D02*
X-14738095Y-21170533D01*
X-14738095Y-21170533D02*
X-14785714Y-21313390D01*
X-14785714Y-21313390D02*
X-15357142Y-21884819D01*
X-15357142Y-21884819D02*
X-14738095Y-21884819D01*
X-76095238Y-7650057D02*
X-76190476Y-7602438D01*
X-76190476Y-7602438D02*
X-76285714Y-7507200D01*
X-76285714Y-7507200D02*
X-76428571Y-7364342D01*
X-76428571Y-7364342D02*
X-76523809Y-7316723D01*
X-76523809Y-7316723D02*
X-76619047Y-7316723D01*
X-76571428Y-7554819D02*
X-76666666Y-7507200D01*
X-76666666Y-7507200D02*
X-76761904Y-7411961D01*
X-76761904Y-7411961D02*
X-76809523Y-7221485D01*
X-76809523Y-7221485D02*
X-76809523Y-6888152D01*
X-76809523Y-6888152D02*
X-76761904Y-6697676D01*
X-76761904Y-6697676D02*
X-76666666Y-6602438D01*
X-76666666Y-6602438D02*
X-76571428Y-6554819D01*
X-76571428Y-6554819D02*
X-76380952Y-6554819D01*
X-76380952Y-6554819D02*
X-76285714Y-6602438D01*
X-76285714Y-6602438D02*
X-76190476Y-6697676D01*
X-76190476Y-6697676D02*
X-76142857Y-6888152D01*
X-76142857Y-6888152D02*
X-76142857Y-7221485D01*
X-76142857Y-7221485D02*
X-76190476Y-7411961D01*
X-76190476Y-7411961D02*
X-76285714Y-7507200D01*
X-76285714Y-7507200D02*
X-76380952Y-7554819D01*
X-76380952Y-7554819D02*
X-76571428Y-7554819D01*
X-75571428Y-6983390D02*
X-75666666Y-6935771D01*
X-75666666Y-6935771D02*
X-75714285Y-6888152D01*
X-75714285Y-6888152D02*
X-75761904Y-6792914D01*
X-75761904Y-6792914D02*
X-75761904Y-6745295D01*
X-75761904Y-6745295D02*
X-75714285Y-6650057D01*
X-75714285Y-6650057D02*
X-75666666Y-6602438D01*
X-75666666Y-6602438D02*
X-75571428Y-6554819D01*
X-75571428Y-6554819D02*
X-75380952Y-6554819D01*
X-75380952Y-6554819D02*
X-75285714Y-6602438D01*
X-75285714Y-6602438D02*
X-75238095Y-6650057D01*
X-75238095Y-6650057D02*
X-75190476Y-6745295D01*
X-75190476Y-6745295D02*
X-75190476Y-6792914D01*
X-75190476Y-6792914D02*
X-75238095Y-6888152D01*
X-75238095Y-6888152D02*
X-75285714Y-6935771D01*
X-75285714Y-6935771D02*
X-75380952Y-6983390D01*
X-75380952Y-6983390D02*
X-75571428Y-6983390D01*
X-75571428Y-6983390D02*
X-75666666Y-7031009D01*
X-75666666Y-7031009D02*
X-75714285Y-7078628D01*
X-75714285Y-7078628D02*
X-75761904Y-7173866D01*
X-75761904Y-7173866D02*
X-75761904Y-7364342D01*
X-75761904Y-7364342D02*
X-75714285Y-7459580D01*
X-75714285Y-7459580D02*
X-75666666Y-7507200D01*
X-75666666Y-7507200D02*
X-75571428Y-7554819D01*
X-75571428Y-7554819D02*
X-75380952Y-7554819D01*
X-75380952Y-7554819D02*
X-75285714Y-7507200D01*
X-75285714Y-7507200D02*
X-75238095Y-7459580D01*
X-75238095Y-7459580D02*
X-75190476Y-7364342D01*
X-75190476Y-7364342D02*
X-75190476Y-7173866D01*
X-75190476Y-7173866D02*
X-75238095Y-7078628D01*
X-75238095Y-7078628D02*
X-75285714Y-7031009D01*
X-75285714Y-7031009D02*
X-75380952Y-6983390D01*
X64333333Y-93545180D02*
X64333333Y-92830895D01*
X64333333Y-92830895D02*
X64380952Y-92688038D01*
X64380952Y-92688038D02*
X64476190Y-92592800D01*
X64476190Y-92592800D02*
X64619047Y-92545180D01*
X64619047Y-92545180D02*
X64714285Y-92545180D01*
X63333333Y-92545180D02*
X63904761Y-92545180D01*
X63619047Y-92545180D02*
X63619047Y-93545180D01*
X63619047Y-93545180D02*
X63714285Y-93402323D01*
X63714285Y-93402323D02*
X63809523Y-93307085D01*
X63809523Y-93307085D02*
X63904761Y-93259466D01*
X-9349942Y-19825238D02*
X-9397561Y-19920476D01*
X-9397561Y-19920476D02*
X-9492800Y-20015714D01*
X-9492800Y-20015714D02*
X-9635657Y-20158571D01*
X-9635657Y-20158571D02*
X-9683276Y-20253809D01*
X-9683276Y-20253809D02*
X-9683276Y-20349047D01*
X-9445180Y-20301428D02*
X-9492800Y-20396666D01*
X-9492800Y-20396666D02*
X-9588038Y-20491904D01*
X-9588038Y-20491904D02*
X-9778514Y-20539523D01*
X-9778514Y-20539523D02*
X-10111847Y-20539523D01*
X-10111847Y-20539523D02*
X-10302323Y-20491904D01*
X-10302323Y-20491904D02*
X-10397561Y-20396666D01*
X-10397561Y-20396666D02*
X-10445180Y-20301428D01*
X-10445180Y-20301428D02*
X-10445180Y-20110952D01*
X-10445180Y-20110952D02*
X-10397561Y-20015714D01*
X-10397561Y-20015714D02*
X-10302323Y-19920476D01*
X-10302323Y-19920476D02*
X-10111847Y-19872857D01*
X-10111847Y-19872857D02*
X-9778514Y-19872857D01*
X-9778514Y-19872857D02*
X-9588038Y-19920476D01*
X-9588038Y-19920476D02*
X-9492800Y-20015714D01*
X-9492800Y-20015714D02*
X-9445180Y-20110952D01*
X-9445180Y-20110952D02*
X-9445180Y-20301428D01*
X-10445180Y-19539523D02*
X-10445180Y-18872857D01*
X-10445180Y-18872857D02*
X-9445180Y-19301428D01*
X140357142Y-133609580D02*
X140309523Y-133657200D01*
X140309523Y-133657200D02*
X140166666Y-133704819D01*
X140166666Y-133704819D02*
X140071428Y-133704819D01*
X140071428Y-133704819D02*
X139928571Y-133657200D01*
X139928571Y-133657200D02*
X139833333Y-133561961D01*
X139833333Y-133561961D02*
X139785714Y-133466723D01*
X139785714Y-133466723D02*
X139738095Y-133276247D01*
X139738095Y-133276247D02*
X139738095Y-133133390D01*
X139738095Y-133133390D02*
X139785714Y-132942914D01*
X139785714Y-132942914D02*
X139833333Y-132847676D01*
X139833333Y-132847676D02*
X139928571Y-132752438D01*
X139928571Y-132752438D02*
X140071428Y-132704819D01*
X140071428Y-132704819D02*
X140166666Y-132704819D01*
X140166666Y-132704819D02*
X140309523Y-132752438D01*
X140309523Y-132752438D02*
X140357142Y-132800057D01*
X141309523Y-133704819D02*
X140738095Y-133704819D01*
X141023809Y-133704819D02*
X141023809Y-132704819D01*
X141023809Y-132704819D02*
X140928571Y-132847676D01*
X140928571Y-132847676D02*
X140833333Y-132942914D01*
X140833333Y-132942914D02*
X140738095Y-132990533D01*
X142214285Y-132704819D02*
X141738095Y-132704819D01*
X141738095Y-132704819D02*
X141690476Y-133181009D01*
X141690476Y-133181009D02*
X141738095Y-133133390D01*
X141738095Y-133133390D02*
X141833333Y-133085771D01*
X141833333Y-133085771D02*
X142071428Y-133085771D01*
X142071428Y-133085771D02*
X142166666Y-133133390D01*
X142166666Y-133133390D02*
X142214285Y-133181009D01*
X142214285Y-133181009D02*
X142261904Y-133276247D01*
X142261904Y-133276247D02*
X142261904Y-133514342D01*
X142261904Y-133514342D02*
X142214285Y-133609580D01*
X142214285Y-133609580D02*
X142166666Y-133657200D01*
X142166666Y-133657200D02*
X142071428Y-133704819D01*
X142071428Y-133704819D02*
X141833333Y-133704819D01*
X141833333Y-133704819D02*
X141738095Y-133657200D01*
X141738095Y-133657200D02*
X141690476Y-133609580D01*
X78357142Y-119429580D02*
X78309523Y-119477200D01*
X78309523Y-119477200D02*
X78166666Y-119524819D01*
X78166666Y-119524819D02*
X78071428Y-119524819D01*
X78071428Y-119524819D02*
X77928571Y-119477200D01*
X77928571Y-119477200D02*
X77833333Y-119381961D01*
X77833333Y-119381961D02*
X77785714Y-119286723D01*
X77785714Y-119286723D02*
X77738095Y-119096247D01*
X77738095Y-119096247D02*
X77738095Y-118953390D01*
X77738095Y-118953390D02*
X77785714Y-118762914D01*
X77785714Y-118762914D02*
X77833333Y-118667676D01*
X77833333Y-118667676D02*
X77928571Y-118572438D01*
X77928571Y-118572438D02*
X78071428Y-118524819D01*
X78071428Y-118524819D02*
X78166666Y-118524819D01*
X78166666Y-118524819D02*
X78309523Y-118572438D01*
X78309523Y-118572438D02*
X78357142Y-118620057D01*
X79309523Y-119524819D02*
X78738095Y-119524819D01*
X79023809Y-119524819D02*
X79023809Y-118524819D01*
X79023809Y-118524819D02*
X78928571Y-118667676D01*
X78928571Y-118667676D02*
X78833333Y-118762914D01*
X78833333Y-118762914D02*
X78738095Y-118810533D01*
X80261904Y-119524819D02*
X79690476Y-119524819D01*
X79976190Y-119524819D02*
X79976190Y-118524819D01*
X79976190Y-118524819D02*
X79880952Y-118667676D01*
X79880952Y-118667676D02*
X79785714Y-118762914D01*
X79785714Y-118762914D02*
X79690476Y-118810533D01*
X73238095Y-30554819D02*
X73238095Y-31364342D01*
X73238095Y-31364342D02*
X73285714Y-31459580D01*
X73285714Y-31459580D02*
X73333333Y-31507200D01*
X73333333Y-31507200D02*
X73428571Y-31554819D01*
X73428571Y-31554819D02*
X73619047Y-31554819D01*
X73619047Y-31554819D02*
X73714285Y-31507200D01*
X73714285Y-31507200D02*
X73761904Y-31459580D01*
X73761904Y-31459580D02*
X73809523Y-31364342D01*
X73809523Y-31364342D02*
X73809523Y-30554819D01*
X74761904Y-30554819D02*
X74285714Y-30554819D01*
X74285714Y-30554819D02*
X74238095Y-31031009D01*
X74238095Y-31031009D02*
X74285714Y-30983390D01*
X74285714Y-30983390D02*
X74380952Y-30935771D01*
X74380952Y-30935771D02*
X74619047Y-30935771D01*
X74619047Y-30935771D02*
X74714285Y-30983390D01*
X74714285Y-30983390D02*
X74761904Y-31031009D01*
X74761904Y-31031009D02*
X74809523Y-31126247D01*
X74809523Y-31126247D02*
X74809523Y-31364342D01*
X74809523Y-31364342D02*
X74761904Y-31459580D01*
X74761904Y-31459580D02*
X74714285Y-31507200D01*
X74714285Y-31507200D02*
X74619047Y-31554819D01*
X74619047Y-31554819D02*
X74380952Y-31554819D01*
X74380952Y-31554819D02*
X74285714Y-31507200D01*
X74285714Y-31507200D02*
X74238095Y-31459580D01*
X102761905Y-142454819D02*
X102761905Y-141454819D01*
X102761905Y-141454819D02*
X103333333Y-142454819D01*
X103333333Y-142454819D02*
X103333333Y-141454819D01*
X103761905Y-142407200D02*
X103904762Y-142454819D01*
X103904762Y-142454819D02*
X104142857Y-142454819D01*
X104142857Y-142454819D02*
X104238095Y-142407200D01*
X104238095Y-142407200D02*
X104285714Y-142359580D01*
X104285714Y-142359580D02*
X104333333Y-142264342D01*
X104333333Y-142264342D02*
X104333333Y-142169104D01*
X104333333Y-142169104D02*
X104285714Y-142073866D01*
X104285714Y-142073866D02*
X104238095Y-142026247D01*
X104238095Y-142026247D02*
X104142857Y-141978628D01*
X104142857Y-141978628D02*
X103952381Y-141931009D01*
X103952381Y-141931009D02*
X103857143Y-141883390D01*
X103857143Y-141883390D02*
X103809524Y-141835771D01*
X103809524Y-141835771D02*
X103761905Y-141740533D01*
X103761905Y-141740533D02*
X103761905Y-141645295D01*
X103761905Y-141645295D02*
X103809524Y-141550057D01*
X103809524Y-141550057D02*
X103857143Y-141502438D01*
X103857143Y-141502438D02*
X103952381Y-141454819D01*
X103952381Y-141454819D02*
X104190476Y-141454819D01*
X104190476Y-141454819D02*
X104333333Y-141502438D01*
X105285714Y-142454819D02*
X104714286Y-142454819D01*
X105000000Y-142454819D02*
X105000000Y-141454819D01*
X105000000Y-141454819D02*
X104904762Y-141597676D01*
X104904762Y-141597676D02*
X104809524Y-141692914D01*
X104809524Y-141692914D02*
X104714286Y-141740533D01*
X102666667Y-126907200D02*
X102809524Y-126954819D01*
X102809524Y-126954819D02*
X103047619Y-126954819D01*
X103047619Y-126954819D02*
X103142857Y-126907200D01*
X103142857Y-126907200D02*
X103190476Y-126859580D01*
X103190476Y-126859580D02*
X103238095Y-126764342D01*
X103238095Y-126764342D02*
X103238095Y-126669104D01*
X103238095Y-126669104D02*
X103190476Y-126573866D01*
X103190476Y-126573866D02*
X103142857Y-126526247D01*
X103142857Y-126526247D02*
X103047619Y-126478628D01*
X103047619Y-126478628D02*
X102857143Y-126431009D01*
X102857143Y-126431009D02*
X102761905Y-126383390D01*
X102761905Y-126383390D02*
X102714286Y-126335771D01*
X102714286Y-126335771D02*
X102666667Y-126240533D01*
X102666667Y-126240533D02*
X102666667Y-126145295D01*
X102666667Y-126145295D02*
X102714286Y-126050057D01*
X102714286Y-126050057D02*
X102761905Y-126002438D01*
X102761905Y-126002438D02*
X102857143Y-125954819D01*
X102857143Y-125954819D02*
X103095238Y-125954819D01*
X103095238Y-125954819D02*
X103238095Y-126002438D01*
X103571429Y-125954819D02*
X103809524Y-126954819D01*
X103809524Y-126954819D02*
X104000000Y-126240533D01*
X104000000Y-126240533D02*
X104190476Y-126954819D01*
X104190476Y-126954819D02*
X104428572Y-125954819D01*
X104761905Y-126050057D02*
X104809524Y-126002438D01*
X104809524Y-126002438D02*
X104904762Y-125954819D01*
X104904762Y-125954819D02*
X105142857Y-125954819D01*
X105142857Y-125954819D02*
X105238095Y-126002438D01*
X105238095Y-126002438D02*
X105285714Y-126050057D01*
X105285714Y-126050057D02*
X105333333Y-126145295D01*
X105333333Y-126145295D02*
X105333333Y-126240533D01*
X105333333Y-126240533D02*
X105285714Y-126383390D01*
X105285714Y-126383390D02*
X104714286Y-126954819D01*
X104714286Y-126954819D02*
X105333333Y-126954819D01*
X46857142Y-50524819D02*
X46523809Y-50048628D01*
X46285714Y-50524819D02*
X46285714Y-49524819D01*
X46285714Y-49524819D02*
X46666666Y-49524819D01*
X46666666Y-49524819D02*
X46761904Y-49572438D01*
X46761904Y-49572438D02*
X46809523Y-49620057D01*
X46809523Y-49620057D02*
X46857142Y-49715295D01*
X46857142Y-49715295D02*
X46857142Y-49858152D01*
X46857142Y-49858152D02*
X46809523Y-49953390D01*
X46809523Y-49953390D02*
X46761904Y-50001009D01*
X46761904Y-50001009D02*
X46666666Y-50048628D01*
X46666666Y-50048628D02*
X46285714Y-50048628D01*
X47238095Y-49620057D02*
X47285714Y-49572438D01*
X47285714Y-49572438D02*
X47380952Y-49524819D01*
X47380952Y-49524819D02*
X47619047Y-49524819D01*
X47619047Y-49524819D02*
X47714285Y-49572438D01*
X47714285Y-49572438D02*
X47761904Y-49620057D01*
X47761904Y-49620057D02*
X47809523Y-49715295D01*
X47809523Y-49715295D02*
X47809523Y-49810533D01*
X47809523Y-49810533D02*
X47761904Y-49953390D01*
X47761904Y-49953390D02*
X47190476Y-50524819D01*
X47190476Y-50524819D02*
X47809523Y-50524819D01*
X48761904Y-50524819D02*
X48190476Y-50524819D01*
X48476190Y-50524819D02*
X48476190Y-49524819D01*
X48476190Y-49524819D02*
X48380952Y-49667676D01*
X48380952Y-49667676D02*
X48285714Y-49762914D01*
X48285714Y-49762914D02*
X48190476Y-49810533D01*
X-71861904Y10865180D02*
X-71861904Y10055657D01*
X-71861904Y10055657D02*
X-71814285Y9960419D01*
X-71814285Y9960419D02*
X-71766666Y9912800D01*
X-71766666Y9912800D02*
X-71671428Y9865180D01*
X-71671428Y9865180D02*
X-71480952Y9865180D01*
X-71480952Y9865180D02*
X-71385714Y9912800D01*
X-71385714Y9912800D02*
X-71338095Y9960419D01*
X-71338095Y9960419D02*
X-71290476Y10055657D01*
X-71290476Y10055657D02*
X-71290476Y10865180D01*
X-70385714Y10531847D02*
X-70385714Y9865180D01*
X-70623809Y10912800D02*
X-70861904Y10198514D01*
X-70861904Y10198514D02*
X-70242857Y10198514D01*
X117357142Y-69929580D02*
X117309523Y-69977200D01*
X117309523Y-69977200D02*
X117166666Y-70024819D01*
X117166666Y-70024819D02*
X117071428Y-70024819D01*
X117071428Y-70024819D02*
X116928571Y-69977200D01*
X116928571Y-69977200D02*
X116833333Y-69881961D01*
X116833333Y-69881961D02*
X116785714Y-69786723D01*
X116785714Y-69786723D02*
X116738095Y-69596247D01*
X116738095Y-69596247D02*
X116738095Y-69453390D01*
X116738095Y-69453390D02*
X116785714Y-69262914D01*
X116785714Y-69262914D02*
X116833333Y-69167676D01*
X116833333Y-69167676D02*
X116928571Y-69072438D01*
X116928571Y-69072438D02*
X117071428Y-69024819D01*
X117071428Y-69024819D02*
X117166666Y-69024819D01*
X117166666Y-69024819D02*
X117309523Y-69072438D01*
X117309523Y-69072438D02*
X117357142Y-69120057D01*
X118309523Y-70024819D02*
X117738095Y-70024819D01*
X118023809Y-70024819D02*
X118023809Y-69024819D01*
X118023809Y-69024819D02*
X117928571Y-69167676D01*
X117928571Y-69167676D02*
X117833333Y-69262914D01*
X117833333Y-69262914D02*
X117738095Y-69310533D01*
X119166666Y-69024819D02*
X118976190Y-69024819D01*
X118976190Y-69024819D02*
X118880952Y-69072438D01*
X118880952Y-69072438D02*
X118833333Y-69120057D01*
X118833333Y-69120057D02*
X118738095Y-69262914D01*
X118738095Y-69262914D02*
X118690476Y-69453390D01*
X118690476Y-69453390D02*
X118690476Y-69834342D01*
X118690476Y-69834342D02*
X118738095Y-69929580D01*
X118738095Y-69929580D02*
X118785714Y-69977200D01*
X118785714Y-69977200D02*
X118880952Y-70024819D01*
X118880952Y-70024819D02*
X119071428Y-70024819D01*
X119071428Y-70024819D02*
X119166666Y-69977200D01*
X119166666Y-69977200D02*
X119214285Y-69929580D01*
X119214285Y-69929580D02*
X119261904Y-69834342D01*
X119261904Y-69834342D02*
X119261904Y-69596247D01*
X119261904Y-69596247D02*
X119214285Y-69501009D01*
X119214285Y-69501009D02*
X119166666Y-69453390D01*
X119166666Y-69453390D02*
X119071428Y-69405771D01*
X119071428Y-69405771D02*
X118880952Y-69405771D01*
X118880952Y-69405771D02*
X118785714Y-69453390D01*
X118785714Y-69453390D02*
X118738095Y-69501009D01*
X118738095Y-69501009D02*
X118690476Y-69596247D01*
X-84095238Y-6650057D02*
X-84190476Y-6602438D01*
X-84190476Y-6602438D02*
X-84285714Y-6507200D01*
X-84285714Y-6507200D02*
X-84428571Y-6364342D01*
X-84428571Y-6364342D02*
X-84523809Y-6316723D01*
X-84523809Y-6316723D02*
X-84619047Y-6316723D01*
X-84571428Y-6554819D02*
X-84666666Y-6507200D01*
X-84666666Y-6507200D02*
X-84761904Y-6411961D01*
X-84761904Y-6411961D02*
X-84809523Y-6221485D01*
X-84809523Y-6221485D02*
X-84809523Y-5888152D01*
X-84809523Y-5888152D02*
X-84761904Y-5697676D01*
X-84761904Y-5697676D02*
X-84666666Y-5602438D01*
X-84666666Y-5602438D02*
X-84571428Y-5554819D01*
X-84571428Y-5554819D02*
X-84380952Y-5554819D01*
X-84380952Y-5554819D02*
X-84285714Y-5602438D01*
X-84285714Y-5602438D02*
X-84190476Y-5697676D01*
X-84190476Y-5697676D02*
X-84142857Y-5888152D01*
X-84142857Y-5888152D02*
X-84142857Y-6221485D01*
X-84142857Y-6221485D02*
X-84190476Y-6411961D01*
X-84190476Y-6411961D02*
X-84285714Y-6507200D01*
X-84285714Y-6507200D02*
X-84380952Y-6554819D01*
X-84380952Y-6554819D02*
X-84571428Y-6554819D01*
X-83190476Y-6554819D02*
X-83761904Y-6554819D01*
X-83476190Y-6554819D02*
X-83476190Y-5554819D01*
X-83476190Y-5554819D02*
X-83571428Y-5697676D01*
X-83571428Y-5697676D02*
X-83666666Y-5792914D01*
X-83666666Y-5792914D02*
X-83761904Y-5840533D01*
X87857142Y-21524819D02*
X87523809Y-21048628D01*
X87285714Y-21524819D02*
X87285714Y-20524819D01*
X87285714Y-20524819D02*
X87666666Y-20524819D01*
X87666666Y-20524819D02*
X87761904Y-20572438D01*
X87761904Y-20572438D02*
X87809523Y-20620057D01*
X87809523Y-20620057D02*
X87857142Y-20715295D01*
X87857142Y-20715295D02*
X87857142Y-20858152D01*
X87857142Y-20858152D02*
X87809523Y-20953390D01*
X87809523Y-20953390D02*
X87761904Y-21001009D01*
X87761904Y-21001009D02*
X87666666Y-21048628D01*
X87666666Y-21048628D02*
X87285714Y-21048628D01*
X88238095Y-20620057D02*
X88285714Y-20572438D01*
X88285714Y-20572438D02*
X88380952Y-20524819D01*
X88380952Y-20524819D02*
X88619047Y-20524819D01*
X88619047Y-20524819D02*
X88714285Y-20572438D01*
X88714285Y-20572438D02*
X88761904Y-20620057D01*
X88761904Y-20620057D02*
X88809523Y-20715295D01*
X88809523Y-20715295D02*
X88809523Y-20810533D01*
X88809523Y-20810533D02*
X88761904Y-20953390D01*
X88761904Y-20953390D02*
X88190476Y-21524819D01*
X88190476Y-21524819D02*
X88809523Y-21524819D01*
X89714285Y-20524819D02*
X89238095Y-20524819D01*
X89238095Y-20524819D02*
X89190476Y-21001009D01*
X89190476Y-21001009D02*
X89238095Y-20953390D01*
X89238095Y-20953390D02*
X89333333Y-20905771D01*
X89333333Y-20905771D02*
X89571428Y-20905771D01*
X89571428Y-20905771D02*
X89666666Y-20953390D01*
X89666666Y-20953390D02*
X89714285Y-21001009D01*
X89714285Y-21001009D02*
X89761904Y-21096247D01*
X89761904Y-21096247D02*
X89761904Y-21334342D01*
X89761904Y-21334342D02*
X89714285Y-21429580D01*
X89714285Y-21429580D02*
X89666666Y-21477200D01*
X89666666Y-21477200D02*
X89571428Y-21524819D01*
X89571428Y-21524819D02*
X89333333Y-21524819D01*
X89333333Y-21524819D02*
X89238095Y-21477200D01*
X89238095Y-21477200D02*
X89190476Y-21429580D01*
X46857142Y-47024819D02*
X46523809Y-46548628D01*
X46285714Y-47024819D02*
X46285714Y-46024819D01*
X46285714Y-46024819D02*
X46666666Y-46024819D01*
X46666666Y-46024819D02*
X46761904Y-46072438D01*
X46761904Y-46072438D02*
X46809523Y-46120057D01*
X46809523Y-46120057D02*
X46857142Y-46215295D01*
X46857142Y-46215295D02*
X46857142Y-46358152D01*
X46857142Y-46358152D02*
X46809523Y-46453390D01*
X46809523Y-46453390D02*
X46761904Y-46501009D01*
X46761904Y-46501009D02*
X46666666Y-46548628D01*
X46666666Y-46548628D02*
X46285714Y-46548628D01*
X47238095Y-46120057D02*
X47285714Y-46072438D01*
X47285714Y-46072438D02*
X47380952Y-46024819D01*
X47380952Y-46024819D02*
X47619047Y-46024819D01*
X47619047Y-46024819D02*
X47714285Y-46072438D01*
X47714285Y-46072438D02*
X47761904Y-46120057D01*
X47761904Y-46120057D02*
X47809523Y-46215295D01*
X47809523Y-46215295D02*
X47809523Y-46310533D01*
X47809523Y-46310533D02*
X47761904Y-46453390D01*
X47761904Y-46453390D02*
X47190476Y-47024819D01*
X47190476Y-47024819D02*
X47809523Y-47024819D01*
X48428571Y-46024819D02*
X48523809Y-46024819D01*
X48523809Y-46024819D02*
X48619047Y-46072438D01*
X48619047Y-46072438D02*
X48666666Y-46120057D01*
X48666666Y-46120057D02*
X48714285Y-46215295D01*
X48714285Y-46215295D02*
X48761904Y-46405771D01*
X48761904Y-46405771D02*
X48761904Y-46643866D01*
X48761904Y-46643866D02*
X48714285Y-46834342D01*
X48714285Y-46834342D02*
X48666666Y-46929580D01*
X48666666Y-46929580D02*
X48619047Y-46977200D01*
X48619047Y-46977200D02*
X48523809Y-47024819D01*
X48523809Y-47024819D02*
X48428571Y-47024819D01*
X48428571Y-47024819D02*
X48333333Y-46977200D01*
X48333333Y-46977200D02*
X48285714Y-46929580D01*
X48285714Y-46929580D02*
X48238095Y-46834342D01*
X48238095Y-46834342D02*
X48190476Y-46643866D01*
X48190476Y-46643866D02*
X48190476Y-46405771D01*
X48190476Y-46405771D02*
X48238095Y-46215295D01*
X48238095Y-46215295D02*
X48285714Y-46120057D01*
X48285714Y-46120057D02*
X48333333Y-46072438D01*
X48333333Y-46072438D02*
X48428571Y-46024819D01*
X21833333Y-75024819D02*
X21500000Y-74548628D01*
X21261905Y-75024819D02*
X21261905Y-74024819D01*
X21261905Y-74024819D02*
X21642857Y-74024819D01*
X21642857Y-74024819D02*
X21738095Y-74072438D01*
X21738095Y-74072438D02*
X21785714Y-74120057D01*
X21785714Y-74120057D02*
X21833333Y-74215295D01*
X21833333Y-74215295D02*
X21833333Y-74358152D01*
X21833333Y-74358152D02*
X21785714Y-74453390D01*
X21785714Y-74453390D02*
X21738095Y-74501009D01*
X21738095Y-74501009D02*
X21642857Y-74548628D01*
X21642857Y-74548628D02*
X21261905Y-74548628D01*
X22166667Y-74024819D02*
X22785714Y-74024819D01*
X22785714Y-74024819D02*
X22452381Y-74405771D01*
X22452381Y-74405771D02*
X22595238Y-74405771D01*
X22595238Y-74405771D02*
X22690476Y-74453390D01*
X22690476Y-74453390D02*
X22738095Y-74501009D01*
X22738095Y-74501009D02*
X22785714Y-74596247D01*
X22785714Y-74596247D02*
X22785714Y-74834342D01*
X22785714Y-74834342D02*
X22738095Y-74929580D01*
X22738095Y-74929580D02*
X22690476Y-74977200D01*
X22690476Y-74977200D02*
X22595238Y-75024819D01*
X22595238Y-75024819D02*
X22309524Y-75024819D01*
X22309524Y-75024819D02*
X22214286Y-74977200D01*
X22214286Y-74977200D02*
X22166667Y-74929580D01*
X98524819Y-146166666D02*
X98048628Y-146499999D01*
X98524819Y-146738094D02*
X97524819Y-146738094D01*
X97524819Y-146738094D02*
X97524819Y-146357142D01*
X97524819Y-146357142D02*
X97572438Y-146261904D01*
X97572438Y-146261904D02*
X97620057Y-146214285D01*
X97620057Y-146214285D02*
X97715295Y-146166666D01*
X97715295Y-146166666D02*
X97858152Y-146166666D01*
X97858152Y-146166666D02*
X97953390Y-146214285D01*
X97953390Y-146214285D02*
X98001009Y-146261904D01*
X98001009Y-146261904D02*
X98048628Y-146357142D01*
X98048628Y-146357142D02*
X98048628Y-146738094D01*
X98524819Y-145214285D02*
X98524819Y-145785713D01*
X98524819Y-145499999D02*
X97524819Y-145499999D01*
X97524819Y-145499999D02*
X97667676Y-145595237D01*
X97667676Y-145595237D02*
X97762914Y-145690475D01*
X97762914Y-145690475D02*
X97810533Y-145785713D01*
X58357142Y-44024819D02*
X58023809Y-43548628D01*
X57785714Y-44024819D02*
X57785714Y-43024819D01*
X57785714Y-43024819D02*
X58166666Y-43024819D01*
X58166666Y-43024819D02*
X58261904Y-43072438D01*
X58261904Y-43072438D02*
X58309523Y-43120057D01*
X58309523Y-43120057D02*
X58357142Y-43215295D01*
X58357142Y-43215295D02*
X58357142Y-43358152D01*
X58357142Y-43358152D02*
X58309523Y-43453390D01*
X58309523Y-43453390D02*
X58261904Y-43501009D01*
X58261904Y-43501009D02*
X58166666Y-43548628D01*
X58166666Y-43548628D02*
X57785714Y-43548628D01*
X58738095Y-43120057D02*
X58785714Y-43072438D01*
X58785714Y-43072438D02*
X58880952Y-43024819D01*
X58880952Y-43024819D02*
X59119047Y-43024819D01*
X59119047Y-43024819D02*
X59214285Y-43072438D01*
X59214285Y-43072438D02*
X59261904Y-43120057D01*
X59261904Y-43120057D02*
X59309523Y-43215295D01*
X59309523Y-43215295D02*
X59309523Y-43310533D01*
X59309523Y-43310533D02*
X59261904Y-43453390D01*
X59261904Y-43453390D02*
X58690476Y-44024819D01*
X58690476Y-44024819D02*
X59309523Y-44024819D01*
X60166666Y-43024819D02*
X59976190Y-43024819D01*
X59976190Y-43024819D02*
X59880952Y-43072438D01*
X59880952Y-43072438D02*
X59833333Y-43120057D01*
X59833333Y-43120057D02*
X59738095Y-43262914D01*
X59738095Y-43262914D02*
X59690476Y-43453390D01*
X59690476Y-43453390D02*
X59690476Y-43834342D01*
X59690476Y-43834342D02*
X59738095Y-43929580D01*
X59738095Y-43929580D02*
X59785714Y-43977200D01*
X59785714Y-43977200D02*
X59880952Y-44024819D01*
X59880952Y-44024819D02*
X60071428Y-44024819D01*
X60071428Y-44024819D02*
X60166666Y-43977200D01*
X60166666Y-43977200D02*
X60214285Y-43929580D01*
X60214285Y-43929580D02*
X60261904Y-43834342D01*
X60261904Y-43834342D02*
X60261904Y-43596247D01*
X60261904Y-43596247D02*
X60214285Y-43501009D01*
X60214285Y-43501009D02*
X60166666Y-43453390D01*
X60166666Y-43453390D02*
X60071428Y-43405771D01*
X60071428Y-43405771D02*
X59880952Y-43405771D01*
X59880952Y-43405771D02*
X59785714Y-43453390D01*
X59785714Y-43453390D02*
X59738095Y-43501009D01*
X59738095Y-43501009D02*
X59690476Y-43596247D01*
X-8615180Y-15642857D02*
X-9091371Y-15976190D01*
X-8615180Y-16214285D02*
X-9615180Y-16214285D01*
X-9615180Y-16214285D02*
X-9615180Y-15833333D01*
X-9615180Y-15833333D02*
X-9567561Y-15738095D01*
X-9567561Y-15738095D02*
X-9519942Y-15690476D01*
X-9519942Y-15690476D02*
X-9424704Y-15642857D01*
X-9424704Y-15642857D02*
X-9281847Y-15642857D01*
X-9281847Y-15642857D02*
X-9186609Y-15690476D01*
X-9186609Y-15690476D02*
X-9138990Y-15738095D01*
X-9138990Y-15738095D02*
X-9091371Y-15833333D01*
X-9091371Y-15833333D02*
X-9091371Y-16214285D01*
X-8615180Y-14690476D02*
X-8615180Y-15261904D01*
X-8615180Y-14976190D02*
X-9615180Y-14976190D01*
X-9615180Y-14976190D02*
X-9472323Y-15071428D01*
X-9472323Y-15071428D02*
X-9377085Y-15166666D01*
X-9377085Y-15166666D02*
X-9329466Y-15261904D01*
X-9281847Y-13833333D02*
X-8615180Y-13833333D01*
X-9662800Y-14071428D02*
X-8948514Y-14309523D01*
X-8948514Y-14309523D02*
X-8948514Y-13690476D01*
X63357142Y-25024819D02*
X63023809Y-24548628D01*
X62785714Y-25024819D02*
X62785714Y-24024819D01*
X62785714Y-24024819D02*
X63166666Y-24024819D01*
X63166666Y-24024819D02*
X63261904Y-24072438D01*
X63261904Y-24072438D02*
X63309523Y-24120057D01*
X63309523Y-24120057D02*
X63357142Y-24215295D01*
X63357142Y-24215295D02*
X63357142Y-24358152D01*
X63357142Y-24358152D02*
X63309523Y-24453390D01*
X63309523Y-24453390D02*
X63261904Y-24501009D01*
X63261904Y-24501009D02*
X63166666Y-24548628D01*
X63166666Y-24548628D02*
X62785714Y-24548628D01*
X63738095Y-24120057D02*
X63785714Y-24072438D01*
X63785714Y-24072438D02*
X63880952Y-24024819D01*
X63880952Y-24024819D02*
X64119047Y-24024819D01*
X64119047Y-24024819D02*
X64214285Y-24072438D01*
X64214285Y-24072438D02*
X64261904Y-24120057D01*
X64261904Y-24120057D02*
X64309523Y-24215295D01*
X64309523Y-24215295D02*
X64309523Y-24310533D01*
X64309523Y-24310533D02*
X64261904Y-24453390D01*
X64261904Y-24453390D02*
X63690476Y-25024819D01*
X63690476Y-25024819D02*
X64309523Y-25024819D01*
X65166666Y-24358152D02*
X65166666Y-25024819D01*
X64928571Y-23977200D02*
X64690476Y-24691485D01*
X64690476Y-24691485D02*
X65309523Y-24691485D01*
X-9349942Y-1825238D02*
X-9397561Y-1920476D01*
X-9397561Y-1920476D02*
X-9492800Y-2015714D01*
X-9492800Y-2015714D02*
X-9635657Y-2158571D01*
X-9635657Y-2158571D02*
X-9683276Y-2253809D01*
X-9683276Y-2253809D02*
X-9683276Y-2349047D01*
X-9445180Y-2301428D02*
X-9492800Y-2396666D01*
X-9492800Y-2396666D02*
X-9588038Y-2491904D01*
X-9588038Y-2491904D02*
X-9778514Y-2539523D01*
X-9778514Y-2539523D02*
X-10111847Y-2539523D01*
X-10111847Y-2539523D02*
X-10302323Y-2491904D01*
X-10302323Y-2491904D02*
X-10397561Y-2396666D01*
X-10397561Y-2396666D02*
X-10445180Y-2301428D01*
X-10445180Y-2301428D02*
X-10445180Y-2110952D01*
X-10445180Y-2110952D02*
X-10397561Y-2015714D01*
X-10397561Y-2015714D02*
X-10302323Y-1920476D01*
X-10302323Y-1920476D02*
X-10111847Y-1872857D01*
X-10111847Y-1872857D02*
X-9778514Y-1872857D01*
X-9778514Y-1872857D02*
X-9588038Y-1920476D01*
X-9588038Y-1920476D02*
X-9492800Y-2015714D01*
X-9492800Y-2015714D02*
X-9445180Y-2110952D01*
X-9445180Y-2110952D02*
X-9445180Y-2301428D01*
X-10111847Y-1015714D02*
X-9445180Y-1015714D01*
X-10492800Y-1253809D02*
X-9778514Y-1491904D01*
X-9778514Y-1491904D02*
X-9778514Y-872857D01*
X52928571Y-48650057D02*
X52833333Y-48602438D01*
X52833333Y-48602438D02*
X52738095Y-48507200D01*
X52738095Y-48507200D02*
X52595238Y-48364342D01*
X52595238Y-48364342D02*
X52500000Y-48316723D01*
X52500000Y-48316723D02*
X52404762Y-48316723D01*
X52452381Y-48554819D02*
X52357143Y-48507200D01*
X52357143Y-48507200D02*
X52261905Y-48411961D01*
X52261905Y-48411961D02*
X52214286Y-48221485D01*
X52214286Y-48221485D02*
X52214286Y-47888152D01*
X52214286Y-47888152D02*
X52261905Y-47697676D01*
X52261905Y-47697676D02*
X52357143Y-47602438D01*
X52357143Y-47602438D02*
X52452381Y-47554819D01*
X52452381Y-47554819D02*
X52642857Y-47554819D01*
X52642857Y-47554819D02*
X52738095Y-47602438D01*
X52738095Y-47602438D02*
X52833333Y-47697676D01*
X52833333Y-47697676D02*
X52880952Y-47888152D01*
X52880952Y-47888152D02*
X52880952Y-48221485D01*
X52880952Y-48221485D02*
X52833333Y-48411961D01*
X52833333Y-48411961D02*
X52738095Y-48507200D01*
X52738095Y-48507200D02*
X52642857Y-48554819D01*
X52642857Y-48554819D02*
X52452381Y-48554819D01*
X53833333Y-48554819D02*
X53261905Y-48554819D01*
X53547619Y-48554819D02*
X53547619Y-47554819D01*
X53547619Y-47554819D02*
X53452381Y-47697676D01*
X53452381Y-47697676D02*
X53357143Y-47792914D01*
X53357143Y-47792914D02*
X53261905Y-47840533D01*
X54452381Y-47554819D02*
X54547619Y-47554819D01*
X54547619Y-47554819D02*
X54642857Y-47602438D01*
X54642857Y-47602438D02*
X54690476Y-47650057D01*
X54690476Y-47650057D02*
X54738095Y-47745295D01*
X54738095Y-47745295D02*
X54785714Y-47935771D01*
X54785714Y-47935771D02*
X54785714Y-48173866D01*
X54785714Y-48173866D02*
X54738095Y-48364342D01*
X54738095Y-48364342D02*
X54690476Y-48459580D01*
X54690476Y-48459580D02*
X54642857Y-48507200D01*
X54642857Y-48507200D02*
X54547619Y-48554819D01*
X54547619Y-48554819D02*
X54452381Y-48554819D01*
X54452381Y-48554819D02*
X54357143Y-48507200D01*
X54357143Y-48507200D02*
X54309524Y-48459580D01*
X54309524Y-48459580D02*
X54261905Y-48364342D01*
X54261905Y-48364342D02*
X54214286Y-48173866D01*
X54214286Y-48173866D02*
X54214286Y-47935771D01*
X54214286Y-47935771D02*
X54261905Y-47745295D01*
X54261905Y-47745295D02*
X54309524Y-47650057D01*
X54309524Y-47650057D02*
X54357143Y-47602438D01*
X54357143Y-47602438D02*
X54452381Y-47554819D01*
X-14849942Y-7825238D02*
X-14897561Y-7920476D01*
X-14897561Y-7920476D02*
X-14992800Y-8015714D01*
X-14992800Y-8015714D02*
X-15135657Y-8158571D01*
X-15135657Y-8158571D02*
X-15183276Y-8253809D01*
X-15183276Y-8253809D02*
X-15183276Y-8349047D01*
X-14945180Y-8301428D02*
X-14992800Y-8396666D01*
X-14992800Y-8396666D02*
X-15088038Y-8491904D01*
X-15088038Y-8491904D02*
X-15278514Y-8539523D01*
X-15278514Y-8539523D02*
X-15611847Y-8539523D01*
X-15611847Y-8539523D02*
X-15802323Y-8491904D01*
X-15802323Y-8491904D02*
X-15897561Y-8396666D01*
X-15897561Y-8396666D02*
X-15945180Y-8301428D01*
X-15945180Y-8301428D02*
X-15945180Y-8110952D01*
X-15945180Y-8110952D02*
X-15897561Y-8015714D01*
X-15897561Y-8015714D02*
X-15802323Y-7920476D01*
X-15802323Y-7920476D02*
X-15611847Y-7872857D01*
X-15611847Y-7872857D02*
X-15278514Y-7872857D01*
X-15278514Y-7872857D02*
X-15088038Y-7920476D01*
X-15088038Y-7920476D02*
X-14992800Y-8015714D01*
X-14992800Y-8015714D02*
X-14945180Y-8110952D01*
X-14945180Y-8110952D02*
X-14945180Y-8301428D01*
X-15849942Y-7491904D02*
X-15897561Y-7444285D01*
X-15897561Y-7444285D02*
X-15945180Y-7349047D01*
X-15945180Y-7349047D02*
X-15945180Y-7110952D01*
X-15945180Y-7110952D02*
X-15897561Y-7015714D01*
X-15897561Y-7015714D02*
X-15849942Y-6968095D01*
X-15849942Y-6968095D02*
X-15754704Y-6920476D01*
X-15754704Y-6920476D02*
X-15659466Y-6920476D01*
X-15659466Y-6920476D02*
X-15516609Y-6968095D01*
X-15516609Y-6968095D02*
X-14945180Y-7539523D01*
X-14945180Y-7539523D02*
X-14945180Y-6920476D01*
X-7849942Y-19825238D02*
X-7897561Y-19920476D01*
X-7897561Y-19920476D02*
X-7992800Y-20015714D01*
X-7992800Y-20015714D02*
X-8135657Y-20158571D01*
X-8135657Y-20158571D02*
X-8183276Y-20253809D01*
X-8183276Y-20253809D02*
X-8183276Y-20349047D01*
X-7945180Y-20301428D02*
X-7992800Y-20396666D01*
X-7992800Y-20396666D02*
X-8088038Y-20491904D01*
X-8088038Y-20491904D02*
X-8278514Y-20539523D01*
X-8278514Y-20539523D02*
X-8611847Y-20539523D01*
X-8611847Y-20539523D02*
X-8802323Y-20491904D01*
X-8802323Y-20491904D02*
X-8897561Y-20396666D01*
X-8897561Y-20396666D02*
X-8945180Y-20301428D01*
X-8945180Y-20301428D02*
X-8945180Y-20110952D01*
X-8945180Y-20110952D02*
X-8897561Y-20015714D01*
X-8897561Y-20015714D02*
X-8802323Y-19920476D01*
X-8802323Y-19920476D02*
X-8611847Y-19872857D01*
X-8611847Y-19872857D02*
X-8278514Y-19872857D01*
X-8278514Y-19872857D02*
X-8088038Y-19920476D01*
X-8088038Y-19920476D02*
X-7992800Y-20015714D01*
X-7992800Y-20015714D02*
X-7945180Y-20110952D01*
X-7945180Y-20110952D02*
X-7945180Y-20301428D01*
X-8945180Y-19539523D02*
X-8945180Y-18920476D01*
X-8945180Y-18920476D02*
X-8564228Y-19253809D01*
X-8564228Y-19253809D02*
X-8564228Y-19110952D01*
X-8564228Y-19110952D02*
X-8516609Y-19015714D01*
X-8516609Y-19015714D02*
X-8468990Y-18968095D01*
X-8468990Y-18968095D02*
X-8373752Y-18920476D01*
X-8373752Y-18920476D02*
X-8135657Y-18920476D01*
X-8135657Y-18920476D02*
X-8040419Y-18968095D01*
X-8040419Y-18968095D02*
X-7992800Y-19015714D01*
X-7992800Y-19015714D02*
X-7945180Y-19110952D01*
X-7945180Y-19110952D02*
X-7945180Y-19396666D01*
X-7945180Y-19396666D02*
X-7992800Y-19491904D01*
X-7992800Y-19491904D02*
X-8040419Y-19539523D01*
X-59545180Y11261905D02*
X-60545180Y11261905D01*
X-60545180Y11261905D02*
X-60545180Y11500000D01*
X-60545180Y11500000D02*
X-60497561Y11642857D01*
X-60497561Y11642857D02*
X-60402323Y11738095D01*
X-60402323Y11738095D02*
X-60307085Y11785714D01*
X-60307085Y11785714D02*
X-60116609Y11833333D01*
X-60116609Y11833333D02*
X-59973752Y11833333D01*
X-59973752Y11833333D02*
X-59783276Y11785714D01*
X-59783276Y11785714D02*
X-59688038Y11738095D01*
X-59688038Y11738095D02*
X-59592800Y11642857D01*
X-59592800Y11642857D02*
X-59545180Y11500000D01*
X-59545180Y11500000D02*
X-59545180Y11261905D01*
X-59545180Y12785714D02*
X-59545180Y12214286D01*
X-59545180Y12500000D02*
X-60545180Y12500000D01*
X-60545180Y12500000D02*
X-60402323Y12404762D01*
X-60402323Y12404762D02*
X-60307085Y12309524D01*
X-60307085Y12309524D02*
X-60259466Y12214286D01*
X115357142Y-64024819D02*
X115023809Y-63548628D01*
X114785714Y-64024819D02*
X114785714Y-63024819D01*
X114785714Y-63024819D02*
X115166666Y-63024819D01*
X115166666Y-63024819D02*
X115261904Y-63072438D01*
X115261904Y-63072438D02*
X115309523Y-63120057D01*
X115309523Y-63120057D02*
X115357142Y-63215295D01*
X115357142Y-63215295D02*
X115357142Y-63358152D01*
X115357142Y-63358152D02*
X115309523Y-63453390D01*
X115309523Y-63453390D02*
X115261904Y-63501009D01*
X115261904Y-63501009D02*
X115166666Y-63548628D01*
X115166666Y-63548628D02*
X114785714Y-63548628D01*
X116309523Y-64024819D02*
X115738095Y-64024819D01*
X116023809Y-64024819D02*
X116023809Y-63024819D01*
X116023809Y-63024819D02*
X115928571Y-63167676D01*
X115928571Y-63167676D02*
X115833333Y-63262914D01*
X115833333Y-63262914D02*
X115738095Y-63310533D01*
X117214285Y-63024819D02*
X116738095Y-63024819D01*
X116738095Y-63024819D02*
X116690476Y-63501009D01*
X116690476Y-63501009D02*
X116738095Y-63453390D01*
X116738095Y-63453390D02*
X116833333Y-63405771D01*
X116833333Y-63405771D02*
X117071428Y-63405771D01*
X117071428Y-63405771D02*
X117166666Y-63453390D01*
X117166666Y-63453390D02*
X117214285Y-63501009D01*
X117214285Y-63501009D02*
X117261904Y-63596247D01*
X117261904Y-63596247D02*
X117261904Y-63834342D01*
X117261904Y-63834342D02*
X117214285Y-63929580D01*
X117214285Y-63929580D02*
X117166666Y-63977200D01*
X117166666Y-63977200D02*
X117071428Y-64024819D01*
X117071428Y-64024819D02*
X116833333Y-64024819D01*
X116833333Y-64024819D02*
X116738095Y-63977200D01*
X116738095Y-63977200D02*
X116690476Y-63929580D01*
X-69642857Y-12609580D02*
X-69690476Y-12657200D01*
X-69690476Y-12657200D02*
X-69833333Y-12704819D01*
X-69833333Y-12704819D02*
X-69928571Y-12704819D01*
X-69928571Y-12704819D02*
X-70071428Y-12657200D01*
X-70071428Y-12657200D02*
X-70166666Y-12561961D01*
X-70166666Y-12561961D02*
X-70214285Y-12466723D01*
X-70214285Y-12466723D02*
X-70261904Y-12276247D01*
X-70261904Y-12276247D02*
X-70261904Y-12133390D01*
X-70261904Y-12133390D02*
X-70214285Y-11942914D01*
X-70214285Y-11942914D02*
X-70166666Y-11847676D01*
X-70166666Y-11847676D02*
X-70071428Y-11752438D01*
X-70071428Y-11752438D02*
X-69928571Y-11704819D01*
X-69928571Y-11704819D02*
X-69833333Y-11704819D01*
X-69833333Y-11704819D02*
X-69690476Y-11752438D01*
X-69690476Y-11752438D02*
X-69642857Y-11800057D01*
X-68690476Y-12704819D02*
X-69261904Y-12704819D01*
X-68976190Y-12704819D02*
X-68976190Y-11704819D01*
X-68976190Y-11704819D02*
X-69071428Y-11847676D01*
X-69071428Y-11847676D02*
X-69166666Y-11942914D01*
X-69166666Y-11942914D02*
X-69261904Y-11990533D01*
X-68309523Y-11800057D02*
X-68261904Y-11752438D01*
X-68261904Y-11752438D02*
X-68166666Y-11704819D01*
X-68166666Y-11704819D02*
X-67928571Y-11704819D01*
X-67928571Y-11704819D02*
X-67833333Y-11752438D01*
X-67833333Y-11752438D02*
X-67785714Y-11800057D01*
X-67785714Y-11800057D02*
X-67738095Y-11895295D01*
X-67738095Y-11895295D02*
X-67738095Y-11990533D01*
X-67738095Y-11990533D02*
X-67785714Y-12133390D01*
X-67785714Y-12133390D02*
X-68357142Y-12704819D01*
X-68357142Y-12704819D02*
X-67738095Y-12704819D01*
X64357142Y-21929580D02*
X64309523Y-21977200D01*
X64309523Y-21977200D02*
X64166666Y-22024819D01*
X64166666Y-22024819D02*
X64071428Y-22024819D01*
X64071428Y-22024819D02*
X63928571Y-21977200D01*
X63928571Y-21977200D02*
X63833333Y-21881961D01*
X63833333Y-21881961D02*
X63785714Y-21786723D01*
X63785714Y-21786723D02*
X63738095Y-21596247D01*
X63738095Y-21596247D02*
X63738095Y-21453390D01*
X63738095Y-21453390D02*
X63785714Y-21262914D01*
X63785714Y-21262914D02*
X63833333Y-21167676D01*
X63833333Y-21167676D02*
X63928571Y-21072438D01*
X63928571Y-21072438D02*
X64071428Y-21024819D01*
X64071428Y-21024819D02*
X64166666Y-21024819D01*
X64166666Y-21024819D02*
X64309523Y-21072438D01*
X64309523Y-21072438D02*
X64357142Y-21120057D01*
X65309523Y-22024819D02*
X64738095Y-22024819D01*
X65023809Y-22024819D02*
X65023809Y-21024819D01*
X65023809Y-21024819D02*
X64928571Y-21167676D01*
X64928571Y-21167676D02*
X64833333Y-21262914D01*
X64833333Y-21262914D02*
X64738095Y-21310533D01*
X65880952Y-21453390D02*
X65785714Y-21405771D01*
X65785714Y-21405771D02*
X65738095Y-21358152D01*
X65738095Y-21358152D02*
X65690476Y-21262914D01*
X65690476Y-21262914D02*
X65690476Y-21215295D01*
X65690476Y-21215295D02*
X65738095Y-21120057D01*
X65738095Y-21120057D02*
X65785714Y-21072438D01*
X65785714Y-21072438D02*
X65880952Y-21024819D01*
X65880952Y-21024819D02*
X66071428Y-21024819D01*
X66071428Y-21024819D02*
X66166666Y-21072438D01*
X66166666Y-21072438D02*
X66214285Y-21120057D01*
X66214285Y-21120057D02*
X66261904Y-21215295D01*
X66261904Y-21215295D02*
X66261904Y-21262914D01*
X66261904Y-21262914D02*
X66214285Y-21358152D01*
X66214285Y-21358152D02*
X66166666Y-21405771D01*
X66166666Y-21405771D02*
X66071428Y-21453390D01*
X66071428Y-21453390D02*
X65880952Y-21453390D01*
X65880952Y-21453390D02*
X65785714Y-21501009D01*
X65785714Y-21501009D02*
X65738095Y-21548628D01*
X65738095Y-21548628D02*
X65690476Y-21643866D01*
X65690476Y-21643866D02*
X65690476Y-21834342D01*
X65690476Y-21834342D02*
X65738095Y-21929580D01*
X65738095Y-21929580D02*
X65785714Y-21977200D01*
X65785714Y-21977200D02*
X65880952Y-22024819D01*
X65880952Y-22024819D02*
X66071428Y-22024819D01*
X66071428Y-22024819D02*
X66166666Y-21977200D01*
X66166666Y-21977200D02*
X66214285Y-21929580D01*
X66214285Y-21929580D02*
X66261904Y-21834342D01*
X66261904Y-21834342D02*
X66261904Y-21643866D01*
X66261904Y-21643866D02*
X66214285Y-21548628D01*
X66214285Y-21548628D02*
X66166666Y-21501009D01*
X66166666Y-21501009D02*
X66071428Y-21453390D01*
X-66045180Y833333D02*
X-66045180Y357143D01*
X-66045180Y357143D02*
X-67045180Y357143D01*
X-66949942Y1119048D02*
X-66997561Y1166667D01*
X-66997561Y1166667D02*
X-67045180Y1261905D01*
X-67045180Y1261905D02*
X-67045180Y1500000D01*
X-67045180Y1500000D02*
X-66997561Y1595238D01*
X-66997561Y1595238D02*
X-66949942Y1642857D01*
X-66949942Y1642857D02*
X-66854704Y1690476D01*
X-66854704Y1690476D02*
X-66759466Y1690476D01*
X-66759466Y1690476D02*
X-66616609Y1642857D01*
X-66616609Y1642857D02*
X-66045180Y1071429D01*
X-66045180Y1071429D02*
X-66045180Y1690476D01*
X113333333Y-144929580D02*
X113285714Y-144977200D01*
X113285714Y-144977200D02*
X113142857Y-145024819D01*
X113142857Y-145024819D02*
X113047619Y-145024819D01*
X113047619Y-145024819D02*
X112904762Y-144977200D01*
X112904762Y-144977200D02*
X112809524Y-144881961D01*
X112809524Y-144881961D02*
X112761905Y-144786723D01*
X112761905Y-144786723D02*
X112714286Y-144596247D01*
X112714286Y-144596247D02*
X112714286Y-144453390D01*
X112714286Y-144453390D02*
X112761905Y-144262914D01*
X112761905Y-144262914D02*
X112809524Y-144167676D01*
X112809524Y-144167676D02*
X112904762Y-144072438D01*
X112904762Y-144072438D02*
X113047619Y-144024819D01*
X113047619Y-144024819D02*
X113142857Y-144024819D01*
X113142857Y-144024819D02*
X113285714Y-144072438D01*
X113285714Y-144072438D02*
X113333333Y-144120057D01*
X114285714Y-145024819D02*
X113714286Y-145024819D01*
X114000000Y-145024819D02*
X114000000Y-144024819D01*
X114000000Y-144024819D02*
X113904762Y-144167676D01*
X113904762Y-144167676D02*
X113809524Y-144262914D01*
X113809524Y-144262914D02*
X113714286Y-144310533D01*
X37304666Y-21893819D02*
X37304666Y-22608104D01*
X37304666Y-22608104D02*
X37257047Y-22750961D01*
X37257047Y-22750961D02*
X37161809Y-22846200D01*
X37161809Y-22846200D02*
X37018952Y-22893819D01*
X37018952Y-22893819D02*
X36923714Y-22893819D01*
X37685619Y-21893819D02*
X38304666Y-21893819D01*
X38304666Y-21893819D02*
X37971333Y-22274771D01*
X37971333Y-22274771D02*
X38114190Y-22274771D01*
X38114190Y-22274771D02*
X38209428Y-22322390D01*
X38209428Y-22322390D02*
X38257047Y-22370009D01*
X38257047Y-22370009D02*
X38304666Y-22465247D01*
X38304666Y-22465247D02*
X38304666Y-22703342D01*
X38304666Y-22703342D02*
X38257047Y-22798580D01*
X38257047Y-22798580D02*
X38209428Y-22846200D01*
X38209428Y-22846200D02*
X38114190Y-22893819D01*
X38114190Y-22893819D02*
X37828476Y-22893819D01*
X37828476Y-22893819D02*
X37733238Y-22846200D01*
X37733238Y-22846200D02*
X37685619Y-22798580D01*
X141833333Y-133542819D02*
X141357143Y-133542819D01*
X141357143Y-133542819D02*
X141357143Y-132542819D01*
X142690476Y-133542819D02*
X142119048Y-133542819D01*
X142404762Y-133542819D02*
X142404762Y-132542819D01*
X142404762Y-132542819D02*
X142309524Y-132685676D01*
X142309524Y-132685676D02*
X142214286Y-132780914D01*
X142214286Y-132780914D02*
X142119048Y-132828533D01*
D12*
%TO.C,R2*%
X108762742Y-144977500D02*
X109237258Y-144977500D01*
X108762742Y-146022500D02*
X109237258Y-146022500D01*
%TO.C,R22*%
X53262742Y-42977500D02*
X53737258Y-42977500D01*
X53262742Y-44022500D02*
X53737258Y-44022500D01*
%TO.C,C13*%
X-77860000Y-2288748D02*
X-77860000Y-3711252D01*
X-75140000Y-2288748D02*
X-75140000Y-3711252D01*
%TO.C,R19*%
X71762742Y-155477500D02*
X72237258Y-155477500D01*
X71762742Y-156522500D02*
X72237258Y-156522500D01*
%TO.C,R5*%
X-60237258Y-85477500D02*
X-59762742Y-85477500D01*
X-60237258Y-86522500D02*
X-59762742Y-86522500D01*
%TO.C,R23*%
X65762742Y-49477500D02*
X66237258Y-49477500D01*
X65762742Y-50522500D02*
X66237258Y-50522500D01*
%TO.C,U3*%
X-23000000Y-68390000D02*
X-24500000Y-68390000D01*
X-23000000Y-68390000D02*
X-21500000Y-68390000D01*
X-23000000Y-71610000D02*
X-24500000Y-71610000D01*
X-23000000Y-71610000D02*
X-21500000Y-71610000D01*
X-25187500Y-68590000D02*
X-25427500Y-68260000D01*
X-24947500Y-68260000D01*
X-25187500Y-68590000D01*
G36*
X-25187500Y-68590000D02*
G01*
X-25427500Y-68260000D01*
X-24947500Y-68260000D01*
X-25187500Y-68590000D01*
G37*
%TO.C,Q5*%
X-3650000Y-9530000D02*
X-3650000Y-5930000D01*
X-7950000Y-6950000D02*
G75*
G02*
X-3672316Y-5921555I2450000J-780000D01*
G01*
X-3658259Y-9541875D02*
G75*
G02*
X-7950000Y-8550000I-1841741J1811875D01*
G01*
%TO.C,U2*%
X52500000Y-129000000D02*
X70500000Y-129000000D01*
X52500000Y-129250000D02*
X52500000Y-129000000D01*
X52500000Y-143000000D02*
X70450000Y-143000000D01*
X52500000Y-149000000D02*
X52500000Y-142500000D01*
X70500000Y-129000000D02*
X70500000Y-129250000D01*
X70500000Y-149000000D02*
X52500000Y-149000000D01*
X70500000Y-149000000D02*
X70500000Y-142500000D01*
%TO.C,SW1*%
X156000000Y-82750000D02*
X164500000Y-85000000D01*
X164500000Y-93000000D01*
X156000000Y-95250000D01*
X156000000Y-106750000D01*
X154500000Y-106750000D01*
X154500000Y-104750000D01*
X122500000Y-104750000D01*
X122500000Y-106750000D01*
X121000000Y-106750000D01*
X121000000Y-95250000D01*
X112500000Y-93000000D01*
X112500000Y-85000000D01*
X121000000Y-82750000D01*
X121000000Y-69500000D01*
X156000000Y-69500000D01*
X156000000Y-82750000D01*
%TO.C,R10*%
X-80237258Y-7977500D02*
X-79762742Y-7977500D01*
X-80237258Y-9022500D02*
X-79762742Y-9022500D01*
%TO.C,C14*%
X-40979646Y2875000D02*
X-39979646Y2875000D01*
X-40479646Y3375000D02*
X-40479646Y2375000D01*
X-35500000Y5080000D02*
X-35500000Y-5080000D01*
X-35460000Y5080000D02*
X-35460000Y-5080000D01*
X-35420000Y5080000D02*
X-35420000Y-5080000D01*
X-35380000Y5079000D02*
X-35380000Y-5079000D01*
X-35340000Y5078000D02*
X-35340000Y-5078000D01*
X-35300000Y5077000D02*
X-35300000Y-5077000D01*
X-35260000Y5075000D02*
X-35260000Y-5075000D01*
X-35220000Y5073000D02*
X-35220000Y-5073000D01*
X-35180000Y5070000D02*
X-35180000Y-5070000D01*
X-35140000Y5068000D02*
X-35140000Y-5068000D01*
X-35100000Y5065000D02*
X-35100000Y-5065000D01*
X-35060000Y5062000D02*
X-35060000Y-5062000D01*
X-35020000Y5058000D02*
X-35020000Y-5058000D01*
X-34980000Y5054000D02*
X-34980000Y-5054000D01*
X-34940000Y5050000D02*
X-34940000Y-5050000D01*
X-34900000Y5045000D02*
X-34900000Y-5045000D01*
X-34860000Y5040000D02*
X-34860000Y-5040000D01*
X-34820000Y5035000D02*
X-34820000Y-5035000D01*
X-34779000Y5030000D02*
X-34779000Y-5030000D01*
X-34739000Y5024000D02*
X-34739000Y-5024000D01*
X-34699000Y5018000D02*
X-34699000Y-5018000D01*
X-34659000Y5011000D02*
X-34659000Y-5011000D01*
X-34619000Y5004000D02*
X-34619000Y-5004000D01*
X-34579000Y4997000D02*
X-34579000Y-4997000D01*
X-34539000Y4990000D02*
X-34539000Y-4990000D01*
X-34499000Y4982000D02*
X-34499000Y-4982000D01*
X-34459000Y4974000D02*
X-34459000Y-4974000D01*
X-34419000Y4965000D02*
X-34419000Y-4965000D01*
X-34379000Y4956000D02*
X-34379000Y-4956000D01*
X-34339000Y4947000D02*
X-34339000Y-4947000D01*
X-34299000Y4938000D02*
X-34299000Y-4938000D01*
X-34259000Y4928000D02*
X-34259000Y-4928000D01*
X-34219000Y4918000D02*
X-34219000Y1241000D01*
X-34219000Y-1241000D02*
X-34219000Y-4918000D01*
X-34179000Y4907000D02*
X-34179000Y1241000D01*
X-34179000Y-1241000D02*
X-34179000Y-4907000D01*
X-34139000Y4897000D02*
X-34139000Y1241000D01*
X-34139000Y-1241000D02*
X-34139000Y-4897000D01*
X-34099000Y4885000D02*
X-34099000Y1241000D01*
X-34099000Y-1241000D02*
X-34099000Y-4885000D01*
X-34059000Y4874000D02*
X-34059000Y1241000D01*
X-34059000Y-1241000D02*
X-34059000Y-4874000D01*
X-34019000Y4862000D02*
X-34019000Y1241000D01*
X-34019000Y-1241000D02*
X-34019000Y-4862000D01*
X-33979000Y4850000D02*
X-33979000Y1241000D01*
X-33979000Y-1241000D02*
X-33979000Y-4850000D01*
X-33939000Y4837000D02*
X-33939000Y1241000D01*
X-33939000Y-1241000D02*
X-33939000Y-4837000D01*
X-33899000Y4824000D02*
X-33899000Y1241000D01*
X-33899000Y-1241000D02*
X-33899000Y-4824000D01*
X-33859000Y4811000D02*
X-33859000Y1241000D01*
X-33859000Y-1241000D02*
X-33859000Y-4811000D01*
X-33819000Y4797000D02*
X-33819000Y1241000D01*
X-33819000Y-1241000D02*
X-33819000Y-4797000D01*
X-33779000Y4783000D02*
X-33779000Y1241000D01*
X-33779000Y-1241000D02*
X-33779000Y-4783000D01*
X-33739000Y4768000D02*
X-33739000Y1241000D01*
X-33739000Y-1241000D02*
X-33739000Y-4768000D01*
X-33699000Y4754000D02*
X-33699000Y1241000D01*
X-33699000Y-1241000D02*
X-33699000Y-4754000D01*
X-33659000Y4738000D02*
X-33659000Y1241000D01*
X-33659000Y-1241000D02*
X-33659000Y-4738000D01*
X-33619000Y4723000D02*
X-33619000Y1241000D01*
X-33619000Y-1241000D02*
X-33619000Y-4723000D01*
X-33579000Y4707000D02*
X-33579000Y1241000D01*
X-33579000Y-1241000D02*
X-33579000Y-4707000D01*
X-33539000Y4690000D02*
X-33539000Y1241000D01*
X-33539000Y-1241000D02*
X-33539000Y-4690000D01*
X-33499000Y4674000D02*
X-33499000Y1241000D01*
X-33499000Y-1241000D02*
X-33499000Y-4674000D01*
X-33459000Y4657000D02*
X-33459000Y1241000D01*
X-33459000Y-1241000D02*
X-33459000Y-4657000D01*
X-33419000Y4639000D02*
X-33419000Y1241000D01*
X-33419000Y-1241000D02*
X-33419000Y-4639000D01*
X-33379000Y4621000D02*
X-33379000Y1241000D01*
X-33379000Y-1241000D02*
X-33379000Y-4621000D01*
X-33339000Y4603000D02*
X-33339000Y1241000D01*
X-33339000Y-1241000D02*
X-33339000Y-4603000D01*
X-33299000Y4584000D02*
X-33299000Y1241000D01*
X-33299000Y-1241000D02*
X-33299000Y-4584000D01*
X-33259000Y4564000D02*
X-33259000Y1241000D01*
X-33259000Y-1241000D02*
X-33259000Y-4564000D01*
X-33219000Y4545000D02*
X-33219000Y1241000D01*
X-33219000Y-1241000D02*
X-33219000Y-4545000D01*
X-33179000Y4525000D02*
X-33179000Y1241000D01*
X-33179000Y-1241000D02*
X-33179000Y-4525000D01*
X-33139000Y4504000D02*
X-33139000Y1241000D01*
X-33139000Y-1241000D02*
X-33139000Y-4504000D01*
X-33099000Y4483000D02*
X-33099000Y1241000D01*
X-33099000Y-1241000D02*
X-33099000Y-4483000D01*
X-33059000Y4462000D02*
X-33059000Y1241000D01*
X-33059000Y-1241000D02*
X-33059000Y-4462000D01*
X-33019000Y4440000D02*
X-33019000Y1241000D01*
X-33019000Y-1241000D02*
X-33019000Y-4440000D01*
X-32979000Y4417000D02*
X-32979000Y1241000D01*
X-32979000Y-1241000D02*
X-32979000Y-4417000D01*
X-32939000Y4395000D02*
X-32939000Y1241000D01*
X-32939000Y-1241000D02*
X-32939000Y-4395000D01*
X-32899000Y4371000D02*
X-32899000Y1241000D01*
X-32899000Y-1241000D02*
X-32899000Y-4371000D01*
X-32859000Y4347000D02*
X-32859000Y1241000D01*
X-32859000Y-1241000D02*
X-32859000Y-4347000D01*
X-32819000Y4323000D02*
X-32819000Y1241000D01*
X-32819000Y-1241000D02*
X-32819000Y-4323000D01*
X-32779000Y4298000D02*
X-32779000Y1241000D01*
X-32779000Y-1241000D02*
X-32779000Y-4298000D01*
X-32739000Y4273000D02*
X-32739000Y1241000D01*
X-32739000Y-1241000D02*
X-32739000Y-4273000D01*
X-32699000Y4247000D02*
X-32699000Y1241000D01*
X-32699000Y-1241000D02*
X-32699000Y-4247000D01*
X-32659000Y4221000D02*
X-32659000Y1241000D01*
X-32659000Y-1241000D02*
X-32659000Y-4221000D01*
X-32619000Y4194000D02*
X-32619000Y1241000D01*
X-32619000Y-1241000D02*
X-32619000Y-4194000D01*
X-32579000Y4166000D02*
X-32579000Y1241000D01*
X-32579000Y-1241000D02*
X-32579000Y-4166000D01*
X-32539000Y4138000D02*
X-32539000Y1241000D01*
X-32539000Y-1241000D02*
X-32539000Y-4138000D01*
X-32499000Y4110000D02*
X-32499000Y1241000D01*
X-32499000Y-1241000D02*
X-32499000Y-4110000D01*
X-32459000Y4080000D02*
X-32459000Y1241000D01*
X-32459000Y-1241000D02*
X-32459000Y-4080000D01*
X-32419000Y4050000D02*
X-32419000Y1241000D01*
X-32419000Y-1241000D02*
X-32419000Y-4050000D01*
X-32379000Y4020000D02*
X-32379000Y1241000D01*
X-32379000Y-1241000D02*
X-32379000Y-4020000D01*
X-32339000Y3989000D02*
X-32339000Y1241000D01*
X-32339000Y-1241000D02*
X-32339000Y-3989000D01*
X-32299000Y3957000D02*
X-32299000Y1241000D01*
X-32299000Y-1241000D02*
X-32299000Y-3957000D01*
X-32259000Y3925000D02*
X-32259000Y1241000D01*
X-32259000Y-1241000D02*
X-32259000Y-3925000D01*
X-32219000Y3892000D02*
X-32219000Y1241000D01*
X-32219000Y-1241000D02*
X-32219000Y-3892000D01*
X-32179000Y3858000D02*
X-32179000Y1241000D01*
X-32179000Y-1241000D02*
X-32179000Y-3858000D01*
X-32139000Y3824000D02*
X-32139000Y1241000D01*
X-32139000Y-1241000D02*
X-32139000Y-3824000D01*
X-32099000Y3789000D02*
X-32099000Y1241000D01*
X-32099000Y-1241000D02*
X-32099000Y-3789000D01*
X-32059000Y3753000D02*
X-32059000Y1241000D01*
X-32059000Y-1241000D02*
X-32059000Y-3753000D01*
X-32019000Y3716000D02*
X-32019000Y1241000D01*
X-32019000Y-1241000D02*
X-32019000Y-3716000D01*
X-31979000Y3679000D02*
X-31979000Y1241000D01*
X-31979000Y-1241000D02*
X-31979000Y-3679000D01*
X-31939000Y3640000D02*
X-31939000Y1241000D01*
X-31939000Y-1241000D02*
X-31939000Y-3640000D01*
X-31899000Y3601000D02*
X-31899000Y1241000D01*
X-31899000Y-1241000D02*
X-31899000Y-3601000D01*
X-31859000Y3561000D02*
X-31859000Y1241000D01*
X-31859000Y-1241000D02*
X-31859000Y-3561000D01*
X-31819000Y3520000D02*
X-31819000Y1241000D01*
X-31819000Y-1241000D02*
X-31819000Y-3520000D01*
X-31779000Y3478000D02*
X-31779000Y1241000D01*
X-31779000Y-1241000D02*
X-31779000Y-3478000D01*
X-31739000Y3436000D02*
X-31739000Y-3436000D01*
X-31699000Y3392000D02*
X-31699000Y-3392000D01*
X-31659000Y3347000D02*
X-31659000Y-3347000D01*
X-31619000Y3301000D02*
X-31619000Y-3301000D01*
X-31579000Y3254000D02*
X-31579000Y-3254000D01*
X-31539000Y3206000D02*
X-31539000Y-3206000D01*
X-31499000Y3156000D02*
X-31499000Y-3156000D01*
X-31459000Y3106000D02*
X-31459000Y-3106000D01*
X-31419000Y3054000D02*
X-31419000Y-3054000D01*
X-31379000Y3000000D02*
X-31379000Y-3000000D01*
X-31339000Y2945000D02*
X-31339000Y-2945000D01*
X-31299000Y2889000D02*
X-31299000Y-2889000D01*
X-31259000Y2830000D02*
X-31259000Y-2830000D01*
X-31219000Y2770000D02*
X-31219000Y-2770000D01*
X-31179000Y2709000D02*
X-31179000Y-2709000D01*
X-31139000Y2645000D02*
X-31139000Y-2645000D01*
X-31099000Y2579000D02*
X-31099000Y-2579000D01*
X-31059000Y2510000D02*
X-31059000Y-2510000D01*
X-31019000Y2439000D02*
X-31019000Y-2439000D01*
X-30979000Y2365000D02*
X-30979000Y-2365000D01*
X-30939000Y2289000D02*
X-30939000Y-2289000D01*
X-30899000Y2209000D02*
X-30899000Y-2209000D01*
X-30859000Y2125000D02*
X-30859000Y-2125000D01*
X-30819000Y2037000D02*
X-30819000Y-2037000D01*
X-30779000Y1944000D02*
X-30779000Y-1944000D01*
X-30739000Y1846000D02*
X-30739000Y-1846000D01*
X-30699000Y1742000D02*
X-30699000Y-1742000D01*
X-30659000Y1630000D02*
X-30659000Y-1630000D01*
X-30619000Y1510000D02*
X-30619000Y-1510000D01*
X-30579000Y1378000D02*
X-30579000Y-1378000D01*
X-30539000Y1230000D02*
X-30539000Y-1230000D01*
X-30499000Y1062000D02*
X-30499000Y-1062000D01*
X-30459000Y862000D02*
X-30459000Y-862000D01*
X-30419000Y599000D02*
X-30419000Y-599000D01*
X-30380000Y0D02*
G75*
G02*
X-40620000Y0I-5120000J0D01*
G01*
X-40620000Y0D02*
G75*
G02*
X-30380000Y0I5120000J0D01*
G01*
%TO.C,R18*%
X-67762742Y11022500D02*
X-68237258Y11022500D01*
X-67762742Y9977500D02*
X-68237258Y9977500D01*
%TO.C,C3*%
X22359420Y-76490000D02*
X22640580Y-76490000D01*
X22359420Y-77510000D02*
X22640580Y-77510000D01*
%TO.C,C4*%
X21859420Y-74490000D02*
X22140580Y-74490000D01*
X21859420Y-75510000D02*
X22140580Y-75510000D01*
%TO.C,R6*%
X-60737258Y-91977500D02*
X-60262742Y-91977500D01*
X-60737258Y-93022500D02*
X-60262742Y-93022500D01*
%TO.C,C5*%
X47359420Y-136490000D02*
X47640580Y-136490000D01*
X47359420Y-137510000D02*
X47640580Y-137510000D01*
%TO.C,Q11*%
X59500000Y-48940000D02*
X57825000Y-48940000D01*
X59500000Y-48940000D02*
X60150000Y-48940000D01*
X59500000Y-52060000D02*
X58850000Y-52060000D01*
X59500000Y-52060000D02*
X60150000Y-52060000D01*
%TO.C,R9*%
X-80237258Y-9977500D02*
X-79762742Y-9977500D01*
X-80237258Y-11022500D02*
X-79762742Y-11022500D01*
%TO.C,SW4*%
X-69500000Y-84000000D02*
X-69500000Y-88500000D01*
X-67000000Y-89750000D02*
X-65500000Y-89750000D01*
X-65500000Y-82750000D02*
X-67000000Y-82750000D01*
X-63000000Y-88500000D02*
X-63000000Y-84000000D01*
%TO.C,U1*%
X72620000Y-121810000D02*
X57380000Y-121810000D01*
X57380000Y-106570000D01*
X72620000Y-106570000D01*
X72620000Y-121810000D01*
X76430000Y-125620000D02*
G75*
G02*
X73890000Y-125620000I-1270000J0D01*
G01*
X73890000Y-125620000D02*
G75*
G02*
X76430000Y-125620000I1270000J0D01*
G01*
X75922000Y-125620000D02*
G75*
G02*
X74398000Y-125620000I-762000J0D01*
G01*
X74398000Y-125620000D02*
G75*
G02*
X75922000Y-125620000I762000J0D01*
G01*
%TO.C,R4*%
X21762742Y-70477500D02*
X22237258Y-70477500D01*
X21762742Y-71522500D02*
X22237258Y-71522500D01*
%TO.C,R17*%
X-68237258Y12522500D02*
X-67762742Y12522500D01*
X-68237258Y11477500D02*
X-67762742Y11477500D01*
%TO.C,R7*%
X-59237258Y-80477500D02*
X-58762742Y-80477500D01*
X-59237258Y-81522500D02*
X-58762742Y-81522500D01*
%TO.C,C2*%
X96990000Y-144359420D02*
X96990000Y-144640580D01*
X98010000Y-144359420D02*
X98010000Y-144640580D01*
%TO.C,R13*%
X-10022500Y-2762742D02*
X-10022500Y-3237258D01*
X-8977500Y-2762742D02*
X-8977500Y-3237258D01*
%TO.C,R16*%
X-78022500Y762742D02*
X-78022500Y1237258D01*
X-76977500Y762742D02*
X-76977500Y1237258D01*
%TO.C,R8*%
X-87522500Y-8737258D02*
X-87522500Y-8262742D01*
X-86477500Y-8737258D02*
X-86477500Y-8262742D01*
%TO.C,R11*%
X-15762742Y-7477500D02*
X-16237258Y-7477500D01*
X-15762742Y-8522500D02*
X-16237258Y-8522500D01*
%TO.C,C17*%
X73859420Y-35990000D02*
X74140580Y-35990000D01*
X73859420Y-37010000D02*
X74140580Y-37010000D01*
%TO.C,R27*%
X88262742Y-23977500D02*
X88737258Y-23977500D01*
X88262742Y-25022500D02*
X88737258Y-25022500D01*
%TO.C,Q6*%
X-3650000Y-15530000D02*
X-3650000Y-11930000D01*
X-7950000Y-12950000D02*
G75*
G02*
X-3672316Y-11921555I2450000J-780000D01*
G01*
X-3658259Y-15541875D02*
G75*
G02*
X-7950000Y-14550000I-1841741J1811875D01*
G01*
%TO.C,J2*%
X74300000Y-25100000D02*
X74300000Y-27100000D01*
X74300000Y-29000000D02*
X74300000Y-30900000D01*
X74300000Y-30900000D02*
X83700000Y-30900000D01*
X83700000Y-25100000D02*
X83700000Y-27100000D01*
X83700000Y-29000000D02*
X83700000Y-30900000D01*
%TO.C,R12*%
X-15762742Y-19477500D02*
X-16237258Y-19477500D01*
X-15762742Y-20522500D02*
X-16237258Y-20522500D01*
%TO.C,Q8*%
X-76000000Y-7940000D02*
X-77675000Y-7940000D01*
X-76000000Y-7940000D02*
X-75350000Y-7940000D01*
X-76000000Y-11060000D02*
X-76650000Y-11060000D01*
X-76000000Y-11060000D02*
X-75350000Y-11060000D01*
%TO.C,J1*%
X74750000Y-103250000D02*
X53250000Y-103250000D01*
X53250000Y-92000000D01*
X74750000Y-92000000D01*
X74750000Y-103250000D01*
%TO.C,Q7*%
X-3650000Y-21530000D02*
X-3650000Y-17930000D01*
X-7950000Y-18950000D02*
G75*
G02*
X-3672316Y-17921555I2450000J-780000D01*
G01*
X-3658259Y-21541875D02*
G75*
G02*
X-7950000Y-20550000I-1841741J1811875D01*
G01*
%TO.C,C15*%
X131880000Y-134380000D02*
X131880000Y-142620000D01*
X131880000Y-134380000D02*
X150120000Y-134380000D01*
X131880000Y-142620000D02*
X150120000Y-142620000D01*
X150120000Y-134380000D02*
X150120000Y-142620000D01*
%TO.C,C11*%
X78859420Y-119990000D02*
X79140580Y-119990000D01*
X78859420Y-121010000D02*
X79140580Y-121010000D01*
%TO.C,U5*%
X74000000Y-31940000D02*
X72200000Y-31940000D01*
X74000000Y-31940000D02*
X74800000Y-31940000D01*
X74000000Y-35060000D02*
X73200000Y-35060000D01*
X74000000Y-35060000D02*
X74800000Y-35060000D01*
%TO.C,NS1*%
X93250000Y-131750000D02*
X114750000Y-131750000D01*
X114750000Y-143000000D01*
X93250000Y-143000000D01*
X93250000Y-131750000D01*
%TO.C,SW2*%
X93250000Y-116250000D02*
X114750000Y-116250000D01*
X114750000Y-127500000D01*
X93250000Y-127500000D01*
X93250000Y-116250000D01*
%TO.C,R21*%
X47262742Y-50977500D02*
X47737258Y-50977500D01*
X47262742Y-52022500D02*
X47737258Y-52022500D01*
%TO.C,U4*%
X-76221000Y9320000D02*
X-76221000Y4679000D01*
X-76221000Y9320000D02*
X-65980000Y9320000D01*
X-76221000Y7811000D02*
X-65980000Y7811000D01*
X-76221000Y4679000D02*
X-73865000Y4679000D01*
X-74500000Y4679000D02*
X-74500000Y2049000D01*
X-72950000Y9320000D02*
X-72950000Y7811000D01*
X-71735000Y4679000D02*
X-70465000Y4679000D01*
X-71100000Y4679000D02*
X-71100000Y2065000D01*
X-69250000Y9320000D02*
X-69250000Y7811000D01*
X-68335000Y4679000D02*
X-65980000Y4679000D01*
X-67700000Y4679000D02*
X-67700000Y2065000D01*
X-65980000Y9320000D02*
X-65980000Y4679000D01*
%TO.C,C16*%
X117859420Y-70490000D02*
X118140580Y-70490000D01*
X117859420Y-71510000D02*
X118140580Y-71510000D01*
%TO.C,Q1*%
X-84000000Y-6940000D02*
X-85675000Y-6940000D01*
X-84000000Y-6940000D02*
X-83350000Y-6940000D01*
X-84000000Y-10060000D02*
X-84650000Y-10060000D01*
X-84000000Y-10060000D02*
X-83350000Y-10060000D01*
%TO.C,R25*%
X88262742Y-21977500D02*
X88737258Y-21977500D01*
X88262742Y-23022500D02*
X88737258Y-23022500D01*
%TO.C,R20*%
X47262742Y-47477500D02*
X47737258Y-47477500D01*
X47262742Y-48522500D02*
X47737258Y-48522500D01*
%TO.C,R3*%
X21762742Y-75477500D02*
X22237258Y-75477500D01*
X21762742Y-76522500D02*
X22237258Y-76522500D01*
%TO.C,R1*%
X98977500Y-146237258D02*
X98977500Y-145762742D01*
X100022500Y-146237258D02*
X100022500Y-145762742D01*
%TO.C,R26*%
X58762742Y-44477500D02*
X59237258Y-44477500D01*
X58762742Y-45522500D02*
X59237258Y-45522500D01*
%TO.C,R14*%
X-11022500Y-14762742D02*
X-11022500Y-15237258D01*
X-9977500Y-14762742D02*
X-9977500Y-15237258D01*
%TO.C,R24*%
X63762742Y-25477500D02*
X64237258Y-25477500D01*
X63762742Y-26522500D02*
X64237258Y-26522500D01*
%TO.C,Q4*%
X-3650000Y-3530000D02*
X-3650000Y70000D01*
X-7950000Y-950000D02*
G75*
G02*
X-3672316Y78445I2450000J-780000D01*
G01*
X-3658259Y-3541875D02*
G75*
G02*
X-7950000Y-2550000I-1841741J1811875D01*
G01*
%TO.C,Q10*%
X53500000Y-48940000D02*
X51825000Y-48940000D01*
X53500000Y-48940000D02*
X54150000Y-48940000D01*
X53500000Y-52060000D02*
X52850000Y-52060000D01*
X53500000Y-52060000D02*
X54150000Y-52060000D01*
%TO.C,Q2*%
X-9150000Y-9530000D02*
X-9150000Y-5930000D01*
X-13450000Y-6950000D02*
G75*
G02*
X-9172316Y-5921555I2450000J-780000D01*
G01*
X-9158259Y-9541875D02*
G75*
G02*
X-13450000Y-8550000I-1841741J1811875D01*
G01*
%TO.C,Q3*%
X-9150000Y-21530000D02*
X-9150000Y-17930000D01*
X-13450000Y-18950000D02*
G75*
G02*
X-9172316Y-17921555I2450000J-780000D01*
G01*
X-9158259Y-21541875D02*
G75*
G02*
X-13450000Y-20550000I-1841741J1811875D01*
G01*
%TO.C,D1*%
X-65150000Y16710000D02*
X-65150000Y9300000D01*
X-60850000Y16710000D02*
X-65150000Y16710000D01*
X-60850000Y16710000D02*
X-60850000Y9300000D01*
%TO.C,R15*%
X115762742Y-64477500D02*
X116237258Y-64477500D01*
X115762742Y-65522500D02*
X116237258Y-65522500D01*
%TO.C,C12*%
X-74081000Y-6599000D02*
X-74081000Y-5401000D01*
X-74041000Y-6862000D02*
X-74041000Y-5138000D01*
X-74001000Y-7062000D02*
X-74001000Y-4938000D01*
X-73961000Y-7230000D02*
X-73961000Y-4770000D01*
X-73921000Y-7378000D02*
X-73921000Y-4622000D01*
X-73881000Y-7510000D02*
X-73881000Y-4490000D01*
X-73841000Y-7630000D02*
X-73841000Y-4370000D01*
X-73801000Y-7742000D02*
X-73801000Y-4258000D01*
X-73761000Y-7846000D02*
X-73761000Y-4154000D01*
X-73721000Y-7944000D02*
X-73721000Y-4056000D01*
X-73681000Y-8037000D02*
X-73681000Y-3963000D01*
X-73641000Y-8125000D02*
X-73641000Y-3875000D01*
X-73601000Y-8209000D02*
X-73601000Y-3791000D01*
X-73561000Y-8289000D02*
X-73561000Y-3711000D01*
X-73521000Y-8365000D02*
X-73521000Y-3635000D01*
X-73481000Y-8439000D02*
X-73481000Y-3561000D01*
X-73441000Y-8510000D02*
X-73441000Y-3490000D01*
X-73401000Y-8579000D02*
X-73401000Y-3421000D01*
X-73361000Y-8645000D02*
X-73361000Y-3355000D01*
X-73321000Y-8709000D02*
X-73321000Y-3291000D01*
X-73281000Y-8770000D02*
X-73281000Y-3230000D01*
X-73241000Y-8830000D02*
X-73241000Y-3170000D01*
X-73201000Y-8889000D02*
X-73201000Y-3111000D01*
X-73161000Y-8945000D02*
X-73161000Y-3055000D01*
X-73121000Y-9000000D02*
X-73121000Y-3000000D01*
X-73081000Y-9054000D02*
X-73081000Y-2946000D01*
X-73041000Y-9106000D02*
X-73041000Y-2894000D01*
X-73001000Y-9156000D02*
X-73001000Y-2844000D01*
X-72961000Y-9206000D02*
X-72961000Y-2794000D01*
X-72921000Y-9254000D02*
X-72921000Y-2746000D01*
X-72881000Y-9301000D02*
X-72881000Y-2699000D01*
X-72841000Y-9347000D02*
X-72841000Y-2653000D01*
X-72801000Y-9392000D02*
X-72801000Y-2608000D01*
X-72761000Y-9436000D02*
X-72761000Y-2564000D01*
X-72721000Y-4759000D02*
X-72721000Y-2522000D01*
X-72721000Y-9478000D02*
X-72721000Y-7241000D01*
X-72681000Y-4759000D02*
X-72681000Y-2480000D01*
X-72681000Y-9520000D02*
X-72681000Y-7241000D01*
X-72641000Y-4759000D02*
X-72641000Y-2439000D01*
X-72641000Y-9561000D02*
X-72641000Y-7241000D01*
X-72601000Y-4759000D02*
X-72601000Y-2399000D01*
X-72601000Y-9601000D02*
X-72601000Y-7241000D01*
X-72561000Y-4759000D02*
X-72561000Y-2360000D01*
X-72561000Y-9640000D02*
X-72561000Y-7241000D01*
X-72521000Y-4759000D02*
X-72521000Y-2321000D01*
X-72521000Y-9679000D02*
X-72521000Y-7241000D01*
X-72481000Y-4759000D02*
X-72481000Y-2284000D01*
X-72481000Y-9716000D02*
X-72481000Y-7241000D01*
X-72441000Y-4759000D02*
X-72441000Y-2247000D01*
X-72441000Y-9753000D02*
X-72441000Y-7241000D01*
X-72401000Y-4759000D02*
X-72401000Y-2211000D01*
X-72401000Y-9789000D02*
X-72401000Y-7241000D01*
X-72361000Y-4759000D02*
X-72361000Y-2176000D01*
X-72361000Y-9824000D02*
X-72361000Y-7241000D01*
X-72321000Y-4759000D02*
X-72321000Y-2142000D01*
X-72321000Y-9858000D02*
X-72321000Y-7241000D01*
X-72281000Y-4759000D02*
X-72281000Y-2108000D01*
X-72281000Y-9892000D02*
X-72281000Y-7241000D01*
X-72241000Y-4759000D02*
X-72241000Y-2075000D01*
X-72241000Y-9925000D02*
X-72241000Y-7241000D01*
X-72201000Y-4759000D02*
X-72201000Y-2043000D01*
X-72201000Y-9957000D02*
X-72201000Y-7241000D01*
X-72161000Y-4759000D02*
X-72161000Y-2011000D01*
X-72161000Y-9989000D02*
X-72161000Y-7241000D01*
X-72121000Y-4759000D02*
X-72121000Y-1980000D01*
X-72121000Y-10020000D02*
X-72121000Y-7241000D01*
X-72081000Y-4759000D02*
X-72081000Y-1950000D01*
X-72081000Y-10050000D02*
X-72081000Y-7241000D01*
X-72041000Y-4759000D02*
X-72041000Y-1920000D01*
X-72041000Y-10080000D02*
X-72041000Y-7241000D01*
X-72001000Y-4759000D02*
X-72001000Y-1890000D01*
X-72001000Y-10110000D02*
X-72001000Y-7241000D01*
X-71961000Y-4759000D02*
X-71961000Y-1862000D01*
X-71961000Y-10138000D02*
X-71961000Y-7241000D01*
X-71921000Y-4759000D02*
X-71921000Y-1834000D01*
X-71921000Y-10166000D02*
X-71921000Y-7241000D01*
X-71881000Y-4759000D02*
X-71881000Y-1806000D01*
X-71881000Y-10194000D02*
X-71881000Y-7241000D01*
X-71841000Y-4759000D02*
X-71841000Y-1779000D01*
X-71841000Y-10221000D02*
X-71841000Y-7241000D01*
X-71801000Y-4759000D02*
X-71801000Y-1753000D01*
X-71801000Y-10247000D02*
X-71801000Y-7241000D01*
X-71761000Y-4759000D02*
X-71761000Y-1727000D01*
X-71761000Y-10273000D02*
X-71761000Y-7241000D01*
X-71721000Y-4759000D02*
X-71721000Y-1702000D01*
X-71721000Y-10298000D02*
X-71721000Y-7241000D01*
X-71681000Y-4759000D02*
X-71681000Y-1677000D01*
X-71681000Y-10323000D02*
X-71681000Y-7241000D01*
X-71641000Y-4759000D02*
X-71641000Y-1653000D01*
X-71641000Y-10347000D02*
X-71641000Y-7241000D01*
X-71601000Y-4759000D02*
X-71601000Y-1629000D01*
X-71601000Y-10371000D02*
X-71601000Y-7241000D01*
X-71561000Y-4759000D02*
X-71561000Y-1605000D01*
X-71561000Y-10395000D02*
X-71561000Y-7241000D01*
X-71521000Y-4759000D02*
X-71521000Y-1583000D01*
X-71521000Y-10417000D02*
X-71521000Y-7241000D01*
X-71481000Y-4759000D02*
X-71481000Y-1560000D01*
X-71481000Y-10440000D02*
X-71481000Y-7241000D01*
X-71441000Y-4759000D02*
X-71441000Y-1538000D01*
X-71441000Y-10462000D02*
X-71441000Y-7241000D01*
X-71401000Y-4759000D02*
X-71401000Y-1517000D01*
X-71401000Y-10483000D02*
X-71401000Y-7241000D01*
X-71361000Y-4759000D02*
X-71361000Y-1496000D01*
X-71361000Y-10504000D02*
X-71361000Y-7241000D01*
X-71321000Y-4759000D02*
X-71321000Y-1475000D01*
X-71321000Y-10525000D02*
X-71321000Y-7241000D01*
X-71281000Y-4759000D02*
X-71281000Y-1455000D01*
X-71281000Y-10545000D02*
X-71281000Y-7241000D01*
X-71241000Y-4759000D02*
X-71241000Y-1436000D01*
X-71241000Y-10564000D02*
X-71241000Y-7241000D01*
X-71201000Y-4759000D02*
X-71201000Y-1416000D01*
X-71201000Y-10584000D02*
X-71201000Y-7241000D01*
X-71161000Y-4759000D02*
X-71161000Y-1397000D01*
X-71161000Y-10603000D02*
X-71161000Y-7241000D01*
X-71121000Y-4759000D02*
X-71121000Y-1379000D01*
X-71121000Y-10621000D02*
X-71121000Y-7241000D01*
X-71081000Y-4759000D02*
X-71081000Y-1361000D01*
X-71081000Y-10639000D02*
X-71081000Y-7241000D01*
X-71041000Y-4759000D02*
X-71041000Y-1343000D01*
X-71041000Y-10657000D02*
X-71041000Y-7241000D01*
X-71001000Y-4759000D02*
X-71001000Y-1326000D01*
X-71001000Y-10674000D02*
X-71001000Y-7241000D01*
X-70961000Y-4759000D02*
X-70961000Y-1310000D01*
X-70961000Y-10690000D02*
X-70961000Y-7241000D01*
X-70921000Y-4759000D02*
X-70921000Y-1293000D01*
X-70921000Y-10707000D02*
X-70921000Y-7241000D01*
X-70881000Y-4759000D02*
X-70881000Y-1277000D01*
X-70881000Y-10723000D02*
X-70881000Y-7241000D01*
X-70841000Y-4759000D02*
X-70841000Y-1262000D01*
X-70841000Y-10738000D02*
X-70841000Y-7241000D01*
X-70801000Y-4759000D02*
X-70801000Y-1246000D01*
X-70801000Y-10754000D02*
X-70801000Y-7241000D01*
X-70761000Y-4759000D02*
X-70761000Y-1232000D01*
X-70761000Y-10768000D02*
X-70761000Y-7241000D01*
X-70721000Y-4759000D02*
X-70721000Y-1217000D01*
X-70721000Y-10783000D02*
X-70721000Y-7241000D01*
X-70681000Y-4759000D02*
X-70681000Y-1203000D01*
X-70681000Y-10797000D02*
X-70681000Y-7241000D01*
X-70641000Y-4759000D02*
X-70641000Y-1189000D01*
X-70641000Y-10811000D02*
X-70641000Y-7241000D01*
X-70601000Y-4759000D02*
X-70601000Y-1176000D01*
X-70601000Y-10824000D02*
X-70601000Y-7241000D01*
X-70561000Y-4759000D02*
X-70561000Y-1163000D01*
X-70561000Y-10837000D02*
X-70561000Y-7241000D01*
X-70521000Y-4759000D02*
X-70521000Y-1150000D01*
X-70521000Y-10850000D02*
X-70521000Y-7241000D01*
X-70481000Y-4759000D02*
X-70481000Y-1138000D01*
X-70481000Y-10862000D02*
X-70481000Y-7241000D01*
X-70441000Y-4759000D02*
X-70441000Y-1126000D01*
X-70441000Y-10874000D02*
X-70441000Y-7241000D01*
X-70401000Y-4759000D02*
X-70401000Y-1115000D01*
X-70401000Y-10885000D02*
X-70401000Y-7241000D01*
X-70361000Y-4759000D02*
X-70361000Y-1103000D01*
X-70361000Y-10897000D02*
X-70361000Y-7241000D01*
X-70321000Y-4759000D02*
X-70321000Y-1093000D01*
X-70321000Y-10907000D02*
X-70321000Y-7241000D01*
X-70281000Y-4759000D02*
X-70281000Y-1082000D01*
X-70281000Y-10918000D02*
X-70281000Y-7241000D01*
X-70241000Y-10928000D02*
X-70241000Y-1072000D01*
X-70201000Y-10938000D02*
X-70201000Y-1062000D01*
X-70161000Y-10947000D02*
X-70161000Y-1053000D01*
X-70121000Y-10956000D02*
X-70121000Y-1044000D01*
X-70081000Y-10965000D02*
X-70081000Y-1035000D01*
X-70041000Y-10974000D02*
X-70041000Y-1026000D01*
X-70001000Y-10982000D02*
X-70001000Y-1018000D01*
X-69961000Y-10990000D02*
X-69961000Y-1010000D01*
X-69921000Y-10997000D02*
X-69921000Y-1003000D01*
X-69881000Y-11004000D02*
X-69881000Y-996000D01*
X-69841000Y-11011000D02*
X-69841000Y-989000D01*
X-69801000Y-11018000D02*
X-69801000Y-982000D01*
X-69761000Y-11024000D02*
X-69761000Y-976000D01*
X-69721000Y-11030000D02*
X-69721000Y-970000D01*
X-69680000Y-11035000D02*
X-69680000Y-965000D01*
X-69640000Y-11040000D02*
X-69640000Y-960000D01*
X-69600000Y-11045000D02*
X-69600000Y-955000D01*
X-69560000Y-11050000D02*
X-69560000Y-950000D01*
X-69520000Y-11054000D02*
X-69520000Y-946000D01*
X-69480000Y-11058000D02*
X-69480000Y-942000D01*
X-69440000Y-11062000D02*
X-69440000Y-938000D01*
X-69400000Y-11065000D02*
X-69400000Y-935000D01*
X-69360000Y-11068000D02*
X-69360000Y-932000D01*
X-69320000Y-11070000D02*
X-69320000Y-930000D01*
X-69280000Y-11073000D02*
X-69280000Y-927000D01*
X-69240000Y-11075000D02*
X-69240000Y-925000D01*
X-69200000Y-11077000D02*
X-69200000Y-923000D01*
X-69160000Y-11078000D02*
X-69160000Y-922000D01*
X-69120000Y-11079000D02*
X-69120000Y-921000D01*
X-69080000Y-11080000D02*
X-69080000Y-920000D01*
X-69040000Y-11080000D02*
X-69040000Y-920000D01*
X-69000000Y-11080000D02*
X-69000000Y-920000D01*
X-64020354Y-9375000D02*
X-64020354Y-8375000D01*
X-63520354Y-8875000D02*
X-64520354Y-8875000D01*
X-63880000Y-6000000D02*
G75*
G02*
X-74120000Y-6000000I-5120000J0D01*
G01*
X-74120000Y-6000000D02*
G75*
G02*
X-63880000Y-6000000I5120000J0D01*
G01*
%TO.C,C18*%
X64859420Y-22490000D02*
X65140580Y-22490000D01*
X64859420Y-23510000D02*
X65140580Y-23510000D01*
%TO.C,L2*%
X-52630000Y1000000D02*
G75*
G02*
X-65370000Y1000000I-6370000J0D01*
G01*
X-65370000Y1000000D02*
G75*
G02*
X-52630000Y1000000I6370000J0D01*
G01*
%TO.C,C1*%
X113359420Y-145490000D02*
X113640580Y-145490000D01*
X113359420Y-146510000D02*
X113640580Y-146510000D01*
%TO.C,J3*%
X34278000Y-23229000D02*
X34278000Y-24479000D01*
X34578000Y-23529000D02*
X34578000Y-28249000D01*
X34578000Y-24839000D02*
X35188000Y-24839000D01*
X34578000Y-26139000D02*
X35188000Y-26139000D01*
X34578000Y-28249000D02*
X40698000Y-28249000D01*
X35188000Y-24139000D02*
X35188000Y-27639000D01*
X35188000Y-27639000D02*
X40088000Y-27639000D01*
X35528000Y-23229000D02*
X34278000Y-23229000D01*
X36038000Y-23329000D02*
X36038000Y-23529000D01*
X36338000Y-23329000D02*
X36038000Y-23329000D01*
X36338000Y-23429000D02*
X36038000Y-23429000D01*
X36338000Y-23529000D02*
X36338000Y-23329000D01*
X37138000Y-23529000D02*
X37138000Y-24139000D01*
X37138000Y-24139000D02*
X35188000Y-24139000D01*
X37538000Y-27139000D02*
X37738000Y-27139000D01*
X37538000Y-27639000D02*
X37538000Y-27139000D01*
X37638000Y-27639000D02*
X37638000Y-27139000D01*
X37738000Y-27139000D02*
X37738000Y-27639000D01*
X38138000Y-24139000D02*
X38138000Y-23529000D01*
X40088000Y-24139000D02*
X38138000Y-24139000D01*
X40088000Y-27639000D02*
X40088000Y-24139000D01*
X40698000Y-23529000D02*
X34578000Y-23529000D01*
X40698000Y-24839000D02*
X40088000Y-24839000D01*
X40698000Y-26139000D02*
X40088000Y-26139000D01*
X40698000Y-28249000D02*
X40698000Y-23529000D01*
%TD*%
%LPC*%
D13*
%TO.C,R2*%
X108175000Y-145500000D03*
X109825000Y-145500000D03*
%TD*%
%TO.C,R22*%
X52675000Y-43500000D03*
X54325000Y-43500000D03*
%TD*%
D14*
%TO.C,C13*%
X-76500000Y-1437500D03*
X-76500000Y-4562500D03*
%TD*%
D13*
%TO.C,R19*%
X71175000Y-156000000D03*
X72825000Y-156000000D03*
%TD*%
%TO.C,R5*%
X-60825000Y-86000000D03*
X-59175000Y-86000000D03*
%TD*%
%TO.C,R23*%
X65175000Y-50000000D03*
X66825000Y-50000000D03*
%TD*%
D15*
%TO.C,U3*%
X-25150000Y-69000000D03*
X-25150000Y-69500000D03*
X-25150000Y-70000000D03*
X-25150000Y-70500000D03*
X-25150000Y-71000000D03*
X-20850000Y-71000000D03*
X-20850000Y-70500000D03*
X-20850000Y-70000000D03*
X-20850000Y-69500000D03*
X-20850000Y-69000000D03*
D16*
X-23000000Y-70000000D03*
%TD*%
D17*
%TO.C,Q5*%
X-5100000Y-9000000D03*
D18*
X-7170000Y-7730000D03*
X-5100000Y-6460000D03*
%TD*%
D19*
%TO.C,U2*%
X70250000Y-141900000D03*
X70250000Y-140400000D03*
X70250000Y-138900000D03*
X70250000Y-137400000D03*
X70250000Y-135900000D03*
X70250000Y-134400000D03*
X70250000Y-132900000D03*
X70250000Y-131400000D03*
X70250000Y-129900000D03*
X52750000Y-129900000D03*
X52750000Y-131400000D03*
X52750000Y-132900000D03*
X52750000Y-134400000D03*
X52750000Y-135900000D03*
X52750000Y-137400000D03*
X52750000Y-138900000D03*
X52750000Y-140400000D03*
X52750000Y-141900000D03*
D20*
X61640000Y-136800000D03*
X61640000Y-135700000D03*
X61640000Y-134600000D03*
X60590000Y-136800000D03*
X60590000Y-135700000D03*
X60590000Y-134600000D03*
X59440000Y-136800000D03*
X59440000Y-135700000D03*
X59440000Y-134600000D03*
%TD*%
D21*
%TO.C,SW1*%
X117250000Y-89000000D03*
D22*
X138500000Y-103000000D03*
D21*
X159750000Y-89000000D03*
D23*
X124750000Y-76000000D03*
X127250000Y-71000000D03*
X137250000Y-76000000D03*
X139750000Y-71000000D03*
X142250000Y-76000000D03*
X147250000Y-76000000D03*
X149750000Y-71000000D03*
X152250000Y-76000000D03*
%TD*%
D13*
%TO.C,R10*%
X-80825000Y-8500000D03*
X-79175000Y-8500000D03*
%TD*%
D24*
%TO.C,C14*%
X-38000000Y0D03*
D25*
X-33000000Y0D03*
%TD*%
D26*
%TO.C,R18*%
X-67175000Y10500000D03*
X-68825000Y10500000D03*
%TD*%
D27*
%TO.C,C3*%
X21725000Y-77000000D03*
X23275000Y-77000000D03*
%TD*%
%TO.C,C4*%
X21225000Y-75000000D03*
X22775000Y-75000000D03*
%TD*%
D13*
%TO.C,R6*%
X-61325000Y-92500000D03*
X-59675000Y-92500000D03*
%TD*%
D27*
%TO.C,C5*%
X46725000Y-137000000D03*
X48275000Y-137000000D03*
%TD*%
D28*
%TO.C,Q11*%
X58562500Y-49550000D03*
X58562500Y-51450000D03*
X60437500Y-50500000D03*
%TD*%
D13*
%TO.C,R9*%
X-80825000Y-10500000D03*
X-79175000Y-10500000D03*
%TD*%
D25*
%TO.C,SW4*%
X-68500000Y-89500000D03*
X-68500000Y-83000000D03*
X-64000000Y-89500000D03*
X-64000000Y-83000000D03*
%TD*%
D29*
%TO.C,U1*%
X75795000Y-120540000D03*
X75795000Y-118000000D03*
X75795000Y-115460000D03*
X75795000Y-112920000D03*
X75795000Y-110380000D03*
X54205000Y-107840000D03*
X54205000Y-110380000D03*
X54205000Y-112920000D03*
X54205000Y-115460000D03*
X54205000Y-118000000D03*
X54205000Y-120540000D03*
%TD*%
D13*
%TO.C,R4*%
X21175000Y-71000000D03*
X22825000Y-71000000D03*
%TD*%
%TO.C,R17*%
X-68825000Y12000000D03*
X-67175000Y12000000D03*
%TD*%
%TO.C,R7*%
X-59825000Y-81000000D03*
X-58175000Y-81000000D03*
%TD*%
D30*
%TO.C,C2*%
X97500000Y-143725000D03*
X97500000Y-145275000D03*
%TD*%
D31*
%TO.C,R13*%
X-9500000Y-2175000D03*
X-9500000Y-3825000D03*
%TD*%
D32*
%TO.C,R16*%
X-77500000Y175000D03*
X-77500000Y1825000D03*
%TD*%
%TO.C,R8*%
X-87000000Y-9325000D03*
X-87000000Y-7675000D03*
%TD*%
D26*
%TO.C,R11*%
X-15175000Y-8000000D03*
X-16825000Y-8000000D03*
%TD*%
D27*
%TO.C,C17*%
X73225000Y-36500000D03*
X74775000Y-36500000D03*
%TD*%
D13*
%TO.C,R27*%
X87675000Y-24500000D03*
X89325000Y-24500000D03*
%TD*%
D17*
%TO.C,Q6*%
X-5100000Y-15000000D03*
D18*
X-7170000Y-13730000D03*
X-5100000Y-12460000D03*
%TD*%
D33*
%TO.C,J2*%
X76110000Y-24400000D03*
X81890000Y-24400000D03*
D34*
X75750000Y-22955000D03*
X76550000Y-22955000D03*
D35*
X77750000Y-22955000D03*
X78750000Y-22955000D03*
X79250000Y-22955000D03*
X80250000Y-22955000D03*
D34*
X81450000Y-22955000D03*
X82250000Y-22955000D03*
X82250000Y-22955000D03*
X81450000Y-22955000D03*
D35*
X80750000Y-22955000D03*
X79750000Y-22955000D03*
X78250000Y-22955000D03*
X77250000Y-22955000D03*
D34*
X76550000Y-22955000D03*
X75750000Y-22955000D03*
D36*
X74680000Y-23870000D03*
D37*
X74680000Y-28050000D03*
D36*
X83320000Y-23870000D03*
D37*
X83320000Y-28050000D03*
%TD*%
D26*
%TO.C,R12*%
X-15175000Y-20000000D03*
X-16825000Y-20000000D03*
%TD*%
D28*
%TO.C,Q8*%
X-76937500Y-8550000D03*
X-76937500Y-10450000D03*
X-75062500Y-9500000D03*
%TD*%
D38*
%TO.C,J1*%
X72750000Y-101500000D03*
X70250000Y-96500000D03*
X67750000Y-101500000D03*
X65250000Y-96500000D03*
X62750000Y-101500000D03*
X60250000Y-96500000D03*
X57750000Y-101500000D03*
X55250000Y-96500000D03*
%TD*%
D17*
%TO.C,Q7*%
X-5100000Y-21000000D03*
D18*
X-7170000Y-19730000D03*
X-5100000Y-18460000D03*
%TD*%
D39*
%TO.C,C15*%
X133500000Y-138500000D03*
X148500000Y-138500000D03*
%TD*%
D27*
%TO.C,C11*%
X78225000Y-120500000D03*
X79775000Y-120500000D03*
%TD*%
D40*
%TO.C,U5*%
X72862500Y-32550000D03*
X72862500Y-33500000D03*
X72862500Y-34450000D03*
X75137500Y-34450000D03*
X75137500Y-33500000D03*
X75137500Y-32550000D03*
%TD*%
D38*
%TO.C,NS1*%
X95250000Y-133500000D03*
X97750000Y-138500000D03*
X100250000Y-133500000D03*
X102750000Y-138500000D03*
X105250000Y-133500000D03*
X107750000Y-138500000D03*
X110250000Y-133500000D03*
X112750000Y-138500000D03*
%TD*%
%TO.C,SW2*%
X95250000Y-118000000D03*
X97750000Y-123000000D03*
X100250000Y-118000000D03*
X102750000Y-123000000D03*
X105250000Y-118000000D03*
X107750000Y-123000000D03*
X110250000Y-118000000D03*
X112750000Y-123000000D03*
%TD*%
D13*
%TO.C,R21*%
X46675000Y-51500000D03*
X48325000Y-51500000D03*
%TD*%
D41*
%TO.C,U4*%
X-74500000Y1000000D03*
D42*
X-72800000Y4700000D03*
X-71100000Y1000000D03*
X-69400000Y4700000D03*
X-67700000Y1000000D03*
%TD*%
D27*
%TO.C,C16*%
X117225000Y-71000000D03*
X118775000Y-71000000D03*
%TD*%
D28*
%TO.C,Q1*%
X-84937500Y-7550000D03*
X-84937500Y-9450000D03*
X-83062500Y-8500000D03*
%TD*%
D13*
%TO.C,R25*%
X87675000Y-22500000D03*
X89325000Y-22500000D03*
%TD*%
%TO.C,R20*%
X46675000Y-48000000D03*
X48325000Y-48000000D03*
%TD*%
%TO.C,R3*%
X21175000Y-76000000D03*
X22825000Y-76000000D03*
%TD*%
D32*
%TO.C,R1*%
X99500000Y-146825000D03*
X99500000Y-145175000D03*
%TD*%
D13*
%TO.C,R26*%
X58175000Y-45000000D03*
X59825000Y-45000000D03*
%TD*%
D31*
%TO.C,R14*%
X-10500000Y-14175000D03*
X-10500000Y-15825000D03*
%TD*%
D13*
%TO.C,R24*%
X63175000Y-26000000D03*
X64825000Y-26000000D03*
%TD*%
D17*
%TO.C,Q4*%
X-5100000Y-3000000D03*
D18*
X-7170000Y-1730000D03*
X-5100000Y-460000D03*
%TD*%
D28*
%TO.C,Q10*%
X52562500Y-49550000D03*
X52562500Y-51450000D03*
X54437500Y-50500000D03*
%TD*%
D17*
%TO.C,Q2*%
X-10600000Y-9000000D03*
D18*
X-12670000Y-7730000D03*
X-10600000Y-6460000D03*
%TD*%
D17*
%TO.C,Q3*%
X-10600000Y-21000000D03*
D18*
X-12670000Y-19730000D03*
X-10600000Y-18460000D03*
%TD*%
D43*
%TO.C,D1*%
X-63000000Y14700000D03*
X-63000000Y9300000D03*
%TD*%
D13*
%TO.C,R15*%
X115175000Y-65000000D03*
X116825000Y-65000000D03*
%TD*%
D24*
%TO.C,C12*%
X-66500000Y-6000000D03*
D25*
X-71500000Y-6000000D03*
%TD*%
D27*
%TO.C,C18*%
X64225000Y-23000000D03*
X65775000Y-23000000D03*
%TD*%
D39*
%TO.C,L2*%
X-59000000Y-2500000D03*
X-59000000Y4500000D03*
%TD*%
D27*
%TO.C,C1*%
X112725000Y-146000000D03*
X114275000Y-146000000D03*
%TD*%
D44*
%TO.C,J3*%
X36638000Y-25339000D03*
D45*
X38638000Y-25339000D03*
%TD*%
D38*
%TO.C,L1*%
X135750000Y-125500000D03*
X138250000Y-130500000D03*
X145750000Y-125500000D03*
X148250000Y-130500000D03*
%TD*%
%LPD*%
M02*
