%TF.GenerationSoftware,KiCad,Pcbnew,8.0.6-8.0.6-0~ubuntu22.04.1*%
%TF.CreationDate,2024-10-28T00:14:06+01:00*%
%TF.ProjectId,wandfernsprecher,77616e64-6665-4726-9e73-707265636865,0.1.0*%
%TF.SameCoordinates,Original*%
%TF.FileFunction,Copper,L2,Inr*%
%TF.FilePolarity,Positive*%
%FSLAX46Y46*%
G04 Gerber Fmt 4.6, Leading zero omitted, Abs format (unit mm)*
G04 Created by KiCad (PCBNEW 8.0.6-8.0.6-0~ubuntu22.04.1) date 2024-10-28 00:14:06*
%MOMM*%
%LPD*%
G01*
G04 APERTURE LIST*
G04 Aperture macros list*
%AMRoundRect*
0 Rectangle with rounded corners*
0 $1 Rounding radius*
0 $2 $3 $4 $5 $6 $7 $8 $9 X,Y pos of 4 corners*
0 Add a 4 corners polygon primitive as box body*
4,1,4,$2,$3,$4,$5,$6,$7,$8,$9,$2,$3,0*
0 Add four circle primitives for the rounded corners*
1,1,$1+$1,$2,$3*
1,1,$1+$1,$4,$5*
1,1,$1+$1,$6,$7*
1,1,$1+$1,$8,$9*
0 Add four rect primitives between the rounded corners*
20,1,$1+$1,$2,$3,$4,$5,0*
20,1,$1+$1,$4,$5,$6,$7,0*
20,1,$1+$1,$6,$7,$8,$9,0*
20,1,$1+$1,$8,$9,$2,$3,0*%
%AMHorizOval*
0 Thick line with rounded ends*
0 $1 width*
0 $2 $3 position (X,Y) of the first rounded end (center of the circle)*
0 $4 $5 position (X,Y) of the second rounded end (center of the circle)*
0 Add line between two ends*
20,1,$1,$2,$3,$4,$5,0*
0 Add two circle primitives to create the rounded ends*
1,1,$1,$2,$3*
1,1,$1,$4,$5*%
G04 Aperture macros list end*
%TA.AperFunction,ComponentPad*%
%ADD10RoundRect,0.250000X0.350000X0.625000X-0.350000X0.625000X-0.350000X-0.625000X0.350000X-0.625000X0*%
%TD*%
%TA.AperFunction,ComponentPad*%
%ADD11O,1.200000X1.750000*%
%TD*%
%TA.AperFunction,HeatsinkPad*%
%ADD12C,0.600000*%
%TD*%
%TA.AperFunction,ComponentPad*%
%ADD13R,1.800000X1.100000*%
%TD*%
%TA.AperFunction,ComponentPad*%
%ADD14RoundRect,0.275000X0.625000X-0.275000X0.625000X0.275000X-0.625000X0.275000X-0.625000X-0.275000X0*%
%TD*%
%TA.AperFunction,ComponentPad*%
%ADD15C,2.750000*%
%TD*%
%TA.AperFunction,ComponentPad*%
%ADD16R,2.000000X2.000000*%
%TD*%
%TA.AperFunction,ComponentPad*%
%ADD17C,2.000000*%
%TD*%
%TA.AperFunction,ComponentPad*%
%ADD18C,1.524000*%
%TD*%
%TA.AperFunction,ComponentPad*%
%ADD19RoundRect,0.250000X-0.625000X0.350000X-0.625000X-0.350000X0.625000X-0.350000X0.625000X0.350000X0*%
%TD*%
%TA.AperFunction,ComponentPad*%
%ADD20O,1.750000X1.200000*%
%TD*%
%TA.AperFunction,ComponentPad*%
%ADD21HorizOval,2.000000X-0.265165X0.265165X0.265165X-0.265165X0*%
%TD*%
%TA.AperFunction,ComponentPad*%
%ADD22C,2.400000*%
%TD*%
%TA.AperFunction,ComponentPad*%
%ADD23R,1.800000X1.800000*%
%TD*%
%TA.AperFunction,ComponentPad*%
%ADD24O,1.800000X1.800000*%
%TD*%
%TA.AperFunction,ComponentPad*%
%ADD25R,1.700000X1.700000*%
%TD*%
%TA.AperFunction,ComponentPad*%
%ADD26O,1.700000X1.700000*%
%TD*%
%TA.AperFunction,ComponentPad*%
%ADD27HorizOval,2.000000X0.374724X0.014395X-0.374724X-0.014395X0*%
%TD*%
%TA.AperFunction,ViaPad*%
%ADD28C,0.508000*%
%TD*%
G04 APERTURE END LIST*
D10*
%TO.N,+BATT*%
%TO.C,BT1*%
X90750000Y-84550000D03*
D11*
%TO.N,GND*%
X88750000Y-84550000D03*
%TD*%
D12*
%TO.N,GND*%
%TO.C,U3*%
X95860000Y-94485000D03*
X97140000Y-94485000D03*
X95860000Y-93515000D03*
X97140000Y-93515000D03*
%TD*%
D13*
%TO.N,Net-(Q4-E)*%
%TO.C,Q5*%
X136900000Y-136250000D03*
D14*
%TO.N,Net-(Q2-C)*%
X134830000Y-134980000D03*
%TO.N,GND*%
X136900000Y-133710000D03*
%TD*%
D12*
%TO.N,GND*%
%TO.C,U2*%
X72390000Y-137350000D03*
X72390000Y-136250000D03*
X71840000Y-137900000D03*
X71840000Y-136800000D03*
X71840000Y-135700000D03*
X71290000Y-137350000D03*
X71290000Y-136250000D03*
X70740000Y-137900000D03*
X70740000Y-136800000D03*
X70740000Y-135700000D03*
X70190000Y-137350000D03*
X70190000Y-136250000D03*
%TD*%
D15*
%TO.N,GND*%
%TO.C,SW1*%
X124750000Y-76000000D03*
%TO.N,Net-(SW1-S1c)*%
X127250000Y-71000000D03*
%TO.N,unconnected-(SW1-S2l-Pad3)*%
X137250000Y-76000000D03*
%TO.N,unconnected-(SW1-S2c-Pad4)*%
X139750000Y-71000000D03*
%TO.N,unconnected-(SW1-S2r-Pad5)*%
X142250000Y-76000000D03*
%TO.N,unconnected-(SW1-S3l-Pad6)*%
X147250000Y-76000000D03*
%TO.N,unconnected-(SW1-S3c-Pad7)*%
X149750000Y-71000000D03*
%TO.N,unconnected-(SW1-S3r-Pad8)*%
X152250000Y-76000000D03*
%TD*%
D16*
%TO.N,+48V*%
%TO.C,C14*%
X125000000Y-144250000D03*
D17*
%TO.N,GND*%
X120000000Y-144250000D03*
%TD*%
%TO.N,GND*%
%TO.C,SW4*%
X58500000Y-127000000D03*
X52000000Y-127000000D03*
%TO.N,/IO9*%
X58500000Y-122500000D03*
X52000000Y-122500000D03*
%TD*%
D18*
%TO.N,+4V*%
%TO.C,U1*%
X58555000Y-116045000D03*
%TO.N,unconnected-(U1-RST-Pad2)*%
X61095000Y-116045000D03*
%TO.N,SIM_RX*%
X63635000Y-116045000D03*
%TO.N,SIM_TX*%
X66175000Y-116045000D03*
%TO.N,GND*%
X68715000Y-116045000D03*
%TO.N,/S-*%
X71255000Y-94455000D03*
%TO.N,/S+*%
X68715000Y-94455000D03*
%TO.N,/M-*%
X66175000Y-94455000D03*
%TO.N,/M+*%
X63635000Y-94455000D03*
%TO.N,unconnected-(U1-DTR-Pad10)*%
X61095000Y-94455000D03*
%TO.N,unconnected-(U1-RING-Pad11)*%
X58555000Y-94455000D03*
%TD*%
D13*
%TO.N,Net-(Q6-E)*%
%TO.C,Q6*%
X136900000Y-142250000D03*
D14*
%TO.N,Net-(Q3-C)*%
X134830000Y-140980000D03*
%TO.N,+48V*%
X136900000Y-139710000D03*
%TD*%
D19*
%TO.N,+BATT*%
%TO.C,SW3*%
X100799999Y-75000000D03*
D20*
%TO.N,+4V*%
X100799999Y-77000000D03*
%TD*%
D21*
%TO.N,/M+*%
%TO.C,J1*%
X56100951Y-84225951D03*
X58399049Y-86524049D03*
%TO.N,/M-*%
X61100951Y-84225951D03*
X63399049Y-86524049D03*
%TO.N,/S+*%
X66100951Y-84225951D03*
X68399049Y-86524049D03*
%TO.N,/S-*%
X71100951Y-84225951D03*
X73399049Y-86524049D03*
%TD*%
D13*
%TO.N,Net-(Q6-E)*%
%TO.C,Q7*%
X136900000Y-148000000D03*
D14*
%TO.N,Net-(Q3-C)*%
X134830000Y-146730000D03*
%TO.N,GND*%
X136900000Y-145460000D03*
%TD*%
D22*
%TO.N,Net-(Q6-E)*%
%TO.C,C15*%
X144500000Y-147750000D03*
%TO.N,Net-(C15-Pad2)*%
X144500000Y-132750000D03*
%TD*%
D21*
%TO.N,/NS-nsi*%
%TO.C,NS1*%
X79600951Y-106725951D03*
X81899049Y-109024049D03*
%TO.N,GND*%
X84600951Y-106725951D03*
X86899049Y-109024049D03*
%TO.N,/NS-nsa*%
X89600951Y-106725951D03*
X91899049Y-109024049D03*
%TO.N,GND*%
X94600951Y-106725951D03*
X96899049Y-109024049D03*
%TD*%
%TO.N,Net-(SW2-A)*%
%TO.C,SW2*%
X103850951Y-111350951D03*
X106149049Y-113649049D03*
%TO.N,GND*%
X108850951Y-111350951D03*
X111149049Y-113649049D03*
%TO.N,Net-(SW2-C)*%
X113850951Y-111350951D03*
X116149049Y-113649049D03*
%TO.N,unconnected-(SW2-NC-Pad4)_1*%
X118850951Y-111350951D03*
%TO.N,unconnected-(SW2-NC-Pad4)*%
X121149049Y-113649049D03*
%TD*%
D23*
%TO.N,/Bells/HV-C*%
%TO.C,U4*%
X115250000Y-125117677D03*
D24*
%TO.N,/Bells/HV-FB*%
X118950000Y-126817677D03*
%TO.N,GND*%
X115250000Y-128517677D03*
%TO.N,Net-(D1-A)*%
X118950000Y-130217677D03*
%TO.N,/Bells/HV-IN*%
X115250000Y-131917677D03*
%TD*%
D13*
%TO.N,Net-(Q4-E)*%
%TO.C,Q4*%
X136900000Y-130500000D03*
D14*
%TO.N,Net-(Q2-C)*%
X134830000Y-129230000D03*
%TO.N,+48V*%
X136900000Y-127960000D03*
%TD*%
D13*
%TO.N,GND*%
%TO.C,Q2*%
X131650000Y-136250000D03*
D14*
%TO.N,Net-(Q2-B)*%
X129580000Y-134980000D03*
%TO.N,Net-(Q2-C)*%
X131650000Y-133710000D03*
%TD*%
D13*
%TO.N,GND*%
%TO.C,Q3*%
X131650000Y-148000000D03*
D14*
%TO.N,Net-(Q3-B)*%
X129580000Y-146730000D03*
%TO.N,Net-(Q3-C)*%
X131650000Y-145460000D03*
%TD*%
D16*
%TO.N,/Bells/HV-IN*%
%TO.C,C12*%
X108000000Y-133617677D03*
D17*
%TO.N,GND*%
X108000000Y-128617677D03*
%TD*%
D22*
%TO.N,/Bells/HV-IN*%
%TO.C,L2*%
X107000000Y-143000000D03*
%TO.N,Net-(D1-A)*%
X114000000Y-143000000D03*
%TD*%
D25*
%TO.N,GND*%
%TO.C,J3*%
X52137500Y-138800000D03*
D26*
%TO.N,/plug.D+*%
X52137500Y-136260000D03*
%TO.N,/plug.D-*%
X52137500Y-133720000D03*
%TO.N,VBUS*%
X52137500Y-131180000D03*
%TD*%
D27*
%TO.N,Net-(Q4-E)*%
%TO.C,L1*%
X162671708Y-113186133D03*
X159424102Y-113310893D03*
%TO.N,Net-(C15-Pad2)*%
X157575898Y-118689107D03*
X154328292Y-118813867D03*
%TD*%
D28*
%TO.N,GND*%
X83750000Y-141500000D03*
X82500000Y-131000000D03*
X91250000Y-114500000D03*
X85750000Y-136500000D03*
X83750000Y-92500000D03*
X86750000Y-140500000D03*
X83250000Y-127000000D03*
X79250000Y-141750000D03*
X86000000Y-122750000D03*
X78000000Y-93250000D03*
X98000000Y-98250000D03*
X96500000Y-85500000D03*
X81000000Y-129500000D03*
X96500000Y-114500000D03*
X89500000Y-101000000D03*
%TO.N,ES2*%
X94750000Y-125000000D03*
X79500000Y-133750000D03*
%TO.N,ES1*%
X65000000Y-139750000D03*
X87500000Y-134500000D03*
X98250000Y-123750000D03*
%TO.N,nsi*%
X79500000Y-135000000D03*
X90250000Y-129000000D03*
%TO.N,nsa*%
X91250000Y-121000000D03*
X65000000Y-128250000D03*
%TO.N,+3.3V*%
X78250000Y-130250000D03*
X82750000Y-129500000D03*
%TO.N,+4V*%
X85750000Y-123750000D03*
X97250000Y-140000000D03*
X86500000Y-124500000D03*
X98000000Y-139250000D03*
X85750000Y-121750000D03*
%TO.N,VBUS*%
X95000000Y-99500000D03*
X93750000Y-99500000D03*
X80125000Y-84375000D03*
%TO.N,HV_EN*%
X97500000Y-132500000D03*
X65000000Y-138250000D03*
%TO.N,BELL_A*%
X82250000Y-138400000D03*
X89250000Y-142250000D03*
%TO.N,BELL_B*%
X82250000Y-139500000D03*
X89250000Y-143250000D03*
%TO.N,/IO9*%
X79500000Y-132500000D03*
%TO.N,Net-(D2-K)*%
X81750000Y-84750000D03*
X98750000Y-84000000D03*
%TO.N,Net-(D3-K)*%
X97500000Y-84000000D03*
X84000000Y-84750000D03*
%TD*%
%TA.AperFunction,Conductor*%
%TO.N,GND*%
G36*
X110754475Y-112900922D02*
G01*
X110690892Y-112917959D01*
X110576877Y-112983785D01*
X110483785Y-113076877D01*
X110417959Y-113190892D01*
X110400922Y-113254475D01*
X109245525Y-112099078D01*
X109309108Y-112082041D01*
X109423123Y-112016215D01*
X109516215Y-111923123D01*
X109582041Y-111809108D01*
X109599078Y-111745525D01*
X110754475Y-112900922D01*
G37*
%TD.AperFunction*%
%TA.AperFunction,Conductor*%
G36*
X86504475Y-108275922D02*
G01*
X86440892Y-108292959D01*
X86326877Y-108358785D01*
X86233785Y-108451877D01*
X86167959Y-108565892D01*
X86150922Y-108629475D01*
X84995525Y-107474078D01*
X85059108Y-107457041D01*
X85173123Y-107391215D01*
X85266215Y-107298123D01*
X85332041Y-107184108D01*
X85349078Y-107120525D01*
X86504475Y-108275922D01*
G37*
%TD.AperFunction*%
%TA.AperFunction,Conductor*%
G36*
X96504475Y-108275922D02*
G01*
X96440892Y-108292959D01*
X96326877Y-108358785D01*
X96233785Y-108451877D01*
X96167959Y-108565892D01*
X96150922Y-108629475D01*
X94995525Y-107474078D01*
X95059108Y-107457041D01*
X95173123Y-107391215D01*
X95266215Y-107298123D01*
X95332041Y-107184108D01*
X95349078Y-107120525D01*
X96504475Y-108275922D01*
G37*
%TD.AperFunction*%
%TA.AperFunction,Conductor*%
G36*
X164561539Y-68401185D02*
G01*
X164607294Y-68453989D01*
X164618500Y-68505500D01*
X164618500Y-87949775D01*
X164618500Y-88050225D01*
X164644499Y-88147254D01*
X164694724Y-88234247D01*
X164765753Y-88305276D01*
X164852746Y-88355501D01*
X164949775Y-88381500D01*
X181994500Y-88381500D01*
X182061539Y-88401185D01*
X182107294Y-88453989D01*
X182118500Y-88505500D01*
X182118500Y-95801996D01*
X182098815Y-95869035D01*
X182085511Y-95886216D01*
X151226650Y-129233693D01*
X151223324Y-129237150D01*
X151194729Y-129265747D01*
X151190185Y-129271667D01*
X151185878Y-129277755D01*
X151167040Y-129313514D01*
X151164723Y-129317714D01*
X151144498Y-129352746D01*
X151141650Y-129359621D01*
X151139061Y-129366628D01*
X151130114Y-129406068D01*
X151128963Y-129410724D01*
X151118500Y-129449776D01*
X151117527Y-129457167D01*
X151116840Y-129464590D01*
X151118407Y-129504994D01*
X151118500Y-129509797D01*
X151118500Y-149494500D01*
X151098815Y-149561539D01*
X151046011Y-149607294D01*
X150994500Y-149618500D01*
X144568540Y-149618500D01*
X144501501Y-149598815D01*
X144497433Y-149594120D01*
X144456952Y-149615851D01*
X144431460Y-149618500D01*
X96919862Y-149618500D01*
X96852823Y-149598815D01*
X96832181Y-149582181D01*
X93663856Y-146413856D01*
X128429500Y-146413856D01*
X128429500Y-147046144D01*
X128434825Y-147090494D01*
X128439640Y-147130588D01*
X128492636Y-147264976D01*
X128579921Y-147380078D01*
X128695023Y-147467363D01*
X128695024Y-147467363D01*
X128695025Y-147467364D01*
X128829410Y-147520359D01*
X128913856Y-147530500D01*
X128913862Y-147530500D01*
X130126000Y-147530500D01*
X130193039Y-147550185D01*
X130238794Y-147602989D01*
X130250000Y-147654500D01*
X130250000Y-147750000D01*
X130969670Y-147750000D01*
X130949925Y-147769745D01*
X130900556Y-147855255D01*
X130875000Y-147950630D01*
X130875000Y-148049370D01*
X130900556Y-148144745D01*
X130949925Y-148230255D01*
X130969670Y-148250000D01*
X130250000Y-148250000D01*
X130250000Y-148597844D01*
X130256401Y-148657372D01*
X130256403Y-148657379D01*
X130306645Y-148792086D01*
X130306649Y-148792093D01*
X130392809Y-148907187D01*
X130392812Y-148907190D01*
X130507906Y-148993350D01*
X130507913Y-148993354D01*
X130642620Y-149043596D01*
X130642627Y-149043598D01*
X130702155Y-149049999D01*
X130702172Y-149050000D01*
X131400000Y-149050000D01*
X131900000Y-149050000D01*
X132597828Y-149050000D01*
X132597844Y-149049999D01*
X132657372Y-149043598D01*
X132657379Y-149043596D01*
X132792086Y-148993354D01*
X132792093Y-148993350D01*
X132907187Y-148907190D01*
X132907190Y-148907187D01*
X132993350Y-148792093D01*
X132993354Y-148792086D01*
X133043596Y-148657379D01*
X133043598Y-148657372D01*
X133049999Y-148597844D01*
X133050000Y-148597827D01*
X133050000Y-148250000D01*
X131900000Y-148250000D01*
X131900000Y-149050000D01*
X131400000Y-149050000D01*
X131400000Y-148346410D01*
X131480255Y-148300075D01*
X131550075Y-148230255D01*
X131599444Y-148144745D01*
X131625000Y-148049370D01*
X131625000Y-147950630D01*
X131599444Y-147855255D01*
X131550075Y-147769745D01*
X131530330Y-147750000D01*
X131900000Y-147750000D01*
X133050000Y-147750000D01*
X133050000Y-147402172D01*
X133049999Y-147402155D01*
X133043598Y-147342627D01*
X133043596Y-147342620D01*
X132993354Y-147207913D01*
X132993350Y-147207906D01*
X132907190Y-147092812D01*
X132907187Y-147092809D01*
X132792093Y-147006649D01*
X132792086Y-147006645D01*
X132657379Y-146956403D01*
X132657372Y-146956401D01*
X132597844Y-146950000D01*
X131900000Y-146950000D01*
X131900000Y-147750000D01*
X131530330Y-147750000D01*
X131480255Y-147699925D01*
X131400000Y-147653589D01*
X131400000Y-146950000D01*
X130854500Y-146950000D01*
X130787461Y-146930315D01*
X130741706Y-146877511D01*
X130730500Y-146826000D01*
X130730500Y-146540235D01*
X130750185Y-146473196D01*
X130802989Y-146427441D01*
X130872147Y-146417497D01*
X130891381Y-146421847D01*
X130898712Y-146424132D01*
X130968789Y-146430500D01*
X132331210Y-146430499D01*
X132331217Y-146430499D01*
X132401281Y-146424133D01*
X132401282Y-146424132D01*
X132401288Y-146424132D01*
X132482609Y-146398791D01*
X133509500Y-146398791D01*
X133509500Y-147061218D01*
X133515866Y-147131281D01*
X133515868Y-147131288D01*
X133566113Y-147292531D01*
X133566116Y-147292540D01*
X133653489Y-147437073D01*
X133653492Y-147437077D01*
X133772922Y-147556507D01*
X133772926Y-147556510D01*
X133917459Y-147643883D01*
X133917462Y-147643884D01*
X134078712Y-147694132D01*
X134148789Y-147700500D01*
X135455500Y-147700499D01*
X135522539Y-147720184D01*
X135568294Y-147772987D01*
X135579500Y-147824499D01*
X135579500Y-148583095D01*
X135595095Y-148681563D01*
X135615507Y-148721622D01*
X135655567Y-148800245D01*
X135655569Y-148800247D01*
X135655571Y-148800250D01*
X135749749Y-148894428D01*
X135749753Y-148894431D01*
X135749755Y-148894433D01*
X135868438Y-148954905D01*
X135868439Y-148954905D01*
X135868441Y-148954906D01*
X135966897Y-148970499D01*
X135966903Y-148970500D01*
X137833096Y-148970499D01*
X137931562Y-148954905D01*
X138050245Y-148894433D01*
X138144433Y-148800245D01*
X138204905Y-148681562D01*
X138220500Y-148583097D01*
X138220499Y-147750000D01*
X142874489Y-147750000D01*
X142894502Y-148004289D01*
X142954044Y-148252301D01*
X142954049Y-148252318D01*
X143051656Y-148487963D01*
X143051658Y-148487966D01*
X143184930Y-148705445D01*
X143184936Y-148705454D01*
X143350587Y-148899407D01*
X143350592Y-148899412D01*
X143526908Y-149050000D01*
X143544549Y-149065066D01*
X143544554Y-149065069D01*
X143762033Y-149198341D01*
X143762036Y-149198343D01*
X143997681Y-149295950D01*
X143997683Y-149295950D01*
X143997689Y-149295953D01*
X144245714Y-149355498D01*
X144441190Y-149370882D01*
X144503733Y-149394720D01*
X144533605Y-149375523D01*
X144558807Y-149370882D01*
X144754286Y-149355498D01*
X145002311Y-149295953D01*
X145055700Y-149273838D01*
X145237963Y-149198343D01*
X145237964Y-149198342D01*
X145237967Y-149198341D01*
X145455451Y-149065066D01*
X145649410Y-148899410D01*
X145815066Y-148705451D01*
X145948341Y-148487967D01*
X146045953Y-148252311D01*
X146105498Y-148004286D01*
X146125511Y-147750000D01*
X146105498Y-147495714D01*
X146045953Y-147247689D01*
X146045950Y-147247681D01*
X145948343Y-147012036D01*
X145948341Y-147012033D01*
X145914251Y-146956403D01*
X145815066Y-146794549D01*
X145649410Y-146600590D01*
X145649407Y-146600587D01*
X145455454Y-146434936D01*
X145455445Y-146434930D01*
X145237966Y-146301658D01*
X145237963Y-146301656D01*
X145002318Y-146204049D01*
X145002301Y-146204044D01*
X144754289Y-146144502D01*
X144500000Y-146124489D01*
X144245710Y-146144502D01*
X143997698Y-146204044D01*
X143997681Y-146204049D01*
X143762036Y-146301656D01*
X143762033Y-146301658D01*
X143544554Y-146434930D01*
X143544545Y-146434936D01*
X143350592Y-146600587D01*
X143350587Y-146600592D01*
X143184936Y-146794545D01*
X143184930Y-146794554D01*
X143051658Y-147012033D01*
X143051656Y-147012036D01*
X142954049Y-147247681D01*
X142954044Y-147247698D01*
X142894502Y-147495710D01*
X142874489Y-147750000D01*
X138220499Y-147750000D01*
X138220499Y-147416904D01*
X138204905Y-147318438D01*
X138144433Y-147199755D01*
X138144429Y-147199751D01*
X138144428Y-147199749D01*
X138050250Y-147105571D01*
X138050246Y-147105568D01*
X138050245Y-147105567D01*
X137931562Y-147045095D01*
X137931561Y-147045094D01*
X137931558Y-147045093D01*
X137833102Y-147029500D01*
X137833097Y-147029500D01*
X136274499Y-147029500D01*
X136207460Y-147009815D01*
X136161705Y-146957011D01*
X136150499Y-146905500D01*
X136150499Y-146634000D01*
X136170184Y-146566961D01*
X136222988Y-146521206D01*
X136274499Y-146510000D01*
X136650000Y-146510000D01*
X137150000Y-146510000D01*
X137568527Y-146510000D01*
X137568530Y-146509999D01*
X137698539Y-146495351D01*
X137863386Y-146437669D01*
X138011262Y-146344753D01*
X138134753Y-146221262D01*
X138227669Y-146073386D01*
X138285351Y-145908539D01*
X138299999Y-145778530D01*
X138300000Y-145778526D01*
X138300000Y-145710000D01*
X137150000Y-145710000D01*
X137150000Y-146510000D01*
X136650000Y-146510000D01*
X136650000Y-145806410D01*
X136730255Y-145760075D01*
X136800075Y-145690255D01*
X136849444Y-145604745D01*
X136875000Y-145509370D01*
X136875000Y-145410630D01*
X136849444Y-145315255D01*
X136800075Y-145229745D01*
X136780330Y-145210000D01*
X137150000Y-145210000D01*
X138300000Y-145210000D01*
X138300000Y-145141473D01*
X138299999Y-145141469D01*
X138285351Y-145011460D01*
X138227669Y-144846613D01*
X138134753Y-144698737D01*
X138011262Y-144575246D01*
X137863386Y-144482330D01*
X137698539Y-144424648D01*
X137568530Y-144410000D01*
X137150000Y-144410000D01*
X137150000Y-145210000D01*
X136780330Y-145210000D01*
X136730255Y-145159925D01*
X136650000Y-145113589D01*
X136650000Y-144410000D01*
X136231469Y-144410000D01*
X136101460Y-144424648D01*
X135936613Y-144482330D01*
X135788737Y-144575246D01*
X135665246Y-144698737D01*
X135572330Y-144846613D01*
X135514648Y-145011460D01*
X135500000Y-145141469D01*
X135500000Y-145210000D01*
X136219670Y-145210000D01*
X136199925Y-145229745D01*
X136150556Y-145315255D01*
X136125000Y-145410630D01*
X136125000Y-145509370D01*
X136150556Y-145604745D01*
X136199925Y-145690255D01*
X136219670Y-145710000D01*
X135499999Y-145710000D01*
X135486817Y-145723182D01*
X135425494Y-145756666D01*
X135399137Y-145759500D01*
X134148781Y-145759500D01*
X134078718Y-145765866D01*
X134078711Y-145765868D01*
X133917468Y-145816113D01*
X133917459Y-145816116D01*
X133772926Y-145903489D01*
X133772922Y-145903492D01*
X133653492Y-146022922D01*
X133653489Y-146022926D01*
X133566116Y-146167459D01*
X133566113Y-146167468D01*
X133524298Y-146301658D01*
X133515868Y-146328712D01*
X133514411Y-146344753D01*
X133509500Y-146398791D01*
X132482609Y-146398791D01*
X132562538Y-146373884D01*
X132575223Y-146366216D01*
X132707073Y-146286510D01*
X132707072Y-146286510D01*
X132707078Y-146286507D01*
X132826507Y-146167078D01*
X132879195Y-146079921D01*
X132913883Y-146022540D01*
X132913886Y-146022531D01*
X132923202Y-145992636D01*
X132964132Y-145861288D01*
X132970500Y-145791211D01*
X132970499Y-145128790D01*
X132970499Y-145128789D01*
X132970499Y-145128781D01*
X132964133Y-145058718D01*
X132964132Y-145058714D01*
X132964132Y-145058712D01*
X132913884Y-144897462D01*
X132913883Y-144897459D01*
X132826510Y-144752926D01*
X132826507Y-144752922D01*
X132707077Y-144633492D01*
X132707073Y-144633489D01*
X132562540Y-144546116D01*
X132562531Y-144546113D01*
X132401295Y-144495870D01*
X132401293Y-144495869D01*
X132401288Y-144495868D01*
X132331211Y-144489500D01*
X132331208Y-144489500D01*
X130968781Y-144489500D01*
X130898718Y-144495866D01*
X130898711Y-144495868D01*
X130737468Y-144546113D01*
X130737459Y-144546116D01*
X130592926Y-144633489D01*
X130592922Y-144633492D01*
X130473492Y-144752922D01*
X130473489Y-144752926D01*
X130386116Y-144897459D01*
X130386113Y-144897468D01*
X130350592Y-145011460D01*
X130335868Y-145058712D01*
X130330310Y-145119882D01*
X130329500Y-145128791D01*
X130329500Y-145791211D01*
X130329780Y-145794283D01*
X130316240Y-145862828D01*
X130267792Y-145913172D01*
X130206288Y-145929500D01*
X128913856Y-145929500D01*
X128875841Y-145934065D01*
X128829411Y-145939640D01*
X128695023Y-145992636D01*
X128579921Y-146079921D01*
X128492636Y-146195023D01*
X128439640Y-146329411D01*
X128437798Y-146344753D01*
X128429500Y-146413856D01*
X93663856Y-146413856D01*
X91250000Y-144000000D01*
X89348794Y-144000000D01*
X89281755Y-143980315D01*
X89249510Y-143943102D01*
X89232415Y-143969708D01*
X89168861Y-143998737D01*
X89151206Y-144000000D01*
X50505500Y-144000000D01*
X50438461Y-143980315D01*
X50392706Y-143927511D01*
X50381500Y-143876000D01*
X50381500Y-142250000D01*
X88740312Y-142250000D01*
X88760957Y-142393595D01*
X88760958Y-142393599D01*
X88821222Y-142525556D01*
X88821223Y-142525558D01*
X88916225Y-142635196D01*
X88931747Y-142645171D01*
X88932546Y-142645685D01*
X88978301Y-142698489D01*
X88988244Y-142767648D01*
X88959218Y-142831203D01*
X88932546Y-142854315D01*
X88916226Y-142864803D01*
X88916225Y-142864803D01*
X88916225Y-142864804D01*
X88910306Y-142871635D01*
X88821223Y-142974442D01*
X88821222Y-142974443D01*
X88760958Y-143106400D01*
X88760957Y-143106404D01*
X88740312Y-143250000D01*
X88760957Y-143393595D01*
X88760958Y-143393599D01*
X88821222Y-143525556D01*
X88821223Y-143525558D01*
X88916225Y-143635196D01*
X88994659Y-143685602D01*
X89038269Y-143713630D01*
X89185973Y-143756999D01*
X89184915Y-143760599D01*
X89232403Y-143782282D01*
X89249002Y-143808107D01*
X89255081Y-143794797D01*
X89313859Y-143757023D01*
X89314191Y-143756950D01*
X89322535Y-143754500D01*
X89322536Y-143754500D01*
X89461729Y-143713630D01*
X89461730Y-143713630D01*
X89461732Y-143713629D01*
X89583775Y-143635196D01*
X89678777Y-143525558D01*
X89739042Y-143393596D01*
X89759688Y-143250000D01*
X89739042Y-143106404D01*
X89739041Y-143106400D01*
X89690446Y-142999994D01*
X105544529Y-142999994D01*
X105544529Y-143000005D01*
X105564379Y-143239559D01*
X105623389Y-143472589D01*
X105719951Y-143692729D01*
X105779631Y-143784075D01*
X105851429Y-143893969D01*
X106014236Y-144070825D01*
X106014239Y-144070827D01*
X106014242Y-144070830D01*
X106203924Y-144218466D01*
X106203930Y-144218470D01*
X106203933Y-144218472D01*
X106415344Y-144332882D01*
X106415347Y-144332883D01*
X106642699Y-144410933D01*
X106642701Y-144410933D01*
X106642703Y-144410934D01*
X106879808Y-144450500D01*
X106879809Y-144450500D01*
X107120191Y-144450500D01*
X107120192Y-144450500D01*
X107357297Y-144410934D01*
X107584656Y-144332882D01*
X107796067Y-144218472D01*
X107985764Y-144070825D01*
X108148571Y-143893969D01*
X108280049Y-143692728D01*
X108376610Y-143472591D01*
X108435620Y-143239563D01*
X108451307Y-143050250D01*
X108455471Y-143000005D01*
X108455471Y-143000000D01*
X112374489Y-143000000D01*
X112394502Y-143254289D01*
X112454044Y-143502301D01*
X112454049Y-143502318D01*
X112551656Y-143737963D01*
X112551658Y-143737966D01*
X112684930Y-143955445D01*
X112684936Y-143955454D01*
X112850587Y-144149407D01*
X112850592Y-144149412D01*
X112931451Y-144218472D01*
X113044549Y-144315066D01*
X113200989Y-144410933D01*
X113262033Y-144448341D01*
X113262036Y-144448343D01*
X113497681Y-144545950D01*
X113497683Y-144545950D01*
X113497689Y-144545953D01*
X113745714Y-144605498D01*
X114000000Y-144625511D01*
X114254286Y-144605498D01*
X114502311Y-144545953D01*
X114638598Y-144489501D01*
X114737963Y-144448343D01*
X114737964Y-144448342D01*
X114737967Y-144448341D01*
X114955451Y-144315066D01*
X115031641Y-144249994D01*
X118494859Y-144249994D01*
X118494859Y-144250005D01*
X118515385Y-144497729D01*
X118515387Y-144497738D01*
X118576412Y-144738717D01*
X118676266Y-144966364D01*
X118776564Y-145119882D01*
X119517037Y-144379409D01*
X119534075Y-144442993D01*
X119599901Y-144557007D01*
X119692993Y-144650099D01*
X119807007Y-144715925D01*
X119870590Y-144732962D01*
X119129942Y-145473609D01*
X119176768Y-145510055D01*
X119176770Y-145510056D01*
X119395385Y-145628364D01*
X119395396Y-145628369D01*
X119630506Y-145709083D01*
X119875707Y-145750000D01*
X120124293Y-145750000D01*
X120369493Y-145709083D01*
X120604603Y-145628369D01*
X120604614Y-145628364D01*
X120823228Y-145510057D01*
X120823231Y-145510055D01*
X120870056Y-145473609D01*
X120129409Y-144732962D01*
X120192993Y-144715925D01*
X120307007Y-144650099D01*
X120400099Y-144557007D01*
X120465925Y-144442993D01*
X120482962Y-144379410D01*
X121223434Y-145119882D01*
X121323731Y-144966369D01*
X121423587Y-144738717D01*
X121484612Y-144497738D01*
X121484614Y-144497729D01*
X121505141Y-144250005D01*
X121505141Y-144249994D01*
X121484614Y-144002270D01*
X121484612Y-144002261D01*
X121423587Y-143761282D01*
X121323731Y-143533630D01*
X121223434Y-143380116D01*
X120482962Y-144120589D01*
X120465925Y-144057007D01*
X120400099Y-143942993D01*
X120307007Y-143849901D01*
X120192993Y-143784075D01*
X120129410Y-143767037D01*
X120679550Y-143216897D01*
X123579500Y-143216897D01*
X123579500Y-145283095D01*
X123595095Y-145381563D01*
X123609906Y-145410630D01*
X123655567Y-145500245D01*
X123655569Y-145500247D01*
X123655571Y-145500250D01*
X123749749Y-145594428D01*
X123749753Y-145594431D01*
X123749755Y-145594433D01*
X123868438Y-145654905D01*
X123868439Y-145654905D01*
X123868441Y-145654906D01*
X123966897Y-145670499D01*
X123966903Y-145670500D01*
X126033096Y-145670499D01*
X126131562Y-145654905D01*
X126250245Y-145594433D01*
X126344433Y-145500245D01*
X126404905Y-145381562D01*
X126420500Y-145283097D01*
X126420499Y-143216904D01*
X126404905Y-143118438D01*
X126344433Y-142999755D01*
X126344429Y-142999751D01*
X126344428Y-142999749D01*
X126250250Y-142905571D01*
X126250246Y-142905568D01*
X126250245Y-142905567D01*
X126131562Y-142845095D01*
X126131561Y-142845094D01*
X126131558Y-142845093D01*
X126033102Y-142829500D01*
X123966904Y-142829500D01*
X123868436Y-142845095D01*
X123816350Y-142871635D01*
X123749755Y-142905567D01*
X123749754Y-142905568D01*
X123749749Y-142905571D01*
X123655571Y-142999749D01*
X123655568Y-142999753D01*
X123595093Y-143118441D01*
X123579500Y-143216897D01*
X120679550Y-143216897D01*
X120870057Y-143026390D01*
X120870056Y-143026389D01*
X120823229Y-142989943D01*
X120604614Y-142871635D01*
X120604603Y-142871630D01*
X120369493Y-142790916D01*
X120124293Y-142750000D01*
X119875707Y-142750000D01*
X119630506Y-142790916D01*
X119395396Y-142871630D01*
X119395390Y-142871632D01*
X119176761Y-142989949D01*
X119129942Y-143026388D01*
X119129942Y-143026390D01*
X119870590Y-143767037D01*
X119807007Y-143784075D01*
X119692993Y-143849901D01*
X119599901Y-143942993D01*
X119534075Y-144057007D01*
X119517037Y-144120589D01*
X118776564Y-143380116D01*
X118676267Y-143533632D01*
X118576412Y-143761282D01*
X118515387Y-144002261D01*
X118515385Y-144002270D01*
X118494859Y-144249994D01*
X115031641Y-144249994D01*
X115149410Y-144149410D01*
X115315066Y-143955451D01*
X115448341Y-143737967D01*
X115545953Y-143502311D01*
X115605498Y-143254286D01*
X115625511Y-143000000D01*
X115605498Y-142745714D01*
X115545953Y-142497689D01*
X115545950Y-142497681D01*
X115448343Y-142262036D01*
X115448341Y-142262033D01*
X115352971Y-142106404D01*
X115315066Y-142044549D01*
X115296650Y-142022987D01*
X115149412Y-141850592D01*
X115149407Y-141850587D01*
X114955454Y-141684936D01*
X114955445Y-141684930D01*
X114737966Y-141551658D01*
X114737963Y-141551656D01*
X114502318Y-141454049D01*
X114502301Y-141454044D01*
X114254289Y-141394502D01*
X114000000Y-141374489D01*
X113745710Y-141394502D01*
X113497698Y-141454044D01*
X113497681Y-141454049D01*
X113262036Y-141551656D01*
X113262033Y-141551658D01*
X113044554Y-141684930D01*
X113044545Y-141684936D01*
X112850592Y-141850587D01*
X112850587Y-141850592D01*
X112684936Y-142044545D01*
X112684930Y-142044554D01*
X112551658Y-142262033D01*
X112551656Y-142262036D01*
X112454049Y-142497681D01*
X112454044Y-142497698D01*
X112394502Y-142745710D01*
X112374489Y-143000000D01*
X108455471Y-143000000D01*
X108455471Y-142999994D01*
X108439024Y-142801513D01*
X108435620Y-142760437D01*
X108376610Y-142527409D01*
X108280049Y-142307272D01*
X108148571Y-142106031D01*
X107985764Y-141929175D01*
X107985759Y-141929171D01*
X107985757Y-141929169D01*
X107796075Y-141781533D01*
X107796069Y-141781529D01*
X107584657Y-141667118D01*
X107584652Y-141667116D01*
X107357300Y-141589066D01*
X107179468Y-141559391D01*
X107120192Y-141549500D01*
X106879808Y-141549500D01*
X106832387Y-141557413D01*
X106642699Y-141589066D01*
X106415347Y-141667116D01*
X106415342Y-141667118D01*
X106203930Y-141781529D01*
X106203924Y-141781533D01*
X106014242Y-141929169D01*
X106014239Y-141929172D01*
X105851430Y-142106029D01*
X105851427Y-142106033D01*
X105719951Y-142307270D01*
X105623389Y-142527410D01*
X105564379Y-142760440D01*
X105544529Y-142999994D01*
X89690446Y-142999994D01*
X89690337Y-142999755D01*
X89678777Y-142974442D01*
X89583775Y-142864804D01*
X89583773Y-142864802D01*
X89572548Y-142857588D01*
X89567454Y-142854315D01*
X89521699Y-142801513D01*
X89511755Y-142732354D01*
X89540779Y-142668798D01*
X89567453Y-142645685D01*
X89583775Y-142635196D01*
X89678777Y-142525558D01*
X89739042Y-142393596D01*
X89759688Y-142250000D01*
X89739042Y-142106404D01*
X89739041Y-142106400D01*
X89678777Y-141974443D01*
X89678777Y-141974442D01*
X89583775Y-141864804D01*
X89493069Y-141806510D01*
X89461730Y-141786369D01*
X89322538Y-141745500D01*
X89322536Y-141745500D01*
X89177464Y-141745500D01*
X89177461Y-141745500D01*
X89038270Y-141786369D01*
X89038269Y-141786369D01*
X88916226Y-141864803D01*
X88821223Y-141974442D01*
X88821222Y-141974443D01*
X88760958Y-142106400D01*
X88760957Y-142106404D01*
X88740312Y-142250000D01*
X50381500Y-142250000D01*
X50381500Y-140648791D01*
X133509500Y-140648791D01*
X133509500Y-141311218D01*
X133515866Y-141381281D01*
X133515868Y-141381288D01*
X133566113Y-141542531D01*
X133566116Y-141542540D01*
X133653489Y-141687073D01*
X133653492Y-141687077D01*
X133772922Y-141806507D01*
X133772926Y-141806510D01*
X133917459Y-141893883D01*
X133917462Y-141893884D01*
X134078712Y-141944132D01*
X134148789Y-141950500D01*
X135455500Y-141950499D01*
X135522539Y-141970184D01*
X135568294Y-142022987D01*
X135579500Y-142074499D01*
X135579500Y-142833095D01*
X135595095Y-142931563D01*
X135615507Y-142971622D01*
X135655567Y-143050245D01*
X135655569Y-143050247D01*
X135655571Y-143050250D01*
X135749749Y-143144428D01*
X135749753Y-143144431D01*
X135749755Y-143144433D01*
X135868438Y-143204905D01*
X135868439Y-143204905D01*
X135868441Y-143204906D01*
X135966897Y-143220499D01*
X135966903Y-143220500D01*
X137833096Y-143220499D01*
X137931562Y-143204905D01*
X138050245Y-143144433D01*
X138144433Y-143050245D01*
X138204905Y-142931562D01*
X138209022Y-142905571D01*
X138220499Y-142833102D01*
X138220500Y-142833097D01*
X138220499Y-141666904D01*
X138204905Y-141568438D01*
X138144433Y-141449755D01*
X138144429Y-141449751D01*
X138144428Y-141449749D01*
X138050250Y-141355571D01*
X138050246Y-141355568D01*
X138050245Y-141355567D01*
X137931562Y-141295095D01*
X137931561Y-141295094D01*
X137931558Y-141295093D01*
X137833102Y-141279500D01*
X137833097Y-141279500D01*
X136274499Y-141279500D01*
X136207460Y-141259815D01*
X136161705Y-141207011D01*
X136150499Y-141155500D01*
X136150499Y-140804499D01*
X136170184Y-140737460D01*
X136222988Y-140691705D01*
X136274494Y-140680499D01*
X137581210Y-140680499D01*
X137581217Y-140680499D01*
X137651281Y-140674133D01*
X137651282Y-140674132D01*
X137651288Y-140674132D01*
X137812538Y-140623884D01*
X137957078Y-140536507D01*
X138076507Y-140417078D01*
X138095780Y-140385196D01*
X138163883Y-140272540D01*
X138163886Y-140272531D01*
X138169505Y-140254499D01*
X138214132Y-140111288D01*
X138220500Y-140041211D01*
X138220499Y-139378790D01*
X138220499Y-139378789D01*
X138220499Y-139378781D01*
X138214133Y-139308718D01*
X138214132Y-139308714D01*
X138214132Y-139308712D01*
X138163884Y-139147462D01*
X138163883Y-139147459D01*
X138076510Y-139002926D01*
X138076507Y-139002922D01*
X137957077Y-138883492D01*
X137957073Y-138883489D01*
X137812540Y-138796116D01*
X137812531Y-138796113D01*
X137651295Y-138745870D01*
X137651293Y-138745869D01*
X137651288Y-138745868D01*
X137581211Y-138739500D01*
X137581208Y-138739500D01*
X136218781Y-138739500D01*
X136148718Y-138745866D01*
X136148711Y-138745868D01*
X135987468Y-138796113D01*
X135987459Y-138796116D01*
X135842926Y-138883489D01*
X135842922Y-138883492D01*
X135723492Y-139002922D01*
X135723489Y-139002926D01*
X135636116Y-139147459D01*
X135636113Y-139147468D01*
X135585870Y-139308704D01*
X135585868Y-139308712D01*
X135585868Y-139308718D01*
X135579500Y-139378791D01*
X135579500Y-139885500D01*
X135559815Y-139952539D01*
X135507011Y-139998294D01*
X135455500Y-140009500D01*
X134148781Y-140009500D01*
X134078718Y-140015866D01*
X134078711Y-140015868D01*
X133917468Y-140066113D01*
X133917459Y-140066116D01*
X133772926Y-140153489D01*
X133772922Y-140153492D01*
X133653492Y-140272922D01*
X133653489Y-140272926D01*
X133566116Y-140417459D01*
X133566113Y-140417468D01*
X133515870Y-140578704D01*
X133515868Y-140578714D01*
X133509500Y-140648791D01*
X50381500Y-140648791D01*
X50381500Y-137902155D01*
X50787500Y-137902155D01*
X50787500Y-138550000D01*
X51704488Y-138550000D01*
X51671575Y-138607007D01*
X51637500Y-138734174D01*
X51637500Y-138865826D01*
X51671575Y-138992993D01*
X51704488Y-139050000D01*
X50787500Y-139050000D01*
X50787500Y-139697844D01*
X50793901Y-139757372D01*
X50793903Y-139757379D01*
X50844145Y-139892086D01*
X50844149Y-139892093D01*
X50930309Y-140007187D01*
X50930312Y-140007190D01*
X51045406Y-140093350D01*
X51045413Y-140093354D01*
X51180120Y-140143596D01*
X51180127Y-140143598D01*
X51239655Y-140149999D01*
X51239672Y-140150000D01*
X51887500Y-140150000D01*
X51887500Y-139233012D01*
X51944507Y-139265925D01*
X52071674Y-139300000D01*
X52203326Y-139300000D01*
X52330493Y-139265925D01*
X52387500Y-139233012D01*
X52387500Y-140150000D01*
X53035328Y-140150000D01*
X53035344Y-140149999D01*
X53094872Y-140143598D01*
X53094879Y-140143596D01*
X53229586Y-140093354D01*
X53229593Y-140093350D01*
X53344687Y-140007190D01*
X53344690Y-140007187D01*
X53430850Y-139892093D01*
X53430854Y-139892086D01*
X53481096Y-139757379D01*
X53481098Y-139757372D01*
X53481891Y-139750000D01*
X64490312Y-139750000D01*
X64510957Y-139893595D01*
X64510958Y-139893599D01*
X64563890Y-140009501D01*
X64571223Y-140025558D01*
X64666225Y-140135196D01*
X64744659Y-140185602D01*
X64788269Y-140213630D01*
X64927461Y-140254499D01*
X64927463Y-140254500D01*
X64927464Y-140254500D01*
X65072537Y-140254500D01*
X65072537Y-140254499D01*
X65211729Y-140213630D01*
X65211730Y-140213630D01*
X65211732Y-140213629D01*
X65333775Y-140135196D01*
X65428777Y-140025558D01*
X65489042Y-139893596D01*
X65509688Y-139750000D01*
X65489042Y-139606404D01*
X65489041Y-139606400D01*
X65428777Y-139474443D01*
X65428777Y-139474442D01*
X65333775Y-139364804D01*
X65298950Y-139342423D01*
X65211730Y-139286369D01*
X65072538Y-139245500D01*
X65072536Y-139245500D01*
X64927464Y-139245500D01*
X64927461Y-139245500D01*
X64788270Y-139286369D01*
X64788269Y-139286369D01*
X64666226Y-139364803D01*
X64666225Y-139364803D01*
X64666225Y-139364804D01*
X64641277Y-139393596D01*
X64571223Y-139474442D01*
X64571222Y-139474443D01*
X64510958Y-139606400D01*
X64510957Y-139606404D01*
X64490312Y-139750000D01*
X53481891Y-139750000D01*
X53487499Y-139697844D01*
X53487500Y-139697827D01*
X53487500Y-139050000D01*
X52570512Y-139050000D01*
X52603425Y-138992993D01*
X52637500Y-138865826D01*
X52637500Y-138734174D01*
X52603425Y-138607007D01*
X52570512Y-138550000D01*
X53487500Y-138550000D01*
X53487500Y-138250000D01*
X64490312Y-138250000D01*
X64510957Y-138393595D01*
X64510958Y-138393599D01*
X64556351Y-138492993D01*
X64571223Y-138525558D01*
X64666225Y-138635196D01*
X64729029Y-138675558D01*
X64788269Y-138713630D01*
X64927461Y-138754499D01*
X64927463Y-138754500D01*
X64927464Y-138754500D01*
X65072537Y-138754500D01*
X65072537Y-138754499D01*
X65211729Y-138713630D01*
X65211730Y-138713630D01*
X65225062Y-138705062D01*
X65333775Y-138635196D01*
X65349837Y-138616660D01*
X70376892Y-138616660D01*
X70376892Y-138616661D01*
X70390692Y-138625333D01*
X70390691Y-138625333D01*
X70560861Y-138684878D01*
X70739997Y-138705062D01*
X70740003Y-138705062D01*
X70919138Y-138684878D01*
X70919141Y-138684877D01*
X71089305Y-138625334D01*
X71089306Y-138625334D01*
X71103106Y-138616661D01*
X71103106Y-138616660D01*
X71476892Y-138616660D01*
X71476892Y-138616661D01*
X71490692Y-138625333D01*
X71490691Y-138625333D01*
X71660861Y-138684878D01*
X71839997Y-138705062D01*
X71840003Y-138705062D01*
X72019138Y-138684878D01*
X72019141Y-138684877D01*
X72189305Y-138625334D01*
X72189306Y-138625334D01*
X72203106Y-138616661D01*
X72203106Y-138616660D01*
X71986447Y-138400000D01*
X81740312Y-138400000D01*
X81760957Y-138543595D01*
X81760958Y-138543599D01*
X81798286Y-138625334D01*
X81821223Y-138675558D01*
X81916225Y-138785196D01*
X81933217Y-138796116D01*
X82010346Y-138845685D01*
X82056101Y-138898489D01*
X82066044Y-138967648D01*
X82037018Y-139031204D01*
X82010346Y-139054315D01*
X81916226Y-139114803D01*
X81916225Y-139114803D01*
X81916225Y-139114804D01*
X81842316Y-139200099D01*
X81821223Y-139224442D01*
X81821222Y-139224443D01*
X81760958Y-139356400D01*
X81760957Y-139356404D01*
X81740312Y-139500000D01*
X81760957Y-139643595D01*
X81760958Y-139643599D01*
X81812921Y-139757379D01*
X81821223Y-139775558D01*
X81916225Y-139885196D01*
X81994659Y-139935602D01*
X82038269Y-139963630D01*
X82177461Y-140004499D01*
X82177463Y-140004500D01*
X82177464Y-140004500D01*
X82322537Y-140004500D01*
X82322537Y-140004499D01*
X82337860Y-140000000D01*
X96740312Y-140000000D01*
X96760957Y-140143595D01*
X96760958Y-140143599D01*
X96819844Y-140272538D01*
X96821223Y-140275558D01*
X96916225Y-140385196D01*
X96966441Y-140417468D01*
X97038269Y-140463630D01*
X97177461Y-140504499D01*
X97177463Y-140504500D01*
X97177464Y-140504500D01*
X97322537Y-140504500D01*
X97322537Y-140504499D01*
X97461729Y-140463630D01*
X97461730Y-140463630D01*
X97461732Y-140463629D01*
X97583775Y-140385196D01*
X97678777Y-140275558D01*
X97734524Y-140153489D01*
X97739041Y-140143599D01*
X97739042Y-140143595D01*
X97743687Y-140111288D01*
X97759688Y-140000000D01*
X97742898Y-139883226D01*
X97752841Y-139814070D01*
X97798596Y-139761266D01*
X97865635Y-139741581D01*
X97900570Y-139746604D01*
X97927460Y-139754499D01*
X97927463Y-139754500D01*
X97927464Y-139754500D01*
X98072537Y-139754500D01*
X98072537Y-139754499D01*
X98211729Y-139713630D01*
X98211730Y-139713630D01*
X98211732Y-139713629D01*
X98333775Y-139635196D01*
X98428777Y-139525558D01*
X98489042Y-139393596D01*
X98509688Y-139250000D01*
X98489042Y-139106404D01*
X98489041Y-139106400D01*
X98428777Y-138974443D01*
X98428777Y-138974442D01*
X98333775Y-138864804D01*
X98298950Y-138842423D01*
X98211730Y-138786369D01*
X98072538Y-138745500D01*
X98072536Y-138745500D01*
X97927464Y-138745500D01*
X97927461Y-138745500D01*
X97788270Y-138786369D01*
X97788269Y-138786369D01*
X97666226Y-138864803D01*
X97666225Y-138864803D01*
X97666225Y-138864804D01*
X97662765Y-138868797D01*
X97571223Y-138974442D01*
X97571222Y-138974443D01*
X97510958Y-139106400D01*
X97510957Y-139106404D01*
X97490312Y-139250000D01*
X97507101Y-139366771D01*
X97497157Y-139435930D01*
X97451402Y-139488734D01*
X97384363Y-139508418D01*
X97349431Y-139503396D01*
X97322537Y-139495500D01*
X97322536Y-139495500D01*
X97177464Y-139495500D01*
X97177461Y-139495500D01*
X97038270Y-139536369D01*
X97038269Y-139536369D01*
X96916226Y-139614803D01*
X96916225Y-139614803D01*
X96916225Y-139614804D01*
X96891277Y-139643596D01*
X96821223Y-139724442D01*
X96821222Y-139724443D01*
X96760958Y-139856400D01*
X96760957Y-139856404D01*
X96740312Y-140000000D01*
X82337860Y-140000000D01*
X82461729Y-139963630D01*
X82461730Y-139963630D01*
X82478988Y-139952539D01*
X82583775Y-139885196D01*
X82678777Y-139775558D01*
X82739042Y-139643596D01*
X82759688Y-139500000D01*
X82739042Y-139356404D01*
X82739041Y-139356400D01*
X82678777Y-139224443D01*
X82678777Y-139224442D01*
X82583775Y-139114804D01*
X82489652Y-139054314D01*
X82443898Y-139001511D01*
X82433955Y-138932352D01*
X82462980Y-138868797D01*
X82489653Y-138845685D01*
X82583775Y-138785196D01*
X82678777Y-138675558D01*
X82721664Y-138581646D01*
X82739041Y-138543599D01*
X82739042Y-138543595D01*
X82741635Y-138525558D01*
X82759688Y-138400000D01*
X82739042Y-138256404D01*
X82739041Y-138256400D01*
X82678777Y-138124443D01*
X82678777Y-138124442D01*
X82583775Y-138014804D01*
X82493279Y-137956645D01*
X82461730Y-137936369D01*
X82322538Y-137895500D01*
X82322536Y-137895500D01*
X82177464Y-137895500D01*
X82177461Y-137895500D01*
X82038270Y-137936369D01*
X82038269Y-137936369D01*
X81916226Y-138014803D01*
X81916225Y-138014803D01*
X81916225Y-138014804D01*
X81871291Y-138066661D01*
X81821223Y-138124442D01*
X81821222Y-138124443D01*
X81760958Y-138256400D01*
X81760957Y-138256404D01*
X81740312Y-138400000D01*
X71986447Y-138400000D01*
X71840001Y-138253553D01*
X71840000Y-138253553D01*
X71476892Y-138616660D01*
X71103106Y-138616660D01*
X70740001Y-138253553D01*
X70740000Y-138253553D01*
X70376892Y-138616660D01*
X65349837Y-138616660D01*
X65428777Y-138525558D01*
X65471664Y-138431646D01*
X65489041Y-138393599D01*
X65489042Y-138393595D01*
X65509688Y-138250000D01*
X65489042Y-138106404D01*
X65489041Y-138106400D01*
X65470892Y-138066660D01*
X69826892Y-138066660D01*
X69826892Y-138066661D01*
X69840692Y-138075333D01*
X69840699Y-138075336D01*
X69913205Y-138100708D01*
X69969981Y-138141430D01*
X69989291Y-138176793D01*
X70014664Y-138249302D01*
X70023338Y-138263107D01*
X70386446Y-137900000D01*
X70366555Y-137880109D01*
X70640000Y-137880109D01*
X70640000Y-137919891D01*
X70655224Y-137956645D01*
X70683355Y-137984776D01*
X70720109Y-138000000D01*
X70759891Y-138000000D01*
X70796645Y-137984776D01*
X70824776Y-137956645D01*
X70840000Y-137919891D01*
X70840000Y-137899999D01*
X71093552Y-137899999D01*
X71290000Y-138096446D01*
X71486446Y-137900000D01*
X71466555Y-137880109D01*
X71740000Y-137880109D01*
X71740000Y-137919891D01*
X71755224Y-137956645D01*
X71783355Y-137984776D01*
X71820109Y-138000000D01*
X71859891Y-138000000D01*
X71896645Y-137984776D01*
X71924776Y-137956645D01*
X71940000Y-137919891D01*
X71940000Y-137899999D01*
X72193553Y-137899999D01*
X72193553Y-137900000D01*
X72556660Y-138263106D01*
X72556661Y-138263106D01*
X72565334Y-138249306D01*
X72565334Y-138249305D01*
X72590707Y-138176795D01*
X72631429Y-138120019D01*
X72666795Y-138100707D01*
X72739305Y-138075334D01*
X72739306Y-138075334D01*
X72753106Y-138066661D01*
X72753106Y-138066660D01*
X72390000Y-137703553D01*
X72389999Y-137703553D01*
X72348055Y-137745498D01*
X72348054Y-137745499D01*
X72193553Y-137899999D01*
X71940000Y-137899999D01*
X71940000Y-137880109D01*
X71924776Y-137843355D01*
X71896645Y-137815224D01*
X71859891Y-137800000D01*
X71820109Y-137800000D01*
X71783355Y-137815224D01*
X71755224Y-137843355D01*
X71740000Y-137880109D01*
X71466555Y-137880109D01*
X71331945Y-137745499D01*
X71290000Y-137703553D01*
X71248055Y-137745499D01*
X71248054Y-137745499D01*
X71093552Y-137899999D01*
X70840000Y-137899999D01*
X70840000Y-137880109D01*
X70824776Y-137843355D01*
X70796645Y-137815224D01*
X70759891Y-137800000D01*
X70720109Y-137800000D01*
X70683355Y-137815224D01*
X70655224Y-137843355D01*
X70640000Y-137880109D01*
X70366555Y-137880109D01*
X70189999Y-137703553D01*
X70189998Y-137703553D01*
X69826892Y-138066660D01*
X65470892Y-138066660D01*
X65428777Y-137974443D01*
X65428777Y-137974442D01*
X65333775Y-137864804D01*
X65256628Y-137815224D01*
X65211730Y-137786369D01*
X65072538Y-137745500D01*
X65072536Y-137745500D01*
X64927464Y-137745500D01*
X64927461Y-137745500D01*
X64788270Y-137786369D01*
X64788269Y-137786369D01*
X64666226Y-137864803D01*
X64666225Y-137864803D01*
X64666225Y-137864804D01*
X64604212Y-137936371D01*
X64571223Y-137974442D01*
X64571222Y-137974443D01*
X64510958Y-138106400D01*
X64510957Y-138106404D01*
X64490312Y-138250000D01*
X53487500Y-138250000D01*
X53487500Y-137902172D01*
X53487499Y-137902155D01*
X53481098Y-137842627D01*
X53481096Y-137842620D01*
X53430854Y-137707913D01*
X53430850Y-137707906D01*
X53344690Y-137592812D01*
X53344687Y-137592809D01*
X53229593Y-137506649D01*
X53229586Y-137506645D01*
X53094879Y-137456403D01*
X53094872Y-137456401D01*
X53035344Y-137450000D01*
X52741888Y-137450000D01*
X52674849Y-137430315D01*
X52629094Y-137377511D01*
X52625138Y-137349997D01*
X69384938Y-137349997D01*
X69384938Y-137350002D01*
X69405121Y-137529138D01*
X69464665Y-137699304D01*
X69473338Y-137713107D01*
X69836446Y-137350000D01*
X69836446Y-137349999D01*
X69816556Y-137330109D01*
X70090000Y-137330109D01*
X70090000Y-137369891D01*
X70105224Y-137406645D01*
X70133355Y-137434776D01*
X70170109Y-137450000D01*
X70209891Y-137450000D01*
X70246645Y-137434776D01*
X70274776Y-137406645D01*
X70290000Y-137369891D01*
X70290000Y-137349999D01*
X70543553Y-137349999D01*
X70543553Y-137350000D01*
X70589645Y-137396091D01*
X70740000Y-137546446D01*
X70936446Y-137350000D01*
X70916555Y-137330109D01*
X71190000Y-137330109D01*
X71190000Y-137369891D01*
X71205224Y-137406645D01*
X71233355Y-137434776D01*
X71270109Y-137450000D01*
X71309891Y-137450000D01*
X71346645Y-137434776D01*
X71374776Y-137406645D01*
X71390000Y-137369891D01*
X71390000Y-137349999D01*
X71643553Y-137349999D01*
X71643553Y-137350000D01*
X71689645Y-137396091D01*
X71840000Y-137546446D01*
X72036446Y-137350000D01*
X72016555Y-137330109D01*
X72290000Y-137330109D01*
X72290000Y-137369891D01*
X72305224Y-137406645D01*
X72333355Y-137434776D01*
X72370109Y-137450000D01*
X72409891Y-137450000D01*
X72446645Y-137434776D01*
X72474776Y-137406645D01*
X72490000Y-137369891D01*
X72490000Y-137350000D01*
X72743553Y-137350000D01*
X73106660Y-137713106D01*
X73106661Y-137713106D01*
X73115334Y-137699306D01*
X73115334Y-137699305D01*
X73174877Y-137529141D01*
X73174878Y-137529138D01*
X73195062Y-137350002D01*
X73195062Y-137349997D01*
X73174878Y-137170861D01*
X73115333Y-137000692D01*
X73106661Y-136986892D01*
X73106660Y-136986892D01*
X72743553Y-137350000D01*
X72490000Y-137350000D01*
X72490000Y-137330109D01*
X72474776Y-137293355D01*
X72446645Y-137265224D01*
X72409891Y-137250000D01*
X72370109Y-137250000D01*
X72333355Y-137265224D01*
X72305224Y-137293355D01*
X72290000Y-137330109D01*
X72016555Y-137330109D01*
X71891350Y-137204904D01*
X71840000Y-137153553D01*
X71788650Y-137204904D01*
X71788649Y-137204904D01*
X71643553Y-137349999D01*
X71390000Y-137349999D01*
X71390000Y-137330109D01*
X71374776Y-137293355D01*
X71346645Y-137265224D01*
X71309891Y-137250000D01*
X71270109Y-137250000D01*
X71233355Y-137265224D01*
X71205224Y-137293355D01*
X71190000Y-137330109D01*
X70916555Y-137330109D01*
X70791350Y-137204904D01*
X70740000Y-137153553D01*
X70688650Y-137204904D01*
X70688649Y-137204904D01*
X70543553Y-137349999D01*
X70290000Y-137349999D01*
X70290000Y-137330109D01*
X70274776Y-137293355D01*
X70246645Y-137265224D01*
X70209891Y-137250000D01*
X70170109Y-137250000D01*
X70133355Y-137265224D01*
X70105224Y-137293355D01*
X70090000Y-137330109D01*
X69816556Y-137330109D01*
X69473338Y-136986891D01*
X69473337Y-136986891D01*
X69464667Y-137000691D01*
X69464662Y-137000701D01*
X69405122Y-137170858D01*
X69405121Y-137170861D01*
X69384938Y-137349997D01*
X52625138Y-137349997D01*
X52619150Y-137308353D01*
X52648175Y-137244797D01*
X52676611Y-137220573D01*
X52757996Y-137170180D01*
X52803541Y-137141981D01*
X52954264Y-137004579D01*
X53077173Y-136841821D01*
X53097997Y-136800000D01*
X69993553Y-136800000D01*
X69993553Y-136800001D01*
X70189998Y-136996446D01*
X70189999Y-136996446D01*
X70353350Y-136833096D01*
X70386446Y-136800000D01*
X70366555Y-136780109D01*
X70640000Y-136780109D01*
X70640000Y-136819891D01*
X70655224Y-136856645D01*
X70683355Y-136884776D01*
X70720109Y-136900000D01*
X70759891Y-136900000D01*
X70796645Y-136884776D01*
X70824776Y-136856645D01*
X70840000Y-136819891D01*
X70840000Y-136799999D01*
X71093553Y-136799999D01*
X71290000Y-136996446D01*
X71486446Y-136800000D01*
X71466555Y-136780109D01*
X71740000Y-136780109D01*
X71740000Y-136819891D01*
X71755224Y-136856645D01*
X71783355Y-136884776D01*
X71820109Y-136900000D01*
X71859891Y-136900000D01*
X71896645Y-136884776D01*
X71924776Y-136856645D01*
X71940000Y-136819891D01*
X71940000Y-136799999D01*
X72193553Y-136799999D01*
X72390000Y-136996446D01*
X72586446Y-136800000D01*
X72390000Y-136603553D01*
X72334305Y-136659249D01*
X72334304Y-136659249D01*
X72193553Y-136799999D01*
X71940000Y-136799999D01*
X71940000Y-136780109D01*
X71924776Y-136743355D01*
X71896645Y-136715224D01*
X71859891Y-136700000D01*
X71820109Y-136700000D01*
X71783355Y-136715224D01*
X71755224Y-136743355D01*
X71740000Y-136780109D01*
X71466555Y-136780109D01*
X71345695Y-136659249D01*
X71290000Y-136603553D01*
X71234305Y-136659249D01*
X71234304Y-136659249D01*
X71093553Y-136799999D01*
X70840000Y-136799999D01*
X70840000Y-136780109D01*
X70824776Y-136743355D01*
X70796645Y-136715224D01*
X70759891Y-136700000D01*
X70720109Y-136700000D01*
X70683355Y-136715224D01*
X70655224Y-136743355D01*
X70640000Y-136780109D01*
X70366555Y-136780109D01*
X70189999Y-136603553D01*
X69993553Y-136800000D01*
X53097997Y-136800000D01*
X53168082Y-136659250D01*
X53223897Y-136463083D01*
X53242715Y-136260000D01*
X53241788Y-136249997D01*
X69384938Y-136249997D01*
X69384938Y-136250002D01*
X69405121Y-136429138D01*
X69464665Y-136599304D01*
X69473338Y-136613107D01*
X69836446Y-136250000D01*
X69836446Y-136249999D01*
X69816556Y-136230109D01*
X70090000Y-136230109D01*
X70090000Y-136269891D01*
X70105224Y-136306645D01*
X70133355Y-136334776D01*
X70170109Y-136350000D01*
X70209891Y-136350000D01*
X70246645Y-136334776D01*
X70274776Y-136306645D01*
X70290000Y-136269891D01*
X70290000Y-136250000D01*
X70543553Y-136250000D01*
X70589645Y-136296091D01*
X70740000Y-136446446D01*
X70936446Y-136250000D01*
X70916555Y-136230109D01*
X71190000Y-136230109D01*
X71190000Y-136269891D01*
X71205224Y-136306645D01*
X71233355Y-136334776D01*
X71270109Y-136350000D01*
X71309891Y-136350000D01*
X71346645Y-136334776D01*
X71374776Y-136306645D01*
X71390000Y-136269891D01*
X71390000Y-136250000D01*
X71643553Y-136250000D01*
X71689645Y-136296091D01*
X71840000Y-136446446D01*
X72036446Y-136250000D01*
X72016555Y-136230109D01*
X72290000Y-136230109D01*
X72290000Y-136269891D01*
X72305224Y-136306645D01*
X72333355Y-136334776D01*
X72370109Y-136350000D01*
X72409891Y-136350000D01*
X72446645Y-136334776D01*
X72474776Y-136306645D01*
X72490000Y-136269891D01*
X72490000Y-136250000D01*
X72743552Y-136250000D01*
X73106660Y-136613106D01*
X73106661Y-136613106D01*
X73115334Y-136599306D01*
X73115334Y-136599305D01*
X73174877Y-136429141D01*
X73174878Y-136429138D01*
X73195062Y-136250002D01*
X73195062Y-136249997D01*
X73174878Y-136070861D01*
X73115333Y-135900692D01*
X73106661Y-135886892D01*
X73106660Y-135886892D01*
X72743552Y-136250000D01*
X72490000Y-136250000D01*
X72490000Y-136230109D01*
X72474776Y-136193355D01*
X72446645Y-136165224D01*
X72409891Y-136150000D01*
X72370109Y-136150000D01*
X72333355Y-136165224D01*
X72305224Y-136193355D01*
X72290000Y-136230109D01*
X72016555Y-136230109D01*
X71905760Y-136119314D01*
X71840000Y-136053553D01*
X71774241Y-136119313D01*
X71774240Y-136119314D01*
X71643553Y-136250000D01*
X71390000Y-136250000D01*
X71390000Y-136230109D01*
X71374776Y-136193355D01*
X71346645Y-136165224D01*
X71309891Y-136150000D01*
X71270109Y-136150000D01*
X71233355Y-136165224D01*
X71205224Y-136193355D01*
X71190000Y-136230109D01*
X70916555Y-136230109D01*
X70805760Y-136119314D01*
X70740000Y-136053553D01*
X70674241Y-136119313D01*
X70674240Y-136119314D01*
X70543553Y-136250000D01*
X70290000Y-136250000D01*
X70290000Y-136230109D01*
X70274776Y-136193355D01*
X70246645Y-136165224D01*
X70209891Y-136150000D01*
X70170109Y-136150000D01*
X70133355Y-136165224D01*
X70105224Y-136193355D01*
X70090000Y-136230109D01*
X69816556Y-136230109D01*
X69473338Y-135886891D01*
X69473337Y-135886891D01*
X69464667Y-135900691D01*
X69464662Y-135900701D01*
X69405122Y-136070858D01*
X69405121Y-136070861D01*
X69384938Y-136249997D01*
X53241788Y-136249997D01*
X53223897Y-136056917D01*
X53168082Y-135860750D01*
X53141072Y-135806507D01*
X53097943Y-135719891D01*
X53077173Y-135678179D01*
X52974742Y-135542538D01*
X52967795Y-135533338D01*
X69826891Y-135533338D01*
X70189998Y-135896446D01*
X70338395Y-135748051D01*
X70386446Y-135699998D01*
X70366557Y-135680109D01*
X70640000Y-135680109D01*
X70640000Y-135719891D01*
X70655224Y-135756645D01*
X70683355Y-135784776D01*
X70720109Y-135800000D01*
X70759891Y-135800000D01*
X70796645Y-135784776D01*
X70824776Y-135756645D01*
X70840000Y-135719891D01*
X70840000Y-135699999D01*
X71093553Y-135699999D01*
X71290000Y-135896446D01*
X71438393Y-135748053D01*
X71486446Y-135699998D01*
X71466557Y-135680109D01*
X71740000Y-135680109D01*
X71740000Y-135719891D01*
X71755224Y-135756645D01*
X71783355Y-135784776D01*
X71820109Y-135800000D01*
X71859891Y-135800000D01*
X71896645Y-135784776D01*
X71924776Y-135756645D01*
X71940000Y-135719891D01*
X71940000Y-135699998D01*
X72193553Y-135699998D01*
X72193553Y-135699999D01*
X72390000Y-135896446D01*
X72390001Y-135896446D01*
X72753107Y-135533338D01*
X72739302Y-135524664D01*
X72666793Y-135499291D01*
X72610017Y-135458569D01*
X72590708Y-135423205D01*
X72565336Y-135350699D01*
X72565333Y-135350692D01*
X72556661Y-135336892D01*
X72556660Y-135336892D01*
X72193553Y-135699998D01*
X71940000Y-135699998D01*
X71940000Y-135680109D01*
X71924776Y-135643355D01*
X71896645Y-135615224D01*
X71859891Y-135600000D01*
X71820109Y-135600000D01*
X71783355Y-135615224D01*
X71755224Y-135643355D01*
X71740000Y-135680109D01*
X71466557Y-135680109D01*
X71290001Y-135503553D01*
X71093553Y-135699999D01*
X70840000Y-135699999D01*
X70840000Y-135680109D01*
X70824776Y-135643355D01*
X70796645Y-135615224D01*
X70759891Y-135600000D01*
X70720109Y-135600000D01*
X70683355Y-135615224D01*
X70655224Y-135643355D01*
X70640000Y-135680109D01*
X70366557Y-135680109D01*
X70023338Y-135336891D01*
X70014664Y-135350695D01*
X70014659Y-135350705D01*
X69989291Y-135423205D01*
X69948569Y-135479981D01*
X69913205Y-135499291D01*
X69840705Y-135524659D01*
X69840695Y-135524664D01*
X69826891Y-135533338D01*
X52967795Y-135533338D01*
X52954262Y-135515418D01*
X52803541Y-135378019D01*
X52803539Y-135378017D01*
X52630142Y-135270655D01*
X52630135Y-135270651D01*
X52535046Y-135233814D01*
X52439956Y-135196976D01*
X52239476Y-135159500D01*
X52035524Y-135159500D01*
X51835044Y-135196976D01*
X51835041Y-135196976D01*
X51835041Y-135196977D01*
X51644864Y-135270651D01*
X51644857Y-135270655D01*
X51471460Y-135378017D01*
X51471458Y-135378019D01*
X51320737Y-135515418D01*
X51197827Y-135678178D01*
X51106922Y-135860739D01*
X51106917Y-135860752D01*
X51051102Y-136056917D01*
X51032285Y-136259999D01*
X51032285Y-136260000D01*
X51051102Y-136463082D01*
X51106917Y-136659247D01*
X51106922Y-136659260D01*
X51197827Y-136841821D01*
X51320737Y-137004581D01*
X51471458Y-137141980D01*
X51471460Y-137141982D01*
X51598389Y-137220573D01*
X51645025Y-137272601D01*
X51656129Y-137341583D01*
X51628176Y-137405617D01*
X51570041Y-137444373D01*
X51533112Y-137450000D01*
X51239655Y-137450000D01*
X51180127Y-137456401D01*
X51180120Y-137456403D01*
X51045413Y-137506645D01*
X51045406Y-137506649D01*
X50930312Y-137592809D01*
X50930309Y-137592812D01*
X50844149Y-137707906D01*
X50844145Y-137707913D01*
X50793903Y-137842620D01*
X50793901Y-137842627D01*
X50787500Y-137902155D01*
X50381500Y-137902155D01*
X50381500Y-134983337D01*
X70376891Y-134983337D01*
X70376891Y-134983338D01*
X70740000Y-135346446D01*
X70740001Y-135346446D01*
X71103107Y-134983338D01*
X71103105Y-134983337D01*
X71476891Y-134983337D01*
X71476891Y-134983338D01*
X71840000Y-135346446D01*
X71840001Y-135346446D01*
X72186445Y-135000000D01*
X78990312Y-135000000D01*
X79010957Y-135143595D01*
X79010958Y-135143599D01*
X79068984Y-135270655D01*
X79071223Y-135275558D01*
X79166225Y-135385196D01*
X79225368Y-135423205D01*
X79288269Y-135463630D01*
X79427461Y-135504499D01*
X79427463Y-135504500D01*
X79427464Y-135504500D01*
X79572537Y-135504500D01*
X79572537Y-135504499D01*
X79711729Y-135463630D01*
X79711730Y-135463630D01*
X79720637Y-135457906D01*
X79833775Y-135385196D01*
X79928777Y-135275558D01*
X79989042Y-135143596D01*
X80009688Y-135000000D01*
X79989042Y-134856404D01*
X79989041Y-134856400D01*
X79928777Y-134724443D01*
X79928777Y-134724442D01*
X79833775Y-134614804D01*
X79778703Y-134579411D01*
X79711730Y-134536369D01*
X79587864Y-134500000D01*
X86990312Y-134500000D01*
X87010957Y-134643595D01*
X87010958Y-134643599D01*
X87071222Y-134775556D01*
X87071223Y-134775558D01*
X87166225Y-134885196D01*
X87244659Y-134935602D01*
X87288269Y-134963630D01*
X87427461Y-135004499D01*
X87427463Y-135004500D01*
X87427464Y-135004500D01*
X87572537Y-135004500D01*
X87572537Y-135004499D01*
X87711729Y-134963630D01*
X87711730Y-134963630D01*
X87711732Y-134963629D01*
X87833775Y-134885196D01*
X87928777Y-134775558D01*
X87986670Y-134648790D01*
X87989041Y-134643599D01*
X87989042Y-134643595D01*
X87991876Y-134623883D01*
X88009688Y-134500000D01*
X87989042Y-134356404D01*
X87989041Y-134356400D01*
X87949895Y-134270685D01*
X87928777Y-134224442D01*
X87833775Y-134114804D01*
X87758016Y-134066116D01*
X87711730Y-134036369D01*
X87572538Y-133995500D01*
X87572536Y-133995500D01*
X87427464Y-133995500D01*
X87427461Y-133995500D01*
X87288270Y-134036369D01*
X87288269Y-134036369D01*
X87166226Y-134114803D01*
X87071223Y-134224442D01*
X87071222Y-134224443D01*
X87010958Y-134356400D01*
X87010957Y-134356404D01*
X86990312Y-134500000D01*
X79587864Y-134500000D01*
X79567351Y-134493977D01*
X79508572Y-134456203D01*
X79500360Y-134438222D01*
X79464754Y-134479315D01*
X79432648Y-134493977D01*
X79288270Y-134536369D01*
X79288269Y-134536369D01*
X79166226Y-134614803D01*
X79166225Y-134614803D01*
X79166225Y-134614804D01*
X79141277Y-134643596D01*
X79071223Y-134724442D01*
X79071222Y-134724443D01*
X79010958Y-134856400D01*
X79010957Y-134856404D01*
X78990312Y-135000000D01*
X72186445Y-135000000D01*
X72203107Y-134983338D01*
X72189304Y-134974665D01*
X72019138Y-134915121D01*
X71840003Y-134894938D01*
X71839997Y-134894938D01*
X71660861Y-134915121D01*
X71660858Y-134915122D01*
X71490701Y-134974662D01*
X71490691Y-134974667D01*
X71476891Y-134983337D01*
X71103105Y-134983337D01*
X71089304Y-134974665D01*
X70919138Y-134915121D01*
X70740003Y-134894938D01*
X70739997Y-134894938D01*
X70560861Y-134915121D01*
X70560858Y-134915122D01*
X70390701Y-134974662D01*
X70390691Y-134974667D01*
X70376891Y-134983337D01*
X50381500Y-134983337D01*
X50381500Y-133719999D01*
X51032285Y-133719999D01*
X51032285Y-133720000D01*
X51051102Y-133923082D01*
X51106917Y-134119247D01*
X51106922Y-134119260D01*
X51197827Y-134301821D01*
X51320737Y-134464581D01*
X51471458Y-134601980D01*
X51471460Y-134601982D01*
X51547057Y-134648789D01*
X51644863Y-134709348D01*
X51835044Y-134783024D01*
X52035524Y-134820500D01*
X52035526Y-134820500D01*
X52239474Y-134820500D01*
X52239476Y-134820500D01*
X52439956Y-134783024D01*
X52630137Y-134709348D01*
X52803541Y-134601981D01*
X52954264Y-134464579D01*
X53077173Y-134301821D01*
X53168082Y-134119250D01*
X53223897Y-133923083D01*
X53239935Y-133750000D01*
X78990312Y-133750000D01*
X79010957Y-133893595D01*
X79010958Y-133893599D01*
X79063890Y-134009501D01*
X79071223Y-134025558D01*
X79166225Y-134135196D01*
X79235163Y-134179500D01*
X79288269Y-134213630D01*
X79432648Y-134256023D01*
X79491427Y-134293797D01*
X79499638Y-134311777D01*
X79535245Y-134270685D01*
X79567351Y-134256023D01*
X79711729Y-134213630D01*
X79711730Y-134213630D01*
X79711732Y-134213629D01*
X79833775Y-134135196D01*
X79928777Y-134025558D01*
X79986387Y-133899410D01*
X79989041Y-133893599D01*
X79989042Y-133893595D01*
X79994628Y-133854745D01*
X80009688Y-133750000D01*
X79989042Y-133606404D01*
X79989041Y-133606400D01*
X79948175Y-133516917D01*
X79928777Y-133474442D01*
X79833775Y-133364804D01*
X79787400Y-133335000D01*
X79711730Y-133286369D01*
X79567351Y-133243977D01*
X79508572Y-133206203D01*
X79500360Y-133188222D01*
X79464754Y-133229315D01*
X79432648Y-133243977D01*
X79288270Y-133286369D01*
X79288269Y-133286369D01*
X79166226Y-133364803D01*
X79071223Y-133474442D01*
X79071222Y-133474443D01*
X79010958Y-133606400D01*
X79010957Y-133606404D01*
X78990312Y-133750000D01*
X53239935Y-133750000D01*
X53242715Y-133720000D01*
X53223897Y-133516917D01*
X53168082Y-133320750D01*
X53162087Y-133308711D01*
X53081795Y-133147462D01*
X53077173Y-133138179D01*
X53005899Y-133043797D01*
X52954262Y-132975418D01*
X52803541Y-132838019D01*
X52803539Y-132838017D01*
X52630142Y-132730655D01*
X52630135Y-132730651D01*
X52485573Y-132674648D01*
X52439956Y-132656976D01*
X52239476Y-132619500D01*
X52035524Y-132619500D01*
X51835044Y-132656976D01*
X51835041Y-132656976D01*
X51835041Y-132656977D01*
X51644864Y-132730651D01*
X51644857Y-132730655D01*
X51471460Y-132838017D01*
X51471458Y-132838019D01*
X51320737Y-132975418D01*
X51197827Y-133138178D01*
X51106922Y-133320739D01*
X51106917Y-133320752D01*
X51051102Y-133516917D01*
X51032285Y-133719999D01*
X50381500Y-133719999D01*
X50381500Y-132500000D01*
X78990312Y-132500000D01*
X79010957Y-132643595D01*
X79010958Y-132643599D01*
X79054756Y-132739501D01*
X79071223Y-132775558D01*
X79166225Y-132885196D01*
X79244659Y-132935602D01*
X79288269Y-132963630D01*
X79432648Y-133006023D01*
X79491427Y-133043797D01*
X79499638Y-133061777D01*
X79535245Y-133020685D01*
X79567351Y-133006023D01*
X79711729Y-132963630D01*
X79711730Y-132963630D01*
X79711732Y-132963629D01*
X79833775Y-132885196D01*
X79928777Y-132775558D01*
X79989042Y-132643596D01*
X80009688Y-132500000D01*
X96990312Y-132500000D01*
X97010957Y-132643595D01*
X97010958Y-132643599D01*
X97054756Y-132739501D01*
X97071223Y-132775558D01*
X97166225Y-132885196D01*
X97244659Y-132935602D01*
X97288269Y-132963630D01*
X97407373Y-132998600D01*
X97426745Y-133004289D01*
X97427461Y-133004499D01*
X97427463Y-133004500D01*
X97427464Y-133004500D01*
X97572537Y-133004500D01*
X97572537Y-133004499D01*
X97711729Y-132963630D01*
X97711730Y-132963630D01*
X97711732Y-132963629D01*
X97833775Y-132885196D01*
X97928777Y-132775558D01*
X97989042Y-132643596D01*
X97996317Y-132592998D01*
X106749500Y-132592998D01*
X106749500Y-134642355D01*
X106764032Y-134715412D01*
X106764033Y-134715416D01*
X106770064Y-134724442D01*
X106819399Y-134798278D01*
X106902260Y-134853643D01*
X106902264Y-134853644D01*
X106975321Y-134868176D01*
X106975324Y-134868177D01*
X106975326Y-134868177D01*
X109024676Y-134868177D01*
X109024677Y-134868176D01*
X109097740Y-134853643D01*
X109180601Y-134798278D01*
X109235966Y-134715417D01*
X109246222Y-134663856D01*
X128429500Y-134663856D01*
X128429500Y-135296144D01*
X128434393Y-135336891D01*
X128439640Y-135380588D01*
X128492636Y-135514976D01*
X128579921Y-135630078D01*
X128695023Y-135717363D01*
X128695024Y-135717363D01*
X128695025Y-135717364D01*
X128829410Y-135770359D01*
X128913856Y-135780500D01*
X128913862Y-135780500D01*
X130126000Y-135780500D01*
X130193039Y-135800185D01*
X130238794Y-135852989D01*
X130250000Y-135904500D01*
X130250000Y-136000000D01*
X130969670Y-136000000D01*
X130949925Y-136019745D01*
X130900556Y-136105255D01*
X130875000Y-136200630D01*
X130875000Y-136299370D01*
X130900556Y-136394745D01*
X130949925Y-136480255D01*
X130969670Y-136500000D01*
X130250000Y-136500000D01*
X130250000Y-136847844D01*
X130256401Y-136907372D01*
X130256403Y-136907379D01*
X130306645Y-137042086D01*
X130306649Y-137042093D01*
X130392809Y-137157187D01*
X130392812Y-137157190D01*
X130507906Y-137243350D01*
X130507913Y-137243354D01*
X130642620Y-137293596D01*
X130642627Y-137293598D01*
X130702155Y-137299999D01*
X130702172Y-137300000D01*
X131400000Y-137300000D01*
X131900000Y-137300000D01*
X132597828Y-137300000D01*
X132597844Y-137299999D01*
X132657372Y-137293598D01*
X132657379Y-137293596D01*
X132792086Y-137243354D01*
X132792093Y-137243350D01*
X132907187Y-137157190D01*
X132907190Y-137157187D01*
X132993350Y-137042093D01*
X132993354Y-137042086D01*
X133043596Y-136907379D01*
X133043598Y-136907372D01*
X133049999Y-136847844D01*
X133050000Y-136847827D01*
X133050000Y-136500000D01*
X131900000Y-136500000D01*
X131900000Y-137300000D01*
X131400000Y-137300000D01*
X131400000Y-136596410D01*
X131480255Y-136550075D01*
X131550075Y-136480255D01*
X131599444Y-136394745D01*
X131625000Y-136299370D01*
X131625000Y-136200630D01*
X131599444Y-136105255D01*
X131550075Y-136019745D01*
X131530330Y-136000000D01*
X131900000Y-136000000D01*
X133050000Y-136000000D01*
X133050000Y-135652172D01*
X133049999Y-135652155D01*
X133043598Y-135592627D01*
X133043596Y-135592620D01*
X132993354Y-135457913D01*
X132993350Y-135457906D01*
X132907190Y-135342812D01*
X132907187Y-135342809D01*
X132792093Y-135256649D01*
X132792086Y-135256645D01*
X132657379Y-135206403D01*
X132657372Y-135206401D01*
X132597844Y-135200000D01*
X131900000Y-135200000D01*
X131900000Y-136000000D01*
X131530330Y-136000000D01*
X131480255Y-135949925D01*
X131400000Y-135903589D01*
X131400000Y-135200000D01*
X130854500Y-135200000D01*
X130787461Y-135180315D01*
X130741706Y-135127511D01*
X130730500Y-135076000D01*
X130730500Y-134790235D01*
X130750185Y-134723196D01*
X130802989Y-134677441D01*
X130872147Y-134667497D01*
X130891381Y-134671847D01*
X130898712Y-134674132D01*
X130968789Y-134680500D01*
X132331210Y-134680499D01*
X132331217Y-134680499D01*
X132401281Y-134674133D01*
X132401282Y-134674132D01*
X132401288Y-134674132D01*
X132482609Y-134648791D01*
X133509500Y-134648791D01*
X133509500Y-135311218D01*
X133515866Y-135381281D01*
X133515868Y-135381288D01*
X133566113Y-135542531D01*
X133566116Y-135542540D01*
X133653489Y-135687073D01*
X133653492Y-135687077D01*
X133772922Y-135806507D01*
X133772926Y-135806510D01*
X133917459Y-135893883D01*
X133917468Y-135893886D01*
X133938873Y-135900556D01*
X134078712Y-135944132D01*
X134148789Y-135950500D01*
X135455500Y-135950499D01*
X135522539Y-135970184D01*
X135568294Y-136022987D01*
X135579500Y-136074499D01*
X135579500Y-136833095D01*
X135595095Y-136931563D01*
X135615507Y-136971622D01*
X135655567Y-137050245D01*
X135655569Y-137050247D01*
X135655571Y-137050250D01*
X135749749Y-137144428D01*
X135749753Y-137144431D01*
X135749755Y-137144433D01*
X135868438Y-137204905D01*
X135868439Y-137204905D01*
X135868441Y-137204906D01*
X135966897Y-137220499D01*
X135966903Y-137220500D01*
X137833096Y-137220499D01*
X137931562Y-137204905D01*
X138050245Y-137144433D01*
X138144433Y-137050245D01*
X138204905Y-136931562D01*
X138220500Y-136833097D01*
X138220499Y-135666904D01*
X138204905Y-135568438D01*
X138144433Y-135449755D01*
X138144429Y-135449751D01*
X138144428Y-135449749D01*
X138050250Y-135355571D01*
X138050246Y-135355568D01*
X138050245Y-135355567D01*
X137931562Y-135295095D01*
X137931561Y-135295094D01*
X137931558Y-135295093D01*
X137833102Y-135279500D01*
X137833097Y-135279500D01*
X136274499Y-135279500D01*
X136207460Y-135259815D01*
X136161705Y-135207011D01*
X136150499Y-135155500D01*
X136150499Y-134884000D01*
X136170184Y-134816961D01*
X136222988Y-134771206D01*
X136274499Y-134760000D01*
X136650000Y-134760000D01*
X137150000Y-134760000D01*
X137568527Y-134760000D01*
X137568530Y-134759999D01*
X137698539Y-134745351D01*
X137863386Y-134687669D01*
X138011262Y-134594753D01*
X138134753Y-134471262D01*
X138227669Y-134323386D01*
X138285351Y-134158539D01*
X138299999Y-134028530D01*
X138300000Y-134028526D01*
X138300000Y-133960000D01*
X137150000Y-133960000D01*
X137150000Y-134760000D01*
X136650000Y-134760000D01*
X136650000Y-134056410D01*
X136730255Y-134010075D01*
X136800075Y-133940255D01*
X136849444Y-133854745D01*
X136875000Y-133759370D01*
X136875000Y-133660630D01*
X136849444Y-133565255D01*
X136800075Y-133479745D01*
X136780330Y-133460000D01*
X137150000Y-133460000D01*
X138300000Y-133460000D01*
X138300000Y-133391473D01*
X138299999Y-133391469D01*
X138285351Y-133261460D01*
X138227669Y-133096613D01*
X138134753Y-132948737D01*
X138011262Y-132825246D01*
X137891508Y-132750000D01*
X142874489Y-132750000D01*
X142894502Y-133004289D01*
X142954044Y-133252301D01*
X142954049Y-133252318D01*
X143051656Y-133487963D01*
X143051658Y-133487966D01*
X143184930Y-133705445D01*
X143184936Y-133705454D01*
X143350587Y-133899407D01*
X143350592Y-133899412D01*
X143516614Y-134041208D01*
X143544549Y-134065066D01*
X143577078Y-134085000D01*
X143762033Y-134198341D01*
X143762036Y-134198343D01*
X143997681Y-134295950D01*
X143997683Y-134295950D01*
X143997689Y-134295953D01*
X144245714Y-134355498D01*
X144500000Y-134375511D01*
X144754286Y-134355498D01*
X145002311Y-134295953D01*
X145063313Y-134270685D01*
X145237963Y-134198343D01*
X145237964Y-134198342D01*
X145237967Y-134198341D01*
X145455451Y-134065066D01*
X145649410Y-133899410D01*
X145815066Y-133705451D01*
X145948341Y-133487967D01*
X145953944Y-133474442D01*
X146045950Y-133252318D01*
X146045949Y-133252318D01*
X146045953Y-133252311D01*
X146105498Y-133004286D01*
X146125511Y-132750000D01*
X146105498Y-132495714D01*
X146045953Y-132247689D01*
X146044020Y-132243022D01*
X145948343Y-132012036D01*
X145948341Y-132012033D01*
X145815069Y-131794554D01*
X145815063Y-131794545D01*
X145649412Y-131600592D01*
X145649407Y-131600587D01*
X145455454Y-131434936D01*
X145455445Y-131434930D01*
X145237966Y-131301658D01*
X145237963Y-131301656D01*
X145002318Y-131204049D01*
X145002301Y-131204044D01*
X144754289Y-131144502D01*
X144500000Y-131124489D01*
X144245710Y-131144502D01*
X143997698Y-131204044D01*
X143997681Y-131204049D01*
X143762036Y-131301656D01*
X143762033Y-131301658D01*
X143544554Y-131434930D01*
X143544545Y-131434936D01*
X143350592Y-131600587D01*
X143350587Y-131600592D01*
X143184936Y-131794545D01*
X143184930Y-131794554D01*
X143051658Y-132012033D01*
X143051656Y-132012036D01*
X142954049Y-132247681D01*
X142954044Y-132247698D01*
X142894502Y-132495710D01*
X142874489Y-132750000D01*
X137891508Y-132750000D01*
X137863386Y-132732330D01*
X137698539Y-132674648D01*
X137568530Y-132660000D01*
X137150000Y-132660000D01*
X137150000Y-133460000D01*
X136780330Y-133460000D01*
X136730255Y-133409925D01*
X136650000Y-133363589D01*
X136650000Y-132660000D01*
X136231469Y-132660000D01*
X136101460Y-132674648D01*
X135936613Y-132732330D01*
X135788737Y-132825246D01*
X135665246Y-132948737D01*
X135572330Y-133096613D01*
X135514648Y-133261460D01*
X135500000Y-133391469D01*
X135500000Y-133460000D01*
X136219670Y-133460000D01*
X136199925Y-133479745D01*
X136150556Y-133565255D01*
X136125000Y-133660630D01*
X136125000Y-133759370D01*
X136150556Y-133854745D01*
X136199925Y-133940255D01*
X136219670Y-133960000D01*
X135499999Y-133960000D01*
X135486817Y-133973182D01*
X135425494Y-134006666D01*
X135399137Y-134009500D01*
X134148781Y-134009500D01*
X134078718Y-134015866D01*
X134078711Y-134015868D01*
X133917468Y-134066113D01*
X133917459Y-134066116D01*
X133772926Y-134153489D01*
X133772922Y-134153492D01*
X133653492Y-134272922D01*
X133653489Y-134272926D01*
X133566116Y-134417459D01*
X133566113Y-134417468D01*
X133515870Y-134578704D01*
X133515868Y-134578712D01*
X133512589Y-134614803D01*
X133509500Y-134648791D01*
X132482609Y-134648791D01*
X132562538Y-134623884D01*
X132575223Y-134616216D01*
X132707073Y-134536510D01*
X132707072Y-134536510D01*
X132707078Y-134536507D01*
X132826507Y-134417078D01*
X132879195Y-134329921D01*
X132913883Y-134272540D01*
X132913886Y-134272531D01*
X132928871Y-134224442D01*
X132964132Y-134111288D01*
X132970500Y-134041211D01*
X132970499Y-133378790D01*
X132970499Y-133378789D01*
X132970499Y-133378781D01*
X132964133Y-133308718D01*
X132964132Y-133308714D01*
X132964132Y-133308712D01*
X132913884Y-133147462D01*
X132913883Y-133147459D01*
X132826510Y-133002926D01*
X132826507Y-133002922D01*
X132707077Y-132883492D01*
X132707073Y-132883489D01*
X132562540Y-132796116D01*
X132562531Y-132796113D01*
X132401295Y-132745870D01*
X132401293Y-132745869D01*
X132401288Y-132745868D01*
X132331211Y-132739500D01*
X132331208Y-132739500D01*
X130968781Y-132739500D01*
X130898718Y-132745866D01*
X130898711Y-132745868D01*
X130737468Y-132796113D01*
X130737459Y-132796116D01*
X130592926Y-132883489D01*
X130592922Y-132883492D01*
X130473492Y-133002922D01*
X130473489Y-133002926D01*
X130386116Y-133147459D01*
X130386113Y-133147468D01*
X130335870Y-133308704D01*
X130335868Y-133308712D01*
X130335868Y-133308718D01*
X130329500Y-133378791D01*
X130329500Y-134041211D01*
X130329780Y-134044283D01*
X130316240Y-134112828D01*
X130267792Y-134163172D01*
X130206288Y-134179500D01*
X128913856Y-134179500D01*
X128875841Y-134184065D01*
X128829411Y-134189640D01*
X128695023Y-134242636D01*
X128579921Y-134329921D01*
X128492636Y-134445023D01*
X128439640Y-134579411D01*
X128435221Y-134616216D01*
X128429500Y-134663856D01*
X109246222Y-134663856D01*
X109250500Y-134642351D01*
X109250500Y-132593003D01*
X109250500Y-132593000D01*
X109250499Y-132592998D01*
X109235967Y-132519941D01*
X109235966Y-132519937D01*
X109219778Y-132495710D01*
X109180601Y-132437076D01*
X109097740Y-132381711D01*
X109097739Y-132381710D01*
X109097735Y-132381709D01*
X109024677Y-132367177D01*
X109024674Y-132367177D01*
X106975326Y-132367177D01*
X106975323Y-132367177D01*
X106902264Y-132381709D01*
X106902260Y-132381710D01*
X106819399Y-132437076D01*
X106764033Y-132519937D01*
X106764032Y-132519941D01*
X106749500Y-132592998D01*
X97996317Y-132592998D01*
X98009688Y-132500000D01*
X97989042Y-132356404D01*
X97989041Y-132356400D01*
X97950220Y-132271397D01*
X97928777Y-132224442D01*
X97833775Y-132114804D01*
X97798950Y-132092423D01*
X97711730Y-132036369D01*
X97572538Y-131995500D01*
X97572536Y-131995500D01*
X97427464Y-131995500D01*
X97427461Y-131995500D01*
X97288270Y-132036369D01*
X97288269Y-132036369D01*
X97166226Y-132114803D01*
X97071223Y-132224442D01*
X97071222Y-132224443D01*
X97010958Y-132356400D01*
X97010957Y-132356404D01*
X96990312Y-132500000D01*
X80009688Y-132500000D01*
X79989042Y-132356404D01*
X79989041Y-132356400D01*
X79950220Y-132271397D01*
X79928777Y-132224442D01*
X79833775Y-132114804D01*
X79798950Y-132092423D01*
X79711730Y-132036369D01*
X79572538Y-131995500D01*
X79572536Y-131995500D01*
X79427464Y-131995500D01*
X79427461Y-131995500D01*
X79288270Y-132036369D01*
X79288269Y-132036369D01*
X79166226Y-132114803D01*
X79071223Y-132224442D01*
X79071222Y-132224443D01*
X79010958Y-132356400D01*
X79010957Y-132356404D01*
X78990312Y-132500000D01*
X50381500Y-132500000D01*
X50381500Y-131179999D01*
X51032285Y-131179999D01*
X51032285Y-131180000D01*
X51051102Y-131383082D01*
X51106917Y-131579247D01*
X51106922Y-131579260D01*
X51197827Y-131761821D01*
X51320737Y-131924581D01*
X51471458Y-132061980D01*
X51471460Y-132061982D01*
X51556770Y-132114803D01*
X51644863Y-132169348D01*
X51835044Y-132243024D01*
X52035524Y-132280500D01*
X52035526Y-132280500D01*
X52239474Y-132280500D01*
X52239476Y-132280500D01*
X52439956Y-132243024D01*
X52630137Y-132169348D01*
X52803541Y-132061981D01*
X52954264Y-131924579D01*
X52959477Y-131917676D01*
X114094571Y-131917676D01*
X114094571Y-131917677D01*
X114114244Y-132129987D01*
X114172596Y-132335069D01*
X114172596Y-132335071D01*
X114267632Y-132525930D01*
X114366595Y-132656977D01*
X114396128Y-132696084D01*
X114553698Y-132839729D01*
X114734981Y-132951975D01*
X114933802Y-133028998D01*
X115143390Y-133068177D01*
X115143392Y-133068177D01*
X115356608Y-133068177D01*
X115356610Y-133068177D01*
X115566198Y-133028998D01*
X115765019Y-132951975D01*
X115946302Y-132839729D01*
X116103872Y-132696084D01*
X116232366Y-132525932D01*
X116235351Y-132519937D01*
X116327403Y-132335071D01*
X116327403Y-132335070D01*
X116327405Y-132335066D01*
X116385756Y-132129987D01*
X116405429Y-131917677D01*
X116385756Y-131705367D01*
X116327405Y-131500288D01*
X116327403Y-131500283D01*
X116327403Y-131500282D01*
X116232367Y-131309423D01*
X116103872Y-131139270D01*
X116042259Y-131083102D01*
X115946302Y-130995625D01*
X115765019Y-130883379D01*
X115765017Y-130883378D01*
X115665608Y-130844867D01*
X115566198Y-130806356D01*
X115356610Y-130767177D01*
X115143390Y-130767177D01*
X114933802Y-130806356D01*
X114933799Y-130806356D01*
X114933799Y-130806357D01*
X114734982Y-130883378D01*
X114734980Y-130883379D01*
X114553699Y-130995624D01*
X114396127Y-131139270D01*
X114267632Y-131309423D01*
X114172596Y-131500282D01*
X114172596Y-131500284D01*
X114114244Y-131705366D01*
X114094571Y-131917676D01*
X52959477Y-131917676D01*
X53077173Y-131761821D01*
X53168082Y-131579250D01*
X53223897Y-131383083D01*
X53242715Y-131180000D01*
X53223897Y-130976917D01*
X53168082Y-130780750D01*
X53161323Y-130767177D01*
X53095605Y-130635196D01*
X53077173Y-130598179D01*
X53018204Y-130520091D01*
X52954262Y-130435418D01*
X52803541Y-130298019D01*
X52803539Y-130298017D01*
X52725988Y-130250000D01*
X77740312Y-130250000D01*
X77760957Y-130393595D01*
X77760958Y-130393599D01*
X77821222Y-130525556D01*
X77821223Y-130525558D01*
X77916225Y-130635196D01*
X77994659Y-130685602D01*
X78038269Y-130713630D01*
X78177461Y-130754499D01*
X78177463Y-130754500D01*
X78177464Y-130754500D01*
X78322537Y-130754500D01*
X78322537Y-130754499D01*
X78461729Y-130713630D01*
X78461730Y-130713630D01*
X78461732Y-130713629D01*
X78583775Y-130635196D01*
X78678777Y-130525558D01*
X78739042Y-130393596D01*
X78759688Y-130250000D01*
X78755040Y-130217675D01*
X117624456Y-130217675D01*
X117624456Y-130217678D01*
X117644593Y-130447849D01*
X117644595Y-130447860D01*
X117704393Y-130671032D01*
X117704395Y-130671036D01*
X117704396Y-130671040D01*
X117802045Y-130880449D01*
X117802047Y-130880453D01*
X117934570Y-131069715D01*
X117934575Y-131069721D01*
X118097955Y-131233101D01*
X118097961Y-131233106D01*
X118287223Y-131365629D01*
X118287225Y-131365630D01*
X118287228Y-131365632D01*
X118496637Y-131463281D01*
X118719822Y-131523083D01*
X118884234Y-131537467D01*
X118949998Y-131543221D01*
X118950000Y-131543221D01*
X118950002Y-131543221D01*
X119007544Y-131538186D01*
X119180178Y-131523083D01*
X119403363Y-131463281D01*
X119612772Y-131365632D01*
X119802043Y-131233103D01*
X119965426Y-131069720D01*
X120097955Y-130880449D01*
X120195604Y-130671040D01*
X120255406Y-130447855D01*
X120275544Y-130217677D01*
X120255406Y-129987499D01*
X120195604Y-129764314D01*
X120097955Y-129554905D01*
X120097953Y-129554902D01*
X120097952Y-129554900D01*
X119965429Y-129365638D01*
X119965424Y-129365632D01*
X119802044Y-129202252D01*
X119802038Y-129202247D01*
X119612776Y-129069724D01*
X119612772Y-129069722D01*
X119580126Y-129054499D01*
X119403363Y-128972073D01*
X119403359Y-128972072D01*
X119403355Y-128972070D01*
X119180183Y-128912272D01*
X119180179Y-128912271D01*
X119180178Y-128912271D01*
X119180177Y-128912270D01*
X119180172Y-128912270D01*
X119026104Y-128898791D01*
X133509500Y-128898791D01*
X133509500Y-129561218D01*
X133515866Y-129631281D01*
X133515868Y-129631288D01*
X133566113Y-129792531D01*
X133566116Y-129792540D01*
X133653489Y-129937073D01*
X133653492Y-129937077D01*
X133772922Y-130056507D01*
X133772926Y-130056510D01*
X133917459Y-130143883D01*
X133917462Y-130143884D01*
X134078712Y-130194132D01*
X134148789Y-130200500D01*
X135455500Y-130200499D01*
X135522539Y-130220184D01*
X135568294Y-130272987D01*
X135579500Y-130324499D01*
X135579500Y-131083095D01*
X135595095Y-131181563D01*
X135615507Y-131221622D01*
X135655567Y-131300245D01*
X135655569Y-131300247D01*
X135655571Y-131300250D01*
X135749749Y-131394428D01*
X135749753Y-131394431D01*
X135749755Y-131394433D01*
X135868438Y-131454905D01*
X135868439Y-131454905D01*
X135868441Y-131454906D01*
X135966897Y-131470499D01*
X135966903Y-131470500D01*
X137833096Y-131470499D01*
X137931562Y-131454905D01*
X138050245Y-131394433D01*
X138144433Y-131300245D01*
X138204905Y-131181562D01*
X138205153Y-131180000D01*
X138220499Y-131083102D01*
X138220500Y-131083097D01*
X138220499Y-129916904D01*
X138204905Y-129818438D01*
X138144433Y-129699755D01*
X138144429Y-129699751D01*
X138144428Y-129699749D01*
X138050250Y-129605571D01*
X138050246Y-129605568D01*
X138050245Y-129605567D01*
X137931562Y-129545095D01*
X137931561Y-129545094D01*
X137931558Y-129545093D01*
X137833102Y-129529500D01*
X137833097Y-129529500D01*
X136274499Y-129529500D01*
X136207460Y-129509815D01*
X136161705Y-129457011D01*
X136150499Y-129405500D01*
X136150499Y-129054499D01*
X136170184Y-128987460D01*
X136222988Y-128941705D01*
X136274494Y-128930499D01*
X137581210Y-128930499D01*
X137581217Y-128930499D01*
X137651281Y-128924133D01*
X137651282Y-128924132D01*
X137651288Y-128924132D01*
X137812538Y-128873884D01*
X137826563Y-128865406D01*
X137957073Y-128786510D01*
X137957072Y-128786510D01*
X137957078Y-128786507D01*
X138076507Y-128667078D01*
X138155523Y-128536369D01*
X138163883Y-128522540D01*
X138163886Y-128522531D01*
X138172309Y-128495500D01*
X138214132Y-128361288D01*
X138220500Y-128291211D01*
X138220499Y-127628790D01*
X138220499Y-127628789D01*
X138220499Y-127628781D01*
X138214133Y-127558718D01*
X138214132Y-127558714D01*
X138214132Y-127558712D01*
X138163884Y-127397462D01*
X138163883Y-127397459D01*
X138076510Y-127252926D01*
X138076507Y-127252922D01*
X137957077Y-127133492D01*
X137957073Y-127133489D01*
X137812540Y-127046116D01*
X137812531Y-127046113D01*
X137651295Y-126995870D01*
X137651293Y-126995869D01*
X137651288Y-126995868D01*
X137581211Y-126989500D01*
X137581208Y-126989500D01*
X136218781Y-126989500D01*
X136148718Y-126995866D01*
X136148711Y-126995868D01*
X135987468Y-127046113D01*
X135987459Y-127046116D01*
X135842926Y-127133489D01*
X135842922Y-127133492D01*
X135723492Y-127252922D01*
X135723489Y-127252926D01*
X135636116Y-127397459D01*
X135636113Y-127397468D01*
X135585870Y-127558704D01*
X135585868Y-127558712D01*
X135585868Y-127558718D01*
X135579500Y-127628791D01*
X135579500Y-128135500D01*
X135559815Y-128202539D01*
X135507011Y-128248294D01*
X135455500Y-128259500D01*
X134148781Y-128259500D01*
X134078718Y-128265866D01*
X134078711Y-128265868D01*
X133917468Y-128316113D01*
X133917459Y-128316116D01*
X133772926Y-128403489D01*
X133772922Y-128403492D01*
X133653492Y-128522922D01*
X133653489Y-128522926D01*
X133566116Y-128667459D01*
X133566113Y-128667468D01*
X133515870Y-128828704D01*
X133515868Y-128828714D01*
X133509500Y-128898791D01*
X119026104Y-128898791D01*
X118950002Y-128892133D01*
X118949998Y-128892133D01*
X118719827Y-128912270D01*
X118719816Y-128912272D01*
X118496644Y-128972070D01*
X118496635Y-128972074D01*
X118287227Y-129069722D01*
X118287223Y-129069724D01*
X118097961Y-129202247D01*
X118097955Y-129202252D01*
X117934575Y-129365632D01*
X117934570Y-129365638D01*
X117802047Y-129554900D01*
X117802045Y-129554904D01*
X117704397Y-129764312D01*
X117704393Y-129764321D01*
X117644595Y-129987493D01*
X117644593Y-129987504D01*
X117624456Y-130217675D01*
X78755040Y-130217675D01*
X78739042Y-130106404D01*
X78739041Y-130106400D01*
X78692504Y-130004500D01*
X78678777Y-129974442D01*
X78583775Y-129864804D01*
X78511626Y-129818436D01*
X78461730Y-129786369D01*
X78322538Y-129745500D01*
X78322536Y-129745500D01*
X78177464Y-129745500D01*
X78177461Y-129745500D01*
X78038270Y-129786369D01*
X78038269Y-129786369D01*
X77916226Y-129864803D01*
X77916225Y-129864803D01*
X77916225Y-129864804D01*
X77853600Y-129937077D01*
X77821223Y-129974442D01*
X77821222Y-129974443D01*
X77760958Y-130106400D01*
X77760957Y-130106404D01*
X77740312Y-130250000D01*
X52725988Y-130250000D01*
X52630142Y-130190655D01*
X52630135Y-130190651D01*
X52509411Y-130143883D01*
X52439956Y-130116976D01*
X52239476Y-130079500D01*
X52035524Y-130079500D01*
X51835044Y-130116976D01*
X51835041Y-130116976D01*
X51835041Y-130116977D01*
X51644864Y-130190651D01*
X51644857Y-130190655D01*
X51471460Y-130298017D01*
X51471458Y-130298019D01*
X51320737Y-130435418D01*
X51197827Y-130598178D01*
X51106922Y-130780739D01*
X51106917Y-130780752D01*
X51051102Y-130976917D01*
X51032285Y-131179999D01*
X50381500Y-131179999D01*
X50381500Y-129500000D01*
X82240312Y-129500000D01*
X82260957Y-129643595D01*
X82260958Y-129643599D01*
X82307496Y-129745500D01*
X82321223Y-129775558D01*
X82416225Y-129885196D01*
X82494659Y-129935602D01*
X82538269Y-129963630D01*
X82677461Y-130004499D01*
X82677463Y-130004500D01*
X82677464Y-130004500D01*
X82822537Y-130004500D01*
X82822537Y-130004499D01*
X82961729Y-129963630D01*
X82961730Y-129963630D01*
X82961732Y-129963629D01*
X83083775Y-129885196D01*
X83178777Y-129775558D01*
X83221664Y-129681646D01*
X83239041Y-129643599D01*
X83239042Y-129643595D01*
X83259688Y-129500000D01*
X83239042Y-129356404D01*
X83239041Y-129356400D01*
X83197640Y-129265747D01*
X83178777Y-129224442D01*
X83083775Y-129114804D01*
X83010445Y-129067677D01*
X82961730Y-129036369D01*
X82837864Y-129000000D01*
X89740312Y-129000000D01*
X89760957Y-129143595D01*
X89760958Y-129143599D01*
X89816742Y-129265747D01*
X89821223Y-129275558D01*
X89916225Y-129385196D01*
X89955947Y-129410724D01*
X90038269Y-129463630D01*
X90177461Y-129504499D01*
X90177463Y-129504500D01*
X90177464Y-129504500D01*
X90322537Y-129504500D01*
X90322537Y-129504499D01*
X90461729Y-129463630D01*
X90461730Y-129463630D01*
X90471620Y-129457274D01*
X90583775Y-129385196D01*
X90678777Y-129275558D01*
X90739042Y-129143596D01*
X90759688Y-129000000D01*
X90739042Y-128856404D01*
X90739041Y-128856400D01*
X90692504Y-128754500D01*
X90678777Y-128724442D01*
X90586259Y-128617671D01*
X106494859Y-128617671D01*
X106494859Y-128617682D01*
X106515385Y-128865406D01*
X106515387Y-128865415D01*
X106576412Y-129106394D01*
X106676266Y-129334041D01*
X106776564Y-129487559D01*
X107517037Y-128747086D01*
X107534075Y-128810670D01*
X107599901Y-128924684D01*
X107692993Y-129017776D01*
X107807007Y-129083602D01*
X107870590Y-129100639D01*
X107129942Y-129841286D01*
X107176768Y-129877732D01*
X107176770Y-129877733D01*
X107395385Y-129996041D01*
X107395396Y-129996046D01*
X107630506Y-130076760D01*
X107875707Y-130117677D01*
X108124293Y-130117677D01*
X108369493Y-130076760D01*
X108604603Y-129996046D01*
X108604614Y-129996041D01*
X108823228Y-129877734D01*
X108823231Y-129877732D01*
X108870056Y-129841286D01*
X108129409Y-129100639D01*
X108192993Y-129083602D01*
X108307007Y-129017776D01*
X108400099Y-128924684D01*
X108465925Y-128810670D01*
X108482962Y-128747086D01*
X109223434Y-129487559D01*
X109323731Y-129334046D01*
X109423587Y-129106394D01*
X109484612Y-128865415D01*
X109484614Y-128865406D01*
X109505141Y-128617682D01*
X109505141Y-128617671D01*
X109484614Y-128369947D01*
X109484612Y-128369938D01*
X109458716Y-128267677D01*
X113869117Y-128267677D01*
X114759252Y-128267677D01*
X114737482Y-128305385D01*
X114700000Y-128445268D01*
X114700000Y-128590086D01*
X114737482Y-128729969D01*
X114759252Y-128767677D01*
X113869117Y-128767677D01*
X113921317Y-128973812D01*
X114014516Y-129186286D01*
X114141414Y-129380519D01*
X114298558Y-129551222D01*
X114298562Y-129551225D01*
X114481644Y-129693724D01*
X114481648Y-129693727D01*
X114685697Y-129804153D01*
X114685706Y-129804156D01*
X114905139Y-129879488D01*
X114999999Y-129895317D01*
X115000000Y-129895316D01*
X115000000Y-129008424D01*
X115037708Y-129030195D01*
X115177591Y-129067677D01*
X115322409Y-129067677D01*
X115462292Y-129030195D01*
X115500000Y-129008424D01*
X115500000Y-129895317D01*
X115594860Y-129879488D01*
X115814293Y-129804156D01*
X115814302Y-129804153D01*
X116018351Y-129693727D01*
X116018355Y-129693724D01*
X116201437Y-129551225D01*
X116201441Y-129551222D01*
X116358585Y-129380519D01*
X116485483Y-129186286D01*
X116578682Y-128973812D01*
X116630883Y-128767677D01*
X115740748Y-128767677D01*
X115762518Y-128729969D01*
X115800000Y-128590086D01*
X115800000Y-128445268D01*
X115762518Y-128305385D01*
X115740748Y-128267677D01*
X116630883Y-128267677D01*
X116578682Y-128061541D01*
X116485483Y-127849067D01*
X116358585Y-127654834D01*
X116201441Y-127484131D01*
X116201437Y-127484128D01*
X116018355Y-127341629D01*
X116018351Y-127341626D01*
X115814302Y-127231200D01*
X115814293Y-127231197D01*
X115594861Y-127155865D01*
X115500000Y-127140036D01*
X115500000Y-128026929D01*
X115462292Y-128005159D01*
X115322409Y-127967677D01*
X115177591Y-127967677D01*
X115037708Y-128005159D01*
X115000000Y-128026929D01*
X115000000Y-127140036D01*
X114999999Y-127140036D01*
X114905138Y-127155865D01*
X114685706Y-127231197D01*
X114685697Y-127231200D01*
X114481648Y-127341626D01*
X114481644Y-127341629D01*
X114298562Y-127484128D01*
X114298558Y-127484131D01*
X114141414Y-127654834D01*
X114014516Y-127849067D01*
X113921317Y-128061541D01*
X113869117Y-128267677D01*
X109458716Y-128267677D01*
X109423587Y-128128959D01*
X109323731Y-127901307D01*
X109223434Y-127747793D01*
X108482962Y-128488266D01*
X108465925Y-128424684D01*
X108400099Y-128310670D01*
X108307007Y-128217578D01*
X108192993Y-128151752D01*
X108129410Y-128134714D01*
X108870057Y-127394067D01*
X108870056Y-127394066D01*
X108823229Y-127357620D01*
X108604614Y-127239312D01*
X108604603Y-127239307D01*
X108369493Y-127158593D01*
X108124293Y-127117677D01*
X107875707Y-127117677D01*
X107630506Y-127158593D01*
X107395396Y-127239307D01*
X107395390Y-127239309D01*
X107176761Y-127357626D01*
X107129942Y-127394065D01*
X107129942Y-127394067D01*
X107870590Y-128134714D01*
X107807007Y-128151752D01*
X107692993Y-128217578D01*
X107599901Y-128310670D01*
X107534075Y-128424684D01*
X107517037Y-128488266D01*
X106776564Y-127747793D01*
X106676267Y-127901309D01*
X106576412Y-128128959D01*
X106515387Y-128369938D01*
X106515385Y-128369947D01*
X106494859Y-128617671D01*
X90586259Y-128617671D01*
X90583775Y-128614804D01*
X90545313Y-128590086D01*
X90461730Y-128536369D01*
X90322538Y-128495500D01*
X90322536Y-128495500D01*
X90177464Y-128495500D01*
X90177461Y-128495500D01*
X90038270Y-128536369D01*
X90038269Y-128536369D01*
X89916226Y-128614803D01*
X89916225Y-128614803D01*
X89916225Y-128614804D01*
X89913736Y-128617677D01*
X89821223Y-128724442D01*
X89821222Y-128724443D01*
X89760958Y-128856400D01*
X89760957Y-128856404D01*
X89740312Y-129000000D01*
X82837864Y-129000000D01*
X82822538Y-128995500D01*
X82822536Y-128995500D01*
X82677464Y-128995500D01*
X82677461Y-128995500D01*
X82538270Y-129036369D01*
X82538269Y-129036369D01*
X82416226Y-129114803D01*
X82416225Y-129114803D01*
X82416225Y-129114804D01*
X82391277Y-129143596D01*
X82321223Y-129224442D01*
X82321222Y-129224443D01*
X82260958Y-129356400D01*
X82260957Y-129356404D01*
X82240312Y-129500000D01*
X50381500Y-129500000D01*
X50381500Y-127635746D01*
X50401185Y-127568707D01*
X50453989Y-127522952D01*
X50523147Y-127513008D01*
X50586703Y-127542033D01*
X50619056Y-127585937D01*
X50676265Y-127716362D01*
X50776564Y-127869882D01*
X51476212Y-127170234D01*
X51487482Y-127212292D01*
X51559890Y-127337708D01*
X51662292Y-127440110D01*
X51787708Y-127512518D01*
X51829765Y-127523787D01*
X51129942Y-128223609D01*
X51176768Y-128260055D01*
X51176770Y-128260056D01*
X51395385Y-128378364D01*
X51395396Y-128378369D01*
X51630506Y-128459083D01*
X51875707Y-128500000D01*
X52124293Y-128500000D01*
X52369493Y-128459083D01*
X52604603Y-128378369D01*
X52604614Y-128378364D01*
X52823228Y-128260057D01*
X52823231Y-128260055D01*
X52870056Y-128223609D01*
X52170234Y-127523787D01*
X52212292Y-127512518D01*
X52337708Y-127440110D01*
X52440110Y-127337708D01*
X52512518Y-127212292D01*
X52523787Y-127170235D01*
X53223434Y-127869882D01*
X53323731Y-127716369D01*
X53423587Y-127488717D01*
X53484612Y-127247738D01*
X53484614Y-127247729D01*
X53505141Y-127000005D01*
X53505141Y-126999994D01*
X56994859Y-126999994D01*
X56994859Y-127000005D01*
X57015385Y-127247729D01*
X57015387Y-127247738D01*
X57076412Y-127488717D01*
X57176266Y-127716364D01*
X57276564Y-127869882D01*
X57976212Y-127170234D01*
X57987482Y-127212292D01*
X58059890Y-127337708D01*
X58162292Y-127440110D01*
X58287708Y-127512518D01*
X58329765Y-127523787D01*
X57629942Y-128223609D01*
X57676768Y-128260055D01*
X57676770Y-128260056D01*
X57895385Y-128378364D01*
X57895396Y-128378369D01*
X58130506Y-128459083D01*
X58375707Y-128500000D01*
X58624293Y-128500000D01*
X58869493Y-128459083D01*
X59104603Y-128378369D01*
X59104614Y-128378364D01*
X59323228Y-128260057D01*
X59323231Y-128260055D01*
X59336149Y-128250000D01*
X64490312Y-128250000D01*
X64510957Y-128393595D01*
X64510958Y-128393599D01*
X64569844Y-128522538D01*
X64571223Y-128525558D01*
X64666225Y-128635196D01*
X64744659Y-128685602D01*
X64788269Y-128713630D01*
X64927461Y-128754499D01*
X64927463Y-128754500D01*
X64927464Y-128754500D01*
X65072537Y-128754500D01*
X65072537Y-128754499D01*
X65211729Y-128713630D01*
X65211730Y-128713630D01*
X65211732Y-128713629D01*
X65333775Y-128635196D01*
X65428777Y-128525558D01*
X65489042Y-128393596D01*
X65509688Y-128250000D01*
X65489042Y-128106404D01*
X65489041Y-128106400D01*
X65428777Y-127974443D01*
X65428777Y-127974442D01*
X65333775Y-127864804D01*
X65298950Y-127842423D01*
X65211730Y-127786369D01*
X65072538Y-127745500D01*
X65072536Y-127745500D01*
X64927464Y-127745500D01*
X64927461Y-127745500D01*
X64788270Y-127786369D01*
X64788269Y-127786369D01*
X64666226Y-127864803D01*
X64571223Y-127974442D01*
X64571222Y-127974443D01*
X64510958Y-128106400D01*
X64510957Y-128106404D01*
X64490312Y-128250000D01*
X59336149Y-128250000D01*
X59370056Y-128223609D01*
X58670234Y-127523787D01*
X58712292Y-127512518D01*
X58837708Y-127440110D01*
X58940110Y-127337708D01*
X59012518Y-127212292D01*
X59023787Y-127170235D01*
X59723434Y-127869882D01*
X59823731Y-127716369D01*
X59923587Y-127488717D01*
X59984612Y-127247738D01*
X59984614Y-127247729D01*
X60005141Y-127000005D01*
X60005141Y-126999994D01*
X59990034Y-126817677D01*
X117794571Y-126817677D01*
X117814244Y-127029987D01*
X117843694Y-127133493D01*
X117872596Y-127235069D01*
X117872596Y-127235071D01*
X117967632Y-127425930D01*
X118088465Y-127585937D01*
X118096128Y-127596084D01*
X118253698Y-127739729D01*
X118434981Y-127851975D01*
X118633802Y-127928998D01*
X118843390Y-127968177D01*
X118843392Y-127968177D01*
X119056608Y-127968177D01*
X119056610Y-127968177D01*
X119266198Y-127928998D01*
X119465019Y-127851975D01*
X119646302Y-127739729D01*
X119803872Y-127596084D01*
X119932366Y-127425932D01*
X119968406Y-127353553D01*
X120027403Y-127235071D01*
X120027403Y-127235070D01*
X120027405Y-127235066D01*
X120085756Y-127029987D01*
X120105429Y-126817677D01*
X120085756Y-126605367D01*
X120027405Y-126400288D01*
X120027403Y-126400283D01*
X120027403Y-126400282D01*
X119932367Y-126209423D01*
X119803872Y-126039270D01*
X119646302Y-125895625D01*
X119465019Y-125783379D01*
X119465017Y-125783378D01*
X119352897Y-125739943D01*
X119266198Y-125706356D01*
X119056610Y-125667177D01*
X118843390Y-125667177D01*
X118633802Y-125706356D01*
X118633799Y-125706356D01*
X118633799Y-125706357D01*
X118434982Y-125783378D01*
X118434980Y-125783379D01*
X118253699Y-125895624D01*
X118096127Y-126039270D01*
X117967632Y-126209423D01*
X117872596Y-126400282D01*
X117872596Y-126400284D01*
X117814244Y-126605366D01*
X117800633Y-126752261D01*
X117794571Y-126817677D01*
X59990034Y-126817677D01*
X59984614Y-126752270D01*
X59984612Y-126752261D01*
X59923587Y-126511282D01*
X59823731Y-126283630D01*
X59723434Y-126130116D01*
X59023787Y-126829764D01*
X59012518Y-126787708D01*
X58940110Y-126662292D01*
X58837708Y-126559890D01*
X58712292Y-126487482D01*
X58670235Y-126476212D01*
X59370057Y-125776390D01*
X59370056Y-125776389D01*
X59323229Y-125739943D01*
X59104614Y-125621635D01*
X59104603Y-125621630D01*
X58869493Y-125540916D01*
X58624293Y-125500000D01*
X58375707Y-125500000D01*
X58130506Y-125540916D01*
X57895396Y-125621630D01*
X57895390Y-125621632D01*
X57676761Y-125739949D01*
X57629942Y-125776388D01*
X57629942Y-125776390D01*
X58329765Y-126476212D01*
X58287708Y-126487482D01*
X58162292Y-126559890D01*
X58059890Y-126662292D01*
X57987482Y-126787708D01*
X57976212Y-126829764D01*
X57276564Y-126130116D01*
X57176267Y-126283632D01*
X57076412Y-126511282D01*
X57015387Y-126752261D01*
X57015385Y-126752270D01*
X56994859Y-126999994D01*
X53505141Y-126999994D01*
X53484614Y-126752270D01*
X53484612Y-126752261D01*
X53423587Y-126511282D01*
X53323731Y-126283630D01*
X53223434Y-126130116D01*
X52523787Y-126829764D01*
X52512518Y-126787708D01*
X52440110Y-126662292D01*
X52337708Y-126559890D01*
X52212292Y-126487482D01*
X52170235Y-126476212D01*
X52870057Y-125776390D01*
X52870056Y-125776389D01*
X52823229Y-125739943D01*
X52604614Y-125621635D01*
X52604603Y-125621630D01*
X52369493Y-125540916D01*
X52124293Y-125500000D01*
X51875707Y-125500000D01*
X51630506Y-125540916D01*
X51395396Y-125621630D01*
X51395390Y-125621632D01*
X51176761Y-125739949D01*
X51129942Y-125776388D01*
X51129942Y-125776390D01*
X51829765Y-126476212D01*
X51787708Y-126487482D01*
X51662292Y-126559890D01*
X51559890Y-126662292D01*
X51487482Y-126787708D01*
X51476212Y-126829764D01*
X50776564Y-126130116D01*
X50676267Y-126283632D01*
X50619056Y-126414063D01*
X50574100Y-126467549D01*
X50507364Y-126488239D01*
X50440036Y-126469565D01*
X50393493Y-126417454D01*
X50381500Y-126364253D01*
X50381500Y-122499997D01*
X50744723Y-122499997D01*
X50744723Y-122500002D01*
X50763793Y-122717975D01*
X50763793Y-122717979D01*
X50820422Y-122929322D01*
X50820424Y-122929326D01*
X50820425Y-122929330D01*
X50866661Y-123028484D01*
X50912897Y-123127638D01*
X50912898Y-123127639D01*
X51038402Y-123306877D01*
X51193123Y-123461598D01*
X51372361Y-123587102D01*
X51570670Y-123679575D01*
X51782023Y-123736207D01*
X51964926Y-123752208D01*
X51999998Y-123755277D01*
X52000000Y-123755277D01*
X52000002Y-123755277D01*
X52028254Y-123752805D01*
X52217977Y-123736207D01*
X52429330Y-123679575D01*
X52627639Y-123587102D01*
X52806877Y-123461598D01*
X52961598Y-123306877D01*
X53087102Y-123127639D01*
X53179575Y-122929330D01*
X53236207Y-122717977D01*
X53255277Y-122500000D01*
X53255277Y-122499997D01*
X57244723Y-122499997D01*
X57244723Y-122500002D01*
X57263793Y-122717975D01*
X57263793Y-122717979D01*
X57320422Y-122929322D01*
X57320424Y-122929326D01*
X57320425Y-122929330D01*
X57366661Y-123028484D01*
X57412897Y-123127638D01*
X57412898Y-123127639D01*
X57538402Y-123306877D01*
X57693123Y-123461598D01*
X57872361Y-123587102D01*
X58070670Y-123679575D01*
X58282023Y-123736207D01*
X58464926Y-123752208D01*
X58499998Y-123755277D01*
X58500000Y-123755277D01*
X58500002Y-123755277D01*
X58528254Y-123752805D01*
X58560316Y-123750000D01*
X85240312Y-123750000D01*
X85260957Y-123893595D01*
X85260958Y-123893599D01*
X85307496Y-123995500D01*
X85321223Y-124025558D01*
X85416225Y-124135196D01*
X85494659Y-124185602D01*
X85538269Y-124213630D01*
X85677461Y-124254499D01*
X85677463Y-124254500D01*
X85677464Y-124254500D01*
X85822536Y-124254500D01*
X85849428Y-124246604D01*
X85919298Y-124246604D01*
X85978076Y-124284378D01*
X86007101Y-124347934D01*
X86007101Y-124383228D01*
X85990312Y-124499999D01*
X86010957Y-124643595D01*
X86010958Y-124643599D01*
X86071222Y-124775556D01*
X86071223Y-124775558D01*
X86166225Y-124885196D01*
X86244659Y-124935602D01*
X86288269Y-124963630D01*
X86427461Y-125004499D01*
X86427463Y-125004500D01*
X86427464Y-125004500D01*
X86572537Y-125004500D01*
X86572537Y-125004499D01*
X86587860Y-125000000D01*
X94240312Y-125000000D01*
X94260957Y-125143595D01*
X94260958Y-125143599D01*
X94321222Y-125275556D01*
X94321223Y-125275558D01*
X94416225Y-125385196D01*
X94494659Y-125435602D01*
X94538269Y-125463630D01*
X94677461Y-125504499D01*
X94677463Y-125504500D01*
X94677464Y-125504500D01*
X94822537Y-125504500D01*
X94822537Y-125504499D01*
X94961729Y-125463630D01*
X94961730Y-125463630D01*
X94961732Y-125463629D01*
X95083775Y-125385196D01*
X95178777Y-125275558D01*
X95239042Y-125143596D01*
X95259688Y-125000000D01*
X95239042Y-124856404D01*
X95239041Y-124856400D01*
X95178777Y-124724443D01*
X95178777Y-124724442D01*
X95083775Y-124614804D01*
X95048950Y-124592423D01*
X94961730Y-124536369D01*
X94822538Y-124495500D01*
X94822536Y-124495500D01*
X94677464Y-124495500D01*
X94677461Y-124495500D01*
X94538270Y-124536369D01*
X94538269Y-124536369D01*
X94416226Y-124614803D01*
X94416225Y-124614803D01*
X94416225Y-124614804D01*
X94391277Y-124643596D01*
X94321223Y-124724442D01*
X94321222Y-124724443D01*
X94260958Y-124856400D01*
X94260957Y-124856404D01*
X94240312Y-125000000D01*
X86587860Y-125000000D01*
X86711729Y-124963630D01*
X86711730Y-124963630D01*
X86711732Y-124963629D01*
X86833775Y-124885196D01*
X86928777Y-124775558D01*
X86989042Y-124643596D01*
X87009688Y-124500000D01*
X86989042Y-124356404D01*
X86989041Y-124356400D01*
X86942504Y-124254500D01*
X86928777Y-124224442D01*
X86833775Y-124114804D01*
X86798950Y-124092423D01*
X86711730Y-124036369D01*
X86572538Y-123995500D01*
X86572536Y-123995500D01*
X86427464Y-123995500D01*
X86427460Y-123995500D01*
X86400567Y-124003396D01*
X86330697Y-124003394D01*
X86271920Y-123965618D01*
X86242898Y-123902061D01*
X86242898Y-123866776D01*
X86259688Y-123750000D01*
X97740312Y-123750000D01*
X97760957Y-123893595D01*
X97760958Y-123893599D01*
X97807496Y-123995500D01*
X97821223Y-124025558D01*
X97916225Y-124135196D01*
X97994659Y-124185602D01*
X98038269Y-124213630D01*
X98177461Y-124254499D01*
X98177463Y-124254500D01*
X98177464Y-124254500D01*
X98322537Y-124254500D01*
X98322537Y-124254499D01*
X98461729Y-124213630D01*
X98461730Y-124213630D01*
X98493826Y-124193003D01*
X98493834Y-124192998D01*
X114099500Y-124192998D01*
X114099500Y-126042355D01*
X114114032Y-126115412D01*
X114114033Y-126115416D01*
X114114034Y-126115417D01*
X114169399Y-126198278D01*
X114252260Y-126253643D01*
X114252264Y-126253644D01*
X114325321Y-126268176D01*
X114325324Y-126268177D01*
X114325326Y-126268177D01*
X116174676Y-126268177D01*
X116174677Y-126268176D01*
X116247740Y-126253643D01*
X116330601Y-126198278D01*
X116385966Y-126115417D01*
X116400500Y-126042351D01*
X116400500Y-124193003D01*
X116400500Y-124193000D01*
X116400499Y-124192998D01*
X116385967Y-124119941D01*
X116385966Y-124119937D01*
X116382536Y-124114803D01*
X116330601Y-124037076D01*
X116247740Y-123981711D01*
X116247739Y-123981710D01*
X116247735Y-123981709D01*
X116174677Y-123967177D01*
X116174674Y-123967177D01*
X114325326Y-123967177D01*
X114325323Y-123967177D01*
X114252264Y-123981709D01*
X114252260Y-123981710D01*
X114169399Y-124037076D01*
X114114033Y-124119937D01*
X114114032Y-124119941D01*
X114099500Y-124192998D01*
X98493834Y-124192998D01*
X98583775Y-124135196D01*
X98678777Y-124025558D01*
X98739042Y-123893596D01*
X98759688Y-123750000D01*
X98739042Y-123606404D01*
X98739041Y-123606400D01*
X98678777Y-123474443D01*
X98678777Y-123474442D01*
X98583775Y-123364804D01*
X98548950Y-123342423D01*
X98461730Y-123286369D01*
X98322538Y-123245500D01*
X98322536Y-123245500D01*
X98177464Y-123245500D01*
X98177461Y-123245500D01*
X98038270Y-123286369D01*
X98038269Y-123286369D01*
X97916226Y-123364803D01*
X97821223Y-123474442D01*
X97821222Y-123474443D01*
X97760958Y-123606400D01*
X97760957Y-123606404D01*
X97740312Y-123750000D01*
X86259688Y-123750000D01*
X86239042Y-123606404D01*
X86239041Y-123606400D01*
X86178777Y-123474443D01*
X86178777Y-123474442D01*
X86083775Y-123364804D01*
X86048950Y-123342423D01*
X85961730Y-123286369D01*
X85822538Y-123245500D01*
X85822536Y-123245500D01*
X85677464Y-123245500D01*
X85677461Y-123245500D01*
X85538270Y-123286369D01*
X85538269Y-123286369D01*
X85416226Y-123364803D01*
X85321223Y-123474442D01*
X85321222Y-123474443D01*
X85260958Y-123606400D01*
X85260957Y-123606404D01*
X85240312Y-123750000D01*
X58560316Y-123750000D01*
X58717977Y-123736207D01*
X58929330Y-123679575D01*
X59127639Y-123587102D01*
X59306877Y-123461598D01*
X59461598Y-123306877D01*
X59587102Y-123127639D01*
X59679575Y-122929330D01*
X59736207Y-122717977D01*
X59755277Y-122500000D01*
X59736207Y-122282023D01*
X59679575Y-122070670D01*
X59587102Y-121872362D01*
X59587100Y-121872359D01*
X59587099Y-121872357D01*
X59501424Y-121750000D01*
X85240312Y-121750000D01*
X85260957Y-121893595D01*
X85260958Y-121893599D01*
X85321222Y-122025556D01*
X85321223Y-122025558D01*
X85416225Y-122135196D01*
X85494659Y-122185602D01*
X85538269Y-122213630D01*
X85677461Y-122254499D01*
X85677463Y-122254500D01*
X85677464Y-122254500D01*
X85822537Y-122254500D01*
X85822537Y-122254499D01*
X85961729Y-122213630D01*
X85961730Y-122213630D01*
X85961732Y-122213629D01*
X86083775Y-122135196D01*
X86178777Y-122025558D01*
X86239042Y-121893596D01*
X86259688Y-121750000D01*
X86239042Y-121606404D01*
X86239041Y-121606400D01*
X86192504Y-121504500D01*
X86178777Y-121474442D01*
X86083775Y-121364804D01*
X86048950Y-121342423D01*
X85961730Y-121286369D01*
X85822538Y-121245500D01*
X85822536Y-121245500D01*
X85677464Y-121245500D01*
X85677461Y-121245500D01*
X85538270Y-121286369D01*
X85538269Y-121286369D01*
X85416226Y-121364803D01*
X85321223Y-121474442D01*
X85321222Y-121474443D01*
X85260958Y-121606400D01*
X85260957Y-121606404D01*
X85240312Y-121750000D01*
X59501424Y-121750000D01*
X59461599Y-121693124D01*
X59461596Y-121693121D01*
X59306877Y-121538402D01*
X59127639Y-121412898D01*
X59127640Y-121412898D01*
X59127638Y-121412897D01*
X59024499Y-121364803D01*
X58929330Y-121320425D01*
X58929326Y-121320424D01*
X58929322Y-121320422D01*
X58717977Y-121263793D01*
X58500002Y-121244723D01*
X58499998Y-121244723D01*
X58354682Y-121257436D01*
X58282023Y-121263793D01*
X58282020Y-121263793D01*
X58070677Y-121320422D01*
X58070668Y-121320426D01*
X57872361Y-121412898D01*
X57872357Y-121412900D01*
X57693121Y-121538402D01*
X57538402Y-121693121D01*
X57412900Y-121872357D01*
X57412898Y-121872361D01*
X57320426Y-122070668D01*
X57320422Y-122070677D01*
X57263793Y-122282020D01*
X57263793Y-122282024D01*
X57244723Y-122499997D01*
X53255277Y-122499997D01*
X53236207Y-122282023D01*
X53179575Y-122070670D01*
X53087102Y-121872362D01*
X53087100Y-121872359D01*
X53087099Y-121872357D01*
X52961599Y-121693124D01*
X52961596Y-121693121D01*
X52806877Y-121538402D01*
X52627639Y-121412898D01*
X52627640Y-121412898D01*
X52627638Y-121412897D01*
X52524499Y-121364803D01*
X52429330Y-121320425D01*
X52429326Y-121320424D01*
X52429322Y-121320422D01*
X52217977Y-121263793D01*
X52000002Y-121244723D01*
X51999998Y-121244723D01*
X51854682Y-121257436D01*
X51782023Y-121263793D01*
X51782020Y-121263793D01*
X51570677Y-121320422D01*
X51570668Y-121320426D01*
X51372361Y-121412898D01*
X51372357Y-121412900D01*
X51193121Y-121538402D01*
X51038402Y-121693121D01*
X50912900Y-121872357D01*
X50912898Y-121872361D01*
X50820426Y-122070668D01*
X50820422Y-122070677D01*
X50763793Y-122282020D01*
X50763793Y-122282024D01*
X50744723Y-122499997D01*
X50381500Y-122499997D01*
X50381500Y-121000000D01*
X90740312Y-121000000D01*
X90760957Y-121143595D01*
X90760958Y-121143599D01*
X90802357Y-121234248D01*
X90821223Y-121275558D01*
X90916225Y-121385196D01*
X90959330Y-121412898D01*
X91038269Y-121463630D01*
X91177461Y-121504499D01*
X91177463Y-121504500D01*
X91177464Y-121504500D01*
X91322537Y-121504500D01*
X91322537Y-121504499D01*
X91461729Y-121463630D01*
X91461730Y-121463630D01*
X91461732Y-121463629D01*
X91583775Y-121385196D01*
X91678777Y-121275558D01*
X91721664Y-121181646D01*
X91739041Y-121143599D01*
X91739042Y-121143595D01*
X91759688Y-121000000D01*
X91739042Y-120856404D01*
X91739041Y-120856400D01*
X91678777Y-120724443D01*
X91678777Y-120724442D01*
X91583775Y-120614804D01*
X91548950Y-120592423D01*
X91461730Y-120536369D01*
X91322538Y-120495500D01*
X91322536Y-120495500D01*
X91177464Y-120495500D01*
X91177461Y-120495500D01*
X91038270Y-120536369D01*
X91038269Y-120536369D01*
X90916226Y-120614803D01*
X90916225Y-120614803D01*
X90916225Y-120614804D01*
X90821223Y-120724442D01*
X90821222Y-120724443D01*
X90760958Y-120856400D01*
X90760957Y-120856404D01*
X90740312Y-121000000D01*
X50381500Y-121000000D01*
X50381500Y-116045000D01*
X57537601Y-116045000D01*
X57557149Y-116243481D01*
X57557149Y-116243483D01*
X57557150Y-116243485D01*
X57615046Y-116434342D01*
X57615048Y-116434348D01*
X57709060Y-116610231D01*
X57709065Y-116610238D01*
X57835589Y-116764410D01*
X57942875Y-116852456D01*
X57989763Y-116890936D01*
X57989766Y-116890937D01*
X57989768Y-116890939D01*
X58165651Y-116984951D01*
X58165654Y-116984951D01*
X58165658Y-116984954D01*
X58356515Y-117042850D01*
X58555000Y-117062399D01*
X58753485Y-117042850D01*
X58944342Y-116984954D01*
X59120237Y-116890936D01*
X59274410Y-116764410D01*
X59400936Y-116610237D01*
X59447945Y-116522289D01*
X59494951Y-116434348D01*
X59494951Y-116434347D01*
X59494954Y-116434342D01*
X59552850Y-116243485D01*
X59572399Y-116045000D01*
X60077601Y-116045000D01*
X60097149Y-116243481D01*
X60097149Y-116243483D01*
X60097150Y-116243485D01*
X60155046Y-116434342D01*
X60155048Y-116434348D01*
X60249060Y-116610231D01*
X60249065Y-116610238D01*
X60375589Y-116764410D01*
X60482875Y-116852456D01*
X60529763Y-116890936D01*
X60529766Y-116890937D01*
X60529768Y-116890939D01*
X60705651Y-116984951D01*
X60705654Y-116984951D01*
X60705658Y-116984954D01*
X60896515Y-117042850D01*
X61095000Y-117062399D01*
X61293485Y-117042850D01*
X61484342Y-116984954D01*
X61660237Y-116890936D01*
X61814410Y-116764410D01*
X61940936Y-116610237D01*
X61987945Y-116522289D01*
X62034951Y-116434348D01*
X62034951Y-116434347D01*
X62034954Y-116434342D01*
X62092850Y-116243485D01*
X62112399Y-116045000D01*
X62617601Y-116045000D01*
X62637149Y-116243481D01*
X62637149Y-116243483D01*
X62637150Y-116243485D01*
X62695046Y-116434342D01*
X62695048Y-116434348D01*
X62789060Y-116610231D01*
X62789065Y-116610238D01*
X62915589Y-116764410D01*
X63022875Y-116852456D01*
X63069763Y-116890936D01*
X63069766Y-116890937D01*
X63069768Y-116890939D01*
X63245651Y-116984951D01*
X63245654Y-116984951D01*
X63245658Y-116984954D01*
X63436515Y-117042850D01*
X63635000Y-117062399D01*
X63833485Y-117042850D01*
X64024342Y-116984954D01*
X64200237Y-116890936D01*
X64354410Y-116764410D01*
X64480936Y-116610237D01*
X64527945Y-116522289D01*
X64574951Y-116434348D01*
X64574951Y-116434347D01*
X64574954Y-116434342D01*
X64632850Y-116243485D01*
X64652399Y-116045000D01*
X65157601Y-116045000D01*
X65177149Y-116243481D01*
X65177149Y-116243483D01*
X65177150Y-116243485D01*
X65235046Y-116434342D01*
X65235048Y-116434348D01*
X65329060Y-116610231D01*
X65329065Y-116610238D01*
X65455589Y-116764410D01*
X65562875Y-116852456D01*
X65609763Y-116890936D01*
X65609766Y-116890937D01*
X65609768Y-116890939D01*
X65785651Y-116984951D01*
X65785654Y-116984951D01*
X65785658Y-116984954D01*
X65976515Y-117042850D01*
X66175000Y-117062399D01*
X66373485Y-117042850D01*
X66564342Y-116984954D01*
X66740237Y-116890936D01*
X66894410Y-116764410D01*
X67020936Y-116610237D01*
X67067945Y-116522289D01*
X67114951Y-116434348D01*
X67114951Y-116434347D01*
X67114954Y-116434342D01*
X67172850Y-116243485D01*
X67192399Y-116045000D01*
X67192399Y-116044999D01*
X67448179Y-116044999D01*
X67448179Y-116045000D01*
X67467424Y-116264976D01*
X67467426Y-116264986D01*
X67524575Y-116478270D01*
X67524580Y-116478284D01*
X67617898Y-116678405D01*
X67617901Y-116678411D01*
X67663258Y-116743187D01*
X67663259Y-116743188D01*
X68334000Y-116072447D01*
X68334000Y-116095160D01*
X68359964Y-116192061D01*
X68410124Y-116278940D01*
X68481060Y-116349876D01*
X68567939Y-116400036D01*
X68664840Y-116426000D01*
X68687553Y-116426000D01*
X68016810Y-117096740D01*
X68081590Y-117142099D01*
X68081592Y-117142100D01*
X68281715Y-117235419D01*
X68281729Y-117235424D01*
X68495013Y-117292573D01*
X68495023Y-117292575D01*
X68714999Y-117311821D01*
X68715001Y-117311821D01*
X68934976Y-117292575D01*
X68934986Y-117292573D01*
X69148270Y-117235424D01*
X69148284Y-117235419D01*
X69348407Y-117142100D01*
X69348417Y-117142094D01*
X69413188Y-117096741D01*
X68742448Y-116426000D01*
X68765160Y-116426000D01*
X68862061Y-116400036D01*
X68948940Y-116349876D01*
X69019876Y-116278940D01*
X69070036Y-116192061D01*
X69096000Y-116095160D01*
X69096000Y-116072447D01*
X69766741Y-116743188D01*
X69812094Y-116678417D01*
X69812100Y-116678407D01*
X69905419Y-116478284D01*
X69905424Y-116478270D01*
X69962573Y-116264986D01*
X69962575Y-116264976D01*
X69981821Y-116045000D01*
X69981821Y-116044999D01*
X69973490Y-115949775D01*
X128618500Y-115949775D01*
X128618500Y-121050225D01*
X128644499Y-121147254D01*
X128694724Y-121234247D01*
X128765753Y-121305276D01*
X128852746Y-121355501D01*
X128949775Y-121381500D01*
X128949778Y-121381500D01*
X149050222Y-121381500D01*
X149050225Y-121381500D01*
X149147254Y-121355501D01*
X149234247Y-121305276D01*
X149305276Y-121234247D01*
X149355501Y-121147254D01*
X149381500Y-121050225D01*
X149381500Y-118771076D01*
X152529823Y-118771076D01*
X152538406Y-118994506D01*
X152538406Y-118994507D01*
X152581833Y-119213825D01*
X152581838Y-119213841D01*
X152659037Y-119423668D01*
X152659045Y-119423684D01*
X152768115Y-119618844D01*
X152768122Y-119618854D01*
X152906393Y-119794565D01*
X152962637Y-119846647D01*
X153070445Y-119946479D01*
X153256247Y-120070865D01*
X153256256Y-120070870D01*
X153378266Y-120127246D01*
X153459220Y-120164652D01*
X153674361Y-120225531D01*
X153674362Y-120225531D01*
X153674365Y-120225532D01*
X153896383Y-120252007D01*
X154869258Y-120214634D01*
X155088591Y-120171204D01*
X155298431Y-120093999D01*
X155493608Y-119984918D01*
X155669319Y-119846647D01*
X155821236Y-119682591D01*
X155883878Y-119589017D01*
X155937528Y-119544260D01*
X156006861Y-119535613D01*
X156069862Y-119565823D01*
X156084364Y-119581315D01*
X156153999Y-119669805D01*
X156210243Y-119721887D01*
X156318051Y-119821719D01*
X156503853Y-119946105D01*
X156503862Y-119946110D01*
X156673248Y-120024376D01*
X156706826Y-120039892D01*
X156921967Y-120100771D01*
X156921968Y-120100771D01*
X156921971Y-120100772D01*
X157143989Y-120127247D01*
X158116864Y-120089874D01*
X158336197Y-120046444D01*
X158546037Y-119969239D01*
X158741214Y-119860158D01*
X158916925Y-119721887D01*
X159068842Y-119557831D01*
X159193226Y-119372031D01*
X159287013Y-119169060D01*
X159347892Y-118953915D01*
X159374367Y-118731897D01*
X159365784Y-118508470D01*
X159322354Y-118289138D01*
X159264153Y-118130950D01*
X159245152Y-118079305D01*
X159245150Y-118079301D01*
X159245149Y-118079298D01*
X159204287Y-118006183D01*
X159136074Y-117884129D01*
X159136067Y-117884119D01*
X159095973Y-117833169D01*
X158997797Y-117708409D01*
X158912046Y-117629003D01*
X158833744Y-117556494D01*
X158647942Y-117432108D01*
X158647933Y-117432103D01*
X158444980Y-117338326D01*
X158444972Y-117338322D01*
X158229828Y-117277442D01*
X158229830Y-117277442D01*
X158007808Y-117250967D01*
X157034929Y-117288340D01*
X157034928Y-117288340D01*
X156815610Y-117331767D01*
X156815594Y-117331772D01*
X156605767Y-117408971D01*
X156605751Y-117408979D01*
X156410591Y-117518049D01*
X156410581Y-117518056D01*
X156272310Y-117626865D01*
X156252041Y-117642816D01*
X156234870Y-117656328D01*
X156082955Y-117820380D01*
X156082955Y-117820381D01*
X156020311Y-117913956D01*
X155966660Y-117958713D01*
X155897327Y-117967360D01*
X155834326Y-117937149D01*
X155819824Y-117921657D01*
X155813764Y-117913956D01*
X155750191Y-117833169D01*
X155664440Y-117753763D01*
X155586138Y-117681254D01*
X155400336Y-117556868D01*
X155400327Y-117556863D01*
X155197374Y-117463086D01*
X155197366Y-117463082D01*
X154982222Y-117402202D01*
X154982224Y-117402202D01*
X154760202Y-117375727D01*
X153787323Y-117413100D01*
X153787322Y-117413100D01*
X153568004Y-117456527D01*
X153567988Y-117456532D01*
X153358161Y-117533731D01*
X153358145Y-117533739D01*
X153162985Y-117642809D01*
X153162975Y-117642816D01*
X152987264Y-117781088D01*
X152835350Y-117945139D01*
X152710964Y-118130941D01*
X152710959Y-118130950D01*
X152617179Y-118333910D01*
X152556298Y-118549055D01*
X152529823Y-118771076D01*
X149381500Y-118771076D01*
X149381500Y-115949775D01*
X149355501Y-115852746D01*
X149305276Y-115765753D01*
X149234247Y-115694724D01*
X149147254Y-115644499D01*
X149147255Y-115644499D01*
X149122996Y-115637999D01*
X149050225Y-115618500D01*
X129050225Y-115618500D01*
X128949775Y-115618500D01*
X128877003Y-115637999D01*
X128852745Y-115644499D01*
X128765754Y-115694723D01*
X128765751Y-115694725D01*
X128694725Y-115765751D01*
X128694723Y-115765754D01*
X128644499Y-115852745D01*
X128644499Y-115852746D01*
X128618500Y-115949775D01*
X69973490Y-115949775D01*
X69962575Y-115825023D01*
X69962573Y-115825013D01*
X69905424Y-115611729D01*
X69905420Y-115611720D01*
X69812096Y-115411586D01*
X69766741Y-115346811D01*
X69766740Y-115346810D01*
X69096000Y-116017551D01*
X69096000Y-115994840D01*
X69070036Y-115897939D01*
X69019876Y-115811060D01*
X68948940Y-115740124D01*
X68862061Y-115689964D01*
X68765160Y-115664000D01*
X68742448Y-115664000D01*
X69413188Y-114993259D01*
X69413187Y-114993258D01*
X69348411Y-114947901D01*
X69348405Y-114947898D01*
X69148284Y-114854580D01*
X69148270Y-114854575D01*
X68934986Y-114797426D01*
X68934976Y-114797424D01*
X68715001Y-114778179D01*
X68714999Y-114778179D01*
X68495023Y-114797424D01*
X68495013Y-114797426D01*
X68281729Y-114854575D01*
X68281720Y-114854579D01*
X68081590Y-114947901D01*
X68016811Y-114993258D01*
X68687553Y-115664000D01*
X68664840Y-115664000D01*
X68567939Y-115689964D01*
X68481060Y-115740124D01*
X68410124Y-115811060D01*
X68359964Y-115897939D01*
X68334000Y-115994840D01*
X68334000Y-116017553D01*
X67663258Y-115346811D01*
X67617901Y-115411590D01*
X67524579Y-115611720D01*
X67524575Y-115611729D01*
X67467426Y-115825013D01*
X67467424Y-115825023D01*
X67448179Y-116044999D01*
X67192399Y-116044999D01*
X67172850Y-115846515D01*
X67114954Y-115655658D01*
X67114951Y-115655654D01*
X67114951Y-115655651D01*
X67020939Y-115479768D01*
X67020937Y-115479766D01*
X67020936Y-115479763D01*
X66911825Y-115346810D01*
X66894410Y-115325589D01*
X66740238Y-115199065D01*
X66740231Y-115199060D01*
X66564348Y-115105048D01*
X66564342Y-115105046D01*
X66373485Y-115047150D01*
X66373483Y-115047149D01*
X66373481Y-115047149D01*
X66175000Y-115027601D01*
X65976518Y-115047149D01*
X65785651Y-115105048D01*
X65609768Y-115199060D01*
X65609761Y-115199065D01*
X65455589Y-115325589D01*
X65329065Y-115479761D01*
X65329060Y-115479768D01*
X65235048Y-115655651D01*
X65177149Y-115846518D01*
X65157601Y-116045000D01*
X64652399Y-116045000D01*
X64632850Y-115846515D01*
X64574954Y-115655658D01*
X64574951Y-115655654D01*
X64574951Y-115655651D01*
X64480939Y-115479768D01*
X64480937Y-115479766D01*
X64480936Y-115479763D01*
X64371825Y-115346810D01*
X64354410Y-115325589D01*
X64200238Y-115199065D01*
X64200231Y-115199060D01*
X64024348Y-115105048D01*
X64024342Y-115105046D01*
X63833485Y-115047150D01*
X63833483Y-115047149D01*
X63833481Y-115047149D01*
X63635000Y-115027601D01*
X63436518Y-115047149D01*
X63245651Y-115105048D01*
X63069768Y-115199060D01*
X63069761Y-115199065D01*
X62915589Y-115325589D01*
X62789065Y-115479761D01*
X62789060Y-115479768D01*
X62695048Y-115655651D01*
X62637149Y-115846518D01*
X62617601Y-116045000D01*
X62112399Y-116045000D01*
X62092850Y-115846515D01*
X62034954Y-115655658D01*
X62034951Y-115655654D01*
X62034951Y-115655651D01*
X61940939Y-115479768D01*
X61940937Y-115479766D01*
X61940936Y-115479763D01*
X61831825Y-115346810D01*
X61814410Y-115325589D01*
X61660238Y-115199065D01*
X61660231Y-115199060D01*
X61484348Y-115105048D01*
X61484342Y-115105046D01*
X61293485Y-115047150D01*
X61293483Y-115047149D01*
X61293481Y-115047149D01*
X61095000Y-115027601D01*
X60896518Y-115047149D01*
X60705651Y-115105048D01*
X60529768Y-115199060D01*
X60529761Y-115199065D01*
X60375589Y-115325589D01*
X60249065Y-115479761D01*
X60249060Y-115479768D01*
X60155048Y-115655651D01*
X60097149Y-115846518D01*
X60077601Y-116045000D01*
X59572399Y-116045000D01*
X59552850Y-115846515D01*
X59494954Y-115655658D01*
X59494951Y-115655654D01*
X59494951Y-115655651D01*
X59400939Y-115479768D01*
X59400937Y-115479766D01*
X59400936Y-115479763D01*
X59291825Y-115346810D01*
X59274410Y-115325589D01*
X59120238Y-115199065D01*
X59120231Y-115199060D01*
X58944348Y-115105048D01*
X58944342Y-115105046D01*
X58753485Y-115047150D01*
X58753483Y-115047149D01*
X58753481Y-115047149D01*
X58555000Y-115027601D01*
X58356518Y-115047149D01*
X58165651Y-115105048D01*
X57989768Y-115199060D01*
X57989761Y-115199065D01*
X57835589Y-115325589D01*
X57709065Y-115479761D01*
X57709060Y-115479768D01*
X57615048Y-115655651D01*
X57557149Y-115846518D01*
X57537601Y-116045000D01*
X50381500Y-116045000D01*
X50381500Y-110987363D01*
X102335286Y-110987363D01*
X102335286Y-111184208D01*
X102366076Y-111378612D01*
X102426903Y-111565816D01*
X102512682Y-111734165D01*
X102516262Y-111741191D01*
X102631958Y-111900432D01*
X103301470Y-112569944D01*
X103460711Y-112685640D01*
X103543570Y-112727858D01*
X103636085Y-112774998D01*
X103636087Y-112774998D01*
X103636090Y-112775000D01*
X103736434Y-112807603D01*
X103823289Y-112835825D01*
X104017695Y-112866616D01*
X104017700Y-112866616D01*
X104214538Y-112866616D01*
X104408942Y-112835825D01*
X104423976Y-112830940D01*
X104555569Y-112788182D01*
X104625407Y-112786188D01*
X104685240Y-112822268D01*
X104716069Y-112884968D01*
X104711816Y-112944432D01*
X104664175Y-113091053D01*
X104664175Y-113091056D01*
X104633384Y-113285461D01*
X104633384Y-113482306D01*
X104664174Y-113676710D01*
X104725001Y-113863914D01*
X104810782Y-114032266D01*
X104814360Y-114039289D01*
X104930056Y-114198530D01*
X105599568Y-114868042D01*
X105758809Y-114983738D01*
X105841668Y-115025956D01*
X105934183Y-115073096D01*
X105934185Y-115073096D01*
X105934188Y-115073098D01*
X106032514Y-115105046D01*
X106121387Y-115133923D01*
X106315793Y-115164714D01*
X106315798Y-115164714D01*
X106512636Y-115164714D01*
X106707040Y-115133923D01*
X106894240Y-115073098D01*
X107069619Y-114983738D01*
X107228860Y-114868042D01*
X107368042Y-114728860D01*
X107483738Y-114569619D01*
X107573098Y-114394240D01*
X107633923Y-114207040D01*
X107638266Y-114179617D01*
X107664714Y-114012636D01*
X107664714Y-113815792D01*
X107633923Y-113621387D01*
X107595111Y-113501936D01*
X107573098Y-113434188D01*
X107573096Y-113434185D01*
X107573096Y-113434183D01*
X107497318Y-113285461D01*
X107483738Y-113258809D01*
X107368042Y-113099568D01*
X106698530Y-112430056D01*
X106539289Y-112314360D01*
X106363914Y-112225001D01*
X106176710Y-112164174D01*
X105982306Y-112133384D01*
X105982301Y-112133384D01*
X105785467Y-112133384D01*
X105785462Y-112133384D01*
X105591056Y-112164175D01*
X105591053Y-112164175D01*
X105444432Y-112211816D01*
X105374591Y-112213811D01*
X105314758Y-112177731D01*
X105283930Y-112115030D01*
X105288182Y-112055569D01*
X105335825Y-111908942D01*
X105341683Y-111871957D01*
X105366616Y-111714538D01*
X105366616Y-111517694D01*
X105335825Y-111323289D01*
X105274998Y-111136085D01*
X105199220Y-110987363D01*
X105189218Y-110967733D01*
X107085786Y-110967733D01*
X107085786Y-111203838D01*
X107122720Y-111437033D01*
X107195683Y-111661588D01*
X107302871Y-111871957D01*
X107441652Y-112062972D01*
X108138929Y-112760249D01*
X108329944Y-112899030D01*
X108540313Y-113006218D01*
X108764868Y-113079181D01*
X108764867Y-113079181D01*
X108998064Y-113116116D01*
X109234166Y-113116116D01*
X109243481Y-113114640D01*
X109312775Y-113123591D01*
X109366229Y-113168584D01*
X109386873Y-113235334D01*
X109385360Y-113256506D01*
X109383884Y-113265826D01*
X109383884Y-113501936D01*
X109420818Y-113735131D01*
X109493781Y-113959686D01*
X109600969Y-114170055D01*
X109739750Y-114361070D01*
X109911612Y-114532932D01*
X110618719Y-113825825D01*
X110972272Y-114179378D01*
X110265165Y-114886485D01*
X110437027Y-115058347D01*
X110628042Y-115197128D01*
X110838411Y-115304316D01*
X111062966Y-115377279D01*
X111062965Y-115377279D01*
X111296162Y-115414214D01*
X111532266Y-115414214D01*
X111765461Y-115377279D01*
X111990016Y-115304316D01*
X112200385Y-115197128D01*
X112283319Y-115136872D01*
X112283320Y-115136872D01*
X111543623Y-114397176D01*
X111607206Y-114380139D01*
X111721221Y-114314313D01*
X111814313Y-114221221D01*
X111880139Y-114107206D01*
X111897176Y-114043623D01*
X112636872Y-114783320D01*
X112636872Y-114783319D01*
X112697128Y-114700385D01*
X112804316Y-114490016D01*
X112877279Y-114265461D01*
X112914214Y-114032266D01*
X112914214Y-113796161D01*
X112877279Y-113562966D01*
X112804316Y-113338411D01*
X112697128Y-113128042D01*
X112558347Y-112937027D01*
X111861070Y-112239750D01*
X111670055Y-112100969D01*
X111459686Y-111993781D01*
X111235131Y-111920818D01*
X111235132Y-111920818D01*
X111001936Y-111883884D01*
X110765827Y-111883884D01*
X110756506Y-111885360D01*
X110687213Y-111876403D01*
X110633762Y-111831405D01*
X110613125Y-111764653D01*
X110614640Y-111743481D01*
X110616116Y-111734165D01*
X110616116Y-111498063D01*
X110579181Y-111264868D01*
X110506218Y-111040313D01*
X110479239Y-110987363D01*
X112335286Y-110987363D01*
X112335286Y-111184208D01*
X112366076Y-111378612D01*
X112426903Y-111565816D01*
X112512682Y-111734165D01*
X112516262Y-111741191D01*
X112631958Y-111900432D01*
X113301470Y-112569944D01*
X113460711Y-112685640D01*
X113543570Y-112727858D01*
X113636085Y-112774998D01*
X113636087Y-112774998D01*
X113636090Y-112775000D01*
X113736434Y-112807603D01*
X113823289Y-112835825D01*
X114017695Y-112866616D01*
X114017700Y-112866616D01*
X114214538Y-112866616D01*
X114408942Y-112835825D01*
X114423976Y-112830940D01*
X114555569Y-112788182D01*
X114625407Y-112786188D01*
X114685240Y-112822268D01*
X114716069Y-112884968D01*
X114711816Y-112944432D01*
X114664175Y-113091053D01*
X114664175Y-113091056D01*
X114633384Y-113285461D01*
X114633384Y-113482306D01*
X114664174Y-113676710D01*
X114725001Y-113863914D01*
X114810782Y-114032266D01*
X114814360Y-114039289D01*
X114930056Y-114198530D01*
X115599568Y-114868042D01*
X115758809Y-114983738D01*
X115841668Y-115025956D01*
X115934183Y-115073096D01*
X115934185Y-115073096D01*
X115934188Y-115073098D01*
X116032514Y-115105046D01*
X116121387Y-115133923D01*
X116315793Y-115164714D01*
X116315798Y-115164714D01*
X116512636Y-115164714D01*
X116707040Y-115133923D01*
X116894240Y-115073098D01*
X117069619Y-114983738D01*
X117228860Y-114868042D01*
X117368042Y-114728860D01*
X117483738Y-114569619D01*
X117573098Y-114394240D01*
X117633923Y-114207040D01*
X117638266Y-114179617D01*
X117664714Y-114012636D01*
X117664714Y-113815792D01*
X117633923Y-113621387D01*
X117595111Y-113501936D01*
X117573098Y-113434188D01*
X117573096Y-113434185D01*
X117573096Y-113434183D01*
X117497318Y-113285461D01*
X117483738Y-113258809D01*
X117368042Y-113099568D01*
X116698530Y-112430056D01*
X116539289Y-112314360D01*
X116363914Y-112225001D01*
X116176710Y-112164174D01*
X115982306Y-112133384D01*
X115982301Y-112133384D01*
X115785467Y-112133384D01*
X115785462Y-112133384D01*
X115591056Y-112164175D01*
X115591053Y-112164175D01*
X115444432Y-112211816D01*
X115374591Y-112213811D01*
X115314758Y-112177731D01*
X115283930Y-112115030D01*
X115288182Y-112055569D01*
X115335825Y-111908942D01*
X115341683Y-111871957D01*
X115366616Y-111714538D01*
X115366616Y-111517694D01*
X115335825Y-111323289D01*
X115274998Y-111136085D01*
X115199220Y-110987363D01*
X117335286Y-110987363D01*
X117335286Y-111184208D01*
X117366076Y-111378612D01*
X117426903Y-111565816D01*
X117512682Y-111734165D01*
X117516262Y-111741191D01*
X117631958Y-111900432D01*
X118301470Y-112569944D01*
X118460711Y-112685640D01*
X118543570Y-112727858D01*
X118636085Y-112774998D01*
X118636087Y-112774998D01*
X118636090Y-112775000D01*
X118736434Y-112807603D01*
X118823289Y-112835825D01*
X119017695Y-112866616D01*
X119017700Y-112866616D01*
X119214538Y-112866616D01*
X119408942Y-112835825D01*
X119423976Y-112830940D01*
X119555569Y-112788182D01*
X119625407Y-112786188D01*
X119685240Y-112822268D01*
X119716069Y-112884968D01*
X119711816Y-112944432D01*
X119664175Y-113091053D01*
X119664175Y-113091056D01*
X119633384Y-113285461D01*
X119633384Y-113482306D01*
X119664174Y-113676710D01*
X119725001Y-113863914D01*
X119810782Y-114032266D01*
X119814360Y-114039289D01*
X119930056Y-114198530D01*
X120599568Y-114868042D01*
X120758809Y-114983738D01*
X120841668Y-115025956D01*
X120934183Y-115073096D01*
X120934185Y-115073096D01*
X120934188Y-115073098D01*
X121032514Y-115105046D01*
X121121387Y-115133923D01*
X121315793Y-115164714D01*
X121315798Y-115164714D01*
X121512636Y-115164714D01*
X121707040Y-115133923D01*
X121894240Y-115073098D01*
X122069619Y-114983738D01*
X122228860Y-114868042D01*
X122368042Y-114728860D01*
X122483738Y-114569619D01*
X122573098Y-114394240D01*
X122633923Y-114207040D01*
X122638266Y-114179617D01*
X122664714Y-114012636D01*
X122664714Y-113815792D01*
X122633923Y-113621387D01*
X122595111Y-113501936D01*
X122573098Y-113434188D01*
X122573096Y-113434185D01*
X122573096Y-113434183D01*
X122497318Y-113285461D01*
X122488473Y-113268102D01*
X157625633Y-113268102D01*
X157634216Y-113491532D01*
X157634216Y-113491533D01*
X157677643Y-113710851D01*
X157677648Y-113710867D01*
X157754847Y-113920694D01*
X157754855Y-113920710D01*
X157863925Y-114115870D01*
X157863932Y-114115880D01*
X158002203Y-114291591D01*
X158058447Y-114343673D01*
X158166255Y-114443505D01*
X158352057Y-114567891D01*
X158352066Y-114567896D01*
X158474076Y-114624272D01*
X158555030Y-114661678D01*
X158770171Y-114722557D01*
X158770172Y-114722557D01*
X158770175Y-114722558D01*
X158992193Y-114749033D01*
X159965068Y-114711660D01*
X160184401Y-114668230D01*
X160394241Y-114591025D01*
X160589418Y-114481944D01*
X160765129Y-114343673D01*
X160917046Y-114179617D01*
X160979688Y-114086043D01*
X161033338Y-114041286D01*
X161102671Y-114032639D01*
X161165672Y-114062849D01*
X161180174Y-114078341D01*
X161249809Y-114166831D01*
X161306053Y-114218913D01*
X161413861Y-114318745D01*
X161599663Y-114443131D01*
X161599672Y-114443136D01*
X161769058Y-114521402D01*
X161802636Y-114536918D01*
X162017777Y-114597797D01*
X162017778Y-114597797D01*
X162017781Y-114597798D01*
X162239799Y-114624273D01*
X163212674Y-114586900D01*
X163432007Y-114543470D01*
X163641847Y-114466265D01*
X163837024Y-114357184D01*
X164012735Y-114218913D01*
X164164652Y-114054857D01*
X164289036Y-113869057D01*
X164382823Y-113666086D01*
X164395472Y-113621387D01*
X164432216Y-113491532D01*
X164443702Y-113450941D01*
X164470177Y-113228923D01*
X164461594Y-113005496D01*
X164418164Y-112786164D01*
X164359963Y-112627976D01*
X164340962Y-112576331D01*
X164340960Y-112576327D01*
X164340959Y-112576324D01*
X164300097Y-112503209D01*
X164231884Y-112381155D01*
X164231877Y-112381145D01*
X164191783Y-112330195D01*
X164093607Y-112205435D01*
X163975581Y-112096142D01*
X163929554Y-112053520D01*
X163743752Y-111929134D01*
X163743743Y-111929129D01*
X163540790Y-111835352D01*
X163540782Y-111835348D01*
X163325638Y-111774468D01*
X163325640Y-111774468D01*
X163103618Y-111747993D01*
X162130739Y-111785366D01*
X162130738Y-111785366D01*
X161911420Y-111828793D01*
X161911404Y-111828798D01*
X161701577Y-111905997D01*
X161701561Y-111906005D01*
X161506401Y-112015075D01*
X161506391Y-112015082D01*
X161421302Y-112082041D01*
X161347851Y-112139842D01*
X161330680Y-112153354D01*
X161178765Y-112317406D01*
X161178765Y-112317407D01*
X161116121Y-112410982D01*
X161062470Y-112455739D01*
X160993137Y-112464386D01*
X160930136Y-112434175D01*
X160915634Y-112418683D01*
X160909574Y-112410982D01*
X160846001Y-112330195D01*
X160748329Y-112239750D01*
X160681948Y-112178280D01*
X160496146Y-112053894D01*
X160496137Y-112053889D01*
X160293184Y-111960112D01*
X160293176Y-111960108D01*
X160078032Y-111899228D01*
X160078034Y-111899228D01*
X159856012Y-111872753D01*
X158883133Y-111910126D01*
X158883132Y-111910126D01*
X158663814Y-111953553D01*
X158663798Y-111953558D01*
X158453971Y-112030757D01*
X158453955Y-112030765D01*
X158258795Y-112139835D01*
X158258785Y-112139842D01*
X158083074Y-112278114D01*
X157931160Y-112442165D01*
X157806774Y-112627967D01*
X157806769Y-112627976D01*
X157712989Y-112830936D01*
X157652108Y-113046081D01*
X157625633Y-113268102D01*
X122488473Y-113268102D01*
X122483738Y-113258809D01*
X122368042Y-113099568D01*
X121698530Y-112430056D01*
X121539289Y-112314360D01*
X121363914Y-112225001D01*
X121176710Y-112164174D01*
X120982306Y-112133384D01*
X120982301Y-112133384D01*
X120785467Y-112133384D01*
X120785462Y-112133384D01*
X120591056Y-112164175D01*
X120591053Y-112164175D01*
X120444432Y-112211816D01*
X120374591Y-112213811D01*
X120314758Y-112177731D01*
X120283930Y-112115030D01*
X120288182Y-112055569D01*
X120335825Y-111908942D01*
X120341683Y-111871957D01*
X120366616Y-111714538D01*
X120366616Y-111517694D01*
X120335825Y-111323289D01*
X120274998Y-111136085D01*
X120199220Y-110987363D01*
X120185640Y-110960711D01*
X120069944Y-110801470D01*
X119400432Y-110131958D01*
X119241191Y-110016262D01*
X119065816Y-109926903D01*
X118878612Y-109866076D01*
X118684208Y-109835286D01*
X118684203Y-109835286D01*
X118487369Y-109835286D01*
X118487364Y-109835286D01*
X118292959Y-109866076D01*
X118105755Y-109926903D01*
X117930380Y-110016262D01*
X117849006Y-110075385D01*
X117771140Y-110131958D01*
X117771138Y-110131960D01*
X117771137Y-110131960D01*
X117631960Y-110271137D01*
X117631960Y-110271138D01*
X117631958Y-110271140D01*
X117611272Y-110299612D01*
X117516262Y-110430380D01*
X117426903Y-110605755D01*
X117366076Y-110792959D01*
X117335286Y-110987363D01*
X115199220Y-110987363D01*
X115185640Y-110960711D01*
X115069944Y-110801470D01*
X114400432Y-110131958D01*
X114241191Y-110016262D01*
X114065816Y-109926903D01*
X113878612Y-109866076D01*
X113684208Y-109835286D01*
X113684203Y-109835286D01*
X113487369Y-109835286D01*
X113487364Y-109835286D01*
X113292959Y-109866076D01*
X113105755Y-109926903D01*
X112930380Y-110016262D01*
X112849006Y-110075385D01*
X112771140Y-110131958D01*
X112771138Y-110131960D01*
X112771137Y-110131960D01*
X112631960Y-110271137D01*
X112631960Y-110271138D01*
X112631958Y-110271140D01*
X112611272Y-110299612D01*
X112516262Y-110430380D01*
X112426903Y-110605755D01*
X112366076Y-110792959D01*
X112335286Y-110987363D01*
X110479239Y-110987363D01*
X110399030Y-110829944D01*
X110260249Y-110638929D01*
X110088387Y-110467067D01*
X110088386Y-110467067D01*
X109381279Y-111174173D01*
X109027727Y-110820621D01*
X109734834Y-110113514D01*
X109734834Y-110113513D01*
X109562973Y-109941653D01*
X109562972Y-109941652D01*
X109371957Y-109802871D01*
X109161588Y-109695683D01*
X108937033Y-109622720D01*
X108937034Y-109622720D01*
X108703838Y-109585786D01*
X108467734Y-109585786D01*
X108234538Y-109622720D01*
X108009983Y-109695683D01*
X107799612Y-109802872D01*
X107716679Y-109863125D01*
X107716679Y-109863126D01*
X108456377Y-110602824D01*
X108392794Y-110619861D01*
X108278779Y-110685687D01*
X108185687Y-110778779D01*
X108119861Y-110892794D01*
X108102824Y-110956377D01*
X107363126Y-110216679D01*
X107363125Y-110216679D01*
X107302872Y-110299612D01*
X107195683Y-110509983D01*
X107122720Y-110734538D01*
X107085786Y-110967733D01*
X105189218Y-110967733D01*
X105185640Y-110960711D01*
X105069944Y-110801470D01*
X104400432Y-110131958D01*
X104241191Y-110016262D01*
X104065816Y-109926903D01*
X103878612Y-109866076D01*
X103684208Y-109835286D01*
X103684203Y-109835286D01*
X103487369Y-109835286D01*
X103487364Y-109835286D01*
X103292959Y-109866076D01*
X103105755Y-109926903D01*
X102930380Y-110016262D01*
X102849006Y-110075385D01*
X102771140Y-110131958D01*
X102771138Y-110131960D01*
X102771137Y-110131960D01*
X102631960Y-110271137D01*
X102631960Y-110271138D01*
X102631958Y-110271140D01*
X102611272Y-110299612D01*
X102516262Y-110430380D01*
X102426903Y-110605755D01*
X102366076Y-110792959D01*
X102335286Y-110987363D01*
X50381500Y-110987363D01*
X50381500Y-106362363D01*
X78085286Y-106362363D01*
X78085286Y-106559208D01*
X78116076Y-106753612D01*
X78176903Y-106940816D01*
X78262682Y-107109165D01*
X78266262Y-107116191D01*
X78381958Y-107275432D01*
X79051470Y-107944944D01*
X79210711Y-108060640D01*
X79293570Y-108102858D01*
X79386085Y-108149998D01*
X79386087Y-108149998D01*
X79386090Y-108150000D01*
X79486434Y-108182603D01*
X79573289Y-108210825D01*
X79767695Y-108241616D01*
X79767700Y-108241616D01*
X79964538Y-108241616D01*
X80158942Y-108210825D01*
X80305569Y-108163182D01*
X80375407Y-108161188D01*
X80435240Y-108197268D01*
X80466069Y-108259968D01*
X80461816Y-108319432D01*
X80414175Y-108466053D01*
X80414175Y-108466056D01*
X80383384Y-108660461D01*
X80383384Y-108857306D01*
X80414174Y-109051710D01*
X80475001Y-109238914D01*
X80560782Y-109407266D01*
X80564360Y-109414289D01*
X80680056Y-109573530D01*
X81349568Y-110243042D01*
X81508809Y-110358738D01*
X81591668Y-110400956D01*
X81684183Y-110448096D01*
X81684185Y-110448096D01*
X81684188Y-110448098D01*
X81742569Y-110467067D01*
X81871387Y-110508923D01*
X82065793Y-110539714D01*
X82065798Y-110539714D01*
X82262636Y-110539714D01*
X82457040Y-110508923D01*
X82644240Y-110448098D01*
X82819619Y-110358738D01*
X82978860Y-110243042D01*
X83118042Y-110103860D01*
X83233738Y-109944619D01*
X83323098Y-109769240D01*
X83383923Y-109582040D01*
X83399735Y-109482206D01*
X83414714Y-109387636D01*
X83414714Y-109190792D01*
X83383923Y-108996387D01*
X83323096Y-108809183D01*
X83233737Y-108633808D01*
X83118042Y-108474568D01*
X82448530Y-107805056D01*
X82289289Y-107689360D01*
X82113914Y-107600001D01*
X81926710Y-107539174D01*
X81732306Y-107508384D01*
X81732301Y-107508384D01*
X81535467Y-107508384D01*
X81535462Y-107508384D01*
X81341056Y-107539175D01*
X81341053Y-107539175D01*
X81194432Y-107586816D01*
X81124591Y-107588811D01*
X81064758Y-107552731D01*
X81033930Y-107490030D01*
X81038182Y-107430569D01*
X81085825Y-107283942D01*
X81108678Y-107139653D01*
X81116616Y-107089538D01*
X81116616Y-106892694D01*
X81085825Y-106698289D01*
X81024998Y-106511085D01*
X80949220Y-106362363D01*
X80939218Y-106342733D01*
X82835786Y-106342733D01*
X82835786Y-106578838D01*
X82872720Y-106812033D01*
X82945683Y-107036588D01*
X83052871Y-107246957D01*
X83191652Y-107437972D01*
X83888929Y-108135249D01*
X84079944Y-108274030D01*
X84290313Y-108381218D01*
X84514868Y-108454181D01*
X84514867Y-108454181D01*
X84748064Y-108491116D01*
X84984166Y-108491116D01*
X84993481Y-108489640D01*
X85062775Y-108498591D01*
X85116229Y-108543584D01*
X85136873Y-108610334D01*
X85135360Y-108631506D01*
X85133884Y-108640826D01*
X85133884Y-108876936D01*
X85170818Y-109110131D01*
X85243781Y-109334686D01*
X85350969Y-109545055D01*
X85489750Y-109736070D01*
X85661612Y-109907932D01*
X86368719Y-109200825D01*
X86722272Y-109554378D01*
X86015165Y-110261485D01*
X86187027Y-110433347D01*
X86378042Y-110572128D01*
X86588411Y-110679316D01*
X86812966Y-110752279D01*
X86812965Y-110752279D01*
X87046162Y-110789214D01*
X87282266Y-110789214D01*
X87515461Y-110752279D01*
X87740016Y-110679316D01*
X87950385Y-110572128D01*
X88033319Y-110511872D01*
X88033320Y-110511872D01*
X87293623Y-109772176D01*
X87357206Y-109755139D01*
X87471221Y-109689313D01*
X87564313Y-109596221D01*
X87630139Y-109482206D01*
X87647176Y-109418623D01*
X88386872Y-110158320D01*
X88386872Y-110158319D01*
X88447128Y-110075385D01*
X88554316Y-109865016D01*
X88627279Y-109640461D01*
X88664214Y-109407266D01*
X88664214Y-109171161D01*
X88627279Y-108937966D01*
X88554316Y-108713411D01*
X88447128Y-108503042D01*
X88308347Y-108312027D01*
X87611070Y-107614750D01*
X87420055Y-107475969D01*
X87209686Y-107368781D01*
X86985131Y-107295818D01*
X86985132Y-107295818D01*
X86751936Y-107258884D01*
X86515827Y-107258884D01*
X86506506Y-107260360D01*
X86437213Y-107251403D01*
X86383762Y-107206405D01*
X86363125Y-107139653D01*
X86364640Y-107118481D01*
X86366116Y-107109165D01*
X86366116Y-106873063D01*
X86329181Y-106639868D01*
X86256218Y-106415313D01*
X86229239Y-106362363D01*
X88085286Y-106362363D01*
X88085286Y-106559208D01*
X88116076Y-106753612D01*
X88176903Y-106940816D01*
X88262682Y-107109165D01*
X88266262Y-107116191D01*
X88381958Y-107275432D01*
X89051470Y-107944944D01*
X89210711Y-108060640D01*
X89293570Y-108102858D01*
X89386085Y-108149998D01*
X89386087Y-108149998D01*
X89386090Y-108150000D01*
X89486434Y-108182603D01*
X89573289Y-108210825D01*
X89767695Y-108241616D01*
X89767700Y-108241616D01*
X89964538Y-108241616D01*
X90158942Y-108210825D01*
X90305569Y-108163182D01*
X90375407Y-108161188D01*
X90435240Y-108197268D01*
X90466069Y-108259968D01*
X90461816Y-108319432D01*
X90414175Y-108466053D01*
X90414175Y-108466056D01*
X90383384Y-108660461D01*
X90383384Y-108857306D01*
X90414174Y-109051710D01*
X90475001Y-109238914D01*
X90560782Y-109407266D01*
X90564360Y-109414289D01*
X90680056Y-109573530D01*
X91349568Y-110243042D01*
X91508809Y-110358738D01*
X91591668Y-110400956D01*
X91684183Y-110448096D01*
X91684185Y-110448096D01*
X91684188Y-110448098D01*
X91742569Y-110467067D01*
X91871387Y-110508923D01*
X92065793Y-110539714D01*
X92065798Y-110539714D01*
X92262636Y-110539714D01*
X92457040Y-110508923D01*
X92644240Y-110448098D01*
X92819619Y-110358738D01*
X92978860Y-110243042D01*
X93118042Y-110103860D01*
X93233738Y-109944619D01*
X93323098Y-109769240D01*
X93383923Y-109582040D01*
X93399735Y-109482206D01*
X93414714Y-109387636D01*
X93414714Y-109190792D01*
X93383923Y-108996387D01*
X93323096Y-108809183D01*
X93233737Y-108633808D01*
X93118042Y-108474568D01*
X92448530Y-107805056D01*
X92289289Y-107689360D01*
X92113914Y-107600001D01*
X91926710Y-107539174D01*
X91732306Y-107508384D01*
X91732301Y-107508384D01*
X91535467Y-107508384D01*
X91535462Y-107508384D01*
X91341056Y-107539175D01*
X91341053Y-107539175D01*
X91194432Y-107586816D01*
X91124591Y-107588811D01*
X91064758Y-107552731D01*
X91033930Y-107490030D01*
X91038182Y-107430569D01*
X91085825Y-107283942D01*
X91108678Y-107139653D01*
X91116616Y-107089538D01*
X91116616Y-106892694D01*
X91085825Y-106698289D01*
X91024998Y-106511085D01*
X90949220Y-106362363D01*
X90939218Y-106342733D01*
X92835786Y-106342733D01*
X92835786Y-106578838D01*
X92872720Y-106812033D01*
X92945683Y-107036588D01*
X93052871Y-107246957D01*
X93191652Y-107437972D01*
X93888929Y-108135249D01*
X94079944Y-108274030D01*
X94290313Y-108381218D01*
X94514868Y-108454181D01*
X94514867Y-108454181D01*
X94748064Y-108491116D01*
X94984166Y-108491116D01*
X94993481Y-108489640D01*
X95062775Y-108498591D01*
X95116229Y-108543584D01*
X95136873Y-108610334D01*
X95135360Y-108631506D01*
X95133884Y-108640826D01*
X95133884Y-108876936D01*
X95170818Y-109110131D01*
X95243781Y-109334686D01*
X95350969Y-109545055D01*
X95489750Y-109736070D01*
X95661612Y-109907932D01*
X96368719Y-109200825D01*
X96722272Y-109554378D01*
X96015165Y-110261485D01*
X96187027Y-110433347D01*
X96378042Y-110572128D01*
X96588411Y-110679316D01*
X96812966Y-110752279D01*
X96812965Y-110752279D01*
X97046162Y-110789214D01*
X97282266Y-110789214D01*
X97515461Y-110752279D01*
X97740016Y-110679316D01*
X97950385Y-110572128D01*
X98033319Y-110511872D01*
X98033320Y-110511872D01*
X97293623Y-109772176D01*
X97357206Y-109755139D01*
X97471221Y-109689313D01*
X97564313Y-109596221D01*
X97630139Y-109482206D01*
X97647176Y-109418624D01*
X98386872Y-110158320D01*
X98386872Y-110158319D01*
X98447128Y-110075385D01*
X98554316Y-109865016D01*
X98627279Y-109640461D01*
X98664214Y-109407266D01*
X98664214Y-109171161D01*
X98627279Y-108937966D01*
X98554316Y-108713411D01*
X98447128Y-108503042D01*
X98308347Y-108312027D01*
X98136485Y-108140165D01*
X98136484Y-108140165D01*
X97429377Y-108847271D01*
X97075825Y-108493719D01*
X97782932Y-107786612D01*
X97611070Y-107614750D01*
X97420055Y-107475969D01*
X97209686Y-107368781D01*
X96985131Y-107295818D01*
X96985132Y-107295818D01*
X96751936Y-107258884D01*
X96515827Y-107258884D01*
X96506506Y-107260360D01*
X96437213Y-107251403D01*
X96383762Y-107206405D01*
X96363125Y-107139653D01*
X96364640Y-107118481D01*
X96366116Y-107109165D01*
X96366116Y-106873063D01*
X96329181Y-106639868D01*
X96256218Y-106415313D01*
X96149030Y-106204944D01*
X96010249Y-106013929D01*
X95838387Y-105842067D01*
X95838386Y-105842067D01*
X95131279Y-106549173D01*
X94777727Y-106195621D01*
X95484834Y-105488514D01*
X95484834Y-105488513D01*
X95312973Y-105316653D01*
X95312972Y-105316652D01*
X95121957Y-105177871D01*
X94911588Y-105070683D01*
X94687033Y-104997720D01*
X94687034Y-104997720D01*
X94453838Y-104960786D01*
X94217734Y-104960786D01*
X93984538Y-104997720D01*
X93759983Y-105070683D01*
X93549612Y-105177872D01*
X93466679Y-105238125D01*
X93466679Y-105238126D01*
X94206377Y-105977824D01*
X94142794Y-105994861D01*
X94028779Y-106060687D01*
X93935687Y-106153779D01*
X93869861Y-106267794D01*
X93852824Y-106331377D01*
X93113126Y-105591679D01*
X93113125Y-105591679D01*
X93052872Y-105674612D01*
X92945683Y-105884983D01*
X92872720Y-106109538D01*
X92835786Y-106342733D01*
X90939218Y-106342733D01*
X90935640Y-106335711D01*
X90819944Y-106176470D01*
X90150432Y-105506958D01*
X89991191Y-105391262D01*
X89815816Y-105301903D01*
X89628612Y-105241076D01*
X89434208Y-105210286D01*
X89434203Y-105210286D01*
X89237369Y-105210286D01*
X89237364Y-105210286D01*
X89042959Y-105241076D01*
X88855755Y-105301903D01*
X88680380Y-105391262D01*
X88589527Y-105457271D01*
X88521140Y-105506958D01*
X88521138Y-105506960D01*
X88521137Y-105506960D01*
X88381960Y-105646137D01*
X88381960Y-105646138D01*
X88381958Y-105646140D01*
X88361272Y-105674612D01*
X88266262Y-105805380D01*
X88176903Y-105980755D01*
X88116076Y-106167959D01*
X88085286Y-106362363D01*
X86229239Y-106362363D01*
X86149030Y-106204944D01*
X86010249Y-106013929D01*
X85838387Y-105842067D01*
X85838386Y-105842067D01*
X85131279Y-106549173D01*
X84777727Y-106195621D01*
X85484834Y-105488514D01*
X85484834Y-105488513D01*
X85312973Y-105316653D01*
X85312972Y-105316652D01*
X85121957Y-105177871D01*
X84911588Y-105070683D01*
X84687033Y-104997720D01*
X84687034Y-104997720D01*
X84453838Y-104960786D01*
X84217734Y-104960786D01*
X83984538Y-104997720D01*
X83759983Y-105070683D01*
X83549612Y-105177872D01*
X83466679Y-105238125D01*
X83466679Y-105238126D01*
X84206377Y-105977824D01*
X84142794Y-105994861D01*
X84028779Y-106060687D01*
X83935687Y-106153779D01*
X83869861Y-106267794D01*
X83852824Y-106331377D01*
X83113126Y-105591679D01*
X83113125Y-105591679D01*
X83052872Y-105674612D01*
X82945683Y-105884983D01*
X82872720Y-106109538D01*
X82835786Y-106342733D01*
X80939218Y-106342733D01*
X80935640Y-106335711D01*
X80819944Y-106176470D01*
X80150432Y-105506958D01*
X79991191Y-105391262D01*
X79815816Y-105301903D01*
X79628612Y-105241076D01*
X79434208Y-105210286D01*
X79434203Y-105210286D01*
X79237369Y-105210286D01*
X79237364Y-105210286D01*
X79042959Y-105241076D01*
X78855755Y-105301903D01*
X78680380Y-105391262D01*
X78589527Y-105457271D01*
X78521140Y-105506958D01*
X78521138Y-105506960D01*
X78521137Y-105506960D01*
X78381960Y-105646137D01*
X78381960Y-105646138D01*
X78381958Y-105646140D01*
X78361272Y-105674612D01*
X78266262Y-105805380D01*
X78176903Y-105980755D01*
X78116076Y-106167959D01*
X78085286Y-106362363D01*
X50381500Y-106362363D01*
X50381500Y-102901577D01*
X137249500Y-102901577D01*
X137249500Y-103098422D01*
X137280290Y-103292826D01*
X137341117Y-103480029D01*
X137430476Y-103655405D01*
X137546172Y-103814646D01*
X137685354Y-103953828D01*
X137844595Y-104069524D01*
X137927455Y-104111743D01*
X138019970Y-104158882D01*
X138019972Y-104158882D01*
X138019975Y-104158884D01*
X138120317Y-104191487D01*
X138207173Y-104219709D01*
X138401578Y-104250500D01*
X138401583Y-104250500D01*
X138598422Y-104250500D01*
X138792826Y-104219709D01*
X138980025Y-104158884D01*
X139155405Y-104069524D01*
X139314646Y-103953828D01*
X139453828Y-103814646D01*
X139569524Y-103655405D01*
X139658884Y-103480025D01*
X139719709Y-103292826D01*
X139750500Y-103098422D01*
X139750500Y-102901577D01*
X139719709Y-102707173D01*
X139658882Y-102519970D01*
X139569523Y-102344594D01*
X139453828Y-102185354D01*
X139314646Y-102046172D01*
X139155405Y-101930476D01*
X138980029Y-101841117D01*
X138792826Y-101780290D01*
X138598422Y-101749500D01*
X138598417Y-101749500D01*
X138401583Y-101749500D01*
X138401578Y-101749500D01*
X138207173Y-101780290D01*
X138019970Y-101841117D01*
X137844594Y-101930476D01*
X137753741Y-101996485D01*
X137685354Y-102046172D01*
X137685352Y-102046174D01*
X137685351Y-102046174D01*
X137546174Y-102185351D01*
X137546174Y-102185352D01*
X137546172Y-102185354D01*
X137496485Y-102253741D01*
X137430476Y-102344594D01*
X137341117Y-102519970D01*
X137280290Y-102707173D01*
X137249500Y-102901577D01*
X50381500Y-102901577D01*
X50381500Y-99500000D01*
X93240312Y-99500000D01*
X93260957Y-99643595D01*
X93260958Y-99643599D01*
X93321222Y-99775556D01*
X93321223Y-99775558D01*
X93416225Y-99885196D01*
X93494659Y-99935602D01*
X93538269Y-99963630D01*
X93677461Y-100004499D01*
X93677463Y-100004500D01*
X93677464Y-100004500D01*
X93822537Y-100004500D01*
X93822537Y-100004499D01*
X93961729Y-99963630D01*
X93961730Y-99963630D01*
X93961732Y-99963629D01*
X94083775Y-99885196D01*
X94178777Y-99775558D01*
X94239042Y-99643596D01*
X94252262Y-99551647D01*
X94275849Y-99499999D01*
X94474150Y-99499999D01*
X94497738Y-99551648D01*
X94510957Y-99643595D01*
X94510958Y-99643599D01*
X94571222Y-99775556D01*
X94571223Y-99775558D01*
X94666225Y-99885196D01*
X94744659Y-99935602D01*
X94788269Y-99963630D01*
X94927461Y-100004499D01*
X94927463Y-100004500D01*
X94927464Y-100004500D01*
X95072537Y-100004500D01*
X95072537Y-100004499D01*
X95211729Y-99963630D01*
X95211730Y-99963630D01*
X95211732Y-99963629D01*
X95333775Y-99885196D01*
X95428777Y-99775558D01*
X95489042Y-99643596D01*
X95509688Y-99500000D01*
X95489042Y-99356404D01*
X95489041Y-99356400D01*
X95428777Y-99224443D01*
X95428777Y-99224442D01*
X95333775Y-99114804D01*
X95298950Y-99092423D01*
X95211730Y-99036369D01*
X95072538Y-98995500D01*
X95072536Y-98995500D01*
X94927464Y-98995500D01*
X94927461Y-98995500D01*
X94788270Y-99036369D01*
X94788269Y-99036369D01*
X94666226Y-99114803D01*
X94571223Y-99224442D01*
X94571222Y-99224443D01*
X94510958Y-99356400D01*
X94510957Y-99356404D01*
X94497738Y-99448351D01*
X94474150Y-99499999D01*
X94275849Y-99499999D01*
X94252262Y-99448351D01*
X94239042Y-99356404D01*
X94239041Y-99356400D01*
X94178777Y-99224443D01*
X94178777Y-99224442D01*
X94083775Y-99114804D01*
X94048950Y-99092423D01*
X93961730Y-99036369D01*
X93822538Y-98995500D01*
X93822536Y-98995500D01*
X93677464Y-98995500D01*
X93677461Y-98995500D01*
X93538270Y-99036369D01*
X93538269Y-99036369D01*
X93416226Y-99114803D01*
X93321223Y-99224442D01*
X93321222Y-99224443D01*
X93260958Y-99356400D01*
X93260957Y-99356404D01*
X93240312Y-99500000D01*
X50381500Y-99500000D01*
X50381500Y-94455000D01*
X57537601Y-94455000D01*
X57557149Y-94653481D01*
X57557149Y-94653483D01*
X57557150Y-94653485D01*
X57615046Y-94844342D01*
X57615048Y-94844348D01*
X57709060Y-95020231D01*
X57709065Y-95020238D01*
X57835589Y-95174410D01*
X57879366Y-95210336D01*
X57989763Y-95300936D01*
X57989766Y-95300937D01*
X57989768Y-95300939D01*
X58165651Y-95394951D01*
X58165654Y-95394951D01*
X58165658Y-95394954D01*
X58356515Y-95452850D01*
X58555000Y-95472399D01*
X58753485Y-95452850D01*
X58944342Y-95394954D01*
X59120237Y-95300936D01*
X59274410Y-95174410D01*
X59400936Y-95020237D01*
X59494954Y-94844342D01*
X59552850Y-94653485D01*
X59572399Y-94455000D01*
X60077601Y-94455000D01*
X60097149Y-94653481D01*
X60097149Y-94653483D01*
X60097150Y-94653485D01*
X60155046Y-94844342D01*
X60155048Y-94844348D01*
X60249060Y-95020231D01*
X60249065Y-95020238D01*
X60375589Y-95174410D01*
X60419366Y-95210336D01*
X60529763Y-95300936D01*
X60529766Y-95300937D01*
X60529768Y-95300939D01*
X60705651Y-95394951D01*
X60705654Y-95394951D01*
X60705658Y-95394954D01*
X60896515Y-95452850D01*
X61095000Y-95472399D01*
X61293485Y-95452850D01*
X61484342Y-95394954D01*
X61660237Y-95300936D01*
X61814410Y-95174410D01*
X61940936Y-95020237D01*
X62034954Y-94844342D01*
X62092850Y-94653485D01*
X62112399Y-94455000D01*
X62617601Y-94455000D01*
X62637149Y-94653481D01*
X62637149Y-94653483D01*
X62637150Y-94653485D01*
X62695046Y-94844342D01*
X62695048Y-94844348D01*
X62789060Y-95020231D01*
X62789065Y-95020238D01*
X62915589Y-95174410D01*
X62959366Y-95210336D01*
X63069763Y-95300936D01*
X63069766Y-95300937D01*
X63069768Y-95300939D01*
X63245651Y-95394951D01*
X63245654Y-95394951D01*
X63245658Y-95394954D01*
X63436515Y-95452850D01*
X63635000Y-95472399D01*
X63833485Y-95452850D01*
X64024342Y-95394954D01*
X64200237Y-95300936D01*
X64354410Y-95174410D01*
X64480936Y-95020237D01*
X64574954Y-94844342D01*
X64632850Y-94653485D01*
X64652399Y-94455000D01*
X65157601Y-94455000D01*
X65177149Y-94653481D01*
X65177149Y-94653483D01*
X65177150Y-94653485D01*
X65235046Y-94844342D01*
X65235048Y-94844348D01*
X65329060Y-95020231D01*
X65329065Y-95020238D01*
X65455589Y-95174410D01*
X65499366Y-95210336D01*
X65609763Y-95300936D01*
X65609766Y-95300937D01*
X65609768Y-95300939D01*
X65785651Y-95394951D01*
X65785654Y-95394951D01*
X65785658Y-95394954D01*
X65976515Y-95452850D01*
X66175000Y-95472399D01*
X66373485Y-95452850D01*
X66564342Y-95394954D01*
X66740237Y-95300936D01*
X66894410Y-95174410D01*
X67020936Y-95020237D01*
X67114954Y-94844342D01*
X67172850Y-94653485D01*
X67192399Y-94455000D01*
X67697601Y-94455000D01*
X67717149Y-94653481D01*
X67717149Y-94653483D01*
X67717150Y-94653485D01*
X67775046Y-94844342D01*
X67775048Y-94844348D01*
X67869060Y-95020231D01*
X67869065Y-95020238D01*
X67995589Y-95174410D01*
X68039366Y-95210336D01*
X68149763Y-95300936D01*
X68149766Y-95300937D01*
X68149768Y-95300939D01*
X68325651Y-95394951D01*
X68325654Y-95394951D01*
X68325658Y-95394954D01*
X68516515Y-95452850D01*
X68715000Y-95472399D01*
X68913485Y-95452850D01*
X69104342Y-95394954D01*
X69280237Y-95300936D01*
X69434410Y-95174410D01*
X69560936Y-95020237D01*
X69654954Y-94844342D01*
X69712850Y-94653485D01*
X69732399Y-94455000D01*
X70237601Y-94455000D01*
X70257149Y-94653481D01*
X70257149Y-94653483D01*
X70257150Y-94653485D01*
X70315046Y-94844342D01*
X70315048Y-94844348D01*
X70409060Y-95020231D01*
X70409065Y-95020238D01*
X70535589Y-95174410D01*
X70579366Y-95210336D01*
X70689763Y-95300936D01*
X70689766Y-95300937D01*
X70689768Y-95300939D01*
X70865651Y-95394951D01*
X70865654Y-95394951D01*
X70865658Y-95394954D01*
X71056515Y-95452850D01*
X71255000Y-95472399D01*
X71453485Y-95452850D01*
X71644342Y-95394954D01*
X71820237Y-95300936D01*
X71974410Y-95174410D01*
X72100936Y-95020237D01*
X72194954Y-94844342D01*
X72228123Y-94735000D01*
X95099917Y-94735000D01*
X95134663Y-94834302D01*
X95230577Y-94986948D01*
X95358051Y-95114422D01*
X95510697Y-95210336D01*
X95610000Y-95245082D01*
X96110000Y-95245082D01*
X96209302Y-95210336D01*
X96361948Y-95114422D01*
X96412319Y-95064052D01*
X96473642Y-95030567D01*
X96543334Y-95035551D01*
X96587681Y-95064052D01*
X96638051Y-95114422D01*
X96790697Y-95210336D01*
X96890000Y-95245082D01*
X97390000Y-95245082D01*
X97489302Y-95210336D01*
X97641948Y-95114422D01*
X97769422Y-94986948D01*
X97865336Y-94834302D01*
X97900083Y-94735000D01*
X97390000Y-94735000D01*
X97390000Y-95245082D01*
X96890000Y-95245082D01*
X96890000Y-94735000D01*
X96110000Y-94735000D01*
X96110000Y-95245082D01*
X95610000Y-95245082D01*
X95610000Y-94735000D01*
X95099917Y-94735000D01*
X72228123Y-94735000D01*
X72252850Y-94653485D01*
X72272383Y-94455163D01*
X95710000Y-94455163D01*
X95710000Y-94514837D01*
X95732836Y-94569968D01*
X95775032Y-94612164D01*
X95830163Y-94635000D01*
X95889837Y-94635000D01*
X95944968Y-94612164D01*
X95987164Y-94569968D01*
X96010000Y-94514837D01*
X96010000Y-94455163D01*
X96990000Y-94455163D01*
X96990000Y-94514837D01*
X97012836Y-94569968D01*
X97055032Y-94612164D01*
X97110163Y-94635000D01*
X97169837Y-94635000D01*
X97224968Y-94612164D01*
X97267164Y-94569968D01*
X97290000Y-94514837D01*
X97290000Y-94455163D01*
X97267164Y-94400032D01*
X97224968Y-94357836D01*
X97169837Y-94335000D01*
X97110163Y-94335000D01*
X97055032Y-94357836D01*
X97012836Y-94400032D01*
X96990000Y-94455163D01*
X96010000Y-94455163D01*
X95987164Y-94400032D01*
X95944968Y-94357836D01*
X95889837Y-94335000D01*
X95830163Y-94335000D01*
X95775032Y-94357836D01*
X95732836Y-94400032D01*
X95710000Y-94455163D01*
X72272383Y-94455163D01*
X72272399Y-94455000D01*
X72252850Y-94256515D01*
X72246323Y-94235000D01*
X95099917Y-94235000D01*
X95610000Y-94235000D01*
X96110000Y-94235000D01*
X96890000Y-94235000D01*
X97390000Y-94235000D01*
X97900082Y-94235000D01*
X97865335Y-94135696D01*
X97821525Y-94065973D01*
X97802524Y-93998736D01*
X97821525Y-93934027D01*
X97865335Y-93864303D01*
X97900083Y-93765000D01*
X97390000Y-93765000D01*
X97390000Y-94235000D01*
X96890000Y-94235000D01*
X96890000Y-93765000D01*
X96110000Y-93765000D01*
X96110000Y-94235000D01*
X95610000Y-94235000D01*
X95610000Y-93765000D01*
X95099917Y-93765000D01*
X95134663Y-93864302D01*
X95178475Y-93934028D01*
X95197475Y-94001265D01*
X95178475Y-94065972D01*
X95134663Y-94135697D01*
X95099917Y-94235000D01*
X72246323Y-94235000D01*
X72194954Y-94065658D01*
X72194951Y-94065654D01*
X72194951Y-94065651D01*
X72100939Y-93889768D01*
X72100937Y-93889766D01*
X72100936Y-93889763D01*
X72062456Y-93842875D01*
X71974410Y-93735589D01*
X71820238Y-93609065D01*
X71820231Y-93609060D01*
X71644348Y-93515048D01*
X71644342Y-93515046D01*
X71545831Y-93485163D01*
X95710000Y-93485163D01*
X95710000Y-93544837D01*
X95732836Y-93599968D01*
X95775032Y-93642164D01*
X95830163Y-93665000D01*
X95889837Y-93665000D01*
X95944968Y-93642164D01*
X95987164Y-93599968D01*
X96010000Y-93544837D01*
X96010000Y-93485163D01*
X96990000Y-93485163D01*
X96990000Y-93544837D01*
X97012836Y-93599968D01*
X97055032Y-93642164D01*
X97110163Y-93665000D01*
X97169837Y-93665000D01*
X97224968Y-93642164D01*
X97267164Y-93599968D01*
X97290000Y-93544837D01*
X97290000Y-93485163D01*
X97267164Y-93430032D01*
X97224968Y-93387836D01*
X97169837Y-93365000D01*
X97110163Y-93365000D01*
X97055032Y-93387836D01*
X97012836Y-93430032D01*
X96990000Y-93485163D01*
X96010000Y-93485163D01*
X95987164Y-93430032D01*
X95944968Y-93387836D01*
X95889837Y-93365000D01*
X95830163Y-93365000D01*
X95775032Y-93387836D01*
X95732836Y-93430032D01*
X95710000Y-93485163D01*
X71545831Y-93485163D01*
X71453485Y-93457150D01*
X71453483Y-93457149D01*
X71453481Y-93457149D01*
X71255000Y-93437601D01*
X71056518Y-93457149D01*
X70865651Y-93515048D01*
X70689768Y-93609060D01*
X70689761Y-93609065D01*
X70535589Y-93735589D01*
X70409065Y-93889761D01*
X70409060Y-93889768D01*
X70315048Y-94065651D01*
X70257149Y-94256518D01*
X70237601Y-94455000D01*
X69732399Y-94455000D01*
X69712850Y-94256515D01*
X69654954Y-94065658D01*
X69654951Y-94065654D01*
X69654951Y-94065651D01*
X69560939Y-93889768D01*
X69560937Y-93889766D01*
X69560936Y-93889763D01*
X69522456Y-93842875D01*
X69434410Y-93735589D01*
X69280238Y-93609065D01*
X69280231Y-93609060D01*
X69104348Y-93515048D01*
X69104342Y-93515046D01*
X68913485Y-93457150D01*
X68913483Y-93457149D01*
X68913481Y-93457149D01*
X68715000Y-93437601D01*
X68516518Y-93457149D01*
X68325651Y-93515048D01*
X68149768Y-93609060D01*
X68149761Y-93609065D01*
X67995589Y-93735589D01*
X67869065Y-93889761D01*
X67869060Y-93889768D01*
X67775048Y-94065651D01*
X67717149Y-94256518D01*
X67697601Y-94455000D01*
X67192399Y-94455000D01*
X67172850Y-94256515D01*
X67114954Y-94065658D01*
X67114951Y-94065654D01*
X67114951Y-94065651D01*
X67020939Y-93889768D01*
X67020937Y-93889766D01*
X67020936Y-93889763D01*
X66982456Y-93842875D01*
X66894410Y-93735589D01*
X66740238Y-93609065D01*
X66740231Y-93609060D01*
X66564348Y-93515048D01*
X66564342Y-93515046D01*
X66373485Y-93457150D01*
X66373483Y-93457149D01*
X66373481Y-93457149D01*
X66175000Y-93437601D01*
X65976518Y-93457149D01*
X65785651Y-93515048D01*
X65609768Y-93609060D01*
X65609761Y-93609065D01*
X65455589Y-93735589D01*
X65329065Y-93889761D01*
X65329060Y-93889768D01*
X65235048Y-94065651D01*
X65177149Y-94256518D01*
X65157601Y-94455000D01*
X64652399Y-94455000D01*
X64632850Y-94256515D01*
X64574954Y-94065658D01*
X64574951Y-94065654D01*
X64574951Y-94065651D01*
X64480939Y-93889768D01*
X64480937Y-93889766D01*
X64480936Y-93889763D01*
X64442456Y-93842875D01*
X64354410Y-93735589D01*
X64200238Y-93609065D01*
X64200231Y-93609060D01*
X64024348Y-93515048D01*
X64024342Y-93515046D01*
X63833485Y-93457150D01*
X63833483Y-93457149D01*
X63833481Y-93457149D01*
X63635000Y-93437601D01*
X63436518Y-93457149D01*
X63245651Y-93515048D01*
X63069768Y-93609060D01*
X63069761Y-93609065D01*
X62915589Y-93735589D01*
X62789065Y-93889761D01*
X62789060Y-93889768D01*
X62695048Y-94065651D01*
X62637149Y-94256518D01*
X62617601Y-94455000D01*
X62112399Y-94455000D01*
X62092850Y-94256515D01*
X62034954Y-94065658D01*
X62034951Y-94065654D01*
X62034951Y-94065651D01*
X61940939Y-93889768D01*
X61940937Y-93889766D01*
X61940936Y-93889763D01*
X61902456Y-93842875D01*
X61814410Y-93735589D01*
X61660238Y-93609065D01*
X61660231Y-93609060D01*
X61484348Y-93515048D01*
X61484342Y-93515046D01*
X61293485Y-93457150D01*
X61293483Y-93457149D01*
X61293481Y-93457149D01*
X61095000Y-93437601D01*
X60896518Y-93457149D01*
X60705651Y-93515048D01*
X60529768Y-93609060D01*
X60529761Y-93609065D01*
X60375589Y-93735589D01*
X60249065Y-93889761D01*
X60249060Y-93889768D01*
X60155048Y-94065651D01*
X60097149Y-94256518D01*
X60077601Y-94455000D01*
X59572399Y-94455000D01*
X59552850Y-94256515D01*
X59494954Y-94065658D01*
X59494951Y-94065654D01*
X59494951Y-94065651D01*
X59400939Y-93889768D01*
X59400937Y-93889766D01*
X59400936Y-93889763D01*
X59362456Y-93842875D01*
X59274410Y-93735589D01*
X59120238Y-93609065D01*
X59120231Y-93609060D01*
X58944348Y-93515048D01*
X58944342Y-93515046D01*
X58753485Y-93457150D01*
X58753483Y-93457149D01*
X58753481Y-93457149D01*
X58555000Y-93437601D01*
X58356518Y-93457149D01*
X58165651Y-93515048D01*
X57989768Y-93609060D01*
X57989761Y-93609065D01*
X57835589Y-93735589D01*
X57709065Y-93889761D01*
X57709060Y-93889768D01*
X57615048Y-94065651D01*
X57557149Y-94256518D01*
X57537601Y-94455000D01*
X50381500Y-94455000D01*
X50381500Y-93265000D01*
X95099917Y-93265000D01*
X95610000Y-93265000D01*
X95610000Y-92754916D01*
X96110000Y-92754916D01*
X96110000Y-93265000D01*
X96890000Y-93265000D01*
X97390000Y-93265000D01*
X97900082Y-93265000D01*
X97865336Y-93165697D01*
X97769422Y-93013051D01*
X97641948Y-92885577D01*
X97489305Y-92789665D01*
X97489301Y-92789663D01*
X97390000Y-92754916D01*
X97390000Y-93265000D01*
X96890000Y-93265000D01*
X96890000Y-92754916D01*
X96889999Y-92754916D01*
X96790698Y-92789663D01*
X96790694Y-92789665D01*
X96638051Y-92885577D01*
X96587681Y-92935948D01*
X96526358Y-92969433D01*
X96456666Y-92964449D01*
X96412319Y-92935948D01*
X96361948Y-92885577D01*
X96209305Y-92789665D01*
X96209301Y-92789663D01*
X96110000Y-92754916D01*
X95610000Y-92754916D01*
X95609999Y-92754916D01*
X95510698Y-92789663D01*
X95510694Y-92789665D01*
X95358051Y-92885577D01*
X95230577Y-93013051D01*
X95134663Y-93165697D01*
X95099917Y-93265000D01*
X50381500Y-93265000D01*
X50381500Y-88852486D01*
X114999500Y-88852486D01*
X114999500Y-89147513D01*
X115031571Y-89391113D01*
X115038007Y-89439993D01*
X115038008Y-89439995D01*
X115114361Y-89724951D01*
X115114364Y-89724961D01*
X115227254Y-89997500D01*
X115227258Y-89997510D01*
X115374761Y-90252993D01*
X115554352Y-90487040D01*
X115554358Y-90487047D01*
X115762952Y-90695641D01*
X115762959Y-90695647D01*
X115997006Y-90875238D01*
X116252489Y-91022741D01*
X116252490Y-91022741D01*
X116252493Y-91022743D01*
X116525048Y-91135639D01*
X116810007Y-91211993D01*
X117102494Y-91250500D01*
X117102501Y-91250500D01*
X117397499Y-91250500D01*
X117397506Y-91250500D01*
X117689993Y-91211993D01*
X117974952Y-91135639D01*
X118247507Y-91022743D01*
X118502994Y-90875238D01*
X118737042Y-90695646D01*
X118945646Y-90487042D01*
X119125238Y-90252994D01*
X119272743Y-89997507D01*
X119385639Y-89724952D01*
X119461993Y-89439993D01*
X119500500Y-89147506D01*
X119500500Y-88852494D01*
X119500499Y-88852486D01*
X157499500Y-88852486D01*
X157499500Y-89147513D01*
X157531571Y-89391113D01*
X157538007Y-89439993D01*
X157538008Y-89439995D01*
X157614361Y-89724951D01*
X157614364Y-89724961D01*
X157727254Y-89997500D01*
X157727258Y-89997510D01*
X157874761Y-90252993D01*
X158054352Y-90487040D01*
X158054358Y-90487047D01*
X158262952Y-90695641D01*
X158262959Y-90695647D01*
X158497006Y-90875238D01*
X158752489Y-91022741D01*
X158752490Y-91022741D01*
X158752493Y-91022743D01*
X159025048Y-91135639D01*
X159310007Y-91211993D01*
X159602494Y-91250500D01*
X159602501Y-91250500D01*
X159897499Y-91250500D01*
X159897506Y-91250500D01*
X160189993Y-91211993D01*
X160474952Y-91135639D01*
X160747507Y-91022743D01*
X161002994Y-90875238D01*
X161237042Y-90695646D01*
X161445646Y-90487042D01*
X161625238Y-90252994D01*
X161772743Y-89997507D01*
X161885639Y-89724952D01*
X161961993Y-89439993D01*
X162000500Y-89147506D01*
X162000500Y-88852494D01*
X161961993Y-88560007D01*
X161885639Y-88275048D01*
X161772743Y-88002493D01*
X161742306Y-87949775D01*
X161625238Y-87747006D01*
X161445647Y-87512959D01*
X161445641Y-87512952D01*
X161237047Y-87304358D01*
X161237040Y-87304352D01*
X161002993Y-87124761D01*
X160747510Y-86977258D01*
X160747500Y-86977254D01*
X160474961Y-86864364D01*
X160474954Y-86864362D01*
X160474952Y-86864361D01*
X160189993Y-86788007D01*
X160141113Y-86781571D01*
X159897513Y-86749500D01*
X159897506Y-86749500D01*
X159602494Y-86749500D01*
X159602486Y-86749500D01*
X159324085Y-86786153D01*
X159310007Y-86788007D01*
X159025048Y-86864361D01*
X159025038Y-86864364D01*
X158752499Y-86977254D01*
X158752489Y-86977258D01*
X158497006Y-87124761D01*
X158262959Y-87304352D01*
X158262952Y-87304358D01*
X158054358Y-87512952D01*
X158054352Y-87512959D01*
X157874761Y-87747006D01*
X157727258Y-88002489D01*
X157727254Y-88002499D01*
X157614364Y-88275038D01*
X157614361Y-88275048D01*
X157585838Y-88381500D01*
X157538008Y-88560004D01*
X157538006Y-88560015D01*
X157499500Y-88852486D01*
X119500499Y-88852486D01*
X119461993Y-88560007D01*
X119385639Y-88275048D01*
X119272743Y-88002493D01*
X119242306Y-87949775D01*
X119125238Y-87747006D01*
X118945647Y-87512959D01*
X118945641Y-87512952D01*
X118737047Y-87304358D01*
X118737040Y-87304352D01*
X118502993Y-87124761D01*
X118247510Y-86977258D01*
X118247500Y-86977254D01*
X117974961Y-86864364D01*
X117974954Y-86864362D01*
X117974952Y-86864361D01*
X117689993Y-86788007D01*
X117641113Y-86781571D01*
X117397513Y-86749500D01*
X117397506Y-86749500D01*
X117102494Y-86749500D01*
X117102486Y-86749500D01*
X116824085Y-86786153D01*
X116810007Y-86788007D01*
X116525048Y-86864361D01*
X116525038Y-86864364D01*
X116252499Y-86977254D01*
X116252489Y-86977258D01*
X115997006Y-87124761D01*
X115762959Y-87304352D01*
X115762952Y-87304358D01*
X115554358Y-87512952D01*
X115554352Y-87512959D01*
X115374761Y-87747006D01*
X115227258Y-88002489D01*
X115227254Y-88002499D01*
X115114364Y-88275038D01*
X115114361Y-88275048D01*
X115085838Y-88381500D01*
X115038008Y-88560004D01*
X115038006Y-88560015D01*
X114999500Y-88852486D01*
X50381500Y-88852486D01*
X50381500Y-83862363D01*
X54585286Y-83862363D01*
X54585286Y-84059208D01*
X54616076Y-84253612D01*
X54676903Y-84440816D01*
X54757691Y-84599370D01*
X54766262Y-84616191D01*
X54881958Y-84775432D01*
X55551470Y-85444944D01*
X55710711Y-85560640D01*
X55793570Y-85602858D01*
X55886085Y-85649998D01*
X55886087Y-85649998D01*
X55886090Y-85650000D01*
X55964565Y-85675498D01*
X56073289Y-85710825D01*
X56267695Y-85741616D01*
X56267700Y-85741616D01*
X56464538Y-85741616D01*
X56658942Y-85710825D01*
X56805569Y-85663182D01*
X56875407Y-85661188D01*
X56935240Y-85697268D01*
X56966069Y-85759968D01*
X56961816Y-85819432D01*
X56914175Y-85966053D01*
X56914175Y-85966056D01*
X56883384Y-86160461D01*
X56883384Y-86357306D01*
X56914174Y-86551710D01*
X56975001Y-86738914D01*
X57064360Y-86914289D01*
X57180056Y-87073530D01*
X57849568Y-87743042D01*
X58008809Y-87858738D01*
X58091668Y-87900956D01*
X58184183Y-87948096D01*
X58184185Y-87948096D01*
X58184188Y-87948098D01*
X58284532Y-87980701D01*
X58371387Y-88008923D01*
X58565793Y-88039714D01*
X58565798Y-88039714D01*
X58762636Y-88039714D01*
X58957040Y-88008923D01*
X58976842Y-88002489D01*
X59144240Y-87948098D01*
X59319619Y-87858738D01*
X59478860Y-87743042D01*
X59618042Y-87603860D01*
X59733738Y-87444619D01*
X59823098Y-87269240D01*
X59883923Y-87082040D01*
X59900519Y-86977257D01*
X59914714Y-86887636D01*
X59914714Y-86690792D01*
X59883923Y-86496387D01*
X59823096Y-86309183D01*
X59733737Y-86133808D01*
X59618042Y-85974568D01*
X58948530Y-85305056D01*
X58789289Y-85189360D01*
X58613914Y-85100001D01*
X58426710Y-85039174D01*
X58232306Y-85008384D01*
X58232301Y-85008384D01*
X58035467Y-85008384D01*
X58035462Y-85008384D01*
X57841056Y-85039175D01*
X57841053Y-85039175D01*
X57694432Y-85086816D01*
X57624591Y-85088811D01*
X57564758Y-85052731D01*
X57533930Y-84990030D01*
X57538182Y-84930569D01*
X57585825Y-84783942D01*
X57591201Y-84750000D01*
X57616616Y-84589538D01*
X57616616Y-84392694D01*
X57585825Y-84198289D01*
X57524998Y-84011085D01*
X57474190Y-83911369D01*
X57449220Y-83862363D01*
X59585286Y-83862363D01*
X59585286Y-84059208D01*
X59616076Y-84253612D01*
X59676903Y-84440816D01*
X59757691Y-84599370D01*
X59766262Y-84616191D01*
X59881958Y-84775432D01*
X60551470Y-85444944D01*
X60710711Y-85560640D01*
X60793570Y-85602858D01*
X60886085Y-85649998D01*
X60886087Y-85649998D01*
X60886090Y-85650000D01*
X60964565Y-85675498D01*
X61073289Y-85710825D01*
X61267695Y-85741616D01*
X61267700Y-85741616D01*
X61464538Y-85741616D01*
X61658942Y-85710825D01*
X61805569Y-85663182D01*
X61875407Y-85661188D01*
X61935240Y-85697268D01*
X61966069Y-85759968D01*
X61961816Y-85819432D01*
X61914175Y-85966053D01*
X61914175Y-85966056D01*
X61883384Y-86160461D01*
X61883384Y-86357306D01*
X61914174Y-86551710D01*
X61975001Y-86738914D01*
X62064360Y-86914289D01*
X62180056Y-87073530D01*
X62849568Y-87743042D01*
X63008809Y-87858738D01*
X63091668Y-87900956D01*
X63184183Y-87948096D01*
X63184185Y-87948096D01*
X63184188Y-87948098D01*
X63284532Y-87980701D01*
X63371387Y-88008923D01*
X63565793Y-88039714D01*
X63565798Y-88039714D01*
X63762636Y-88039714D01*
X63957040Y-88008923D01*
X63976842Y-88002489D01*
X64144240Y-87948098D01*
X64319619Y-87858738D01*
X64478860Y-87743042D01*
X64618042Y-87603860D01*
X64733738Y-87444619D01*
X64823098Y-87269240D01*
X64883923Y-87082040D01*
X64900519Y-86977257D01*
X64914714Y-86887636D01*
X64914714Y-86690792D01*
X64883923Y-86496387D01*
X64823096Y-86309183D01*
X64733737Y-86133808D01*
X64618042Y-85974568D01*
X63948530Y-85305056D01*
X63789289Y-85189360D01*
X63613914Y-85100001D01*
X63426710Y-85039174D01*
X63232306Y-85008384D01*
X63232301Y-85008384D01*
X63035467Y-85008384D01*
X63035462Y-85008384D01*
X62841056Y-85039175D01*
X62841053Y-85039175D01*
X62694432Y-85086816D01*
X62624591Y-85088811D01*
X62564758Y-85052731D01*
X62533930Y-84990030D01*
X62538182Y-84930569D01*
X62585825Y-84783942D01*
X62591201Y-84750000D01*
X62616616Y-84589538D01*
X62616616Y-84392694D01*
X62585825Y-84198289D01*
X62524998Y-84011085D01*
X62474190Y-83911369D01*
X62449220Y-83862363D01*
X64585286Y-83862363D01*
X64585286Y-84059208D01*
X64616076Y-84253612D01*
X64676903Y-84440816D01*
X64757691Y-84599370D01*
X64766262Y-84616191D01*
X64881958Y-84775432D01*
X65551470Y-85444944D01*
X65710711Y-85560640D01*
X65793570Y-85602858D01*
X65886085Y-85649998D01*
X65886087Y-85649998D01*
X65886090Y-85650000D01*
X65964565Y-85675498D01*
X66073289Y-85710825D01*
X66267695Y-85741616D01*
X66267700Y-85741616D01*
X66464538Y-85741616D01*
X66658942Y-85710825D01*
X66805569Y-85663182D01*
X66875407Y-85661188D01*
X66935240Y-85697268D01*
X66966069Y-85759968D01*
X66961816Y-85819432D01*
X66914175Y-85966053D01*
X66914175Y-85966056D01*
X66883384Y-86160461D01*
X66883384Y-86357306D01*
X66914174Y-86551710D01*
X66975001Y-86738914D01*
X67064360Y-86914289D01*
X67180056Y-87073530D01*
X67849568Y-87743042D01*
X68008809Y-87858738D01*
X68091668Y-87900956D01*
X68184183Y-87948096D01*
X68184185Y-87948096D01*
X68184188Y-87948098D01*
X68284532Y-87980701D01*
X68371387Y-88008923D01*
X68565793Y-88039714D01*
X68565798Y-88039714D01*
X68762636Y-88039714D01*
X68957040Y-88008923D01*
X68976842Y-88002489D01*
X69144240Y-87948098D01*
X69319619Y-87858738D01*
X69478860Y-87743042D01*
X69618042Y-87603860D01*
X69733738Y-87444619D01*
X69823098Y-87269240D01*
X69883923Y-87082040D01*
X69900519Y-86977257D01*
X69914714Y-86887636D01*
X69914714Y-86690792D01*
X69883923Y-86496387D01*
X69823096Y-86309183D01*
X69733737Y-86133808D01*
X69618042Y-85974568D01*
X68948530Y-85305056D01*
X68789289Y-85189360D01*
X68613914Y-85100001D01*
X68426710Y-85039174D01*
X68232306Y-85008384D01*
X68232301Y-85008384D01*
X68035467Y-85008384D01*
X68035462Y-85008384D01*
X67841056Y-85039175D01*
X67841053Y-85039175D01*
X67694432Y-85086816D01*
X67624591Y-85088811D01*
X67564758Y-85052731D01*
X67533930Y-84990030D01*
X67538182Y-84930569D01*
X67585825Y-84783942D01*
X67591201Y-84750000D01*
X67616616Y-84589538D01*
X67616616Y-84392694D01*
X67585825Y-84198289D01*
X67524998Y-84011085D01*
X67474190Y-83911369D01*
X67449220Y-83862363D01*
X69585286Y-83862363D01*
X69585286Y-84059208D01*
X69616076Y-84253612D01*
X69676903Y-84440816D01*
X69757691Y-84599370D01*
X69766262Y-84616191D01*
X69881958Y-84775432D01*
X70551470Y-85444944D01*
X70710711Y-85560640D01*
X70793570Y-85602858D01*
X70886085Y-85649998D01*
X70886087Y-85649998D01*
X70886090Y-85650000D01*
X70964565Y-85675498D01*
X71073289Y-85710825D01*
X71267695Y-85741616D01*
X71267700Y-85741616D01*
X71464538Y-85741616D01*
X71658942Y-85710825D01*
X71805569Y-85663182D01*
X71875407Y-85661188D01*
X71935240Y-85697268D01*
X71966069Y-85759968D01*
X71961816Y-85819432D01*
X71914175Y-85966053D01*
X71914175Y-85966056D01*
X71883384Y-86160461D01*
X71883384Y-86357306D01*
X71914174Y-86551710D01*
X71975001Y-86738914D01*
X72064360Y-86914289D01*
X72180056Y-87073530D01*
X72849568Y-87743042D01*
X73008809Y-87858738D01*
X73091668Y-87900956D01*
X73184183Y-87948096D01*
X73184185Y-87948096D01*
X73184188Y-87948098D01*
X73284532Y-87980701D01*
X73371387Y-88008923D01*
X73565793Y-88039714D01*
X73565798Y-88039714D01*
X73762636Y-88039714D01*
X73957040Y-88008923D01*
X73976842Y-88002489D01*
X74144240Y-87948098D01*
X74319619Y-87858738D01*
X74478860Y-87743042D01*
X74618042Y-87603860D01*
X74733738Y-87444619D01*
X74823098Y-87269240D01*
X74883923Y-87082040D01*
X74900519Y-86977257D01*
X74914714Y-86887636D01*
X74914714Y-86690792D01*
X74883923Y-86496387D01*
X74823096Y-86309183D01*
X74733737Y-86133808D01*
X74618042Y-85974568D01*
X73948530Y-85305056D01*
X73789289Y-85189360D01*
X73613914Y-85100001D01*
X73426710Y-85039174D01*
X73232306Y-85008384D01*
X73232301Y-85008384D01*
X73035467Y-85008384D01*
X73035462Y-85008384D01*
X72841056Y-85039175D01*
X72841053Y-85039175D01*
X72694432Y-85086816D01*
X72624591Y-85088811D01*
X72564758Y-85052731D01*
X72533930Y-84990030D01*
X72538182Y-84930569D01*
X72585825Y-84783942D01*
X72591201Y-84750000D01*
X72616616Y-84589538D01*
X72616616Y-84392694D01*
X72613814Y-84375000D01*
X79615312Y-84375000D01*
X79635957Y-84518595D01*
X79635958Y-84518599D01*
X79680528Y-84616191D01*
X79696223Y-84650558D01*
X79791225Y-84760196D01*
X79853161Y-84800000D01*
X79913269Y-84838630D01*
X80052461Y-84879499D01*
X80052463Y-84879500D01*
X80052464Y-84879500D01*
X80197537Y-84879500D01*
X80197537Y-84879499D01*
X80336729Y-84838630D01*
X80336730Y-84838630D01*
X80336732Y-84838629D01*
X80458775Y-84760196D01*
X80467610Y-84750000D01*
X81240312Y-84750000D01*
X81260957Y-84893595D01*
X81260958Y-84893599D01*
X81313380Y-85008384D01*
X81321223Y-85025558D01*
X81416225Y-85135196D01*
X81494659Y-85185602D01*
X81538269Y-85213630D01*
X81677461Y-85254499D01*
X81677463Y-85254500D01*
X81677464Y-85254500D01*
X81822537Y-85254500D01*
X81822537Y-85254499D01*
X81961729Y-85213630D01*
X81961730Y-85213630D01*
X81961732Y-85213629D01*
X82083775Y-85135196D01*
X82178777Y-85025558D01*
X82230833Y-84911571D01*
X82239041Y-84893599D01*
X82239042Y-84893595D01*
X82259688Y-84750000D01*
X83490312Y-84750000D01*
X83510957Y-84893595D01*
X83510958Y-84893599D01*
X83563380Y-85008384D01*
X83571223Y-85025558D01*
X83666225Y-85135196D01*
X83744659Y-85185602D01*
X83788269Y-85213630D01*
X83927461Y-85254499D01*
X83927463Y-85254500D01*
X83927464Y-85254500D01*
X84072537Y-85254500D01*
X84072537Y-85254499D01*
X84211729Y-85213630D01*
X84211730Y-85213630D01*
X84211732Y-85213629D01*
X84333775Y-85135196D01*
X84428777Y-85025558D01*
X84480833Y-84911571D01*
X84489041Y-84893599D01*
X84489042Y-84893595D01*
X84509688Y-84750000D01*
X84489042Y-84606404D01*
X84489041Y-84606400D01*
X84442504Y-84504500D01*
X84428777Y-84474442D01*
X84333775Y-84364804D01*
X84298950Y-84342423D01*
X84211730Y-84286369D01*
X84072538Y-84245500D01*
X84072536Y-84245500D01*
X83927464Y-84245500D01*
X83927461Y-84245500D01*
X83788270Y-84286369D01*
X83788269Y-84286369D01*
X83666226Y-84364803D01*
X83571223Y-84474442D01*
X83571222Y-84474443D01*
X83510958Y-84606400D01*
X83510957Y-84606404D01*
X83490312Y-84750000D01*
X82259688Y-84750000D01*
X82239042Y-84606404D01*
X82239041Y-84606400D01*
X82192504Y-84504500D01*
X82178777Y-84474442D01*
X82083775Y-84364804D01*
X82048950Y-84342423D01*
X81961730Y-84286369D01*
X81822538Y-84245500D01*
X81822536Y-84245500D01*
X81677464Y-84245500D01*
X81677461Y-84245500D01*
X81538270Y-84286369D01*
X81538269Y-84286369D01*
X81416226Y-84364803D01*
X81321223Y-84474442D01*
X81321222Y-84474443D01*
X81260958Y-84606400D01*
X81260957Y-84606404D01*
X81240312Y-84750000D01*
X80467610Y-84750000D01*
X80553777Y-84650558D01*
X80614042Y-84518596D01*
X80634688Y-84375000D01*
X80614042Y-84231404D01*
X80614041Y-84231400D01*
X80594416Y-84188428D01*
X87650000Y-84188428D01*
X87650000Y-84300000D01*
X88469670Y-84300000D01*
X88449925Y-84319745D01*
X88400556Y-84405255D01*
X88375000Y-84500630D01*
X88375000Y-84599370D01*
X88400556Y-84694745D01*
X88449925Y-84780255D01*
X88469670Y-84800000D01*
X87650000Y-84800000D01*
X87650000Y-84911571D01*
X87677085Y-85082584D01*
X87730591Y-85247257D01*
X87809195Y-85401524D01*
X87910967Y-85541602D01*
X88033397Y-85664032D01*
X88173475Y-85765804D01*
X88327744Y-85844408D01*
X88492415Y-85897914D01*
X88492414Y-85897914D01*
X88499999Y-85899115D01*
X88500000Y-85899114D01*
X88500000Y-84830330D01*
X88519745Y-84850075D01*
X88605255Y-84899444D01*
X88700630Y-84925000D01*
X88799370Y-84925000D01*
X88894745Y-84899444D01*
X88980255Y-84850075D01*
X89000000Y-84830330D01*
X89000000Y-85899115D01*
X89007584Y-85897914D01*
X89172255Y-85844408D01*
X89326524Y-85765804D01*
X89466602Y-85664032D01*
X89589032Y-85541602D01*
X89690805Y-85401522D01*
X89712554Y-85358838D01*
X89760528Y-85308042D01*
X89828349Y-85291246D01*
X89894484Y-85313783D01*
X89937936Y-85368498D01*
X89939221Y-85371798D01*
X89956203Y-85417330D01*
X89956206Y-85417335D01*
X90042452Y-85532544D01*
X90042455Y-85532547D01*
X90157664Y-85618793D01*
X90157671Y-85618797D01*
X90292517Y-85669091D01*
X90292516Y-85669091D01*
X90299444Y-85669835D01*
X90352127Y-85675500D01*
X91147872Y-85675499D01*
X91207483Y-85669091D01*
X91342331Y-85618796D01*
X91457546Y-85532546D01*
X91543796Y-85417331D01*
X91594091Y-85282483D01*
X91600500Y-85222873D01*
X91600499Y-84000000D01*
X96990312Y-84000000D01*
X97010957Y-84143595D01*
X97010958Y-84143599D01*
X97071222Y-84275556D01*
X97071223Y-84275558D01*
X97166225Y-84385196D01*
X97244659Y-84435602D01*
X97288269Y-84463630D01*
X97427461Y-84504499D01*
X97427463Y-84504500D01*
X97427464Y-84504500D01*
X97572537Y-84504500D01*
X97572537Y-84504499D01*
X97711729Y-84463630D01*
X97711730Y-84463630D01*
X97711732Y-84463629D01*
X97833775Y-84385196D01*
X97928777Y-84275558D01*
X97989042Y-84143596D01*
X98002262Y-84051647D01*
X98025849Y-83999999D01*
X98224150Y-83999999D01*
X98247738Y-84051648D01*
X98260957Y-84143595D01*
X98260958Y-84143599D01*
X98321222Y-84275556D01*
X98321223Y-84275558D01*
X98416225Y-84385196D01*
X98494659Y-84435602D01*
X98538269Y-84463630D01*
X98677461Y-84504499D01*
X98677463Y-84504500D01*
X98677464Y-84504500D01*
X98822537Y-84504500D01*
X98822537Y-84504499D01*
X98961729Y-84463630D01*
X98961730Y-84463630D01*
X98961732Y-84463629D01*
X99083775Y-84385196D01*
X99178777Y-84275558D01*
X99239042Y-84143596D01*
X99259688Y-84000000D01*
X99239042Y-83856404D01*
X99239041Y-83856400D01*
X99200220Y-83771397D01*
X99178777Y-83724442D01*
X99083775Y-83614804D01*
X99048950Y-83592423D01*
X98961730Y-83536369D01*
X98822538Y-83495500D01*
X98822536Y-83495500D01*
X98677464Y-83495500D01*
X98677461Y-83495500D01*
X98538270Y-83536369D01*
X98538269Y-83536369D01*
X98416226Y-83614803D01*
X98321223Y-83724442D01*
X98321222Y-83724443D01*
X98260958Y-83856400D01*
X98260957Y-83856404D01*
X98247738Y-83948351D01*
X98224150Y-83999999D01*
X98025849Y-83999999D01*
X98002262Y-83948351D01*
X97989042Y-83856404D01*
X97989041Y-83856400D01*
X97950220Y-83771397D01*
X97928777Y-83724442D01*
X97833775Y-83614804D01*
X97798950Y-83592423D01*
X97711730Y-83536369D01*
X97572538Y-83495500D01*
X97572536Y-83495500D01*
X97427464Y-83495500D01*
X97427461Y-83495500D01*
X97288270Y-83536369D01*
X97288269Y-83536369D01*
X97166226Y-83614803D01*
X97071223Y-83724442D01*
X97071222Y-83724443D01*
X97010958Y-83856400D01*
X97010957Y-83856404D01*
X96990312Y-84000000D01*
X91600499Y-84000000D01*
X91600499Y-83877128D01*
X91594091Y-83817517D01*
X91585207Y-83793699D01*
X91543797Y-83682671D01*
X91543793Y-83682664D01*
X91457547Y-83567455D01*
X91457544Y-83567452D01*
X91342335Y-83481206D01*
X91342328Y-83481202D01*
X91207482Y-83430908D01*
X91207483Y-83430908D01*
X91147883Y-83424501D01*
X91147881Y-83424500D01*
X91147873Y-83424500D01*
X91147864Y-83424500D01*
X90352129Y-83424500D01*
X90352123Y-83424501D01*
X90292516Y-83430908D01*
X90157671Y-83481202D01*
X90157664Y-83481206D01*
X90042455Y-83567452D01*
X90042452Y-83567455D01*
X89956206Y-83682664D01*
X89956203Y-83682670D01*
X89939221Y-83728201D01*
X89897349Y-83784135D01*
X89831884Y-83808551D01*
X89763612Y-83793699D01*
X89714206Y-83744293D01*
X89712554Y-83741162D01*
X89690804Y-83698475D01*
X89589032Y-83558397D01*
X89466602Y-83435967D01*
X89326524Y-83334195D01*
X89172257Y-83255591D01*
X89007589Y-83202087D01*
X89007581Y-83202085D01*
X89000000Y-83200884D01*
X89000000Y-84269670D01*
X88980255Y-84249925D01*
X88894745Y-84200556D01*
X88799370Y-84175000D01*
X88700630Y-84175000D01*
X88605255Y-84200556D01*
X88519745Y-84249925D01*
X88500000Y-84269670D01*
X88500000Y-83200884D01*
X88499999Y-83200884D01*
X88492418Y-83202085D01*
X88492410Y-83202087D01*
X88327742Y-83255591D01*
X88173475Y-83334195D01*
X88033397Y-83435967D01*
X87910967Y-83558397D01*
X87809195Y-83698475D01*
X87730591Y-83852742D01*
X87677085Y-84017415D01*
X87650000Y-84188428D01*
X80594416Y-84188428D01*
X80553777Y-84099443D01*
X80553777Y-84099442D01*
X80458775Y-83989804D01*
X80423950Y-83967423D01*
X80336730Y-83911369D01*
X80197538Y-83870500D01*
X80197536Y-83870500D01*
X80052464Y-83870500D01*
X80052461Y-83870500D01*
X79913270Y-83911369D01*
X79913269Y-83911369D01*
X79791226Y-83989803D01*
X79696223Y-84099442D01*
X79696222Y-84099443D01*
X79635958Y-84231400D01*
X79635957Y-84231404D01*
X79615312Y-84375000D01*
X72613814Y-84375000D01*
X72585825Y-84198289D01*
X72524998Y-84011085D01*
X72474190Y-83911369D01*
X72435640Y-83835711D01*
X72319944Y-83676470D01*
X71650432Y-83006958D01*
X71491191Y-82891262D01*
X71315816Y-82801903D01*
X71128612Y-82741076D01*
X70934208Y-82710286D01*
X70934203Y-82710286D01*
X70737369Y-82710286D01*
X70737364Y-82710286D01*
X70542959Y-82741076D01*
X70355755Y-82801903D01*
X70180380Y-82891262D01*
X70089527Y-82957271D01*
X70021140Y-83006958D01*
X70021138Y-83006960D01*
X70021137Y-83006960D01*
X69881960Y-83146137D01*
X69881960Y-83146138D01*
X69881958Y-83146140D01*
X69842184Y-83200884D01*
X69766262Y-83305380D01*
X69676903Y-83480755D01*
X69616076Y-83667959D01*
X69585286Y-83862363D01*
X67449220Y-83862363D01*
X67435640Y-83835711D01*
X67319944Y-83676470D01*
X66650432Y-83006958D01*
X66491191Y-82891262D01*
X66315816Y-82801903D01*
X66128612Y-82741076D01*
X65934208Y-82710286D01*
X65934203Y-82710286D01*
X65737369Y-82710286D01*
X65737364Y-82710286D01*
X65542959Y-82741076D01*
X65355755Y-82801903D01*
X65180380Y-82891262D01*
X65089527Y-82957271D01*
X65021140Y-83006958D01*
X65021138Y-83006960D01*
X65021137Y-83006960D01*
X64881960Y-83146137D01*
X64881960Y-83146138D01*
X64881958Y-83146140D01*
X64842184Y-83200884D01*
X64766262Y-83305380D01*
X64676903Y-83480755D01*
X64616076Y-83667959D01*
X64585286Y-83862363D01*
X62449220Y-83862363D01*
X62435640Y-83835711D01*
X62319944Y-83676470D01*
X61650432Y-83006958D01*
X61491191Y-82891262D01*
X61315816Y-82801903D01*
X61128612Y-82741076D01*
X60934208Y-82710286D01*
X60934203Y-82710286D01*
X60737369Y-82710286D01*
X60737364Y-82710286D01*
X60542959Y-82741076D01*
X60355755Y-82801903D01*
X60180380Y-82891262D01*
X60089527Y-82957271D01*
X60021140Y-83006958D01*
X60021138Y-83006960D01*
X60021137Y-83006960D01*
X59881960Y-83146137D01*
X59881960Y-83146138D01*
X59881958Y-83146140D01*
X59842184Y-83200884D01*
X59766262Y-83305380D01*
X59676903Y-83480755D01*
X59616076Y-83667959D01*
X59585286Y-83862363D01*
X57449220Y-83862363D01*
X57435640Y-83835711D01*
X57319944Y-83676470D01*
X56650432Y-83006958D01*
X56491191Y-82891262D01*
X56315816Y-82801903D01*
X56128612Y-82741076D01*
X55934208Y-82710286D01*
X55934203Y-82710286D01*
X55737369Y-82710286D01*
X55737364Y-82710286D01*
X55542959Y-82741076D01*
X55355755Y-82801903D01*
X55180380Y-82891262D01*
X55089527Y-82957271D01*
X55021140Y-83006958D01*
X55021138Y-83006960D01*
X55021137Y-83006960D01*
X54881960Y-83146137D01*
X54881960Y-83146138D01*
X54881958Y-83146140D01*
X54842184Y-83200884D01*
X54766262Y-83305380D01*
X54676903Y-83480755D01*
X54616076Y-83667959D01*
X54585286Y-83862363D01*
X50381500Y-83862363D01*
X50381500Y-81005500D01*
X50401185Y-80938461D01*
X50453989Y-80892706D01*
X50505500Y-80881500D01*
X95050222Y-80881500D01*
X95050225Y-80881500D01*
X95147254Y-80855501D01*
X95234247Y-80805276D01*
X95305276Y-80734247D01*
X95355501Y-80647254D01*
X95381500Y-80550225D01*
X95381500Y-76916228D01*
X99674499Y-76916228D01*
X99674499Y-77083771D01*
X99707181Y-77248074D01*
X99707183Y-77248082D01*
X99771294Y-77402860D01*
X99864372Y-77542162D01*
X99982836Y-77660626D01*
X100056600Y-77709913D01*
X100122136Y-77753703D01*
X100276917Y-77817816D01*
X100441227Y-77850499D01*
X100441231Y-77850500D01*
X100441232Y-77850500D01*
X101158767Y-77850500D01*
X101158768Y-77850499D01*
X101323081Y-77817816D01*
X101477862Y-77753703D01*
X101617161Y-77660626D01*
X101735625Y-77542162D01*
X101828702Y-77402863D01*
X101892815Y-77248082D01*
X101925499Y-77083767D01*
X101925499Y-76916233D01*
X101892815Y-76751918D01*
X101828702Y-76597137D01*
X101797536Y-76550494D01*
X101735625Y-76457837D01*
X101617161Y-76339373D01*
X101477859Y-76246295D01*
X101323081Y-76182184D01*
X101323073Y-76182182D01*
X101158770Y-76149500D01*
X101158766Y-76149500D01*
X100441232Y-76149500D01*
X100441227Y-76149500D01*
X100276924Y-76182182D01*
X100276916Y-76182184D01*
X100122138Y-76246295D01*
X99982836Y-76339373D01*
X99864372Y-76457837D01*
X99771294Y-76597139D01*
X99707183Y-76751917D01*
X99707181Y-76751925D01*
X99674499Y-76916228D01*
X95381500Y-76916228D01*
X95381500Y-75999998D01*
X122870211Y-75999998D01*
X122870211Y-76000001D01*
X122889345Y-76267523D01*
X122889346Y-76267530D01*
X122946354Y-76529593D01*
X123040084Y-76780894D01*
X123040086Y-76780898D01*
X123168617Y-77016285D01*
X123168622Y-77016293D01*
X123259179Y-77137265D01*
X123259180Y-77137265D01*
X124072421Y-76324024D01*
X124085359Y-76355258D01*
X124167437Y-76478097D01*
X124271903Y-76582563D01*
X124394742Y-76664641D01*
X124425974Y-76677578D01*
X123612733Y-77490819D01*
X123733706Y-77581377D01*
X123733714Y-77581382D01*
X123969101Y-77709913D01*
X123969105Y-77709915D01*
X124220406Y-77803645D01*
X124482469Y-77860653D01*
X124482476Y-77860654D01*
X124749999Y-77879789D01*
X124750001Y-77879789D01*
X125017523Y-77860654D01*
X125017530Y-77860653D01*
X125279593Y-77803645D01*
X125530894Y-77709915D01*
X125530898Y-77709913D01*
X125766285Y-77581382D01*
X125766293Y-77581377D01*
X125887264Y-77490819D01*
X125887265Y-77490818D01*
X125074025Y-76677577D01*
X125105258Y-76664641D01*
X125228097Y-76582563D01*
X125332563Y-76478097D01*
X125414641Y-76355258D01*
X125427577Y-76324025D01*
X126240818Y-77137265D01*
X126240819Y-77137264D01*
X126331377Y-77016293D01*
X126331382Y-77016285D01*
X126459913Y-76780898D01*
X126459915Y-76780894D01*
X126553645Y-76529593D01*
X126610653Y-76267530D01*
X126610654Y-76267523D01*
X126629789Y-76000001D01*
X126629789Y-76000000D01*
X135619474Y-76000000D01*
X135639547Y-76255064D01*
X135639547Y-76255067D01*
X135639548Y-76255070D01*
X135688229Y-76457837D01*
X135699279Y-76503864D01*
X135797188Y-76740239D01*
X135797190Y-76740242D01*
X135930875Y-76958396D01*
X135930878Y-76958401D01*
X135980316Y-77016285D01*
X136097044Y-77152956D01*
X136221579Y-77259319D01*
X136291598Y-77319121D01*
X136291600Y-77319122D01*
X136291601Y-77319123D01*
X136509757Y-77452809D01*
X136509760Y-77452811D01*
X136725474Y-77542162D01*
X136746140Y-77550722D01*
X136994930Y-77610452D01*
X137250000Y-77630526D01*
X137505070Y-77610452D01*
X137753860Y-77550722D01*
X137898481Y-77490818D01*
X137990239Y-77452811D01*
X137990240Y-77452810D01*
X137990243Y-77452809D01*
X138208399Y-77319123D01*
X138402956Y-77152956D01*
X138569123Y-76958399D01*
X138702809Y-76740243D01*
X138800722Y-76503860D01*
X138860452Y-76255070D01*
X138880526Y-76000000D01*
X140619474Y-76000000D01*
X140639547Y-76255064D01*
X140639547Y-76255067D01*
X140639548Y-76255070D01*
X140688229Y-76457837D01*
X140699279Y-76503864D01*
X140797188Y-76740239D01*
X140797190Y-76740242D01*
X140930875Y-76958396D01*
X140930878Y-76958401D01*
X140980316Y-77016285D01*
X141097044Y-77152956D01*
X141221579Y-77259319D01*
X141291598Y-77319121D01*
X141291600Y-77319122D01*
X141291601Y-77319123D01*
X141509757Y-77452809D01*
X141509760Y-77452811D01*
X141725474Y-77542162D01*
X141746140Y-77550722D01*
X141994930Y-77610452D01*
X142250000Y-77630526D01*
X142505070Y-77610452D01*
X142753860Y-77550722D01*
X142898481Y-77490818D01*
X142990239Y-77452811D01*
X142990240Y-77452810D01*
X142990243Y-77452809D01*
X143208399Y-77319123D01*
X143402956Y-77152956D01*
X143569123Y-76958399D01*
X143702809Y-76740243D01*
X143800722Y-76503860D01*
X143860452Y-76255070D01*
X143880526Y-76000000D01*
X145619474Y-76000000D01*
X145639547Y-76255064D01*
X145639547Y-76255067D01*
X145639548Y-76255070D01*
X145688229Y-76457837D01*
X145699279Y-76503864D01*
X145797188Y-76740239D01*
X145797190Y-76740242D01*
X145930875Y-76958396D01*
X145930878Y-76958401D01*
X145980316Y-77016285D01*
X146097044Y-77152956D01*
X146221579Y-77259319D01*
X146291598Y-77319121D01*
X146291600Y-77319122D01*
X146291601Y-77319123D01*
X146509757Y-77452809D01*
X146509760Y-77452811D01*
X146725474Y-77542162D01*
X146746140Y-77550722D01*
X146994930Y-77610452D01*
X147250000Y-77630526D01*
X147505070Y-77610452D01*
X147753860Y-77550722D01*
X147898481Y-77490818D01*
X147990239Y-77452811D01*
X147990240Y-77452810D01*
X147990243Y-77452809D01*
X148208399Y-77319123D01*
X148402956Y-77152956D01*
X148569123Y-76958399D01*
X148702809Y-76740243D01*
X148800722Y-76503860D01*
X148860452Y-76255070D01*
X148880526Y-76000000D01*
X150619474Y-76000000D01*
X150639547Y-76255064D01*
X150639547Y-76255067D01*
X150639548Y-76255070D01*
X150688229Y-76457837D01*
X150699279Y-76503864D01*
X150797188Y-76740239D01*
X150797190Y-76740242D01*
X150930875Y-76958396D01*
X150930878Y-76958401D01*
X150980316Y-77016285D01*
X151097044Y-77152956D01*
X151221579Y-77259319D01*
X151291598Y-77319121D01*
X151291600Y-77319122D01*
X151291601Y-77319123D01*
X151509757Y-77452809D01*
X151509760Y-77452811D01*
X151725474Y-77542162D01*
X151746140Y-77550722D01*
X151994930Y-77610452D01*
X152250000Y-77630526D01*
X152505070Y-77610452D01*
X152753860Y-77550722D01*
X152898481Y-77490818D01*
X152990239Y-77452811D01*
X152990240Y-77452810D01*
X152990243Y-77452809D01*
X153208399Y-77319123D01*
X153402956Y-77152956D01*
X153569123Y-76958399D01*
X153702809Y-76740243D01*
X153800722Y-76503860D01*
X153860452Y-76255070D01*
X153880526Y-76000000D01*
X153860452Y-75744930D01*
X153800722Y-75496140D01*
X153784710Y-75457483D01*
X153702811Y-75259760D01*
X153702809Y-75259757D01*
X153569124Y-75041603D01*
X153569121Y-75041598D01*
X153509319Y-74971579D01*
X153402956Y-74847044D01*
X153296591Y-74756200D01*
X153208401Y-74680878D01*
X153208396Y-74680875D01*
X152990242Y-74547190D01*
X152990239Y-74547188D01*
X152753864Y-74449279D01*
X152753860Y-74449278D01*
X152505070Y-74389548D01*
X152505067Y-74389547D01*
X152505064Y-74389547D01*
X152250000Y-74369474D01*
X151994935Y-74389547D01*
X151994931Y-74389547D01*
X151994930Y-74389548D01*
X151873851Y-74418617D01*
X151746135Y-74449279D01*
X151509760Y-74547188D01*
X151509757Y-74547190D01*
X151291603Y-74680875D01*
X151291598Y-74680878D01*
X151097044Y-74847044D01*
X150930878Y-75041598D01*
X150930875Y-75041603D01*
X150797190Y-75259757D01*
X150797188Y-75259760D01*
X150699279Y-75496135D01*
X150639547Y-75744935D01*
X150619474Y-76000000D01*
X148880526Y-76000000D01*
X148860452Y-75744930D01*
X148800722Y-75496140D01*
X148784710Y-75457483D01*
X148702811Y-75259760D01*
X148702809Y-75259757D01*
X148569124Y-75041603D01*
X148569121Y-75041598D01*
X148509319Y-74971579D01*
X148402956Y-74847044D01*
X148296591Y-74756200D01*
X148208401Y-74680878D01*
X148208396Y-74680875D01*
X147990242Y-74547190D01*
X147990239Y-74547188D01*
X147753864Y-74449279D01*
X147753860Y-74449278D01*
X147505070Y-74389548D01*
X147505067Y-74389547D01*
X147505064Y-74389547D01*
X147250000Y-74369474D01*
X146994935Y-74389547D01*
X146994931Y-74389547D01*
X146994930Y-74389548D01*
X146873851Y-74418617D01*
X146746135Y-74449279D01*
X146509760Y-74547188D01*
X146509757Y-74547190D01*
X146291603Y-74680875D01*
X146291598Y-74680878D01*
X146097044Y-74847044D01*
X145930878Y-75041598D01*
X145930875Y-75041603D01*
X145797190Y-75259757D01*
X145797188Y-75259760D01*
X145699279Y-75496135D01*
X145639547Y-75744935D01*
X145619474Y-76000000D01*
X143880526Y-76000000D01*
X143860452Y-75744930D01*
X143800722Y-75496140D01*
X143784710Y-75457483D01*
X143702811Y-75259760D01*
X143702809Y-75259757D01*
X143569124Y-75041603D01*
X143569121Y-75041598D01*
X143509319Y-74971579D01*
X143402956Y-74847044D01*
X143296591Y-74756200D01*
X143208401Y-74680878D01*
X143208396Y-74680875D01*
X142990242Y-74547190D01*
X142990239Y-74547188D01*
X142753864Y-74449279D01*
X142753860Y-74449278D01*
X142505070Y-74389548D01*
X142505067Y-74389547D01*
X142505064Y-74389547D01*
X142250000Y-74369474D01*
X141994935Y-74389547D01*
X141994931Y-74389547D01*
X141994930Y-74389548D01*
X141873851Y-74418617D01*
X141746135Y-74449279D01*
X141509760Y-74547188D01*
X141509757Y-74547190D01*
X141291603Y-74680875D01*
X141291598Y-74680878D01*
X141097044Y-74847044D01*
X140930878Y-75041598D01*
X140930875Y-75041603D01*
X140797190Y-75259757D01*
X140797188Y-75259760D01*
X140699279Y-75496135D01*
X140639547Y-75744935D01*
X140619474Y-76000000D01*
X138880526Y-76000000D01*
X138860452Y-75744930D01*
X138800722Y-75496140D01*
X138784710Y-75457483D01*
X138702811Y-75259760D01*
X138702809Y-75259757D01*
X138569124Y-75041603D01*
X138569121Y-75041598D01*
X138509319Y-74971579D01*
X138402956Y-74847044D01*
X138296591Y-74756200D01*
X138208401Y-74680878D01*
X138208396Y-74680875D01*
X137990242Y-74547190D01*
X137990239Y-74547188D01*
X137753864Y-74449279D01*
X137753860Y-74449278D01*
X137505070Y-74389548D01*
X137505067Y-74389547D01*
X137505064Y-74389547D01*
X137250000Y-74369474D01*
X136994935Y-74389547D01*
X136994931Y-74389547D01*
X136994930Y-74389548D01*
X136873851Y-74418617D01*
X136746135Y-74449279D01*
X136509760Y-74547188D01*
X136509757Y-74547190D01*
X136291603Y-74680875D01*
X136291598Y-74680878D01*
X136097044Y-74847044D01*
X135930878Y-75041598D01*
X135930875Y-75041603D01*
X135797190Y-75259757D01*
X135797188Y-75259760D01*
X135699279Y-75496135D01*
X135639547Y-75744935D01*
X135619474Y-76000000D01*
X126629789Y-76000000D01*
X126629789Y-75999998D01*
X126610654Y-75732476D01*
X126610653Y-75732469D01*
X126553645Y-75470406D01*
X126459915Y-75219105D01*
X126459913Y-75219101D01*
X126331382Y-74983714D01*
X126331377Y-74983706D01*
X126240819Y-74862733D01*
X125427577Y-75675974D01*
X125414641Y-75644742D01*
X125332563Y-75521903D01*
X125228097Y-75417437D01*
X125105258Y-75335359D01*
X125074024Y-75322421D01*
X125887265Y-74509180D01*
X125887265Y-74509179D01*
X125766293Y-74418622D01*
X125766285Y-74418617D01*
X125530898Y-74290086D01*
X125530894Y-74290084D01*
X125279593Y-74196354D01*
X125017530Y-74139346D01*
X125017523Y-74139345D01*
X124750001Y-74120211D01*
X124749999Y-74120211D01*
X124482476Y-74139345D01*
X124482469Y-74139346D01*
X124220406Y-74196354D01*
X123969105Y-74290084D01*
X123969101Y-74290086D01*
X123733709Y-74418620D01*
X123612733Y-74509179D01*
X124425975Y-75322421D01*
X124394742Y-75335359D01*
X124271903Y-75417437D01*
X124167437Y-75521903D01*
X124085359Y-75644742D01*
X124072421Y-75675975D01*
X123259179Y-74862733D01*
X123168620Y-74983709D01*
X123040086Y-75219101D01*
X123040084Y-75219105D01*
X122946354Y-75470406D01*
X122889346Y-75732469D01*
X122889345Y-75732476D01*
X122870211Y-75999998D01*
X95381500Y-75999998D01*
X95381500Y-74602135D01*
X99674499Y-74602135D01*
X99674499Y-75397870D01*
X99674500Y-75397876D01*
X99680907Y-75457483D01*
X99731201Y-75592328D01*
X99731205Y-75592335D01*
X99817451Y-75707544D01*
X99817454Y-75707547D01*
X99932663Y-75793793D01*
X99932670Y-75793797D01*
X100067516Y-75844091D01*
X100067515Y-75844091D01*
X100074443Y-75844835D01*
X100127126Y-75850500D01*
X101472871Y-75850499D01*
X101532482Y-75844091D01*
X101667330Y-75793796D01*
X101782545Y-75707546D01*
X101868795Y-75592331D01*
X101919090Y-75457483D01*
X101925499Y-75397873D01*
X101925498Y-74602128D01*
X101920298Y-74553757D01*
X101919090Y-74542516D01*
X101868796Y-74407671D01*
X101868792Y-74407664D01*
X101782546Y-74292455D01*
X101782543Y-74292452D01*
X101667334Y-74206206D01*
X101667327Y-74206202D01*
X101532481Y-74155908D01*
X101532482Y-74155908D01*
X101472882Y-74149501D01*
X101472880Y-74149500D01*
X101472872Y-74149500D01*
X101472863Y-74149500D01*
X100127128Y-74149500D01*
X100127122Y-74149501D01*
X100067515Y-74155908D01*
X99932670Y-74206202D01*
X99932663Y-74206206D01*
X99817454Y-74292452D01*
X99817451Y-74292455D01*
X99731205Y-74407664D01*
X99731201Y-74407671D01*
X99680907Y-74542517D01*
X99680405Y-74547191D01*
X99674500Y-74602123D01*
X99674499Y-74602135D01*
X95381500Y-74602135D01*
X95381500Y-71000000D01*
X125619474Y-71000000D01*
X125639547Y-71255064D01*
X125699279Y-71503864D01*
X125797188Y-71740239D01*
X125797190Y-71740242D01*
X125930875Y-71958396D01*
X125930878Y-71958401D01*
X126006200Y-72046591D01*
X126097044Y-72152956D01*
X126221579Y-72259319D01*
X126291598Y-72319121D01*
X126291603Y-72319124D01*
X126509757Y-72452809D01*
X126509760Y-72452811D01*
X126746135Y-72550720D01*
X126746140Y-72550722D01*
X126994930Y-72610452D01*
X127250000Y-72630526D01*
X127505070Y-72610452D01*
X127753860Y-72550722D01*
X127872051Y-72501765D01*
X127990239Y-72452811D01*
X127990240Y-72452810D01*
X127990243Y-72452809D01*
X128208399Y-72319123D01*
X128402956Y-72152956D01*
X128569123Y-71958399D01*
X128702809Y-71740243D01*
X128800722Y-71503860D01*
X128860452Y-71255070D01*
X128880526Y-71000000D01*
X138119474Y-71000000D01*
X138139547Y-71255064D01*
X138199279Y-71503864D01*
X138297188Y-71740239D01*
X138297190Y-71740242D01*
X138430875Y-71958396D01*
X138430878Y-71958401D01*
X138506200Y-72046591D01*
X138597044Y-72152956D01*
X138721579Y-72259319D01*
X138791598Y-72319121D01*
X138791603Y-72319124D01*
X139009757Y-72452809D01*
X139009760Y-72452811D01*
X139246135Y-72550720D01*
X139246140Y-72550722D01*
X139494930Y-72610452D01*
X139750000Y-72630526D01*
X140005070Y-72610452D01*
X140253860Y-72550722D01*
X140372051Y-72501765D01*
X140490239Y-72452811D01*
X140490240Y-72452810D01*
X140490243Y-72452809D01*
X140708399Y-72319123D01*
X140902956Y-72152956D01*
X141069123Y-71958399D01*
X141202809Y-71740243D01*
X141300722Y-71503860D01*
X141360452Y-71255070D01*
X141380526Y-71000000D01*
X148119474Y-71000000D01*
X148139547Y-71255064D01*
X148199279Y-71503864D01*
X148297188Y-71740239D01*
X148297190Y-71740242D01*
X148430875Y-71958396D01*
X148430878Y-71958401D01*
X148506200Y-72046591D01*
X148597044Y-72152956D01*
X148721579Y-72259319D01*
X148791598Y-72319121D01*
X148791603Y-72319124D01*
X149009757Y-72452809D01*
X149009760Y-72452811D01*
X149246135Y-72550720D01*
X149246140Y-72550722D01*
X149494930Y-72610452D01*
X149750000Y-72630526D01*
X150005070Y-72610452D01*
X150253860Y-72550722D01*
X150372051Y-72501765D01*
X150490239Y-72452811D01*
X150490240Y-72452810D01*
X150490243Y-72452809D01*
X150708399Y-72319123D01*
X150902956Y-72152956D01*
X151069123Y-71958399D01*
X151202809Y-71740243D01*
X151300722Y-71503860D01*
X151360452Y-71255070D01*
X151380526Y-71000000D01*
X151360452Y-70744930D01*
X151300722Y-70496140D01*
X151300720Y-70496135D01*
X151202811Y-70259760D01*
X151202809Y-70259757D01*
X151069124Y-70041603D01*
X151069121Y-70041598D01*
X151009319Y-69971579D01*
X150902956Y-69847044D01*
X150796591Y-69756200D01*
X150708401Y-69680878D01*
X150708396Y-69680875D01*
X150490242Y-69547190D01*
X150490239Y-69547188D01*
X150253864Y-69449279D01*
X150253860Y-69449278D01*
X150005070Y-69389548D01*
X150005067Y-69389547D01*
X150005064Y-69389547D01*
X149750000Y-69369474D01*
X149494935Y-69389547D01*
X149494931Y-69389547D01*
X149494930Y-69389548D01*
X149370535Y-69419413D01*
X149246135Y-69449279D01*
X149009760Y-69547188D01*
X149009757Y-69547190D01*
X148791603Y-69680875D01*
X148791598Y-69680878D01*
X148597044Y-69847044D01*
X148430878Y-70041598D01*
X148430875Y-70041603D01*
X148297190Y-70259757D01*
X148297188Y-70259760D01*
X148199279Y-70496135D01*
X148139547Y-70744935D01*
X148119474Y-71000000D01*
X141380526Y-71000000D01*
X141360452Y-70744930D01*
X141300722Y-70496140D01*
X141300720Y-70496135D01*
X141202811Y-70259760D01*
X141202809Y-70259757D01*
X141069124Y-70041603D01*
X141069121Y-70041598D01*
X141009319Y-69971579D01*
X140902956Y-69847044D01*
X140796591Y-69756200D01*
X140708401Y-69680878D01*
X140708396Y-69680875D01*
X140490242Y-69547190D01*
X140490239Y-69547188D01*
X140253864Y-69449279D01*
X140253860Y-69449278D01*
X140005070Y-69389548D01*
X140005067Y-69389547D01*
X140005064Y-69389547D01*
X139750000Y-69369474D01*
X139494935Y-69389547D01*
X139494931Y-69389547D01*
X139494930Y-69389548D01*
X139370535Y-69419413D01*
X139246135Y-69449279D01*
X139009760Y-69547188D01*
X139009757Y-69547190D01*
X138791603Y-69680875D01*
X138791598Y-69680878D01*
X138597044Y-69847044D01*
X138430878Y-70041598D01*
X138430875Y-70041603D01*
X138297190Y-70259757D01*
X138297188Y-70259760D01*
X138199279Y-70496135D01*
X138139547Y-70744935D01*
X138119474Y-71000000D01*
X128880526Y-71000000D01*
X128860452Y-70744930D01*
X128800722Y-70496140D01*
X128800720Y-70496135D01*
X128702811Y-70259760D01*
X128702809Y-70259757D01*
X128569124Y-70041603D01*
X128569121Y-70041598D01*
X128509319Y-69971579D01*
X128402956Y-69847044D01*
X128296591Y-69756200D01*
X128208401Y-69680878D01*
X128208396Y-69680875D01*
X127990242Y-69547190D01*
X127990239Y-69547188D01*
X127753864Y-69449279D01*
X127753860Y-69449278D01*
X127505070Y-69389548D01*
X127505067Y-69389547D01*
X127505064Y-69389547D01*
X127250000Y-69369474D01*
X126994935Y-69389547D01*
X126994931Y-69389547D01*
X126994930Y-69389548D01*
X126870535Y-69419413D01*
X126746135Y-69449279D01*
X126509760Y-69547188D01*
X126509757Y-69547190D01*
X126291603Y-69680875D01*
X126291598Y-69680878D01*
X126097044Y-69847044D01*
X125930878Y-70041598D01*
X125930875Y-70041603D01*
X125797190Y-70259757D01*
X125797188Y-70259760D01*
X125699279Y-70496135D01*
X125639547Y-70744935D01*
X125619474Y-71000000D01*
X95381500Y-71000000D01*
X95381500Y-68505500D01*
X95401185Y-68438461D01*
X95453989Y-68392706D01*
X95505500Y-68381500D01*
X164494500Y-68381500D01*
X164561539Y-68401185D01*
G37*
%TD.AperFunction*%
%TD*%
M02*
