%TF.GenerationSoftware,KiCad,Pcbnew,8.0.6-8.0.6-0~ubuntu22.04.1*%
%TF.CreationDate,2024-10-28T00:14:07+01:00*%
%TF.ProjectId,wandfernsprecher,77616e64-6665-4726-9e73-707265636865,0.1.0*%
%TF.SameCoordinates,Original*%
%TF.FileFunction,Soldermask,Bot*%
%TF.FilePolarity,Negative*%
%FSLAX46Y46*%
G04 Gerber Fmt 4.6, Leading zero omitted, Abs format (unit mm)*
G04 Created by KiCad (PCBNEW 8.0.6-8.0.6-0~ubuntu22.04.1) date 2024-10-28 00:14:07*
%MOMM*%
%LPD*%
G01*
G04 APERTURE LIST*
G04 APERTURE END LIST*
G36*
X144556296Y-146555119D02*
G01*
X144610722Y-146555119D01*
X144658601Y-146564069D01*
X144708345Y-146568421D01*
X144769402Y-146584781D01*
X144828396Y-146595809D01*
X144868406Y-146611309D01*
X144910354Y-146622549D01*
X144973859Y-146652162D01*
X145034886Y-146675804D01*
X145066386Y-146695307D01*
X145099907Y-146710939D01*
X145163135Y-146755212D01*
X145223162Y-146792379D01*
X145246171Y-146813355D01*
X145271221Y-146830895D01*
X145331141Y-146890815D01*
X145386811Y-146941565D01*
X145401986Y-146961660D01*
X145419104Y-146978778D01*
X145472499Y-147055034D01*
X145520261Y-147118281D01*
X145528818Y-147135466D01*
X145539060Y-147150093D01*
X145582674Y-147243624D01*
X145618967Y-147316510D01*
X145622575Y-147329192D01*
X145627450Y-147339646D01*
X145658171Y-147454299D01*
X145679568Y-147529501D01*
X145680226Y-147536611D01*
X145681578Y-147541654D01*
X145696510Y-147712342D01*
X145700000Y-147750000D01*
X145696510Y-147787660D01*
X145681578Y-147958345D01*
X145680227Y-147963386D01*
X145679568Y-147970499D01*
X145658168Y-148045710D01*
X145627450Y-148160354D01*
X145622575Y-148170807D01*
X145618967Y-148183490D01*
X145582674Y-148256375D01*
X145539060Y-148349907D01*
X145528818Y-148364533D01*
X145520261Y-148381719D01*
X145472493Y-148444972D01*
X145419104Y-148521221D01*
X145401989Y-148538335D01*
X145386811Y-148558435D01*
X145331129Y-148609195D01*
X145271221Y-148669104D01*
X145246176Y-148686640D01*
X145223162Y-148707621D01*
X145163123Y-148744795D01*
X145099907Y-148789060D01*
X145066392Y-148804687D01*
X145034886Y-148824196D01*
X144973846Y-148847842D01*
X144910354Y-148877450D01*
X144868414Y-148888687D01*
X144828396Y-148904191D01*
X144769390Y-148915220D01*
X144708345Y-148931578D01*
X144658612Y-148935928D01*
X144610722Y-148944881D01*
X144556284Y-148944881D01*
X144500000Y-148949805D01*
X144443716Y-148944881D01*
X144389278Y-148944881D01*
X144341388Y-148935929D01*
X144291654Y-148931578D01*
X144230606Y-148915220D01*
X144171604Y-148904191D01*
X144131587Y-148888688D01*
X144089645Y-148877450D01*
X144026147Y-148847840D01*
X143965114Y-148824196D01*
X143933610Y-148804689D01*
X143900092Y-148789060D01*
X143836867Y-148744789D01*
X143776838Y-148707621D01*
X143753826Y-148686643D01*
X143728778Y-148669104D01*
X143668858Y-148609184D01*
X143613189Y-148558435D01*
X143598013Y-148538339D01*
X143580895Y-148521221D01*
X143527492Y-148444954D01*
X143479739Y-148381719D01*
X143471184Y-148364538D01*
X143460939Y-148349907D01*
X143417309Y-148256343D01*
X143381033Y-148183490D01*
X143377426Y-148170812D01*
X143372549Y-148160354D01*
X143341814Y-148045649D01*
X143320432Y-147970499D01*
X143319773Y-147963392D01*
X143318421Y-147958345D01*
X143303471Y-147787467D01*
X143300000Y-147750000D01*
X143303471Y-147712535D01*
X143318421Y-147541654D01*
X143319773Y-147536605D01*
X143320432Y-147529501D01*
X143341811Y-147454359D01*
X143372549Y-147339646D01*
X143377426Y-147329187D01*
X143381033Y-147316510D01*
X143417309Y-147243656D01*
X143460939Y-147150093D01*
X143471184Y-147135461D01*
X143479739Y-147118281D01*
X143527487Y-147055052D01*
X143580895Y-146978778D01*
X143598016Y-146961656D01*
X143613189Y-146941565D01*
X143668847Y-146890825D01*
X143728778Y-146830895D01*
X143753830Y-146813352D01*
X143776838Y-146792379D01*
X143836860Y-146755214D01*
X143900093Y-146710939D01*
X143933613Y-146695307D01*
X143965114Y-146675804D01*
X144026140Y-146652162D01*
X144089646Y-146622549D01*
X144131593Y-146611309D01*
X144171604Y-146595809D01*
X144230594Y-146584781D01*
X144291654Y-146568421D01*
X144341398Y-146564069D01*
X144389278Y-146555119D01*
X144443704Y-146555119D01*
X144500000Y-146550194D01*
X144556296Y-146555119D01*
G37*
G36*
X132550000Y-148550000D02*
G01*
X130750000Y-148550000D01*
X130750000Y-147450000D01*
X132550000Y-147450000D01*
X132550000Y-148550000D01*
G37*
G36*
X137800000Y-148550000D02*
G01*
X136000000Y-148550000D01*
X136000000Y-147450000D01*
X137800000Y-147450000D01*
X137800000Y-148550000D01*
G37*
G36*
X130211507Y-146181294D02*
G01*
X130274937Y-146189644D01*
X130290895Y-146197085D01*
X130310238Y-146200933D01*
X130335859Y-146218052D01*
X130362286Y-146230376D01*
X130378363Y-146246453D01*
X130399454Y-146260546D01*
X130413546Y-146281636D01*
X130429623Y-146297713D01*
X130441944Y-146324136D01*
X130459067Y-146349762D01*
X130462915Y-146369108D01*
X130470353Y-146385059D01*
X130478699Y-146448460D01*
X130480000Y-146455000D01*
X130480000Y-147005000D01*
X130478702Y-147011522D01*
X130470355Y-147074937D01*
X130462915Y-147090891D01*
X130459067Y-147110238D01*
X130441943Y-147135864D01*
X130429623Y-147162286D01*
X130413548Y-147178360D01*
X130399454Y-147199454D01*
X130378360Y-147213548D01*
X130362286Y-147229623D01*
X130335865Y-147241943D01*
X130310238Y-147259067D01*
X130290889Y-147262915D01*
X130274940Y-147270353D01*
X130211541Y-147278698D01*
X130205000Y-147280000D01*
X128955000Y-147280000D01*
X128948479Y-147278702D01*
X128885062Y-147270355D01*
X128869106Y-147262914D01*
X128849762Y-147259067D01*
X128824137Y-147241945D01*
X128797713Y-147229623D01*
X128781636Y-147213546D01*
X128760546Y-147199454D01*
X128746453Y-147178363D01*
X128730376Y-147162286D01*
X128718053Y-147135860D01*
X128700933Y-147110238D01*
X128697085Y-147090893D01*
X128689646Y-147074940D01*
X128681298Y-147011526D01*
X128680000Y-147005000D01*
X128680000Y-146455000D01*
X128681294Y-146448494D01*
X128689644Y-146385062D01*
X128697085Y-146369103D01*
X128700933Y-146349762D01*
X128718051Y-146324142D01*
X128730376Y-146297713D01*
X128746455Y-146281633D01*
X128760546Y-146260546D01*
X128781633Y-146246455D01*
X128797713Y-146230376D01*
X128824141Y-146218052D01*
X128849762Y-146200933D01*
X128869104Y-146197085D01*
X128885059Y-146189646D01*
X128948475Y-146181297D01*
X128955000Y-146180000D01*
X130205000Y-146180000D01*
X130211507Y-146181294D01*
G37*
G36*
X135461507Y-146181294D02*
G01*
X135524937Y-146189644D01*
X135540895Y-146197085D01*
X135560238Y-146200933D01*
X135585859Y-146218052D01*
X135612286Y-146230376D01*
X135628363Y-146246453D01*
X135649454Y-146260546D01*
X135663546Y-146281636D01*
X135679623Y-146297713D01*
X135691944Y-146324136D01*
X135709067Y-146349762D01*
X135712915Y-146369108D01*
X135720353Y-146385059D01*
X135728699Y-146448460D01*
X135730000Y-146455000D01*
X135730000Y-147005000D01*
X135728702Y-147011522D01*
X135720355Y-147074937D01*
X135712915Y-147090891D01*
X135709067Y-147110238D01*
X135691943Y-147135864D01*
X135679623Y-147162286D01*
X135663548Y-147178360D01*
X135649454Y-147199454D01*
X135628360Y-147213548D01*
X135612286Y-147229623D01*
X135585865Y-147241943D01*
X135560238Y-147259067D01*
X135540889Y-147262915D01*
X135524940Y-147270353D01*
X135461541Y-147278698D01*
X135455000Y-147280000D01*
X134205000Y-147280000D01*
X134198479Y-147278702D01*
X134135062Y-147270355D01*
X134119106Y-147262914D01*
X134099762Y-147259067D01*
X134074137Y-147241945D01*
X134047713Y-147229623D01*
X134031636Y-147213546D01*
X134010546Y-147199454D01*
X133996453Y-147178363D01*
X133980376Y-147162286D01*
X133968053Y-147135860D01*
X133950933Y-147110238D01*
X133947085Y-147090893D01*
X133939646Y-147074940D01*
X133931298Y-147011526D01*
X133930000Y-147005000D01*
X133930000Y-146455000D01*
X133931294Y-146448494D01*
X133939644Y-146385062D01*
X133947085Y-146369103D01*
X133950933Y-146349762D01*
X133968051Y-146324142D01*
X133980376Y-146297713D01*
X133996455Y-146281633D01*
X134010546Y-146260546D01*
X134031633Y-146246455D01*
X134047713Y-146230376D01*
X134074141Y-146218052D01*
X134099762Y-146200933D01*
X134119104Y-146197085D01*
X134135059Y-146189646D01*
X134198475Y-146181297D01*
X134205000Y-146180000D01*
X135455000Y-146180000D01*
X135461507Y-146181294D01*
G37*
G36*
X132281507Y-144911294D02*
G01*
X132344937Y-144919644D01*
X132360895Y-144927085D01*
X132380238Y-144930933D01*
X132405859Y-144948052D01*
X132432286Y-144960376D01*
X132448363Y-144976453D01*
X132469454Y-144990546D01*
X132483546Y-145011636D01*
X132499623Y-145027713D01*
X132511944Y-145054136D01*
X132529067Y-145079762D01*
X132532915Y-145099108D01*
X132540353Y-145115059D01*
X132548699Y-145178460D01*
X132550000Y-145185000D01*
X132550000Y-145735000D01*
X132548702Y-145741522D01*
X132540355Y-145804937D01*
X132532915Y-145820891D01*
X132529067Y-145840238D01*
X132511943Y-145865864D01*
X132499623Y-145892286D01*
X132483548Y-145908360D01*
X132469454Y-145929454D01*
X132448360Y-145943548D01*
X132432286Y-145959623D01*
X132405865Y-145971943D01*
X132380238Y-145989067D01*
X132360889Y-145992915D01*
X132344940Y-146000353D01*
X132281541Y-146008698D01*
X132275000Y-146010000D01*
X131025000Y-146010000D01*
X131018479Y-146008702D01*
X130955062Y-146000355D01*
X130939106Y-145992914D01*
X130919762Y-145989067D01*
X130894137Y-145971945D01*
X130867713Y-145959623D01*
X130851636Y-145943546D01*
X130830546Y-145929454D01*
X130816453Y-145908363D01*
X130800376Y-145892286D01*
X130788053Y-145865860D01*
X130770933Y-145840238D01*
X130767085Y-145820893D01*
X130759646Y-145804940D01*
X130751298Y-145741526D01*
X130750000Y-145735000D01*
X130750000Y-145185000D01*
X130751294Y-145178494D01*
X130759644Y-145115062D01*
X130767085Y-145099103D01*
X130770933Y-145079762D01*
X130788051Y-145054142D01*
X130800376Y-145027713D01*
X130816455Y-145011633D01*
X130830546Y-144990546D01*
X130851633Y-144976455D01*
X130867713Y-144960376D01*
X130894141Y-144948052D01*
X130919762Y-144930933D01*
X130939104Y-144927085D01*
X130955059Y-144919646D01*
X131018475Y-144911297D01*
X131025000Y-144910000D01*
X132275000Y-144910000D01*
X132281507Y-144911294D01*
G37*
G36*
X137531507Y-144911294D02*
G01*
X137594937Y-144919644D01*
X137610895Y-144927085D01*
X137630238Y-144930933D01*
X137655859Y-144948052D01*
X137682286Y-144960376D01*
X137698363Y-144976453D01*
X137719454Y-144990546D01*
X137733546Y-145011636D01*
X137749623Y-145027713D01*
X137761944Y-145054136D01*
X137779067Y-145079762D01*
X137782915Y-145099108D01*
X137790353Y-145115059D01*
X137798699Y-145178460D01*
X137800000Y-145185000D01*
X137800000Y-145735000D01*
X137798702Y-145741522D01*
X137790355Y-145804937D01*
X137782915Y-145820891D01*
X137779067Y-145840238D01*
X137761943Y-145865864D01*
X137749623Y-145892286D01*
X137733548Y-145908360D01*
X137719454Y-145929454D01*
X137698360Y-145943548D01*
X137682286Y-145959623D01*
X137655865Y-145971943D01*
X137630238Y-145989067D01*
X137610889Y-145992915D01*
X137594940Y-146000353D01*
X137531541Y-146008698D01*
X137525000Y-146010000D01*
X136275000Y-146010000D01*
X136268479Y-146008702D01*
X136205062Y-146000355D01*
X136189106Y-145992914D01*
X136169762Y-145989067D01*
X136144137Y-145971945D01*
X136117713Y-145959623D01*
X136101636Y-145943546D01*
X136080546Y-145929454D01*
X136066453Y-145908363D01*
X136050376Y-145892286D01*
X136038053Y-145865860D01*
X136020933Y-145840238D01*
X136017085Y-145820893D01*
X136009646Y-145804940D01*
X136001298Y-145741526D01*
X136000000Y-145735000D01*
X136000000Y-145185000D01*
X136001294Y-145178494D01*
X136009644Y-145115062D01*
X136017085Y-145099103D01*
X136020933Y-145079762D01*
X136038051Y-145054142D01*
X136050376Y-145027713D01*
X136066455Y-145011633D01*
X136080546Y-144990546D01*
X136101633Y-144976455D01*
X136117713Y-144960376D01*
X136144141Y-144948052D01*
X136169762Y-144930933D01*
X136189104Y-144927085D01*
X136205059Y-144919646D01*
X136268475Y-144911297D01*
X136275000Y-144910000D01*
X137525000Y-144910000D01*
X137531507Y-144911294D01*
G37*
G36*
X120195090Y-143269215D02*
G01*
X120382683Y-143326120D01*
X120555570Y-143418530D01*
X120707107Y-143542893D01*
X120831470Y-143694430D01*
X120923880Y-143867317D01*
X120980785Y-144054910D01*
X121000000Y-144250000D01*
X120980785Y-144445090D01*
X120923880Y-144632683D01*
X120831470Y-144805570D01*
X120707107Y-144957107D01*
X120555570Y-145081470D01*
X120382683Y-145173880D01*
X120195090Y-145230785D01*
X120000000Y-145250000D01*
X119804910Y-145230785D01*
X119617317Y-145173880D01*
X119444430Y-145081470D01*
X119292893Y-144957107D01*
X119168530Y-144805570D01*
X119076120Y-144632683D01*
X119019215Y-144445090D01*
X119000000Y-144250000D01*
X119019215Y-144054910D01*
X119076120Y-143867317D01*
X119168530Y-143694430D01*
X119292893Y-143542893D01*
X119444430Y-143418530D01*
X119617317Y-143326120D01*
X119804910Y-143269215D01*
X120000000Y-143250000D01*
X120195090Y-143269215D01*
G37*
G36*
X126000000Y-145250000D02*
G01*
X124000000Y-145250000D01*
X124000000Y-143250000D01*
X126000000Y-143250000D01*
X126000000Y-145250000D01*
G37*
G36*
X107056296Y-141805119D02*
G01*
X107110722Y-141805119D01*
X107158601Y-141814069D01*
X107208345Y-141818421D01*
X107269402Y-141834781D01*
X107328396Y-141845809D01*
X107368406Y-141861309D01*
X107410354Y-141872549D01*
X107473859Y-141902162D01*
X107534886Y-141925804D01*
X107566386Y-141945307D01*
X107599907Y-141960939D01*
X107663135Y-142005212D01*
X107723162Y-142042379D01*
X107746171Y-142063355D01*
X107771221Y-142080895D01*
X107831141Y-142140815D01*
X107886811Y-142191565D01*
X107901986Y-142211660D01*
X107919104Y-142228778D01*
X107972499Y-142305034D01*
X108020261Y-142368281D01*
X108028818Y-142385466D01*
X108039060Y-142400093D01*
X108082674Y-142493624D01*
X108118967Y-142566510D01*
X108122575Y-142579192D01*
X108127450Y-142589646D01*
X108158171Y-142704299D01*
X108179568Y-142779501D01*
X108180226Y-142786611D01*
X108181578Y-142791654D01*
X108196510Y-142962342D01*
X108200000Y-143000000D01*
X108196510Y-143037660D01*
X108181578Y-143208345D01*
X108180227Y-143213386D01*
X108179568Y-143220499D01*
X108158168Y-143295710D01*
X108127450Y-143410354D01*
X108122575Y-143420807D01*
X108118967Y-143433490D01*
X108082674Y-143506375D01*
X108039060Y-143599907D01*
X108028818Y-143614533D01*
X108020261Y-143631719D01*
X107972493Y-143694972D01*
X107919104Y-143771221D01*
X107901989Y-143788335D01*
X107886811Y-143808435D01*
X107831129Y-143859195D01*
X107771221Y-143919104D01*
X107746176Y-143936640D01*
X107723162Y-143957621D01*
X107663123Y-143994795D01*
X107599907Y-144039060D01*
X107566392Y-144054687D01*
X107534886Y-144074196D01*
X107473846Y-144097842D01*
X107410354Y-144127450D01*
X107368414Y-144138687D01*
X107328396Y-144154191D01*
X107269390Y-144165220D01*
X107208345Y-144181578D01*
X107158612Y-144185928D01*
X107110722Y-144194881D01*
X107056284Y-144194881D01*
X107000000Y-144199805D01*
X106943716Y-144194881D01*
X106889278Y-144194881D01*
X106841388Y-144185929D01*
X106791654Y-144181578D01*
X106730606Y-144165220D01*
X106671604Y-144154191D01*
X106631587Y-144138688D01*
X106589645Y-144127450D01*
X106526147Y-144097840D01*
X106465114Y-144074196D01*
X106433610Y-144054689D01*
X106400092Y-144039060D01*
X106336867Y-143994789D01*
X106276838Y-143957621D01*
X106253826Y-143936643D01*
X106228778Y-143919104D01*
X106168858Y-143859184D01*
X106113189Y-143808435D01*
X106098013Y-143788339D01*
X106080895Y-143771221D01*
X106027492Y-143694954D01*
X105979739Y-143631719D01*
X105971184Y-143614538D01*
X105960939Y-143599907D01*
X105917309Y-143506343D01*
X105881033Y-143433490D01*
X105877426Y-143420812D01*
X105872549Y-143410354D01*
X105841814Y-143295649D01*
X105820432Y-143220499D01*
X105819773Y-143213392D01*
X105818421Y-143208345D01*
X105803471Y-143037467D01*
X105800000Y-143000000D01*
X105803471Y-142962535D01*
X105818421Y-142791654D01*
X105819773Y-142786605D01*
X105820432Y-142779501D01*
X105841811Y-142704359D01*
X105872549Y-142589646D01*
X105877426Y-142579187D01*
X105881033Y-142566510D01*
X105917309Y-142493656D01*
X105960939Y-142400093D01*
X105971184Y-142385461D01*
X105979739Y-142368281D01*
X106027487Y-142305052D01*
X106080895Y-142228778D01*
X106098016Y-142211656D01*
X106113189Y-142191565D01*
X106168847Y-142140825D01*
X106228778Y-142080895D01*
X106253830Y-142063352D01*
X106276838Y-142042379D01*
X106336860Y-142005214D01*
X106400093Y-141960939D01*
X106433613Y-141945307D01*
X106465114Y-141925804D01*
X106526140Y-141902162D01*
X106589646Y-141872549D01*
X106631593Y-141861309D01*
X106671604Y-141845809D01*
X106730594Y-141834781D01*
X106791654Y-141818421D01*
X106841398Y-141814069D01*
X106889278Y-141805119D01*
X106943704Y-141805119D01*
X107000000Y-141800194D01*
X107056296Y-141805119D01*
G37*
G36*
X114056296Y-141805119D02*
G01*
X114110722Y-141805119D01*
X114158601Y-141814069D01*
X114208345Y-141818421D01*
X114269402Y-141834781D01*
X114328396Y-141845809D01*
X114368406Y-141861309D01*
X114410354Y-141872549D01*
X114473859Y-141902162D01*
X114534886Y-141925804D01*
X114566386Y-141945307D01*
X114599907Y-141960939D01*
X114663135Y-142005212D01*
X114723162Y-142042379D01*
X114746171Y-142063355D01*
X114771221Y-142080895D01*
X114831141Y-142140815D01*
X114886811Y-142191565D01*
X114901986Y-142211660D01*
X114919104Y-142228778D01*
X114972499Y-142305034D01*
X115020261Y-142368281D01*
X115028818Y-142385466D01*
X115039060Y-142400093D01*
X115082674Y-142493624D01*
X115118967Y-142566510D01*
X115122575Y-142579192D01*
X115127450Y-142589646D01*
X115158171Y-142704299D01*
X115179568Y-142779501D01*
X115180226Y-142786611D01*
X115181578Y-142791654D01*
X115196510Y-142962342D01*
X115200000Y-143000000D01*
X115196510Y-143037660D01*
X115181578Y-143208345D01*
X115180227Y-143213386D01*
X115179568Y-143220499D01*
X115158168Y-143295710D01*
X115127450Y-143410354D01*
X115122575Y-143420807D01*
X115118967Y-143433490D01*
X115082674Y-143506375D01*
X115039060Y-143599907D01*
X115028818Y-143614533D01*
X115020261Y-143631719D01*
X114972493Y-143694972D01*
X114919104Y-143771221D01*
X114901989Y-143788335D01*
X114886811Y-143808435D01*
X114831129Y-143859195D01*
X114771221Y-143919104D01*
X114746176Y-143936640D01*
X114723162Y-143957621D01*
X114663123Y-143994795D01*
X114599907Y-144039060D01*
X114566392Y-144054687D01*
X114534886Y-144074196D01*
X114473846Y-144097842D01*
X114410354Y-144127450D01*
X114368414Y-144138687D01*
X114328396Y-144154191D01*
X114269390Y-144165220D01*
X114208345Y-144181578D01*
X114158612Y-144185928D01*
X114110722Y-144194881D01*
X114056284Y-144194881D01*
X114000000Y-144199805D01*
X113943716Y-144194881D01*
X113889278Y-144194881D01*
X113841388Y-144185929D01*
X113791654Y-144181578D01*
X113730606Y-144165220D01*
X113671604Y-144154191D01*
X113631587Y-144138688D01*
X113589645Y-144127450D01*
X113526147Y-144097840D01*
X113465114Y-144074196D01*
X113433610Y-144054689D01*
X113400092Y-144039060D01*
X113336867Y-143994789D01*
X113276838Y-143957621D01*
X113253826Y-143936643D01*
X113228778Y-143919104D01*
X113168858Y-143859184D01*
X113113189Y-143808435D01*
X113098013Y-143788339D01*
X113080895Y-143771221D01*
X113027492Y-143694954D01*
X112979739Y-143631719D01*
X112971184Y-143614538D01*
X112960939Y-143599907D01*
X112917309Y-143506343D01*
X112881033Y-143433490D01*
X112877426Y-143420812D01*
X112872549Y-143410354D01*
X112841814Y-143295649D01*
X112820432Y-143220499D01*
X112819773Y-143213392D01*
X112818421Y-143208345D01*
X112803471Y-143037467D01*
X112800000Y-143000000D01*
X112803471Y-142962535D01*
X112818421Y-142791654D01*
X112819773Y-142786605D01*
X112820432Y-142779501D01*
X112841811Y-142704359D01*
X112872549Y-142589646D01*
X112877426Y-142579187D01*
X112881033Y-142566510D01*
X112917309Y-142493656D01*
X112960939Y-142400093D01*
X112971184Y-142385461D01*
X112979739Y-142368281D01*
X113027487Y-142305052D01*
X113080895Y-142228778D01*
X113098016Y-142211656D01*
X113113189Y-142191565D01*
X113168847Y-142140825D01*
X113228778Y-142080895D01*
X113253830Y-142063352D01*
X113276838Y-142042379D01*
X113336860Y-142005214D01*
X113400093Y-141960939D01*
X113433613Y-141945307D01*
X113465114Y-141925804D01*
X113526140Y-141902162D01*
X113589646Y-141872549D01*
X113631593Y-141861309D01*
X113671604Y-141845809D01*
X113730594Y-141834781D01*
X113791654Y-141818421D01*
X113841398Y-141814069D01*
X113889278Y-141805119D01*
X113943704Y-141805119D01*
X114000000Y-141800194D01*
X114056296Y-141805119D01*
G37*
G36*
X137800000Y-142800000D02*
G01*
X136000000Y-142800000D01*
X136000000Y-141700000D01*
X137800000Y-141700000D01*
X137800000Y-142800000D01*
G37*
G36*
X135461507Y-140431294D02*
G01*
X135524937Y-140439644D01*
X135540895Y-140447085D01*
X135560238Y-140450933D01*
X135585859Y-140468052D01*
X135612286Y-140480376D01*
X135628363Y-140496453D01*
X135649454Y-140510546D01*
X135663546Y-140531636D01*
X135679623Y-140547713D01*
X135691944Y-140574136D01*
X135709067Y-140599762D01*
X135712915Y-140619108D01*
X135720353Y-140635059D01*
X135728699Y-140698460D01*
X135730000Y-140705000D01*
X135730000Y-141255000D01*
X135728702Y-141261522D01*
X135720355Y-141324937D01*
X135712915Y-141340891D01*
X135709067Y-141360238D01*
X135691943Y-141385864D01*
X135679623Y-141412286D01*
X135663548Y-141428360D01*
X135649454Y-141449454D01*
X135628360Y-141463548D01*
X135612286Y-141479623D01*
X135585865Y-141491943D01*
X135560238Y-141509067D01*
X135540889Y-141512915D01*
X135524940Y-141520353D01*
X135461541Y-141528698D01*
X135455000Y-141530000D01*
X134205000Y-141530000D01*
X134198479Y-141528702D01*
X134135062Y-141520355D01*
X134119106Y-141512914D01*
X134099762Y-141509067D01*
X134074137Y-141491945D01*
X134047713Y-141479623D01*
X134031636Y-141463546D01*
X134010546Y-141449454D01*
X133996453Y-141428363D01*
X133980376Y-141412286D01*
X133968053Y-141385860D01*
X133950933Y-141360238D01*
X133947085Y-141340893D01*
X133939646Y-141324940D01*
X133931298Y-141261526D01*
X133930000Y-141255000D01*
X133930000Y-140705000D01*
X133931294Y-140698494D01*
X133939644Y-140635062D01*
X133947085Y-140619103D01*
X133950933Y-140599762D01*
X133968051Y-140574142D01*
X133980376Y-140547713D01*
X133996455Y-140531633D01*
X134010546Y-140510546D01*
X134031633Y-140496455D01*
X134047713Y-140480376D01*
X134074141Y-140468052D01*
X134099762Y-140450933D01*
X134119104Y-140447085D01*
X134135059Y-140439646D01*
X134198475Y-140431297D01*
X134205000Y-140430000D01*
X135455000Y-140430000D01*
X135461507Y-140431294D01*
G37*
G36*
X137531507Y-139161294D02*
G01*
X137594937Y-139169644D01*
X137610895Y-139177085D01*
X137630238Y-139180933D01*
X137655859Y-139198052D01*
X137682286Y-139210376D01*
X137698363Y-139226453D01*
X137719454Y-139240546D01*
X137733546Y-139261636D01*
X137749623Y-139277713D01*
X137761944Y-139304136D01*
X137779067Y-139329762D01*
X137782915Y-139349108D01*
X137790353Y-139365059D01*
X137798699Y-139428460D01*
X137800000Y-139435000D01*
X137800000Y-139985000D01*
X137798702Y-139991522D01*
X137790355Y-140054937D01*
X137782915Y-140070891D01*
X137779067Y-140090238D01*
X137761943Y-140115864D01*
X137749623Y-140142286D01*
X137733548Y-140158360D01*
X137719454Y-140179454D01*
X137698360Y-140193548D01*
X137682286Y-140209623D01*
X137655865Y-140221943D01*
X137630238Y-140239067D01*
X137610889Y-140242915D01*
X137594940Y-140250353D01*
X137531541Y-140258698D01*
X137525000Y-140260000D01*
X136275000Y-140260000D01*
X136268479Y-140258702D01*
X136205062Y-140250355D01*
X136189106Y-140242914D01*
X136169762Y-140239067D01*
X136144137Y-140221945D01*
X136117713Y-140209623D01*
X136101636Y-140193546D01*
X136080546Y-140179454D01*
X136066453Y-140158363D01*
X136050376Y-140142286D01*
X136038053Y-140115860D01*
X136020933Y-140090238D01*
X136017085Y-140070893D01*
X136009646Y-140054940D01*
X136001298Y-139991526D01*
X136000000Y-139985000D01*
X136000000Y-139435000D01*
X136001294Y-139428494D01*
X136009644Y-139365062D01*
X136017085Y-139349103D01*
X136020933Y-139329762D01*
X136038051Y-139304142D01*
X136050376Y-139277713D01*
X136066455Y-139261633D01*
X136080546Y-139240546D01*
X136101633Y-139226455D01*
X136117713Y-139210376D01*
X136144141Y-139198052D01*
X136169762Y-139180933D01*
X136189104Y-139177085D01*
X136205059Y-139169646D01*
X136268475Y-139161297D01*
X136275000Y-139160000D01*
X137525000Y-139160000D01*
X137531507Y-139161294D01*
G37*
G36*
X52987500Y-139650000D02*
G01*
X51287500Y-139650000D01*
X51287500Y-137950000D01*
X52987500Y-137950000D01*
X52987500Y-139650000D01*
G37*
G36*
X52400164Y-135451602D02*
G01*
X52562500Y-135523878D01*
X52706261Y-135628327D01*
X52825164Y-135760383D01*
X52914014Y-135914274D01*
X52968925Y-136083275D01*
X52987500Y-136260000D01*
X52968925Y-136436725D01*
X52914014Y-136605726D01*
X52825164Y-136759617D01*
X52706261Y-136891673D01*
X52562500Y-136996122D01*
X52400164Y-137068398D01*
X52226349Y-137105344D01*
X52048651Y-137105344D01*
X51874836Y-137068398D01*
X51712500Y-136996122D01*
X51568739Y-136891673D01*
X51449836Y-136759617D01*
X51360986Y-136605726D01*
X51306075Y-136436725D01*
X51287500Y-136260000D01*
X51306075Y-136083275D01*
X51360986Y-135914274D01*
X51449836Y-135760383D01*
X51568739Y-135628327D01*
X51712500Y-135523878D01*
X51874836Y-135451602D01*
X52048651Y-135414656D01*
X52226349Y-135414656D01*
X52400164Y-135451602D01*
G37*
G36*
X132550000Y-136800000D02*
G01*
X130750000Y-136800000D01*
X130750000Y-135700000D01*
X132550000Y-135700000D01*
X132550000Y-136800000D01*
G37*
G36*
X137800000Y-136800000D02*
G01*
X136000000Y-136800000D01*
X136000000Y-135700000D01*
X137800000Y-135700000D01*
X137800000Y-136800000D01*
G37*
G36*
X130211507Y-134431294D02*
G01*
X130274937Y-134439644D01*
X130290895Y-134447085D01*
X130310238Y-134450933D01*
X130335859Y-134468052D01*
X130362286Y-134480376D01*
X130378363Y-134496453D01*
X130399454Y-134510546D01*
X130413546Y-134531636D01*
X130429623Y-134547713D01*
X130441944Y-134574136D01*
X130459067Y-134599762D01*
X130462915Y-134619108D01*
X130470353Y-134635059D01*
X130478699Y-134698460D01*
X130480000Y-134705000D01*
X130480000Y-135255000D01*
X130478702Y-135261522D01*
X130470355Y-135324937D01*
X130462915Y-135340891D01*
X130459067Y-135360238D01*
X130441943Y-135385864D01*
X130429623Y-135412286D01*
X130413548Y-135428360D01*
X130399454Y-135449454D01*
X130378360Y-135463548D01*
X130362286Y-135479623D01*
X130335865Y-135491943D01*
X130310238Y-135509067D01*
X130290889Y-135512915D01*
X130274940Y-135520353D01*
X130211541Y-135528698D01*
X130205000Y-135530000D01*
X128955000Y-135530000D01*
X128948479Y-135528702D01*
X128885062Y-135520355D01*
X128869106Y-135512914D01*
X128849762Y-135509067D01*
X128824137Y-135491945D01*
X128797713Y-135479623D01*
X128781636Y-135463546D01*
X128760546Y-135449454D01*
X128746453Y-135428363D01*
X128730376Y-135412286D01*
X128718053Y-135385860D01*
X128700933Y-135360238D01*
X128697085Y-135340893D01*
X128689646Y-135324940D01*
X128681298Y-135261526D01*
X128680000Y-135255000D01*
X128680000Y-134705000D01*
X128681294Y-134698494D01*
X128689644Y-134635062D01*
X128697085Y-134619103D01*
X128700933Y-134599762D01*
X128718051Y-134574142D01*
X128730376Y-134547713D01*
X128746455Y-134531633D01*
X128760546Y-134510546D01*
X128781633Y-134496455D01*
X128797713Y-134480376D01*
X128824141Y-134468052D01*
X128849762Y-134450933D01*
X128869104Y-134447085D01*
X128885059Y-134439646D01*
X128948475Y-134431297D01*
X128955000Y-134430000D01*
X130205000Y-134430000D01*
X130211507Y-134431294D01*
G37*
G36*
X135461507Y-134431294D02*
G01*
X135524937Y-134439644D01*
X135540895Y-134447085D01*
X135560238Y-134450933D01*
X135585859Y-134468052D01*
X135612286Y-134480376D01*
X135628363Y-134496453D01*
X135649454Y-134510546D01*
X135663546Y-134531636D01*
X135679623Y-134547713D01*
X135691944Y-134574136D01*
X135709067Y-134599762D01*
X135712915Y-134619108D01*
X135720353Y-134635059D01*
X135728699Y-134698460D01*
X135730000Y-134705000D01*
X135730000Y-135255000D01*
X135728702Y-135261522D01*
X135720355Y-135324937D01*
X135712915Y-135340891D01*
X135709067Y-135360238D01*
X135691943Y-135385864D01*
X135679623Y-135412286D01*
X135663548Y-135428360D01*
X135649454Y-135449454D01*
X135628360Y-135463548D01*
X135612286Y-135479623D01*
X135585865Y-135491943D01*
X135560238Y-135509067D01*
X135540889Y-135512915D01*
X135524940Y-135520353D01*
X135461541Y-135528698D01*
X135455000Y-135530000D01*
X134205000Y-135530000D01*
X134198479Y-135528702D01*
X134135062Y-135520355D01*
X134119106Y-135512914D01*
X134099762Y-135509067D01*
X134074137Y-135491945D01*
X134047713Y-135479623D01*
X134031636Y-135463546D01*
X134010546Y-135449454D01*
X133996453Y-135428363D01*
X133980376Y-135412286D01*
X133968053Y-135385860D01*
X133950933Y-135360238D01*
X133947085Y-135340893D01*
X133939646Y-135324940D01*
X133931298Y-135261526D01*
X133930000Y-135255000D01*
X133930000Y-134705000D01*
X133931294Y-134698494D01*
X133939644Y-134635062D01*
X133947085Y-134619103D01*
X133950933Y-134599762D01*
X133968051Y-134574142D01*
X133980376Y-134547713D01*
X133996455Y-134531633D01*
X134010546Y-134510546D01*
X134031633Y-134496455D01*
X134047713Y-134480376D01*
X134074141Y-134468052D01*
X134099762Y-134450933D01*
X134119104Y-134447085D01*
X134135059Y-134439646D01*
X134198475Y-134431297D01*
X134205000Y-134430000D01*
X135455000Y-134430000D01*
X135461507Y-134431294D01*
G37*
G36*
X109000000Y-134617677D02*
G01*
X107000000Y-134617677D01*
X107000000Y-132617677D01*
X109000000Y-132617677D01*
X109000000Y-134617677D01*
G37*
G36*
X52400164Y-132911602D02*
G01*
X52562500Y-132983878D01*
X52706261Y-133088327D01*
X52825164Y-133220383D01*
X52914014Y-133374274D01*
X52968925Y-133543275D01*
X52987500Y-133720000D01*
X52968925Y-133896725D01*
X52914014Y-134065726D01*
X52825164Y-134219617D01*
X52706261Y-134351673D01*
X52562500Y-134456122D01*
X52400164Y-134528398D01*
X52226349Y-134565344D01*
X52048651Y-134565344D01*
X51874836Y-134528398D01*
X51712500Y-134456122D01*
X51568739Y-134351673D01*
X51449836Y-134219617D01*
X51360986Y-134065726D01*
X51306075Y-133896725D01*
X51287500Y-133720000D01*
X51306075Y-133543275D01*
X51360986Y-133374274D01*
X51449836Y-133220383D01*
X51568739Y-133088327D01*
X51712500Y-132983878D01*
X51874836Y-132911602D01*
X52048651Y-132874656D01*
X52226349Y-132874656D01*
X52400164Y-132911602D01*
G37*
G36*
X132281507Y-133161294D02*
G01*
X132344937Y-133169644D01*
X132360895Y-133177085D01*
X132380238Y-133180933D01*
X132405859Y-133198052D01*
X132432286Y-133210376D01*
X132448363Y-133226453D01*
X132469454Y-133240546D01*
X132483546Y-133261636D01*
X132499623Y-133277713D01*
X132511944Y-133304136D01*
X132529067Y-133329762D01*
X132532915Y-133349108D01*
X132540353Y-133365059D01*
X132548699Y-133428460D01*
X132550000Y-133435000D01*
X132550000Y-133985000D01*
X132548702Y-133991522D01*
X132540355Y-134054937D01*
X132532915Y-134070891D01*
X132529067Y-134090238D01*
X132511943Y-134115864D01*
X132499623Y-134142286D01*
X132483548Y-134158360D01*
X132469454Y-134179454D01*
X132448360Y-134193548D01*
X132432286Y-134209623D01*
X132405865Y-134221943D01*
X132380238Y-134239067D01*
X132360889Y-134242915D01*
X132344940Y-134250353D01*
X132281541Y-134258698D01*
X132275000Y-134260000D01*
X131025000Y-134260000D01*
X131018479Y-134258702D01*
X130955062Y-134250355D01*
X130939106Y-134242914D01*
X130919762Y-134239067D01*
X130894137Y-134221945D01*
X130867713Y-134209623D01*
X130851636Y-134193546D01*
X130830546Y-134179454D01*
X130816453Y-134158363D01*
X130800376Y-134142286D01*
X130788053Y-134115860D01*
X130770933Y-134090238D01*
X130767085Y-134070893D01*
X130759646Y-134054940D01*
X130751298Y-133991526D01*
X130750000Y-133985000D01*
X130750000Y-133435000D01*
X130751294Y-133428494D01*
X130759644Y-133365062D01*
X130767085Y-133349103D01*
X130770933Y-133329762D01*
X130788051Y-133304142D01*
X130800376Y-133277713D01*
X130816455Y-133261633D01*
X130830546Y-133240546D01*
X130851633Y-133226455D01*
X130867713Y-133210376D01*
X130894141Y-133198052D01*
X130919762Y-133180933D01*
X130939104Y-133177085D01*
X130955059Y-133169646D01*
X131018475Y-133161297D01*
X131025000Y-133160000D01*
X132275000Y-133160000D01*
X132281507Y-133161294D01*
G37*
G36*
X137531507Y-133161294D02*
G01*
X137594937Y-133169644D01*
X137610895Y-133177085D01*
X137630238Y-133180933D01*
X137655859Y-133198052D01*
X137682286Y-133210376D01*
X137698363Y-133226453D01*
X137719454Y-133240546D01*
X137733546Y-133261636D01*
X137749623Y-133277713D01*
X137761944Y-133304136D01*
X137779067Y-133329762D01*
X137782915Y-133349108D01*
X137790353Y-133365059D01*
X137798699Y-133428460D01*
X137800000Y-133435000D01*
X137800000Y-133985000D01*
X137798702Y-133991522D01*
X137790355Y-134054937D01*
X137782915Y-134070891D01*
X137779067Y-134090238D01*
X137761943Y-134115864D01*
X137749623Y-134142286D01*
X137733548Y-134158360D01*
X137719454Y-134179454D01*
X137698360Y-134193548D01*
X137682286Y-134209623D01*
X137655865Y-134221943D01*
X137630238Y-134239067D01*
X137610889Y-134242915D01*
X137594940Y-134250353D01*
X137531541Y-134258698D01*
X137525000Y-134260000D01*
X136275000Y-134260000D01*
X136268479Y-134258702D01*
X136205062Y-134250355D01*
X136189106Y-134242914D01*
X136169762Y-134239067D01*
X136144137Y-134221945D01*
X136117713Y-134209623D01*
X136101636Y-134193546D01*
X136080546Y-134179454D01*
X136066453Y-134158363D01*
X136050376Y-134142286D01*
X136038053Y-134115860D01*
X136020933Y-134090238D01*
X136017085Y-134070893D01*
X136009646Y-134054940D01*
X136001298Y-133991526D01*
X136000000Y-133985000D01*
X136000000Y-133435000D01*
X136001294Y-133428494D01*
X136009644Y-133365062D01*
X136017085Y-133349103D01*
X136020933Y-133329762D01*
X136038051Y-133304142D01*
X136050376Y-133277713D01*
X136066455Y-133261633D01*
X136080546Y-133240546D01*
X136101633Y-133226455D01*
X136117713Y-133210376D01*
X136144141Y-133198052D01*
X136169762Y-133180933D01*
X136189104Y-133177085D01*
X136205059Y-133169646D01*
X136268475Y-133161297D01*
X136275000Y-133160000D01*
X137525000Y-133160000D01*
X137531507Y-133161294D01*
G37*
G36*
X144556296Y-131555119D02*
G01*
X144610722Y-131555119D01*
X144658601Y-131564069D01*
X144708345Y-131568421D01*
X144769402Y-131584781D01*
X144828396Y-131595809D01*
X144868406Y-131611309D01*
X144910354Y-131622549D01*
X144973859Y-131652162D01*
X145034886Y-131675804D01*
X145066386Y-131695307D01*
X145099907Y-131710939D01*
X145163135Y-131755212D01*
X145223162Y-131792379D01*
X145246171Y-131813355D01*
X145271221Y-131830895D01*
X145331141Y-131890815D01*
X145386811Y-131941565D01*
X145401986Y-131961660D01*
X145419104Y-131978778D01*
X145472499Y-132055034D01*
X145520261Y-132118281D01*
X145528818Y-132135466D01*
X145539060Y-132150093D01*
X145582674Y-132243624D01*
X145618967Y-132316510D01*
X145622575Y-132329192D01*
X145627450Y-132339646D01*
X145658171Y-132454299D01*
X145679568Y-132529501D01*
X145680226Y-132536611D01*
X145681578Y-132541654D01*
X145696510Y-132712342D01*
X145700000Y-132750000D01*
X145696510Y-132787660D01*
X145681578Y-132958345D01*
X145680227Y-132963386D01*
X145679568Y-132970499D01*
X145658168Y-133045710D01*
X145627450Y-133160354D01*
X145622575Y-133170807D01*
X145618967Y-133183490D01*
X145582674Y-133256375D01*
X145539060Y-133349907D01*
X145528818Y-133364533D01*
X145520261Y-133381719D01*
X145472493Y-133444972D01*
X145419104Y-133521221D01*
X145401989Y-133538335D01*
X145386811Y-133558435D01*
X145331129Y-133609195D01*
X145271221Y-133669104D01*
X145246176Y-133686640D01*
X145223162Y-133707621D01*
X145163123Y-133744795D01*
X145099907Y-133789060D01*
X145066392Y-133804687D01*
X145034886Y-133824196D01*
X144973846Y-133847842D01*
X144910354Y-133877450D01*
X144868414Y-133888687D01*
X144828396Y-133904191D01*
X144769390Y-133915220D01*
X144708345Y-133931578D01*
X144658612Y-133935928D01*
X144610722Y-133944881D01*
X144556284Y-133944881D01*
X144500000Y-133949805D01*
X144443716Y-133944881D01*
X144389278Y-133944881D01*
X144341388Y-133935929D01*
X144291654Y-133931578D01*
X144230606Y-133915220D01*
X144171604Y-133904191D01*
X144131587Y-133888688D01*
X144089645Y-133877450D01*
X144026147Y-133847840D01*
X143965114Y-133824196D01*
X143933610Y-133804689D01*
X143900092Y-133789060D01*
X143836867Y-133744789D01*
X143776838Y-133707621D01*
X143753826Y-133686643D01*
X143728778Y-133669104D01*
X143668858Y-133609184D01*
X143613189Y-133558435D01*
X143598013Y-133538339D01*
X143580895Y-133521221D01*
X143527492Y-133444954D01*
X143479739Y-133381719D01*
X143471184Y-133364538D01*
X143460939Y-133349907D01*
X143417309Y-133256343D01*
X143381033Y-133183490D01*
X143377426Y-133170812D01*
X143372549Y-133160354D01*
X143341814Y-133045649D01*
X143320432Y-132970499D01*
X143319773Y-132963392D01*
X143318421Y-132958345D01*
X143303471Y-132787467D01*
X143300000Y-132750000D01*
X143303471Y-132712535D01*
X143318421Y-132541654D01*
X143319773Y-132536605D01*
X143320432Y-132529501D01*
X143341811Y-132454359D01*
X143372549Y-132339646D01*
X143377426Y-132329187D01*
X143381033Y-132316510D01*
X143417309Y-132243656D01*
X143460939Y-132150093D01*
X143471184Y-132135461D01*
X143479739Y-132118281D01*
X143527487Y-132055052D01*
X143580895Y-131978778D01*
X143598016Y-131961656D01*
X143613189Y-131941565D01*
X143668847Y-131890825D01*
X143728778Y-131830895D01*
X143753830Y-131813352D01*
X143776838Y-131792379D01*
X143836860Y-131755214D01*
X143900093Y-131710939D01*
X143933613Y-131695307D01*
X143965114Y-131675804D01*
X144026140Y-131652162D01*
X144089646Y-131622549D01*
X144131593Y-131611309D01*
X144171604Y-131595809D01*
X144230594Y-131584781D01*
X144291654Y-131568421D01*
X144341398Y-131564069D01*
X144389278Y-131555119D01*
X144443704Y-131555119D01*
X144500000Y-131550194D01*
X144556296Y-131555119D01*
G37*
G36*
X115297568Y-131022607D02*
G01*
X115344076Y-131022607D01*
X115384232Y-131031142D01*
X115425530Y-131035210D01*
X115477415Y-131050949D01*
X115528115Y-131061726D01*
X115560558Y-131076170D01*
X115594319Y-131086412D01*
X115647967Y-131115087D01*
X115700000Y-131138254D01*
X115724192Y-131155830D01*
X115749878Y-131169560D01*
X115802271Y-131212558D01*
X115852218Y-131248847D01*
X115868436Y-131266859D01*
X115886221Y-131281455D01*
X115934018Y-131339695D01*
X115978115Y-131388670D01*
X115987377Y-131404713D01*
X115998116Y-131417798D01*
X116037840Y-131492117D01*
X116072191Y-131551614D01*
X116076142Y-131563775D01*
X116081264Y-131573357D01*
X116109504Y-131666452D01*
X116130333Y-131730556D01*
X116131066Y-131737531D01*
X116132466Y-131742146D01*
X116146090Y-131880479D01*
X116150000Y-131917677D01*
X116146090Y-131954877D01*
X116132466Y-132093207D01*
X116131066Y-132097821D01*
X116130333Y-132104798D01*
X116109500Y-132168915D01*
X116081264Y-132261996D01*
X116076143Y-132271576D01*
X116072191Y-132283740D01*
X116037833Y-132343249D01*
X115998116Y-132417555D01*
X115987379Y-132430637D01*
X115978115Y-132446684D01*
X115934009Y-132495668D01*
X115886221Y-132553898D01*
X115868439Y-132568490D01*
X115852218Y-132586507D01*
X115802260Y-132622803D01*
X115749878Y-132665793D01*
X115724197Y-132679519D01*
X115700000Y-132697100D01*
X115647955Y-132720271D01*
X115594319Y-132748941D01*
X115560565Y-132759180D01*
X115528115Y-132773628D01*
X115477404Y-132784406D01*
X115425530Y-132800143D01*
X115384241Y-132804209D01*
X115344076Y-132812747D01*
X115297558Y-132812747D01*
X115250000Y-132817431D01*
X115202442Y-132812747D01*
X115155924Y-132812747D01*
X115115759Y-132804209D01*
X115074469Y-132800143D01*
X115022592Y-132784406D01*
X114971885Y-132773628D01*
X114939436Y-132759180D01*
X114905680Y-132748941D01*
X114852038Y-132720268D01*
X114800000Y-132697100D01*
X114775805Y-132679521D01*
X114750121Y-132665793D01*
X114697730Y-132622796D01*
X114647782Y-132586507D01*
X114631562Y-132568493D01*
X114613778Y-132553898D01*
X114565979Y-132495655D01*
X114521885Y-132446684D01*
X114512622Y-132430641D01*
X114501883Y-132417555D01*
X114462153Y-132343225D01*
X114427809Y-132283740D01*
X114423858Y-132271580D01*
X114418735Y-132261996D01*
X114390484Y-132168868D01*
X114369667Y-132104798D01*
X114368934Y-132097826D01*
X114367533Y-132093207D01*
X114353893Y-131954726D01*
X114350000Y-131917677D01*
X114353893Y-131880630D01*
X114367533Y-131742146D01*
X114368934Y-131737526D01*
X114369667Y-131730556D01*
X114390480Y-131666499D01*
X114418735Y-131573357D01*
X114423859Y-131563770D01*
X114427809Y-131551614D01*
X114462145Y-131492140D01*
X114501883Y-131417798D01*
X114512624Y-131404709D01*
X114521885Y-131388670D01*
X114565970Y-131339708D01*
X114613778Y-131281455D01*
X114631566Y-131266856D01*
X114647782Y-131248847D01*
X114697719Y-131212565D01*
X114750121Y-131169560D01*
X114775810Y-131155828D01*
X114800000Y-131138254D01*
X114852026Y-131115090D01*
X114905680Y-131086412D01*
X114939443Y-131076169D01*
X114971885Y-131061726D01*
X115022581Y-131050950D01*
X115074469Y-131035210D01*
X115115768Y-131031142D01*
X115155924Y-131022607D01*
X115202432Y-131022607D01*
X115250000Y-131017922D01*
X115297568Y-131022607D01*
G37*
G36*
X52400164Y-130371602D02*
G01*
X52562500Y-130443878D01*
X52706261Y-130548327D01*
X52825164Y-130680383D01*
X52914014Y-130834274D01*
X52968925Y-131003275D01*
X52987500Y-131180000D01*
X52968925Y-131356725D01*
X52914014Y-131525726D01*
X52825164Y-131679617D01*
X52706261Y-131811673D01*
X52562500Y-131916122D01*
X52400164Y-131988398D01*
X52226349Y-132025344D01*
X52048651Y-132025344D01*
X51874836Y-131988398D01*
X51712500Y-131916122D01*
X51568739Y-131811673D01*
X51449836Y-131679617D01*
X51360986Y-131525726D01*
X51306075Y-131356725D01*
X51287500Y-131180000D01*
X51306075Y-131003275D01*
X51360986Y-130834274D01*
X51449836Y-130680383D01*
X51568739Y-130548327D01*
X51712500Y-130443878D01*
X51874836Y-130371602D01*
X52048651Y-130334656D01*
X52226349Y-130334656D01*
X52400164Y-130371602D01*
G37*
G36*
X118997568Y-129322607D02*
G01*
X119044076Y-129322607D01*
X119084232Y-129331142D01*
X119125530Y-129335210D01*
X119177415Y-129350949D01*
X119228115Y-129361726D01*
X119260558Y-129376170D01*
X119294319Y-129386412D01*
X119347967Y-129415087D01*
X119400000Y-129438254D01*
X119424192Y-129455830D01*
X119449878Y-129469560D01*
X119502271Y-129512558D01*
X119552218Y-129548847D01*
X119568436Y-129566859D01*
X119586221Y-129581455D01*
X119634018Y-129639695D01*
X119678115Y-129688670D01*
X119687377Y-129704713D01*
X119698116Y-129717798D01*
X119737840Y-129792117D01*
X119772191Y-129851614D01*
X119776142Y-129863775D01*
X119781264Y-129873357D01*
X119809504Y-129966452D01*
X119830333Y-130030556D01*
X119831066Y-130037531D01*
X119832466Y-130042146D01*
X119846090Y-130180479D01*
X119850000Y-130217677D01*
X119846090Y-130254877D01*
X119832466Y-130393207D01*
X119831066Y-130397821D01*
X119830333Y-130404798D01*
X119809500Y-130468915D01*
X119781264Y-130561996D01*
X119776143Y-130571576D01*
X119772191Y-130583740D01*
X119737833Y-130643249D01*
X119698116Y-130717555D01*
X119687379Y-130730637D01*
X119678115Y-130746684D01*
X119634009Y-130795668D01*
X119586221Y-130853898D01*
X119568439Y-130868490D01*
X119552218Y-130886507D01*
X119502260Y-130922803D01*
X119449878Y-130965793D01*
X119424197Y-130979519D01*
X119400000Y-130997100D01*
X119347955Y-131020271D01*
X119294319Y-131048941D01*
X119260565Y-131059180D01*
X119228115Y-131073628D01*
X119177404Y-131084406D01*
X119125530Y-131100143D01*
X119084241Y-131104209D01*
X119044076Y-131112747D01*
X118997558Y-131112747D01*
X118950000Y-131117431D01*
X118902442Y-131112747D01*
X118855924Y-131112747D01*
X118815759Y-131104209D01*
X118774469Y-131100143D01*
X118722592Y-131084406D01*
X118671885Y-131073628D01*
X118639436Y-131059180D01*
X118605680Y-131048941D01*
X118552038Y-131020268D01*
X118500000Y-130997100D01*
X118475805Y-130979521D01*
X118450121Y-130965793D01*
X118397730Y-130922796D01*
X118347782Y-130886507D01*
X118331562Y-130868493D01*
X118313778Y-130853898D01*
X118265979Y-130795655D01*
X118221885Y-130746684D01*
X118212622Y-130730641D01*
X118201883Y-130717555D01*
X118162153Y-130643225D01*
X118127809Y-130583740D01*
X118123858Y-130571580D01*
X118118735Y-130561996D01*
X118090484Y-130468868D01*
X118069667Y-130404798D01*
X118068934Y-130397826D01*
X118067533Y-130393207D01*
X118053893Y-130254726D01*
X118050000Y-130217677D01*
X118053893Y-130180630D01*
X118067533Y-130042146D01*
X118068934Y-130037526D01*
X118069667Y-130030556D01*
X118090480Y-129966499D01*
X118118735Y-129873357D01*
X118123859Y-129863770D01*
X118127809Y-129851614D01*
X118162145Y-129792140D01*
X118201883Y-129717798D01*
X118212624Y-129704709D01*
X118221885Y-129688670D01*
X118265970Y-129639708D01*
X118313778Y-129581455D01*
X118331566Y-129566856D01*
X118347782Y-129548847D01*
X118397719Y-129512565D01*
X118450121Y-129469560D01*
X118475810Y-129455828D01*
X118500000Y-129438254D01*
X118552026Y-129415090D01*
X118605680Y-129386412D01*
X118639443Y-129376169D01*
X118671885Y-129361726D01*
X118722581Y-129350950D01*
X118774469Y-129335210D01*
X118815768Y-129331142D01*
X118855924Y-129322607D01*
X118902432Y-129322607D01*
X118950000Y-129317922D01*
X118997568Y-129322607D01*
G37*
G36*
X137800000Y-131050000D02*
G01*
X136000000Y-131050000D01*
X136000000Y-129950000D01*
X137800000Y-129950000D01*
X137800000Y-131050000D01*
G37*
G36*
X135461507Y-128681294D02*
G01*
X135524937Y-128689644D01*
X135540895Y-128697085D01*
X135560238Y-128700933D01*
X135585859Y-128718052D01*
X135612286Y-128730376D01*
X135628363Y-128746453D01*
X135649454Y-128760546D01*
X135663546Y-128781636D01*
X135679623Y-128797713D01*
X135691944Y-128824136D01*
X135709067Y-128849762D01*
X135712915Y-128869108D01*
X135720353Y-128885059D01*
X135728699Y-128948460D01*
X135730000Y-128955000D01*
X135730000Y-129505000D01*
X135728702Y-129511522D01*
X135720355Y-129574937D01*
X135712915Y-129590891D01*
X135709067Y-129610238D01*
X135691943Y-129635864D01*
X135679623Y-129662286D01*
X135663548Y-129678360D01*
X135649454Y-129699454D01*
X135628360Y-129713548D01*
X135612286Y-129729623D01*
X135585865Y-129741943D01*
X135560238Y-129759067D01*
X135540889Y-129762915D01*
X135524940Y-129770353D01*
X135461541Y-129778698D01*
X135455000Y-129780000D01*
X134205000Y-129780000D01*
X134198479Y-129778702D01*
X134135062Y-129770355D01*
X134119106Y-129762914D01*
X134099762Y-129759067D01*
X134074137Y-129741945D01*
X134047713Y-129729623D01*
X134031636Y-129713546D01*
X134010546Y-129699454D01*
X133996453Y-129678363D01*
X133980376Y-129662286D01*
X133968053Y-129635860D01*
X133950933Y-129610238D01*
X133947085Y-129590893D01*
X133939646Y-129574940D01*
X133931298Y-129511526D01*
X133930000Y-129505000D01*
X133930000Y-128955000D01*
X133931294Y-128948494D01*
X133939644Y-128885062D01*
X133947085Y-128869103D01*
X133950933Y-128849762D01*
X133968051Y-128824142D01*
X133980376Y-128797713D01*
X133996455Y-128781633D01*
X134010546Y-128760546D01*
X134031633Y-128746455D01*
X134047713Y-128730376D01*
X134074141Y-128718052D01*
X134099762Y-128700933D01*
X134119104Y-128697085D01*
X134135059Y-128689646D01*
X134198475Y-128681297D01*
X134205000Y-128680000D01*
X135455000Y-128680000D01*
X135461507Y-128681294D01*
G37*
G36*
X108195090Y-127636892D02*
G01*
X108382683Y-127693797D01*
X108555570Y-127786207D01*
X108707107Y-127910570D01*
X108831470Y-128062107D01*
X108923880Y-128234994D01*
X108980785Y-128422587D01*
X109000000Y-128617677D01*
X108980785Y-128812767D01*
X108923880Y-129000360D01*
X108831470Y-129173247D01*
X108707107Y-129324784D01*
X108555570Y-129449147D01*
X108382683Y-129541557D01*
X108195090Y-129598462D01*
X108000000Y-129617677D01*
X107804910Y-129598462D01*
X107617317Y-129541557D01*
X107444430Y-129449147D01*
X107292893Y-129324784D01*
X107168530Y-129173247D01*
X107076120Y-129000360D01*
X107019215Y-128812767D01*
X107000000Y-128617677D01*
X107019215Y-128422587D01*
X107076120Y-128234994D01*
X107168530Y-128062107D01*
X107292893Y-127910570D01*
X107444430Y-127786207D01*
X107617317Y-127693797D01*
X107804910Y-127636892D01*
X108000000Y-127617677D01*
X108195090Y-127636892D01*
G37*
G36*
X115297568Y-127622607D02*
G01*
X115344076Y-127622607D01*
X115384232Y-127631142D01*
X115425530Y-127635210D01*
X115477415Y-127650949D01*
X115528115Y-127661726D01*
X115560558Y-127676170D01*
X115594319Y-127686412D01*
X115647967Y-127715087D01*
X115700000Y-127738254D01*
X115724192Y-127755830D01*
X115749878Y-127769560D01*
X115802271Y-127812558D01*
X115852218Y-127848847D01*
X115868436Y-127866859D01*
X115886221Y-127881455D01*
X115934018Y-127939695D01*
X115978115Y-127988670D01*
X115987377Y-128004713D01*
X115998116Y-128017798D01*
X116037840Y-128092117D01*
X116072191Y-128151614D01*
X116076142Y-128163775D01*
X116081264Y-128173357D01*
X116109504Y-128266452D01*
X116130333Y-128330556D01*
X116131066Y-128337531D01*
X116132466Y-128342146D01*
X116146090Y-128480479D01*
X116150000Y-128517677D01*
X116146090Y-128554877D01*
X116132466Y-128693207D01*
X116131066Y-128697821D01*
X116130333Y-128704798D01*
X116109500Y-128768915D01*
X116081264Y-128861996D01*
X116076143Y-128871576D01*
X116072191Y-128883740D01*
X116037833Y-128943249D01*
X115998116Y-129017555D01*
X115987379Y-129030637D01*
X115978115Y-129046684D01*
X115934009Y-129095668D01*
X115886221Y-129153898D01*
X115868439Y-129168490D01*
X115852218Y-129186507D01*
X115802260Y-129222803D01*
X115749878Y-129265793D01*
X115724197Y-129279519D01*
X115700000Y-129297100D01*
X115647955Y-129320271D01*
X115594319Y-129348941D01*
X115560565Y-129359180D01*
X115528115Y-129373628D01*
X115477404Y-129384406D01*
X115425530Y-129400143D01*
X115384241Y-129404209D01*
X115344076Y-129412747D01*
X115297558Y-129412747D01*
X115250000Y-129417431D01*
X115202442Y-129412747D01*
X115155924Y-129412747D01*
X115115759Y-129404209D01*
X115074469Y-129400143D01*
X115022592Y-129384406D01*
X114971885Y-129373628D01*
X114939436Y-129359180D01*
X114905680Y-129348941D01*
X114852038Y-129320268D01*
X114800000Y-129297100D01*
X114775805Y-129279521D01*
X114750121Y-129265793D01*
X114697730Y-129222796D01*
X114647782Y-129186507D01*
X114631562Y-129168493D01*
X114613778Y-129153898D01*
X114565979Y-129095655D01*
X114521885Y-129046684D01*
X114512622Y-129030641D01*
X114501883Y-129017555D01*
X114462153Y-128943225D01*
X114427809Y-128883740D01*
X114423858Y-128871580D01*
X114418735Y-128861996D01*
X114390484Y-128768868D01*
X114369667Y-128704798D01*
X114368934Y-128697826D01*
X114367533Y-128693207D01*
X114353893Y-128554726D01*
X114350000Y-128517677D01*
X114353893Y-128480630D01*
X114367533Y-128342146D01*
X114368934Y-128337526D01*
X114369667Y-128330556D01*
X114390480Y-128266499D01*
X114418735Y-128173357D01*
X114423859Y-128163770D01*
X114427809Y-128151614D01*
X114462145Y-128092140D01*
X114501883Y-128017798D01*
X114512624Y-128004709D01*
X114521885Y-127988670D01*
X114565970Y-127939708D01*
X114613778Y-127881455D01*
X114631566Y-127866856D01*
X114647782Y-127848847D01*
X114697719Y-127812565D01*
X114750121Y-127769560D01*
X114775810Y-127755828D01*
X114800000Y-127738254D01*
X114852026Y-127715090D01*
X114905680Y-127686412D01*
X114939443Y-127676169D01*
X114971885Y-127661726D01*
X115022581Y-127650950D01*
X115074469Y-127635210D01*
X115115768Y-127631142D01*
X115155924Y-127622607D01*
X115202432Y-127622607D01*
X115250000Y-127617922D01*
X115297568Y-127622607D01*
G37*
G36*
X137531507Y-127411294D02*
G01*
X137594937Y-127419644D01*
X137610895Y-127427085D01*
X137630238Y-127430933D01*
X137655859Y-127448052D01*
X137682286Y-127460376D01*
X137698363Y-127476453D01*
X137719454Y-127490546D01*
X137733546Y-127511636D01*
X137749623Y-127527713D01*
X137761944Y-127554136D01*
X137779067Y-127579762D01*
X137782915Y-127599108D01*
X137790353Y-127615059D01*
X137798699Y-127678460D01*
X137800000Y-127685000D01*
X137800000Y-128235000D01*
X137798702Y-128241522D01*
X137790355Y-128304937D01*
X137782915Y-128320891D01*
X137779067Y-128340238D01*
X137761943Y-128365864D01*
X137749623Y-128392286D01*
X137733548Y-128408360D01*
X137719454Y-128429454D01*
X137698360Y-128443548D01*
X137682286Y-128459623D01*
X137655865Y-128471943D01*
X137630238Y-128489067D01*
X137610889Y-128492915D01*
X137594940Y-128500353D01*
X137531541Y-128508698D01*
X137525000Y-128510000D01*
X136275000Y-128510000D01*
X136268479Y-128508702D01*
X136205062Y-128500355D01*
X136189106Y-128492914D01*
X136169762Y-128489067D01*
X136144137Y-128471945D01*
X136117713Y-128459623D01*
X136101636Y-128443546D01*
X136080546Y-128429454D01*
X136066453Y-128408363D01*
X136050376Y-128392286D01*
X136038053Y-128365860D01*
X136020933Y-128340238D01*
X136017085Y-128320893D01*
X136009646Y-128304940D01*
X136001298Y-128241526D01*
X136000000Y-128235000D01*
X136000000Y-127685000D01*
X136001294Y-127678494D01*
X136009644Y-127615062D01*
X136017085Y-127599103D01*
X136020933Y-127579762D01*
X136038051Y-127554142D01*
X136050376Y-127527713D01*
X136066455Y-127511633D01*
X136080546Y-127490546D01*
X136101633Y-127476455D01*
X136117713Y-127460376D01*
X136144141Y-127448052D01*
X136169762Y-127430933D01*
X136189104Y-127427085D01*
X136205059Y-127419646D01*
X136268475Y-127411297D01*
X136275000Y-127410000D01*
X137525000Y-127410000D01*
X137531507Y-127411294D01*
G37*
G36*
X52195090Y-126019215D02*
G01*
X52382683Y-126076120D01*
X52555570Y-126168530D01*
X52707107Y-126292893D01*
X52831470Y-126444430D01*
X52923880Y-126617317D01*
X52980785Y-126804910D01*
X53000000Y-127000000D01*
X52980785Y-127195090D01*
X52923880Y-127382683D01*
X52831470Y-127555570D01*
X52707107Y-127707107D01*
X52555570Y-127831470D01*
X52382683Y-127923880D01*
X52195090Y-127980785D01*
X52000000Y-128000000D01*
X51804910Y-127980785D01*
X51617317Y-127923880D01*
X51444430Y-127831470D01*
X51292893Y-127707107D01*
X51168530Y-127555570D01*
X51076120Y-127382683D01*
X51019215Y-127195090D01*
X51000000Y-127000000D01*
X51019215Y-126804910D01*
X51076120Y-126617317D01*
X51168530Y-126444430D01*
X51292893Y-126292893D01*
X51444430Y-126168530D01*
X51617317Y-126076120D01*
X51804910Y-126019215D01*
X52000000Y-126000000D01*
X52195090Y-126019215D01*
G37*
G36*
X58695090Y-126019215D02*
G01*
X58882683Y-126076120D01*
X59055570Y-126168530D01*
X59207107Y-126292893D01*
X59331470Y-126444430D01*
X59423880Y-126617317D01*
X59480785Y-126804910D01*
X59500000Y-127000000D01*
X59480785Y-127195090D01*
X59423880Y-127382683D01*
X59331470Y-127555570D01*
X59207107Y-127707107D01*
X59055570Y-127831470D01*
X58882683Y-127923880D01*
X58695090Y-127980785D01*
X58500000Y-128000000D01*
X58304910Y-127980785D01*
X58117317Y-127923880D01*
X57944430Y-127831470D01*
X57792893Y-127707107D01*
X57668530Y-127555570D01*
X57576120Y-127382683D01*
X57519215Y-127195090D01*
X57500000Y-127000000D01*
X57519215Y-126804910D01*
X57576120Y-126617317D01*
X57668530Y-126444430D01*
X57792893Y-126292893D01*
X57944430Y-126168530D01*
X58117317Y-126076120D01*
X58304910Y-126019215D01*
X58500000Y-126000000D01*
X58695090Y-126019215D01*
G37*
G36*
X118997568Y-125922607D02*
G01*
X119044076Y-125922607D01*
X119084232Y-125931142D01*
X119125530Y-125935210D01*
X119177415Y-125950949D01*
X119228115Y-125961726D01*
X119260558Y-125976170D01*
X119294319Y-125986412D01*
X119347967Y-126015087D01*
X119400000Y-126038254D01*
X119424192Y-126055830D01*
X119449878Y-126069560D01*
X119502271Y-126112558D01*
X119552218Y-126148847D01*
X119568436Y-126166859D01*
X119586221Y-126181455D01*
X119634018Y-126239695D01*
X119678115Y-126288670D01*
X119687377Y-126304713D01*
X119698116Y-126317798D01*
X119737840Y-126392117D01*
X119772191Y-126451614D01*
X119776142Y-126463775D01*
X119781264Y-126473357D01*
X119809504Y-126566452D01*
X119830333Y-126630556D01*
X119831066Y-126637531D01*
X119832466Y-126642146D01*
X119846090Y-126780479D01*
X119850000Y-126817677D01*
X119846090Y-126854877D01*
X119832466Y-126993207D01*
X119831066Y-126997821D01*
X119830333Y-127004798D01*
X119809500Y-127068915D01*
X119781264Y-127161996D01*
X119776143Y-127171576D01*
X119772191Y-127183740D01*
X119737833Y-127243249D01*
X119698116Y-127317555D01*
X119687379Y-127330637D01*
X119678115Y-127346684D01*
X119634009Y-127395668D01*
X119586221Y-127453898D01*
X119568439Y-127468490D01*
X119552218Y-127486507D01*
X119502260Y-127522803D01*
X119449878Y-127565793D01*
X119424197Y-127579519D01*
X119400000Y-127597100D01*
X119347955Y-127620271D01*
X119294319Y-127648941D01*
X119260565Y-127659180D01*
X119228115Y-127673628D01*
X119177404Y-127684406D01*
X119125530Y-127700143D01*
X119084241Y-127704209D01*
X119044076Y-127712747D01*
X118997558Y-127712747D01*
X118950000Y-127717431D01*
X118902442Y-127712747D01*
X118855924Y-127712747D01*
X118815759Y-127704209D01*
X118774469Y-127700143D01*
X118722592Y-127684406D01*
X118671885Y-127673628D01*
X118639436Y-127659180D01*
X118605680Y-127648941D01*
X118552038Y-127620268D01*
X118500000Y-127597100D01*
X118475805Y-127579521D01*
X118450121Y-127565793D01*
X118397730Y-127522796D01*
X118347782Y-127486507D01*
X118331562Y-127468493D01*
X118313778Y-127453898D01*
X118265979Y-127395655D01*
X118221885Y-127346684D01*
X118212622Y-127330641D01*
X118201883Y-127317555D01*
X118162153Y-127243225D01*
X118127809Y-127183740D01*
X118123858Y-127171580D01*
X118118735Y-127161996D01*
X118090484Y-127068868D01*
X118069667Y-127004798D01*
X118068934Y-126997826D01*
X118067533Y-126993207D01*
X118053893Y-126854726D01*
X118050000Y-126817677D01*
X118053893Y-126780630D01*
X118067533Y-126642146D01*
X118068934Y-126637526D01*
X118069667Y-126630556D01*
X118090480Y-126566499D01*
X118118735Y-126473357D01*
X118123859Y-126463770D01*
X118127809Y-126451614D01*
X118162145Y-126392140D01*
X118201883Y-126317798D01*
X118212624Y-126304709D01*
X118221885Y-126288670D01*
X118265970Y-126239708D01*
X118313778Y-126181455D01*
X118331566Y-126166856D01*
X118347782Y-126148847D01*
X118397719Y-126112565D01*
X118450121Y-126069560D01*
X118475810Y-126055828D01*
X118500000Y-126038254D01*
X118552026Y-126015090D01*
X118605680Y-125986412D01*
X118639443Y-125976169D01*
X118671885Y-125961726D01*
X118722581Y-125950950D01*
X118774469Y-125935210D01*
X118815768Y-125931142D01*
X118855924Y-125922607D01*
X118902432Y-125922607D01*
X118950000Y-125917922D01*
X118997568Y-125922607D01*
G37*
G36*
X116150000Y-126017677D02*
G01*
X114350000Y-126017677D01*
X114350000Y-124217677D01*
X116150000Y-124217677D01*
X116150000Y-126017677D01*
G37*
G36*
X52195090Y-121519215D02*
G01*
X52382683Y-121576120D01*
X52555570Y-121668530D01*
X52707107Y-121792893D01*
X52831470Y-121944430D01*
X52923880Y-122117317D01*
X52980785Y-122304910D01*
X53000000Y-122500000D01*
X52980785Y-122695090D01*
X52923880Y-122882683D01*
X52831470Y-123055570D01*
X52707107Y-123207107D01*
X52555570Y-123331470D01*
X52382683Y-123423880D01*
X52195090Y-123480785D01*
X52000000Y-123500000D01*
X51804910Y-123480785D01*
X51617317Y-123423880D01*
X51444430Y-123331470D01*
X51292893Y-123207107D01*
X51168530Y-123055570D01*
X51076120Y-122882683D01*
X51019215Y-122695090D01*
X51000000Y-122500000D01*
X51019215Y-122304910D01*
X51076120Y-122117317D01*
X51168530Y-121944430D01*
X51292893Y-121792893D01*
X51444430Y-121668530D01*
X51617317Y-121576120D01*
X51804910Y-121519215D01*
X52000000Y-121500000D01*
X52195090Y-121519215D01*
G37*
G36*
X58695090Y-121519215D02*
G01*
X58882683Y-121576120D01*
X59055570Y-121668530D01*
X59207107Y-121792893D01*
X59331470Y-121944430D01*
X59423880Y-122117317D01*
X59480785Y-122304910D01*
X59500000Y-122500000D01*
X59480785Y-122695090D01*
X59423880Y-122882683D01*
X59331470Y-123055570D01*
X59207107Y-123207107D01*
X59055570Y-123331470D01*
X58882683Y-123423880D01*
X58695090Y-123480785D01*
X58500000Y-123500000D01*
X58304910Y-123480785D01*
X58117317Y-123423880D01*
X57944430Y-123331470D01*
X57792893Y-123207107D01*
X57668530Y-123055570D01*
X57576120Y-122882683D01*
X57519215Y-122695090D01*
X57500000Y-122500000D01*
X57519215Y-122304910D01*
X57576120Y-122117317D01*
X57668530Y-121944430D01*
X57792893Y-121792893D01*
X57944430Y-121668530D01*
X58117317Y-121576120D01*
X58304910Y-121519215D01*
X58500000Y-121500000D01*
X58695090Y-121519215D01*
G37*
G36*
X154762759Y-117801258D02*
G01*
X154956354Y-117832094D01*
X155140212Y-117900106D01*
X155307268Y-118002680D01*
X155451104Y-118135873D01*
X155566192Y-118294568D01*
X155648108Y-118472667D01*
X155693705Y-118663325D01*
X155701230Y-118859215D01*
X155670394Y-119052809D01*
X155602383Y-119236668D01*
X155499809Y-119403724D01*
X155366615Y-119547560D01*
X155207920Y-119662648D01*
X155029821Y-119744564D01*
X154839163Y-119790161D01*
X154741403Y-119798735D01*
X153991955Y-119827525D01*
X153893825Y-119826476D01*
X153700231Y-119795640D01*
X153516372Y-119727628D01*
X153349316Y-119625054D01*
X153205480Y-119491861D01*
X153090392Y-119333166D01*
X153008476Y-119155067D01*
X152962879Y-118964409D01*
X152955354Y-118768519D01*
X152986190Y-118574925D01*
X153054202Y-118391066D01*
X153156776Y-118224010D01*
X153289969Y-118080174D01*
X153448664Y-117965086D01*
X153626763Y-117883170D01*
X153817421Y-117837573D01*
X153915181Y-117828999D01*
X153916418Y-117828951D01*
X153916424Y-117828951D01*
X154663394Y-117800256D01*
X154663403Y-117800256D01*
X154664630Y-117800209D01*
X154762759Y-117801258D01*
G37*
G36*
X158010365Y-117676498D02*
G01*
X158203960Y-117707334D01*
X158387818Y-117775346D01*
X158554874Y-117877920D01*
X158698710Y-118011113D01*
X158813798Y-118169808D01*
X158895714Y-118347907D01*
X158941311Y-118538565D01*
X158948836Y-118734455D01*
X158918000Y-118928049D01*
X158849989Y-119111908D01*
X158747415Y-119278964D01*
X158614221Y-119422800D01*
X158455526Y-119537888D01*
X158277427Y-119619804D01*
X158086769Y-119665401D01*
X157989009Y-119673975D01*
X157239561Y-119702765D01*
X157141431Y-119701716D01*
X156947837Y-119670880D01*
X156763978Y-119602868D01*
X156596922Y-119500294D01*
X156453086Y-119367101D01*
X156337998Y-119208406D01*
X156256082Y-119030307D01*
X156210485Y-118839649D01*
X156202960Y-118643759D01*
X156233796Y-118450165D01*
X156301808Y-118266306D01*
X156404382Y-118099250D01*
X156537575Y-117955414D01*
X156696270Y-117840326D01*
X156874369Y-117758410D01*
X157065027Y-117712813D01*
X157162787Y-117704239D01*
X157164024Y-117704191D01*
X157164030Y-117704191D01*
X157911000Y-117675496D01*
X157911009Y-117675496D01*
X157912236Y-117675449D01*
X158010365Y-117676498D01*
G37*
G36*
X58724561Y-115302105D02*
G01*
X58885619Y-115358462D01*
X59030099Y-115449244D01*
X59150756Y-115569901D01*
X59241538Y-115714381D01*
X59297895Y-115875439D01*
X59317000Y-116045000D01*
X59297895Y-116214561D01*
X59241538Y-116375619D01*
X59150756Y-116520099D01*
X59030099Y-116640756D01*
X58885619Y-116731538D01*
X58724561Y-116787895D01*
X58555000Y-116807000D01*
X58385439Y-116787895D01*
X58224381Y-116731538D01*
X58079901Y-116640756D01*
X57959244Y-116520099D01*
X57868462Y-116375619D01*
X57812105Y-116214561D01*
X57793000Y-116045000D01*
X57812105Y-115875439D01*
X57868462Y-115714381D01*
X57959244Y-115569901D01*
X58079901Y-115449244D01*
X58224381Y-115358462D01*
X58385439Y-115302105D01*
X58555000Y-115283000D01*
X58724561Y-115302105D01*
G37*
G36*
X61264561Y-115302105D02*
G01*
X61425619Y-115358462D01*
X61570099Y-115449244D01*
X61690756Y-115569901D01*
X61781538Y-115714381D01*
X61837895Y-115875439D01*
X61857000Y-116045000D01*
X61837895Y-116214561D01*
X61781538Y-116375619D01*
X61690756Y-116520099D01*
X61570099Y-116640756D01*
X61425619Y-116731538D01*
X61264561Y-116787895D01*
X61095000Y-116807000D01*
X60925439Y-116787895D01*
X60764381Y-116731538D01*
X60619901Y-116640756D01*
X60499244Y-116520099D01*
X60408462Y-116375619D01*
X60352105Y-116214561D01*
X60333000Y-116045000D01*
X60352105Y-115875439D01*
X60408462Y-115714381D01*
X60499244Y-115569901D01*
X60619901Y-115449244D01*
X60764381Y-115358462D01*
X60925439Y-115302105D01*
X61095000Y-115283000D01*
X61264561Y-115302105D01*
G37*
G36*
X63804561Y-115302105D02*
G01*
X63965619Y-115358462D01*
X64110099Y-115449244D01*
X64230756Y-115569901D01*
X64321538Y-115714381D01*
X64377895Y-115875439D01*
X64397000Y-116045000D01*
X64377895Y-116214561D01*
X64321538Y-116375619D01*
X64230756Y-116520099D01*
X64110099Y-116640756D01*
X63965619Y-116731538D01*
X63804561Y-116787895D01*
X63635000Y-116807000D01*
X63465439Y-116787895D01*
X63304381Y-116731538D01*
X63159901Y-116640756D01*
X63039244Y-116520099D01*
X62948462Y-116375619D01*
X62892105Y-116214561D01*
X62873000Y-116045000D01*
X62892105Y-115875439D01*
X62948462Y-115714381D01*
X63039244Y-115569901D01*
X63159901Y-115449244D01*
X63304381Y-115358462D01*
X63465439Y-115302105D01*
X63635000Y-115283000D01*
X63804561Y-115302105D01*
G37*
G36*
X66344561Y-115302105D02*
G01*
X66505619Y-115358462D01*
X66650099Y-115449244D01*
X66770756Y-115569901D01*
X66861538Y-115714381D01*
X66917895Y-115875439D01*
X66937000Y-116045000D01*
X66917895Y-116214561D01*
X66861538Y-116375619D01*
X66770756Y-116520099D01*
X66650099Y-116640756D01*
X66505619Y-116731538D01*
X66344561Y-116787895D01*
X66175000Y-116807000D01*
X66005439Y-116787895D01*
X65844381Y-116731538D01*
X65699901Y-116640756D01*
X65579244Y-116520099D01*
X65488462Y-116375619D01*
X65432105Y-116214561D01*
X65413000Y-116045000D01*
X65432105Y-115875439D01*
X65488462Y-115714381D01*
X65579244Y-115569901D01*
X65699901Y-115449244D01*
X65844381Y-115358462D01*
X66005439Y-115302105D01*
X66175000Y-115283000D01*
X66344561Y-115302105D01*
G37*
G36*
X68884561Y-115302105D02*
G01*
X69045619Y-115358462D01*
X69190099Y-115449244D01*
X69310756Y-115569901D01*
X69401538Y-115714381D01*
X69457895Y-115875439D01*
X69477000Y-116045000D01*
X69457895Y-116214561D01*
X69401538Y-116375619D01*
X69310756Y-116520099D01*
X69190099Y-116640756D01*
X69045619Y-116731538D01*
X68884561Y-116787895D01*
X68715000Y-116807000D01*
X68545439Y-116787895D01*
X68384381Y-116731538D01*
X68239901Y-116640756D01*
X68119244Y-116520099D01*
X68028462Y-116375619D01*
X67972105Y-116214561D01*
X67953000Y-116045000D01*
X67972105Y-115875439D01*
X68028462Y-115714381D01*
X68119244Y-115569901D01*
X68239901Y-115449244D01*
X68384381Y-115358462D01*
X68545439Y-115302105D01*
X68715000Y-115283000D01*
X68884561Y-115302105D01*
G37*
G36*
X106174168Y-112426944D02*
G01*
X106355280Y-112501963D01*
X106518278Y-112610873D01*
X106590991Y-112676777D01*
X107121321Y-113207107D01*
X107187225Y-113279821D01*
X107296135Y-113442818D01*
X107371154Y-113623930D01*
X107409398Y-113816197D01*
X107409398Y-114012231D01*
X107371154Y-114204498D01*
X107296135Y-114385610D01*
X107187225Y-114548608D01*
X107048608Y-114687225D01*
X106885610Y-114796135D01*
X106704498Y-114871154D01*
X106512231Y-114909398D01*
X106316197Y-114909398D01*
X106123930Y-114871154D01*
X105942818Y-114796135D01*
X105779821Y-114687225D01*
X105707107Y-114621321D01*
X105176777Y-114090991D01*
X105110873Y-114018278D01*
X105001963Y-113855280D01*
X104926944Y-113674168D01*
X104888700Y-113481901D01*
X104888700Y-113285867D01*
X104926944Y-113093600D01*
X105001963Y-112912488D01*
X105110873Y-112749490D01*
X105249490Y-112610873D01*
X105412488Y-112501963D01*
X105593600Y-112426944D01*
X105785867Y-112388700D01*
X105981901Y-112388700D01*
X106174168Y-112426944D01*
G37*
G36*
X111174168Y-112426944D02*
G01*
X111355280Y-112501963D01*
X111518278Y-112610873D01*
X111590991Y-112676777D01*
X112121321Y-113207107D01*
X112187225Y-113279821D01*
X112296135Y-113442818D01*
X112371154Y-113623930D01*
X112409398Y-113816197D01*
X112409398Y-114012231D01*
X112371154Y-114204498D01*
X112296135Y-114385610D01*
X112187225Y-114548608D01*
X112048608Y-114687225D01*
X111885610Y-114796135D01*
X111704498Y-114871154D01*
X111512231Y-114909398D01*
X111316197Y-114909398D01*
X111123930Y-114871154D01*
X110942818Y-114796135D01*
X110779821Y-114687225D01*
X110707107Y-114621321D01*
X110176777Y-114090991D01*
X110110873Y-114018278D01*
X110001963Y-113855280D01*
X109926944Y-113674168D01*
X109888700Y-113481901D01*
X109888700Y-113285867D01*
X109926944Y-113093600D01*
X110001963Y-112912488D01*
X110110873Y-112749490D01*
X110249490Y-112610873D01*
X110412488Y-112501963D01*
X110593600Y-112426944D01*
X110785867Y-112388700D01*
X110981901Y-112388700D01*
X111174168Y-112426944D01*
G37*
G36*
X116174168Y-112426944D02*
G01*
X116355280Y-112501963D01*
X116518278Y-112610873D01*
X116590991Y-112676777D01*
X117121321Y-113207107D01*
X117187225Y-113279821D01*
X117296135Y-113442818D01*
X117371154Y-113623930D01*
X117409398Y-113816197D01*
X117409398Y-114012231D01*
X117371154Y-114204498D01*
X117296135Y-114385610D01*
X117187225Y-114548608D01*
X117048608Y-114687225D01*
X116885610Y-114796135D01*
X116704498Y-114871154D01*
X116512231Y-114909398D01*
X116316197Y-114909398D01*
X116123930Y-114871154D01*
X115942818Y-114796135D01*
X115779821Y-114687225D01*
X115707107Y-114621321D01*
X115176777Y-114090991D01*
X115110873Y-114018278D01*
X115001963Y-113855280D01*
X114926944Y-113674168D01*
X114888700Y-113481901D01*
X114888700Y-113285867D01*
X114926944Y-113093600D01*
X115001963Y-112912488D01*
X115110873Y-112749490D01*
X115249490Y-112610873D01*
X115412488Y-112501963D01*
X115593600Y-112426944D01*
X115785867Y-112388700D01*
X115981901Y-112388700D01*
X116174168Y-112426944D01*
G37*
G36*
X121174168Y-112426944D02*
G01*
X121355280Y-112501963D01*
X121518278Y-112610873D01*
X121590991Y-112676777D01*
X122121321Y-113207107D01*
X122187225Y-113279821D01*
X122296135Y-113442818D01*
X122371154Y-113623930D01*
X122409398Y-113816197D01*
X122409398Y-114012231D01*
X122371154Y-114204498D01*
X122296135Y-114385610D01*
X122187225Y-114548608D01*
X122048608Y-114687225D01*
X121885610Y-114796135D01*
X121704498Y-114871154D01*
X121512231Y-114909398D01*
X121316197Y-114909398D01*
X121123930Y-114871154D01*
X120942818Y-114796135D01*
X120779821Y-114687225D01*
X120707107Y-114621321D01*
X120176777Y-114090991D01*
X120110873Y-114018278D01*
X120001963Y-113855280D01*
X119926944Y-113674168D01*
X119888700Y-113481901D01*
X119888700Y-113285867D01*
X119926944Y-113093600D01*
X120001963Y-112912488D01*
X120110873Y-112749490D01*
X120249490Y-112610873D01*
X120412488Y-112501963D01*
X120593600Y-112426944D01*
X120785867Y-112388700D01*
X120981901Y-112388700D01*
X121174168Y-112426944D01*
G37*
G36*
X159858569Y-112298284D02*
G01*
X160052164Y-112329120D01*
X160236022Y-112397132D01*
X160403078Y-112499706D01*
X160546914Y-112632899D01*
X160662002Y-112791594D01*
X160743918Y-112969693D01*
X160789515Y-113160351D01*
X160797040Y-113356241D01*
X160766204Y-113549835D01*
X160698193Y-113733694D01*
X160595619Y-113900750D01*
X160462425Y-114044586D01*
X160303730Y-114159674D01*
X160125631Y-114241590D01*
X159934973Y-114287187D01*
X159837213Y-114295761D01*
X159087765Y-114324551D01*
X158989635Y-114323502D01*
X158796041Y-114292666D01*
X158612182Y-114224654D01*
X158445126Y-114122080D01*
X158301290Y-113988887D01*
X158186202Y-113830192D01*
X158104286Y-113652093D01*
X158058689Y-113461435D01*
X158051164Y-113265545D01*
X158082000Y-113071951D01*
X158150012Y-112888092D01*
X158252586Y-112721036D01*
X158385779Y-112577200D01*
X158544474Y-112462112D01*
X158722573Y-112380196D01*
X158913231Y-112334599D01*
X159010991Y-112326025D01*
X159012228Y-112325977D01*
X159012234Y-112325977D01*
X159759204Y-112297282D01*
X159759213Y-112297282D01*
X159760440Y-112297235D01*
X159858569Y-112298284D01*
G37*
G36*
X163106175Y-112173524D02*
G01*
X163299770Y-112204360D01*
X163483628Y-112272372D01*
X163650684Y-112374946D01*
X163794520Y-112508139D01*
X163909608Y-112666834D01*
X163991524Y-112844933D01*
X164037121Y-113035591D01*
X164044646Y-113231481D01*
X164013810Y-113425075D01*
X163945799Y-113608934D01*
X163843225Y-113775990D01*
X163710031Y-113919826D01*
X163551336Y-114034914D01*
X163373237Y-114116830D01*
X163182579Y-114162427D01*
X163084819Y-114171001D01*
X162335371Y-114199791D01*
X162237241Y-114198742D01*
X162043647Y-114167906D01*
X161859788Y-114099894D01*
X161692732Y-113997320D01*
X161548896Y-113864127D01*
X161433808Y-113705432D01*
X161351892Y-113527333D01*
X161306295Y-113336675D01*
X161298770Y-113140785D01*
X161329606Y-112947191D01*
X161397618Y-112763332D01*
X161500192Y-112596276D01*
X161633385Y-112452440D01*
X161792080Y-112337352D01*
X161970179Y-112255436D01*
X162160837Y-112209839D01*
X162258597Y-112201265D01*
X162259834Y-112201217D01*
X162259840Y-112201217D01*
X163006810Y-112172522D01*
X163006819Y-112172522D01*
X163008046Y-112172475D01*
X163106175Y-112173524D01*
G37*
G36*
X103876070Y-110128846D02*
G01*
X104057182Y-110203865D01*
X104220180Y-110312775D01*
X104292893Y-110378679D01*
X104823223Y-110909009D01*
X104889127Y-110981723D01*
X104998037Y-111144720D01*
X105073056Y-111325832D01*
X105111300Y-111518099D01*
X105111300Y-111714133D01*
X105073056Y-111906400D01*
X104998037Y-112087512D01*
X104889127Y-112250510D01*
X104750510Y-112389127D01*
X104587512Y-112498037D01*
X104406400Y-112573056D01*
X104214133Y-112611300D01*
X104018099Y-112611300D01*
X103825832Y-112573056D01*
X103644720Y-112498037D01*
X103481723Y-112389127D01*
X103409009Y-112323223D01*
X102878679Y-111792893D01*
X102812775Y-111720180D01*
X102703865Y-111557182D01*
X102628846Y-111376070D01*
X102590602Y-111183803D01*
X102590602Y-110987769D01*
X102628846Y-110795502D01*
X102703865Y-110614390D01*
X102812775Y-110451392D01*
X102951392Y-110312775D01*
X103114390Y-110203865D01*
X103295502Y-110128846D01*
X103487769Y-110090602D01*
X103683803Y-110090602D01*
X103876070Y-110128846D01*
G37*
G36*
X108876070Y-110128846D02*
G01*
X109057182Y-110203865D01*
X109220180Y-110312775D01*
X109292893Y-110378679D01*
X109823223Y-110909009D01*
X109889127Y-110981723D01*
X109998037Y-111144720D01*
X110073056Y-111325832D01*
X110111300Y-111518099D01*
X110111300Y-111714133D01*
X110073056Y-111906400D01*
X109998037Y-112087512D01*
X109889127Y-112250510D01*
X109750510Y-112389127D01*
X109587512Y-112498037D01*
X109406400Y-112573056D01*
X109214133Y-112611300D01*
X109018099Y-112611300D01*
X108825832Y-112573056D01*
X108644720Y-112498037D01*
X108481723Y-112389127D01*
X108409009Y-112323223D01*
X107878679Y-111792893D01*
X107812775Y-111720180D01*
X107703865Y-111557182D01*
X107628846Y-111376070D01*
X107590602Y-111183803D01*
X107590602Y-110987769D01*
X107628846Y-110795502D01*
X107703865Y-110614390D01*
X107812775Y-110451392D01*
X107951392Y-110312775D01*
X108114390Y-110203865D01*
X108295502Y-110128846D01*
X108487769Y-110090602D01*
X108683803Y-110090602D01*
X108876070Y-110128846D01*
G37*
G36*
X113876070Y-110128846D02*
G01*
X114057182Y-110203865D01*
X114220180Y-110312775D01*
X114292893Y-110378679D01*
X114823223Y-110909009D01*
X114889127Y-110981723D01*
X114998037Y-111144720D01*
X115073056Y-111325832D01*
X115111300Y-111518099D01*
X115111300Y-111714133D01*
X115073056Y-111906400D01*
X114998037Y-112087512D01*
X114889127Y-112250510D01*
X114750510Y-112389127D01*
X114587512Y-112498037D01*
X114406400Y-112573056D01*
X114214133Y-112611300D01*
X114018099Y-112611300D01*
X113825832Y-112573056D01*
X113644720Y-112498037D01*
X113481723Y-112389127D01*
X113409009Y-112323223D01*
X112878679Y-111792893D01*
X112812775Y-111720180D01*
X112703865Y-111557182D01*
X112628846Y-111376070D01*
X112590602Y-111183803D01*
X112590602Y-110987769D01*
X112628846Y-110795502D01*
X112703865Y-110614390D01*
X112812775Y-110451392D01*
X112951392Y-110312775D01*
X113114390Y-110203865D01*
X113295502Y-110128846D01*
X113487769Y-110090602D01*
X113683803Y-110090602D01*
X113876070Y-110128846D01*
G37*
G36*
X118876070Y-110128846D02*
G01*
X119057182Y-110203865D01*
X119220180Y-110312775D01*
X119292893Y-110378679D01*
X119823223Y-110909009D01*
X119889127Y-110981723D01*
X119998037Y-111144720D01*
X120073056Y-111325832D01*
X120111300Y-111518099D01*
X120111300Y-111714133D01*
X120073056Y-111906400D01*
X119998037Y-112087512D01*
X119889127Y-112250510D01*
X119750510Y-112389127D01*
X119587512Y-112498037D01*
X119406400Y-112573056D01*
X119214133Y-112611300D01*
X119018099Y-112611300D01*
X118825832Y-112573056D01*
X118644720Y-112498037D01*
X118481723Y-112389127D01*
X118409009Y-112323223D01*
X117878679Y-111792893D01*
X117812775Y-111720180D01*
X117703865Y-111557182D01*
X117628846Y-111376070D01*
X117590602Y-111183803D01*
X117590602Y-110987769D01*
X117628846Y-110795502D01*
X117703865Y-110614390D01*
X117812775Y-110451392D01*
X117951392Y-110312775D01*
X118114390Y-110203865D01*
X118295502Y-110128846D01*
X118487769Y-110090602D01*
X118683803Y-110090602D01*
X118876070Y-110128846D01*
G37*
G36*
X81924168Y-107801944D02*
G01*
X82105280Y-107876963D01*
X82268278Y-107985873D01*
X82340991Y-108051777D01*
X82871321Y-108582107D01*
X82937225Y-108654821D01*
X83046135Y-108817818D01*
X83121154Y-108998930D01*
X83159398Y-109191197D01*
X83159398Y-109387231D01*
X83121154Y-109579498D01*
X83046135Y-109760610D01*
X82937225Y-109923608D01*
X82798608Y-110062225D01*
X82635610Y-110171135D01*
X82454498Y-110246154D01*
X82262231Y-110284398D01*
X82066197Y-110284398D01*
X81873930Y-110246154D01*
X81692818Y-110171135D01*
X81529821Y-110062225D01*
X81457107Y-109996321D01*
X80926777Y-109465991D01*
X80860873Y-109393278D01*
X80751963Y-109230280D01*
X80676944Y-109049168D01*
X80638700Y-108856901D01*
X80638700Y-108660867D01*
X80676944Y-108468600D01*
X80751963Y-108287488D01*
X80860873Y-108124490D01*
X80999490Y-107985873D01*
X81162488Y-107876963D01*
X81343600Y-107801944D01*
X81535867Y-107763700D01*
X81731901Y-107763700D01*
X81924168Y-107801944D01*
G37*
G36*
X86924168Y-107801944D02*
G01*
X87105280Y-107876963D01*
X87268278Y-107985873D01*
X87340991Y-108051777D01*
X87871321Y-108582107D01*
X87937225Y-108654821D01*
X88046135Y-108817818D01*
X88121154Y-108998930D01*
X88159398Y-109191197D01*
X88159398Y-109387231D01*
X88121154Y-109579498D01*
X88046135Y-109760610D01*
X87937225Y-109923608D01*
X87798608Y-110062225D01*
X87635610Y-110171135D01*
X87454498Y-110246154D01*
X87262231Y-110284398D01*
X87066197Y-110284398D01*
X86873930Y-110246154D01*
X86692818Y-110171135D01*
X86529821Y-110062225D01*
X86457107Y-109996321D01*
X85926777Y-109465991D01*
X85860873Y-109393278D01*
X85751963Y-109230280D01*
X85676944Y-109049168D01*
X85638700Y-108856901D01*
X85638700Y-108660867D01*
X85676944Y-108468600D01*
X85751963Y-108287488D01*
X85860873Y-108124490D01*
X85999490Y-107985873D01*
X86162488Y-107876963D01*
X86343600Y-107801944D01*
X86535867Y-107763700D01*
X86731901Y-107763700D01*
X86924168Y-107801944D01*
G37*
G36*
X91924168Y-107801944D02*
G01*
X92105280Y-107876963D01*
X92268278Y-107985873D01*
X92340991Y-108051777D01*
X92871321Y-108582107D01*
X92937225Y-108654821D01*
X93046135Y-108817818D01*
X93121154Y-108998930D01*
X93159398Y-109191197D01*
X93159398Y-109387231D01*
X93121154Y-109579498D01*
X93046135Y-109760610D01*
X92937225Y-109923608D01*
X92798608Y-110062225D01*
X92635610Y-110171135D01*
X92454498Y-110246154D01*
X92262231Y-110284398D01*
X92066197Y-110284398D01*
X91873930Y-110246154D01*
X91692818Y-110171135D01*
X91529821Y-110062225D01*
X91457107Y-109996321D01*
X90926777Y-109465991D01*
X90860873Y-109393278D01*
X90751963Y-109230280D01*
X90676944Y-109049168D01*
X90638700Y-108856901D01*
X90638700Y-108660867D01*
X90676944Y-108468600D01*
X90751963Y-108287488D01*
X90860873Y-108124490D01*
X90999490Y-107985873D01*
X91162488Y-107876963D01*
X91343600Y-107801944D01*
X91535867Y-107763700D01*
X91731901Y-107763700D01*
X91924168Y-107801944D01*
G37*
G36*
X96924168Y-107801944D02*
G01*
X97105280Y-107876963D01*
X97268278Y-107985873D01*
X97340991Y-108051777D01*
X97871321Y-108582107D01*
X97937225Y-108654821D01*
X98046135Y-108817818D01*
X98121154Y-108998930D01*
X98159398Y-109191197D01*
X98159398Y-109387231D01*
X98121154Y-109579498D01*
X98046135Y-109760610D01*
X97937225Y-109923608D01*
X97798608Y-110062225D01*
X97635610Y-110171135D01*
X97454498Y-110246154D01*
X97262231Y-110284398D01*
X97066197Y-110284398D01*
X96873930Y-110246154D01*
X96692818Y-110171135D01*
X96529821Y-110062225D01*
X96457107Y-109996321D01*
X95926777Y-109465991D01*
X95860873Y-109393278D01*
X95751963Y-109230280D01*
X95676944Y-109049168D01*
X95638700Y-108856901D01*
X95638700Y-108660867D01*
X95676944Y-108468600D01*
X95751963Y-108287488D01*
X95860873Y-108124490D01*
X95999490Y-107985873D01*
X96162488Y-107876963D01*
X96343600Y-107801944D01*
X96535867Y-107763700D01*
X96731901Y-107763700D01*
X96924168Y-107801944D01*
G37*
G36*
X79626070Y-105503846D02*
G01*
X79807182Y-105578865D01*
X79970180Y-105687775D01*
X80042893Y-105753679D01*
X80573223Y-106284009D01*
X80639127Y-106356723D01*
X80748037Y-106519720D01*
X80823056Y-106700832D01*
X80861300Y-106893099D01*
X80861300Y-107089133D01*
X80823056Y-107281400D01*
X80748037Y-107462512D01*
X80639127Y-107625510D01*
X80500510Y-107764127D01*
X80337512Y-107873037D01*
X80156400Y-107948056D01*
X79964133Y-107986300D01*
X79768099Y-107986300D01*
X79575832Y-107948056D01*
X79394720Y-107873037D01*
X79231723Y-107764127D01*
X79159009Y-107698223D01*
X78628679Y-107167893D01*
X78562775Y-107095180D01*
X78453865Y-106932182D01*
X78378846Y-106751070D01*
X78340602Y-106558803D01*
X78340602Y-106362769D01*
X78378846Y-106170502D01*
X78453865Y-105989390D01*
X78562775Y-105826392D01*
X78701392Y-105687775D01*
X78864390Y-105578865D01*
X79045502Y-105503846D01*
X79237769Y-105465602D01*
X79433803Y-105465602D01*
X79626070Y-105503846D01*
G37*
G36*
X84626070Y-105503846D02*
G01*
X84807182Y-105578865D01*
X84970180Y-105687775D01*
X85042893Y-105753679D01*
X85573223Y-106284009D01*
X85639127Y-106356723D01*
X85748037Y-106519720D01*
X85823056Y-106700832D01*
X85861300Y-106893099D01*
X85861300Y-107089133D01*
X85823056Y-107281400D01*
X85748037Y-107462512D01*
X85639127Y-107625510D01*
X85500510Y-107764127D01*
X85337512Y-107873037D01*
X85156400Y-107948056D01*
X84964133Y-107986300D01*
X84768099Y-107986300D01*
X84575832Y-107948056D01*
X84394720Y-107873037D01*
X84231723Y-107764127D01*
X84159009Y-107698223D01*
X83628679Y-107167893D01*
X83562775Y-107095180D01*
X83453865Y-106932182D01*
X83378846Y-106751070D01*
X83340602Y-106558803D01*
X83340602Y-106362769D01*
X83378846Y-106170502D01*
X83453865Y-105989390D01*
X83562775Y-105826392D01*
X83701392Y-105687775D01*
X83864390Y-105578865D01*
X84045502Y-105503846D01*
X84237769Y-105465602D01*
X84433803Y-105465602D01*
X84626070Y-105503846D01*
G37*
G36*
X89626070Y-105503846D02*
G01*
X89807182Y-105578865D01*
X89970180Y-105687775D01*
X90042893Y-105753679D01*
X90573223Y-106284009D01*
X90639127Y-106356723D01*
X90748037Y-106519720D01*
X90823056Y-106700832D01*
X90861300Y-106893099D01*
X90861300Y-107089133D01*
X90823056Y-107281400D01*
X90748037Y-107462512D01*
X90639127Y-107625510D01*
X90500510Y-107764127D01*
X90337512Y-107873037D01*
X90156400Y-107948056D01*
X89964133Y-107986300D01*
X89768099Y-107986300D01*
X89575832Y-107948056D01*
X89394720Y-107873037D01*
X89231723Y-107764127D01*
X89159009Y-107698223D01*
X88628679Y-107167893D01*
X88562775Y-107095180D01*
X88453865Y-106932182D01*
X88378846Y-106751070D01*
X88340602Y-106558803D01*
X88340602Y-106362769D01*
X88378846Y-106170502D01*
X88453865Y-105989390D01*
X88562775Y-105826392D01*
X88701392Y-105687775D01*
X88864390Y-105578865D01*
X89045502Y-105503846D01*
X89237769Y-105465602D01*
X89433803Y-105465602D01*
X89626070Y-105503846D01*
G37*
G36*
X94626070Y-105503846D02*
G01*
X94807182Y-105578865D01*
X94970180Y-105687775D01*
X95042893Y-105753679D01*
X95573223Y-106284009D01*
X95639127Y-106356723D01*
X95748037Y-106519720D01*
X95823056Y-106700832D01*
X95861300Y-106893099D01*
X95861300Y-107089133D01*
X95823056Y-107281400D01*
X95748037Y-107462512D01*
X95639127Y-107625510D01*
X95500510Y-107764127D01*
X95337512Y-107873037D01*
X95156400Y-107948056D01*
X94964133Y-107986300D01*
X94768099Y-107986300D01*
X94575832Y-107948056D01*
X94394720Y-107873037D01*
X94231723Y-107764127D01*
X94159009Y-107698223D01*
X93628679Y-107167893D01*
X93562775Y-107095180D01*
X93453865Y-106932182D01*
X93378846Y-106751070D01*
X93340602Y-106558803D01*
X93340602Y-106362769D01*
X93378846Y-106170502D01*
X93453865Y-105989390D01*
X93562775Y-105826392D01*
X93701392Y-105687775D01*
X93864390Y-105578865D01*
X94045502Y-105503846D01*
X94237769Y-105465602D01*
X94433803Y-105465602D01*
X94626070Y-105503846D01*
G37*
G36*
X138547680Y-101954696D02*
G01*
X138596862Y-101954696D01*
X138651632Y-101964934D01*
X138704845Y-101970175D01*
X138745268Y-101982437D01*
X138787283Y-101990291D01*
X138845474Y-102012834D01*
X138901818Y-102029926D01*
X138934009Y-102047132D01*
X138967931Y-102060274D01*
X139026876Y-102096771D01*
X139083349Y-102126957D01*
X139107075Y-102146428D01*
X139132634Y-102162254D01*
X139189263Y-102213879D01*
X139242462Y-102257538D01*
X139258228Y-102276748D01*
X139275800Y-102292768D01*
X139326810Y-102360317D01*
X139373043Y-102416651D01*
X139381983Y-102433377D01*
X139392542Y-102447359D01*
X139434541Y-102531706D01*
X139470074Y-102598182D01*
X139473864Y-102610676D01*
X139478891Y-102620772D01*
X139508590Y-102725154D01*
X139529825Y-102795155D01*
X139530522Y-102802236D01*
X139531908Y-102807106D01*
X139546315Y-102962586D01*
X139550000Y-103000000D01*
X139546314Y-103037416D01*
X139531908Y-103192893D01*
X139530522Y-103197762D01*
X139529825Y-103204845D01*
X139508585Y-103274861D01*
X139478891Y-103379227D01*
X139473865Y-103389320D01*
X139470074Y-103401818D01*
X139434534Y-103468307D01*
X139392542Y-103552640D01*
X139381985Y-103566619D01*
X139373043Y-103583349D01*
X139326801Y-103639694D01*
X139275800Y-103707231D01*
X139258231Y-103723247D01*
X139242462Y-103742462D01*
X139189252Y-103786129D01*
X139132634Y-103837745D01*
X139107080Y-103853567D01*
X139083349Y-103873043D01*
X139026865Y-103903234D01*
X138967931Y-103939725D01*
X138934016Y-103952863D01*
X138901818Y-103970074D01*
X138845463Y-103987169D01*
X138787283Y-104009708D01*
X138745275Y-104017560D01*
X138704845Y-104029825D01*
X138651629Y-104035066D01*
X138596862Y-104045304D01*
X138547680Y-104045304D01*
X138500000Y-104050000D01*
X138452320Y-104045304D01*
X138403138Y-104045304D01*
X138348369Y-104035066D01*
X138295155Y-104029825D01*
X138254726Y-104017561D01*
X138212716Y-104009708D01*
X138154532Y-103987167D01*
X138098182Y-103970074D01*
X138065986Y-103952864D01*
X138032068Y-103939725D01*
X137973127Y-103903230D01*
X137916651Y-103873043D01*
X137892922Y-103853569D01*
X137867365Y-103837745D01*
X137810737Y-103786121D01*
X137757538Y-103742462D01*
X137741771Y-103723250D01*
X137724199Y-103707231D01*
X137673186Y-103639679D01*
X137626957Y-103583349D01*
X137618017Y-103566623D01*
X137607457Y-103552640D01*
X137565450Y-103468279D01*
X137529926Y-103401818D01*
X137526136Y-103389325D01*
X137521108Y-103379227D01*
X137491397Y-103274807D01*
X137470175Y-103204845D01*
X137469477Y-103197767D01*
X137468091Y-103192893D01*
X137453668Y-103037244D01*
X137450000Y-103000000D01*
X137453667Y-102962758D01*
X137468091Y-102807106D01*
X137469478Y-102802230D01*
X137470175Y-102795155D01*
X137491393Y-102725207D01*
X137521108Y-102620772D01*
X137526137Y-102610671D01*
X137529926Y-102598182D01*
X137565443Y-102531733D01*
X137607457Y-102447359D01*
X137618019Y-102433372D01*
X137626957Y-102416651D01*
X137673176Y-102360332D01*
X137724199Y-102292768D01*
X137741774Y-102276745D01*
X137757538Y-102257538D01*
X137810726Y-102213887D01*
X137867365Y-102162254D01*
X137892927Y-102146426D01*
X137916651Y-102126957D01*
X137973115Y-102096775D01*
X138032068Y-102060274D01*
X138065993Y-102047131D01*
X138098182Y-102029926D01*
X138154520Y-102012835D01*
X138212716Y-101990291D01*
X138254732Y-101982436D01*
X138295155Y-101970175D01*
X138348366Y-101964934D01*
X138403138Y-101954696D01*
X138452320Y-101954696D01*
X138500000Y-101950000D01*
X138547680Y-101954696D01*
G37*
G36*
X58724561Y-93712105D02*
G01*
X58885619Y-93768462D01*
X59030099Y-93859244D01*
X59150756Y-93979901D01*
X59241538Y-94124381D01*
X59297895Y-94285439D01*
X59317000Y-94455000D01*
X59297895Y-94624561D01*
X59241538Y-94785619D01*
X59150756Y-94930099D01*
X59030099Y-95050756D01*
X58885619Y-95141538D01*
X58724561Y-95197895D01*
X58555000Y-95217000D01*
X58385439Y-95197895D01*
X58224381Y-95141538D01*
X58079901Y-95050756D01*
X57959244Y-94930099D01*
X57868462Y-94785619D01*
X57812105Y-94624561D01*
X57793000Y-94455000D01*
X57812105Y-94285439D01*
X57868462Y-94124381D01*
X57959244Y-93979901D01*
X58079901Y-93859244D01*
X58224381Y-93768462D01*
X58385439Y-93712105D01*
X58555000Y-93693000D01*
X58724561Y-93712105D01*
G37*
G36*
X61264561Y-93712105D02*
G01*
X61425619Y-93768462D01*
X61570099Y-93859244D01*
X61690756Y-93979901D01*
X61781538Y-94124381D01*
X61837895Y-94285439D01*
X61857000Y-94455000D01*
X61837895Y-94624561D01*
X61781538Y-94785619D01*
X61690756Y-94930099D01*
X61570099Y-95050756D01*
X61425619Y-95141538D01*
X61264561Y-95197895D01*
X61095000Y-95217000D01*
X60925439Y-95197895D01*
X60764381Y-95141538D01*
X60619901Y-95050756D01*
X60499244Y-94930099D01*
X60408462Y-94785619D01*
X60352105Y-94624561D01*
X60333000Y-94455000D01*
X60352105Y-94285439D01*
X60408462Y-94124381D01*
X60499244Y-93979901D01*
X60619901Y-93859244D01*
X60764381Y-93768462D01*
X60925439Y-93712105D01*
X61095000Y-93693000D01*
X61264561Y-93712105D01*
G37*
G36*
X63804561Y-93712105D02*
G01*
X63965619Y-93768462D01*
X64110099Y-93859244D01*
X64230756Y-93979901D01*
X64321538Y-94124381D01*
X64377895Y-94285439D01*
X64397000Y-94455000D01*
X64377895Y-94624561D01*
X64321538Y-94785619D01*
X64230756Y-94930099D01*
X64110099Y-95050756D01*
X63965619Y-95141538D01*
X63804561Y-95197895D01*
X63635000Y-95217000D01*
X63465439Y-95197895D01*
X63304381Y-95141538D01*
X63159901Y-95050756D01*
X63039244Y-94930099D01*
X62948462Y-94785619D01*
X62892105Y-94624561D01*
X62873000Y-94455000D01*
X62892105Y-94285439D01*
X62948462Y-94124381D01*
X63039244Y-93979901D01*
X63159901Y-93859244D01*
X63304381Y-93768462D01*
X63465439Y-93712105D01*
X63635000Y-93693000D01*
X63804561Y-93712105D01*
G37*
G36*
X66344561Y-93712105D02*
G01*
X66505619Y-93768462D01*
X66650099Y-93859244D01*
X66770756Y-93979901D01*
X66861538Y-94124381D01*
X66917895Y-94285439D01*
X66937000Y-94455000D01*
X66917895Y-94624561D01*
X66861538Y-94785619D01*
X66770756Y-94930099D01*
X66650099Y-95050756D01*
X66505619Y-95141538D01*
X66344561Y-95197895D01*
X66175000Y-95217000D01*
X66005439Y-95197895D01*
X65844381Y-95141538D01*
X65699901Y-95050756D01*
X65579244Y-94930099D01*
X65488462Y-94785619D01*
X65432105Y-94624561D01*
X65413000Y-94455000D01*
X65432105Y-94285439D01*
X65488462Y-94124381D01*
X65579244Y-93979901D01*
X65699901Y-93859244D01*
X65844381Y-93768462D01*
X66005439Y-93712105D01*
X66175000Y-93693000D01*
X66344561Y-93712105D01*
G37*
G36*
X68884561Y-93712105D02*
G01*
X69045619Y-93768462D01*
X69190099Y-93859244D01*
X69310756Y-93979901D01*
X69401538Y-94124381D01*
X69457895Y-94285439D01*
X69477000Y-94455000D01*
X69457895Y-94624561D01*
X69401538Y-94785619D01*
X69310756Y-94930099D01*
X69190099Y-95050756D01*
X69045619Y-95141538D01*
X68884561Y-95197895D01*
X68715000Y-95217000D01*
X68545439Y-95197895D01*
X68384381Y-95141538D01*
X68239901Y-95050756D01*
X68119244Y-94930099D01*
X68028462Y-94785619D01*
X67972105Y-94624561D01*
X67953000Y-94455000D01*
X67972105Y-94285439D01*
X68028462Y-94124381D01*
X68119244Y-93979901D01*
X68239901Y-93859244D01*
X68384381Y-93768462D01*
X68545439Y-93712105D01*
X68715000Y-93693000D01*
X68884561Y-93712105D01*
G37*
G36*
X71424561Y-93712105D02*
G01*
X71585619Y-93768462D01*
X71730099Y-93859244D01*
X71850756Y-93979901D01*
X71941538Y-94124381D01*
X71997895Y-94285439D01*
X72017000Y-94455000D01*
X71997895Y-94624561D01*
X71941538Y-94785619D01*
X71850756Y-94930099D01*
X71730099Y-95050756D01*
X71585619Y-95141538D01*
X71424561Y-95197895D01*
X71255000Y-95217000D01*
X71085439Y-95197895D01*
X70924381Y-95141538D01*
X70779901Y-95050756D01*
X70659244Y-94930099D01*
X70568462Y-94785619D01*
X70512105Y-94624561D01*
X70493000Y-94455000D01*
X70512105Y-94285439D01*
X70568462Y-94124381D01*
X70659244Y-93979901D01*
X70779901Y-93859244D01*
X70924381Y-93768462D01*
X71085439Y-93712105D01*
X71255000Y-93693000D01*
X71424561Y-93712105D01*
G37*
G36*
X117667085Y-86992878D02*
G01*
X117936503Y-87068365D01*
X118193133Y-87179835D01*
X118432195Y-87325212D01*
X118649234Y-87501786D01*
X118840208Y-87706270D01*
X119001560Y-87934853D01*
X119130283Y-88183278D01*
X119223980Y-88446917D01*
X119280906Y-88720858D01*
X119300000Y-89000000D01*
X119280906Y-89279142D01*
X119223980Y-89553083D01*
X119130283Y-89816722D01*
X119001560Y-90065147D01*
X118840208Y-90293730D01*
X118649234Y-90498214D01*
X118432195Y-90674788D01*
X118193133Y-90820165D01*
X117936503Y-90931635D01*
X117667085Y-91007122D01*
X117389897Y-91045221D01*
X117110103Y-91045221D01*
X116832915Y-91007122D01*
X116563497Y-90931635D01*
X116306867Y-90820165D01*
X116067805Y-90674788D01*
X115850766Y-90498214D01*
X115659792Y-90293730D01*
X115498440Y-90065147D01*
X115369717Y-89816722D01*
X115276020Y-89553083D01*
X115219094Y-89279142D01*
X115200000Y-89000000D01*
X115219094Y-88720858D01*
X115276020Y-88446917D01*
X115369717Y-88183278D01*
X115498440Y-87934853D01*
X115659792Y-87706270D01*
X115850766Y-87501786D01*
X116067805Y-87325212D01*
X116306867Y-87179835D01*
X116563497Y-87068365D01*
X116832915Y-86992878D01*
X117110103Y-86954779D01*
X117389897Y-86954779D01*
X117667085Y-86992878D01*
G37*
G36*
X160167085Y-86992878D02*
G01*
X160436503Y-87068365D01*
X160693133Y-87179835D01*
X160932195Y-87325212D01*
X161149234Y-87501786D01*
X161340208Y-87706270D01*
X161501560Y-87934853D01*
X161630283Y-88183278D01*
X161723980Y-88446917D01*
X161780906Y-88720858D01*
X161800000Y-89000000D01*
X161780906Y-89279142D01*
X161723980Y-89553083D01*
X161630283Y-89816722D01*
X161501560Y-90065147D01*
X161340208Y-90293730D01*
X161149234Y-90498214D01*
X160932195Y-90674788D01*
X160693133Y-90820165D01*
X160436503Y-90931635D01*
X160167085Y-91007122D01*
X159889897Y-91045221D01*
X159610103Y-91045221D01*
X159332915Y-91007122D01*
X159063497Y-90931635D01*
X158806867Y-90820165D01*
X158567805Y-90674788D01*
X158350766Y-90498214D01*
X158159792Y-90293730D01*
X157998440Y-90065147D01*
X157869717Y-89816722D01*
X157776020Y-89553083D01*
X157719094Y-89279142D01*
X157700000Y-89000000D01*
X157719094Y-88720858D01*
X157776020Y-88446917D01*
X157869717Y-88183278D01*
X157998440Y-87934853D01*
X158159792Y-87706270D01*
X158350766Y-87501786D01*
X158567805Y-87325212D01*
X158806867Y-87179835D01*
X159063497Y-87068365D01*
X159332915Y-86992878D01*
X159610103Y-86954779D01*
X159889897Y-86954779D01*
X160167085Y-86992878D01*
G37*
G36*
X58424168Y-85301944D02*
G01*
X58605280Y-85376963D01*
X58768278Y-85485873D01*
X58840991Y-85551777D01*
X59371321Y-86082107D01*
X59437225Y-86154821D01*
X59546135Y-86317818D01*
X59621154Y-86498930D01*
X59659398Y-86691197D01*
X59659398Y-86887231D01*
X59621154Y-87079498D01*
X59546135Y-87260610D01*
X59437225Y-87423608D01*
X59298608Y-87562225D01*
X59135610Y-87671135D01*
X58954498Y-87746154D01*
X58762231Y-87784398D01*
X58566197Y-87784398D01*
X58373930Y-87746154D01*
X58192818Y-87671135D01*
X58029821Y-87562225D01*
X57957107Y-87496321D01*
X57426777Y-86965991D01*
X57360873Y-86893278D01*
X57251963Y-86730280D01*
X57176944Y-86549168D01*
X57138700Y-86356901D01*
X57138700Y-86160867D01*
X57176944Y-85968600D01*
X57251963Y-85787488D01*
X57360873Y-85624490D01*
X57499490Y-85485873D01*
X57662488Y-85376963D01*
X57843600Y-85301944D01*
X58035867Y-85263700D01*
X58231901Y-85263700D01*
X58424168Y-85301944D01*
G37*
G36*
X63424168Y-85301944D02*
G01*
X63605280Y-85376963D01*
X63768278Y-85485873D01*
X63840991Y-85551777D01*
X64371321Y-86082107D01*
X64437225Y-86154821D01*
X64546135Y-86317818D01*
X64621154Y-86498930D01*
X64659398Y-86691197D01*
X64659398Y-86887231D01*
X64621154Y-87079498D01*
X64546135Y-87260610D01*
X64437225Y-87423608D01*
X64298608Y-87562225D01*
X64135610Y-87671135D01*
X63954498Y-87746154D01*
X63762231Y-87784398D01*
X63566197Y-87784398D01*
X63373930Y-87746154D01*
X63192818Y-87671135D01*
X63029821Y-87562225D01*
X62957107Y-87496321D01*
X62426777Y-86965991D01*
X62360873Y-86893278D01*
X62251963Y-86730280D01*
X62176944Y-86549168D01*
X62138700Y-86356901D01*
X62138700Y-86160867D01*
X62176944Y-85968600D01*
X62251963Y-85787488D01*
X62360873Y-85624490D01*
X62499490Y-85485873D01*
X62662488Y-85376963D01*
X62843600Y-85301944D01*
X63035867Y-85263700D01*
X63231901Y-85263700D01*
X63424168Y-85301944D01*
G37*
G36*
X68424168Y-85301944D02*
G01*
X68605280Y-85376963D01*
X68768278Y-85485873D01*
X68840991Y-85551777D01*
X69371321Y-86082107D01*
X69437225Y-86154821D01*
X69546135Y-86317818D01*
X69621154Y-86498930D01*
X69659398Y-86691197D01*
X69659398Y-86887231D01*
X69621154Y-87079498D01*
X69546135Y-87260610D01*
X69437225Y-87423608D01*
X69298608Y-87562225D01*
X69135610Y-87671135D01*
X68954498Y-87746154D01*
X68762231Y-87784398D01*
X68566197Y-87784398D01*
X68373930Y-87746154D01*
X68192818Y-87671135D01*
X68029821Y-87562225D01*
X67957107Y-87496321D01*
X67426777Y-86965991D01*
X67360873Y-86893278D01*
X67251963Y-86730280D01*
X67176944Y-86549168D01*
X67138700Y-86356901D01*
X67138700Y-86160867D01*
X67176944Y-85968600D01*
X67251963Y-85787488D01*
X67360873Y-85624490D01*
X67499490Y-85485873D01*
X67662488Y-85376963D01*
X67843600Y-85301944D01*
X68035867Y-85263700D01*
X68231901Y-85263700D01*
X68424168Y-85301944D01*
G37*
G36*
X73424168Y-85301944D02*
G01*
X73605280Y-85376963D01*
X73768278Y-85485873D01*
X73840991Y-85551777D01*
X74371321Y-86082107D01*
X74437225Y-86154821D01*
X74546135Y-86317818D01*
X74621154Y-86498930D01*
X74659398Y-86691197D01*
X74659398Y-86887231D01*
X74621154Y-87079498D01*
X74546135Y-87260610D01*
X74437225Y-87423608D01*
X74298608Y-87562225D01*
X74135610Y-87671135D01*
X73954498Y-87746154D01*
X73762231Y-87784398D01*
X73566197Y-87784398D01*
X73373930Y-87746154D01*
X73192818Y-87671135D01*
X73029821Y-87562225D01*
X72957107Y-87496321D01*
X72426777Y-86965991D01*
X72360873Y-86893278D01*
X72251963Y-86730280D01*
X72176944Y-86549168D01*
X72138700Y-86356901D01*
X72138700Y-86160867D01*
X72176944Y-85968600D01*
X72251963Y-85787488D01*
X72360873Y-85624490D01*
X72499490Y-85485873D01*
X72662488Y-85376963D01*
X72843600Y-85301944D01*
X73035867Y-85263700D01*
X73231901Y-85263700D01*
X73424168Y-85301944D01*
G37*
G36*
X56126070Y-83003846D02*
G01*
X56307182Y-83078865D01*
X56470180Y-83187775D01*
X56542893Y-83253679D01*
X57073223Y-83784009D01*
X57139127Y-83856723D01*
X57248037Y-84019720D01*
X57323056Y-84200832D01*
X57361300Y-84393099D01*
X57361300Y-84589133D01*
X57323056Y-84781400D01*
X57248037Y-84962512D01*
X57139127Y-85125510D01*
X57000510Y-85264127D01*
X56837512Y-85373037D01*
X56656400Y-85448056D01*
X56464133Y-85486300D01*
X56268099Y-85486300D01*
X56075832Y-85448056D01*
X55894720Y-85373037D01*
X55731723Y-85264127D01*
X55659009Y-85198223D01*
X55128679Y-84667893D01*
X55062775Y-84595180D01*
X54953865Y-84432182D01*
X54878846Y-84251070D01*
X54840602Y-84058803D01*
X54840602Y-83862769D01*
X54878846Y-83670502D01*
X54953865Y-83489390D01*
X55062775Y-83326392D01*
X55201392Y-83187775D01*
X55364390Y-83078865D01*
X55545502Y-83003846D01*
X55737769Y-82965602D01*
X55933803Y-82965602D01*
X56126070Y-83003846D01*
G37*
G36*
X61126070Y-83003846D02*
G01*
X61307182Y-83078865D01*
X61470180Y-83187775D01*
X61542893Y-83253679D01*
X62073223Y-83784009D01*
X62139127Y-83856723D01*
X62248037Y-84019720D01*
X62323056Y-84200832D01*
X62361300Y-84393099D01*
X62361300Y-84589133D01*
X62323056Y-84781400D01*
X62248037Y-84962512D01*
X62139127Y-85125510D01*
X62000510Y-85264127D01*
X61837512Y-85373037D01*
X61656400Y-85448056D01*
X61464133Y-85486300D01*
X61268099Y-85486300D01*
X61075832Y-85448056D01*
X60894720Y-85373037D01*
X60731723Y-85264127D01*
X60659009Y-85198223D01*
X60128679Y-84667893D01*
X60062775Y-84595180D01*
X59953865Y-84432182D01*
X59878846Y-84251070D01*
X59840602Y-84058803D01*
X59840602Y-83862769D01*
X59878846Y-83670502D01*
X59953865Y-83489390D01*
X60062775Y-83326392D01*
X60201392Y-83187775D01*
X60364390Y-83078865D01*
X60545502Y-83003846D01*
X60737769Y-82965602D01*
X60933803Y-82965602D01*
X61126070Y-83003846D01*
G37*
G36*
X66126070Y-83003846D02*
G01*
X66307182Y-83078865D01*
X66470180Y-83187775D01*
X66542893Y-83253679D01*
X67073223Y-83784009D01*
X67139127Y-83856723D01*
X67248037Y-84019720D01*
X67323056Y-84200832D01*
X67361300Y-84393099D01*
X67361300Y-84589133D01*
X67323056Y-84781400D01*
X67248037Y-84962512D01*
X67139127Y-85125510D01*
X67000510Y-85264127D01*
X66837512Y-85373037D01*
X66656400Y-85448056D01*
X66464133Y-85486300D01*
X66268099Y-85486300D01*
X66075832Y-85448056D01*
X65894720Y-85373037D01*
X65731723Y-85264127D01*
X65659009Y-85198223D01*
X65128679Y-84667893D01*
X65062775Y-84595180D01*
X64953865Y-84432182D01*
X64878846Y-84251070D01*
X64840602Y-84058803D01*
X64840602Y-83862769D01*
X64878846Y-83670502D01*
X64953865Y-83489390D01*
X65062775Y-83326392D01*
X65201392Y-83187775D01*
X65364390Y-83078865D01*
X65545502Y-83003846D01*
X65737769Y-82965602D01*
X65933803Y-82965602D01*
X66126070Y-83003846D01*
G37*
G36*
X71126070Y-83003846D02*
G01*
X71307182Y-83078865D01*
X71470180Y-83187775D01*
X71542893Y-83253679D01*
X72073223Y-83784009D01*
X72139127Y-83856723D01*
X72248037Y-84019720D01*
X72323056Y-84200832D01*
X72361300Y-84393099D01*
X72361300Y-84589133D01*
X72323056Y-84781400D01*
X72248037Y-84962512D01*
X72139127Y-85125510D01*
X72000510Y-85264127D01*
X71837512Y-85373037D01*
X71656400Y-85448056D01*
X71464133Y-85486300D01*
X71268099Y-85486300D01*
X71075832Y-85448056D01*
X70894720Y-85373037D01*
X70731723Y-85264127D01*
X70659009Y-85198223D01*
X70128679Y-84667893D01*
X70062775Y-84595180D01*
X69953865Y-84432182D01*
X69878846Y-84251070D01*
X69840602Y-84058803D01*
X69840602Y-83862769D01*
X69878846Y-83670502D01*
X69953865Y-83489390D01*
X70062775Y-83326392D01*
X70201392Y-83187775D01*
X70364390Y-83078865D01*
X70545502Y-83003846D01*
X70737769Y-82965602D01*
X70933803Y-82965602D01*
X71126070Y-83003846D01*
G37*
G36*
X91104116Y-83675818D02*
G01*
X91155379Y-83681766D01*
X91172892Y-83689499D01*
X91195671Y-83694030D01*
X91220057Y-83710324D01*
X91240788Y-83719478D01*
X91254946Y-83733636D01*
X91276777Y-83748223D01*
X91291363Y-83770053D01*
X91305521Y-83784211D01*
X91314673Y-83804939D01*
X91330970Y-83829329D01*
X91335501Y-83852109D01*
X91343233Y-83869620D01*
X91349178Y-83920872D01*
X91350000Y-83925000D01*
X91350000Y-85175000D01*
X91349178Y-85179128D01*
X91343233Y-85230379D01*
X91335501Y-85247888D01*
X91330970Y-85270671D01*
X91314672Y-85295062D01*
X91305521Y-85315788D01*
X91291365Y-85329943D01*
X91276777Y-85351777D01*
X91254943Y-85366365D01*
X91240788Y-85380521D01*
X91220062Y-85389672D01*
X91195671Y-85405970D01*
X91172888Y-85410501D01*
X91155379Y-85418233D01*
X91104129Y-85424178D01*
X91100000Y-85425000D01*
X90400000Y-85425000D01*
X90395873Y-85424179D01*
X90344620Y-85418233D01*
X90327109Y-85410501D01*
X90304329Y-85405970D01*
X90279939Y-85389673D01*
X90259211Y-85380521D01*
X90245053Y-85366363D01*
X90223223Y-85351777D01*
X90208636Y-85329946D01*
X90194478Y-85315788D01*
X90185324Y-85295057D01*
X90169030Y-85270671D01*
X90164499Y-85247892D01*
X90156766Y-85230379D01*
X90150818Y-85179117D01*
X90150000Y-85175000D01*
X90150000Y-83925000D01*
X90150818Y-83920885D01*
X90156766Y-83869620D01*
X90164499Y-83852105D01*
X90169030Y-83829329D01*
X90185323Y-83804944D01*
X90194478Y-83784211D01*
X90208638Y-83770050D01*
X90223223Y-83748223D01*
X90245050Y-83733638D01*
X90259211Y-83719478D01*
X90279944Y-83710323D01*
X90304329Y-83694030D01*
X90327105Y-83689499D01*
X90344620Y-83681766D01*
X90395884Y-83675818D01*
X90400000Y-83675000D01*
X91100000Y-83675000D01*
X91104116Y-83675818D01*
G37*
G36*
X88818836Y-83680133D02*
G01*
X88828316Y-83680133D01*
X88855623Y-83687449D01*
X88924100Y-83701070D01*
X88956423Y-83714459D01*
X88979610Y-83720672D01*
X89000401Y-83732676D01*
X89032722Y-83746064D01*
X89090770Y-83784850D01*
X89115257Y-83798988D01*
X89121959Y-83805690D01*
X89130482Y-83811385D01*
X89213614Y-83894517D01*
X89219308Y-83903039D01*
X89226012Y-83909743D01*
X89240151Y-83934233D01*
X89278935Y-83992277D01*
X89292321Y-84024594D01*
X89304328Y-84045390D01*
X89310541Y-84068580D01*
X89323929Y-84100899D01*
X89337547Y-84169366D01*
X89344867Y-84196684D01*
X89345794Y-84210827D01*
X89347110Y-84217444D01*
X89349754Y-84271250D01*
X89350000Y-84275000D01*
X89350000Y-84825000D01*
X89349754Y-84828752D01*
X89347110Y-84882555D01*
X89345794Y-84889170D01*
X89344867Y-84903316D01*
X89337546Y-84930636D01*
X89323929Y-84999100D01*
X89310542Y-85031416D01*
X89304328Y-85054610D01*
X89292320Y-85075407D01*
X89278935Y-85107722D01*
X89240155Y-85165759D01*
X89226012Y-85190257D01*
X89219306Y-85196962D01*
X89213614Y-85205482D01*
X89130482Y-85288614D01*
X89121962Y-85294306D01*
X89115257Y-85301012D01*
X89090759Y-85315155D01*
X89032722Y-85353935D01*
X89000407Y-85367320D01*
X88979610Y-85379328D01*
X88956416Y-85385542D01*
X88924100Y-85398929D01*
X88855629Y-85412548D01*
X88828316Y-85419867D01*
X88818836Y-85419867D01*
X88808786Y-85421866D01*
X88691214Y-85421866D01*
X88681164Y-85419867D01*
X88671684Y-85419867D01*
X88644371Y-85412548D01*
X88575899Y-85398929D01*
X88543580Y-85385541D01*
X88520390Y-85379328D01*
X88499594Y-85367321D01*
X88467277Y-85353935D01*
X88409233Y-85315151D01*
X88384743Y-85301012D01*
X88378039Y-85294308D01*
X88369517Y-85288614D01*
X88286385Y-85205482D01*
X88280690Y-85196959D01*
X88273988Y-85190257D01*
X88259850Y-85165770D01*
X88221064Y-85107722D01*
X88207676Y-85075401D01*
X88195672Y-85054610D01*
X88189459Y-85031423D01*
X88176070Y-84999100D01*
X88162449Y-84930622D01*
X88155133Y-84903316D01*
X88154206Y-84889178D01*
X88152889Y-84882555D01*
X88150245Y-84828746D01*
X88150000Y-84825000D01*
X88150000Y-84275000D01*
X88150245Y-84271256D01*
X88152889Y-84217444D01*
X88154206Y-84210820D01*
X88155133Y-84196684D01*
X88162448Y-84169380D01*
X88176070Y-84100899D01*
X88189459Y-84068573D01*
X88195672Y-84045390D01*
X88207674Y-84024600D01*
X88221064Y-83992277D01*
X88259854Y-83934222D01*
X88273988Y-83909743D01*
X88280688Y-83903042D01*
X88286385Y-83894517D01*
X88369517Y-83811385D01*
X88378042Y-83805688D01*
X88384743Y-83798988D01*
X88409222Y-83784854D01*
X88467277Y-83746064D01*
X88499600Y-83732674D01*
X88520390Y-83720672D01*
X88543573Y-83714459D01*
X88575899Y-83701070D01*
X88644377Y-83687449D01*
X88671684Y-83680133D01*
X88681164Y-83680133D01*
X88691214Y-83678134D01*
X88808786Y-83678134D01*
X88818836Y-83680133D01*
G37*
G36*
X101078743Y-76400245D02*
G01*
X101132554Y-76402889D01*
X101139177Y-76404206D01*
X101153315Y-76405133D01*
X101180621Y-76412449D01*
X101249099Y-76426070D01*
X101281422Y-76439459D01*
X101304609Y-76445672D01*
X101325400Y-76457676D01*
X101357721Y-76471064D01*
X101415769Y-76509850D01*
X101440256Y-76523988D01*
X101446958Y-76530690D01*
X101455481Y-76536385D01*
X101538613Y-76619517D01*
X101544307Y-76628039D01*
X101551011Y-76634743D01*
X101565150Y-76659233D01*
X101603934Y-76717277D01*
X101617320Y-76749594D01*
X101629327Y-76770390D01*
X101635540Y-76793580D01*
X101648928Y-76825899D01*
X101662547Y-76894371D01*
X101669866Y-76921684D01*
X101669866Y-76931164D01*
X101671865Y-76941214D01*
X101671865Y-77058785D01*
X101669866Y-77068834D01*
X101669866Y-77078316D01*
X101662546Y-77105631D01*
X101648928Y-77174100D01*
X101635541Y-77206416D01*
X101629327Y-77229610D01*
X101617319Y-77250407D01*
X101603934Y-77282722D01*
X101565154Y-77340759D01*
X101551011Y-77365257D01*
X101544305Y-77371962D01*
X101538613Y-77380482D01*
X101455481Y-77463614D01*
X101446961Y-77469306D01*
X101440256Y-77476012D01*
X101415758Y-77490155D01*
X101357721Y-77528935D01*
X101325406Y-77542320D01*
X101304609Y-77554328D01*
X101281415Y-77560542D01*
X101249099Y-77573929D01*
X101180635Y-77587546D01*
X101153315Y-77594867D01*
X101139169Y-77595794D01*
X101132554Y-77597110D01*
X101078748Y-77599754D01*
X101074999Y-77600000D01*
X101073748Y-77600000D01*
X100526250Y-77600000D01*
X100524999Y-77600000D01*
X100521249Y-77599754D01*
X100467443Y-77597110D01*
X100460826Y-77595794D01*
X100446683Y-77594867D01*
X100419365Y-77587547D01*
X100350898Y-77573929D01*
X100318579Y-77560541D01*
X100295389Y-77554328D01*
X100274593Y-77542321D01*
X100242276Y-77528935D01*
X100184232Y-77490151D01*
X100159742Y-77476012D01*
X100153038Y-77469308D01*
X100144516Y-77463614D01*
X100061384Y-77380482D01*
X100055689Y-77371959D01*
X100048987Y-77365257D01*
X100034849Y-77340770D01*
X99996063Y-77282722D01*
X99982675Y-77250401D01*
X99970671Y-77229610D01*
X99964458Y-77206423D01*
X99951069Y-77174100D01*
X99937449Y-77105625D01*
X99930132Y-77078316D01*
X99930132Y-77068835D01*
X99928133Y-77058785D01*
X99928133Y-76941214D01*
X99930132Y-76931163D01*
X99930132Y-76921684D01*
X99937448Y-76894377D01*
X99951069Y-76825899D01*
X99964458Y-76793573D01*
X99970671Y-76770390D01*
X99982673Y-76749600D01*
X99996063Y-76717277D01*
X100034853Y-76659222D01*
X100048987Y-76634743D01*
X100055687Y-76628042D01*
X100061384Y-76619517D01*
X100144516Y-76536385D01*
X100153041Y-76530688D01*
X100159742Y-76523988D01*
X100184221Y-76509854D01*
X100242276Y-76471064D01*
X100274599Y-76457674D01*
X100295389Y-76445672D01*
X100318572Y-76439459D01*
X100350898Y-76426070D01*
X100419379Y-76412448D01*
X100446683Y-76405133D01*
X100460819Y-76404206D01*
X100467443Y-76402889D01*
X100521255Y-76400245D01*
X100524999Y-76400000D01*
X101074999Y-76400000D01*
X101078743Y-76400245D01*
G37*
G36*
X125087543Y-74667075D02*
G01*
X125302331Y-74740812D01*
X125502054Y-74848896D01*
X125681262Y-74988380D01*
X125835068Y-75155458D01*
X125959276Y-75345572D01*
X126050499Y-75553538D01*
X126106247Y-75773682D01*
X126125000Y-76000000D01*
X126106247Y-76226318D01*
X126050499Y-76446462D01*
X125959276Y-76654428D01*
X125835068Y-76844542D01*
X125681262Y-77011620D01*
X125502054Y-77151104D01*
X125302331Y-77259188D01*
X125087543Y-77332925D01*
X124863547Y-77370304D01*
X124636453Y-77370304D01*
X124412457Y-77332925D01*
X124197669Y-77259188D01*
X123997946Y-77151104D01*
X123818738Y-77011620D01*
X123664932Y-76844542D01*
X123540724Y-76654428D01*
X123449501Y-76446462D01*
X123393753Y-76226318D01*
X123375000Y-76000000D01*
X123393753Y-75773682D01*
X123449501Y-75553538D01*
X123540724Y-75345572D01*
X123664932Y-75155458D01*
X123818738Y-74988380D01*
X123997946Y-74848896D01*
X124197669Y-74740812D01*
X124412457Y-74667075D01*
X124636453Y-74629696D01*
X124863547Y-74629696D01*
X125087543Y-74667075D01*
G37*
G36*
X137587543Y-74667075D02*
G01*
X137802331Y-74740812D01*
X138002054Y-74848896D01*
X138181262Y-74988380D01*
X138335068Y-75155458D01*
X138459276Y-75345572D01*
X138550499Y-75553538D01*
X138606247Y-75773682D01*
X138625000Y-76000000D01*
X138606247Y-76226318D01*
X138550499Y-76446462D01*
X138459276Y-76654428D01*
X138335068Y-76844542D01*
X138181262Y-77011620D01*
X138002054Y-77151104D01*
X137802331Y-77259188D01*
X137587543Y-77332925D01*
X137363547Y-77370304D01*
X137136453Y-77370304D01*
X136912457Y-77332925D01*
X136697669Y-77259188D01*
X136497946Y-77151104D01*
X136318738Y-77011620D01*
X136164932Y-76844542D01*
X136040724Y-76654428D01*
X135949501Y-76446462D01*
X135893753Y-76226318D01*
X135875000Y-76000000D01*
X135893753Y-75773682D01*
X135949501Y-75553538D01*
X136040724Y-75345572D01*
X136164932Y-75155458D01*
X136318738Y-74988380D01*
X136497946Y-74848896D01*
X136697669Y-74740812D01*
X136912457Y-74667075D01*
X137136453Y-74629696D01*
X137363547Y-74629696D01*
X137587543Y-74667075D01*
G37*
G36*
X142587543Y-74667075D02*
G01*
X142802331Y-74740812D01*
X143002054Y-74848896D01*
X143181262Y-74988380D01*
X143335068Y-75155458D01*
X143459276Y-75345572D01*
X143550499Y-75553538D01*
X143606247Y-75773682D01*
X143625000Y-76000000D01*
X143606247Y-76226318D01*
X143550499Y-76446462D01*
X143459276Y-76654428D01*
X143335068Y-76844542D01*
X143181262Y-77011620D01*
X143002054Y-77151104D01*
X142802331Y-77259188D01*
X142587543Y-77332925D01*
X142363547Y-77370304D01*
X142136453Y-77370304D01*
X141912457Y-77332925D01*
X141697669Y-77259188D01*
X141497946Y-77151104D01*
X141318738Y-77011620D01*
X141164932Y-76844542D01*
X141040724Y-76654428D01*
X140949501Y-76446462D01*
X140893753Y-76226318D01*
X140875000Y-76000000D01*
X140893753Y-75773682D01*
X140949501Y-75553538D01*
X141040724Y-75345572D01*
X141164932Y-75155458D01*
X141318738Y-74988380D01*
X141497946Y-74848896D01*
X141697669Y-74740812D01*
X141912457Y-74667075D01*
X142136453Y-74629696D01*
X142363547Y-74629696D01*
X142587543Y-74667075D01*
G37*
G36*
X147587543Y-74667075D02*
G01*
X147802331Y-74740812D01*
X148002054Y-74848896D01*
X148181262Y-74988380D01*
X148335068Y-75155458D01*
X148459276Y-75345572D01*
X148550499Y-75553538D01*
X148606247Y-75773682D01*
X148625000Y-76000000D01*
X148606247Y-76226318D01*
X148550499Y-76446462D01*
X148459276Y-76654428D01*
X148335068Y-76844542D01*
X148181262Y-77011620D01*
X148002054Y-77151104D01*
X147802331Y-77259188D01*
X147587543Y-77332925D01*
X147363547Y-77370304D01*
X147136453Y-77370304D01*
X146912457Y-77332925D01*
X146697669Y-77259188D01*
X146497946Y-77151104D01*
X146318738Y-77011620D01*
X146164932Y-76844542D01*
X146040724Y-76654428D01*
X145949501Y-76446462D01*
X145893753Y-76226318D01*
X145875000Y-76000000D01*
X145893753Y-75773682D01*
X145949501Y-75553538D01*
X146040724Y-75345572D01*
X146164932Y-75155458D01*
X146318738Y-74988380D01*
X146497946Y-74848896D01*
X146697669Y-74740812D01*
X146912457Y-74667075D01*
X147136453Y-74629696D01*
X147363547Y-74629696D01*
X147587543Y-74667075D01*
G37*
G36*
X152587543Y-74667075D02*
G01*
X152802331Y-74740812D01*
X153002054Y-74848896D01*
X153181262Y-74988380D01*
X153335068Y-75155458D01*
X153459276Y-75345572D01*
X153550499Y-75553538D01*
X153606247Y-75773682D01*
X153625000Y-76000000D01*
X153606247Y-76226318D01*
X153550499Y-76446462D01*
X153459276Y-76654428D01*
X153335068Y-76844542D01*
X153181262Y-77011620D01*
X153002054Y-77151104D01*
X152802331Y-77259188D01*
X152587543Y-77332925D01*
X152363547Y-77370304D01*
X152136453Y-77370304D01*
X151912457Y-77332925D01*
X151697669Y-77259188D01*
X151497946Y-77151104D01*
X151318738Y-77011620D01*
X151164932Y-76844542D01*
X151040724Y-76654428D01*
X150949501Y-76446462D01*
X150893753Y-76226318D01*
X150875000Y-76000000D01*
X150893753Y-75773682D01*
X150949501Y-75553538D01*
X151040724Y-75345572D01*
X151164932Y-75155458D01*
X151318738Y-74988380D01*
X151497946Y-74848896D01*
X151697669Y-74740812D01*
X151912457Y-74667075D01*
X152136453Y-74629696D01*
X152363547Y-74629696D01*
X152587543Y-74667075D01*
G37*
G36*
X101429115Y-74400818D02*
G01*
X101480378Y-74406766D01*
X101497891Y-74414499D01*
X101520670Y-74419030D01*
X101545056Y-74435324D01*
X101565787Y-74444478D01*
X101579945Y-74458636D01*
X101601776Y-74473223D01*
X101616362Y-74495053D01*
X101630520Y-74509211D01*
X101639672Y-74529939D01*
X101655969Y-74554329D01*
X101660500Y-74577109D01*
X101668232Y-74594620D01*
X101674177Y-74645872D01*
X101674999Y-74650000D01*
X101674999Y-75350000D01*
X101674177Y-75354128D01*
X101668232Y-75405379D01*
X101660500Y-75422888D01*
X101655969Y-75445671D01*
X101639671Y-75470062D01*
X101630520Y-75490788D01*
X101616364Y-75504943D01*
X101601776Y-75526777D01*
X101579942Y-75541365D01*
X101565787Y-75555521D01*
X101545061Y-75564672D01*
X101520670Y-75580970D01*
X101497887Y-75585501D01*
X101480378Y-75593233D01*
X101429128Y-75599178D01*
X101424999Y-75600000D01*
X100174999Y-75600000D01*
X100170872Y-75599179D01*
X100119619Y-75593233D01*
X100102108Y-75585501D01*
X100079328Y-75580970D01*
X100054938Y-75564673D01*
X100034210Y-75555521D01*
X100020052Y-75541363D01*
X99998222Y-75526777D01*
X99983635Y-75504946D01*
X99969477Y-75490788D01*
X99960323Y-75470057D01*
X99944029Y-75445671D01*
X99939498Y-75422892D01*
X99931765Y-75405379D01*
X99925817Y-75354117D01*
X99924999Y-75350000D01*
X99924999Y-74650000D01*
X99925817Y-74645885D01*
X99931765Y-74594620D01*
X99939498Y-74577105D01*
X99944029Y-74554329D01*
X99960322Y-74529944D01*
X99969477Y-74509211D01*
X99983637Y-74495050D01*
X99998222Y-74473223D01*
X100020049Y-74458638D01*
X100034210Y-74444478D01*
X100054943Y-74435323D01*
X100079328Y-74419030D01*
X100102104Y-74414499D01*
X100119619Y-74406766D01*
X100170883Y-74400818D01*
X100174999Y-74400000D01*
X101424999Y-74400000D01*
X101429115Y-74400818D01*
G37*
G36*
X127587543Y-69667075D02*
G01*
X127802331Y-69740812D01*
X128002054Y-69848896D01*
X128181262Y-69988380D01*
X128335068Y-70155458D01*
X128459276Y-70345572D01*
X128550499Y-70553538D01*
X128606247Y-70773682D01*
X128625000Y-71000000D01*
X128606247Y-71226318D01*
X128550499Y-71446462D01*
X128459276Y-71654428D01*
X128335068Y-71844542D01*
X128181262Y-72011620D01*
X128002054Y-72151104D01*
X127802331Y-72259188D01*
X127587543Y-72332925D01*
X127363547Y-72370304D01*
X127136453Y-72370304D01*
X126912457Y-72332925D01*
X126697669Y-72259188D01*
X126497946Y-72151104D01*
X126318738Y-72011620D01*
X126164932Y-71844542D01*
X126040724Y-71654428D01*
X125949501Y-71446462D01*
X125893753Y-71226318D01*
X125875000Y-71000000D01*
X125893753Y-70773682D01*
X125949501Y-70553538D01*
X126040724Y-70345572D01*
X126164932Y-70155458D01*
X126318738Y-69988380D01*
X126497946Y-69848896D01*
X126697669Y-69740812D01*
X126912457Y-69667075D01*
X127136453Y-69629696D01*
X127363547Y-69629696D01*
X127587543Y-69667075D01*
G37*
G36*
X140087543Y-69667075D02*
G01*
X140302331Y-69740812D01*
X140502054Y-69848896D01*
X140681262Y-69988380D01*
X140835068Y-70155458D01*
X140959276Y-70345572D01*
X141050499Y-70553538D01*
X141106247Y-70773682D01*
X141125000Y-71000000D01*
X141106247Y-71226318D01*
X141050499Y-71446462D01*
X140959276Y-71654428D01*
X140835068Y-71844542D01*
X140681262Y-72011620D01*
X140502054Y-72151104D01*
X140302331Y-72259188D01*
X140087543Y-72332925D01*
X139863547Y-72370304D01*
X139636453Y-72370304D01*
X139412457Y-72332925D01*
X139197669Y-72259188D01*
X138997946Y-72151104D01*
X138818738Y-72011620D01*
X138664932Y-71844542D01*
X138540724Y-71654428D01*
X138449501Y-71446462D01*
X138393753Y-71226318D01*
X138375000Y-71000000D01*
X138393753Y-70773682D01*
X138449501Y-70553538D01*
X138540724Y-70345572D01*
X138664932Y-70155458D01*
X138818738Y-69988380D01*
X138997946Y-69848896D01*
X139197669Y-69740812D01*
X139412457Y-69667075D01*
X139636453Y-69629696D01*
X139863547Y-69629696D01*
X140087543Y-69667075D01*
G37*
G36*
X150087543Y-69667075D02*
G01*
X150302331Y-69740812D01*
X150502054Y-69848896D01*
X150681262Y-69988380D01*
X150835068Y-70155458D01*
X150959276Y-70345572D01*
X151050499Y-70553538D01*
X151106247Y-70773682D01*
X151125000Y-71000000D01*
X151106247Y-71226318D01*
X151050499Y-71446462D01*
X150959276Y-71654428D01*
X150835068Y-71844542D01*
X150681262Y-72011620D01*
X150502054Y-72151104D01*
X150302331Y-72259188D01*
X150087543Y-72332925D01*
X149863547Y-72370304D01*
X149636453Y-72370304D01*
X149412457Y-72332925D01*
X149197669Y-72259188D01*
X148997946Y-72151104D01*
X148818738Y-72011620D01*
X148664932Y-71844542D01*
X148540724Y-71654428D01*
X148449501Y-71446462D01*
X148393753Y-71226318D01*
X148375000Y-71000000D01*
X148393753Y-70773682D01*
X148449501Y-70553538D01*
X148540724Y-70345572D01*
X148664932Y-70155458D01*
X148818738Y-69988380D01*
X148997946Y-69848896D01*
X149197669Y-69740812D01*
X149412457Y-69667075D01*
X149636453Y-69629696D01*
X149863547Y-69629696D01*
X150087543Y-69667075D01*
G37*
M02*
