%TF.GenerationSoftware,KiCad,Pcbnew,8.0.5-8.0.5-0~ubuntu22.04.1*%
%TF.CreationDate,2024-10-04T16:16:13+02:00*%
%TF.ProjectId,wandfernsprecher,77616e64-6665-4726-9e73-707265636865,0.1.0*%
%TF.SameCoordinates,Original*%
%TF.FileFunction,Legend,Bot*%
%TF.FilePolarity,Positive*%
%FSLAX46Y46*%
G04 Gerber Fmt 4.6, Leading zero omitted, Abs format (unit mm)*
G04 Created by KiCad (PCBNEW 8.0.5-8.0.5-0~ubuntu22.04.1) date 2024-10-04 16:16:13*
%MOMM*%
%LPD*%
G01*
G04 APERTURE LIST*
G04 Aperture macros list*
%AMRoundRect*
0 Rectangle with rounded corners*
0 $1 Rounding radius*
0 $2 $3 $4 $5 $6 $7 $8 $9 X,Y pos of 4 corners*
0 Add a 4 corners polygon primitive as box body*
4,1,4,$2,$3,$4,$5,$6,$7,$8,$9,$2,$3,0*
0 Add four circle primitives for the rounded corners*
1,1,$1+$1,$2,$3*
1,1,$1+$1,$4,$5*
1,1,$1+$1,$6,$7*
1,1,$1+$1,$8,$9*
0 Add four rect primitives between the rounded corners*
20,1,$1+$1,$2,$3,$4,$5,0*
20,1,$1+$1,$4,$5,$6,$7,0*
20,1,$1+$1,$6,$7,$8,$9,0*
20,1,$1+$1,$8,$9,$2,$3,0*%
G04 Aperture macros list end*
%ADD10R,1.800000X1.100000*%
%ADD11RoundRect,0.275000X0.625000X-0.275000X0.625000X0.275000X-0.625000X0.275000X-0.625000X-0.275000X0*%
%ADD12C,4.100000*%
%ADD13C,2.100000*%
%ADD14C,2.750000*%
%ADD15R,2.000000X2.000000*%
%ADD16C,2.000000*%
%ADD17C,1.524000*%
%ADD18C,0.650000*%
%ADD19O,1.000000X2.100000*%
%ADD20O,1.000000X1.600000*%
%ADD21C,2.500000*%
%ADD22C,2.400000*%
%ADD23R,1.800000X1.800000*%
%ADD24O,1.800000X1.800000*%
%ADD25RoundRect,0.250000X-0.350000X-0.625000X0.350000X-0.625000X0.350000X0.625000X-0.350000X0.625000X0*%
%ADD26O,1.200000X1.750000*%
G04 APERTURE END LIST*
%LPC*%
D10*
%TO.C,Q5*%
X-5100000Y-9000000D03*
D11*
X-7170000Y-7730000D03*
X-5100000Y-6460000D03*
%TD*%
D12*
%TO.C,SW1*%
X117250000Y-89000000D03*
D13*
X138500000Y-103000000D03*
D12*
X159750000Y-89000000D03*
D14*
X124750000Y-76000000D03*
X127250000Y-71000000D03*
X137250000Y-76000000D03*
X139750000Y-71000000D03*
X142250000Y-76000000D03*
X147250000Y-76000000D03*
X149750000Y-71000000D03*
X152250000Y-76000000D03*
%TD*%
D15*
%TO.C,C14*%
X-38000000Y0D03*
D16*
X-33000000Y0D03*
%TD*%
%TO.C,SW4*%
X-68500000Y-89500000D03*
X-68500000Y-83000000D03*
X-64000000Y-89500000D03*
X-64000000Y-83000000D03*
%TD*%
D17*
%TO.C,U1*%
X75795000Y-120540000D03*
X75795000Y-118000000D03*
X75795000Y-115460000D03*
X75795000Y-112920000D03*
X75795000Y-110380000D03*
X54205000Y-107840000D03*
X54205000Y-110380000D03*
X54205000Y-112920000D03*
X54205000Y-115460000D03*
X54205000Y-118000000D03*
X54205000Y-120540000D03*
%TD*%
D10*
%TO.C,Q6*%
X-5100000Y-15000000D03*
D11*
X-7170000Y-13730000D03*
X-5100000Y-12460000D03*
%TD*%
D18*
%TO.C,J2*%
X76110000Y-24400000D03*
X81890000Y-24400000D03*
D19*
X74680000Y-23870000D03*
D20*
X74680000Y-28050000D03*
D19*
X83320000Y-23870000D03*
D20*
X83320000Y-28050000D03*
%TD*%
D21*
%TO.C,J1*%
X72750000Y-101500000D03*
X70250000Y-96500000D03*
X67750000Y-101500000D03*
X65250000Y-96500000D03*
X62750000Y-101500000D03*
X60250000Y-96500000D03*
X57750000Y-101500000D03*
X55250000Y-96500000D03*
%TD*%
D10*
%TO.C,Q7*%
X-5100000Y-21000000D03*
D11*
X-7170000Y-19730000D03*
X-5100000Y-18460000D03*
%TD*%
D22*
%TO.C,C15*%
X133500000Y-138500000D03*
X148500000Y-138500000D03*
%TD*%
D21*
%TO.C,NS1*%
X95250000Y-133500000D03*
X97750000Y-138500000D03*
X100250000Y-133500000D03*
X102750000Y-138500000D03*
X105250000Y-133500000D03*
X107750000Y-138500000D03*
X110250000Y-133500000D03*
X112750000Y-138500000D03*
%TD*%
%TO.C,SW2*%
X95250000Y-118000000D03*
X97750000Y-123000000D03*
X100250000Y-118000000D03*
X102750000Y-123000000D03*
X105250000Y-118000000D03*
X107750000Y-123000000D03*
X110250000Y-118000000D03*
X112750000Y-123000000D03*
%TD*%
D23*
%TO.C,U4*%
X-74500000Y1000000D03*
D24*
X-72800000Y4700000D03*
X-71100000Y1000000D03*
X-69400000Y4700000D03*
X-67700000Y1000000D03*
%TD*%
D10*
%TO.C,Q4*%
X-5100000Y-3000000D03*
D11*
X-7170000Y-1730000D03*
X-5100000Y-460000D03*
%TD*%
D10*
%TO.C,Q2*%
X-10600000Y-9000000D03*
D11*
X-12670000Y-7730000D03*
X-10600000Y-6460000D03*
%TD*%
D10*
%TO.C,Q3*%
X-10600000Y-21000000D03*
D11*
X-12670000Y-19730000D03*
X-10600000Y-18460000D03*
%TD*%
D15*
%TO.C,C12*%
X-66500000Y-6000000D03*
D16*
X-71500000Y-6000000D03*
%TD*%
D22*
%TO.C,L2*%
X-59000000Y-2500000D03*
X-59000000Y4500000D03*
%TD*%
D25*
%TO.C,J3*%
X36638000Y-25339000D03*
D26*
X38638000Y-25339000D03*
%TD*%
D21*
%TO.C,L1*%
X135750000Y-125500000D03*
X138250000Y-130500000D03*
X145750000Y-125500000D03*
X148250000Y-130500000D03*
%TD*%
%LPD*%
M02*
