M48
; DRILL file {KiCad 8.0.6-8.0.6-0~ubuntu22.04.1} date 2024-10-28T00:14:08+0100
; FORMAT={-:-/ absolute / metric / decimal}
; #@! TF.CreationDate,2024-10-28T00:14:08+01:00
; #@! TF.GenerationSoftware,Kicad,Pcbnew,8.0.6-8.0.6-0~ubuntu22.04.1
; #@! TF.FileFunction,Plated,1,4,PTH
FMAT,2
METRIC
; #@! TA.AperFunction,Plated,PTH,ComponentDrill
T1C0.200
; #@! TA.AperFunction,Plated,PTH,ViaDrill
T2C0.254
; #@! TA.AperFunction,Plated,PTH,ComponentDrill
T3C0.300
; #@! TA.AperFunction,Plated,PTH,ComponentDrill
T4C0.750
; #@! TA.AperFunction,Plated,PTH,ComponentDrill
T5C0.762
; #@! TA.AperFunction,Plated,PTH,ComponentDrill
T6C1.000
; #@! TA.AperFunction,Plated,PTH,ComponentDrill
T7C1.100
; #@! TA.AperFunction,Plated,PTH,ComponentDrill
T8C1.200
; #@! TA.AperFunction,Plated,PTH,ComponentDrill
T9C1.500
%
G90
G05
T1
X70.19Y-136.25
X70.19Y-137.35
X70.74Y-135.7
X70.74Y-136.8
X70.74Y-137.9
X71.29Y-136.25
X71.29Y-137.35
X71.84Y-135.7
X71.84Y-136.8
X71.84Y-137.9
X72.39Y-136.25
X72.39Y-137.35
T2
X65.0Y-128.25
X65.0Y-138.25
X65.0Y-139.75
X78.0Y-93.25
X78.25Y-130.25
X79.25Y-141.75
X79.5Y-132.5
X79.5Y-133.75
X79.5Y-135.0
X80.125Y-84.375
X81.0Y-129.5
X81.75Y-84.75
X82.25Y-138.4
X82.25Y-139.5
X82.5Y-131.0
X82.75Y-129.5
X83.25Y-127.0
X83.75Y-92.5
X83.75Y-141.5
X84.0Y-84.75
X85.75Y-121.75
X85.75Y-123.75
X85.75Y-136.5
X86.0Y-122.75
X86.5Y-124.5
X86.75Y-140.5
X87.5Y-134.5
X89.25Y-142.25
X89.25Y-143.25
X89.5Y-101.0
X90.25Y-129.0
X91.25Y-114.5
X91.25Y-121.0
X93.75Y-99.5
X94.75Y-125.0
X95.0Y-99.5
X96.5Y-85.5
X96.5Y-114.5
X97.25Y-140.0
X97.5Y-84.0
X97.5Y-132.5
X98.0Y-98.25
X98.0Y-139.25
X98.25Y-123.75
X98.75Y-84.0
T3
X95.86Y-93.515
X95.86Y-94.485
X97.14Y-93.515
X97.14Y-94.485
T4
X88.75Y-84.55
X90.75Y-84.55
X100.8Y-75.0
X100.8Y-77.0
X129.98Y-134.98
X129.98Y-146.73
X131.25Y-133.71
X131.25Y-136.25
X131.25Y-145.46
X131.25Y-148.0
X135.23Y-129.23
X135.23Y-134.98
X135.23Y-140.98
X135.23Y-146.73
X136.5Y-127.96
X136.5Y-130.5
X136.5Y-133.71
X136.5Y-136.25
X136.5Y-139.71
X136.5Y-142.25
X136.5Y-145.46
X136.5Y-148.0
T5
X58.555Y-94.455
X58.555Y-116.045
X61.095Y-94.455
X61.095Y-116.045
X63.635Y-94.455
X63.635Y-116.045
X66.175Y-94.455
X66.175Y-116.045
X68.715Y-94.455
X68.715Y-116.045
X71.255Y-94.455
T6
X52.137Y-131.18
X52.137Y-133.72
X52.137Y-136.26
X52.137Y-138.8
X108.0Y-128.618
X108.0Y-133.618
X120.0Y-144.25
X125.0Y-144.25
T7
X52.0Y-122.5
X52.0Y-127.0
X58.5Y-122.5
X58.5Y-127.0
X115.25Y-125.118
X115.25Y-128.518
X115.25Y-131.918
X118.95Y-126.818
X118.95Y-130.218
T8
X107.0Y-143.0
X114.0Y-143.0
X144.5Y-132.75
X144.5Y-147.75
T9
X124.75Y-76.0
X127.25Y-71.0
X137.25Y-76.0
X139.75Y-71.0
X142.25Y-76.0
X147.25Y-76.0
X149.75Y-71.0
X152.25Y-76.0
T6
X56.366Y-84.491G85X55.836Y-83.961
G05
X58.664Y-86.789G85X58.134Y-86.259
G05
X61.366Y-84.491G85X60.836Y-83.961
G05
X63.664Y-86.789G85X63.134Y-86.259
G05
X66.366Y-84.491G85X65.836Y-83.961
G05
X68.664Y-86.789G85X68.134Y-86.259
G05
X71.366Y-84.491G85X70.836Y-83.961
G05
X73.664Y-86.789G85X73.134Y-86.259
G05
X79.866Y-106.991G85X79.336Y-106.461
G05
X82.164Y-109.289G85X81.634Y-108.759
G05
X84.866Y-106.991G85X84.336Y-106.461
G05
X87.164Y-109.289G85X86.634Y-108.759
G05
X89.866Y-106.991G85X89.336Y-106.461
G05
X92.164Y-109.289G85X91.634Y-108.759
G05
X94.866Y-106.991G85X94.336Y-106.461
G05
X97.164Y-109.289G85X96.634Y-108.759
G05
X104.116Y-111.616G85X103.586Y-111.086
G05
X106.414Y-113.914G85X105.884Y-113.384
G05
X109.116Y-111.616G85X108.586Y-111.086
G05
X111.414Y-113.914G85X110.884Y-113.384
G05
X114.116Y-111.616G85X113.586Y-111.086
G05
X116.414Y-113.914G85X115.884Y-113.384
G05
X119.116Y-111.616G85X118.586Y-111.086
G05
X121.414Y-113.914G85X120.884Y-113.384
G05
X153.954Y-118.828G85X154.703Y-118.799
G05
X157.201Y-118.704G85X157.951Y-118.675
G05
X159.049Y-113.325G85X159.799Y-113.296
G05
X162.297Y-113.201G85X163.046Y-113.172
G05
M30
